<?xml version="1.0" encoding="utf-8" standalone="no"?>
<!DOCTYPE svg PUBLIC "-//W3C//DTD SVG 1.1//EN"
  "http://www.w3.org/Graphics/SVG/1.1/DTD/svg11.dtd">
<!-- Created with matplotlib (https://matplotlib.org/) -->
<svg height="337.397538pt" version="1.1" viewBox="0 0 453.6 337.397538" width="453.6pt" xmlns="http://www.w3.org/2000/svg" xmlns:xlink="http://www.w3.org/1999/xlink">
 <metadata>
  <rdf:RDF xmlns:cc="http://creativecommons.org/ns#" xmlns:dc="http://purl.org/dc/elements/1.1/" xmlns:rdf="http://www.w3.org/1999/02/22-rdf-syntax-ns#">
   <cc:Work>
    <dc:type rdf:resource="http://purl.org/dc/dcmitype/StillImage"/>
    <dc:date>2024-08-01T03:44:18.955391</dc:date>
    <dc:format>image/svg+xml</dc:format>
    <dc:creator>
     <cc:Agent>
      <dc:title>Matplotlib v3.3.4, https://matplotlib.org/</dc:title>
     </cc:Agent>
    </dc:creator>
   </cc:Work>
  </rdf:RDF>
 </metadata>
 <defs>
  <style type="text/css">*{stroke-linecap:butt;stroke-linejoin:round;}</style>
 </defs>
 <g id="figure_1">
  <g id="patch_1">
   <path d="M 0 337.397538 
L 453.6 337.397538 
L 453.6 0 
L 0 0 
z
" style="fill:#ffffff;"/>
  </g>
  <g id="axes_1">
   <g id="patch_2">
    <path d="M 7.2 330.197538 
L 446.4 330.197538 
L 446.4 7.2 
L 7.2 7.2 
z
" style="fill:#ffffff;"/>
   </g>
   <g id="patch_3">
    <path clip-path="url(#pcffddbc39d)" d="M 196.635165 168.698769 
L 196.635165 168.698769 
L 197.019929 168.178884 
L 197.275028 167.84318 
L 197.530126 167.514428 
L 197.785225 167.192458 
L 198.040323 166.877107 
L 198.154442 166.738133 
L 198.374707 166.4735 
L 198.594972 166.213532 
L 198.815238 165.958135 
L 199.035503 165.707215 
L 199.422286 165.277165 
L 199.809069 164.860174 
L 199.991208 164.668204 
L 200.225957 164.424833 
L 200.460707 164.185937 
L 200.695456 163.951424 
L 200.930206 163.721203 
L 201.219206 163.443545 
L 201.508206 163.172104 
L 201.806329 162.898447 
L 202.104452 162.631081 
L 202.511683 162.275745 
L 202.918914 161.931473 
L 203.387716 161.548372 
L 203.788821 161.23144 
L 204.189927 160.924177 
L 204.472396 160.713431 
L 204.754865 160.507225 
L 205.031634 160.309488 
L 205.569766 159.936881 
L 206.093637 159.588691 
L 206.586321 159.273812 
L 207.079005 158.970676 
L 207.425787 158.764123 
L 207.772569 158.563036 
L 208.044753 158.408948 
L 208.393492 158.216216 
L 208.74223 158.028639 
L 209.214528 157.782597 
L 209.722131 157.5281 
L 210.342275 157.230642 
L 210.772088 157.03286 
L 211.201901 156.841713 
L 211.613178 156.664848 
L 212.024455 156.493725 
L 212.625785 156.253542 
L 212.777773 156.194671 
L 213.245644 156.017975 
L 213.713516 155.84796 
L 214.173677 155.687072 
L 214.544162 155.561973 
L 215.240785 155.337127 
L 215.946585 155.122642 
L 216.443798 154.97929 
L 216.945988 154.840782 
L 217.448178 154.708399 
L 218.115762 154.541591 
L 218.201707 154.520859 
L 218.73719 154.395405 
L 219.272673 154.276224 
L 219.418971 154.244729 
L 220.315126 154.061492 
L 220.701835 153.987431 
L 221.513391 153.841453 
L 222.094145 153.744593 
L 222.645072 153.658369 
L 223.389928 153.550267 
L 223.628164 153.517692 
L 224.536113 153.402147 
L 225.047214 153.342929 
L 225.505948 153.293239 
L 226.074576 153.23607 
L 226.799125 153.170116 
L 227.320182 153.127318 
L 228.239623 153.060917 
L 228.747347 153.029083 
L 229.374536 152.994352 
L 230.205009 152.955934 
L 230.676075 152.937861 
L 231.425081 152.914493 
L 231.612638 152.909651 
L 232.639183 152.890101 
L 232.760521 152.888551 
L 233.765528 152.881703 
L 234.191036 152.881949 
L 235.109088 152.888638 
L 235.432941 152.892956 
L 235.879416 152.900545 
L 236.631295 152.917513 
L 237.285883 152.936453 
L 237.694616 152.950198 
L 238.175718 152.968224 
L 238.919212 152.999924 
L 239.84453 153.045702 
L 240.091981 153.059102 
L 240.714878 153.094943 
L 241.292473 153.130825 
L 242.344787 153.202552 
L 242.692409 153.228002 
L 243.328137 153.276741 
L 243.668066 153.303948 
L 244.470806 153.37129 
L 245.367826 153.451552 
L 245.701874 153.482759 
L 246.102019 153.521061 
L 247.162339 153.627307 
L 247.367489 153.648643 
L 247.997747 153.715736 
L 248.915505 153.817514 
L 249.406685 153.873923 
L 250.084132 153.953887 
L 250.426879 153.995281 
L 251.364504 154.111666 
L 251.950013 154.186629 
L 252.6933 154.284257 
L 252.765136 154.293836 
L 253.587324 154.405244 
L 254.102286 154.476654 
L 254.548814 154.539571 
L 255.653143 154.699059 
L 255.892641 154.734363 
L 256.828983 154.874773 
L 257.446628 154.969431 
L 257.945562 155.047053 
L 258.722583 155.169954 
L 259.259399 155.256269 
L 259.572688 155.307164 
L 260.163673 155.404204 
L 260.860841 155.520382 
L 261.744606 155.670244 
L 262.113001 155.733551 
L 262.47689 155.79656 
L 263.040198 155.895018 
L 264.16088 156.09415 
L 264.745171 156.199649 
L 264.925278 156.232396 
L 265.725125 156.379101 
L 266.194127 156.466077 
L 266.708952 156.562347 
L 267.46929 156.706028 
L 268.146894 156.835552 
L 268.802607 156.96219 
L 269.617596 157.121334 
L 269.990698 157.194823 
L 270.441604 157.28416 
L 270.952474 157.38606 
L 271.535992 157.503324 
L 272.322071 157.662741 
L 272.793808 157.759193 
L 273.549687 157.914943 
L 274.206421 158.051446 
L 274.889847 158.194639 
L 275.522782 158.328275 
L 276.292723 158.492136 
L 276.381072 158.511029 
L 277.052426 158.655189 
L 277.910978 158.841061 
L 278.546908 158.97981 
L 279.345465 159.155311 
L 279.405672 159.168599 
L 280.122732 159.327463 
L 281.211878 159.570847 
L 281.481681 159.63152 
L 282.109866 159.773362 
L 282.516262 159.865551 
L 283.459135 160.080701 
L 283.990542 160.202727 
L 284.473566 160.314115 
L 285.439132 160.538102 
L 285.484275 160.548617 
L 286.380171 160.758065 
L 286.855747 160.869841 
L 287.814981 161.096518 
L 288.161962 161.178912 
L 288.678966 161.302065 
L 289.693084 161.544957 
L 289.783886 161.566789 
L 290.595938 161.762646 
L 291.046673 161.871823 
L 292.002696 162.104474 
L 292.222346 162.158131 
L 293.081715 162.368788 
L 293.664879 162.512387 
L 294.49679 162.718129 
L 295.124804 162.874128 
L 295.611537 162.995432 
L 295.893977 163.065979 
L 296.620603 163.248 
L 297.536404 163.478474 
L 297.798269 163.544591 
L 298.414084 163.700446 
L 298.994738 163.847875 
L 299.774314 164.046521 
L 300.016419 164.108376 
L 300.766993 164.300625 
L 301.631116 164.522858 
L 302.080263 164.638743 
L 302.840407 164.835442 
L 303.622672 165.038608 
L 303.687449 165.055464 
L 304.276532 165.208994 
L 305.03004 165.405979 
L 305.529669 165.536962 
L 306.682971 165.840415 
L 307.213335 165.98047 
L 307.466384 166.047405 
L 308.36894 166.286723 
L 308.987396 166.451224 
L 309.175182 166.501255 
L 309.735599 166.650788 
L 310.706036 166.910511 
L 311.49697 167.122919 
L 311.631162 167.159021 
L 312.697195 167.446463 
L 313.056486 167.543598 
L 313.689905 167.715156 
L 314.415574 167.912182 
L 315.121258 168.104268 
L 315.210944 168.128715 
L 315.999565 168.344003 
L 316.421378 168.459394 
L 317.294505 168.698769 
L 317.294505 168.698769 
z
" style="fill:#0000ff;opacity:0.5;"/>
   </g>
   <g id="patch_4">
    <path clip-path="url(#pcffddbc39d)" d="M 15.646154 168.698769 
L 15.646154 44.468947 
L 16.231496 44.6295 
L 17.369138 44.940639 
L 17.985288 45.108645 
L 18.95112 45.371268 
L 19.674121 45.56727 
L 19.955388 45.643381 
L 20.883812 45.894052 
L 21.386724 46.029474 
L 22.323089 46.280922 
L 23.372953 46.561761 
L 23.796464 46.674719 
L 24.75455 46.929544 
L 25.348954 47.087135 
L 26.472142 47.383843 
L 26.894914 47.495154 
L 27.863376 47.749364 
L 28.89263 48.018325 
L 29.252604 48.112093 
L 29.924944 48.286809 
L 30.576525 48.455601 
L 31.736585 48.754802 
L 32.15546 48.862418 
L 32.931105 49.061095 
L 33.839963 49.292889 
L 34.471717 49.453361 
L 35.187813 49.634601 
L 36.088875 49.861647 
L 36.745531 50.02639 
L 37.486368 50.211511 
L 38.222468 50.394657 
L 39.02772 50.59409 
L 39.84863 50.796393 
L 40.631615 50.988384 
L 41.216991 51.131295 
L 41.794348 51.271714 
L 43.063435 51.57847 
L 43.530989 51.690814 
L 44.127534 51.833618 
L 45.261403 52.10337 
L 45.705806 52.208483 
L 47.027661 52.519053 
L 47.117618 52.540073 
L 47.951627 52.734243 
L 49.012356 52.979309 
L 49.71701 53.140914 
L 50.536896 53.327718 
L 51.321569 53.505238 
L 51.968677 53.65069 
L 52.604335 53.79272 
L 53.285841 53.944044 
L 54.646215 54.243097 
L 54.685953 54.251772 
L 55.621277 54.454913 
L 56.642004 54.674311 
L 57.360728 54.827327 
L 57.915156 54.944517 
L 59.068636 55.185911 
L 59.321635 55.238412 
L 60.06153 55.391016 
L 60.950826 55.572554 
L 61.86234 55.756444 
L 62.271565 55.838269 
L 63.393804 56.060271 
L 63.885282 56.156372 
L 64.834091 56.339911 
L 65.545631 56.475799 
L 66.294827 56.617216 
L 67.516655 56.844088 
L 68.044466 56.940615 
L 68.699804 57.059193 
L 69.660757 57.230467 
L 70.576082 57.390654 
L 70.781512 57.4262 
L 72.096665 57.650163 
L 72.77173 57.762643 
L 73.513071 57.884171 
L 73.719112 57.91757 
L 75.061323 58.131025 
L 75.483316 58.196629 
L 76.06865 58.286401 
L 77.044103 58.432774 
L 77.665444 58.523852 
L 78.752234 58.678997 
L 79.029302 58.717683 
L 80.327071 58.894059 
L 80.767218 58.952028 
L 81.463599 59.041774 
L 82.373656 59.155333 
L 82.92175 59.221636 
L 83.930834 59.339473 
L 84.962376 59.454087 
L 85.064861 59.465142 
L 86.023495 59.56558 
L 87.204364 59.681702 
L 87.944156 59.750019 
L 88.0929 59.763332 
L 89.419857 59.875652 
L 90.205254 59.936507 
L 90.995913 59.993382 
L 91.1867 60.006432 
L 92.025993 60.060646 
L 92.777156 60.104652 
L 93.847087 60.159695 
L 94.223195 60.176848 
L 95.256356 60.217883 
L 96.316843 60.250398 
L 96.641552 60.25834 
L 97.472019 60.274222 
L 97.903929 60.279905 
L 98.657529 60.285473 
L 99.675286 60.283928 
L 100.271384 60.278014 
L 101.113355 60.263119 
L 102.02751 60.237957 
L 102.997446 60.200585 
L 103.82291 60.15975 
L 104.165326 60.14029 
L 105.120733 60.077909 
L 106.059441 60.004596 
L 106.382187 59.976535 
L 107.538739 59.863492 
L 108.354946 59.771497 
L 108.576999 59.744654 
L 109.259819 59.657098 
L 109.94264 59.561766 
L 110.278465 59.51194 
L 111.184835 59.367454 
L 112.161515 59.194738 
L 112.670158 59.097487 
L 113.614928 58.902967 
L 114.312922 58.747184 
L 114.625052 58.674077 
L 115.543516 58.446138 
L 116.177745 58.27716 
L 116.811975 58.098305 
L 117.209227 57.981078 
L 117.884654 57.772245 
L 118.381945 57.610578 
L 118.885826 57.439683 
L 119.389706 57.261429 
L 119.997488 57.036285 
L 120.605269 56.799647 
L 121.124972 56.587836 
L 121.785265 56.305635 
L 122.409343 56.024893 
L 122.85475 55.815866 
L 123.300157 55.59937 
L 123.666789 55.415396 
L 124.033422 55.226069 
L 124.506328 54.97373 
L 125.031844 54.682218 
L 125.55736 54.378583 
L 126.103747 54.049527 
L 126.458197 53.828519 
L 126.812647 53.601385 
L 127.328543 53.259508 
L 127.844439 52.903769 
L 128.243525 52.618711 
L 128.642612 52.324749 
L 128.997109 52.055933 
L 129.351606 51.779658 
L 129.850877 51.377489 
L 130.350147 50.959465 
L 130.691299 50.664369 
L 131.032451 50.361338 
L 131.402134 50.023735 
L 131.771818 49.676234 
L 132.124883 49.334821 
L 132.477949 48.983799 
L 132.937155 48.512373 
L 133.396362 48.02348 
L 133.823881 47.551974 
L 134.104128 47.234032 
L 134.384375 46.908855 
L 134.664622 46.576253 
L 134.944869 46.236028 
L 135.172914 45.95341 
L 135.558517 45.463415 
L 135.944119 44.957697 
L 136.276618 44.508541 
L 136.609117 44.04684 
L 136.941616 43.572172 
L 137.274114 43.084093 
L 137.414139 42.874425 
L 137.627284 42.550465 
L 137.84043 42.220592 
L 138.053575 41.884673 
L 138.266721 41.542571 
L 138.475763 41.200914 
L 138.684805 40.853036 
L 138.893847 40.498796 
L 139.102889 40.138049 
L 139.392823 39.626651 
L 139.682756 39.102029 
L 139.97269 38.563749 
L 140.262624 38.011358 
L 140.457251 37.632397 
L 140.651877 37.246716 
L 140.846504 36.854162 
L 141.04113 36.454576 
L 141.253255 36.010867 
L 141.465379 35.558395 
L 141.752978 34.930532 
L 142.040577 34.285562 
L 142.331752 33.61452 
L 142.622927 32.924651 
L 142.914102 32.215257 
L 143.205276 31.485605 
L 143.419832 30.93454 
L 143.634388 30.371736 
L 143.848944 29.796859 
L 144.0635 29.209563 
L 144.225295 28.758253 
L 144.387091 28.299516 
L 144.548887 27.833187 
L 144.710683 27.359098 
L 144.864897 26.89984 
L 145.019112 26.433217 
L 145.173327 25.95907 
L 145.327541 25.477234 
L 145.458122 25.063105 
L 145.588702 24.643236 
L 145.719283 24.217519 
L 145.849863 23.785842 
L 146.03284 23.170708 
L 146.215817 22.543324 
L 146.398794 21.903357 
L 146.581771 21.250459 
L 146.740673 20.672695 
L 146.899575 20.084663 
L 147.058477 19.486111 
L 147.21738 18.876778 
L 147.347832 18.368295 
L 147.478284 17.852211 
L 147.608736 17.328368 
L 147.739188 16.796606 
L 147.86964 16.256757 
L 148.000093 15.70865 
L 148.130545 15.152108 
L 148.260997 14.586951 
L 148.389551 14.021409 
L 148.518104 13.447135 
L 148.646658 12.863941 
L 148.775211 12.271632 
L 148.903765 11.670009 
L 149.032319 11.058864 
L 149.160872 10.437987 
L 149.289426 9.807158 
L 149.41063 9.203076 
L 149.531835 8.589755 
L 149.653039 7.966993 
L 149.774243 7.334585 
L 149.914688 6.589446 
L 150.055132 5.830731 
L 150.195576 5.058089 
L 150.336021 4.271157 
L 150.441749 3.669087 
L 150.547478 3.05854 
L 150.653207 2.439345 
L 150.758935 1.811328 
L 150.864664 1.17431 
L 150.970392 0.528107 
L 151.076121 -0.127472 
L 151.18185 -0.79262 
L 151.32524 -1.71035 
L 151.468631 -2.646564 
L 151.612021 -3.601798 
L 151.755412 -4.576609 
L 151.898803 -5.571572 
L 151.970498 -6.076799 
L 152.042193 -6.587291 
L 152.113888 -7.103127 
L 152.185584 -7.624389 
L 152.257279 -8.151157 
L 152.328974 -8.683517 
L 152.432577 -9.462848 
L 152.536179 -10.254296 
L 152.639782 -11.058135 
L 152.743385 -11.874644 
L 152.846987 -12.704113 
L 152.95059 -13.546839 
L 153.054192 -14.40313 
L 153.157795 -15.273302 
L 153.240441 -15.977627 
L 153.323087 -16.691164 
L 153.424206 -17.576979 
L 153.525325 -18.477175 
L 153.626444 -19.392092 
L 153.727563 -20.32208 
L 153.828682 -21.267502 
L 153.929801 -22.228729 
L 154.03092 -23.206148 
L 154.13204 -24.200157 
L 154.228554 -25.164752 
L 154.325068 -26.145205 
L 154.421583 -27.141895 
L 154.518097 -28.155218 
L 154.614611 -29.185577 
L 154.711126 -30.233395 
L 154.80764 -31.299102 
L 154.904155 -32.383148 
L 154.95648 -32.9787 
L 155.008806 -33.579854 
L 155.061132 -34.186686 
L 155.113458 -34.799276 
L 155.165784 -35.417703 
L 155.21811 -36.042049 
L 155.270435 -36.672396 
L 155.322761 -37.30883 
L 155.375087 -37.951436 
L 155.427413 -38.600301 
L 155.479739 -39.255517 
L 155.532065 -39.917173 
L 155.584391 -40.585362 
L 155.636716 -41.26018 
L 155.689042 -41.941722 
L 155.741368 -42.630087 
L 155.816619 -43.632197 
L 155.891869 -44.648932 
L 155.967119 -45.680605 
L 156.04237 -46.72754 
L 156.11762 -47.790071 
L 156.192871 -48.868539 
L 156.268121 -49.963298 
L 156.343371 -51.07471 
L 156.412139 -52.105249 
L 156.480906 -53.1503 
L 156.549673 -54.210168 
L 156.61844 -55.28516 
L 156.687207 -56.375597 
L 156.755975 -57.481806 
L 156.824742 -58.604125 
L 156.893509 -59.742901 
L 156.962276 -60.89849 
L 157.031043 -62.071261 
L 157.099811 -63.261592 
L 157.168578 -64.469871 
L 157.237345 -65.696501 
L 157.306112 -66.941893 
L 157.374879 -68.206475 
L 157.443647 -69.490683 
L 157.493945 -70.442686 
L 157.544244 -71.405612 
L 157.594542 -72.379647 
L 157.644841 -73.364982 
L 157.69514 -74.36181 
L 157.745438 -75.370331 
L 157.795737 -76.390747 
L 157.846036 -77.423267 
L 157.896334 -78.468105 
L 157.946633 -79.525477 
L 157.996932 -80.595607 
L 158.04723 -81.678724 
L 158.097529 -82.775062 
L 158.147828 -83.884861 
L 158.198126 -85.008366 
L 158.248425 -86.145828 
L 158.282987 -86.935639 
L 158.317549 -87.732248 
L 158.352111 -88.53574 
L 158.386673 -89.346204 
L 158.421234 -90.163731 
L 158.455796 -90.98841 
L 158.490358 -91.820336 
L 158.52492 -92.659603 
L 158.559482 -93.506307 
L 158.594044 -94.360545 
L 158.628606 -95.222418 
L 158.663167 -96.092027 
L 158.697729 -96.969476 
L 158.732291 -97.854868 
L 158.766853 -98.748312 
L 158.801415 -99.649915 
L 158.847522 -100.865606 
L 158.89363 -102.096286 
L 158.939738 -103.34223 
L 158.985845 -104.60372 
L 159.031953 -105.881045 
L 159.078061 -107.174502 
L 159.124168 -108.484393 
L 159.170276 -109.811032 
L 159.216384 -111.154736 
L 159.262491 -112.515834 
L 159.308599 -113.894661 
L 159.354707 -115.291562 
L 159.400814 -116.706891 
L 159.446922 -118.141011 
L 159.49303 -119.594294 
L 159.539137 -121.067122 
L 159.577852 -122.319184 
L 159.616567 -123.585541 
L 159.655282 -124.866437 
L 159.693997 -126.16212 
L 159.732712 -127.472847 
L 159.771427 -128.798877 
L 159.810142 -130.140478 
L 159.848856 -131.497923 
L 159.887571 -132.871491 
L 159.926286 -134.261468 
L 159.965001 -135.668148 
L 160.003716 -137.09183 
L 160.042431 -138.532822 
L 160.081146 -139.991438 
L 160.119861 -141.468 
L 160.158575 -142.962839 
L 160.19729 -144.476294 
L 160.236005 -146.00871 
L 160.27472 -147.560444 
L 160.313435 -149.13186 
L 160.35215 -150.723331 
L 160.390865 -152.335241 
L 160.42958 -153.967982 
L 160.468295 -155.621958 
L 160.507009 -157.297583 
L 160.545724 -158.99528 
L 160.584439 -160.715486 
L 160.623154 -162.458646 
L 160.661869 -164.225222 
L 160.700584 -166.015683 
L 160.739299 -167.830513 
L 160.778014 -169.670211 
L 160.799157 -170.685608 
L 160.8203 -171.708659 
L 160.841444 -172.73945 
L 160.862587 -173.778069 
L 160.883731 -174.824604 
L 160.904874 -175.879146 
L 160.926017 -176.941787 
L 160.947161 -178.012619 
L 160.968304 -179.091737 
L 160.989448 -180.179236 
L 161.010591 -181.275215 
L 161.031734 -182.379772 
L 161.052878 -183.493007 
L 161.074021 -184.615022 
L 161.095165 -185.745922 
L 161.116308 -186.885811 
L 161.148156 -188.619998 
L 161.180003 -190.375196 
L 161.211851 -192.151787 
L 161.243699 -193.950162 
L 161.275546 -195.770721 
L 161.307394 -197.613876 
L 161.339242 -199.480047 
L 161.37109 -201.369665 
L 161.402937 -203.283172 
L 161.434785 -205.221021 
L 161.466633 -207.183678 
L 161.49848 -209.171619 
L 161.530328 -211.185333 
L 161.562176 -213.225322 
L 161.594024 -215.2921 
L 161.625871 -217.386197 
L 161.657719 -219.508153 
L 161.689567 -221.658527 
L 161.721414 -223.837889 
L 161.753262 -226.046827 
L 161.78511 -228.285944 
L 161.816957 -230.55586 
L 161.848805 -232.857212 
L 161.880653 -235.190653 
L 161.912501 -237.556856 
L 161.944348 -239.956514 
L 161.976196 -242.390337 
L 162.008044 -244.859056 
L 162.039891 -247.363425 
L 162.071739 -249.904218 
L 162.103587 -252.482232 
L 162.135435 -255.098286 
L 162.155753 -256.787568 
L 162.176072 -258.492901 
L 162.19639 -260.214515 
L 162.216709 -261.952644 
L 162.237027 -263.707524 
L 162.257346 -265.479398 
L 162.277664 -267.268514 
L 162.297983 -269.075123 
L 162.318301 -270.899482 
L 162.33862 -272.741853 
L 162.358938 -274.602503 
L 162.379257 -276.481704 
L 162.399575 -278.379734 
L 162.419894 -280.296877 
L 162.440212 -282.233421 
L 162.460531 -284.189662 
L 162.485019 -286.573959 
L 162.509507 -288.987843 
L 162.533996 -291.431865 
L 162.558484 -293.906591 
L 162.582972 -296.412603 
L 162.60746 -298.950494 
L 162.631949 -301.520875 
L 162.656437 -304.124371 
L 162.680925 -306.761626 
L 162.705413 -309.433297 
L 162.729902 -312.14006 
L 162.75439 -314.882609 
L 162.778878 -317.661657 
L 162.803366 -320.477935 
L 162.827855 -323.332193 
L 162.852343 -326.225202 
L 162.876831 -329.157756 
L 162.901319 -332.130668 
L 162.925808 -335.144774 
L 162.950296 -338.200934 
L 162.974784 -341.300032 
L 162.999272 -344.442976 
L 163.023761 -347.630703 
L 163.048249 -350.864171 
L 163.072737 -354.144372 
L 163.097225 -357.472322 
L 163.121714 -360.84907 
L 163.146202 -364.275692 
L 163.17069 -367.753301 
L 163.195178 -371.28304 
L 163.219667 -374.866087 
L 163.244155 -378.503655 
L 163.280105 -383.945161 
L 163.316054 -389.510983 
L 163.352004 -395.205422 
L 163.387954 -401.032977 
L 163.423904 -406.998361 
L 163.459854 -413.106512 
L 163.495803 -419.362606 
L 163.531753 -425.772073 
L 163.567703 -432.340611 
L 163.603653 -439.074205 
L 163.639603 -445.979143 
L 163.675552 -453.062038 
L 163.711502 -460.329847 
L 163.747452 -467.789893 
L 163.783402 -475.449893 
L 163.819351 -483.317982 
L 163.855301 -491.40274 
L 163.891251 -499.71323 
L 163.927201 -508.259023 
L 163.963151 -517.050242 
L 163.9991 -526.097598 
L 164.03505 -535.412433 
L 164.071 -545.006771 
L 164.10695 -554.893367 
L 164.1429 -565.085764 
L 164.178849 -575.598353 
L 164.214799 -586.446446 
L 164.250749 -597.646344 
L 164.286699 -609.215423 
L 164.322648 -621.172221 
L 164.358598 -633.536542 
L 164.394548 -646.329557 
L 164.412494 -652.883108 
L 164.43044 -659.552076 
L 164.448385 -666.339535 
L 164.466331 -673.248667 
L 164.484277 -680.28277 
L 164.502223 -687.445263 
L 164.520168 -694.739691 
L 164.538114 -702.169729 
L 164.55606 -709.739192 
L 164.574005 -717.452038 
L 164.591951 -725.312376 
L 164.609897 -733.324475 
L 164.627843 -741.492769 
L 164.645788 -749.821867 
L 164.663734 -758.31656 
L 164.68168 -766.981834 
L 164.699626 -775.822874 
L 164.717571 -784.84508 
L 164.735517 -794.054073 
L 164.753463 -803.455712 
L 164.771409 -813.0561 
L 164.789354 -822.861602 
L 164.8073 -832.87886 
L 164.825246 -843.114804 
L 164.843192 -853.576668 
L 164.861137 -864.272011 
L 164.879083 -875.208733 
L 164.897029 -886.395093 
L 164.914975 -897.839733 
L 164.93292 -909.551696 
L 164.950866 -921.540455 
L 164.968812 -933.815934 
L 164.983529 -944.103863 
L 164.998245 -954.597592 
L 165.012962 -965.303357 
L 165.027678 -976.227646 
L 165.042395 -987.377217 
L 165.057112 -998.759106 
L 165.071828 -1010.380648 
L 165.086545 -1022.24949 
L 165.101262 -1034.373605 
L 165.115978 -1046.761317 
L 165.130695 -1059.421312 
L 165.145412 -1072.362663 
L 165.160128 -1085.594851 
L 165.174845 -1099.127788 
L 165.189562 -1112.971841 
L 165.204278 -1127.137859 
L 165.218995 -1141.637203 
L 165.233712 -1156.481772 
L 165.248428 -1171.68404 
L 165.263145 -1187.257089 
L 165.277861 -1203.214648 
L 165.292578 -1219.57113 
L 165.307295 -1236.341678 
L 165.322011 -1253.542212 
L 165.336728 -1271.189479 
L 165.351445 -1289.301107 
L 165.366161 -1307.895663 
L 165.380878 -1326.992716 
L 165.395595 -1346.612911 
L 165.410311 -1366.778036 
L 165.425028 -1387.511106 
L 165.439745 -1408.836453 
L 165.471714 -1457.32767 
L 165.503682 -1509.027014 
L 165.535651 -1564.263669 
L 165.56762 -1623.413451 
L 165.599589 -1686.907366 
L 165.631558 -1755.242132 
L 165.663527 -1828.993193 
L 165.695496 -1908.830965 
L 165.727465 -1995.541266 
L 165.759434 -2090.051268 
L 165.791403 -2193.462774 
L 165.823372 -2307.095369 
L 165.855341 -2432.54302 
L 165.88731 -2571.749303 
L 165.919279 -2727.108818 
L 165.951248 -2901.606075 
L 165.983217 -3099.009066 
L 166.015185 -3324.14443 
L 166.047154 -3583.297324 
L 166.079123 -3884.807369 
L 166.111092 -4239.982797 
L 166.143061 -4664.550375 
L 166.17503 -5181.047151 
L 166.206999 -5822.95437 
L 166.238968 -6642.258674 
L 166.270937 -7724.287089 
L 166.302906 -9219.53813 
L 166.334875 -11420.587985 
L 166.366844 -14981.544154 
L 166.398813 -21726.089362 
L 166.430782 -39374.653279 
L 166.462751 -205907.874364 
L 166.462751 168.698769 
z
" style="fill:#0000ff;opacity:0.5;"/>
   </g>
   <g id="matplotlib.axis_1">
    <g id="xtick_1">
     <g id="line2d_1">
      <defs>
       <path d="M 0 0 
L 0 3.5 
" id="m5b8f7bb23c" style="stroke:#000000;stroke-width:0.8;"/>
      </defs>
      <g>
       <use style="stroke:#000000;stroke-width:0.8;" x="45.810989" xlink:href="#m5b8f7bb23c" y="168.698769"/>
      </g>
     </g>
     <g id="text_1">
      <!-- −6 -->
      <g transform="translate(38.439895 183.297207)scale(0.1 -0.1)">
       <defs>
        <path d="M 10.59375 35.5 
L 73.1875 35.5 
L 73.1875 27.203125 
L 10.59375 27.203125 
z
" id="DejaVuSans-8722"/>
        <path d="M 33.015625 40.375 
Q 26.375 40.375 22.484375 35.828125 
Q 18.609375 31.296875 18.609375 23.390625 
Q 18.609375 15.53125 22.484375 10.953125 
Q 26.375 6.390625 33.015625 6.390625 
Q 39.65625 6.390625 43.53125 10.953125 
Q 47.40625 15.53125 47.40625 23.390625 
Q 47.40625 31.296875 43.53125 35.828125 
Q 39.65625 40.375 33.015625 40.375 
z
M 52.59375 71.296875 
L 52.59375 62.3125 
Q 48.875 64.0625 45.09375 64.984375 
Q 41.3125 65.921875 37.59375 65.921875 
Q 27.828125 65.921875 22.671875 59.328125 
Q 17.53125 52.734375 16.796875 39.40625 
Q 19.671875 43.65625 24.015625 45.921875 
Q 28.375 48.1875 33.59375 48.1875 
Q 44.578125 48.1875 50.953125 41.515625 
Q 57.328125 34.859375 57.328125 23.390625 
Q 57.328125 12.15625 50.6875 5.359375 
Q 44.046875 -1.421875 33.015625 -1.421875 
Q 20.359375 -1.421875 13.671875 8.265625 
Q 6.984375 17.96875 6.984375 36.375 
Q 6.984375 53.65625 15.1875 63.9375 
Q 23.390625 74.21875 37.203125 74.21875 
Q 40.921875 74.21875 44.703125 73.484375 
Q 48.484375 72.75 52.59375 71.296875 
z
" id="DejaVuSans-54"/>
       </defs>
       <use xlink:href="#DejaVuSans-8722"/>
       <use x="83.789062" xlink:href="#DejaVuSans-54"/>
      </g>
     </g>
    </g>
    <g id="xtick_2">
     <g id="line2d_2">
      <g>
       <use style="stroke:#000000;stroke-width:0.8;" x="106.140659" xlink:href="#m5b8f7bb23c" y="168.698769"/>
      </g>
     </g>
     <g id="text_2">
      <!-- −4 -->
      <g transform="translate(98.769566 183.297207)scale(0.1 -0.1)">
       <defs>
        <path d="M 37.796875 64.3125 
L 12.890625 25.390625 
L 37.796875 25.390625 
z
M 35.203125 72.90625 
L 47.609375 72.90625 
L 47.609375 25.390625 
L 58.015625 25.390625 
L 58.015625 17.1875 
L 47.609375 17.1875 
L 47.609375 0 
L 37.796875 0 
L 37.796875 17.1875 
L 4.890625 17.1875 
L 4.890625 26.703125 
z
" id="DejaVuSans-52"/>
       </defs>
       <use xlink:href="#DejaVuSans-8722"/>
       <use x="83.789062" xlink:href="#DejaVuSans-52"/>
      </g>
     </g>
    </g>
    <g id="xtick_3">
     <g id="line2d_3">
      <g>
       <use style="stroke:#000000;stroke-width:0.8;" x="166.47033" xlink:href="#m5b8f7bb23c" y="168.698769"/>
      </g>
     </g>
     <g id="text_3">
      <!-- −2 -->
      <g transform="translate(159.099236 183.297207)scale(0.1 -0.1)">
       <defs>
        <path d="M 19.1875 8.296875 
L 53.609375 8.296875 
L 53.609375 0 
L 7.328125 0 
L 7.328125 8.296875 
Q 12.9375 14.109375 22.625 23.890625 
Q 32.328125 33.6875 34.8125 36.53125 
Q 39.546875 41.84375 41.421875 45.53125 
Q 43.3125 49.21875 43.3125 52.78125 
Q 43.3125 58.59375 39.234375 62.25 
Q 35.15625 65.921875 28.609375 65.921875 
Q 23.96875 65.921875 18.8125 64.3125 
Q 13.671875 62.703125 7.8125 59.421875 
L 7.8125 69.390625 
Q 13.765625 71.78125 18.9375 73 
Q 24.125 74.21875 28.421875 74.21875 
Q 39.75 74.21875 46.484375 68.546875 
Q 53.21875 62.890625 53.21875 53.421875 
Q 53.21875 48.921875 51.53125 44.890625 
Q 49.859375 40.875 45.40625 35.40625 
Q 44.1875 33.984375 37.640625 27.21875 
Q 31.109375 20.453125 19.1875 8.296875 
z
" id="DejaVuSans-50"/>
       </defs>
       <use xlink:href="#DejaVuSans-8722"/>
       <use x="83.789062" xlink:href="#DejaVuSans-50"/>
      </g>
     </g>
    </g>
    <g id="xtick_4">
     <g id="line2d_4">
      <g>
       <use style="stroke:#000000;stroke-width:0.8;" x="226.8" xlink:href="#m5b8f7bb23c" y="168.698769"/>
      </g>
     </g>
    </g>
    <g id="xtick_5">
     <g id="line2d_5">
      <g>
       <use style="stroke:#000000;stroke-width:0.8;" x="287.12967" xlink:href="#m5b8f7bb23c" y="168.698769"/>
      </g>
     </g>
     <g id="text_4">
      <!-- 2 -->
      <g transform="translate(283.94842 183.297207)scale(0.1 -0.1)">
       <use xlink:href="#DejaVuSans-50"/>
      </g>
     </g>
    </g>
    <g id="xtick_6">
     <g id="line2d_6">
      <g>
       <use style="stroke:#000000;stroke-width:0.8;" x="347.459341" xlink:href="#m5b8f7bb23c" y="168.698769"/>
      </g>
     </g>
     <g id="text_5">
      <!-- 4 -->
      <g transform="translate(344.278091 183.297207)scale(0.1 -0.1)">
       <use xlink:href="#DejaVuSans-52"/>
      </g>
     </g>
    </g>
    <g id="xtick_7">
     <g id="line2d_7">
      <g>
       <use style="stroke:#000000;stroke-width:0.8;" x="407.789011" xlink:href="#m5b8f7bb23c" y="168.698769"/>
      </g>
     </g>
     <g id="text_6">
      <!-- 6 -->
      <g transform="translate(404.607761 183.297207)scale(0.1 -0.1)">
       <use xlink:href="#DejaVuSans-54"/>
      </g>
     </g>
    </g>
    <g id="xtick_8">
     <g id="line2d_8">
      <defs>
       <path d="M 0 0 
L 0 2 
" id="m0e52389b8b" style="stroke:#000000;stroke-width:0.6;"/>
      </defs>
      <g>
       <use style="stroke:#000000;stroke-width:0.6;" x="15.646154" xlink:href="#m0e52389b8b" y="168.698769"/>
      </g>
     </g>
    </g>
    <g id="xtick_9">
     <g id="line2d_9">
      <g>
       <use style="stroke:#000000;stroke-width:0.6;" x="30.728571" xlink:href="#m0e52389b8b" y="168.698769"/>
      </g>
     </g>
    </g>
    <g id="xtick_10">
     <g id="line2d_10">
      <g>
       <use style="stroke:#000000;stroke-width:0.6;" x="60.893407" xlink:href="#m0e52389b8b" y="168.698769"/>
      </g>
     </g>
    </g>
    <g id="xtick_11">
     <g id="line2d_11">
      <g>
       <use style="stroke:#000000;stroke-width:0.6;" x="75.975824" xlink:href="#m0e52389b8b" y="168.698769"/>
      </g>
     </g>
    </g>
    <g id="xtick_12">
     <g id="line2d_12">
      <g>
       <use style="stroke:#000000;stroke-width:0.6;" x="91.058242" xlink:href="#m0e52389b8b" y="168.698769"/>
      </g>
     </g>
    </g>
    <g id="xtick_13">
     <g id="line2d_13">
      <g>
       <use style="stroke:#000000;stroke-width:0.6;" x="121.223077" xlink:href="#m0e52389b8b" y="168.698769"/>
      </g>
     </g>
    </g>
    <g id="xtick_14">
     <g id="line2d_14">
      <g>
       <use style="stroke:#000000;stroke-width:0.6;" x="136.305495" xlink:href="#m0e52389b8b" y="168.698769"/>
      </g>
     </g>
    </g>
    <g id="xtick_15">
     <g id="line2d_15">
      <g>
       <use style="stroke:#000000;stroke-width:0.6;" x="151.387912" xlink:href="#m0e52389b8b" y="168.698769"/>
      </g>
     </g>
    </g>
    <g id="xtick_16">
     <g id="line2d_16">
      <g>
       <use style="stroke:#000000;stroke-width:0.6;" x="181.552747" xlink:href="#m0e52389b8b" y="168.698769"/>
      </g>
     </g>
    </g>
    <g id="xtick_17">
     <g id="line2d_17">
      <g>
       <use style="stroke:#000000;stroke-width:0.6;" x="196.635165" xlink:href="#m0e52389b8b" y="168.698769"/>
      </g>
     </g>
    </g>
    <g id="xtick_18">
     <g id="line2d_18">
      <g>
       <use style="stroke:#000000;stroke-width:0.6;" x="211.717582" xlink:href="#m0e52389b8b" y="168.698769"/>
      </g>
     </g>
    </g>
    <g id="xtick_19">
     <g id="line2d_19">
      <g>
       <use style="stroke:#000000;stroke-width:0.6;" x="241.882418" xlink:href="#m0e52389b8b" y="168.698769"/>
      </g>
     </g>
    </g>
    <g id="xtick_20">
     <g id="line2d_20">
      <g>
       <use style="stroke:#000000;stroke-width:0.6;" x="256.964835" xlink:href="#m0e52389b8b" y="168.698769"/>
      </g>
     </g>
    </g>
    <g id="xtick_21">
     <g id="line2d_21">
      <g>
       <use style="stroke:#000000;stroke-width:0.6;" x="272.047253" xlink:href="#m0e52389b8b" y="168.698769"/>
      </g>
     </g>
    </g>
    <g id="xtick_22">
     <g id="line2d_22">
      <g>
       <use style="stroke:#000000;stroke-width:0.6;" x="302.212088" xlink:href="#m0e52389b8b" y="168.698769"/>
      </g>
     </g>
    </g>
    <g id="xtick_23">
     <g id="line2d_23">
      <g>
       <use style="stroke:#000000;stroke-width:0.6;" x="317.294505" xlink:href="#m0e52389b8b" y="168.698769"/>
      </g>
     </g>
    </g>
    <g id="xtick_24">
     <g id="line2d_24">
      <g>
       <use style="stroke:#000000;stroke-width:0.6;" x="332.376923" xlink:href="#m0e52389b8b" y="168.698769"/>
      </g>
     </g>
    </g>
    <g id="xtick_25">
     <g id="line2d_25">
      <g>
       <use style="stroke:#000000;stroke-width:0.6;" x="362.541758" xlink:href="#m0e52389b8b" y="168.698769"/>
      </g>
     </g>
    </g>
    <g id="xtick_26">
     <g id="line2d_26">
      <g>
       <use style="stroke:#000000;stroke-width:0.6;" x="377.624176" xlink:href="#m0e52389b8b" y="168.698769"/>
      </g>
     </g>
    </g>
    <g id="xtick_27">
     <g id="line2d_27">
      <g>
       <use style="stroke:#000000;stroke-width:0.6;" x="392.706593" xlink:href="#m0e52389b8b" y="168.698769"/>
      </g>
     </g>
    </g>
    <g id="xtick_28">
     <g id="line2d_28">
      <g>
       <use style="stroke:#000000;stroke-width:0.6;" x="422.871429" xlink:href="#m0e52389b8b" y="168.698769"/>
      </g>
     </g>
    </g>
    <g id="xtick_29">
     <g id="line2d_29">
      <g>
       <use style="stroke:#000000;stroke-width:0.6;" x="437.953846" xlink:href="#m0e52389b8b" y="168.698769"/>
      </g>
     </g>
    </g>
   </g>
   <g id="matplotlib.axis_2">
    <g id="ytick_1">
     <g id="line2d_30">
      <defs>
       <path d="M 0 0 
L -3.5 0 
" id="m848cf6bb3d" style="stroke:#000000;stroke-width:0.8;"/>
      </defs>
      <g>
       <use style="stroke:#000000;stroke-width:0.8;" x="226.8" xlink:href="#m848cf6bb3d" y="323.986047"/>
      </g>
     </g>
     <g id="text_7">
      <!-- −15 -->
      <g transform="translate(198.695312 327.785266)scale(0.1 -0.1)">
       <defs>
        <path d="M 12.40625 8.296875 
L 28.515625 8.296875 
L 28.515625 63.921875 
L 10.984375 60.40625 
L 10.984375 69.390625 
L 28.421875 72.90625 
L 38.28125 72.90625 
L 38.28125 8.296875 
L 54.390625 8.296875 
L 54.390625 0 
L 12.40625 0 
z
" id="DejaVuSans-49"/>
        <path d="M 10.796875 72.90625 
L 49.515625 72.90625 
L 49.515625 64.59375 
L 19.828125 64.59375 
L 19.828125 46.734375 
Q 21.96875 47.46875 24.109375 47.828125 
Q 26.265625 48.1875 28.421875 48.1875 
Q 40.625 48.1875 47.75 41.5 
Q 54.890625 34.8125 54.890625 23.390625 
Q 54.890625 11.625 47.5625 5.09375 
Q 40.234375 -1.421875 26.90625 -1.421875 
Q 22.3125 -1.421875 17.546875 -0.640625 
Q 12.796875 0.140625 7.71875 1.703125 
L 7.71875 11.625 
Q 12.109375 9.234375 16.796875 8.0625 
Q 21.484375 6.890625 26.703125 6.890625 
Q 35.15625 6.890625 40.078125 11.328125 
Q 45.015625 15.765625 45.015625 23.390625 
Q 45.015625 31 40.078125 35.4375 
Q 35.15625 39.890625 26.703125 39.890625 
Q 22.75 39.890625 18.8125 39.015625 
Q 14.890625 38.140625 10.796875 36.28125 
z
" id="DejaVuSans-53"/>
       </defs>
       <use xlink:href="#DejaVuSans-8722"/>
       <use x="83.789062" xlink:href="#DejaVuSans-49"/>
       <use x="147.412109" xlink:href="#DejaVuSans-53"/>
      </g>
     </g>
    </g>
    <g id="ytick_2">
     <g id="line2d_31">
      <g>
       <use style="stroke:#000000;stroke-width:0.8;" x="226.8" xlink:href="#m848cf6bb3d" y="272.223621"/>
      </g>
     </g>
     <g id="text_8">
      <!-- −10 -->
      <g transform="translate(198.695312 276.02284)scale(0.1 -0.1)">
       <defs>
        <path d="M 31.78125 66.40625 
Q 24.171875 66.40625 20.328125 58.90625 
Q 16.5 51.421875 16.5 36.375 
Q 16.5 21.390625 20.328125 13.890625 
Q 24.171875 6.390625 31.78125 6.390625 
Q 39.453125 6.390625 43.28125 13.890625 
Q 47.125 21.390625 47.125 36.375 
Q 47.125 51.421875 43.28125 58.90625 
Q 39.453125 66.40625 31.78125 66.40625 
z
M 31.78125 74.21875 
Q 44.046875 74.21875 50.515625 64.515625 
Q 56.984375 54.828125 56.984375 36.375 
Q 56.984375 17.96875 50.515625 8.265625 
Q 44.046875 -1.421875 31.78125 -1.421875 
Q 19.53125 -1.421875 13.0625 8.265625 
Q 6.59375 17.96875 6.59375 36.375 
Q 6.59375 54.828125 13.0625 64.515625 
Q 19.53125 74.21875 31.78125 74.21875 
z
" id="DejaVuSans-48"/>
       </defs>
       <use xlink:href="#DejaVuSans-8722"/>
       <use x="83.789062" xlink:href="#DejaVuSans-49"/>
       <use x="147.412109" xlink:href="#DejaVuSans-48"/>
      </g>
     </g>
    </g>
    <g id="ytick_3">
     <g id="line2d_32">
      <g>
       <use style="stroke:#000000;stroke-width:0.8;" x="226.8" xlink:href="#m848cf6bb3d" y="220.461195"/>
      </g>
     </g>
     <g id="text_9">
      <!-- −5 -->
      <g transform="translate(205.057812 224.260414)scale(0.1 -0.1)">
       <use xlink:href="#DejaVuSans-8722"/>
       <use x="83.789062" xlink:href="#DejaVuSans-53"/>
      </g>
     </g>
    </g>
    <g id="ytick_4">
     <g id="line2d_33">
      <g>
       <use style="stroke:#000000;stroke-width:0.8;" x="226.8" xlink:href="#m848cf6bb3d" y="168.698769"/>
      </g>
     </g>
    </g>
    <g id="ytick_5">
     <g id="line2d_34">
      <g>
       <use style="stroke:#000000;stroke-width:0.8;" x="226.8" xlink:href="#m848cf6bb3d" y="116.936343"/>
      </g>
     </g>
     <g id="text_10">
      <!-- 5 -->
      <g transform="translate(213.4375 120.735562)scale(0.1 -0.1)">
       <use xlink:href="#DejaVuSans-53"/>
      </g>
     </g>
    </g>
    <g id="ytick_6">
     <g id="line2d_35">
      <g>
       <use style="stroke:#000000;stroke-width:0.8;" x="226.8" xlink:href="#m848cf6bb3d" y="65.173917"/>
      </g>
     </g>
     <g id="text_11">
      <!-- 10 -->
      <g transform="translate(207.075 68.973136)scale(0.1 -0.1)">
       <use xlink:href="#DejaVuSans-49"/>
       <use x="63.623047" xlink:href="#DejaVuSans-48"/>
      </g>
     </g>
    </g>
    <g id="ytick_7">
     <g id="line2d_36">
      <g>
       <use style="stroke:#000000;stroke-width:0.8;" x="226.8" xlink:href="#m848cf6bb3d" y="13.411491"/>
      </g>
     </g>
     <g id="text_12">
      <!-- 15 -->
      <g transform="translate(207.075 17.21071)scale(0.1 -0.1)">
       <use xlink:href="#DejaVuSans-49"/>
       <use x="63.623047" xlink:href="#DejaVuSans-53"/>
      </g>
     </g>
    </g>
    <g id="ytick_8">
     <g id="line2d_37">
      <defs>
       <path d="M 0 0 
L -2 0 
" id="m098e47e9fc" style="stroke:#000000;stroke-width:0.6;"/>
      </defs>
      <g>
       <use style="stroke:#000000;stroke-width:0.6;" x="226.8" xlink:href="#m098e47e9fc" y="313.633562"/>
      </g>
     </g>
    </g>
    <g id="ytick_9">
     <g id="line2d_38">
      <g>
       <use style="stroke:#000000;stroke-width:0.6;" x="226.8" xlink:href="#m098e47e9fc" y="303.281077"/>
      </g>
     </g>
    </g>
    <g id="ytick_10">
     <g id="line2d_39">
      <g>
       <use style="stroke:#000000;stroke-width:0.6;" x="226.8" xlink:href="#m098e47e9fc" y="292.928592"/>
      </g>
     </g>
    </g>
    <g id="ytick_11">
     <g id="line2d_40">
      <g>
       <use style="stroke:#000000;stroke-width:0.6;" x="226.8" xlink:href="#m098e47e9fc" y="282.576107"/>
      </g>
     </g>
    </g>
    <g id="ytick_12">
     <g id="line2d_41">
      <g>
       <use style="stroke:#000000;stroke-width:0.6;" x="226.8" xlink:href="#m098e47e9fc" y="261.871136"/>
      </g>
     </g>
    </g>
    <g id="ytick_13">
     <g id="line2d_42">
      <g>
       <use style="stroke:#000000;stroke-width:0.6;" x="226.8" xlink:href="#m098e47e9fc" y="251.518651"/>
      </g>
     </g>
    </g>
    <g id="ytick_14">
     <g id="line2d_43">
      <g>
       <use style="stroke:#000000;stroke-width:0.6;" x="226.8" xlink:href="#m098e47e9fc" y="241.166166"/>
      </g>
     </g>
    </g>
    <g id="ytick_15">
     <g id="line2d_44">
      <g>
       <use style="stroke:#000000;stroke-width:0.6;" x="226.8" xlink:href="#m098e47e9fc" y="230.81368"/>
      </g>
     </g>
    </g>
    <g id="ytick_16">
     <g id="line2d_45">
      <g>
       <use style="stroke:#000000;stroke-width:0.6;" x="226.8" xlink:href="#m098e47e9fc" y="210.10871"/>
      </g>
     </g>
    </g>
    <g id="ytick_17">
     <g id="line2d_46">
      <g>
       <use style="stroke:#000000;stroke-width:0.6;" x="226.8" xlink:href="#m098e47e9fc" y="199.756225"/>
      </g>
     </g>
    </g>
    <g id="ytick_18">
     <g id="line2d_47">
      <g>
       <use style="stroke:#000000;stroke-width:0.6;" x="226.8" xlink:href="#m098e47e9fc" y="189.40374"/>
      </g>
     </g>
    </g>
    <g id="ytick_19">
     <g id="line2d_48">
      <g>
       <use style="stroke:#000000;stroke-width:0.6;" x="226.8" xlink:href="#m098e47e9fc" y="179.051254"/>
      </g>
     </g>
    </g>
    <g id="ytick_20">
     <g id="line2d_49">
      <g>
       <use style="stroke:#000000;stroke-width:0.6;" x="226.8" xlink:href="#m098e47e9fc" y="158.346284"/>
      </g>
     </g>
    </g>
    <g id="ytick_21">
     <g id="line2d_50">
      <g>
       <use style="stroke:#000000;stroke-width:0.6;" x="226.8" xlink:href="#m098e47e9fc" y="147.993799"/>
      </g>
     </g>
    </g>
    <g id="ytick_22">
     <g id="line2d_51">
      <g>
       <use style="stroke:#000000;stroke-width:0.6;" x="226.8" xlink:href="#m098e47e9fc" y="137.641314"/>
      </g>
     </g>
    </g>
    <g id="ytick_23">
     <g id="line2d_52">
      <g>
       <use style="stroke:#000000;stroke-width:0.6;" x="226.8" xlink:href="#m098e47e9fc" y="127.288828"/>
      </g>
     </g>
    </g>
    <g id="ytick_24">
     <g id="line2d_53">
      <g>
       <use style="stroke:#000000;stroke-width:0.6;" x="226.8" xlink:href="#m098e47e9fc" y="106.583858"/>
      </g>
     </g>
    </g>
    <g id="ytick_25">
     <g id="line2d_54">
      <g>
       <use style="stroke:#000000;stroke-width:0.6;" x="226.8" xlink:href="#m098e47e9fc" y="96.231373"/>
      </g>
     </g>
    </g>
    <g id="ytick_26">
     <g id="line2d_55">
      <g>
       <use style="stroke:#000000;stroke-width:0.6;" x="226.8" xlink:href="#m098e47e9fc" y="85.878888"/>
      </g>
     </g>
    </g>
    <g id="ytick_27">
     <g id="line2d_56">
      <g>
       <use style="stroke:#000000;stroke-width:0.6;" x="226.8" xlink:href="#m098e47e9fc" y="75.526402"/>
      </g>
     </g>
    </g>
    <g id="ytick_28">
     <g id="line2d_57">
      <g>
       <use style="stroke:#000000;stroke-width:0.6;" x="226.8" xlink:href="#m098e47e9fc" y="54.821432"/>
      </g>
     </g>
    </g>
    <g id="ytick_29">
     <g id="line2d_58">
      <g>
       <use style="stroke:#000000;stroke-width:0.6;" x="226.8" xlink:href="#m098e47e9fc" y="44.468947"/>
      </g>
     </g>
    </g>
    <g id="ytick_30">
     <g id="line2d_59">
      <g>
       <use style="stroke:#000000;stroke-width:0.6;" x="226.8" xlink:href="#m098e47e9fc" y="34.116462"/>
      </g>
     </g>
    </g>
    <g id="ytick_31">
     <g id="line2d_60">
      <g>
       <use style="stroke:#000000;stroke-width:0.6;" x="226.8" xlink:href="#m098e47e9fc" y="23.763976"/>
      </g>
     </g>
    </g>
   </g>
   <g id="line2d_61">
    <path clip-path="url(#pcffddbc39d)" d="M 196.635165 168.698769 
L 198.594972 166.213532 
L 200.460707 164.185937 
L 202.511683 162.275745 
L 204.754865 160.507225 
L 207.079005 158.970676 
L 209.214528 157.782597 
L 212.024455 156.493725 
L 214.544162 155.561973 
L 217.448178 154.708399 
L 220.701835 153.987431 
L 224.536113 153.402147 
L 228.239623 153.060917 
L 232.760521 152.888551 
L 237.694616 152.950198 
L 242.692409 153.228002 
L 247.997747 153.715736 
L 254.548814 154.539571 
L 262.47689 155.79656 
L 270.952474 157.38606 
L 280.122732 159.327463 
L 291.046673 161.871823 
L 303.687449 165.055464 
L 317.294505 168.698769 
L 317.294505 168.698769 
" style="fill:none;"/>
   </g>
   <g id="line2d_62">
    <path clip-path="url(#pcffddbc39d)" d="M 15.646154 44.468947 
L 30.576525 48.455601 
L 43.530989 51.690814 
L 54.685953 54.251772 
L 63.885282 56.156372 
L 72.77173 57.762643 
L 80.327071 58.894059 
L 86.023495 59.56558 
L 92.025993 60.060646 
L 97.472019 60.274222 
L 102.02751 60.237957 
L 106.382187 59.976535 
L 110.278465 59.51194 
L 113.614928 58.902967 
L 116.811975 58.098305 
L 119.389706 57.261429 
L 122.409343 56.024893 
L 125.031844 54.682218 
L 127.328543 53.259508 
L 129.351606 51.779658 
L 131.402134 50.023735 
L 133.396362 48.02348 
L 135.172914 45.95341 
L 136.941616 43.572172 
L 138.684805 40.853036 
L 140.457251 37.632397 
L 142.040577 34.285562 
L 143.634388 30.371736 
L 145.173327 25.95907 
L 146.581771 21.250459 
L 148.000093 15.70865 
L 149.289426 9.807158 
L 150.547478 3.05854 
L 151.214252 -1 
L 151.214252 -1 
" style="fill:none;"/>
   </g>
   <g id="line2d_63">
    <path clip-path="url(#pcffddbc39d)" d="M 15.646154 44.468947 
L 29.818691 48.259235 
L 42.076186 51.340065 
L 51.926097 53.641145 
L 62.346164 55.853135 
L 70.924262 57.450813 
L 79.089448 58.726034 
L 85.10774 59.46975 
L 91.587637 60.032984 
L 97.599389 60.276084 
L 101.597349 60.250987 
L 106.086481 60.002302 
L 110.098236 59.538925 
L 113.081756 59.014999 
L 116.777327 58.108337 
L 120.028381 57.024538 
L 122.687967 55.894999 
L 124.735081 54.848298 
L 127.436305 53.186364 
L 129.829991 51.394626 
L 132.17257 49.287978 
L 134.306256 47.000237 
L 136.018991 44.857629 
L 138.091362 41.824481 
L 139.837364 38.81672 
L 141.562842 35.3475 
L 143.257534 31.352451 
L 144.812619 27.056344 
L 146.244534 22.443728 
L 147.689367 17.000639 
L 149.082572 10.817325 
L 150.39569 3.932402 
L 151.21448 -1 
L 151.21448 -1 
" style="fill:none;stroke:#0000ff;stroke-linecap:square;stroke-width:3;"/>
   </g>
   <g id="line2d_64">
    <path clip-path="url(#pcffddbc39d)" d="M 173.274648 338.397538 
L 174.115378 313.44504 
L 175.124391 289.978447 
L 176.161878 271.019944 
L 177.20529 255.71854 
L 178.361835 241.969226 
L 179.509342 230.807534 
L 180.656848 221.515226 
L 181.970801 212.636319 
L 183.247811 205.407362 
L 184.647617 198.720936 
L 185.99542 193.25397 
L 187.377735 188.441134 
L 188.758185 184.289304 
L 190.315312 180.248881 
L 191.931539 176.646929 
L 193.524754 173.582342 
L 195.359428 170.546759 
L 197.325125 167.778075 
L 199.10155 165.632835 
L 200.967506 163.685012 
L 202.854721 161.985023 
L 205.148341 160.227362 
L 206.936497 159.057175 
L 209.537457 157.61952 
L 211.641304 156.652964 
L 213.741117 155.838135 
L 217.337033 154.73718 
L 221.278928 153.882335 
L 224.906097 153.358869 
L 224.906097 153.358869 
" style="fill:none;stroke:#0000ff;stroke-linecap:square;stroke-width:3;"/>
   </g>
   <g id="line2d_65">
    <path clip-path="url(#pcffddbc39d)" d="M 228.903826 153.019947 
L 230.036936 152.963027 
L 231.676568 152.908092 
L 233.407751 152.88293 
L 234.801218 152.885471 
L 236.194686 152.907026 
L 238.105838 152.965483 
L 239.992366 153.05365 
L 242.456869 153.210664 
L 245.319732 153.447118 
L 247.235667 153.634904 
L 248.120917 153.729117 
L 250.555226 154.010942 
L 252.414702 154.247345 
L 254.274179 154.500765 
L 254.960157 154.598337 
L 257.435199 154.967665 
L 260.178733 155.406694 
L 262.19977 155.748533 
L 263.61279 155.996226 
L 266.514271 156.525845 
L 268.386507 156.881682 
L 269.704766 157.138468 
L 273.00258 157.802064 
L 275.057613 158.229966 
L 277.09073 158.663446 
L 279.377967 159.162484 
L 280.703189 159.456864 
L 283.951603 160.193767 
L 285.052998 160.448319 
L 286.550321 160.798009 
L 290.396712 161.714495 
L 291.683649 162.026671 
L 294.576396 162.737871 
L 295.932094 163.075508 
L 298.29646 163.670637 
L 300.169122 164.147429 
L 301.080323 164.381097 
L 303.682146 165.054084 
L 306.622457 165.824455 
L 308.550275 166.334912 
L 310.060729 166.737694 
L 311.947937 167.244315 
L 314.783785 168.012349 
L 316.689088 168.532715 
L 319.950157 169.431053 
L 320.7275 169.646569 
L 324.339477 170.6546 
L 324.983507 170.835444 
L 328.320092 171.777483 
L 329.985311 172.250735 
L 332.469168 172.960305 
L 333.73569 173.323749 
L 335.908137 173.94964 
L 337.892039 174.523859 
L 340.958585 175.416211 
L 341.833744 175.671905 
L 345.274564 176.681444 
L 347.017022 177.195173 
L 348.533401 177.64356 
L 349.943729 178.061657 
L 353.490615 179.117539 
L 355.93719 179.849389 
L 356.895269 180.136736 
L 359.435562 180.900614 
L 361.493166 181.521406 
L 364.215219 182.345396 
L 365.78394 182.82163 
L 367.683246 183.39952 
L 370.113329 184.140917 
L 371.237667 184.484687 
L 373.871465 185.291765 
L 375.980042 185.939654 
L 378.654269 186.763513 
L 381.655728 187.690964 
L 382.274154 187.882412 
L 385.747433 188.959826 
L 387.035647 189.36035 
L 389.931245 190.26238 
L 390.74216 190.515419 
L 392.345278 191.016192 
L 395.755702 192.083819 
L 397.91713 192.762019 
L 399.591504 193.288205 
L 402.47132 194.194819 
L 403.562156 194.538751 
L 405.774489 195.237133 
L 408.632302 196.140926 
L 410.449933 196.716697 
L 411.760314 197.132227 
L 414.581419 198.028044 
L 417.553702 198.973625 
L 418.106643 199.149728 
L 421.711661 200.299321 
L 423.288129 200.802809 
L 424.270595 201.116818 
L 426.919794 201.96441 
L 430.055032 202.969106 
L 431.043508 203.286216 
L 434.504082 204.39768 
L 436.597289 205.070922 
L 437.953846 205.507606 
" style="fill:none;stroke:#0000ff;stroke-linecap:square;stroke-width:3;"/>
   </g>
   <g id="patch_5">
    <path d="M 226.8 330.197538 
L 226.8 7.2 
" style="fill:none;stroke:#000000;stroke-linecap:square;stroke-linejoin:miter;stroke-width:0.8;"/>
   </g>
   <g id="patch_6">
    <path d="M 7.2 168.698769 
L 446.4 168.698769 
" style="fill:none;stroke:#000000;stroke-linecap:square;stroke-linejoin:miter;stroke-width:0.8;"/>
   </g>
  </g>
 </g>
 <defs>
  <clipPath id="pcffddbc39d">
   <rect height="322.997538" width="439.2" x="7.2" y="7.2"/>
  </clipPath>
 </defs>
</svg>
