<?xml version="1.0" encoding="UTF-8" standalone="no"?>
<svg
   width="80"
   height="80"
   viewBox="0 0 80.000001 79.999999"
   stroke-width="1.5"
   fill="none"
   color="#000000"
   version="1.1"
   id="svg8"
   sodipodi:docname="learning.svg"
   xml:space="preserve"
   inkscape:version="1.2.2 (732a01da63, 2022-12-09)"
   xmlns:inkscape="http://www.inkscape.org/namespaces/inkscape"
   xmlns:sodipodi="http://sodipodi.sourceforge.net/DTD/sodipodi-0.dtd"
   xmlns="http://www.w3.org/2000/svg"
   xmlns:svg="http://www.w3.org/2000/svg"><defs
     id="defs12" /><sodipodi:namedview
     id="namedview10"
     pagecolor="#ffffff"
     bordercolor="#000000"
     borderopacity="0.25"
     inkscape:showpageshadow="2"
     inkscape:pageopacity="0.0"
     inkscape:pagecheckerboard="0"
     inkscape:deskcolor="#d1d1d1"
     showgrid="false"
     showguides="false"
     inkscape:zoom="8.4791667"
     inkscape:cx="49.415233"
     inkscape:cy="37.208845"
     inkscape:window-width="1920"
     inkscape:window-height="1001"
     inkscape:window-x="-9"
     inkscape:window-y="-9"
     inkscape:window-maximized="1"
     inkscape:current-layer="svg8" /><path
     d="M 41.634577,9.6461158 C 38.989627,5.8255332 34.465861,3.4520739 28.063385,3.5189209 c -7.855,0.082 -15.2726,4.5712603 -15.2726,13.7138201 l -4.3636004,6.8568 c 0,4.571401 4.3636004,4.571401 4.3636004,4.571401 0,0 -1.0908,11.4282 8.7274,11.4282 v 3.4284"
     stroke="#000000"
     stroke-width="3"
     stroke-linecap="round"
     stroke-linejoin="round"
     id="path966"
     sodipodi:nodetypes="ccccccc"
     style="stroke:#1e3a8a;stroke-width:2;stroke-dasharray:none;stroke-opacity:1" /><g
     style="color:#000000;fill:none;stroke-width:2.0168;stroke-dasharray:none;stroke:#ca8a04;stroke-opacity:1"
     id="g256"
     transform="matrix(0.74375076,0,0,0.74375076,31.096866,19.540456)"><path
       d="m 9,18 h 6"
       stroke="#000000"
       stroke-width="1.5"
       stroke-linecap="round"
       stroke-linejoin="round"
       id="path241"
       style="stroke-width:2.0168;stroke-dasharray:none;stroke:#ca8a04;stroke-opacity:1" /><path
       d="m 10,21 h 4"
       stroke="#000000"
       stroke-width="1.5"
       stroke-linecap="round"
       stroke-linejoin="round"
       id="path243"
       style="stroke-width:2.0168;stroke-dasharray:none;stroke:#ca8a04;stroke-opacity:1" /><path
       d="m 9.00082,15 c 1.6e-4,-2 -0.49984,-2.5 -1.5,-3.5 -1.00015,-1 -1.4766,-2.01311 -1.5,-3.5 -0.04798,-3.04971 1.99985,-5 5.99998,-5 4.0002,0 6.048,1.95029 6,5 -0.0234,1.48689 -0.5001,2.5 -1.5,3.5 -0.9998,1 -1.4998,1.5 -1.5,3.5"
       stroke="#000000"
       stroke-width="1.5"
       stroke-linecap="round"
       stroke-linejoin="round"
       id="path245"
       style="stroke-width:2.0168;stroke-dasharray:none;stroke:#ca8a04;stroke-opacity:1" /></g><path
     d="m 38.865787,13.232033 c 2.64495,-3.8205819 7.168716,-6.1940419 13.571192,-6.1271939 7.855,0.082 15.2726,4.5712599 15.2726,13.7138199 l 4.3636,6.856801 c 0,4.5714 -4.3636,4.5714 -4.3636,4.5714 0,0 1.0908,11.4282 -8.7274,11.4282 v 3.4284"
     stroke="#000000"
     stroke-width="3"
     stroke-linecap="round"
     stroke-linejoin="round"
     id="path866"
     sodipodi:nodetypes="ccccccc"
     style="stroke-width:2;stroke-dasharray:none;stroke:#14532d;stroke-opacity:1" /><text
     xml:space="preserve"
     style="font-weight:bold;font-size:10.6667px;line-height:1;font-family:junglelaw;-inkscape-font-specification:'junglelaw Bold';text-align:center;text-anchor:middle;fill:none;stroke:#ffffff;stroke-width:1;stroke-linecap:round;stroke-linejoin:round;stroke-dasharray:none"
     x="39.796875"
     y="63.595875"
     id="text1022"><tspan
       sodipodi:role="line"
       id="tspan1020"
       x="39.796875"
       y="63.595875"
       style="font-style:normal;font-variant:normal;font-weight:bold;font-stretch:normal;font-size:10.6667px;font-family:Garamond;-inkscape-font-specification:'Garamond Bold';fill:#000000;fill-opacity:1;stroke:none">Team-Based</tspan><tspan
       sodipodi:role="line"
       x="39.796875"
       y="74.977325"
       style="font-style:normal;font-variant:normal;font-weight:bold;font-stretch:normal;font-size:10.6667px;font-family:Garamond;-inkscape-font-specification:'Garamond Bold';fill:#000000;fill-opacity:1;stroke:none"
       id="tspan1176">Inquiry Learning</tspan></text><g
     style="color:#000000;fill:none;stroke:#ca8a04;stroke-width:2.0168;stroke-dasharray:none;stroke-opacity:1"
     id="g5580"
     transform="matrix(0.74375076,0,0,0.74375076,19.199627,8.3651409)"><path
       d="m 9.00082,15 c 1.6e-4,-2 -0.49984,-2.5 -1.5,-3.5 -1.00015,-1 -1.4766,-2.01311 -1.5,-3.5 -0.04798,-3.04971 1.99985,-5 5.99998,-5 4.0002,0 6.048,1.95029 6,5"
       stroke="#000000"
       stroke-width="1.5"
       stroke-linecap="round"
       stroke-linejoin="round"
       id="path5578"
       style="stroke:#ca8a04;stroke-width:2.0168;stroke-dasharray:none;stroke-opacity:1"
       sodipodi:nodetypes="cscsc" /></g><g
     style="color:#000000;fill:none;stroke:#ca8a04;stroke-width:2.0168;stroke-dasharray:none;stroke-opacity:1"
     id="g5588"
     transform="matrix(0.74375076,0,0,0.74375076,43.581332,11.144302)"><path
       d="M 6.2488098,6.2250237 C 6.9035209,4.2143603 8.8443545,3 12.0008,3 c 4.0002,0 6.048,1.95029 6,5 -0.0234,1.48689 -0.5001,2.5 -1.5,3.5 -0.9998,1 -1.4998,1.5 -1.5,3.5"
       stroke="#000000"
       stroke-width="1.5"
       stroke-linecap="round"
       stroke-linejoin="round"
       id="path5586"
       style="stroke:#ca8a04;stroke-width:2.0168;stroke-dasharray:none;stroke-opacity:1"
       sodipodi:nodetypes="csscc" /></g><path
     d="m 31.11713,53.858327 8e-5,-5.714 c -0.59836,-5.9548 -7.63642,-9.1426 -7.63642,-18.2852 -2e-5,-9.142521 5.45474,-16.113321 16.36378,-15.999421 7.855,0.082 15.2726,4.57126 15.2726,13.713821 l 4.3636,6.8568 c 0,4.5714 -4.3636,4.5714 -4.3636,4.5714 0,0 1.0908,11.4282 -8.7274,11.4282 v 3.4284"
     stroke="#000000"
     stroke-width="3"
     stroke-linecap="round"
     stroke-linejoin="round"
     id="path2"
     style="stroke-width:2;stroke-dasharray:none;stroke:#450a0a;stroke-opacity:1" /></svg>
