<svg xmlns="http://www.w3.org/2000/svg" xmlns:xlink="http://www.w3.org/1999/xlink" version="1.1" width="349" height="64" viewBox="0 0 349 64">
<path transform="matrix(1.00006,0,0,-1,33.629278,41.021)" stroke-width=".3985" stroke-linecap="butt" stroke-miterlimit="10" stroke-linejoin="miter" fill="none" stroke="#000000" d="M0 0H32.3991"/>
<path transform="matrix(1.00006,0,0,-1,33.629278,41.021)" stroke-width=".3985" stroke-linecap="butt" stroke-miterlimit="10" stroke-linejoin="miter" fill="none" stroke="#000000" d="M0 0V32.3991"/>
<path transform="matrix(1.00006,0,0,-1,33.629278,41.021)" stroke-width=".3985" stroke-linecap="butt" stroke-miterlimit="10" stroke-linejoin="miter" fill="none" stroke="#000000" d="M0 0-21.5994-10.7997"/>
<path transform="matrix(1.00006,0,0,-1,33.629278,41.021)" stroke-width=".79701" stroke-linecap="butt" stroke-miterlimit="10" stroke-linejoin="miter" fill="none" stroke="#0000ff" d="M0 0 17.42944 8.71475"/>
<path transform="matrix(.89441367,-.44717,-.4471968,-.89436,51.05976,32.30625)" d="M4.66248 0C3.28098 .25902 1.0361 1.0361-.51805 1.94269V-1.94269C1.0361-1.0361 3.28098-.25902 4.66248 0" fill="#0000ff"/>
<path transform="matrix(1.00006,0,0,-1,33.629278,41.021)" stroke-width=".79701" stroke-linecap="butt" stroke-miterlimit="10" stroke-linejoin="miter" fill="none" stroke="#0000ff" d="M0 0 8.71475 17.42944"/>
<path transform="matrix(.4471968,-.89436,-.89441367,-.44717,42.34455,23.59156)" d="M4.66248 0C3.28098 .25902 1.0361 1.0361-.51805 1.94269V-1.94269C1.0361-1.0361 3.28098-.25902 4.66248 0" fill="#0000ff"/>
<path transform="matrix(1.00006,0,0,-1,33.629278,41.021)" stroke-width=".79701" stroke-linecap="butt" stroke-miterlimit="10" stroke-linejoin="miter" fill="none" stroke="#0000ff" d="M0 0V16.9369"/>
<path transform="matrix(0,-1,-1.00006,-0,33.629278,24.0841)" d="M4.66248 0C3.28098 .25902 1.0361 1.0361-.51805 1.94269V-1.94269C1.0361-1.0361 3.28098-.25902 4.66248 0" fill="#0000ff"/>
<path transform="matrix(1.00006,0,0,-1,33.629278,41.021)" stroke-width=".79701" stroke-linecap="butt" stroke-miterlimit="10" stroke-linejoin="miter" fill="none" stroke="#0000ff" d="M0 0 7.50282-7.50282"/>
<path transform="matrix(.70714238,.7071,.70714238,-.7071,41.132528,48.5238)" d="M4.66248 0C3.28098 .25902 1.0361 1.0361-.51805 1.94269V-1.94269C1.0361-1.0361 3.28098-.25902 4.66248 0" fill="#0000ff"/>
<path transform="matrix(1.00006,0,0,-1,33.629278,41.021)" stroke-width=".79701" stroke-linecap="butt" stroke-miterlimit="10" stroke-linejoin="miter" fill="none" stroke="#0000ff" d="M0 0-19.01324 28.51985"/>
<path transform="matrix(-.55470326,-.83202,-.8320699,.55467,14.614895,12.50116)" d="M4.66248 0C3.28098 .25902 1.0361 1.0361-.51805 1.94269V-1.94269C1.0361-1.0361 3.28098-.25902 4.66248 0" fill="#0000ff"/>
<path transform="matrix(1.00006,0,0,-1,33.629278,41.021)" stroke-width=".79701" stroke-linecap="butt" stroke-miterlimit="10" stroke-linejoin="miter" fill="none" stroke="#0000ff" d="M0 0-28.51985-19.01324"/>
<path transform="matrix(-.8320699,.55467,.55470326,.83202,5.107725,60.03424)" d="M4.66248 0C3.28098 .25902 1.0361 1.0361-.51805 1.94269V-1.94269C1.0361-1.0361 3.28098-.25902 4.66248 0" fill="#0000ff"/>
<path transform="matrix(1.00006,0,0,-1,33.629278,41.021)" stroke-width=".3985" stroke-linecap="butt" stroke-dasharray="2.98883,2.98883" stroke-miterlimit="10" stroke-linejoin="miter" fill="none" stroke="#000000" d="M32.3991 32.3991C46.98839 40.8222 61.00858 40.8222 72.4919 34.19229"/>
<path transform="matrix(.8660619,.49998,.50000998,-.86601,106.1255,6.828701)" d="M3.58653 0C2.52383 .19925 .797 .797-.3985 1.49438V-1.49438C.797-.797 2.52383-.19925 3.58653 0"/>
<path transform="matrix(1.00006,0,0,-1,33.629278,41.021)" stroke-width=".3985" stroke-linecap="butt" stroke-miterlimit="10" stroke-linejoin="miter" fill="none" stroke="#000000" d="M75.59789 10.7997H118.79668"/>
<path transform="matrix(1.00006,0,0,-1,33.629278,41.021)" stroke-width=".3985" stroke-linecap="butt" stroke-miterlimit="10" stroke-linejoin="miter" fill="none" stroke="#000000" d="M97.19728-10.7997V32.3991"/>
<path transform="matrix(1.00006,0,0,-1,33.629278,41.021)" stroke-width=".79701" stroke-linecap="butt" stroke-miterlimit="10" stroke-linejoin="miter" fill="none" stroke="#0000ff" d="M97.19728 10.7997 101.46645 27.87584"/>
<path transform="matrix(.24252455,-.97014,-.97019818,-.24251,135.1018,13.145161)" d="M4.66248 0C3.28098 .25902 1.0361 1.0361-.51805 1.94269V-1.94269C1.0361-1.0361 3.28098-.25902 4.66248 0" fill="#0000ff"/>
<path transform="matrix(1.00006,0,0,-1,33.629278,41.021)" stroke-width=".79701" stroke-linecap="butt" stroke-miterlimit="10" stroke-linejoin="miter" fill="none" stroke="#0000ff" d="M97.19728 10.7997 114.62672 19.51445"/>
<path transform="matrix(.89441367,-.44717,-.4471968,-.89436,148.26287,21.50655)" d="M4.66248 0C3.28098 .25902 1.0361 1.0361-.51805 1.94269V-1.94269C1.0361-1.0361 3.28098-.25902 4.66248 0" fill="#0000ff"/>
<path transform="matrix(1.00006,0,0,-1,33.629278,41.021)" stroke-width=".79701" stroke-linecap="butt" stroke-miterlimit="10" stroke-linejoin="miter" fill="none" stroke="#0000ff" d="M97.19728 10.7997 84.87697 19.01332"/>
<path transform="matrix(-.8320699,-.55466,-.5546933,.83202,118.51135,22.0077)" d="M4.66248 0C3.28098 .25902 1.0361 1.0361-.51805 1.94269V-1.94269C1.0361-1.0361 3.28098-.25902 4.66248 0" fill="#0000ff"/>
<path transform="matrix(1.00006,0,0,-1,33.629278,41.021)" stroke-width=".79701" stroke-linecap="butt" stroke-miterlimit="10" stroke-linejoin="miter" fill="none" stroke="#0000ff" d="M97.19728 10.7997V-.73737"/>
<path transform="matrix(0,1,1.00006,0,130.83238,41.75837)" d="M4.66248 0C3.28098 .25902 1.0361 1.0361-.51805 1.94269V-1.94269C1.0361-1.0361 3.28098-.25902 4.66248 0" fill="#0000ff"/>
<path transform="matrix(1.00006,0,0,-1,33.629278,41.021)" stroke-width=".79701" stroke-linecap="butt" stroke-miterlimit="10" stroke-linejoin="miter" fill="none" stroke="#0000ff" d="M97.19728 10.7997 115.4998-7.50282"/>
<path transform="matrix(.70714238,.7071,.70714238,-.7071,149.13599,48.5238)" d="M4.66248 0C3.28098 .25902 1.0361 1.0361-.51805 1.94269V-1.94269C1.0361-1.0361 3.28098-.25902 4.66248 0" fill="#0000ff"/>
<path transform="matrix(1.00006,0,0,-1,33.629278,41.021)" d="M75.59789-10.7997V32.3991H118.79668V-10.7997ZM118.79668 32.3991" fill="#0000ff" fill-opacity=".5"/>
<path transform="matrix(1.00006,0,0,-1,218.29334,41.419)" stroke-width=".3985" stroke-linecap="butt" stroke-miterlimit="10" stroke-linejoin="miter" fill="none" stroke="#000000" d="M-21.5994 10.7997H21.5994"/>
<path transform="matrix(1.00006,0,0,-1,218.29334,41.419)" stroke-width=".3985" stroke-linecap="butt" stroke-miterlimit="10" stroke-linejoin="miter" fill="none" stroke="#000000" d="M0-10.7997V32.3991"/>
<path transform="matrix(1.00006,0,0,-1,218.29334,41.419)" stroke-width=".79701" stroke-linecap="butt" stroke-miterlimit="10" stroke-linejoin="miter" fill="none" stroke="#0000ff" d="M0 10.7997 4.26917 27.87584"/>
<path transform="matrix(.24252455,-.97014,-.97019818,-.24251,222.56276,13.5431599)" d="M4.66248 0C3.28098 .25902 1.0361 1.0361-.51805 1.94269V-1.94269C1.0361-1.0361 3.28098-.25902 4.66248 0" fill="#0000ff"/>
<path transform="matrix(1.00006,0,0,-1,218.29334,41.419)" stroke-width=".79701" stroke-linecap="butt" stroke-miterlimit="10" stroke-linejoin="miter" fill="none" stroke="#0000ff" d="M0 10.7997 17.42944 19.51445"/>
<path transform="matrix(.89441367,-.44717,-.4471968,-.89436,235.72382,21.904549)" d="M4.66248 0C3.28098 .25902 1.0361 1.0361-.51805 1.94269V-1.94269C1.0361-1.0361 3.28098-.25902 4.66248 0" fill="#0000ff"/>
<path transform="matrix(1.00006,0,0,-1,218.29334,41.419)" stroke-width=".79701" stroke-linecap="butt" stroke-miterlimit="10" stroke-linejoin="miter" fill="none" stroke="#0000ff" d="M0 10.7997-12.3203 19.01332"/>
<path transform="matrix(-.8320699,-.55466,-.5546933,.83202,205.97232,22.405699)" d="M4.66248 0C3.28098 .25902 1.0361 1.0361-.51805 1.94269V-1.94269C1.0361-1.0361 3.28098-.25902 4.66248 0" fill="#0000ff"/>
<path transform="matrix(1.00006,0,0,-1,218.29334,41.419)" stroke-width=".79701" stroke-linecap="butt" stroke-miterlimit="10" stroke-linejoin="miter" fill="none" stroke="#0000ff" d="M0 10.7997V-.73737"/>
<path transform="matrix(0,1,1.00006,0,218.29334,42.15637)" d="M4.66248 0C3.28098 .25902 1.0361 1.0361-.51805 1.94269V-1.94269C1.0361-1.0361 3.28098-.25902 4.66248 0" fill="#0000ff"/>
<path transform="matrix(1.00006,0,0,-1,218.29334,41.419)" stroke-width=".79701" stroke-linecap="butt" stroke-miterlimit="10" stroke-linejoin="miter" fill="none" stroke="#0000ff" d="M0 10.7997 18.30252-7.50282"/>
<path transform="matrix(.70714238,.7071,.70714238,-.7071,236.59693,48.9218)" d="M4.66248 0C3.28098 .25902 1.0361 1.0361-.51805 1.94269V-1.94269C1.0361-1.0361 3.28098-.25902 4.66248 0" fill="#0000ff"/>
<path transform="matrix(1.00006,0,0,-1,218.29334,41.419)" stroke-width=".3985" stroke-linecap="butt" stroke-dasharray="2.98883,2.98883" stroke-miterlimit="10" stroke-linejoin="miter" fill="none" stroke="#000000" d="M32.3991 32.3991C46.98839 40.8222 61.00858 40.8222 72.4919 34.19229"/>
<path transform="matrix(.8660619,.49998,.50000998,-.86601,290.78956,7.2267)" d="M3.58653 0C2.52383 .19925 .797 .797-.3985 1.49438V-1.49438C.797-.797 2.52383-.19925 3.58653 0"/>
<path transform="matrix(1.00006,0,0,-1,218.29334,41.419)" stroke-width=".3985" stroke-linecap="butt" stroke-miterlimit="10" stroke-linejoin="miter" fill="none" stroke="#000000" d="M97.19728 0H129.59638"/>
<path transform="matrix(1.00006,0,0,-1,218.29334,41.419)" stroke-width=".3985" stroke-linecap="butt" stroke-miterlimit="10" stroke-linejoin="miter" fill="none" stroke="#000000" d="M97.19728 0V32.3991"/>
<path transform="matrix(1.00006,0,0,-1,218.29334,41.419)" stroke-width=".3985" stroke-linecap="butt" stroke-miterlimit="10" stroke-linejoin="miter" fill="none" stroke="#000000" d="M97.19728 0 75.59789-10.7997"/>
<path transform="matrix(1.00006,0,0,-1,218.29334,41.419)" stroke-width=".79701" stroke-linecap="butt" stroke-miterlimit="10" stroke-linejoin="miter" fill="none" stroke="#0000ff" d="M97.19728 0 101.12282 11.77654"/>
<path transform="matrix(.31622897,-.94864,-.94869688,-.31621,319.4222,29.642479)" d="M4.66248 0C3.28098 .25902 1.0361 1.0361-.51805 1.94269V-1.94269C1.0361-1.0361 3.28098-.25902 4.66248 0" fill="#0000ff"/>
<path transform="matrix(1.00006,0,0,-1,218.29334,41.419)" stroke-width=".79701" stroke-linecap="butt" stroke-miterlimit="10" stroke-linejoin="miter" fill="none" stroke="#0000ff" d="M97.19728 0 114.62672 8.71475"/>
<path transform="matrix(.89441367,-.44717,-.4471968,-.89436,332.92695,32.704248)" d="M4.66248 0C3.28098 .25902 1.0361 1.0361-.51805 1.94269V-1.94269C1.0361-1.0361 3.28098-.25902 4.66248 0" fill="#0000ff"/>
<path transform="matrix(1.00006,0,0,-1,218.29334,41.419)" stroke-width=".79701" stroke-linecap="butt" stroke-miterlimit="10" stroke-linejoin="miter" fill="none" stroke="#0000ff" d="M97.19728 0 74.52684 9.0682"/>
<path transform="matrix(-.92849567,-.37137,-.37139226,.92844,292.82466,32.3508)" d="M4.66248 0C3.28098 .25902 1.0361 1.0361-.51805 1.94269V-1.94269C1.0361-1.0361 3.28098-.25902 4.66248 0" fill="#0000ff"/>
<path transform="matrix(1.00006,0,0,-1,218.29334,41.419)" stroke-width=".79701" stroke-linecap="butt" stroke-miterlimit="10" stroke-linejoin="miter" fill="none" stroke="#0000ff" d="M97.19728 0 93.27173-11.77654"/>
<path transform="matrix(-.31622897,.94864,.94869688,.31621,311.57069,53.19552)" d="M4.66248 0C3.28098 .25902 1.0361 1.0361-.51805 1.94269V-1.94269C1.0361-1.0361 3.28098-.25902 4.66248 0" fill="#0000ff"/>
<path transform="matrix(1.00006,0,0,-1,218.29334,41.419)" stroke-width=".79701" stroke-linecap="butt" stroke-miterlimit="10" stroke-linejoin="miter" fill="none" stroke="#0000ff" d="M97.19728 0 119.62476-4.4855"/>
<path transform="matrix(.98060879,.1961,.19611176,-.98055,337.92527,45.9045)" d="M4.66248 0C3.28098 .25902 1.0361 1.0361-.51805 1.94269V-1.94269C1.0361-1.0361 3.28098-.25902 4.66248 0" fill="#0000ff"/>
<path transform="matrix(1.00006,0,0,-1,218.29334,41.419)" d="M75.59789-21.5994 129.59638-10.7997 118.79668 21.5994 64.79819 10.7997 75.59789-21.5994" fill="#0000ff" fill-opacity=".5"/>
</svg>
