<svg xmlns="http://www.w3.org/2000/svg" xmlns:xlink="http://www.w3.org/1999/xlink" version="1.1" width="175" height="53" viewBox="0 0 175 53">
<defs>
<path id="font_1_4" d="M.5349884 .5967865C.522995 .5857849 .48599244 .55078127 .48599244 .5367737 .48599244 .5267792 .49499513 .5177765 .5049896 .5177765 .5139923 .5177765 .5179901 .52378848 .5249939 .53378298 .548996 .56378176 .57598879 .58277896 .598999 .5957794 .60899356 .6017761 .6159973 .6047821 .6159973 .6157837 .6159973 .6247864 .60798647 .629776 .60198977 .6347809 .57398989 .6537781 .5669861 .68078616 .56399539 .69277957 .5609894 .70077517 .55799868 .7127838 .5439911 .7127838 .5379944 .7127838 .526001 .708786 .526001 .6937866 .526001 .68478396 .5319977 .66078189 .5509949 .63378909H.21499634C.19799805 .63378909 .18099976 .63378909 .18099976 .6147766 .18099976 .5967865 .19898987 .5967865 .21499634 .5967865H.5349884Z"/>
<path id="font_1_2" d="M.45700074 .3743744C.45700074 .4373932 .4249878 .44140626 .4169922 .44140626 .3929901 .44140626 .37098695 .41740418 .37098695 .39738465 .37098695 .38539125 .37799073 .37838746 .38198854 .3743744 .3919983 .3653717 .41799928 .33836366 .41799928 .28634645 .41799928 .24432373 .35798646 .010223389 .23799134 .010223389 .1769867 .010223389 .16499329 .06124878 .16499329 .0982666 .16499329 .14828491 .18798828 .2183075 .21499634 .29034425 .23098755 .33135987 .23498535 .34136964 .23498535 .3613739 .23498535 .4033966 .20498657 .44140626 .1559906 .44140626 .06399536 .44140626 .026992798 .29634095 .026992798 .28834535 .026992798 .28434754 .0309906 .27934266 .037994386 .27934266 .04699707 .27934266 .04798889 .28334046 .051986696 .29734803 .07598877 .38337709 .114990238 .42140199 .15299988 .42140199 .1619873 .42140199 .1789856 .42140199 .1789856 .38838197 .1789856 .36238099 .16799927 .33335877 .15299988 .29534913 .10499573 .16729737 .10499573 .13627625 .10499573 .11227417 .10499573 .09025574 .10798645 .049240114 .13899231 .021224976 .1749878-.009765625 .22499085-.009765625 .23399353-.009765625 .3999939-.009765625 .45700074 .3173523 .45700074 .3743744Z"/>
<path id="font_1_3" d="M.34399415 .06124878C.3659973 .0012207031 .42799378-.009765625 .46598817-.009765625 .5419922-.009765625 .58699038 .056243898 .61499026 .12527466 .6380005 .18330384 .6749878 .3153534 .6749878 .3743744 .6749878 .4353943 .6439972 .44140626 .6349945 .44140626 .61099246 .44140626 .58898928 .41740418 .58898928 .39738465 .58898928 .38539125 .59599307 .37838746 .6009979 .3743744 .6100006 .3653717 .6359863 .33836366 .6359863 .28634645 .6359863 .2523346 .60798647 .15829468 .58699038 .11126709 .5589905 .050247194 .5219879 .010223389 .46998597 .010223389 .4139862 .010223389 .3959961 .0521698 .3959961 .098098758 .3959961 .12705994 .40499879 .16200257 .40899659 .1789856L.45098878 .34674073C.45599366 .36671449 .46499635 .40167237 .46499635 .4056549 .46499635 .4206543 .45298768 .43066407 .43798829 .43066407 .40899659 .43066407 .4019928 .4056549 .3959961 .3816986 .38598634 .34275819 .34399415 .17399597 .33999635 .15202332 .33599855 .13505554 .33599855 .124069217 .33599855 .10209656 .33599855 .078125 .3039856 .04017639 .30299378 .03819275 .2919922 .02720642 .27598573 .010223389 .24499512 .010223389 .1659851 .010223389 .1659851 .085250858 .1659851 .102264408 .1659851 .13427735 .17298889 .17829895 .21798706 .29734803 .22999573 .32835389 .23498535 .34136964 .23498535 .3613739 .23498535 .4033966 .20498657 .44140626 .1559906 .44140626 .06399536 .44140626 .026992798 .29634095 .026992798 .28834535 .026992798 .28434754 .0309906 .27934266 .037994386 .27934266 .04699707 .27934266 .04798889 .28334046 .051986696 .29734803 .07699585 .38539125 .115997318 .42140199 .15299988 .42140199 .16299439 .42140199 .1789856 .4203949 .1789856 .38838197 .1789856 .38337709 .1789856 .36238099 .1619873 .31835938 .114990238 .19329834 .10499573 .15228272 .10499573 .11427307 .10499573 .009231567 .19099427-.009765625 .24198914-.009765625 .25898744-.009765625 .3039856-.009765625 .34399415 .06124878Z"/>
<path id="font_2_3" d="M.44799806 .31976319C.44799806 .40283204 .44299317 .48390199 .40699769 .55996707 .3659973 .64302065 .2939911 .66503909 .24499512 .66503909 .18699646 .66503909 .115997318 .63601687 .07899475 .552948 .050994874 .48989869 .040985109 .42785646 .040985109 .31976319 .040985109 .22268677 .04798889 .14962769 .083999637 .078567508 .12298584 .0025177003 .19198609-.021484375 .24398804-.021484375 .33099366-.021484375 .3809967 .030532837 .4099884 .08857727 .44599916 .16363526 .44799806 .26171876 .44799806 .31976319M.24398804-.0014953613C.21199036-.0014953613 .14698792 .016525269 .12799073 .12561035 .116989139 .18565369 .116989139 .26171876 .116989139 .33177186 .116989139 .41384889 .116989139 .48789979 .1329956 .5469513 .1499939 .6139984 .20098877 .6450348 .24398804 .6450348 .28199769 .6450348 .33999635 .6220093 .35899354 .53593447 .37199403 .4788971 .37199403 .39982606 .37199403 .33177186 .37199403 .26472474 .37199403 .18865967 .36099244 .12760926 .34199525 .01751709 .2789917-.0014953613 .24398804-.0014953613Z"/>
<path id="font_1_1" d="M.4169922 .6096344C.4229889 .6336212 .4249878 .64260867 .43998719 .64660647 .44799806 .64860537 .48098756 .64860537 .5019989 .64860537 .60198977 .64860537 .6489868 .64460757 .6489868 .5666504 .6489868 .55166628 .644989 .51368716 .6389923 .4767151L.6380005 .46472169C.6380005 .46072389 .6419983 .45472718 .647995 .45472718 .6579895 .45472718 .6579895 .4597168 .6609955 .475708L.6899872 .65260317C.69200137 .66160586 .69200137 .66360476 .69200137 .6666107 .69200137 .6776123 .6859894 .6776123 .66600039 .6776123H.11898804C.09599304 .6776123 .09498596 .6766052 .08898926 .6586151L.027999878 .478714C.026992798 .4767151 .023986817 .4657135 .023986817 .46472169 .023986817 .4597168 .027999878 .45472718 .033996583 .45472718 .041992189 .45472718 .04399109 .45872499 .04798889 .4717102 .08999634 .5926361 .11099243 .64860537 .24398804 .64860537H.31098939C.33499146 .64860537 .34498597 .64860537 .34498597 .637619 .34498597 .63461306 .34498597 .63261416 .33999635 .614624L.20599365 .07795715C.19599915 .038986207 .19400025 .0289917 .08799744 .0289917 .06298828 .0289917 .055999757 .0289917 .055999757 .009994507 .055999757 0 .066986087 0 .07199097 0 .09700012 0 .12298584 .0019989014 .147995 .0019989014H.3039856C.32899476 .0019989014 .35598756 0 .3809967 0 .3919983 0 .4019928 0 .4019928 .018997193 .4019928 .0289917 .394989 .0289917 .36898805 .0289917 .2789917 .0289917 .2789917 .037994386 .2789917 .052978517 .2789917 .053970338 .2789917 .06097412 .2829895 .07696533L.4169922 .6096344Z"/>
<path id="font_2_1" d="M.32499696-.24298096C.32499696-.23999024 .32499696-.23799134 .30799867-.22097779 .20799256-.11997986 .1519928 .045013429 .1519928 .24900818 .1519928 .44299317 .19898987 .60998538 .31498719 .7279968 .32499696 .7369995 .32499696 .7389984 .32499696 .74198916 .32499696 .74798586 .31999208 .75 .31599427 .75 .30299378 .75 .22099304 .6779938 .17199707 .5799866 .12098694 .47898866 .09799194 .37199403 .09799194 .24900818 .09799194 .16000366 .11199951 .041015626 .1639862-.06599426 .22299195-.18598938 .30499269-.25097657 .31599427-.25097657 .31999208-.25097657 .32499696-.24897766 .32499696-.24298096Z"/>
<path id="font_2_2" d="M.28199769 .24900818C.28199769 .32499696 .27198792 .44898988 .21598816 .5649872 .15699768 .68499758 .07499695 .75 .06399536 .75 .05999756 .75 .054992677 .74798586 .054992677 .74198916 .054992677 .7389984 .054992677 .7369995 .07199097 .71998599 .17199707 .61898806 .22799683 .45399476 .22799683 .25 .22799683 .056015016 .18099976-.11099243 .06498718-.22898865 .054992677-.23799134 .054992677-.23999024 .054992677-.24298096 .054992677-.24897766 .05999756-.25097657 .06399536-.25097657 .07699585-.25097657 .15899658-.1789856 .20799256-.08099365 .25898744 .021011353 .28199769 .12901306 .28199769 .24900818Z"/>
<path id="font_2_4" d="M.6749878 .32421876C.68899539 .32421876 .70700076 .32421876 .70700076 .34220887 .70700076 .36120606 .6899872 .36120606 .6749878 .36120606H.085998538C.07199097 .36120606 .053985597 .36120606 .053985597 .34321595 .053985597 .32421876 .070999149 .32421876 .085998538 .32421876H.6749878M.6749878 .13780213C.68899539 .13780213 .70700076 .13780213 .70700076 .15579224 .70700076 .17480469 .6899872 .17480469 .6749878 .17480469H.085998538C.07199097 .17480469 .053985597 .17480469 .053985597 .15679932 .053985597 .13780213 .070999149 .13780213 .085998538 .13780213H.6749878Z"/>
</defs>
<path transform="matrix(1,0,0,-1.00005,27.485,40.923097)" stroke-width=".3985" stroke-linecap="butt" stroke-miterlimit="10" stroke-linejoin="miter" fill="none" stroke="#000000" d="M-21.5994 10.7997H21.5994"/>
<path transform="matrix(1,0,0,-1.00005,27.485,40.923097)" stroke-width=".3985" stroke-linecap="butt" stroke-miterlimit="10" stroke-linejoin="miter" fill="none" stroke="#000000" d="M0-10.7997V32.3991"/>
<path transform="matrix(1,0,0,-1.00005,27.485,40.923097)" stroke-width=".79701" stroke-linecap="butt" stroke-miterlimit="10" stroke-linejoin="miter" fill="none" stroke="#0000ff" d="M0 10.7997-12.3203 19.01332"/>
<path transform="matrix(-.83202,-.55468776,-.55466,.8320615,15.164721,21.908846)" d="M4.66248 0C3.28098 .25902 1.0361 1.0361-.51805 1.94269V-1.94269C1.0361-1.0361 3.28098-.25902 4.66248 0" fill="#0000ff"/>
<use data-text="&#x20d7;" xlink:href="#font_1_4" transform="matrix(11.9552,0,0,-11.955797,.33800126,14.938799)" fill="#0000ff"/>
<use data-text="v" xlink:href="#font_1_2" transform="matrix(11.9552,0,0,-11.955797,.82816317,14.938799)" fill="#0000ff"/>
<path transform="matrix(1,0,0,-1.00005,27.485,40.923097)" stroke-width=".79701" stroke-linecap="butt" stroke-miterlimit="10" stroke-linejoin="miter" fill="none" stroke="#ff0000" d="M0 10.7997 13.4021-7.06984"/>
<path transform="matrix(.59999,.8000099,.79997,-.60002,40.8871,47.99329)" d="M4.66248 0C3.28098 .25902 1.0361 1.0361-.51805 1.94269V-1.94269C1.0361-1.0361 3.28098-.25902 4.66248 0" fill="#ff0000"/>
<use data-text="&#x20d7;" xlink:href="#font_1_4" transform="matrix(11.9552,0,0,-11.955797,49.543,47.340417)" fill="#ff0000"/>
<use data-text="w" xlink:href="#font_1_3" transform="matrix(11.9552,0,0,-11.955797,48.084466,47.340417)" fill="#ff0000"/>
<path transform="matrix(1,0,0,-1.00005,27.485,40.923097)" d="M2.1599 10.7997C2.1599 11.99257 1.19287 12.9596 0 12.9596-1.19287 12.9596-2.1599 11.99257-2.1599 10.7997-2.1599 9.60681-1.19287 8.6398 0 8.6398 1.19287 8.6398 2.1599 9.60681 2.1599 10.7997ZM0 10.7997" fill="#008000"/>
<use data-text="&#x20d7;" xlink:href="#font_1_4" transform="matrix(11.9552,0,0,-11.955797,30.750002,23.381218)" fill="#008000"/>
<use data-text="0" xlink:href="#font_2_3" transform="matrix(11.9552,0,0,-11.955797,31.669,25.938347)" fill="#008000"/>
<path transform="matrix(1,0,0,-1.00005,27.485,40.923097)" stroke-width=".3985" stroke-linecap="butt" stroke-dasharray="2.98883,2.98883" stroke-miterlimit="10" stroke-linejoin="miter" fill="none" stroke="#000000" d="M32.3991 32.3991C46.98839 40.8222 61.00858 40.8222 72.4919 34.19229"/>
<path transform="matrix(.86601,.50000497,.49998,-.8660533,99.97688,6.729088)" d="M3.58653 0C2.52383 .19925 .797 .797-.3985 1.49438V-1.49438C.797-.797 2.52383-.19925 3.58653 0"/>
<path transform="matrix(1,0,0,-1.00005,27.485,40.923097)" stroke-width=".3985" stroke-linecap="butt" stroke-miterlimit="10" stroke-linejoin="miter" fill="none" stroke="#000000" d="M97.19728 0H129.59638"/>
<path transform="matrix(1,0,0,-1.00005,27.485,40.923097)" stroke-width=".3985" stroke-linecap="butt" stroke-miterlimit="10" stroke-linejoin="miter" fill="none" stroke="#000000" d="M97.19728 0V32.3991"/>
<path transform="matrix(1,0,0,-1.00005,27.485,40.923097)" stroke-width=".3985" stroke-linecap="butt" stroke-miterlimit="10" stroke-linejoin="miter" fill="none" stroke="#000000" d="M97.19728 0 75.59789-10.7997"/>
<path transform="matrix(1,0,0,-1.00005,27.485,40.923097)" stroke-width=".79701" stroke-linecap="butt" stroke-miterlimit="10" stroke-linejoin="miter" fill="none" stroke="#0000ff" d="M97.19728 0 114.62672 8.71475"/>
<path transform="matrix(.89436,-.4471923,-.44717,-.89440467,142.11173,32.20791)" d="M4.66248 0C3.28098 .25902 1.0361 1.0361-.51805 1.94269V-1.94269C1.0361-1.0361 3.28098-.25902 4.66248 0" fill="#0000ff"/>
<use data-text="T" xlink:href="#font_1_1" transform="matrix(11.9552,0,0,-11.955797,150.66501,22.750187)" fill="#0000ff"/>
<use data-text="(" xlink:href="#font_2_1" transform="matrix(11.9552,0,0,-11.955797,159.15201,22.750187)" fill="#0000ff"/>
<use data-text="&#x20d7;" xlink:href="#font_1_4" transform="matrix(11.9552,0,0,-11.955797,163.228,22.750187)" fill="#0000ff"/>
<use data-text="v" xlink:href="#font_1_2" transform="matrix(11.9552,0,0,-11.955797,163.71817,22.750187)" fill="#0000ff"/>
<use data-text=")" xlink:href="#font_2_2" transform="matrix(11.9552,0,0,-11.955797,169.793,22.750187)" fill="#0000ff"/>
<path transform="matrix(1,0,0,-1.00005,27.485,40.923097)" stroke-width=".79701" stroke-linecap="butt" stroke-miterlimit="10" stroke-linejoin="miter" fill="none" stroke="#ff0000" d="M97.19728 0 105.91203 17.42944"/>
<path transform="matrix(.44717,-.89440467,-.89436,-.4471923,133.39704,23.492787)" d="M4.66248 0C3.28098 .25902 1.0361 1.0361-.51805 1.94269V-1.94269C1.0361-1.0361 3.28098-.25902 4.66248 0" fill="#ff0000"/>
<use data-text="T" xlink:href="#font_1_1" transform="matrix(11.9552,0,0,-11.955797,139.86499,11.950647)" fill="#ff0000"/>
<use data-text="(" xlink:href="#font_2_1" transform="matrix(11.9552,0,0,-11.955797,148.35199,11.950647)" fill="#ff0000"/>
<use data-text="&#x20d7;" xlink:href="#font_1_4" transform="matrix(11.9552,0,0,-11.955797,154.379,11.950647)" fill="#ff0000"/>
<use data-text="w" xlink:href="#font_1_3" transform="matrix(11.9552,0,0,-11.955797,152.92047,11.950647)" fill="#ff0000"/>
<use data-text=")" xlink:href="#font_2_2" transform="matrix(11.9552,0,0,-11.955797,161.594,11.950647)" fill="#ff0000"/>
<path transform="matrix(1,0,0,-1.00005,27.485,40.923097)" d="M99.35718 0C99.35718 1.19287 98.39017 2.1599 97.19728 2.1599 96.0044 2.1599 95.03738 1.19287 95.03738 0 95.03738-1.19287 96.0044-2.1599 97.19728-2.1599 98.39017-2.1599 99.35718-1.19287 99.35718 0ZM97.19728 0" fill="#008000"/>
<use data-text="T" xlink:href="#font_1_1" transform="matrix(11.9552,0,0,-11.955797,75.454,33.749738)" fill="#008000"/>
<use data-text="(" xlink:href="#font_2_1" transform="matrix(11.9552,0,0,-11.955797,83.941,33.749738)" fill="#008000"/>
<use data-text="&#x20d7;" xlink:href="#font_1_4" transform="matrix(11.9552,0,0,-11.955797,87.574008,31.192608)" fill="#008000"/>
<use data-text="0" xlink:href="#font_2_3" transform="matrix(11.9552,0,0,-11.955797,88.494,33.749738)" fill="#008000"/>
<use data-text=")" xlink:href="#font_2_2" transform="matrix(11.9552,0,0,-11.955797,94.35205,33.749738)" fill="#008000"/>
<use data-text="=" xlink:href="#font_2_4" transform="matrix(11.9552,0,0,-11.955797,102.218578,33.749738)" fill="#008000"/>
<use data-text="&#x20d7;" xlink:href="#font_1_4" transform="matrix(11.9552,0,0,-11.955797,113.726009,31.192608)" fill="#008000"/>
<use data-text="0" xlink:href="#font_2_3" transform="matrix(11.9552,0,0,-11.955797,114.645008,33.749738)" fill="#008000"/>
</svg>
