<svg xmlns="http://www.w3.org/2000/svg" xmlns:xlink="http://www.w3.org/1999/xlink" version="1.1" width="349" height="80" viewBox="0 0 349 80">
<defs>
<path id="font_1_98" d="M.35198976 .12739563C.35198976 .181427 .31900025 .21340943 .30999757 .22239685 .27398683 .25338746 .24699402 .25938417 .18099976 .27137757 .15098572 .27737428 .07798767 .29136659 .07798767 .35131837 .07798767 .38230897 .09899902 .4282837 .18899536 .4282837 .2979889 .4282837 .3039856 .33532716 .30599977 .3043518 .30699159 .2963562 .31399537 .2963562 .31698609 .2963562 .32798768 .2963562 .32798768 .30136109 .32798768 .3193512V.4232788C.32798768 .44128419 .32798768 .44628907 .31799317 .44628907 .30999757 .44628907 .29100038 .4242859 .28399659 .4152832 .25299073 .4402771 .22200012 .44628907 .18998719 .44628907 .068984989 .44628907 .032989503 .38031007 .032989503 .32533265 .032989503 .3143463 .032989503 .27937318 .070999149 .24438477 .102996829 .21640015 .13699341 .20941162 .18299866 .20040894 .23799134 .1894226 .25099183 .18641663 .27598573 .16642761 .2939911 .15142823 .30699159 .12940979 .30699159 .101364139 .30699159 .05831909 .28199769 .010253906 .19400025 .010253906 .12799073 .010253906 .07998657 .048294069 .057998659 .1484375 .053985597 .16642761 .052993776 .16842652 .052993776 .16842652 .050994874 .17242432 .04699707 .17242432 .04399109 .17242432 .032989503 .17242432 .032989503 .16743469 .032989503 .14942932V.013259888C.032989503-.004760742 .032989503-.009765625 .042999269-.009765625 .04798889-.009765625 .04899597-.008773804 .06599426 .012252808 .070999149 .019256592 .070999149 .021270752 .085998538 .03729248 .12399292-.009765625 .17799378-.009765625 .19499207-.009765625 .2999878-.009765625 .35198976 .048294069 .35198976 .12739563Z"/>
<path id="font_1_109" d="M.5209961 .00022888184V.029220581C.45298768 .029220581 .44499208 .036224367 .44499208 .085250858V.44140626L.3039856 .43040467V.4013977C.37199403 .4013977 .37998963 .39439393 .37998963 .34536744V.16629029C.37998963 .08125305 .33499146 .010223389 .2599945 .010223389 .17799378 .010223389 .17298889 .057235719 .17298889 .11026001V.44140626L.03199768 .43040467V.4013977C.10798645 .4013977 .10798645 .39839173 .10798645 .3093567V.1592865C.10798645 .09725952 .10798645 .06124878 .13798523 .02822876 .1619873 .0022277833 .20298767-.009765625 .2539978-.009765625 .2709961-.009765625 .30299378-.009765625 .33699037 .019226075 .3659973 .042236329 .38198854 .08024597 .38198854 .08024597V-.009765625L.5209961 .00022888184Z"/>
<path id="font_1_96" d="M.35299684 .38339234C.35299684 .4133911 .32598878 .44140626 .2829895 .44140626 .19799805 .44140626 .16899109 .34939576 .16299439 .33039857H.1619873V.44140626L.027999878 .4303589V.4013672C.09599304 .4013672 .10398865 .39434815 .10398865 .3453064V.074035648C.10398865 .0289917 .09298706 .0289917 .027999878 .0289917V0C.055999757 .0019989014 .11099243 .0019989014 .14099121 .0019989014 .16799927 .0019989014 .23899842 .0019989014 .2619934 0V.0289917H.24198914C.16899109 .02973938 .16699219 .040740968 .16699219 .07673645V.23374939C.16699219 .3307495 .20698548 .42173768 .28399659 .42173768 .2919922 .42173768 .2939911 .42173768 .2979889 .42074586 .2899933 .41674806 .27398683 .41073609 .27398683 .3837433 .27398683 .35473634 .29699708 .34375 .31298829 .34375 .33299256 .34375 .35299684 .35673524 .35299684 .3837433V.38339234Z"/>
<path id="font_1_68" d="M.20298767-.05088806V.44140626L.055999757 .43040467V.4013977C.1309967 .4013977 .13999939 .39439393 .13999939 .34536744V-.054885866C.13999939-.10992432 .1289978-.18392945 .070999149-.18392945 .070999149-.18392945 .037994386-.18392945 .01499939-.16992188 .040985109-.16500855 .04899597-.14601135 .04899597-.12901306 .04899597-.10600281 .03199768-.088012699 .0079956059-.088012699-.01701355-.0879364-.03401184-.10592651-.03401184-.12992859-.03401184-.17797852 .019989014-.20410156 .07199097-.20410156 .14399719-.20410156 .20298767-.141922 .20298767-.050933839V-.05088806M.20399475 .6043091C.20399475 .63430789 .17999268 .6533203 .1559906 .6533203 .12799073 .6533203 .10699463 .63131716 .10699463 .6043091 .10699463 .5783081 .1289978 .55630496 .15499878 .55630496 .18499756 .55630496 .20399475 .580307 .20399475 .6043091Z"/>
<path id="font_1_50" d="M.40699769 .11932373C.40699769 .1253357 .4019928 .1293335 .3959961 .1293335 .3880005 .1293335 .38598634 .12432861 .38398744 .11932373 .35798646 .035247804 .29100038 .01222229 .24899292 .01222229 .20698548 .01222229 .10598755 .040252687 .10598755 .21340943V.23242188H.3829956C.40499879 .23242188 .40699769 .23242188 .40699769 .25141908 .40699769 .3523407 .35299684 .44628907 .23199463 .44628907 .117996219 .44628907 .02999878 .34335328 .02999878 .21940613 .02999878 .08729553 .13198853-.009765625 .24299622-.009765625 .3619995-.009765625 .40699769 .09829712 .40699769 .11932373M.34498597 .25141908H.10699463C.114990238 .40830995 .20298767 .42630006 .23098755 .42630006 .33799745 .42630006 .34399415 .28538514 .34498597 .25141908Z"/>
<path id="font_1_43" d="M.4059906 .1191864C.4059906 .12817383 .39898683 .12817383 .3959961 .12817383 .3869934 .12817383 .38598634 .1251831 .3829956 .1131897 .36099244 .04222107 .30699159 .01222229 .25299073 .01222229 .19198609 .01222229 .11099243 .065200809 .11099243 .21713257 .11099243 .3831482 .19599915 .4242859 .24598694 .4242859 .28399659 .4242859 .33898927 .40924073 .3619995 .3701172 .34999085 .3701172 .31298829 .3701172 .31298829 .32911683 .31298829 .30511476 .32998658 .28811646 .35398866 .28811646 .3769989 .28811646 .3959961 .30210877 .3959961 .33111573 .3959961 .39819337 .32598878 .44628907 .24499512 .44628907 .12799073 .44628907 .034988405 .34210206 .034988405 .21614075 .034988405 .0881958 .1309967-.009765625 .24398804-.009765625 .37599183-.009765625 .4059906 .110183719 .4059906 .1191864Z"/>
<path id="font_1_105" d="M.32598878 .124069217V.1809845H.3039856V.12606812C.3039856 .0541687 .2749939 .01222229 .23599243 .01222229 .16799927 .01222229 .16799927 .10508728 .16799927 .12207031V.4016571H.30899049V.43066407H.16799927V.6142578H.1459961C.14498902 .52046206 .10899353 .4246521 .017990113 .42166139V.4016571H.102996829V.124069217C.102996829 .01322937 .1769867-.009765625 .22999573-.009765625 .29299928-.009765625 .32598878 .0521698 .32598878 .124069217Z"/>
<path id="font_1_66" d="M.24099732 0V.0289917C.17599488 .0289917 .17199707 .033996583 .17199707 .07304382V.44140626L.035995485 .4303589V.4013672C.099990848 .4013672 .10899353 .39535523 .10899353 .34629823V.074035648C.10899353 .0289917 .09799194 .0289917 .032989503 .0289917V0C.06098938 .0019989014 .10899353 .0019989014 .13798523 .0019989014 .14898682 .0019989014 .20698548 .0019989014 .24099732 0M.18499756 .6043091C.18499756 .63430789 .16099549 .6533203 .13699341 .6533203 .10899353 .6533203 .08799744 .63131716 .08799744 .6043091 .08799744 .5783081 .10998535 .55630496 .13598633 .55630496 .1659851 .55630496 .18499756 .580307 .18499756 .6043091Z"/>
<path id="font_1_112" d="M.49798585 .4016571V.43066407C.46899415 .4286499 .45498658 .4286499 .42399598 .4286499L.34199525 .43066407V.4016571C.38398744 .3996582 .3889923 .3697052 .3889923 .35871888 .3889923 .34973146 .3869934 .34474183 .38198854 .3327484L.27999879 .07510376 .16799927 .35671998C.16299439 .37069703 .1619873 .37069703 .1619873 .37568666 .1619873 .4016571 .19999695 .4016571 .21798706 .4016571V.43066407C.19299317 .4286499 .14099121 .4286499 .11399841 .4286499L.017990113 .43066407V.4016571C.07398987 .4016571 .083999637 .3976593 .09599304 .36669923L.23899842 .00920105C.24398804-.004776001 .24598694-.009765625 .2579956-.009765625 .2649994-.009765625 .2709961-.0077819826 .27799989 .00920105L.4079895 .3357544C.4169922 .3577118 .43399049 .40066529 .49798585 .4016571Z"/>
<path id="font_1_45" d="M.19499207-.0040130617C.19499207 .057998659 .17399597 .09700012 .1349945 .09700012 .10598755 .09700012 .08699036 .07499695 .08699036 .04899597 .08699036 .021987915 .10598755 0 .13598633 0 .15098572 0 .1619873 .0069885256 .16799927 .011993408 .17098999 .01499939 .17298889 .01499939 .17298889 .01499939 .17298889 .01499939 .1749878 .0009918213 .1749878-.0040130617 .1749878-.06813049 .14898682-.12825012 .10499573-.17433167 .100997928-.17733765 .099990848-.17933655 .099990848-.18334961 .099990848-.18835449 .10499573-.19335938 .10998535-.19335938 .11898804-.19335938 .19499207-.11923218 .19499207-.0040130617Z"/>
<path id="font_2_2" d="M.21699524 .6066437C.21699524 .6436157 .21998596 .6536102 .29499818 .6536102H.31698609V.6826172C.29299928 .680603 .20698548 .680603 .1769867 .680603 .14698792 .680603 .05999756 .680603 .035995485 .6826172V.6536102H.057998659C.1329956 .6536102 .13598633 .6436157 .13598633 .6066437V.07595825C.13598633 .038986207 .1329956 .0289917 .057998659 .0289917H.035995485V0C.05999756 .0019989014 .1459961 .0019989014 .17599488 .0019989014 .20599365 .0019989014 .29299928 .0019989014 .31698609 0V.0289917H.29499818C.21998596 .0289917 .21699524 .038986207 .21699524 .07595825V.6066437Z"/>
<path id="font_2_3" d="M.71699526 .24320984C.71699526 .3363037 .71699526 .3643341 .69400027 .39637757 .6649933 .4353943 .6179962 .44140626 .58399966 .44140626 .5009918 .44140626 .45899964 .38134767 .44299317 .34231568 .42900086 .41938783 .375 .44140626 .31199647 .44140626 .21499634 .44140626 .1769867 .3583374 .16899109 .33831788H.16799927V.44140626L.03199768 .43040467V.40138246C.099990848 .40138246 .10798645 .3943634 .10798645 .34532167V.074035648C.10798645 .0289917 .09700012 .0289917 .03199768 .0289917V0C.057998659 .0019989014 .11199951 .0019989014 .13999939 .0019989014 .16899109 .0019989014 .22299195 .0019989014 .24899292 0V.0289917C.18499756 .0289917 .17298889 .0289917 .17298889 .074035648V.2602234C.17298889 .3653412 .24198914 .42140199 .3039856 .42140199 .3659973 .42140199 .37998963 .37034608 .37998963 .3092804V.074035648C.37998963 .0289917 .36898805 .0289917 .3039856 .0289917V0C.32998658 .0019989014 .38398744 .0019989014 .4119873 .0019989014 .44099427 .0019989014 .49499513 .0019989014 .5209961 0V.0289917C.45700074 .0289917 .44499208 .0289917 .44499208 .074035648V.2602234C.44499208 .3653412 .5139923 .42140199 .57598879 .42140199 .6380005 .42140199 .6519928 .37034608 .6519928 .3092804V.074035648C.6519928 .0289917 .6409912 .0289917 .57598879 .0289917V0C.60198977 .0019989014 .6559906 .0019989014 .6839905 .0019989014 .71299746 .0019989014 .7669983 .0019989014 .79299929 0V.0289917C.7429962 .0289917 .71798709 .0289917 .71699526 .059020997V.24320984Z"/>
<path id="font_3_1" d="M.4169922 .6096344C.4229889 .6336212 .4249878 .64260867 .43998719 .64660647 .44799806 .64860537 .48098756 .64860537 .5019989 .64860537 .60198977 .64860537 .6489868 .64460757 .6489868 .5666504 .6489868 .55166628 .644989 .51368716 .6389923 .4767151L.6380005 .46472169C.6380005 .46072389 .6419983 .45472718 .647995 .45472718 .6579895 .45472718 .6579895 .4597168 .6609955 .475708L.6899872 .65260317C.69200137 .66160586 .69200137 .66360476 .69200137 .6666107 .69200137 .6776123 .6859894 .6776123 .66600039 .6776123H.11898804C.09599304 .6776123 .09498596 .6766052 .08898926 .6586151L.027999878 .478714C.026992798 .4767151 .023986817 .4657135 .023986817 .46472169 .023986817 .4597168 .027999878 .45472718 .033996583 .45472718 .041992189 .45472718 .04399109 .45872499 .04798889 .4717102 .08999634 .5926361 .11099243 .64860537 .24398804 .64860537H.31098939C.33499146 .64860537 .34498597 .64860537 .34498597 .637619 .34498597 .63461306 .34498597 .63261416 .33999635 .614624L.20599365 .07795715C.19599915 .038986207 .19400025 .0289917 .08799744 .0289917 .06298828 .0289917 .055999757 .0289917 .055999757 .009994507 .055999757 0 .066986087 0 .07199097 0 .09700012 0 .12298584 .0019989014 .147995 .0019989014H.3039856C.32899476 .0019989014 .35598756 0 .3809967 0 .3919983 0 .4019928 0 .4019928 .018997193 .4019928 .0289917 .394989 .0289917 .36898805 .0289917 .2789917 .0289917 .2789917 .037994386 .2789917 .052978517 .2789917 .053970338 .2789917 .06097412 .2829895 .07696533L.4169922 .6096344Z"/>
<path id="font_2_1" d="M.6749878 .32421876C.68899539 .32421876 .70700076 .32421876 .70700076 .34220887 .70700076 .36120606 .6899872 .36120606 .6749878 .36120606H.085998538C.07199097 .36120606 .053985597 .36120606 .053985597 .34321595 .053985597 .32421876 .070999149 .32421876 .085998538 .32421876H.6749878M.6749878 .13780213C.68899539 .13780213 .70700076 .13780213 .70700076 .15579224 .70700076 .17480469 .6899872 .17480469 .6749878 .17480469H.085998538C.07199097 .17480469 .053985597 .17480469 .053985597 .15679932 .053985597 .13780213 .070999149 .13780213 .085998538 .13780213H.6749878Z"/>
<path id="font_4_1" d="M.2679901 .31362916H.3039856L.45399476 .08192444C.46398927 .06594849 .48799134 .026992798 .49899293 .011993408 .5059967 0 .5089874 0 .5319977 0H.66999819C.6879883 0 .7029877 0 .7029877 .017990113 .7029877 .025985718 .69699099 .032989503 .6879883 .034988405 .651001 .04298401 .60198977 .10890198 .5779877 .14085388 .57099917 .15083313 .5209961 .2167511 .45399476 .32463075 .54299929 .34062196 .6289978 .37861634 .6289978 .4975891 .6289978 .63656619 .48199464 .6845703 .3639984 .6845703H.049987794C.03199768 .6845703 .015991211 .6845703 .015991211 .66656497 .015991211 .64956668 .034988405 .64956668 .042999269 .64956668 .099990848 .64956668 .10499573 .64256289 .10499573 .5925751V.091918949C.10499573 .04197693 .099990848 .034988405 .042999269 .034988405 .034988405 .034988405 .015991211 .034988405 .015991211 .017990113 .015991211 0 .03199768 0 .049987794 0H.32398988C.34199525 0 .35699464 0 .35699464 .017990113 .35699464 .034988405 .33999635 .034988405 .32899476 .034988405 .27198792 .034988405 .2679901 .04298401 .2679901 .091918949V.31362916M.46099855 .36262513C.4889984 .39961244 .49198915 .4526062 .49198915 .4965973 .49198915 .5445862 .48599244 .59757998 .45399476 .63856509 .49499513 .6295624 .59399417 .5985718 .59399417 .4975891 .59399417 .43260194 .56399539 .3816223 .46099855 .36262513M.2679901 .59558108C.2679901 .61657717 .2679901 .64956668 .32998658 .64956668 .4149933 .64956668 .45700074 .614563 .45700074 .4965973 .45700074 .36761476 .42599488 .3486328 .2679901 .3486328V.59558108M.13198853 .034988405C.13999939 .052963258 .13999939 .08093262 .13999939 .089920047V.594574C.13999939 .6045685 .13999939 .6315613 .13198853 .64956668H.24598694C.23298645 .6335602 .23298645 .61357119 .23298645 .5985718V.089920047C.23298645 .079940799 .23298645 .052963258 .24099732 .034988405H.13198853M.34498597 .31362916C.35198976 .31462098 .35598756 .31562806 .3639984 .31562806 .3789978 .31562806 .40098573 .31762696 .41600038 .31962586 .43099977 .2956543 .5389862 .117889408 .621994 .034988405H.5249939L.34498597 .31362916Z"/>
<path id="font_5_1" d="M.28199769 .20405579C.2979889 .21907044 .33999635 .2520752 .35598756 .26608277 .41799928 .32312013 .47698976 .3781433 .47698976 .46917726 .47698976 .588089 .3769989 .66503909 .2519989 .66503909 .13198853 .66503909 .052993776 .57411196 .052993776 .48516847 .052993776 .4361725 .09199524 .4291687 .10598755 .4291687 .1269989 .4291687 .1579895 .4441681 .1579895 .48217774 .1579895 .5341797 .10798645 .5341797 .09599304 .5341797 .125 .6070709 .19198609 .6320343 .24099732 .6320343 .33399964 .6320343 .38198854 .55314639 .38198854 .46917726 .38198854 .36514283 .30899049 .28910829 .19099427 .16804505L.06498718 .037994386C.052993776 .026992798 .052993776 .024993897 .052993776 0H.44799806L.47698976 .17904663H.44599916C.44299317 .1590271 .43499757 .10900879 .4229889 .08999634 .4169922 .08198547 .34098817 .08198547 .32499696 .08198547H.14698792L.28199769 .20405579Z"/>
<path id="font_1_77" d="M.5209961 0V.0289917C.47099305 .0289917 .44599916 .0289917 .44499208 .059051515V.24342346C.44499208 .3365631 .44499208 .36450196 .42199708 .39640809 .3929901 .4353943 .34599305 .44140626 .31199647 .44140626 .21499634 .44140626 .1769867 .35850526 .16899109 .338562H.16799927V.44140626L.03199768 .4303589V.4013672C.099990848 .4013672 .10798645 .39437867 .10798645 .34553529V.07408142C.10798645 .0289917 .09700012 .0289917 .03199768 .0289917V0C.057998659 .0019989014 .11199951 .0019989014 .13999939 .0019989014 .16899109 .0019989014 .22299195 .0019989014 .24899292 0V.0289917C.18499756 .0289917 .17298889 .0289917 .17298889 .07408142V.26046754C.17298889 .36547853 .24198914 .4213562 .3039856 .4213562 .3659973 .4213562 .37998963 .37045289 .37998963 .3095703V.07408142C.37998963 .0289917 .36898805 .0289917 .3039856 .0289917V0C.32998658 .0019989014 .38398744 .0019989014 .4119873 .0019989014 .44099427 .0019989014 .49499513 .0019989014 .5209961 0Z"/>
<path id="font_1_81" d="M.45899964 .21424866C.45899964 .34326173 .36099244 .44628907 .24499512 .44628907 .125 .44628907 .02999878 .340271 .02999878 .21424866 .02999878 .086242679 .12998963-.009765625 .24398804-.009765625 .3619995-.009765625 .45899964 .08824158 .45899964 .21424866M.3829956 .22325135C.3829956 .18824768 .3829956 .12623596 .35699464 .07923889 .32899476 .031234742 .2829895 .01222229 .24499512 .01222229 .20799256 .01222229 .16299439 .02822876 .13398743 .07723999 .10699463 .12223816 .10598755 .1812439 .10598755 .22325135 .10598755 .261261 .10598755 .32226563 .13699341 .3672638 .16499329 .41027833 .20899964 .42626954 .24398804 .42626954 .2829895 .42626954 .32499696 .40827943 .35198976 .3692627 .3829956 .32325746 .3829956 .2602539 .3829956 .22325135Z"/>
<path id="font_6_1" d="M.6299896 .67681887C.6380005 .69081118 .6380005 .69281008 .6380005 .69581606 .6380005 .7028198 .6319885 .7158203 .6179962 .7158203 .60598757 .7158203 .6029968 .70980837 .59599307 .69581606L.14698792-.1768341C.13899231-.19082642 .13899231-.19282532 .13899231-.1958313 .13899231-.2038269 .1459961-.21582031 .15899658-.21582031 .17098999-.21582031 .17399597-.20982361 .18099976-.1958313L.6299896 .67681887Z"/>
<path id="font_5_2" d="M.25299073 .33370973C.33198548 .33370973 .38198854 .27557374 .38198854 .17037964 .38198854 .045440675 .31098939 .008514404 .2579956 .008514404 .20298767 .008514404 .12799073 .0284729 .09298706 .08137512 .1289978 .08137512 .1539917 .10437012 .1539917 .13737488 .1539917 .16937256 .1309967 .19238281 .09899902 .19238281 .07199097 .19238281 .04399109 .17536927 .04399109 .13537598 .04399109 .04045105 .1459961-.021484375 .2599945-.021484375 .3929901-.021484375 .48599244 .070388797 .48599244 .17037964 .48599244 .25352479 .41999818 .32969667 .31799317 .3517456 .39698792 .37982179 .45599366 .4479828 .45599366 .52804568 .45599366 .6080475 .3659973 .66503909 .2619934 .66503909 .15499878 .66503909 .07398987 .6070404 .07398987 .53105166 .07398987 .49404908 .09899902 .4780426 .125 .4780426 .1559906 .4780426 .17599488 .5000458 .17599488 .52905276 .17599488 .56604006 .14399719 .5800476 .12199402 .5810547 .1639862 .6360321 .24099732 .6390381 .25898744 .6390381 .2849884 .6390381 .36099244 .6310272 .36099244 .52804568 .36099244 .45799256 .33198548 .41589356 .31799317 .39985658 .28799439 .36878968 .2649994 .36679078 .20399475 .3627777 .18499756 .36177064 .1769867 .36076356 .1769867 .3477478 .1769867 .33370973 .18598938 .33370973 .20298767 .33370973H.25299073Z"/>
</defs>
<path transform="matrix(1.00006,0,0,-1.00005,33.629278,41.02305)" stroke-width=".3985" stroke-linecap="butt" stroke-miterlimit="10" stroke-linejoin="miter" fill="none" stroke="#000000" d="M0 0H32.3991"/>
<path transform="matrix(1.00006,0,0,-1.00005,33.629278,41.02305)" stroke-width=".3985" stroke-linecap="butt" stroke-miterlimit="10" stroke-linejoin="miter" fill="none" stroke="#000000" d="M0 0V32.3991"/>
<path transform="matrix(1.00006,0,0,-1.00005,33.629278,41.02305)" stroke-width=".3985" stroke-linecap="butt" stroke-miterlimit="10" stroke-linejoin="miter" fill="none" stroke="#000000" d="M0 0-21.5994-10.7997"/>
<path transform="matrix(1.00006,0,0,-1.00005,33.629278,41.02305)" stroke-width=".79701" stroke-linecap="butt" stroke-miterlimit="10" stroke-linejoin="miter" fill="none" stroke="#0000ff" d="M0 0 17.42944 8.71475"/>
<path transform="matrix(.89441367,-.4471923,-.4471968,-.89440467,51.05976,32.30786)" d="M4.66248 0C3.28098 .25902 1.0361 1.0361-.51805 1.94269V-1.94269C1.0361-1.0361 3.28098-.25902 4.66248 0" fill="#0000ff"/>
<path transform="matrix(1.00006,0,0,-1.00005,33.629278,41.02305)" stroke-width=".79701" stroke-linecap="butt" stroke-miterlimit="10" stroke-linejoin="miter" fill="none" stroke="#0000ff" d="M0 0 8.71475 17.42944"/>
<path transform="matrix(.4471968,-.89440467,-.89441367,-.4471923,42.34455,23.59274)" d="M4.66248 0C3.28098 .25902 1.0361 1.0361-.51805 1.94269V-1.94269C1.0361-1.0361 3.28098-.25902 4.66248 0" fill="#0000ff"/>
<path transform="matrix(1.00006,0,0,-1.00005,33.629278,41.02305)" stroke-width=".79701" stroke-linecap="butt" stroke-miterlimit="10" stroke-linejoin="miter" fill="none" stroke="#0000ff" d="M0 0V16.9369"/>
<path transform="matrix(0,-1.00005,-1.00006,-0,33.629278,24.085303)" d="M4.66248 0C3.28098 .25902 1.0361 1.0361-.51805 1.94269V-1.94269C1.0361-1.0361 3.28098-.25902 4.66248 0" fill="#0000ff"/>
<path transform="matrix(1.00006,0,0,-1.00005,33.629278,41.02305)" stroke-width=".79701" stroke-linecap="butt" stroke-miterlimit="10" stroke-linejoin="miter" fill="none" stroke="#0000ff" d="M0 0 7.50282-7.50282"/>
<path transform="matrix(.70714238,.7071353,.70714238,-.7071353,41.132528,48.526224)" d="M4.66248 0C3.28098 .25902 1.0361 1.0361-.51805 1.94269V-1.94269C1.0361-1.0361 3.28098-.25902 4.66248 0" fill="#0000ff"/>
<path transform="matrix(1.00006,0,0,-1.00005,33.629278,41.02305)" stroke-width=".79701" stroke-linecap="butt" stroke-miterlimit="10" stroke-linejoin="miter" fill="none" stroke="#0000ff" d="M0 0-19.01324 28.51985"/>
<path transform="matrix(-.55470326,-.8320615,-.8320699,.5546977,14.614895,12.501783)" d="M4.66248 0C3.28098 .25902 1.0361 1.0361-.51805 1.94269V-1.94269C1.0361-1.0361 3.28098-.25902 4.66248 0" fill="#0000ff"/>
<path transform="matrix(1.00006,0,0,-1.00005,33.629278,41.02305)" stroke-width=".79701" stroke-linecap="butt" stroke-miterlimit="10" stroke-linejoin="miter" fill="none" stroke="#0000ff" d="M0 0-28.51985-19.01324"/>
<path transform="matrix(-.8320699,.5546977,.55470326,.8320615,5.107725,60.03724)" d="M4.66248 0C3.28098 .25902 1.0361 1.0361-.51805 1.94269V-1.94269C1.0361-1.0361 3.28098-.25902 4.66248 0" fill="#0000ff"/>
<path transform="matrix(1.00006,0,0,-1.00005,33.629278,41.02305)" stroke-width=".3985" stroke-linecap="butt" stroke-dasharray="2.98883,2.98883" stroke-miterlimit="10" stroke-linejoin="miter" fill="none" stroke="#000000" d="M32.3991 32.3991C46.98839 40.8222 61.00858 40.8222 72.4919 34.19229"/>
<path transform="matrix(.8660619,.50000497,.50000998,-.8660533,106.1255,6.8290407)" d="M3.58653 0C2.52383 .19925 .797 .797-.3985 1.49438V-1.49438C.797-.797 2.52383-.19925 3.58653 0"/>
<path transform="matrix(1.00006,0,0,-1.00005,33.629278,41.02305)" stroke-width=".3985" stroke-linecap="butt" stroke-miterlimit="10" stroke-linejoin="miter" fill="none" stroke="#000000" d="M75.59789 10.7997H118.79668"/>
<path transform="matrix(1.00006,0,0,-1.00005,33.629278,41.02305)" stroke-width=".3985" stroke-linecap="butt" stroke-miterlimit="10" stroke-linejoin="miter" fill="none" stroke="#000000" d="M97.19728-10.7997V32.3991"/>
<path transform="matrix(1.00006,0,0,-1.00005,33.629278,41.02305)" stroke-width=".79701" stroke-linecap="butt" stroke-miterlimit="10" stroke-linejoin="miter" fill="none" stroke="#0000ff" d="M97.19728 10.7997 101.46645 27.87584"/>
<path transform="matrix(.24252455,-.97018846,-.97019818,-.24252212,135.1018,13.145817)" d="M4.66248 0C3.28098 .25902 1.0361 1.0361-.51805 1.94269V-1.94269C1.0361-1.0361 3.28098-.25902 4.66248 0" fill="#0000ff"/>
<path transform="matrix(1.00006,0,0,-1.00005,33.629278,41.02305)" stroke-width=".79701" stroke-linecap="butt" stroke-miterlimit="10" stroke-linejoin="miter" fill="none" stroke="#0000ff" d="M97.19728 10.7997 114.62672 19.51445"/>
<path transform="matrix(.89441367,-.4471923,-.4471968,-.89440467,148.26287,21.507624)" d="M4.66248 0C3.28098 .25902 1.0361 1.0361-.51805 1.94269V-1.94269C1.0361-1.0361 3.28098-.25902 4.66248 0" fill="#0000ff"/>
<path transform="matrix(1.00006,0,0,-1.00005,33.629278,41.02305)" stroke-width=".79701" stroke-linecap="butt" stroke-miterlimit="10" stroke-linejoin="miter" fill="none" stroke="#0000ff" d="M97.19728 10.7997 84.87697 19.01332"/>
<path transform="matrix(-.8320699,-.55468776,-.5546933,.8320615,118.51135,22.008799)" d="M4.66248 0C3.28098 .25902 1.0361 1.0361-.51805 1.94269V-1.94269C1.0361-1.0361 3.28098-.25902 4.66248 0" fill="#0000ff"/>
<path transform="matrix(1.00006,0,0,-1.00005,33.629278,41.02305)" stroke-width=".79701" stroke-linecap="butt" stroke-miterlimit="10" stroke-linejoin="miter" fill="none" stroke="#0000ff" d="M97.19728 10.7997V-.73737"/>
<path transform="matrix(0,1.00005,1.00006,0,130.83238,41.760457)" d="M4.66248 0C3.28098 .25902 1.0361 1.0361-.51805 1.94269V-1.94269C1.0361-1.0361 3.28098-.25902 4.66248 0" fill="#0000ff"/>
<path transform="matrix(1.00006,0,0,-1.00005,33.629278,41.02305)" stroke-width=".79701" stroke-linecap="butt" stroke-miterlimit="10" stroke-linejoin="miter" fill="none" stroke="#0000ff" d="M97.19728 10.7997 115.4998-7.50282"/>
<path transform="matrix(.70714238,.7071353,.70714238,-.7071353,149.13599,48.526224)" d="M4.66248 0C3.28098 .25902 1.0361 1.0361-.51805 1.94269V-1.94269C1.0361-1.0361 3.28098-.25902 4.66248 0" fill="#0000ff"/>
<path transform="matrix(1.00006,0,0,-1.00005,33.629278,41.02305)" d="M75.59789-10.7997V32.3991H118.79668V-10.7997ZM118.79668 32.3991" fill="#0000ff" fill-opacity=".5"/>
<use data-text="s" xlink:href="#font_1_98" transform="matrix(11.955917,0,0,-11.955797,33.01024,76.28281)"/>
<use data-text="u" xlink:href="#font_1_109" transform="matrix(11.955917,0,0,-11.955797,37.62522,76.28281)"/>
<use data-text="r" xlink:href="#font_1_96" transform="matrix(11.955917,0,0,-11.955797,44.129247,76.28281)"/>
<use data-text="j" xlink:href="#font_1_68" transform="matrix(11.955917,0,0,-11.955797,48.684453,76.28281)"/>
<use data-text="e" xlink:href="#font_1_50" transform="matrix(11.955917,0,0,-11.955797,52.259275,76.28281)"/>
<use data-text="c" xlink:href="#font_1_43" transform="matrix(11.955917,0,0,-11.955797,57.460096,76.28281)"/>
<use data-text="t" xlink:href="#font_1_105" transform="matrix(11.955917,0,0,-11.955797,62.660924,76.28281)"/>
<use data-text="i" xlink:href="#font_1_66" transform="matrix(11.955917,0,0,-11.955797,67.216129,76.28281)"/>
<use data-text="v" xlink:href="#font_1_112" transform="matrix(11.955917,0,0,-11.955797,70.46814,76.28281)"/>
<use data-text="e" xlink:href="#font_1_50" transform="matrix(11.955917,0,0,-11.955797,76.3385,76.28281)"/>
<use data-text="," xlink:href="#font_1_45" transform="matrix(11.955917,0,0,-11.955797,81.53932,76.28281)"/>
<use data-text="I" xlink:href="#font_2_2" transform="matrix(11.955917,0,0,-11.955797,88.67758,76.28281)"/>
<use data-text="m" xlink:href="#font_2_3" transform="matrix(11.955917,0,0,-11.955797,92.89801,76.28281)"/>
<use data-text="T" xlink:href="#font_3_1" transform="matrix(11.955917,0,0,-11.955797,104.64853,76.28281)"/>
<use data-text="=" xlink:href="#font_2_1" transform="matrix(11.955917,0,0,-11.955797,116.457248,76.28281)"/>
<use data-text="R" xlink:href="#font_4_1" transform="matrix(11.955917,0,0,-11.955797,128.88298,76.28281)"/>
<use data-text="2" xlink:href="#font_5_1" transform="matrix(7.9705779,0,0,-7.970498,137.5185,71.94359)"/>
<path transform="matrix(1.00006,0,0,-1.00005,218.29334,41.02305)" stroke-width=".3985" stroke-linecap="butt" stroke-miterlimit="10" stroke-linejoin="miter" fill="none" stroke="#000000" d="M-21.5994 10.7997H21.5994"/>
<path transform="matrix(1.00006,0,0,-1.00005,218.29334,41.02305)" stroke-width=".3985" stroke-linecap="butt" stroke-miterlimit="10" stroke-linejoin="miter" fill="none" stroke="#000000" d="M0-10.7997V32.3991"/>
<path transform="matrix(1.00006,0,0,-1.00005,218.29334,41.02305)" stroke-width=".79701" stroke-linecap="butt" stroke-miterlimit="10" stroke-linejoin="miter" fill="none" stroke="#0000ff" d="M0 10.7997 4.26917 27.87584"/>
<path transform="matrix(.24252455,-.97018846,-.97019818,-.24252212,222.56276,13.145817)" d="M4.66248 0C3.28098 .25902 1.0361 1.0361-.51805 1.94269V-1.94269C1.0361-1.0361 3.28098-.25902 4.66248 0" fill="#0000ff"/>
<path transform="matrix(1.00006,0,0,-1.00005,218.29334,41.02305)" stroke-width=".79701" stroke-linecap="butt" stroke-miterlimit="10" stroke-linejoin="miter" fill="none" stroke="#0000ff" d="M0 10.7997 17.42944 19.51445"/>
<path transform="matrix(.89441367,-.4471923,-.4471968,-.89440467,235.72382,21.507624)" d="M4.66248 0C3.28098 .25902 1.0361 1.0361-.51805 1.94269V-1.94269C1.0361-1.0361 3.28098-.25902 4.66248 0" fill="#0000ff"/>
<path transform="matrix(1.00006,0,0,-1.00005,218.29334,41.02305)" stroke-width=".79701" stroke-linecap="butt" stroke-miterlimit="10" stroke-linejoin="miter" fill="none" stroke="#0000ff" d="M0 10.7997-12.3203 19.01332"/>
<path transform="matrix(-.8320699,-.55468776,-.5546933,.8320615,205.97232,22.008799)" d="M4.66248 0C3.28098 .25902 1.0361 1.0361-.51805 1.94269V-1.94269C1.0361-1.0361 3.28098-.25902 4.66248 0" fill="#0000ff"/>
<path transform="matrix(1.00006,0,0,-1.00005,218.29334,41.02305)" stroke-width=".79701" stroke-linecap="butt" stroke-miterlimit="10" stroke-linejoin="miter" fill="none" stroke="#0000ff" d="M0 10.7997V-.73737"/>
<path transform="matrix(0,1.00005,1.00006,0,218.29334,41.760457)" d="M4.66248 0C3.28098 .25902 1.0361 1.0361-.51805 1.94269V-1.94269C1.0361-1.0361 3.28098-.25902 4.66248 0" fill="#0000ff"/>
<path transform="matrix(1.00006,0,0,-1.00005,218.29334,41.02305)" stroke-width=".79701" stroke-linecap="butt" stroke-miterlimit="10" stroke-linejoin="miter" fill="none" stroke="#0000ff" d="M0 10.7997 18.30252-7.50282"/>
<path transform="matrix(.70714238,.7071353,.70714238,-.7071353,236.59693,48.526224)" d="M4.66248 0C3.28098 .25902 1.0361 1.0361-.51805 1.94269V-1.94269C1.0361-1.0361 3.28098-.25902 4.66248 0" fill="#0000ff"/>
<path transform="matrix(1.00006,0,0,-1.00005,218.29334,41.02305)" stroke-width=".3985" stroke-linecap="butt" stroke-dasharray="2.98883,2.98883" stroke-miterlimit="10" stroke-linejoin="miter" fill="none" stroke="#000000" d="M32.3991 32.3991C46.98839 40.8222 61.00858 40.8222 72.4919 34.19229"/>
<path transform="matrix(.8660619,.50000497,.50000998,-.8660533,290.78956,6.8290407)" d="M3.58653 0C2.52383 .19925 .797 .797-.3985 1.49438V-1.49438C.797-.797 2.52383-.19925 3.58653 0"/>
<path transform="matrix(1.00006,0,0,-1.00005,218.29334,41.02305)" stroke-width=".3985" stroke-linecap="butt" stroke-miterlimit="10" stroke-linejoin="miter" fill="none" stroke="#000000" d="M97.19728 0H129.59638"/>
<path transform="matrix(1.00006,0,0,-1.00005,218.29334,41.02305)" stroke-width=".3985" stroke-linecap="butt" stroke-miterlimit="10" stroke-linejoin="miter" fill="none" stroke="#000000" d="M97.19728 0V32.3991"/>
<path transform="matrix(1.00006,0,0,-1.00005,218.29334,41.02305)" stroke-width=".3985" stroke-linecap="butt" stroke-miterlimit="10" stroke-linejoin="miter" fill="none" stroke="#000000" d="M97.19728 0 75.59789-10.7997"/>
<path transform="matrix(1.00006,0,0,-1.00005,218.29334,41.02305)" stroke-width=".79701" stroke-linecap="butt" stroke-miterlimit="10" stroke-linejoin="miter" fill="none" stroke="#0000ff" d="M97.19728 0 101.12282 11.77654"/>
<path transform="matrix(.31622897,-.9486874,-.94869688,-.3162258,319.4222,29.245942)" d="M4.66248 0C3.28098 .25902 1.0361 1.0361-.51805 1.94269V-1.94269C1.0361-1.0361 3.28098-.25902 4.66248 0" fill="#0000ff"/>
<path transform="matrix(1.00006,0,0,-1.00005,218.29334,41.02305)" stroke-width=".79701" stroke-linecap="butt" stroke-miterlimit="10" stroke-linejoin="miter" fill="none" stroke="#0000ff" d="M97.19728 0 114.62672 8.71475"/>
<path transform="matrix(.89441367,-.4471923,-.4471968,-.89440467,332.92695,32.30786)" d="M4.66248 0C3.28098 .25902 1.0361 1.0361-.51805 1.94269V-1.94269C1.0361-1.0361 3.28098-.25902 4.66248 0" fill="#0000ff"/>
<path transform="matrix(1.00006,0,0,-1.00005,218.29334,41.02305)" stroke-width=".79701" stroke-linecap="butt" stroke-miterlimit="10" stroke-linejoin="miter" fill="none" stroke="#0000ff" d="M97.19728 0 74.52684 9.0682"/>
<path transform="matrix(-.92849567,-.37138853,-.37139226,.92848637,292.82466,31.954396)" d="M4.66248 0C3.28098 .25902 1.0361 1.0361-.51805 1.94269V-1.94269C1.0361-1.0361 3.28098-.25902 4.66248 0" fill="#0000ff"/>
<path transform="matrix(1.00006,0,0,-1.00005,218.29334,41.02305)" stroke-width=".79701" stroke-linecap="butt" stroke-miterlimit="10" stroke-linejoin="miter" fill="none" stroke="#0000ff" d="M97.19728 0 93.27173-11.77654"/>
<path transform="matrix(-.31622897,.9486874,.94869688,.3162258,311.57069,52.800157)" d="M4.66248 0C3.28098 .25902 1.0361 1.0361-.51805 1.94269V-1.94269C1.0361-1.0361 3.28098-.25902 4.66248 0" fill="#0000ff"/>
<path transform="matrix(1.00006,0,0,-1.00005,218.29334,41.02305)" stroke-width=".79701" stroke-linecap="butt" stroke-miterlimit="10" stroke-linejoin="miter" fill="none" stroke="#0000ff" d="M97.19728 0 119.62476-4.4855"/>
<path transform="matrix(.98060879,.19610979,.19611176,-.980599,337.92527,45.508775)" d="M4.66248 0C3.28098 .25902 1.0361 1.0361-.51805 1.94269V-1.94269C1.0361-1.0361 3.28098-.25902 4.66248 0" fill="#0000ff"/>
<path transform="matrix(1.00006,0,0,-1.00005,218.29334,41.02305)" d="M75.59789-21.5994 129.59638-10.7997 118.79668 21.5994 64.79819 10.7997 75.59789-21.5994" fill="#0000ff" fill-opacity=".5"/>
<use data-text="n" xlink:href="#font_1_77" transform="matrix(11.955917,0,0,-11.955797,207.26668,76.28281)"/>
<use data-text="o" xlink:href="#font_1_81" transform="matrix(11.955917,0,0,-11.955797,213.7707,76.28281)"/>
<use data-text="t" xlink:href="#font_1_105" transform="matrix(11.955917,0,0,-11.955797,219.6291,76.28281)"/>
<use data-text="s" xlink:href="#font_1_98" transform="matrix(11.955917,0,0,-11.955797,228.06996,76.28281)"/>
<use data-text="u" xlink:href="#font_1_109" transform="matrix(11.955917,0,0,-11.955797,232.68495,76.28281)"/>
<use data-text="r" xlink:href="#font_1_96" transform="matrix(11.955917,0,0,-11.955797,239.18898,76.28281)"/>
<use data-text="j" xlink:href="#font_1_68" transform="matrix(11.955917,0,0,-11.955797,243.74419,76.28281)"/>
<use data-text="e" xlink:href="#font_1_50" transform="matrix(11.955917,0,0,-11.955797,247.31902,76.28281)"/>
<use data-text="c" xlink:href="#font_1_43" transform="matrix(11.955917,0,0,-11.955797,252.51982,76.28281)"/>
<use data-text="t" xlink:href="#font_1_105" transform="matrix(11.955917,0,0,-11.955797,257.7206,76.28281)"/>
<use data-text="i" xlink:href="#font_1_66" transform="matrix(11.955917,0,0,-11.955797,262.27583,76.28281)"/>
<use data-text="v" xlink:href="#font_1_112" transform="matrix(11.955917,0,0,-11.955797,265.52784,76.28281)"/>
<use data-text="e" xlink:href="#font_1_50" transform="matrix(11.955917,0,0,-11.955797,271.3982,76.28281)"/>
<use data-text="," xlink:href="#font_1_45" transform="matrix(11.955917,0,0,-11.955797,276.599,76.28281)"/>
<use data-text="I" xlink:href="#font_2_2" transform="matrix(11.955917,0,0,-11.955797,283.74824,76.28281)"/>
<use data-text="m" xlink:href="#font_2_3" transform="matrix(11.955917,0,0,-11.955797,287.9687,76.28281)"/>
<use data-text="T" xlink:href="#font_3_1" transform="matrix(11.955917,0,0,-11.955797,299.7192,76.28281)"/>
<use data-text="&#x0338;" xlink:href="#font_6_1" transform="matrix(11.955917,0,0,-11.955797,311.52793,76.28281)"/>
<use data-text="=" xlink:href="#font_2_1" transform="matrix(11.955917,0,0,-11.955797,311.52793,76.28281)"/>
<use data-text="R" xlink:href="#font_4_1" transform="matrix(11.955917,0,0,-11.955797,323.95365,76.28281)"/>
<use data-text="3" xlink:href="#font_5_2" transform="matrix(7.9705779,0,0,-7.970498,332.58918,71.94359)"/>
</svg>
