<svg xmlns="http://www.w3.org/2000/svg" xmlns:xlink="http://www.w3.org/1999/xlink" version="1.1" width="353" height="298" viewBox="0 0 353 298">
<path transform="matrix(1.00006,0,0,-1.00009,176.56778,171.29334)" stroke-width=".3985" stroke-linecap="butt" stroke-miterlimit="10" stroke-linejoin="miter" fill="none" stroke="#000000" d="M0 0-117.49115-67.83331"/>
<path transform="matrix(-.8660619,.500025,.50000998,.866088,58.89704,239.23239)" stroke-width=".3985" stroke-linecap="round" stroke-linejoin="round" fill="none" stroke="#000000" d="M-2.07224 2.39104C-1.69365 .95639-.84999 .27895 0 0-.84999-.27895-1.69365-.95639-2.07224-2.39104"/>
<path transform="matrix(1.00006,0,0,-1.00009,176.56778,171.29334)" stroke-width=".3985" stroke-linecap="butt" stroke-miterlimit="10" stroke-linejoin="miter" fill="none" stroke="#000000" d="M0 0H169.68235"/>
<path transform="matrix(1.00006,0,0,-1.00009,346.45957,171.29334)" stroke-width=".3985" stroke-linecap="round" stroke-linejoin="round" fill="none" stroke="#000000" d="M-2.07224 2.39104C-1.69365 .95639-.84999 .27895 0 0-.84999-.27895-1.69365-.95639-2.07224-2.39104"/>
<path transform="matrix(1.00006,0,0,-1.00009,176.56778,171.29334)" stroke-width=".3985" stroke-linecap="butt" stroke-miterlimit="10" stroke-linejoin="miter" fill="none" stroke="#000000" d="M0 0V169.68235"/>
<path transform="matrix(0,-1.00009,-1.00006,-0,176.56778,1.3964539)" stroke-width=".3985" stroke-linecap="round" stroke-linejoin="round" fill="none" stroke="#000000" d="M-2.07224 2.39104C-1.69365 .95639-.84999 .27895 0 0-.84999-.27895-1.69365-.95639-2.07224-2.39104"/>
<path transform="matrix(1.00006,0,0,-1.00009,176.56778,171.29334)" d="M-17.41486 79.37114-174.52986-124.72618 17.41486-79.37114 174.52986 124.72618-17.41486 79.37114" fill="#f2ccd9" fill-opacity=".5"/>
<path transform="matrix(1.00006,0,0,-1.00009,176.56778,171.29334)" stroke-width=".3985" stroke-linecap="butt" stroke-miterlimit="10" stroke-linejoin="miter" fill="none" stroke="#000000" d="M-17.41486 79.37114-174.52986-124.72618 17.41486-79.37114 174.52986 124.72618-17.41486 79.37114"/>
<path transform="matrix(1.00006,0,0,-1.00009,176.56778,171.29334)" stroke-width=".79701" stroke-linecap="butt" stroke-miterlimit="10" stroke-linejoin="miter" fill="none" stroke="#0000ff" d="M0 0-47.21057-11.15549"/>
<path transform="matrix(-.97319838,.2299507,.22994378,.97322759,128.96656,182.54148)" stroke-width=".79701" stroke-linecap="round" stroke-linejoin="round" fill="none" stroke="#0000ff" d="M-2.55046 3.11095C-2.0845 1.24435-1.04614 .36295 0 0-1.04614-.36295-2.0845-1.24435-2.55046-3.11095"/>
<path transform="matrix(1.00006,0,0,-1.00009,176.56778,171.29334)" stroke-width=".79701" stroke-linecap="butt" stroke-miterlimit="10" stroke-linejoin="miter" fill="none" stroke="#ff0000" d="M0 0 38.79262 50.3928"/>
<path transform="matrix(.6099866,-.7924413,-.7924175,-.6100049,215.60578,120.580219)" stroke-width=".79701" stroke-linecap="round" stroke-linejoin="round" fill="none" stroke="#ff0000" d="M-2.55046 3.11095C-2.0845 1.24435-1.04614 .36295 0 0-1.04614-.36295-2.0845-1.24435-2.55046-3.11095"/>
<path transform="matrix(1.00006,0,0,-1.00009,176.56778,171.29334)" stroke-width=".79701" stroke-linecap="butt" stroke-miterlimit="10" stroke-linejoin="miter" fill="none" stroke="#bf0040" d="M0 0 8.53665-38.90712"/>
<path transform="matrix(.21429284,.9768079,.97677859,-.21429928,185.19034,210.59322)" stroke-width=".79701" stroke-linecap="round" stroke-linejoin="round" fill="none" stroke="#bf0040" d="M-2.55046 3.11095C-2.0845 1.24435-1.04614 .36295 0 0-1.04614-.36295-2.0845-1.24435-2.55046-3.11095"/>
</svg>
