<svg xmlns="http://www.w3.org/2000/svg" xmlns:xlink="http://www.w3.org/1999/xlink" version="1.1" width="219" height="103" viewBox="0 0 219 103">
<defs>
<path id="font_1_2" d="M.3659973 .614624C.375 .6516113 .3789978 .6536102 .41799928 .6536102H.5479889C.6609955 .6536102 .6609955 .5576477 .6609955 .548645 .6609955 .46768189 .5799866 .36471559 .44799806 .36471559H.3039856L.3659973 .614624M.5349884 .35671998C.6439972 .37670899 .7429962 .4526825 .7429962 .5446472 .7429962 .6226196 .673996 .6826172 .5609894 .6826172H.23999024C.22099304 .6826172 .21199036 .6826172 .21199036 .66360476 .21199036 .6536102 .22099304 .6536102 .23599243 .6536102 .29699708 .6536102 .29699708 .6456146 .29699708 .63461306 .29699708 .63261416 .29699708 .62661746 .29299928 .61161807L.1579895 .07395935C.14898682 .038986207 .14698792 .0289917 .07699585 .0289917 .057998659 .0289917 .04798889 .0289917 .04798889 .010986328 .04798889 0 .053985597 0 .07398987 0H.4169922C.56999209 0 .6879883 .11592102 .6879883 .2168274 .6879883 .2987671 .6159973 .34872438 .5349884 .35671998M.3929901 .0289917H.2579956C.24398804 .0289917 .24198914 .0289917 .23599243 .02999878 .22499085 .0309906 .22399903 .032989503 .22399903 .040985109 .22399903 .047973634 .22599793 .053970338 .22799683 .06295776L.2979889 .34472657H.48599244C.60398867 .34472657 .60398867 .2348175 .60398867 .2268219 .60398867 .13090515 .5169983 .0289917 .3929901 .0289917Z"/>
<path id="font_1_1" d="M.16999817 .1111145C.1349945 .05203247 .100997928 .03199768 .052993776 .0289917 .041992189 .027999878 .033996583 .027999878 .033996583 .009994507 .033996583 .0039978029 .038986207 0 .04598999 0 .06399536 0 .10899353 .0019989014 .1269989 .0019989014 .1559906 .0019989014 .18798828 0 .21598816 0 .22200012 0 .23399353 0 .23399353 .018997193 .23399353 .027999878 .22599793 .0289917 .21998596 .0289917 .19699097 .0309906 .17799378 .039001466 .17799378 .06304932 .17799378 .07707214 .18399048 .08808899 .19699097 .11012268L.272995 .23632813H.5279999C.5289917 .22731018 .5289917 .21929932 .5299988 .21028137 .5329895 .18423462 .54499819 .080078128 .54499819 .061050416 .54499819 .0309906 .49398805 .0289917 .47799684 .0289917 .46699525 .0289917 .45599366 .0289917 .45599366 .010986328 .45599366 0 .46499635 0 .47099305 0 .48799134 0 .5079956 .0019989014 .5249939 .0019989014H.58200076C.6429901 .0019989014 .68699648 0 .6879883 0 .69499209 0 .70599368 0 .70599368 .018997193 .70599368 .0289917 .69699099 .0289917 .6819916 .0289917 .6269989 .0289917 .6259918 .038009645 .6230011 .0680542L.56199648 .691864C.55999758 .711853 .55599978 .7138672 .54499819 .7138672 .5349884 .7138672 .5289917 .711853 .519989 .69685366L.16999817 .1111145M.2899933 .26531983 .4909973 .6009674 .5249939 .26531983H.2899933Z"/>
</defs>
<path transform="matrix(1.00002,0,0,-1.00003,1.8304367,58.600736)" d="M0 0H14.39995V14.39995H0V0" fill="#ff0000"/>
<path transform="matrix(1.00002,0,0,-1.00003,1.8304367,58.600736)" stroke-width=".79701" stroke-linecap="butt" stroke-miterlimit="10" stroke-linejoin="miter" fill="none" stroke="#000000" d="M28.7999 14.39995C33.6631 17.2077 38.33664 17.2077 42.50963 14.79843"/>
<path transform="matrix(.86602738,.49999503,.49999003,-.866036,44.686048,44.001115)" stroke-width=".79701" stroke-linecap="round" stroke-linejoin="round" fill="none" stroke="#000000" d="M-2.55046 3.11095C-2.0845 1.24435-1.04614 .36295 0 0-1.04614-.36295-2.0845-1.24435-2.55046-3.11095"/>
<use data-text="B" xlink:href="#font_1_2" transform="matrix(11.95544,0,0,-11.95556,33.08306,37.711107)"/>
<path transform="matrix(1.00002,0,0,-1.00003,1.8304367,58.600736)" d="M43.19984-14.39995 71.99976 0 86.3997 28.7999 57.59981 14.39995 43.19984-14.39995" fill="#bf0040"/>
<path transform="matrix(1.00002,0,0,-1.00003,1.8304367,58.600736)" stroke-width=".79701" stroke-linecap="butt" stroke-miterlimit="10" stroke-linejoin="miter" fill="none" stroke="#000000" d="M93.59969 14.39995C98.46289 17.2077 103.13643 17.2077 107.30942 14.79843"/>
<path transform="matrix(.86602738,.49999503,.49999003,-.866036,109.48714,44.001115)" stroke-width=".79701" stroke-linecap="round" stroke-linejoin="round" fill="none" stroke="#000000" d="M-2.55046 3.11095C-2.0845 1.24435-1.04614 .36295 0 0-1.04614-.36295-2.0845-1.24435-2.55046-3.11095"/>
<use data-text="A" xlink:href="#font_1_1" transform="matrix(11.95544,0,0,-11.95556,98.24437,37.711107)"/>
<path transform="matrix(1.00002,0,0,-1.00003,1.8304367,58.600736)" d="M172.79943-43.19984 115.19962 28.7999 158.39948 57.59981 215.99929-14.39995 172.79943-43.19984" fill="#0000ff"/>
</svg>
