<svg xmlns="http://www.w3.org/2000/svg" xmlns:xlink="http://www.w3.org/1999/xlink" version="1.1" width="258" height="229" viewBox="0 0 258 229">
<defs>
<path id="font_1_1" d="M.3659973 .614624C.375 .6516113 .3789978 .6536102 .41799928 .6536102H.5479889C.6609955 .6536102 .6609955 .5576477 .6609955 .548645 .6609955 .46768189 .5799866 .36471559 .44799806 .36471559H.3039856L.3659973 .614624M.5349884 .35671998C.6439972 .37670899 .7429962 .4526825 .7429962 .5446472 .7429962 .6226196 .673996 .6826172 .5609894 .6826172H.23999024C.22099304 .6826172 .21199036 .6826172 .21199036 .66360476 .21199036 .6536102 .22099304 .6536102 .23599243 .6536102 .29699708 .6536102 .29699708 .6456146 .29699708 .63461306 .29699708 .63261416 .29699708 .62661746 .29299928 .61161807L.1579895 .07395935C.14898682 .038986207 .14698792 .0289917 .07699585 .0289917 .057998659 .0289917 .04798889 .0289917 .04798889 .010986328 .04798889 0 .053985597 0 .07398987 0H.4169922C.56999209 0 .6879883 .11592102 .6879883 .2168274 .6879883 .2987671 .6159973 .34872438 .5349884 .35671998M.3929901 .0289917H.2579956C.24398804 .0289917 .24198914 .0289917 .23599243 .02999878 .22499085 .0309906 .22399903 .032989503 .22399903 .040985109 .22399903 .047973634 .22599793 .053970338 .22799683 .06295776L.2979889 .34472657H.48599244C.60398867 .34472657 .60398867 .2348175 .60398867 .2268219 .60398867 .13090515 .5169983 .0289917 .3929901 .0289917Z"/>
<path id="font_2_1" d="M.25-2.3587189H.5130005V-2.303711H.30499269V-.0146484379H.5130005V.04034424H.25V-2.3587189Z"/>
<path id="font_3_2" d="M.28799439 .64105227C.28799439 .664032 .28799439 .66503909 .2679901 .66503909 .24398804 .6380615 .19400025 .6012573 .09098816 .6012573V.5722656C.11399841 .5722656 .1639862 .5722656 .21899414 .59825137V.07701111C.21899414 .041000368 .21598816 .0289917 .12799073 .0289917H.09700012V0C.12399292 .0019989014 .22099304 .0019989014 .2539978 .0019989014 .2869873 .0019989014 .3829956 .0019989014 .4099884 0V.0289917H.3789978C.29100038 .0289917 .28799439 .041000368 .28799439 .07701111V.64105227Z"/>
<path id="font_3_1" d="M.44799806 .31976319C.44799806 .40283204 .44299317 .48390199 .40699769 .55996707 .3659973 .64302065 .2939911 .66503909 .24499512 .66503909 .18699646 .66503909 .115997318 .63601687 .07899475 .552948 .050994874 .48989869 .040985109 .42785646 .040985109 .31976319 .040985109 .22268677 .04798889 .14962769 .083999637 .078567508 .12298584 .0025177003 .19198609-.021484375 .24398804-.021484375 .33099366-.021484375 .3809967 .030532837 .4099884 .08857727 .44599916 .16363526 .44799806 .26171876 .44799806 .31976319M.24398804-.0014953613C.21199036-.0014953613 .14698792 .016525269 .12799073 .12561035 .116989139 .18565369 .116989139 .26171876 .116989139 .33177186 .116989139 .41384889 .116989139 .48789979 .1329956 .5469513 .1499939 .6139984 .20098877 .6450348 .24398804 .6450348 .28199769 .6450348 .33999635 .6220093 .35899354 .53593447 .37199403 .4788971 .37199403 .39982606 .37199403 .33177186 .37199403 .26472474 .37199403 .18865967 .36099244 .12760926 .34199525 .01751709 .2789917-.0014953613 .24398804-.0014953613Z"/>
<path id="font_2_2" d="M.22200012-2.303711H.01399231V-2.3587189H.2769928V.04034424H.01399231V-.0146484379H.22200012V-2.303711Z"/>
<path id="font_3_5" d="M.6749878 .32421876C.68899539 .32421876 .70700076 .32421876 .70700076 .34220887 .70700076 .36120606 .6899872 .36120606 .6749878 .36120606H.085998538C.07199097 .36120606 .053985597 .36120606 .053985597 .34321595 .053985597 .32421876 .070999149 .32421876 .085998538 .32421876H.6749878M.6749878 .13780213C.68899539 .13780213 .70700076 .13780213 .70700076 .15579224 .70700076 .17480469 .6899872 .17480469 .6749878 .17480469H.085998538C.07199097 .17480469 .053985597 .17480469 .053985597 .15679932 .053985597 .13780213 .070999149 .13780213 .085998538 .13780213H.6749878Z"/>
<path id="font_3_3" d="M.43998719 .16790772H.41799928C.4149933 .15092469 .40699769 .09597778 .39698792 .07998657 .3899994 .070999149 .33299256 .070999149 .30299378 .070999149H.117996219C.14498902 .09397888 .20599365 .15792847 .23199463 .18190003 .38398744 .3217926 .43998719 .37374879 .43998719 .47270204 .43998719 .5878906 .34899903 .66503909 .23298645 .66503909 .116989139 .66503909 .04899597 .5658264 .04899597 .4797058 .04899597 .42871095 .09298706 .42871095 .09599304 .42871095 .116989139 .42871095 .14299011 .44371034 .14299011 .475708 .14299011 .5037079 .12399292 .5227051 .09599304 .5227051 .08699036 .5227051 .084991458 .5227051 .08198547 .521698 .100997928 .5899048 .15499878 .6360321 .21998596 .6360321 .30499269 .6360321 .35699464 .56481936 .35699464 .47270204 .35699464 .3877411 .30799867 .313797 .25099183 .24984741L.04899597 .023986817V0H.4139862L.43998719 .16790772Z"/>
<path id="font_4_3" d="M.25299073 .33370973C.33198548 .33370973 .38198854 .27557374 .38198854 .17037964 .38198854 .045440675 .31098939 .008514404 .2579956 .008514404 .20298767 .008514404 .12799073 .0284729 .09298706 .08137512 .1289978 .08137512 .1539917 .10437012 .1539917 .13737488 .1539917 .16937256 .1309967 .19238281 .09899902 .19238281 .07199097 .19238281 .04399109 .17536927 .04399109 .13537598 .04399109 .04045105 .1459961-.021484375 .2599945-.021484375 .3929901-.021484375 .48599244 .070388797 .48599244 .17037964 .48599244 .25352479 .41999818 .32969667 .31799317 .3517456 .39698792 .37982179 .45599366 .4479828 .45599366 .52804568 .45599366 .6080475 .3659973 .66503909 .2619934 .66503909 .15499878 .66503909 .07398987 .6070404 .07398987 .53105166 .07398987 .49404908 .09899902 .4780426 .125 .4780426 .1559906 .4780426 .17599488 .5000458 .17599488 .52905276 .17599488 .56604006 .14399719 .5800476 .12199402 .5810547 .1639862 .6360321 .24099732 .6390381 .25898744 .6390381 .2849884 .6390381 .36099244 .6310272 .36099244 .52804568 .36099244 .45799256 .33198548 .41589356 .31799317 .39985658 .28799439 .36878968 .2649994 .36679078 .20399475 .3627777 .18499756 .36177064 .1769867 .36076356 .1769867 .3477478 .1769867 .33370973 .18598938 .33370973 .20298767 .33370973H.25299073Z"/>
<path id="font_4_4" d="M.3939972 .6468048C.3939972 .6667938 .3939972 .6748047 .37298585 .6748047 .3600006 .6748047 .35899354 .6737976 .34899903 .65979006L.02999878 .197052V.1640625H.31199647V.08100891C.31199647 .04399109 .30899049 .032989503 .23199463 .032989503H.20899964V0C.2939911 .0029907227 .29599 .0029907227 .35299684 .0029907227 .4099884 .0029907227 .4119873 .0029907227 .49699403 0V.032989503H.47399903C.39698792 .032989503 .3939972 .04399109 .3939972 .08100891V.1640625H.5V.197052H.3939972V.6468048M.31900025 .5658417V.197052H.06498718L.31900025 .5658417Z"/>
<path id="font_4_1" d="M.31399537 .63708499C.31399537 .664032 .31199647 .66503909 .2849884 .66503909 .24398804 .6251831 .19099427 .6013489 .09599304 .6013489V.5683594C.12298584 .5683594 .1769867 .5683594 .23498535 .5953522V.08203125C.23498535 .04499817 .23199463 .032989503 .13699341 .032989503H.101989749V0C.14299011 .0029907227 .22898865 .0029907227 .27398683 .0029907227 .31900025 .0029907227 .4059906 .0029907227 .44699098 0V.032989503H.4119873C.31698609 .032989503 .31399537 .04499817 .31399537 .08203125V.63708499Z"/>
<path id="font_4_2" d="M.28199769 .20405579C.2979889 .21907044 .33999635 .2520752 .35598756 .26608277 .41799928 .32312013 .47698976 .3781433 .47698976 .46917726 .47698976 .588089 .3769989 .66503909 .2519989 .66503909 .13198853 .66503909 .052993776 .57411196 .052993776 .48516847 .052993776 .4361725 .09199524 .4291687 .10598755 .4291687 .1269989 .4291687 .1579895 .4441681 .1579895 .48217774 .1579895 .5341797 .10798645 .5341797 .09599304 .5341797 .125 .6070709 .19198609 .6320343 .24099732 .6320343 .33399964 .6320343 .38198854 .55314639 .38198854 .46917726 .38198854 .36514283 .30899049 .28910829 .19099427 .16804505L.06498718 .037994386C.052993776 .026992798 .052993776 .024993897 .052993776 0H.44799806L.47698976 .17904663H.44599916C.44299317 .1590271 .43499757 .10900879 .4229889 .08999634 .4169922 .08198547 .34098817 .08198547 .32499696 .08198547H.14698792L.28199769 .20405579Z"/>
<path id="font_3_4" d="M.36099244 .6508026C.36099244 .6697998 .36099244 .6748047 .34700013 .6748047 .33898927 .6748047 .33599855 .6748047 .32798768 .662796L.026992798 .19598389V.16699219H.2899933V.07598877C.2899933 .038986207 .28799439 .0289917 .21499634 .0289917H.19499207V0C.21798706 .0019989014 .29699708 .0019989014 .32499696 .0019989014 .35299684 .0019989014 .43299867 .0019989014 .45599366 0V.0289917H.43598939C.3639984 .0289917 .36099244 .038986207 .36099244 .07598877V.16699219H.46199037V.19598389H.36099244V.6508026M.29499818 .5728302V.19598389H.051986696L.29499818 .5728302Z"/>
</defs>
<path transform="matrix(1.00006,0,0,-1.00002,114.42211,114.58527)" d="M0 0H28.3468L49.6069 14.17339H21.2601L0 0" fill="#ff8080"/>
<path transform="matrix(1.00006,0,0,-1.00002,114.42211,114.58527)" stroke-width=".3985" stroke-linecap="butt" stroke-miterlimit="10" stroke-linejoin="miter" fill="none" stroke="#929292" d="M-112.98872 0H112.98872"/>
<path transform="matrix(-1.00006,-0,0,1.00002,1.2273483,114.58527)" stroke-width=".3985" stroke-linecap="round" stroke-linejoin="round" fill="none" stroke="#929292" d="M-2.07224 2.39104C-1.69365 .95639-.84999 .27895 0 0-.84999-.27895-1.69365-.95639-2.07224-2.39104"/>
<path transform="matrix(1.00006,0,0,-1.00002,227.61688,114.58527)" stroke-width=".3985" stroke-linecap="round" stroke-linejoin="round" fill="none" stroke="#929292" d="M-2.07224 2.39104C-1.69365 .95639-.84999 .27895 0 0-.84999-.27895-1.69365-.95639-2.07224-2.39104"/>
<path transform="matrix(1.00006,0,0,-1.00002,114.42211,114.58527)" stroke-width=".3985" stroke-linecap="butt" stroke-miterlimit="10" stroke-linejoin="miter" fill="none" stroke="#929292" d="M0-112.98872V112.98872"/>
<path transform="matrix(0,1.00002,1.00006,0,114.42211,227.77552)" stroke-width=".3985" stroke-linecap="round" stroke-linejoin="round" fill="none" stroke="#929292" d="M-2.07224 2.39104C-1.69365 .95639-.84999 .27895 0 0-.84999-.27895-1.69365-.95639-2.07224-2.39104"/>
<path transform="matrix(0,-1.00002,-1.00006,-0,114.42211,1.3950348)" stroke-width=".3985" stroke-linecap="round" stroke-linejoin="round" fill="none" stroke="#929292" d="M-2.07224 2.39104C-1.69365 .95639-.84999 .27895 0 0-.84999-.27895-1.69365-.95639-2.07224-2.39104"/>
<path transform="matrix(1.00006,0,0,-1.00002,114.42211,114.58527)" stroke-width=".79701" stroke-linecap="butt" stroke-miterlimit="10" stroke-linejoin="miter" fill="none" stroke="#0000ff" d="M0 0H55.8966"/>
<path transform="matrix(1.00006,0,0,-1.00002,170.72058,114.58527)" stroke-width=".79701" stroke-linecap="round" stroke-linejoin="round" fill="none" stroke="#0000ff" d="M-2.55046 3.11095C-2.0845 1.24435-1.04614 .36295 0 0-1.04614-.36295-2.0845-1.24435-2.55046-3.11095"/>
<use data-text="B" xlink:href="#font_1_1" transform="matrix(11.955917,0,0,-11.95544,96.79205,136.40372)" fill="#0000ff"/>
<use data-text="[" xlink:href="#font_2_1" transform="matrix(11.955917,0,0,-11.95544,108.28174,119.54737)" fill="#0000ff"/>
<use data-text="1" xlink:href="#font_3_2" transform="matrix(11.955917,0,0,-11.95544,119.573429,129.08156)" fill="#0000ff"/>
<use data-text="0" xlink:href="#font_3_1" transform="matrix(11.955917,0,0,-11.95544,119.573429,143.52785)" fill="#0000ff"/>
<use data-text="]" xlink:href="#font_2_2" transform="matrix(11.955917,0,0,-11.95544,130.40807,119.54737)" fill="#0000ff"/>
<use data-text="=" xlink:href="#font_3_5" transform="matrix(11.955917,0,0,-11.95544,140.03964,136.40372)" fill="#0000ff"/>
<use data-text="2" xlink:href="#font_3_3" transform="matrix(11.955917,0,0,-11.95544,152.46184,136.40372)" fill="#0000ff"/>
<use data-text="[" xlink:href="#font_2_1" transform="matrix(11.955917,0,0,-11.95544,160.31186,119.54737)" fill="#0000ff"/>
<use data-text="1" xlink:href="#font_3_2" transform="matrix(11.955917,0,0,-11.95544,171.60353,129.08156)" fill="#0000ff"/>
<use data-text="0" xlink:href="#font_3_1" transform="matrix(11.955917,0,0,-11.95544,171.60353,143.52785)" fill="#0000ff"/>
<use data-text="]" xlink:href="#font_2_2" transform="matrix(11.955917,0,0,-11.95544,182.43819,119.54737)" fill="#0000ff"/>
<path transform="matrix(1.00006,0,0,-1.00002,114.42211,114.58527)" stroke-width=".79701" stroke-linecap="butt" stroke-miterlimit="10" stroke-linejoin="miter" fill="none" stroke="#0000ff" d="M0 0 84.3773 56.25154"/>
<path transform="matrix(.8320699,-.55468109,-.55470326,-.8320367,199.13605,58.111566)" stroke-width=".79701" stroke-linecap="round" stroke-linejoin="round" fill="none" stroke="#0000ff" d="M-2.55046 3.11095C-2.0845 1.24435-1.04614 .36295 0 0-1.04614-.36295-2.0845-1.24435-2.55046-3.11095"/>
<use data-text="B" xlink:href="#font_1_1" transform="matrix(11.955917,0,0,-11.95544,152.7164,42.049829)" fill="#0000ff"/>
<use data-text="[" xlink:href="#font_2_1" transform="matrix(11.955917,0,0,-11.95544,164.20609,25.19349)" fill="#0000ff"/>
<use data-text="3" xlink:href="#font_4_3" transform="matrix(7.9705779,0,0,-7.9702599,176.69284,30.020592)" fill="#0000ff"/>
<path transform="matrix(1.00006,0,0,-1.00002,17.293297,-71.54044)" stroke-width=".4782" stroke-linecap="butt" stroke-miterlimit="10" stroke-linejoin="miter" fill="none" stroke="#0000ff" d="M159.39-103.277H163.625"/>
<use data-text="4" xlink:href="#font_4_4" transform="matrix(7.9705779,0,0,-7.9702599,176.69284,38.85077)" fill="#0000ff"/>
<use data-text="1" xlink:href="#font_4_1" transform="matrix(7.9705779,0,0,-7.9702599,176.69284,44.46688)" fill="#0000ff"/>
<path transform="matrix(1.00006,0,0,-1.00002,17.293297,-71.54044)" stroke-width=".4782" stroke-linecap="butt" stroke-miterlimit="10" stroke-linejoin="miter" fill="none" stroke="#0000ff" d="M159.39-117.723H163.625"/>
<use data-text="2" xlink:href="#font_4_2" transform="matrix(7.9705779,0,0,-7.9702599,176.69284,53.29606)" fill="#0000ff"/>
<use data-text="]" xlink:href="#font_2_2" transform="matrix(11.955917,0,0,-11.95544,187.10446,25.193497)" fill="#0000ff"/>
<use data-text="=" xlink:href="#font_3_5" transform="matrix(11.955917,0,0,-11.95544,196.73606,42.049837)" fill="#0000ff"/>
<use data-text="4" xlink:href="#font_3_4" transform="matrix(11.955917,0,0,-11.95544,209.15824,42.049837)" fill="#0000ff"/>
<use data-text="[" xlink:href="#font_2_1" transform="matrix(11.955917,0,0,-11.95544,217.00827,25.193497)" fill="#0000ff"/>
<use data-text="3" xlink:href="#font_4_3" transform="matrix(7.9705779,0,0,-7.9702599,229.496,30.0206)" fill="#0000ff"/>
<path transform="matrix(1.00006,0,0,-1.00002,17.293297,-71.54044)" stroke-width=".4782" stroke-linecap="butt" stroke-miterlimit="10" stroke-linejoin="miter" fill="none" stroke="#0000ff" d="M212.19-103.277H216.424"/>
<use data-text="4" xlink:href="#font_4_4" transform="matrix(7.9705779,0,0,-7.9702599,229.49604,38.85077)" fill="#0000ff"/>
<use data-text="1" xlink:href="#font_4_1" transform="matrix(7.9705779,0,0,-7.9702599,229.49503,44.46688)" fill="#0000ff"/>
<path transform="matrix(1.00006,0,0,-1.00002,17.293297,-71.54044)" stroke-width=".4782" stroke-linecap="butt" stroke-miterlimit="10" stroke-linejoin="miter" fill="none" stroke="#0000ff" d="M212.19-117.723H216.424"/>
<use data-text="2" xlink:href="#font_4_2" transform="matrix(7.9705779,0,0,-7.9702599,229.49604,53.29606)" fill="#0000ff"/>
<use data-text="]" xlink:href="#font_2_2" transform="matrix(11.955917,0,0,-11.95544,239.90766,25.193497)" fill="#0000ff"/>
<path transform="matrix(1.00006,0,0,-1.00002,114.42211,114.58527)" stroke-width=".79701" stroke-linecap="butt" stroke-miterlimit="10" stroke-linejoin="miter" fill="none" stroke="#ff0000" d="M0 0H27.54979"/>
<path transform="matrix(1.00006,0,0,-1.00002,142.37209,114.58527)" stroke-width=".79701" stroke-linecap="round" stroke-linejoin="round" fill="none" stroke="#ff0000" d="M-2.55046 3.11095C-2.0845 1.24435-1.04614 .36295 0 0-1.04614-.36295-2.0845-1.24435-2.55046-3.11095"/>
<path transform="matrix(1.00006,0,0,-1.00002,114.42211,114.58527)" stroke-width=".79701" stroke-linecap="butt" stroke-miterlimit="10" stroke-linejoin="miter" fill="none" stroke="#ff0000" d="M0 0 20.59698 13.73134"/>
<path transform="matrix(.8320699,-.5546711,-.5546933,-.8320367,135.3519,100.632648)" stroke-width=".79701" stroke-linecap="round" stroke-linejoin="round" fill="none" stroke="#ff0000" d="M-2.55046 3.11095C-2.0845 1.24435-1.04614 .36295 0 0-1.04614-.36295-2.0845-1.24435-2.55046-3.11095"/>
<path transform="matrix(1.00006,0,0,-1.00002,114.42211,114.58527)" stroke-width=".3985" stroke-linecap="butt" stroke-dasharray="2.98883,2.98883" stroke-miterlimit="10" stroke-linejoin="miter" fill="none" stroke="#ff0000" d="M28.3468 0 49.6069 14.17339H21.2601"/>
<path transform="matrix(1.00006,0,0,-1.00002,114.42211,114.58527)" stroke-width=".3985" stroke-linecap="butt" stroke-dasharray="2.98883,2.98883" stroke-miterlimit="10" stroke-linejoin="miter" fill="none" stroke="#0000ff" d="M56.69362 0 141.73404 56.69362H85.04042"/>
</svg>
