<svg xmlns="http://www.w3.org/2000/svg" xmlns:xlink="http://www.w3.org/1999/xlink" version="1.1" width="146" height="121" viewBox="0 0 146 121">
<defs>
<path id="font_1_2" d="M.5349884 .5967865C.522995 .5857849 .48599244 .55078127 .48599244 .5367737 .48599244 .5267792 .49499513 .5177765 .5049896 .5177765 .5139923 .5177765 .5179901 .52378848 .5249939 .53378298 .548996 .56378176 .57598879 .58277896 .598999 .5957794 .60899356 .6017761 .6159973 .6047821 .6159973 .6157837 .6159973 .6247864 .60798647 .629776 .60198977 .6347809 .57398989 .6537781 .5669861 .68078616 .56399539 .69277957 .5609894 .70077517 .55799868 .7127838 .5439911 .7127838 .5379944 .7127838 .526001 .708786 .526001 .6937866 .526001 .68478396 .5319977 .66078189 .5509949 .63378909H.21499634C.19799805 .63378909 .18099976 .63378909 .18099976 .6147766 .18099976 .5967865 .19898987 .5967865 .21499634 .5967865H.5349884Z"/>
<path id="font_1_1" d="M.1789856 .23242188C.20599365 .23242188 .27398683 .23442078 .32199098 .2524109 .397995 .28141786 .40499879 .33940126 .40499879 .35740663 .40499879 .4013977 .36698915 .44140626 .30099488 .44140626 .19599915 .44140626 .04499817 .34640504 .04499817 .16836548 .04499817 .0632782 .10499573-.009765625 .19599915-.009765625 .33198548-.009765625 .41799928 .09629822 .41799928 .109313968 .41799928 .11531067 .4119873 .12031555 .4079895 .12031555 .40499879 .12031555 .4039917 .11932373 .394989 .110305789 .33099366 .025238038 .23599243 .010223389 .19799805 .010223389 .14099121 .010223389 .11099243 .055267335 .11099243 .1293335 .11099243 .14334107 .11099243 .16836548 .12599182 .23242188H.1789856M.1309967 .2524109C.17399597 .4064026 .2689972 .42140199 .30099488 .42140199 .34498597 .42140199 .375 .395401 .375 .35740663 .375 .2524109 .21499634 .2524109 .17298889 .2524109H.1309967Z"/>
<path id="font_2_1" d="M.31399537 .63708499C.31399537 .664032 .31199647 .66503909 .2849884 .66503909 .24398804 .6251831 .19099427 .6013489 .09599304 .6013489V.5683594C.12298584 .5683594 .1769867 .5683594 .23498535 .5953522V.08203125C.23498535 .04499817 .23199463 .032989503 .13699341 .032989503H.101989749V0C.14299011 .0029907227 .22898865 .0029907227 .27398683 .0029907227 .31900025 .0029907227 .4059906 .0029907227 .44699098 0V.032989503H.4119873C.31698609 .032989503 .31399537 .04499817 .31399537 .08203125V.63708499Z"/>
<path id="font_3_3" d="M.6749878 .32421876C.68899539 .32421876 .70700076 .32421876 .70700076 .34220887 .70700076 .36120606 .6899872 .36120606 .6749878 .36120606H.085998538C.07199097 .36120606 .053985597 .36120606 .053985597 .34321595 .053985597 .32421876 .070999149 .32421876 .085998538 .32421876H.6749878M.6749878 .13780213C.68899539 .13780213 .70700076 .13780213 .70700076 .15579224 .70700076 .17480469 .6899872 .17480469 .6749878 .17480469H.085998538C.07199097 .17480469 .053985597 .17480469 .053985597 .15679932 .053985597 .13780213 .070999149 .13780213 .085998538 .13780213H.6749878Z"/>
<path id="font_4_1" d="M.25-2.3587189H.5130005V-2.303711H.30499269V-.0146484379H.5130005V.04034424H.25V-2.3587189Z"/>
<path id="font_3_2" d="M.28799439 .64105227C.28799439 .664032 .28799439 .66503909 .2679901 .66503909 .24398804 .6380615 .19400025 .6012573 .09098816 .6012573V.5722656C.11399841 .5722656 .1639862 .5722656 .21899414 .59825137V.07701111C.21899414 .041000368 .21598816 .0289917 .12799073 .0289917H.09700012V0C.12399292 .0019989014 .22099304 .0019989014 .2539978 .0019989014 .2869873 .0019989014 .3829956 .0019989014 .4099884 0V.0289917H.3789978C.29100038 .0289917 .28799439 .041000368 .28799439 .07701111V.64105227Z"/>
<path id="font_3_1" d="M.44799806 .31976319C.44799806 .40283204 .44299317 .48390199 .40699769 .55996707 .3659973 .64302065 .2939911 .66503909 .24499512 .66503909 .18699646 .66503909 .115997318 .63601687 .07899475 .552948 .050994874 .48989869 .040985109 .42785646 .040985109 .31976319 .040985109 .22268677 .04798889 .14962769 .083999637 .078567508 .12298584 .0025177003 .19198609-.021484375 .24398804-.021484375 .33099366-.021484375 .3809967 .030532837 .4099884 .08857727 .44599916 .16363526 .44799806 .26171876 .44799806 .31976319M.24398804-.0014953613C.21199036-.0014953613 .14698792 .016525269 .12799073 .12561035 .116989139 .18565369 .116989139 .26171876 .116989139 .33177186 .116989139 .41384889 .116989139 .48789979 .1329956 .5469513 .1499939 .6139984 .20098877 .6450348 .24398804 .6450348 .28199769 .6450348 .33999635 .6220093 .35899354 .53593447 .37199403 .4788971 .37199403 .39982606 .37199403 .33177186 .37199403 .26472474 .37199403 .18865967 .36099244 .12760926 .34199525 .01751709 .2789917-.0014953613 .24398804-.0014953613Z"/>
<path id="font_4_2" d="M.22200012-2.303711H.01399231V-2.3587189H.2769928V.04034424H.01399231V-.0146484379H.22200012V-2.303711Z"/>
<path id="font_2_2" d="M.28199769 .20405579C.2979889 .21907044 .33999635 .2520752 .35598756 .26608277 .41799928 .32312013 .47698976 .3781433 .47698976 .46917726 .47698976 .588089 .3769989 .66503909 .2519989 .66503909 .13198853 .66503909 .052993776 .57411196 .052993776 .48516847 .052993776 .4361725 .09199524 .4291687 .10598755 .4291687 .1269989 .4291687 .1579895 .4441681 .1579895 .48217774 .1579895 .5341797 .10798645 .5341797 .09599304 .5341797 .125 .6070709 .19198609 .6320343 .24099732 .6320343 .33399964 .6320343 .38198854 .55314639 .38198854 .46917726 .38198854 .36514283 .30899049 .28910829 .19099427 .16804505L.06498718 .037994386C.052993776 .026992798 .052993776 .024993897 .052993776 0H.44799806L.47698976 .17904663H.44599916C.44299317 .1590271 .43499757 .10900879 .4229889 .08999634 .4169922 .08198547 .34098817 .08198547 .32499696 .08198547H.14698792L.28199769 .20405579Z"/>
</defs>
<path transform="matrix(1.00006,0,0,-1.00003,59.54107,86.24056)" d="M0 0V28.3468H28.3468V0ZM28.3468 28.3468" fill="#ff8080"/>
<path transform="matrix(1.00006,0,0,-1.00003,59.54107,86.24056)" stroke-width=".3985" stroke-linecap="butt" stroke-miterlimit="10" stroke-linejoin="miter" fill="none" stroke="#929292" d="M-27.9483 0H84.64192"/>
<path transform="matrix(-1.00006,-0,0,1.00003,31.39183,86.24056)" stroke-width=".3985" stroke-linecap="round" stroke-linejoin="round" fill="none" stroke="#929292" d="M-2.07224 2.39104C-1.69365 .95639-.84999 .27895 0 0-.84999-.27895-1.69365-.95639-2.07224-2.39104"/>
<path transform="matrix(1.00006,0,0,-1.00003,144.38733,86.24056)" stroke-width=".3985" stroke-linecap="round" stroke-linejoin="round" fill="none" stroke="#929292" d="M-2.07224 2.39104C-1.69365 .95639-.84999 .27895 0 0-.84999-.27895-1.69365-.95639-2.07224-2.39104"/>
<path transform="matrix(1.00006,0,0,-1.00003,59.54107,86.24056)" stroke-width=".3985" stroke-linecap="butt" stroke-miterlimit="10" stroke-linejoin="miter" fill="none" stroke="#929292" d="M0-27.9483V84.64192"/>
<path transform="matrix(0,1.00003,1.00006,0,59.54107,114.38896)" stroke-width=".3985" stroke-linecap="round" stroke-linejoin="round" fill="none" stroke="#929292" d="M-2.07224 2.39104C-1.69365 .95639-.84999 .27895 0 0-.84999-.27895-1.69365-.95639-2.07224-2.39104"/>
<path transform="matrix(0,-1.00003,-1.00006,-0,59.54107,1.396843)" stroke-width=".3985" stroke-linecap="round" stroke-linejoin="round" fill="none" stroke="#929292" d="M-2.07224 2.39104C-1.69365 .95639-.84999 .27895 0 0-.84999-.27895-1.69365-.95639-2.07224-2.39104"/>
<path transform="matrix(1.00006,0,0,-1.00003,59.54107,86.24056)" stroke-width=".79701" stroke-linecap="butt" stroke-miterlimit="10" stroke-linejoin="miter" fill="none" stroke="#0000ff" d="M0 0H27.54979"/>
<path transform="matrix(1.00006,0,0,-1.00003,87.49104,86.24056)" stroke-width=".79701" stroke-linecap="round" stroke-linejoin="round" fill="none" stroke="#0000ff" d="M-2.55046 3.11095C-2.0845 1.24435-1.04614 .36295 0 0-1.04614-.36295-2.0845-1.24435-2.55046-3.11095"/>
<use data-text="&#x20d7;" xlink:href="#font_1_2" transform="matrix(11.955917,0,0,-11.95556,46.061265,108.05922)" fill="#0000ff"/>
<use data-text="e" xlink:href="#font_1_1" transform="matrix(11.955917,0,0,-11.95556,46.551454,108.05922)" fill="#0000ff"/>
<use data-text="1" xlink:href="#font_2_1" transform="matrix(7.9705779,0,0,-7.9703395,51.969614,109.85327)" fill="#0000ff"/>
<use data-text="=" xlink:href="#font_3_3" transform="matrix(11.955917,0,0,-11.95556,60.024095,108.05922)" fill="#0000ff"/>
<use data-text="[" xlink:href="#font_4_1" transform="matrix(11.955917,0,0,-11.95556,72.449848,91.201709)" fill="#0000ff"/>
<use data-text="1" xlink:href="#font_3_2" transform="matrix(11.955917,0,0,-11.95556,83.74152,100.737)" fill="#0000ff"/>
<use data-text="0" xlink:href="#font_3_1" transform="matrix(11.955917,0,0,-11.95556,83.74152,115.18343)" fill="#0000ff"/>
<use data-text="]" xlink:href="#font_4_2" transform="matrix(11.955917,0,0,-11.95556,94.57618,91.201709)" fill="#0000ff"/>
<path transform="matrix(1.00006,0,0,-1.00003,59.54107,86.24056)" stroke-width=".79701" stroke-linecap="butt" stroke-miterlimit="10" stroke-linejoin="miter" fill="none" stroke="#0000ff" d="M0 0V27.54979"/>
<path transform="matrix(0,-1.00003,-1.00006,-0,59.54107,58.291425)" stroke-width=".79701" stroke-linecap="round" stroke-linejoin="round" fill="none" stroke="#0000ff" d="M-2.55046 3.11095C-2.0845 1.24435-1.04614 .36295 0 0-1.04614-.36295-2.0845-1.24435-2.55046-3.11095"/>
<use data-text="&#x20d7;" xlink:href="#font_1_2" transform="matrix(11.955917,0,0,-11.95556,.33152009,75.05523)" fill="#0000ff"/>
<use data-text="e" xlink:href="#font_1_1" transform="matrix(11.955917,0,0,-11.95556,.8217087,75.05523)" fill="#0000ff"/>
<use data-text="2" xlink:href="#font_2_2" transform="matrix(7.9705779,0,0,-7.9703395,6.239868,76.84928)" fill="#0000ff"/>
<use data-text="=" xlink:href="#font_3_3" transform="matrix(11.955917,0,0,-11.95556,14.29435,75.05523)" fill="#0000ff"/>
<use data-text="[" xlink:href="#font_4_1" transform="matrix(11.955917,0,0,-11.95556,26.7201,58.197713)" fill="#0000ff"/>
<use data-text="0" xlink:href="#font_3_1" transform="matrix(11.955917,0,0,-11.95556,38.01178,67.73301)" fill="#0000ff"/>
<use data-text="1" xlink:href="#font_3_2" transform="matrix(11.955917,0,0,-11.95556,38.01178,82.17944)" fill="#0000ff"/>
<use data-text="]" xlink:href="#font_4_2" transform="matrix(11.955917,0,0,-11.95556,48.846437,58.197713)" fill="#0000ff"/>
<path transform="matrix(1.00006,0,0,-1.00003,59.54107,86.24056)" stroke-width=".3985" stroke-linecap="butt" stroke-dasharray="2.98883,2.98883" stroke-miterlimit="10" stroke-linejoin="miter" fill="none" stroke="#0000ff" d="M28.3468 0V28.3468"/>
<path transform="matrix(1.00006,0,0,-1.00003,59.54107,86.24056)" stroke-width=".3985" stroke-linecap="butt" stroke-dasharray="2.98883,2.98883" stroke-miterlimit="10" stroke-linejoin="miter" fill="none" stroke="#0000ff" d="M0 28.3468H28.3468"/>
</svg>
