<svg xmlns="http://www.w3.org/2000/svg" xmlns:xlink="http://www.w3.org/1999/xlink" version="1.1" width="257" height="262" viewBox="0 0 257 262">
<defs>
<path id="font_1_1" d="M.3659973 .614624C.375 .6516113 .3789978 .6536102 .41799928 .6536102H.5479889C.6609955 .6536102 .6609955 .5576477 .6609955 .548645 .6609955 .46768189 .5799866 .36471559 .44799806 .36471559H.3039856L.3659973 .614624M.5349884 .35671998C.6439972 .37670899 .7429962 .4526825 .7429962 .5446472 .7429962 .6226196 .673996 .6826172 .5609894 .6826172H.23999024C.22099304 .6826172 .21199036 .6826172 .21199036 .66360476 .21199036 .6536102 .22099304 .6536102 .23599243 .6536102 .29699708 .6536102 .29699708 .6456146 .29699708 .63461306 .29699708 .63261416 .29699708 .62661746 .29299928 .61161807L.1579895 .07395935C.14898682 .038986207 .14698792 .0289917 .07699585 .0289917 .057998659 .0289917 .04798889 .0289917 .04798889 .010986328 .04798889 0 .053985597 0 .07398987 0H.4169922C.56999209 0 .6879883 .11592102 .6879883 .2168274 .6879883 .2987671 .6159973 .34872438 .5349884 .35671998M.3929901 .0289917H.2579956C.24398804 .0289917 .24198914 .0289917 .23599243 .02999878 .22499085 .0309906 .22399903 .032989503 .22399903 .040985109 .22399903 .047973634 .22599793 .053970338 .22799683 .06295776L.2979889 .34472657H.48599244C.60398867 .34472657 .60398867 .2348175 .60398867 .2268219 .60398867 .13090515 .5169983 .0289917 .3929901 .0289917Z"/>
<path id="font_1_3" d="M.5349884 .5967865C.522995 .5857849 .48599244 .55078127 .48599244 .5367737 .48599244 .5267792 .49499513 .5177765 .5049896 .5177765 .5139923 .5177765 .5179901 .52378848 .5249939 .53378298 .548996 .56378176 .57598879 .58277896 .598999 .5957794 .60899356 .6017761 .6159973 .6047821 .6159973 .6157837 .6159973 .6247864 .60798647 .629776 .60198977 .6347809 .57398989 .6537781 .5669861 .68078616 .56399539 .69277957 .5609894 .70077517 .55799868 .7127838 .5439911 .7127838 .5379944 .7127838 .526001 .708786 .526001 .6937866 .526001 .68478396 .5319977 .66078189 .5509949 .63378909H.21499634C.19799805 .63378909 .18099976 .63378909 .18099976 .6147766 .18099976 .5967865 .19898987 .5967865 .21499634 .5967865H.5349884Z"/>
<path id="font_1_2" d="M.1789856 .23242188C.20599365 .23242188 .27398683 .23442078 .32199098 .2524109 .397995 .28141786 .40499879 .33940126 .40499879 .35740663 .40499879 .4013977 .36698915 .44140626 .30099488 .44140626 .19599915 .44140626 .04499817 .34640504 .04499817 .16836548 .04499817 .0632782 .10499573-.009765625 .19599915-.009765625 .33198548-.009765625 .41799928 .09629822 .41799928 .109313968 .41799928 .11531067 .4119873 .12031555 .4079895 .12031555 .40499879 .12031555 .4039917 .11932373 .394989 .110305789 .33099366 .025238038 .23599243 .010223389 .19799805 .010223389 .14099121 .010223389 .11099243 .055267335 .11099243 .1293335 .11099243 .14334107 .11099243 .16836548 .12599182 .23242188H.1789856M.1309967 .2524109C.17399597 .4064026 .2689972 .42140199 .30099488 .42140199 .34498597 .42140199 .375 .395401 .375 .35740663 .375 .2524109 .21499634 .2524109 .17298889 .2524109H.1309967Z"/>
<path id="font_2_1" d="M.31399537 .63708499C.31399537 .664032 .31199647 .66503909 .2849884 .66503909 .24398804 .6251831 .19099427 .6013489 .09599304 .6013489V.5683594C.12298584 .5683594 .1769867 .5683594 .23498535 .5953522V.08203125C.23498535 .04499817 .23199463 .032989503 .13699341 .032989503H.101989749V0C.14299011 .0029907227 .22898865 .0029907227 .27398683 .0029907227 .31900025 .0029907227 .4059906 .0029907227 .44699098 0V.032989503H.4119873C.31698609 .032989503 .31399537 .04499817 .31399537 .08203125V.63708499Z"/>
<path id="font_3_5" d="M.6749878 .32421876C.68899539 .32421876 .70700076 .32421876 .70700076 .34220887 .70700076 .36120606 .6899872 .36120606 .6749878 .36120606H.085998538C.07199097 .36120606 .053985597 .36120606 .053985597 .34321595 .053985597 .32421876 .070999149 .32421876 .085998538 .32421876H.6749878M.6749878 .13780213C.68899539 .13780213 .70700076 .13780213 .70700076 .15579224 .70700076 .17480469 .6899872 .17480469 .6749878 .17480469H.085998538C.07199097 .17480469 .053985597 .17480469 .053985597 .15679932 .053985597 .13780213 .070999149 .13780213 .085998538 .13780213H.6749878Z"/>
<path id="font_4_1" d="M.25-2.3587189H.5130005V-2.303711H.30499269V-.0146484379H.5130005V.04034424H.25V-2.3587189Z"/>
<path id="font_3_2" d="M.43998719 .16790772H.41799928C.4149933 .15092469 .40699769 .09597778 .39698792 .07998657 .3899994 .070999149 .33299256 .070999149 .30299378 .070999149H.117996219C.14498902 .09397888 .20599365 .15792847 .23199463 .18190003 .38398744 .3217926 .43998719 .37374879 .43998719 .47270204 .43998719 .5878906 .34899903 .66503909 .23298645 .66503909 .116989139 .66503909 .04899597 .5658264 .04899597 .4797058 .04899597 .42871095 .09298706 .42871095 .09599304 .42871095 .116989139 .42871095 .14299011 .44371034 .14299011 .475708 .14299011 .5037079 .12399292 .5227051 .09599304 .5227051 .08699036 .5227051 .084991458 .5227051 .08198547 .521698 .100997928 .5899048 .15499878 .6360321 .21998596 .6360321 .30499269 .6360321 .35699464 .56481936 .35699464 .47270204 .35699464 .3877411 .30799867 .313797 .25099183 .24984741L.04899597 .023986817V0H.4139862L.43998719 .16790772Z"/>
<path id="font_3_1" d="M.44799806 .31976319C.44799806 .40283204 .44299317 .48390199 .40699769 .55996707 .3659973 .64302065 .2939911 .66503909 .24499512 .66503909 .18699646 .66503909 .115997318 .63601687 .07899475 .552948 .050994874 .48989869 .040985109 .42785646 .040985109 .31976319 .040985109 .22268677 .04798889 .14962769 .083999637 .078567508 .12298584 .0025177003 .19198609-.021484375 .24398804-.021484375 .33099366-.021484375 .3809967 .030532837 .4099884 .08857727 .44599916 .16363526 .44799806 .26171876 .44799806 .31976319M.24398804-.0014953613C.21199036-.0014953613 .14698792 .016525269 .12799073 .12561035 .116989139 .18565369 .116989139 .26171876 .116989139 .33177186 .116989139 .41384889 .116989139 .48789979 .1329956 .5469513 .1499939 .6139984 .20098877 .6450348 .24398804 .6450348 .28199769 .6450348 .33999635 .6220093 .35899354 .53593447 .37199403 .4788971 .37199403 .39982606 .37199403 .33177186 .37199403 .26472474 .37199403 .18865967 .36099244 .12760926 .34199525 .01751709 .2789917-.0014953613 .24398804-.0014953613Z"/>
<path id="font_4_2" d="M.22200012-2.303711H.01399231V-2.3587189H.2769928V.04034424H.01399231V-.0146484379H.22200012V-2.303711Z"/>
<path id="font_2_2" d="M.28199769 .20405579C.2979889 .21907044 .33999635 .2520752 .35598756 .26608277 .41799928 .32312013 .47698976 .3781433 .47698976 .46917726 .47698976 .588089 .3769989 .66503909 .2519989 .66503909 .13198853 .66503909 .052993776 .57411196 .052993776 .48516847 .052993776 .4361725 .09199524 .4291687 .10598755 .4291687 .1269989 .4291687 .1579895 .4441681 .1579895 .48217774 .1579895 .5341797 .10798645 .5341797 .09599304 .5341797 .125 .6070709 .19198609 .6320343 .24099732 .6320343 .33399964 .6320343 .38198854 .55314639 .38198854 .46917726 .38198854 .36514283 .30899049 .28910829 .19099427 .16804505L.06498718 .037994386C.052993776 .026992798 .052993776 .024993897 .052993776 0H.44799806L.47698976 .17904663H.44599916C.44299317 .1590271 .43499757 .10900879 .4229889 .08999634 .4169922 .08198547 .34098817 .08198547 .32499696 .08198547H.14698792L.28199769 .20405579Z"/>
<path id="font_3_3" d="M.18399048 .35888673C.16699219 .35787965 .16299439 .35688783 .16299439 .34788514 .16299439 .33789063 .16799927 .33789063 .18598938 .33789063H.23199463C.31698609 .33789063 .35499574 .267807 .35499574 .17172241 .35499574 .04058838 .2869873 .005508423 .23799134 .005508423 .18998719 .005508423 .10798645 .028564454 .07899475 .09472656 .11099243 .08970642 .13999939 .10771179 .13999939 .14372254 .13999939 .17271424 .11898804 .1927185 .09098816 .1927185 .066986087 .1927185 .040985109 .1787262 .040985109 .14071656 .040985109 .051620485 .12998963-.021484375 .24099732-.021484375 .3600006-.021484375 .44799806 .06965637 .44799806 .17071533 .44799806 .26280213 .37399293 .33488465 .27799989 .35188294 .36499024 .3769226 .42099 .45011903 .42099 .5282135 .42099 .6071167 .33898927 .66503909 .24198914 .66503909 .14199829 .66503909 .067993167 .604126 .067993167 .5312042 .067993167 .49121095 .09899902 .48321534 .11399841 .48321534 .1349945 .48321534 .15899658 .49821473 .15899658 .5282135 .15899658 .5602112 .1349945 .57421877 .11299133 .57421877 .10699463 .57421877 .10499573 .57421877 .101989749 .57321169 .13999939 .641037 .23399353 .641037 .23899842 .641037 .27198792 .641037 .33699037 .6260681 .33699037 .5282135 .33699037 .5092163 .33399964 .453125 .30499269 .41001893 .2749939 .3658905 .24099732 .36288453 .21398926 .36187745L.18399048 .35888673Z"/>
<path id="font_3_4" d="M.36099244 .6508026C.36099244 .6697998 .36099244 .6748047 .34700013 .6748047 .33898927 .6748047 .33599855 .6748047 .32798768 .662796L.026992798 .19598389V.16699219H.2899933V.07598877C.2899933 .038986207 .28799439 .0289917 .21499634 .0289917H.19499207V0C.21798706 .0019989014 .29699708 .0019989014 .32499696 .0019989014 .35299684 .0019989014 .43299867 .0019989014 .45599366 0V.0289917H.43598939C.3639984 .0289917 .36099244 .038986207 .36099244 .07598877V.16699219H.46199037V.19598389H.36099244V.6508026M.29499818 .5728302V.19598389H.051986696L.29499818 .5728302Z"/>
</defs>
<path transform="matrix(1.00006,0,0,-1,114.42211,147.645)" d="M0 0V28.3468H28.3468V0ZM28.3468 28.3468" fill="#ff8080"/>
<path transform="matrix(1.00006,0,0,-1,114.42211,147.645)" stroke-width=".3985" stroke-linecap="butt" stroke-miterlimit="10" stroke-linejoin="miter" fill="none" stroke="#929292" d="M-112.98872 0H112.98872"/>
<path transform="matrix(-1.00006,-0,0,1,1.2273483,147.645)" stroke-width=".3985" stroke-linecap="round" stroke-linejoin="round" fill="none" stroke="#929292" d="M-2.07224 2.39104C-1.69365 .95639-.84999 .27895 0 0-.84999-.27895-1.69365-.95639-2.07224-2.39104"/>
<path transform="matrix(1.00006,0,0,-1,227.61688,147.645)" stroke-width=".3985" stroke-linecap="round" stroke-linejoin="round" fill="none" stroke="#929292" d="M-2.07224 2.39104C-1.69365 .95639-.84999 .27895 0 0-.84999-.27895-1.69365-.95639-2.07224-2.39104"/>
<path transform="matrix(1.00006,0,0,-1,114.42211,147.645)" stroke-width=".3985" stroke-linecap="butt" stroke-miterlimit="10" stroke-linejoin="miter" fill="none" stroke="#929292" d="M0-112.98872V112.98872"/>
<path transform="matrix(0,1,1.00006,0,114.42211,260.83299)" stroke-width=".3985" stroke-linecap="round" stroke-linejoin="round" fill="none" stroke="#929292" d="M-2.07224 2.39104C-1.69365 .95639-.84999 .27895 0 0-.84999-.27895-1.69365-.95639-2.07224-2.39104"/>
<path transform="matrix(0,-1,-1.00006,-0,114.42211,34.45703)" stroke-width=".3985" stroke-linecap="round" stroke-linejoin="round" fill="none" stroke="#929292" d="M-2.07224 2.39104C-1.69365 .95639-.84999 .27895 0 0-.84999-.27895-1.69365-.95639-2.07224-2.39104"/>
<path transform="matrix(1.00006,0,0,-1,114.42211,147.645)" stroke-width=".79701" stroke-linecap="butt" stroke-miterlimit="10" stroke-linejoin="miter" fill="none" stroke="#0000ff" d="M0 0H55.8966"/>
<path transform="matrix(1.00006,0,0,-1,170.72058,147.645)" stroke-width=".79701" stroke-linecap="round" stroke-linejoin="round" fill="none" stroke="#0000ff" d="M-2.55046 3.11095C-2.0845 1.24435-1.04614 .36295 0 0-1.04614-.36295-2.0845-1.24435-2.55046-3.11095"/>
<use data-text="B" xlink:href="#font_1_1" transform="matrix(11.955917,0,0,-11.9552,110.8509,169.46302)" fill="#0000ff"/>
<use data-text="&#x20d7;" xlink:href="#font_1_3" transform="matrix(11.955917,0,0,-11.9552,119.86567,169.46302)" fill="#0000ff"/>
<use data-text="e" xlink:href="#font_1_2" transform="matrix(11.955917,0,0,-11.9552,120.35584,169.46302)" fill="#0000ff"/>
<use data-text="1" xlink:href="#font_2_1" transform="matrix(7.9705779,0,0,-7.9701,125.773799,171.25601)" fill="#0000ff"/>
<use data-text="=" xlink:href="#font_3_5" transform="matrix(11.955917,0,0,-11.9552,133.82726,169.46302)" fill="#0000ff"/>
<use data-text="[" xlink:href="#font_4_1" transform="matrix(11.955917,0,0,-11.9552,146.253,152.60602)" fill="#0000ff"/>
<use data-text="2" xlink:href="#font_3_2" transform="matrix(11.955917,0,0,-11.9552,157.5457,162.14102)" fill="#0000ff"/>
<use data-text="0" xlink:href="#font_3_1" transform="matrix(11.955917,0,0,-11.9552,157.5457,176.586)" fill="#0000ff"/>
<use data-text="]" xlink:href="#font_4_2" transform="matrix(11.955917,0,0,-11.9552,168.38034,152.60602)" fill="#0000ff"/>
<path transform="matrix(1.00006,0,0,-1,114.42211,147.645)" stroke-width=".79701" stroke-linecap="butt" stroke-miterlimit="10" stroke-linejoin="miter" fill="none" stroke="#0000ff" d="M0 0 84.56223 112.74966"/>
<path transform="matrix(.600026,-.79997,-.80001798,-.59999,199.22852,34.576555)" stroke-width=".79701" stroke-linecap="round" stroke-linejoin="round" fill="none" stroke="#0000ff" d="M-2.55046 3.11095C-2.0845 1.24435-1.04614 .36295 0 0-1.04614-.36295-2.0845-1.24435-2.55046-3.11095"/>
<use data-text="B" xlink:href="#font_1_1" transform="matrix(11.955917,0,0,-11.9552,167.5473,18.417008)" fill="#0000ff"/>
<use data-text="&#x20d7;" xlink:href="#font_1_3" transform="matrix(11.955917,0,0,-11.9552,176.56208,18.417008)" fill="#0000ff"/>
<use data-text="e" xlink:href="#font_1_2" transform="matrix(11.955917,0,0,-11.9552,177.05225,18.417008)" fill="#0000ff"/>
<use data-text="2" xlink:href="#font_2_2" transform="matrix(7.9705779,0,0,-7.9701,182.4702,20.210007)" fill="#0000ff"/>
<use data-text="=" xlink:href="#font_3_5" transform="matrix(11.955917,0,0,-11.9552,190.52367,18.417008)" fill="#0000ff"/>
<use data-text="[" xlink:href="#font_4_1" transform="matrix(11.955917,0,0,-11.9552,202.94942,1.5600128)" fill="#0000ff"/>
<use data-text="3" xlink:href="#font_3_3" transform="matrix(11.955917,0,0,-11.9552,214.24211,11.0950169)" fill="#0000ff"/>
<use data-text="4" xlink:href="#font_3_4" transform="matrix(11.955917,0,0,-11.9552,214.24211,25.540009)" fill="#0000ff"/>
<use data-text="]" xlink:href="#font_4_2" transform="matrix(11.955917,0,0,-11.9552,225.07675,1.5600128)" fill="#0000ff"/>
<path transform="matrix(1.00006,0,0,-1,114.42211,147.645)" stroke-width=".79701" stroke-linecap="butt" stroke-miterlimit="10" stroke-linejoin="miter" fill="none" stroke="#ff0000" d="M0 0H27.54979"/>
<path transform="matrix(1.00006,0,0,-1,142.37209,147.645)" stroke-width=".79701" stroke-linecap="round" stroke-linejoin="round" fill="none" stroke="#ff0000" d="M-2.55046 3.11095C-2.0845 1.24435-1.04614 .36295 0 0-1.04614-.36295-2.0845-1.24435-2.55046-3.11095"/>
<path transform="matrix(1.00006,0,0,-1,114.42211,147.645)" stroke-width=".79701" stroke-linecap="butt" stroke-miterlimit="10" stroke-linejoin="miter" fill="none" stroke="#ff0000" d="M0 0V27.54979"/>
<path transform="matrix(0,-1,-1.00006,-0,114.42211,119.6967)" stroke-width=".79701" stroke-linecap="round" stroke-linejoin="round" fill="none" stroke="#ff0000" d="M-2.55046 3.11095C-2.0845 1.24435-1.04614 .36295 0 0-1.04614-.36295-2.0845-1.24435-2.55046-3.11095"/>
<path transform="matrix(1.00006,0,0,-1,114.42211,147.645)" stroke-width=".3985" stroke-linecap="butt" stroke-dasharray="2.98883,2.98883" stroke-miterlimit="10" stroke-linejoin="miter" fill="none" stroke="#0000ff" d="M56.69362 0 141.73404 113.38724H85.04042"/>
<path transform="matrix(1.00006,0,0,-1,114.42211,147.645)" stroke-width=".3985" stroke-linecap="butt" stroke-dasharray="2.98883,2.98883" stroke-miterlimit="10" stroke-linejoin="miter" fill="none" stroke="#ff0000" d="M28.3468 0V28.3468H0"/>
</svg>
