<svg xmlns="http://www.w3.org/2000/svg" xmlns:xlink="http://www.w3.org/1999/xlink" version="1.1" width="145" height="96" viewBox="0 0 145 96">
<defs>
<path id="font_1_1" d="M.375-1.7509766H.45498658V-.03215027H.746994V.047851564H.375V-1.7509766Z"/>
<path id="font_1_3" d="M.375-1.75H.746994V-1.6700134H.45498658V.048828126H.375V-1.75Z"/>
<path id="font_2_1" d="M.5499878 .31877137C.5499878 .39183045 .5499878 .66503909 .30499269 .66503909 .05999756 .66503909 .05999756 .39183045 .05999756 .31877137 .05999756 .2467041 .05999756-.021484375 .30499269-.021484375 .5499878-.021484375 .5499878 .2467041 .5499878 .31877137M.30499269 .010513306C.2630005 .010513306 .19499207 .030517579 .17098999 .113601688 .15499878 .17164612 .15499878 .2697296 .15499878 .33177186 .15499878 .39883424 .15499878 .4758911 .16899109 .52993777 .19400025 .6200104 .269989 .6330261 .30499269 .6330261 .35099793 .6330261 .4169922 .6110077 .43899537 .5349426 .45399476 .48190309 .45498658 .408844 .45498658 .33177186 .45498658 .26771546 .45498658 .16664124 .43798829 .1105957 .4099884 .023513794 .33799745 .010513306 .30499269 .010513306Z"/>
<path id="font_2_2" d="M.35899354 .6349335C.35899354 .66503909 .35499574 .66503909 .32499696 .66503909 .25898744 .60058596 .15699768 .60058596 .12098694 .60058596V.5615845C.14698792 .5615845 .21299744 .5615845 .272995 .58958438V.08496094C.272995 .051986696 .272995 .038986207 .16999817 .038986207H.1269989V0C.18199158 .0039978029 .2599945 .0039978029 .31599427 .0039978029 .37199403 .0039978029 .44999696 .0039978029 .5049896 0V.038986207H.46199037C.35899354 .038986207 .35899354 .051986696 .35899354 .08496094V.6349335Z"/>
<path id="font_1_2" d="M.31399537-1.7509766H.3939972V.047851564H.021987915V-.03215027H.31399537V-1.7509766Z"/>
<path id="font_1_4" d="M.31399537-1.6700134H.021987915V-1.75H.3939972V.048828126H.31399537V-1.6700134Z"/>
<path id="font_2_3" d="M.2939911 .33203126C.3789978 .33203126 .43598939 .274765 .43598939 .17237854 .43598939 .062408449 .36999513 .014511108 .29699708 .014511108 .269989 .014511108 .16699219 .020492554 .12199402 .07836914 .16099549 .0823822 .1769867 .10836792 .1769867 .13537598 .1769867 .16937256 .15299988 .19238281 .11999512 .19238281 .09298706 .19238281 .06298828 .17536927 .06298828 .13337708 .06298828 .034469606 .17298889-.021484375 .2999878-.021484375 .44799806-.021484375 .5469971 .07337952 .5469971 .17237854 .5469971 .24562073 .4909973 .3229828 .37199403 .35302735 .45098878 .37902833 .5149994 .44306947 .5149994 .5251007 .5149994 .60505679 .42099 .66503909 .30099488 .66503909 .18399048 .66503909 .09498596 .61105349 .09498596 .5290985 .09498596 .48609925 .12799073 .47409059 .147995 .47409059 .17399597 .47409059 .20098877 .49209596 .20098877 .5270996 .20098877 .5580902 .1789856 .5760956 .1519928 .5800934 .19898987 .6320343 .2899933 .6320343 .29899598 .6320343 .34999085 .6320343 .4139862 .60806277 .4139862 .5251007 .4139862 .47009278 .3829956 .37402345 .2829895 .36802674 .2649994 .36701966 .23799134 .36502076 .22898865 .36502076 .21899414 .36402894 .20799256 .36302186 .20799256 .34802247 .20799256 .33203126 .21899414 .33203126 .23599243 .33203126H.2939911Z"/>
<path id="font_3_1" d="M.33299256 .66430667C.33399964 .66830447 .33599855 .67430117 .33599855 .67930606 .33599855 .6953125 .31599427 .6943054 .3039856 .69329836L.19198609 .6843109C.1749878 .68330386 .1619873 .682312 .1619873 .65930178 .1619873 .64331057 .1749878 .64331057 .18998719 .64331057 .21998596 .64331057 .22698975 .64131167 .23999024 .63630679 .23999024 .62431338 .23999024 .62231448 .23599243 .60632327L.09599304 .04724121C.09199524 .031234742 .09199524 .026229859 .09199524 .024230957 .09199524-.00077819827 .11199951-.009765625 .1269989-.009765625 .13699341-.009765625 .15499878-.0057678224 .16799927 .01322937 .17098999 .020233155 .17999268 .053237916 .18499756 .07424927 .18998719 .09326172 .20098877 .13928223 .20698548 .16429138 .21398926 .19030762 .21899414 .20831299 .22399903 .23132324 .22799683 .24632263 .23298645 .264328 .26098634 .3053589 .2939911 .3533783 .34599305 .4084015 .4229889 .4084015 .48599244 .4084015 .48599244 .35638429 .48599244 .33836366 .48599244 .27934266 .44400025 .17329407 .4249878 .12727356 .4189911 .11026001 .4119873 .09425354 .4119873 .07725525 .4119873 .026229859 .45799256-.009765625 .5130005-.009765625 .6139984-.009765625 .6639862 .12226868 .6639862 .14428711 .6639862 .14628601 .6629944 .15829468 .644989 .15829468 .6309967 .15829468 .6299896 .1532898 .6239929 .13427735 .60798647 .08226013 .5669861 .023223877 .5159912 .023223877 .49699403 .023223877 .4889984 .038238527 .4889984 .059249879 .4889984 .07925415 .49598695 .09625244 .5049896 .117263797 .519989 .15628052 .5649872 .2693329 .5649872 .32536317 .5649872 .4044037 .5079956 .44140626 .4269867 .44140626 .34799195 .44140626 .29499818 .39839173 .25498963 .3533783L.33299256 .66430667Z"/>
<path id="font_2_4" d="M.81799319 .3388672C.83200076 .3388672 .8549957 .3388672 .8549957 .3648529 .8549957 .39085389 .8279877 .39085389 .8129883 .39085389H.12098694C.10598755 .39085389 .07899475 .39085389 .07899475 .3648529 .07899475 .3388672 .101989749 .3388672 .115997318 .3388672H.81799319M.8129883 .10913086C.8279877 .10913086 .8549957 .10913086 .8549957 .13513184 .8549957 .16113281 .83200076 .16113281 .81799319 .16113281H.115997318C.101989749 .16113281 .07899475 .16113281 .07899475 .13513184 .07899475 .10913086 .10598755 .10913086 .12098694 .10913086H.8129883Z"/>
</defs>
<path transform="matrix(1.00006,0,0,-1.00006,23.222893,58.23749)" d="M0 0 17.43344-10.91336 91.5605-21.82672 74.12706-10.91336 0 0" fill="#df809f"/>
<path transform="matrix(1.00006,0,0,-1.00006,23.222893,58.23749)" stroke-width=".3985" stroke-linecap="butt" stroke-miterlimit="10" stroke-linejoin="miter" fill="none" stroke="#929292" d="M0 0H84.64192"/>
<path transform="matrix(1.00006,0,0,-1.00006,108.06915,58.23749)" stroke-width=".3985" stroke-linecap="round" stroke-linejoin="round" fill="none" stroke="#929292" d="M-2.07224 2.39104C-1.69365 .95639-.84999 .27895 0 0-.84999-.27895-1.69365-.95639-2.07224-2.39104"/>
<path transform="matrix(1.00006,0,0,-1.00006,23.222893,58.23749)" stroke-width=".3985" stroke-linecap="butt" stroke-miterlimit="10" stroke-linejoin="miter" fill="none" stroke="#929292" d="M0 0V56.2951"/>
<path transform="matrix(0,-1.00006,-1.00006,-0,23.222893,1.7397537)" stroke-width=".3985" stroke-linecap="round" stroke-linejoin="round" fill="none" stroke="#929292" d="M-2.07224 2.39104C-1.69365 .95639-.84999 .27895 0 0-.84999-.27895-1.69365-.95639-2.07224-2.39104"/>
<path transform="matrix(1.00006,0,0,-1.00006,23.222893,58.23749)" stroke-width=".3985" stroke-linecap="butt" stroke-miterlimit="10" stroke-linejoin="miter" fill="none" stroke="#929292" d="M0 0-21.54494-21.54494"/>
<path transform="matrix(-.70714238,.70714238,.70714238,.70714238,1.5357723,79.924617)" stroke-width=".3985" stroke-linecap="round" stroke-linejoin="round" fill="none" stroke="#929292" d="M-2.07224 2.39104C-1.69365 .95639-.84999 .27895 0 0-.84999-.27895-1.69365-.95639-2.07224-2.39104"/>
<path transform="matrix(1.00006,0,0,-1.00006,23.222893,58.23749)" stroke-width=".3985" stroke-linecap="butt" stroke-miterlimit="10" stroke-linejoin="miter" fill="none" stroke="#0000ff" d="M17.43344-10.91336 91.5605-21.82672 74.12706-10.91336"/>
<path transform="matrix(1.00006,0,0,-1.00006,23.222893,58.23749)" stroke-width=".3985" stroke-linecap="butt" stroke-miterlimit="10" stroke-linejoin="miter" fill="none" stroke="#0000ff" d="M28.3468 28.3468 45.78024 17.43344 119.90732 6.52008 102.47386 17.43344 28.3468 28.3468"/>
<path transform="matrix(1.00006,0,0,-1.00006,23.222893,58.23749)" stroke-width=".3985" stroke-linecap="butt" stroke-miterlimit="10" stroke-linejoin="miter" fill="none" stroke="#0000ff" d="M17.43344-10.91336 45.78024 17.43344"/>
<path transform="matrix(1.00006,0,0,-1.00006,23.222893,58.23749)" stroke-width=".3985" stroke-linecap="butt" stroke-miterlimit="10" stroke-linejoin="miter" fill="none" stroke="#0000ff" d="M91.5605-21.82672 119.90732 6.52008"/>
<path transform="matrix(1.00006,0,0,-1.00006,23.222893,58.23749)" stroke-width=".3985" stroke-linecap="butt" stroke-miterlimit="10" stroke-linejoin="miter" fill="none" stroke="#0000ff" d="M74.12706-10.91336 102.47386 17.43344"/>
<path transform="matrix(1.00006,0,0,-1.00006,23.222893,58.23749)" stroke-width=".79701" stroke-linecap="butt" stroke-miterlimit="10" stroke-linejoin="miter" fill="none" stroke="#bf0040" d="M0 0 27.78323 27.78323"/>
<path transform="matrix(.70714238,-.70714238,-.70714238,-.70714238,51.289575,30.170809)" stroke-width=".79701" stroke-linecap="round" stroke-linejoin="round" fill="none" stroke="#bf0040" d="M-2.55046 3.11095C-2.0845 1.24435-1.04614 .36295 0 0-1.04614-.36295-2.0845-1.24435-2.55046-3.11095"/>
<use data-text="&#xf8ee;" xlink:href="#font_1_1" transform="matrix(5.9779589,0,0,-5.9779589,24.36696,4.275257)" fill="#bf0040"/>
<use data-text="&#xf8f0;" xlink:href="#font_1_3" transform="matrix(5.9779589,0,0,-5.9779589,24.36696,15.035908)" fill="#bf0040"/>
<use data-text="0" xlink:href="#font_2_1" transform="matrix(5.9779589,0,0,-5.9779589,33.95054,9.165554)" fill="#bf0040"/>
<use data-text="1" xlink:href="#font_2_2" transform="matrix(5.9779589,0,0,-5.9779589,33.95054,16.139973)" fill="#bf0040"/>
<use data-text="1" xlink:href="#font_2_2" transform="matrix(5.9779589,0,0,-5.9779589,33.95054,23.114396)" fill="#bf0040"/>
<use data-text="&#xf8f9;" xlink:href="#font_1_2" transform="matrix(5.9779589,0,0,-5.9779589,42.586053,4.2752649)" fill="#bf0040"/>
<use data-text="&#xf8fb;" xlink:href="#font_1_4" transform="matrix(5.9779589,0,0,-5.9779589,42.586053,15.035915)" fill="#bf0040"/>
<path transform="matrix(1.00006,0,0,-1.00006,23.222893,58.23749)" stroke-width=".79701" stroke-linecap="butt" stroke-miterlimit="10" stroke-linejoin="miter" fill="none" stroke="#bf0040" d="M0 0 16.7579-10.49048"/>
<path transform="matrix(.8476508,.53063187,.53063187,-.8476508,40.319589,68.94003)" stroke-width=".79701" stroke-linecap="round" stroke-linejoin="round" fill="none" stroke="#bf0040" d="M-2.55046 3.11095C-2.0845 1.24435-1.04614 .36295 0 0-1.04614-.36295-2.0845-1.24435-2.55046-3.11095"/>
<use data-text="&#xf8ee;" xlink:href="#font_1_1" transform="matrix(5.9779589,0,0,-5.9779589,29.247254,73.825428)" fill="#bf0040"/>
<use data-text="&#xf8f0;" xlink:href="#font_1_3" transform="matrix(5.9779589,0,0,-5.9779589,29.247254,84.586078)" fill="#bf0040"/>
<use data-text="1" xlink:href="#font_2_2" transform="matrix(5.9779589,0,0,-5.9779589,38.83083,78.71572)" fill="#bf0040"/>
<use data-text="1" xlink:href="#font_2_2" transform="matrix(5.9779589,0,0,-5.9779589,38.83083,85.69014)" fill="#bf0040"/>
<use data-text="0" xlink:href="#font_2_1" transform="matrix(5.9779589,0,0,-5.9779589,38.83083,92.664569)" fill="#bf0040"/>
<use data-text="&#xf8f9;" xlink:href="#font_1_2" transform="matrix(5.9779589,0,0,-5.9779589,47.466348,73.82543)" fill="#bf0040"/>
<use data-text="&#xf8fb;" xlink:href="#font_1_4" transform="matrix(5.9779589,0,0,-5.9779589,47.466348,84.58608)" fill="#bf0040"/>
<path transform="matrix(1.00006,0,0,-1.00006,23.222893,58.23749)" stroke-width=".79701" stroke-linecap="butt" stroke-miterlimit="10" stroke-linejoin="miter" fill="none" stroke="#bf0040" d="M0 0 73.33861-10.79729"/>
<path transform="matrix(.9893293,.14565873,.14565873,-.9893293,96.96014,69.09346)" stroke-width=".79701" stroke-linecap="round" stroke-linejoin="round" fill="none" stroke="#bf0040" d="M-2.55046 3.11095C-2.0845 1.24435-1.04614 .36295 0 0-1.04614-.36295-2.0845-1.24435-2.55046-3.11095"/>
<use data-text="&#xf8ee;" xlink:href="#font_1_1" transform="matrix(5.9779589,0,0,-5.9779589,70.149707,43.53761)" fill="#bf0040"/>
<use data-text="&#xf8f0;" xlink:href="#font_1_3" transform="matrix(5.9779589,0,0,-5.9779589,70.149707,54.29826)" fill="#bf0040"/>
<use data-text="1" xlink:href="#font_2_2" transform="matrix(5.9779589,0,0,-5.9779589,79.733287,48.427907)" fill="#bf0040"/>
<use data-text="3" xlink:href="#font_2_3" transform="matrix(5.9779589,0,0,-5.9779589,79.733287,55.402326)" fill="#bf0040"/>
<use data-text="0" xlink:href="#font_2_1" transform="matrix(5.9779589,0,0,-5.9779589,79.733287,62.376749)" fill="#bf0040"/>
<use data-text="&#xf8f9;" xlink:href="#font_1_2" transform="matrix(5.9779589,0,0,-5.9779589,88.368808,43.537618)" fill="#bf0040"/>
<use data-text="&#xf8fb;" xlink:href="#font_1_4" transform="matrix(5.9779589,0,0,-5.9779589,88.368808,54.298269)" fill="#bf0040"/>
<path transform="matrix(1.00006,0,0,-1.00006,23.222893,58.23749)" stroke-width="1.19553" stroke-linecap="butt" stroke-dasharray="2.98883,2.98883" stroke-miterlimit="10" stroke-linejoin="miter" fill="none" stroke="#bf0040" d="M0 0V28.3468"/>
<use data-text="h" xlink:href="#font_3_1" transform="matrix(5.9779589,0,0,-5.9779589,.8145523,46.138769)" fill="#bf0040"/>
<use data-text="=" xlink:href="#font_2_4" transform="matrix(5.9779589,0,0,-5.9779589,7.2749407,46.138769)" fill="#bf0040"/>
<use data-text="1" xlink:href="#font_2_2" transform="matrix(5.9779589,0,0,-5.9779589,14.98053,46.138769)" fill="#bf0040"/>
</svg>
