<svg xmlns="http://www.w3.org/2000/svg" xmlns:xlink="http://www.w3.org/1999/xlink" version="1.1" width="201" height="144" viewBox="0 0 201 144">
<defs>
<path id="font_1_1" d="M.16999817 .1111145C.1349945 .05203247 .100997928 .03199768 .052993776 .0289917 .041992189 .027999878 .033996583 .027999878 .033996583 .009994507 .033996583 .0039978029 .038986207 0 .04598999 0 .06399536 0 .10899353 .0019989014 .1269989 .0019989014 .1559906 .0019989014 .18798828 0 .21598816 0 .22200012 0 .23399353 0 .23399353 .018997193 .23399353 .027999878 .22599793 .0289917 .21998596 .0289917 .19699097 .0309906 .17799378 .039001466 .17799378 .06304932 .17799378 .07707214 .18399048 .08808899 .19699097 .11012268L.272995 .23632813H.5279999C.5289917 .22731018 .5289917 .21929932 .5299988 .21028137 .5329895 .18423462 .54499819 .080078128 .54499819 .061050416 .54499819 .0309906 .49398805 .0289917 .47799684 .0289917 .46699525 .0289917 .45599366 .0289917 .45599366 .010986328 .45599366 0 .46499635 0 .47099305 0 .48799134 0 .5079956 .0019989014 .5249939 .0019989014H.58200076C.6429901 .0019989014 .68699648 0 .6879883 0 .69499209 0 .70599368 0 .70599368 .018997193 .70599368 .0289917 .69699099 .0289917 .6819916 .0289917 .6269989 .0289917 .6259918 .038009645 .6230011 .0680542L.56199648 .691864C.55999758 .711853 .55599978 .7138672 .54499819 .7138672 .5349884 .7138672 .5289917 .711853 .519989 .69685366L.16999817 .1111145M.2899933 .26531983 .4909973 .6009674 .5249939 .26531983H.2899933Z"/>
<path id="font_1_3" d="M.5349884 .5967865C.522995 .5857849 .48599244 .55078127 .48599244 .5367737 .48599244 .5267792 .49499513 .5177765 .5049896 .5177765 .5139923 .5177765 .5179901 .52378848 .5249939 .53378298 .548996 .56378176 .57598879 .58277896 .598999 .5957794 .60899356 .6017761 .6159973 .6047821 .6159973 .6157837 .6159973 .6247864 .60798647 .629776 .60198977 .6347809 .57398989 .6537781 .5669861 .68078616 .56399539 .69277957 .5609894 .70077517 .55799868 .7127838 .5439911 .7127838 .5379944 .7127838 .526001 .708786 .526001 .6937866 .526001 .68478396 .5319977 .66078189 .5509949 .63378909H.21499634C.19799805 .63378909 .18099976 .63378909 .18099976 .6147766 .18099976 .5967865 .19898987 .5967865 .21499634 .5967865H.5349884Z"/>
<path id="font_1_2" d="M.1789856 .23242188C.20599365 .23242188 .27398683 .23442078 .32199098 .2524109 .397995 .28141786 .40499879 .33940126 .40499879 .35740663 .40499879 .4013977 .36698915 .44140626 .30099488 .44140626 .19599915 .44140626 .04499817 .34640504 .04499817 .16836548 .04499817 .0632782 .10499573-.009765625 .19599915-.009765625 .33198548-.009765625 .41799928 .09629822 .41799928 .109313968 .41799928 .11531067 .4119873 .12031555 .4079895 .12031555 .40499879 .12031555 .4039917 .11932373 .394989 .110305789 .33099366 .025238038 .23599243 .010223389 .19799805 .010223389 .14099121 .010223389 .11099243 .055267335 .11099243 .1293335 .11099243 .14334107 .11099243 .16836548 .12599182 .23242188H.1789856M.1309967 .2524109C.17399597 .4064026 .2689972 .42140199 .30099488 .42140199 .34498597 .42140199 .375 .395401 .375 .35740663 .375 .2524109 .21499634 .2524109 .17298889 .2524109H.1309967Z"/>
<path id="font_2_1" d="M.31399537 .63708499C.31399537 .664032 .31199647 .66503909 .2849884 .66503909 .24398804 .6251831 .19099427 .6013489 .09599304 .6013489V.5683594C.12298584 .5683594 .1769867 .5683594 .23498535 .5953522V.08203125C.23498535 .04499817 .23199463 .032989503 .13699341 .032989503H.101989749V0C.14299011 .0029907227 .22898865 .0029907227 .27398683 .0029907227 .31900025 .0029907227 .4059906 .0029907227 .44699098 0V.032989503H.4119873C.31698609 .032989503 .31399537 .04499817 .31399537 .08203125V.63708499Z"/>
<path id="font_2_2" d="M.28199769 .20405579C.2979889 .21907044 .33999635 .2520752 .35598756 .26608277 .41799928 .32312013 .47698976 .3781433 .47698976 .46917726 .47698976 .588089 .3769989 .66503909 .2519989 .66503909 .13198853 .66503909 .052993776 .57411196 .052993776 .48516847 .052993776 .4361725 .09199524 .4291687 .10598755 .4291687 .1269989 .4291687 .1579895 .4441681 .1579895 .48217774 .1579895 .5341797 .10798645 .5341797 .09599304 .5341797 .125 .6070709 .19198609 .6320343 .24099732 .6320343 .33399964 .6320343 .38198854 .55314639 .38198854 .46917726 .38198854 .36514283 .30899049 .28910829 .19099427 .16804505L.06498718 .037994386C.052993776 .026992798 .052993776 .024993897 .052993776 0H.44799806L.47698976 .17904663H.44599916C.44299317 .1590271 .43499757 .10900879 .4229889 .08999634 .4169922 .08198547 .34098817 .08198547 .32499696 .08198547H.14698792L.28199769 .20405579Z"/>
</defs>
<path transform="matrix(1.00006,0,0,-1.00005,29.378022,114.590679)" d="M0 0V28.3468H28.3468V0ZM28.3468 28.3468" fill="#ff8080"/>
<path transform="matrix(1.00006,0,0,-1.00005,29.378022,114.590679)" stroke-width=".3985" stroke-linecap="butt" stroke-miterlimit="10" stroke-linejoin="miter" fill="none" stroke="#929292" d="M-27.9483 0H112.98872"/>
<path transform="matrix(-1.00006,-0,0,1.00005,1.2287827,114.590679)" stroke-width=".3985" stroke-linecap="round" stroke-linejoin="round" fill="none" stroke="#929292" d="M-2.07224 2.39104C-1.69365 .95639-.84999 .27895 0 0-.84999-.27895-1.69365-.95639-2.07224-2.39104"/>
<path transform="matrix(1.00006,0,0,-1.00005,142.57279,114.590679)" stroke-width=".3985" stroke-linecap="round" stroke-linejoin="round" fill="none" stroke="#929292" d="M-2.07224 2.39104C-1.69365 .95639-.84999 .27895 0 0-.84999-.27895-1.69365-.95639-2.07224-2.39104"/>
<path transform="matrix(1.00006,0,0,-1.00005,29.378022,114.590679)" stroke-width=".3985" stroke-linecap="butt" stroke-miterlimit="10" stroke-linejoin="miter" fill="none" stroke="#929292" d="M0-27.9483V112.98872"/>
<path transform="matrix(0,1.00005,1.00006,0,29.378022,142.73963)" stroke-width=".3985" stroke-linecap="round" stroke-linejoin="round" fill="none" stroke="#929292" d="M-2.07224 2.39104C-1.69365 .95639-.84999 .27895 0 0-.84999-.27895-1.69365-.95639-2.07224-2.39104"/>
<path transform="matrix(0,-1.00005,-1.00006,-0,29.378022,1.397049)" stroke-width=".3985" stroke-linecap="round" stroke-linejoin="round" fill="none" stroke="#929292" d="M-2.07224 2.39104C-1.69365 .95639-.84999 .27895 0 0-.84999-.27895-1.69365-.95639-2.07224-2.39104"/>
<path transform="matrix(1.00006,0,0,-1.00005,29.378022,114.590679)" stroke-width=".79701" stroke-linecap="butt" stroke-miterlimit="10" stroke-linejoin="miter" fill="none" stroke="#0000ff" d="M0 0H55.8966"/>
<path transform="matrix(1.00006,0,0,-1.00005,85.6765,114.590679)" stroke-width=".79701" stroke-linecap="round" stroke-linejoin="round" fill="none" stroke="#0000ff" d="M-2.55046 3.11095C-2.0845 1.24435-1.04614 .36295 0 0-1.04614-.36295-2.0845-1.24435-2.55046-3.11095"/>
<use data-text="A" xlink:href="#font_1_1" transform="matrix(11.955917,0,0,-11.955797,62.10998,127.49632)" fill="#0000ff"/>
<use data-text="&#x20d7;" xlink:href="#font_1_3" transform="matrix(11.955917,0,0,-11.955797,70.40739,127.49632)" fill="#0000ff"/>
<use data-text="e" xlink:href="#font_1_2" transform="matrix(11.955917,0,0,-11.955797,70.89758,127.49632)" fill="#0000ff"/>
<use data-text="1" xlink:href="#font_2_1" transform="matrix(7.9705779,0,0,-7.970498,76.31183,129.2894)" fill="#0000ff"/>
<path transform="matrix(1.00006,0,0,-1.00005,29.378022,114.590679)" stroke-width=".79701" stroke-linecap="butt" stroke-miterlimit="10" stroke-linejoin="miter" fill="none" stroke="#ff0000" d="M0 0H27.54979"/>
<path transform="matrix(1.00006,0,0,-1.00005,57.327997,114.590679)" stroke-width=".79701" stroke-linecap="round" stroke-linejoin="round" fill="none" stroke="#ff0000" d="M-2.55046 3.11095C-2.0845 1.24435-1.04614 .36295 0 0-1.04614-.36295-2.0845-1.24435-2.55046-3.11095"/>
<use data-text="&#x20d7;" xlink:href="#font_1_3" transform="matrix(11.955917,0,0,-11.955797,37.98954,127.49632)" fill="#ff0000"/>
<use data-text="e" xlink:href="#font_1_2" transform="matrix(11.955917,0,0,-11.955797,38.47973,127.49632)" fill="#ff0000"/>
<use data-text="1" xlink:href="#font_2_1" transform="matrix(7.9705779,0,0,-7.970498,43.897897,129.2894)" fill="#ff0000"/>
<path transform="matrix(1.00006,0,0,-1.00005,29.378022,114.590679)" stroke-width=".79701" stroke-linecap="butt" stroke-miterlimit="10" stroke-linejoin="miter" fill="none" stroke="#0000ff" d="M0 0 56.25154 84.3773"/>
<path transform="matrix(.55470326,-.8320615,-.8320699,-.5546977,85.85399,29.877579)" stroke-width=".79701" stroke-linecap="round" stroke-linejoin="round" fill="none" stroke="#0000ff" d="M-2.55046 3.11095C-2.0845 1.24435-1.04614 .36295 0 0-1.04614-.36295-2.0845-1.24435-2.55046-3.11095"/>
<use data-text="A" xlink:href="#font_1_1" transform="matrix(11.955917,0,0,-11.955797,34.408327,65.89124)" fill="#0000ff"/>
<use data-text="&#x20d7;" xlink:href="#font_1_3" transform="matrix(11.955917,0,0,-11.955797,42.705728,65.89124)" fill="#0000ff"/>
<use data-text="e" xlink:href="#font_1_2" transform="matrix(11.955917,0,0,-11.955797,43.195924,65.89124)" fill="#0000ff"/>
<use data-text="2" xlink:href="#font_2_2" transform="matrix(7.9705779,0,0,-7.970498,48.610177,67.684329)" fill="#0000ff"/>
<path transform="matrix(1.00006,0,0,-1.00005,29.378022,114.590679)" stroke-width=".79701" stroke-linecap="butt" stroke-miterlimit="10" stroke-linejoin="miter" fill="none" stroke="#ff0000" d="M0 0V27.54979"/>
<path transform="matrix(0,-1.00005,-1.00006,-0,29.378022,86.640979)" stroke-width=".79701" stroke-linecap="round" stroke-linejoin="round" fill="none" stroke="#ff0000" d="M-2.55046 3.11095C-2.0845 1.24435-1.04614 .36295 0 0-1.04614-.36295-2.0845-1.24435-2.55046-3.11095"/>
<use data-text="&#x20d7;" xlink:href="#font_1_3" transform="matrix(11.955917,0,0,-11.955797,14.353123,103.781139)" fill="#ff0000"/>
<use data-text="e" xlink:href="#font_1_2" transform="matrix(11.955917,0,0,-11.955797,14.843315,103.781139)" fill="#ff0000"/>
<use data-text="2" xlink:href="#font_2_2" transform="matrix(7.9705779,0,0,-7.970498,20.261479,105.57422)" fill="#ff0000"/>
<path transform="matrix(1.00006,0,0,-1.00005,29.378022,114.590679)" stroke-width=".3985" stroke-linecap="butt" stroke-dasharray="2.98883,2.98883" stroke-miterlimit="10" stroke-linejoin="miter" fill="none" stroke="#0000ff" d="M56.69362 0 113.38724 85.04042H56.69362"/>
<path transform="matrix(1.00006,0,0,-1.00005,29.378022,114.590679)" stroke-width=".79701" stroke-linecap="butt" stroke-miterlimit="10" stroke-linejoin="miter" fill="none" stroke="#60009f" d="M0 0 169.36804 84.68402"/>
<path transform="matrix(.89441367,-.4471923,-.4471968,-.89440467,199.11264,29.724205)" stroke-width=".79701" stroke-linecap="round" stroke-linejoin="round" fill="none" stroke="#60009f" d="M-2.55046 3.11095C-2.0845 1.24435-1.04614 .36295 0 0-1.04614-.36295-2.0845-1.24435-2.55046-3.11095"/>
<path transform="matrix(1.00006,0,0,-1.00005,29.378022,114.590679)" stroke-width=".79701" stroke-linecap="butt" stroke-miterlimit="10" stroke-linejoin="miter" fill="none" stroke="#df0020" d="M0 0 55.9808 27.9904"/>
<path transform="matrix(.89441367,-.4471923,-.4471968,-.89440467,85.7186,86.420658)" stroke-width=".79701" stroke-linecap="round" stroke-linejoin="round" fill="none" stroke="#df0020" d="M-2.55046 3.11095C-2.0845 1.24435-1.04614 .36295 0 0-1.04614-.36295-2.0845-1.24435-2.55046-3.11095"/>
</svg>
