<svg xmlns="http://www.w3.org/2000/svg" xmlns:xlink="http://www.w3.org/1999/xlink" version="1.1" width="317" height="165" viewBox="0 0 317 165">
<defs>
<path id="font_1_82" d="M.4099884 0V.0289917H.3789978C.29100038 .0289917 .28799439 .041000368 .28799439 .07701111V.6411133C.28799439 .664032 .28799439 .66503909 .2679901 .66503909 .24398804 .63812258 .19400025 .6012573 .09098816 .6012573V.5722656C.11399841 .5722656 .1639862 .5722656 .21899414 .59825137V.07701111C.21899414 .041000368 .21598816 .0289917 .12799073 .0289917H.09700012V0C.12399292 .0019989014 .22099304 .0019989014 .2539978 .0019989014 .2869873 .0019989014 .3829956 .0019989014 .4099884 0Z"/>
<path id="font_1_107" d="M.43998719 .16799927H.41799928C.4149933 .15098572 .40699769 .09599304 .39698792 .07998657 .3899994 .070999149 .33299256 .070999149 .30299378 .070999149H.117996219C.14498902 .09399414 .20599365 .1579895 .23199463 .18199158 .38398744 .3217926 .43998719 .37374879 .43998719 .47270204 .43998719 .5878906 .34899903 .66503909 .23298645 .66503909 .116989139 .66503909 .04899597 .5658264 .04899597 .4797058 .04899597 .42871095 .09298706 .42871095 .09599304 .42871095 .116989139 .42871095 .14299011 .44371034 .14299011 .475708 .14299011 .5037079 .12399292 .5227051 .09599304 .5227051 .08699036 .5227051 .084991458 .5227051 .08198547 .521698 .100997928 .5899048 .15499878 .6360321 .21998596 .6360321 .30499269 .6360321 .35699464 .56481936 .35699464 .47270204 .35699464 .3877411 .30799867 .313797 .25099183 .24984741L.04899597 .023986817V0H.4139862L.43998719 .16799927Z"/>
<path id="font_1_106" d="M.44799806 .17103577C.44799806 .263031 .37399293 .33503724 .27799989 .35203553 .36499024 .37702943 .42099 .45002748 .42099 .5280304 .42099 .60702517 .33898927 .66503909 .24198914 .66503909 .14199829 .66503909 .067993167 .6040344 .067993167 .5310364 .067993167 .49121095 .09899902 .48321534 .11399841 .48321534 .1349945 .48321534 .15899658 .49821473 .15899658 .5282135 .15899658 .5602112 .1349945 .57421877 .11299133 .57421877 .10699463 .57421877 .10499573 .57421877 .101989749 .57321169 .13999939 .641037 .23399353 .641037 .23899842 .641037 .27198792 .641037 .33699037 .6260681 .33699037 .5282135 .33699037 .5092163 .33399964 .453125 .30499269 .41001893 .2749939 .3658905 .24099732 .36288453 .21398926 .36187745L.18399048 .35888673C.16699219 .35787965 .16299439 .35688783 .16299439 .34788514 .16299439 .33789063 .16799927 .33789063 .18598938 .33789063H.23199463C.31698609 .33789063 .35499574 .267807 .35499574 .17172241 .35499574 .04058838 .2869873 .005508423 .23799134 .005508423 .18998719 .005508423 .10798645 .028564454 .07899475 .09472656 .11099243 .08955383 .13999939 .107543949 .13999939 .14355469 .13999939 .17271424 .11898804 .1927185 .09098816 .1927185 .066986087 .1927185 .040985109 .1787262 .040985109 .14071656 .040985109 .051620485 .12998963-.021484375 .24099732-.021484375 .3600006-.021453858 .44799806 .06954956 .44799806 .17054749V.17103577Z"/>
<path id="font_1_57" d="M.46199037 .16699219V.19598389H.36099244V.6508026C.36099244 .6697998 .36099244 .6748047 .34700013 .6748047 .33898927 .6748047 .33599855 .6748047 .32798768 .6628113L.026992798 .19598389V.16699219H.2899933V.07598877C.2899933 .038986207 .28799439 .0289917 .21499634 .0289917H.19499207V0C.21798706 .0019989014 .29699708 .0019989014 .32499696 .0019989014 .35299684 .0019989014 .43299867 .0019989014 .45599366 0V.0289917H.43598939C.3639984 .0289917 .36099244 .038986207 .36099244 .07598877V.16699219H.46199037M.29499818 .19598389H.051986696L.29499818 .57284548V.19598389Z"/>
<path id="font_1_56" d="M.43998719 .2004242C.43998719 .3194275 .3600006 .4184265 .25498963 .4184265 .19799805 .4184265 .1539917 .39343263 .12799073 .36543275V.5722656C.17098999 .558609 .20599365 .5576172 .21699524 .5576172 .32998658 .5576172 .4019928 .6404724 .4019928 .65423586 .4019928 .65815737 .3999939 .66308596 .3939972 .66308596 .3939972 .6638031 .3899994 .6638031 .3809967 .6598053 .32499696 .6358032 .2769928 .6328125 .25099183 .6328125 .18499756 .6322632 .13798523 .6522522 .11898804 .66026309 .11199951 .66308596 .10899353 .66308596 .10899353 .66308596 .100997928 .66308596 .100997928 .65708926 .100997928 .6411133V.34443666C.100997928 .32644654 .100997928 .32044984 .11299133 .32044984 .117996219 .32044984 .11898804 .32144166 .1289978 .33345033 .15699768 .37443543 .20399475 .3984375 .2539978 .3984375 .30699159 .3984375 .33299256 .34944154 .34098817 .33244325 .35798646 .29345704 .35899354 .24446106 .35899354 .20648194 .35899354 .16848755 .35899354 .11149597 .33099366 .06651306 .30899049 .030426026 .269989 .005508423 .22599793 .005508423 .1599884 .005508423 .09498596 .050354005 .07699585 .12310791 .08198547 .12110901 .08799744 .12011719 .09298706 .12011719 .10998535 .12011719 .13699341 .1301117 .13699341 .16410828 .13699341 .19210816 .117996219 .20811463 .09298706 .20811463 .07499695 .20811463 .04899597 .19911194 .04899597 .16011048 .04899597 .07527161 .116989139-.021484375 .22799683-.021484375 .34098817-.021484375 .43998719 .073272708 .43998719 .20010376V.2004242Z"/>
<path id="font_1_101" d="M.44799806 .2036438C.44799806 .33665467 .35499574 .42578126 .25498963 .42578126 .1659851 .42578126 .1329956 .34864808 .12298584 .3206482V.34765626C.12298584 .60061648 .24598694 .640625 .2999878 .640625 .33599855 .6405945 .37199403 .62960818 .3909912 .5996094 .3789978 .59962466 .34098817 .59962466 .34098817 .55862429 .34098817 .53660586 .35598756 .51760867 .38198854 .51760867 .40699769 .51760867 .42399598 .53260806 .42399598 .56159976 .42399598 .6137543 .38598634 .66503909 .29899598 .66503909 .17298889 .66503909 .040985109 .53559878 .040985109 .31556703 .040985109 .040512086 .16099549-.021484375 .24598694-.021484375 .35499574-.021484375 .44799806 .073516849 .44799806 .20353699V.2036438M.3659973 .20452881C.3659973 .15351868 .3659973 .10852051 .34700013 .070510867 .32199098 .022506714 .28599549 .005508423 .24598694 .005508423 .18299866 .005508423 .15299988 .06150818 .14399719 .08251953 .1349945 .10852051 .125 .15753174 .125 .22753906 .125 .30664063 .16099549 .40577699 .25099183 .40577699 .30599977 .40577699 .33499146 .36872865 .34999085 .33467103 .3659973 .29762269 .3659973 .2475586 .3659973 .20452881Z"/>
<path id="font_1_100" d="M.47499085 .6212311V.64424136H.23399353C.11299133 .64424136 .11099243 .65704348 .10699463 .67578127H.084991458L.053985597 .47612H.07598877C.07899475 .49414063 .08799744 .5562134 .100997928 .5672302 .10899353 .5732422 .18399048 .5732422 .19799805 .5732422H.4099884L.3039856 .42105104C.2769928 .38200379 .17599488 .21780396 .17599488 .029571534 .17599488 .018554688 .17599488-.021484375 .21699524-.021484375 .25898744-.021484375 .25898744 .017562867 .25898744 .030578614V.08062744C.25898744 .22981262 .2829895 .34596253 .32998658 .41304017L.47499085 .6212311Z"/>
</defs>
<path transform="matrix(1,0,0,-1.00006,21.305,134.88729)" stroke-width=".79701" stroke-linecap="butt" stroke-miterlimit="10" stroke-linejoin="miter" fill="none" stroke="#000000" d="M10.50346 113.38724C10.50346 119.1882 5.80096 123.8907 0 123.8907-5.80096 123.8907-10.50346 119.1882-10.50346 113.38724-10.50346 107.58626-5.80096 102.88376 0 102.88376 5.80096 102.88376 10.50346 107.58626 10.50346 113.38724ZM0 113.38724"/>
<use data-text="1" xlink:href="#font_1_82" transform="matrix(11.9552,0,0,-11.955917,18.376,25.46872)"/>
<path transform="matrix(1,0,0,-1.00006,21.305,134.88729)" stroke-width=".79701" stroke-linecap="butt" stroke-miterlimit="10" stroke-linejoin="miter" fill="none" stroke="#000000" d="M10.50346 0C10.50346 5.80096 5.80096 10.50346 0 10.50346-5.80096 10.50346-10.50346 5.80096-10.50346 0-10.50346-5.80096-5.80096-10.50346 0-10.50346 5.80096-10.50346 10.50346-5.80096 10.50346 0ZM0 0"/>
<use data-text="2" xlink:href="#font_1_107" transform="matrix(11.9552,0,0,-11.955917,18.376,138.86252)"/>
<path transform="matrix(1,0,0,-1.00006,21.305,134.88729)" stroke-width=".79701" stroke-linecap="butt" stroke-miterlimit="10" stroke-linejoin="miter" fill="none" stroke="#000000" d="M124.00162 0C124.00162 5.86223 119.24947 10.61438 113.38724 10.61438 107.525 10.61438 102.77284 5.86223 102.77284 0 102.77284-5.86223 107.525-10.61438 113.38724-10.61438 119.24947-10.61438 124.00162-5.86223 124.00162 0ZM113.38724 0"/>
<use data-text="3" xlink:href="#font_1_106" transform="matrix(11.9552,0,0,-11.955917,131.763,138.73752)"/>
<path transform="matrix(1,0,0,-1.00006,21.305,134.88729)" stroke-width=".79701" stroke-linecap="butt" stroke-miterlimit="10" stroke-linejoin="miter" fill="none" stroke="#000000" d="M123.96976 113.38724C123.96976 119.23186 119.23186 123.96976 113.38724 123.96976 107.5426 123.96976 102.8047 119.23186 102.8047 113.38724 102.8047 107.5426 107.5426 102.8047 113.38724 102.8047 119.23186 102.8047 123.96976 107.5426 123.96976 113.38724ZM113.38724 113.38724"/>
<use data-text="4" xlink:href="#font_1_57" transform="matrix(11.9552,0,0,-11.955917,131.763,25.528733)"/>
<path transform="matrix(1,0,0,-1.00006,21.305,134.88729)" stroke-width=".79701" stroke-linecap="butt" stroke-miterlimit="10" stroke-linejoin="miter" fill="none" stroke="#000000" d="M180.68746 113.38724C180.68746 119.24516 175.93878 123.99384 170.08086 123.99384 164.22292 123.99384 159.47425 119.24516 159.47425 113.38724 159.47425 107.5293 164.22292 102.78062 170.08086 102.78062 175.93878 102.78062 180.68746 107.5293 180.68746 113.38724ZM170.08086 113.38724"/>
<use data-text="5" xlink:href="#font_1_56" transform="matrix(11.9552,0,0,-11.955917,188.457,25.336716)"/>
<path transform="matrix(1,0,0,-1.00006,21.305,134.88729)" stroke-width=".79701" stroke-linecap="butt" stroke-miterlimit="10" stroke-linejoin="miter" fill="none" stroke="#000000" d="M294.08247 113.38724C294.08247 119.24947 289.33033 124.00162 283.4681 124.00162 277.60588 124.00162 272.8537 119.24947 272.8537 113.38724 272.8537 107.525 277.60588 102.77284 283.4681 102.77284 289.33033 102.77284 294.08247 107.525 294.08247 113.38724ZM283.4681 113.38724"/>
<use data-text="6" xlink:href="#font_1_101" transform="matrix(11.9552,0,0,-11.955917,301.844,25.342713)"/>
<path transform="matrix(1,0,0,-1.00006,21.305,134.88729)" stroke-width=".79701" stroke-linecap="butt" stroke-miterlimit="10" stroke-linejoin="miter" fill="none" stroke="#000000" d="M180.78159 0C180.78159 5.90991 175.99077 10.70073 170.08086 10.70073 164.17093 10.70073 159.38011 5.90991 159.38011 0 159.38011-5.90991 164.17093-10.70073 170.08086-10.70073 175.99077-10.70073 180.78159-5.90991 180.78159 0ZM170.08086 0"/>
<use data-text="7" xlink:href="#font_1_100" transform="matrix(11.9552,0,0,-11.955917,188.457,138.80252)"/>
<path transform="matrix(1,0,0,-1.00006,21.305,134.88729)" stroke-width=".3985" stroke-linecap="butt" stroke-miterlimit="10" stroke-linejoin="miter" fill="none" stroke="#000000" d=""/>
<path transform="matrix(1,0,0,-1.00006,21.305,134.88729)" stroke-width="1.19553" stroke-linecap="butt" stroke-miterlimit="10" stroke-linejoin="miter" fill="none" stroke="#ff0000" d="M-5.45082 103.946C-23.87788 72.02931-23.87788 41.35791-8.02911 13.90704"/>
<path transform="matrix(.49998,.8660619,.86601,-.50000998,11.66996,118.19767)" d="M6.66628 0 1.93044 1.79556 3.5108 0 1.93044-1.79556Z" fill="#ff0000"/>
<path transform="matrix(.49998,.8660619,.86601,-.50000998,11.66996,118.19767)" stroke-width="1.19553" stroke-linecap="butt" stroke-miterlimit="10" stroke-linejoin="miter" fill="none" stroke="#ff0000" d="M6.66628 0 1.93044 1.79556 3.5108 0 1.93044-1.79556Z"/>
<path transform="matrix(1,0,0,-1.00006,21.305,134.88729)" stroke-width=".3985" stroke-linecap="butt" stroke-miterlimit="10" stroke-linejoin="miter" fill="none" stroke="#000000" d=""/>
<path transform="matrix(1,0,0,-1.00006,21.305,134.88729)" stroke-width="1.19553" stroke-linecap="butt" stroke-miterlimit="10" stroke-linejoin="miter" fill="none" stroke="#ff0000" d="M10.90196 113.38724H97.24944"/>
<path transform="matrix(1,0,0,-1.00006,115.3425,21.493248)" d="M6.66628 0 1.93044 1.79556 3.5108 0 1.93044-1.79556Z" fill="#ff0000"/>
<path transform="matrix(1,0,0,-1.00006,115.3425,21.493248)" stroke-width="1.19553" stroke-linecap="butt" stroke-miterlimit="10" stroke-linejoin="miter" fill="none" stroke="#ff0000" d="M6.66628 0 1.93044 1.79556 3.5108 0 1.93044-1.79556Z"/>
<path transform="matrix(1,0,0,-1.00006,21.305,134.88729)" stroke-width="1.19553" stroke-linecap="butt" stroke-miterlimit="10" stroke-linejoin="miter" fill="none" stroke="#ff0000" d="M5.45082 9.44122C23.87788 41.35791 23.87788 72.02931 8.02911 99.48018"/>
<path transform="matrix(-.49998,-.8660619,-.86601,.50000998,30.94004,38.182878)" d="M6.66628 0 1.93044 1.79556 3.5108 0 1.93044-1.79556Z" fill="#ff0000"/>
<path transform="matrix(-.49998,-.8660619,-.86601,.50000998,30.94004,38.182878)" stroke-width="1.19553" stroke-linecap="butt" stroke-miterlimit="10" stroke-linejoin="miter" fill="none" stroke="#ff0000" d="M6.66628 0 1.93044 1.79556 3.5108 0 1.93044-1.79556Z"/>
<path transform="matrix(1,0,0,-1.00006,21.305,134.88729)" stroke-width=".3985" stroke-linecap="butt" stroke-miterlimit="10" stroke-linejoin="miter" fill="none" stroke="#000000" d=""/>
<path transform="matrix(1,0,0,-1.00006,21.305,134.88729)" stroke-width="1.19553" stroke-linecap="butt" stroke-miterlimit="10" stroke-linejoin="miter" fill="none" stroke="#ff0000" d="M10.90196 0H97.21758"/>
<path transform="matrix(1,0,0,-1.00006,115.31063,134.88729)" d="M6.66628 0 1.93044 1.79556 3.5108 0 1.93044-1.79556Z" fill="#ff0000"/>
<path transform="matrix(1,0,0,-1.00006,115.31063,134.88729)" stroke-width="1.19553" stroke-linecap="butt" stroke-miterlimit="10" stroke-linejoin="miter" fill="none" stroke="#ff0000" d="M6.66628 0 1.93044 1.79556 3.5108 0 1.93044-1.79556Z"/>
<path transform="matrix(1,0,0,-1.00006,21.305,134.88729)" stroke-width=".3985" stroke-linecap="butt" stroke-miterlimit="10" stroke-linejoin="miter" fill="none" stroke="#000000" d=""/>
<path transform="matrix(1,0,0,-1.00006,21.305,134.88729)" stroke-width="1.19553" stroke-linecap="butt" stroke-miterlimit="10" stroke-linejoin="miter" fill="none" stroke="#ff0000" d="M113.38724 11.01288V97.24944"/>
<path transform="matrix(0,-1.00006,-1,-0,134.69223,40.844148)" d="M6.66628 0 1.93044 1.79556 3.5108 0 1.93044-1.79556Z" fill="#ff0000"/>
<path transform="matrix(0,-1.00006,-1,-0,134.69223,40.844148)" stroke-width="1.19553" stroke-linecap="butt" stroke-miterlimit="10" stroke-linejoin="miter" fill="none" stroke="#ff0000" d="M6.66628 0 1.93044 1.79556 3.5108 0 1.93044-1.79556Z"/>
<path transform="matrix(1,0,0,-1.00006,21.305,134.88729)" stroke-width=".3985" stroke-linecap="butt" stroke-miterlimit="10" stroke-linejoin="miter" fill="none" stroke="#000000" d=""/>
<path transform="matrix(1,0,0,-1.00006,21.305,134.88729)" stroke-width="1.19553" stroke-linecap="butt" stroke-miterlimit="10" stroke-linejoin="miter" fill="none" stroke="#ff0000" d="M124.40012 0H153.82485"/>
<path transform="matrix(1,0,0,-1.00006,171.91791,134.88729)" d="M6.66628 0 1.93044 1.79556 3.5108 0 1.93044-1.79556Z" fill="#ff0000"/>
<path transform="matrix(1,0,0,-1.00006,171.91791,134.88729)" stroke-width="1.19553" stroke-linecap="butt" stroke-miterlimit="10" stroke-linejoin="miter" fill="none" stroke="#ff0000" d="M6.66628 0 1.93044 1.79556 3.5108 0 1.93044-1.79556Z"/>
<path transform="matrix(1,0,0,-1.00006,21.305,134.88729)" stroke-width=".3985" stroke-linecap="butt" stroke-miterlimit="10" stroke-linejoin="miter" fill="none" stroke="#000000" d=""/>
<path transform="matrix(1,0,0,-1.00006,21.305,134.88729)" stroke-width="1.19553" stroke-linecap="butt" stroke-miterlimit="10" stroke-linejoin="miter" fill="none" stroke="#ff0000" d="M105.62247 105.62247 11.35522 11.35522"/>
<path transform="matrix(-.7071,.70714238,.7071,.70714238,34.93142,121.26005)" d="M6.66628 0 1.93044 1.79556 3.5108 0 1.93044-1.79556Z" fill="#ff0000"/>
<path transform="matrix(-.7071,.70714238,.7071,.70714238,34.93142,121.26005)" stroke-width="1.19553" stroke-linecap="butt" stroke-miterlimit="10" stroke-linejoin="miter" fill="none" stroke="#ff0000" d="M6.66628 0 1.93044 1.79556 3.5108 0 1.93044-1.79556Z"/>
<path transform="matrix(1,0,0,-1.00006,21.305,134.88729)" stroke-width=".3985" stroke-linecap="butt" stroke-miterlimit="10" stroke-linejoin="miter" fill="none" stroke="#000000" d=""/>
<path transform="matrix(1,0,0,-1.00006,21.305,134.88729)" stroke-width="1.19553" stroke-linecap="butt" stroke-miterlimit="10" stroke-linejoin="miter" fill="none" stroke="#ff0000" d="M179.61142 107.88486C211.46419 89.49278 242.07634 89.49178 269.4649 105.30292"/>
<path transform="matrix(.86603,-.49997,-.49994,-.8660819,287.98826,31.183922)" d="M6.66628 0 1.93044 1.79556 3.5108 0 1.93044-1.79556Z" fill="#ff0000"/>
<path transform="matrix(.86603,-.49997,-.49994,-.8660819,287.98826,31.183922)" stroke-width="1.19553" stroke-linecap="butt" stroke-miterlimit="10" stroke-linejoin="miter" fill="none" stroke="#ff0000" d="M6.66628 0 1.93044 1.79556 3.5108 0 1.93044-1.79556Z"/>
<path transform="matrix(1,0,0,-1.00006,21.305,134.88729)" stroke-width=".3985" stroke-linecap="butt" stroke-miterlimit="10" stroke-linejoin="miter" fill="none" stroke="#000000" d=""/>
<path transform="matrix(1,0,0,-1.00006,21.305,134.88729)" stroke-width="1.19553" stroke-linecap="butt" stroke-miterlimit="10" stroke-linejoin="miter" fill="none" stroke="#ff0000" d="M170.08086 102.38213V16.256"/>
<path transform="matrix(0,1.00006,1,0,191.38587,115.418178)" d="M6.66628 0 1.93044 1.79556 3.5108 0 1.93044-1.79556Z" fill="#ff0000"/>
<path transform="matrix(0,1.00006,1,0,191.38587,115.418178)" stroke-width="1.19553" stroke-linecap="butt" stroke-miterlimit="10" stroke-linejoin="miter" fill="none" stroke="#ff0000" d="M6.66628 0 1.93044 1.79556 3.5108 0 1.93044-1.79556Z"/>
<path transform="matrix(1,0,0,-1.00006,21.305,134.88729)" stroke-width=".3985" stroke-linecap="butt" stroke-miterlimit="10" stroke-linejoin="miter" fill="none" stroke="#000000" d=""/>
<path transform="matrix(1,0,0,-1.00006,21.305,134.88729)" stroke-width="1.19553" stroke-linecap="butt" stroke-miterlimit="10" stroke-linejoin="miter" fill="none" stroke="#ff0000" d="M273.9308 118.8935C242.07634 137.28269 211.46419 137.2817 184.07717 121.46814"/>
<path transform="matrix(-.866,.50005999,.50003,.8660519,208.1637,11.805702)" d="M6.66628 0 1.93044 1.79556 3.5108 0 1.93044-1.79556Z" fill="#ff0000"/>
<path transform="matrix(-.866,.50005999,.50003,.8660519,208.1637,11.805702)" stroke-width="1.19553" stroke-linecap="butt" stroke-miterlimit="10" stroke-linejoin="miter" fill="none" stroke="#ff0000" d="M6.66628 0 1.93044 1.79556 3.5108 0 1.93044-1.79556Z"/>
<path transform="matrix(1,0,0,-1.00006,21.305,134.88729)" stroke-width=".3985" stroke-linecap="butt" stroke-miterlimit="10" stroke-linejoin="miter" fill="none" stroke="#000000" d=""/>
<path transform="matrix(1,0,0,-1.00006,21.305,134.88729)" stroke-width="1.19553" stroke-linecap="butt" stroke-miterlimit="10" stroke-linejoin="miter" fill="none" stroke="#ff0000" d="M275.6808 105.59995 181.57556 11.4947"/>
<path transform="matrix(-.7071,.70714238,.7071,.70714238,205.15177,121.12056)" d="M6.66628 0 1.93044 1.79556 3.5108 0 1.93044-1.79556Z" fill="#ff0000"/>
<path transform="matrix(-.7071,.70714238,.7071,.70714238,205.15177,121.12056)" stroke-width="1.19553" stroke-linecap="butt" stroke-miterlimit="10" stroke-linejoin="miter" fill="none" stroke="#ff0000" d="M6.66628 0 1.93044 1.79556 3.5108 0 1.93044-1.79556Z"/>
<path transform="matrix(1,0,0,-1.00006,21.305,134.88729)" stroke-width=".3985" stroke-linecap="butt" stroke-miterlimit="10" stroke-linejoin="miter" fill="none" stroke="#000000" d=""/>
<path transform="matrix(1,0,0,-1.00006,21.305,134.88729)" stroke-width="1.19553" stroke-linecap="butt" stroke-miterlimit="10" stroke-linejoin="miter" fill="none" stroke="#ff0000" d="M165.11757 9.92673 120.60362 98.95418"/>
<path transform="matrix(-.44717,-.89441367,-.89436,.4471968,143.34491,38.799966)" d="M6.66628 0 1.93044 1.79556 3.5108 0 1.93044-1.79556Z" fill="#ff0000"/>
<path transform="matrix(-.44717,-.89441367,-.89436,.4471968,143.34491,38.799966)" stroke-width="1.19553" stroke-linecap="butt" stroke-miterlimit="10" stroke-linejoin="miter" fill="none" stroke="#ff0000" d="M6.66628 0 1.93044 1.79556 3.5108 0 1.93044-1.79556Z"/>
<path transform="matrix(1,0,0,-1.00006,21.305,134.88729)" stroke-width=".3985" stroke-linecap="butt" stroke-miterlimit="10" stroke-linejoin="miter" fill="none" stroke="#000000" d=""/>
<path transform="matrix(1,0,0,-1.00006,21.305,134.88729)" stroke-width="1.19553" stroke-linecap="butt" stroke-miterlimit="10" stroke-linejoin="miter" fill="none" stroke="#ff0000" d="M160.46878-5.54942C109.44435-34.96368 60.427-34.93199 13.90532-8.03201"/>
<path transform="matrix(-.86568,-.50058,-.50055,.8657319,37.9908,144.52762)" d="M6.66628 0 1.93044 1.79556 3.5108 0 1.93044-1.79556Z" fill="#ff0000"/>
<path transform="matrix(-.86568,-.50058,-.50055,.8657319,37.9908,144.52762)" stroke-width="1.19553" stroke-linecap="butt" stroke-miterlimit="10" stroke-linejoin="miter" fill="none" stroke="#ff0000" d="M6.66628 0 1.93044 1.79556 3.5108 0 1.93044-1.79556Z"/>
</svg>
