<svg xmlns="http://www.w3.org/2000/svg" xmlns:xlink="http://www.w3.org/1999/xlink" version="1.1" width="241" height="26" viewBox="0 0 241 26">
<defs>
<path id="font_1_64" d="M.2709961 .18916321V.24316406H.010986328V.18916321H.2709961Z"/>
<path id="font_1_82" d="M.4099884 0V.0289917H.3789978C.29100038 .0289917 .28799439 .041000368 .28799439 .07701111V.6411133C.28799439 .664032 .28799439 .66503909 .2679901 .66503909 .24398804 .63812258 .19400025 .6012573 .09098816 .6012573V.5722656C.11399841 .5722656 .1639862 .5722656 .21899414 .59825137V.07701111C.21899414 .041000368 .21598816 .0289917 .12799073 .0289917H.09700012V0C.12399292 .0019989014 .22099304 .0019989014 .2539978 .0019989014 .2869873 .0019989014 .3829956 .0019989014 .4099884 0Z"/>
<path id="font_1_121" d="M.44799806 .31976319C.44799806 .40283204 .44299317 .48388673 .40699769 .5599518 .3659973 .64302065 .2939911 .66503909 .24499512 .66503909 .18699646 .66503909 .115997318 .6360016 .07899475 .552948 .050994874 .48989869 .040985109 .42785646 .040985109 .31976319 .040985109 .22268677 .04798889 .14964295 .083999637 .07858276 .12298584 .002532959 .19198609-.021484375 .24398804-.021484375 .33099366-.021484375 .3809967 .030548096 .4099884 .08859253 .44599916 .16365052 .44799806 .26171876 .44799806 .31976319M.37199403 .33177186C.37199403 .26472474 .37199403 .18867493 .36099244 .12762451 .34199525 .017532349 .2789917-.0014801025 .24398804-.0014801025 .21199036-.0014801025 .14698792 .016540528 .12799073 .12562561 .116989139 .18566895 .116989139 .26171876 .116989139 .33177186 .116989139 .41383363 .116989139 .48789979 .1329956 .54693606 .1499939 .6139984 .20098877 .64501956 .24398804 .64501956 .28199769 .64501956 .33999635 .621994 .35899354 .53593447 .37199403 .47888185 .37199403 .39982606 .37199403 .33177186Z"/>
<path id="font_1_78" d="M.44799806 .32858277C.44799806 .5979767 .33599855 .66503909 .24798584 .66503909 .13798523 .66503909 .040985109 .572937 .040985109 .44075013 .040985109 .30859376 .13398743 .21875 .23399353 .21875 .30799867 .21875 .34599305 .2726593 .3659973 .32359315V.2906189C.3659973 .05493164 .26098634 .005508423 .20098877 .005508423 .1769867 .005508423 .12399292 .008544922 .09899902 .043945314H.10499573C.11199951 .041915895 .147995 .047943117 .147995 .08493042 .147995 .106933597 .1329956 .12593079 .10699463 .12593079 .08099365 .12593079 .06498718 .108932498 .06498718 .08293152 .06498718 .02067566 .114990238-.021484375 .20199585-.021484375 .32699586-.021484375 .44799806 .11193848 .44799806 .32858277M.3639984 .41871644C.3639984 .33459474 .32598878 .23873902 .23799134 .23873902 .1749878 .23873902 .147995 .28962709 .13899231 .30859376 .12298584 .34661866 .12298584 .39468385 .12298584 .43974305 .12298584 .4958191 .12298584 .54389956 .14898682 .5849457 .16699219 .61198428 .19400025 .641037 .24798584 .641037 .30499269 .641037 .33399964 .59095767 .34399415 .5679321 .3639984 .51885989 .3639984 .43373109 .3639984 .41871644Z"/>
<path id="font_1_51" d="M.44799806 .1659851C.44799806 .2679901 .37599183 .31298829 .2979889 .36099244 .34799195 .38798524 .42099 .43400575 .42099 .5180054 .42099 .60502627 .33699037 .66503909 .24499512 .66503909 .1459961 .66503909 .067993167 .59202578 .067993167 .5010071 .067993167 .4670105 .07798767 .43299867 .10598755 .39898683 .116989139 .38598634 .117996219 .3849945 .18798828 .33599855 .09098816 .2908783 .040985109 .22380066 .040985109 .1506958 .040985109 .044555665 .14199829-.021484375 .24398804-.021484375 .35499574-.021484375 .44799806 .060577394 .44799806 .16572571V.1659851M.37998963 .5169983C.37998963 .45599366 .33599855 .40699769 .27799989 .375L.1619873 .45098878C.14898682 .45988465 .10899353 .48590089 .10899353 .5349426 .10899353 .59999087 .1769867 .641037 .24398804 .641037 .31599427 .641037 .37998963 .58898928 .37998963 .516922V.5169983M.4019928 .13360596C.4019928 .057556154 .32499696 .005508423 .24499512 .005508423 .1599884 .005996704 .08699036 .067993167 .08699036 .15098572 .08699036 .22898865 .14399719 .2919922 .20899964 .32199098L.32998658 .24299622C.35598756 .22599793 .4019928 .19499207 .4019928 .13398743V.13360596Z"/>
<path id="font_1_100" d="M.47499085 .6212311V.64424136H.23399353C.11299133 .64424136 .11099243 .65704348 .10699463 .67578127H.084991458L.053985597 .47612H.07598877C.07899475 .49414063 .08799744 .5562134 .100997928 .5672302 .10899353 .5732422 .18399048 .5732422 .19799805 .5732422H.4099884L.3039856 .42105104C.2769928 .38200379 .17599488 .21780396 .17599488 .029571534 .17599488 .018554688 .17599488-.021484375 .21699524-.021484375 .25898744-.021484375 .25898744 .017562867 .25898744 .030578614V.08062744C.25898744 .22981262 .2829895 .34596253 .32998658 .41304017L.47499085 .6212311Z"/>
<path id="font_1_101" d="M.44799806 .2036438C.44799806 .33665467 .35499574 .42578126 .25498963 .42578126 .1659851 .42578126 .1329956 .34864808 .12298584 .3206482V.34765626C.12298584 .60061648 .24598694 .640625 .2999878 .640625 .33599855 .6405945 .37199403 .62960818 .3909912 .5996094 .3789978 .59962466 .34098817 .59962466 .34098817 .55862429 .34098817 .53660586 .35598756 .51760867 .38198854 .51760867 .40699769 .51760867 .42399598 .53260806 .42399598 .56159976 .42399598 .6137543 .38598634 .66503909 .29899598 .66503909 .17298889 .66503909 .040985109 .53559878 .040985109 .31556703 .040985109 .040512086 .16099549-.021484375 .24598694-.021484375 .35499574-.021484375 .44799806 .073516849 .44799806 .20353699V.2036438M.3659973 .20452881C.3659973 .15351868 .3659973 .10852051 .34700013 .070510867 .32199098 .022506714 .28599549 .005508423 .24598694 .005508423 .18299866 .005508423 .15299988 .06150818 .14399719 .08251953 .1349945 .10852051 .125 .15753174 .125 .22753906 .125 .30664063 .16099549 .40577699 .25099183 .40577699 .30599977 .40577699 .33499146 .36872865 .34999085 .33467103 .3659973 .29762269 .3659973 .2475586 .3659973 .20452881Z"/>
</defs>
<path transform="matrix(1.00002,0,0,-1.00003,21.072842,7.7711737)" stroke-width=".79701" stroke-linecap="butt" stroke-miterlimit="10" stroke-linejoin="miter" fill="none" stroke="#000000" d="M-19.84393 0H217.56424"/>
<path transform="matrix(1.00002,0,0,-1.00003,238.64145,7.7711737)" stroke-width=".6376" stroke-linecap="round" stroke-linejoin="round" fill="none" stroke="#000000" d="M-1.55415 2.0722C-1.42464 1.29512 0 .1295 .38852 0 0-.1295-1.42464-1.29512-1.55415-2.0722"/>
<path transform="matrix(1.00002,0,0,-1.00003,21.072842,7.7711737)" stroke-width=".79701" stroke-linecap="butt" stroke-miterlimit="10" stroke-linejoin="miter" fill="none" stroke="#000000" d="M0 3.48697V-3.48697"/>
<use data-text="-" xlink:href="#font_1_64" transform="matrix(11.95544,0,0,-11.95556,13.265686,23.591649)"/>
<use data-text="1" xlink:href="#font_1_82" transform="matrix(11.95544,0,0,-11.95556,17.163159,23.591649)"/>
<use data-text="1" xlink:href="#font_1_82" transform="matrix(11.95544,0,0,-11.95556,23.021325,23.591649)"/>
<path transform="matrix(1.00002,0,0,-1.00003,21.072842,7.7711737)" stroke-width=".79701" stroke-linecap="butt" stroke-miterlimit="10" stroke-linejoin="miter" fill="none" stroke="#000000" d="M39.6849 3.48697V-3.48697"/>
<use data-text="-" xlink:href="#font_1_64" transform="matrix(11.95544,0,0,-11.95556,52.95148,23.591649)"/>
<use data-text="1" xlink:href="#font_1_82" transform="matrix(11.95544,0,0,-11.95556,56.848955,23.591649)"/>
<use data-text="0" xlink:href="#font_1_121" transform="matrix(11.95544,0,0,-11.95556,62.70712,23.591649)"/>
<path transform="matrix(1.00002,0,0,-1.00003,21.072842,7.7711737)" stroke-width=".79701" stroke-linecap="butt" stroke-miterlimit="10" stroke-linejoin="miter" fill="none" stroke="#000000" d="M79.36983 3.48697V-3.48697"/>
<use data-text="-" xlink:href="#font_1_64" transform="matrix(11.95544,0,0,-11.95556,95.56633,23.591649)"/>
<use data-text="9" xlink:href="#font_1_78" transform="matrix(11.95544,0,0,-11.95556,99.463809,23.591649)"/>
<path transform="matrix(1.00002,0,0,-1.00003,21.072842,7.7711737)" stroke-width=".79701" stroke-linecap="butt" stroke-miterlimit="10" stroke-linejoin="miter" fill="none" stroke="#000000" d="M119.05772 3.48697V-3.48697"/>
<use data-text="-" xlink:href="#font_1_64" transform="matrix(11.95544,0,0,-11.95556,135.25513,23.591649)"/>
<use data-text="8" xlink:href="#font_1_51" transform="matrix(11.95544,0,0,-11.95556,139.1526,23.591649)"/>
<path transform="matrix(1.00002,0,0,-1.00003,21.072842,7.7711737)" stroke-width=".79701" stroke-linecap="butt" stroke-miterlimit="10" stroke-linejoin="miter" fill="none" stroke="#000000" d="M158.74265 3.48697V-3.48697"/>
<use data-text="-" xlink:href="#font_1_64" transform="matrix(11.95544,0,0,-11.95556,174.94094,23.723652)"/>
<use data-text="7" xlink:href="#font_1_100" transform="matrix(11.95544,0,0,-11.95556,178.83841,23.723652)"/>
<path transform="matrix(1.00002,0,0,-1.00003,21.072842,7.7711737)" stroke-width=".79701" stroke-linecap="butt" stroke-miterlimit="10" stroke-linejoin="miter" fill="none" stroke="#000000" d="M198.42766 3.48697V-3.48697"/>
<use data-text="-" xlink:href="#font_1_64" transform="matrix(11.95544,0,0,-11.95556,214.62673,23.591649)"/>
<use data-text="6" xlink:href="#font_1_101" transform="matrix(11.95544,0,0,-11.95556,218.5242,23.591649)"/>
<path transform="matrix(1.00002,0,0,-1.00003,21.072842,7.7711737)" stroke-width="1.59404" stroke-linecap="butt" stroke-miterlimit="10" stroke-linejoin="miter" fill="none" stroke="#0000ff" d="M117.0715 0H117.98672"/>
<path transform="matrix(1.00002,0,0,-1.00003,139.06192,7.7711737)" stroke-width="1.59404" stroke-linecap="round" stroke-miterlimit="10" stroke-linejoin="miter" fill="none" stroke="#0000ff" d="M-2.1918-4.38362C1.09589-2.1918 1.09589 2.1918-2.1918 4.38362"/>
<path transform="matrix(1.00002,0,0,-1.00003,21.072842,7.7711737)" d="M-14.6912-5.77113H113.90498C116.7508-5.77113 119.05772-3.4642 119.05772-.6184V.6184C119.05772 3.4642 116.7508 5.77113 113.90498 5.77113H-14.6912C-17.537 5.77113-19.84393 3.4642-19.84393 .6184V-.6184C-19.84393-3.4642-17.537-5.77113-14.6912-5.77113Z" fill="#0000ff" fill-opacity=".2"/>
</svg>
