<svg xmlns="http://www.w3.org/2000/svg" xmlns:xlink="http://www.w3.org/1999/xlink" version="1.1" width="314" height="48" viewBox="0 0 314 48">
<defs>
<path id="font_1_64" d="M.2709961 .18916321V.24316406H.010986328V.18916321H.2709961Z"/>
<path id="font_1_82" d="M.4099884 0V.0289917H.3789978C.29100038 .0289917 .28799439 .041000368 .28799439 .07701111V.6411133C.28799439 .664032 .28799439 .66503909 .2679901 .66503909 .24398804 .63812258 .19400025 .6012573 .09098816 .6012573V.5722656C.11399841 .5722656 .1639862 .5722656 .21899414 .59825137V.07701111C.21899414 .041000368 .21598816 .0289917 .12799073 .0289917H.09700012V0C.12399292 .0019989014 .22099304 .0019989014 .2539978 .0019989014 .2869873 .0019989014 .3829956 .0019989014 .4099884 0Z"/>
<path id="font_1_121" d="M.44799806 .31976319C.44799806 .40283204 .44299317 .48388673 .40699769 .5599518 .3659973 .64302065 .2939911 .66503909 .24499512 .66503909 .18699646 .66503909 .115997318 .6360016 .07899475 .552948 .050994874 .48989869 .040985109 .42785646 .040985109 .31976319 .040985109 .22268677 .04798889 .14964295 .083999637 .07858276 .12298584 .002532959 .19198609-.021484375 .24398804-.021484375 .33099366-.021484375 .3809967 .030548096 .4099884 .08859253 .44599916 .16365052 .44799806 .26171876 .44799806 .31976319M.37199403 .33177186C.37199403 .26472474 .37199403 .18867493 .36099244 .12762451 .34199525 .017532349 .2789917-.0014801025 .24398804-.0014801025 .21199036-.0014801025 .14698792 .016540528 .12799073 .12562561 .116989139 .18566895 .116989139 .26171876 .116989139 .33177186 .116989139 .41383363 .116989139 .48789979 .1329956 .54693606 .1499939 .6139984 .20098877 .64501956 .24398804 .64501956 .28199769 .64501956 .33999635 .621994 .35899354 .53593447 .37199403 .47888185 .37199403 .39982606 .37199403 .33177186Z"/>
<path id="font_1_51" d="M.44799806 .1659851C.44799806 .2679901 .37599183 .31298829 .2979889 .36099244 .34799195 .38798524 .42099 .43400575 .42099 .5180054 .42099 .60502627 .33699037 .66503909 .24499512 .66503909 .1459961 .66503909 .067993167 .59202578 .067993167 .5010071 .067993167 .4670105 .07798767 .43299867 .10598755 .39898683 .116989139 .38598634 .117996219 .3849945 .18798828 .33599855 .09098816 .2908783 .040985109 .22380066 .040985109 .1506958 .040985109 .044555665 .14199829-.021484375 .24398804-.021484375 .35499574-.021484375 .44799806 .060577394 .44799806 .16572571V.1659851M.37998963 .5169983C.37998963 .45599366 .33599855 .40699769 .27799989 .375L.1619873 .45098878C.14898682 .45988465 .10899353 .48590089 .10899353 .5349426 .10899353 .59999087 .1769867 .641037 .24398804 .641037 .31599427 .641037 .37998963 .58898928 .37998963 .516922V.5169983M.4019928 .13360596C.4019928 .057556154 .32499696 .005508423 .24499512 .005508423 .1599884 .005996704 .08699036 .067993167 .08699036 .15098572 .08699036 .22898865 .14399719 .2919922 .20899964 .32199098L.32998658 .24299622C.35598756 .22599793 .4019928 .19499207 .4019928 .13398743V.13360596Z"/>
<path id="font_1_101" d="M.44799806 .2036438C.44799806 .33665467 .35499574 .42578126 .25498963 .42578126 .1659851 .42578126 .1329956 .34864808 .12298584 .3206482V.34765626C.12298584 .60061648 .24598694 .640625 .2999878 .640625 .33599855 .6405945 .37199403 .62960818 .3909912 .5996094 .3789978 .59962466 .34098817 .59962466 .34098817 .55862429 .34098817 .53660586 .35598756 .51760867 .38198854 .51760867 .40699769 .51760867 .42399598 .53260806 .42399598 .56159976 .42399598 .6137543 .38598634 .66503909 .29899598 .66503909 .17298889 .66503909 .040985109 .53559878 .040985109 .31556703 .040985109 .040512086 .16099549-.021484375 .24598694-.021484375 .35499574-.021484375 .44799806 .073516849 .44799806 .20353699V.2036438M.3659973 .20452881C.3659973 .15351868 .3659973 .10852051 .34700013 .070510867 .32199098 .022506714 .28599549 .005508423 .24598694 .005508423 .18299866 .005508423 .15299988 .06150818 .14399719 .08251953 .1349945 .10852051 .125 .15753174 .125 .22753906 .125 .30664063 .16099549 .40577699 .25099183 .40577699 .30599977 .40577699 .33499146 .36872865 .34999085 .33467103 .3659973 .29762269 .3659973 .2475586 .3659973 .20452881Z"/>
<path id="font_1_57" d="M.46199037 .16699219V.19598389H.36099244V.6508026C.36099244 .6697998 .36099244 .6748047 .34700013 .6748047 .33898927 .6748047 .33599855 .6748047 .32798768 .6628113L.026992798 .19598389V.16699219H.2899933V.07598877C.2899933 .038986207 .28799439 .0289917 .21499634 .0289917H.19499207V0C.21798706 .0019989014 .29699708 .0019989014 .32499696 .0019989014 .35299684 .0019989014 .43299867 .0019989014 .45599366 0V.0289917H.43598939C.3639984 .0289917 .36099244 .038986207 .36099244 .07598877V.16699219H.46199037M.29499818 .19598389H.051986696L.29499818 .57284548V.19598389Z"/>
<path id="font_1_107" d="M.43998719 .16799927H.41799928C.4149933 .15098572 .40699769 .09599304 .39698792 .07998657 .3899994 .070999149 .33299256 .070999149 .30299378 .070999149H.117996219C.14498902 .09399414 .20599365 .1579895 .23199463 .18199158 .38398744 .3217926 .43998719 .37374879 .43998719 .47270204 .43998719 .5878906 .34899903 .66503909 .23298645 .66503909 .116989139 .66503909 .04899597 .5658264 .04899597 .4797058 .04899597 .42871095 .09298706 .42871095 .09599304 .42871095 .116989139 .42871095 .14299011 .44371034 .14299011 .475708 .14299011 .5037079 .12399292 .5227051 .09599304 .5227051 .08699036 .5227051 .084991458 .5227051 .08198547 .521698 .100997928 .5899048 .15499878 .6360321 .21998596 .6360321 .30499269 .6360321 .35699464 .56481936 .35699464 .47270204 .35699464 .3877411 .30799867 .313797 .25099183 .24984741L.04899597 .023986817V0H.4139862L.43998719 .16799927Z"/>
<path id="font_2_1" d="M.6589966 .23046875C.6759949 .23046875 .69400027 .23046875 .69400027 .25045777 .69400027 .27046205 .6759949 .27046205 .6589966 .27046205H.117996219C.100997928 .27046205 .08299255 .27046205 .08299255 .25045777 .08299255 .23046875 .100997928 .23046875 .117996219 .23046875H.6589966Z"/>
<path id="font_3_1" d="M.3769989 .2315979H.6419983C.6559906 .2315979 .6729889 .2315979 .6729889 .24859619 .6729889 .26660157 .6569977 .26660157 .6419983 .26660157H.3769989V.5319519C.3769989 .5459595 .3769989 .56295779 .3600006 .56295779 .34199525 .56295779 .34199525 .54696658 .34199525 .5319519V.26660157H.07699585C.06298828 .26660157 .04598999 .26660157 .04598999 .24958802 .04598999 .2315979 .06199646 .2315979 .07699585 .2315979H.34199525V-.032989503C.34199525-.04698181 .34199525-.0639801 .35899354-.0639801 .3769989-.0639801 .3769989-.047973634 .3769989-.032989503V.2315979Z"/>
</defs>
<path transform="matrix(1.00003,0,0,-1.00002,157.13935,24.076462)" stroke-width=".79701" stroke-linecap="butt" stroke-miterlimit="10" stroke-linejoin="miter" fill="none" stroke="#000000" d="M-155.20093 0H155.20093"/>
<path transform="matrix(-1.00003,-0,0,1.00002,1.9337463,24.076462)" stroke-width=".6376" stroke-linecap="round" stroke-linejoin="round" fill="none" stroke="#000000" d="M-1.55415 2.0722C-1.42464 1.29512 0 .1295 .38852 0 0-.1295-1.42464-1.29512-1.55415-2.0722"/>
<path transform="matrix(1.00003,0,0,-1.00002,312.34495,24.076462)" stroke-width=".6376" stroke-linecap="round" stroke-linejoin="round" fill="none" stroke="#000000" d="M-1.55415 2.0722C-1.42464 1.29512 0 .1295 .38852 0 0-.1295-1.42464-1.29512-1.55415-2.0722"/>
<path transform="matrix(1.00003,0,0,-1.00002,157.13935,24.076462)" stroke-width=".79701" stroke-linecap="butt" stroke-miterlimit="10" stroke-linejoin="miter" fill="none" stroke="#000000" d="M-141.73404 2.49069V-2.49069"/>
<use data-text="-" xlink:href="#font_1_64" transform="matrix(11.95556,0,0,-11.95544,7.593857,38.900758)"/>
<use data-text="1" xlink:href="#font_1_82" transform="matrix(11.95556,0,0,-11.95544,11.491364,38.900758)"/>
<use data-text="0" xlink:href="#font_1_121" transform="matrix(11.95556,0,0,-11.95544,17.349595,38.900758)"/>
<path transform="matrix(1.00003,0,0,-1.00002,157.13935,24.076462)" stroke-width=".79701" stroke-linecap="butt" stroke-miterlimit="10" stroke-linejoin="miter" fill="none" stroke="#000000" d="M-113.3876 2.49069V-2.49069"/>
<use data-text="-" xlink:href="#font_1_64" transform="matrix(11.95556,0,0,-11.95544,38.87079,38.900758)"/>
<use data-text="8" xlink:href="#font_1_51" transform="matrix(11.95556,0,0,-11.95544,42.768297,38.900758)"/>
<path transform="matrix(1.00003,0,0,-1.00002,157.13935,24.076462)" stroke-width=".79701" stroke-linecap="butt" stroke-miterlimit="10" stroke-linejoin="miter" fill="none" stroke="#000000" d="M-85.04123 2.49069V-2.49069"/>
<use data-text="-" xlink:href="#font_1_64" transform="matrix(11.95556,0,0,-11.95544,67.21764,38.900758)"/>
<use data-text="6" xlink:href="#font_1_101" transform="matrix(11.95556,0,0,-11.95544,71.11515,38.900758)"/>
<path transform="matrix(1.00003,0,0,-1.00002,157.13935,24.076462)" stroke-width=".79701" stroke-linecap="butt" stroke-miterlimit="10" stroke-linejoin="miter" fill="none" stroke="#000000" d="M-56.69273 2.49069V-2.49069"/>
<use data-text="-" xlink:href="#font_1_64" transform="matrix(11.95556,0,0,-11.95544,95.5665,39.02076)"/>
<use data-text="4" xlink:href="#font_1_57" transform="matrix(11.95556,0,0,-11.95544,99.464008,39.02076)"/>
<path transform="matrix(1.00003,0,0,-1.00002,157.13935,24.076462)" stroke-width=".79701" stroke-linecap="butt" stroke-miterlimit="10" stroke-linejoin="miter" fill="none" stroke="#000000" d="M-28.34636 2.49069V-2.49069"/>
<use data-text="-" xlink:href="#font_1_64" transform="matrix(11.95556,0,0,-11.95544,123.914348,38.900758)"/>
<use data-text="2" xlink:href="#font_1_107" transform="matrix(11.95556,0,0,-11.95544,127.81185,38.900758)"/>
<path transform="matrix(1.00003,0,0,-1.00002,157.13935,24.076462)" stroke-width=".79701" stroke-linecap="butt" stroke-miterlimit="10" stroke-linejoin="miter" fill="none" stroke="#000000" d="M0 2.49069V-2.49069"/>
<use data-text="0" xlink:href="#font_1_121" transform="matrix(11.95556,0,0,-11.95544,154.21025,38.900758)"/>
<path transform="matrix(1.00003,0,0,-1.00002,157.13935,24.076462)" stroke-width=".79701" stroke-linecap="butt" stroke-miterlimit="10" stroke-linejoin="miter" fill="none" stroke="#000000" d="M28.34636 2.49069V-2.49069"/>
<use data-text="2" xlink:href="#font_1_107" transform="matrix(11.95556,0,0,-11.95544,182.5571,38.900758)"/>
<path transform="matrix(1.00003,0,0,-1.00002,157.13935,24.076462)" stroke-width=".79701" stroke-linecap="butt" stroke-miterlimit="10" stroke-linejoin="miter" fill="none" stroke="#000000" d="M56.69273 2.49069V-2.49069"/>
<use data-text="4" xlink:href="#font_1_57" transform="matrix(11.95556,0,0,-11.95544,210.90496,39.02076)"/>
<path transform="matrix(1.00003,0,0,-1.00002,157.13935,24.076462)" stroke-width=".79701" stroke-linecap="butt" stroke-miterlimit="10" stroke-linejoin="miter" fill="none" stroke="#000000" d="M85.04123 2.49069V-2.49069"/>
<use data-text="6" xlink:href="#font_1_101" transform="matrix(11.95556,0,0,-11.95544,239.25382,38.900758)"/>
<path transform="matrix(1.00003,0,0,-1.00002,157.13935,24.076462)" stroke-width=".79701" stroke-linecap="butt" stroke-miterlimit="10" stroke-linejoin="miter" fill="none" stroke="#000000" d="M113.3876 2.49069V-2.49069"/>
<use data-text="8" xlink:href="#font_1_51" transform="matrix(11.95556,0,0,-11.95544,267.60166,38.900758)"/>
<path transform="matrix(1.00003,0,0,-1.00002,157.13935,24.076462)" stroke-width=".79701" stroke-linecap="butt" stroke-miterlimit="10" stroke-linejoin="miter" fill="none" stroke="#000000" d="M141.73404 2.49069V-2.49069"/>
<use data-text="1" xlink:href="#font_1_82" transform="matrix(11.95556,0,0,-11.95544,293.01945,38.900758)"/>
<use data-text="0" xlink:href="#font_1_121" transform="matrix(11.95556,0,0,-11.95544,298.87767,38.900758)"/>
<path transform="matrix(1.00003,0,0,-1.00002,157.13935,24.076462)" stroke-width=".79701" stroke-linecap="butt" stroke-dasharray="2.98883,2.98883" stroke-miterlimit="10" stroke-linejoin="miter" fill="none" stroke="#ff0000" d="M-56.69273-22.67792V22.67792"/>
<path transform="matrix(1.00003,0,0,-1.00002,157.13935,24.076462)" stroke-width=".79701" stroke-linecap="butt" stroke-dasharray="2.98883,2.98883" stroke-miterlimit="10" stroke-linejoin="miter" fill="none" stroke="#ff0000" d="M113.3876-22.67792V22.67792"/>
<use data-text="&#x2212;" xlink:href="#font_2_1" transform="matrix(17.215918,0,0,-17.215746,178.79099,15.622292)"/>
<use data-text="+" xlink:href="#font_3_1" transform="matrix(17.215918,0,0,-17.215746,292.6814,15.964299)"/>
<use data-text="+" xlink:href="#font_3_1" transform="matrix(17.215918,0,0,-17.215746,51.726175,15.964299)"/>
</svg>
