<?xml version="1.0" encoding="utf-8" standalone="no"?>
<!DOCTYPE svg PUBLIC "-//W3C//DTD SVG 1.1//EN"
  "http://www.w3.org/Graphics/SVG/1.1/DTD/svg11.dtd">
<!-- Created with matplotlib (https://matplotlib.org/) -->
<svg height="338.4pt" version="1.1" viewBox="0 0 338.4 338.4" width="338.4pt" xmlns="http://www.w3.org/2000/svg" xmlns:xlink="http://www.w3.org/1999/xlink">
 <metadata>
  <rdf:RDF xmlns:cc="http://creativecommons.org/ns#" xmlns:dc="http://purl.org/dc/elements/1.1/" xmlns:rdf="http://www.w3.org/1999/02/22-rdf-syntax-ns#">
   <cc:Work>
    <dc:type rdf:resource="http://purl.org/dc/dcmitype/StillImage"/>
    <dc:date>2024-08-01T03:43:26.215596</dc:date>
    <dc:format>image/svg+xml</dc:format>
    <dc:creator>
     <cc:Agent>
      <dc:title>Matplotlib v3.3.4, https://matplotlib.org/</dc:title>
     </cc:Agent>
    </dc:creator>
   </cc:Work>
  </rdf:RDF>
 </metadata>
 <defs>
  <style type="text/css">*{stroke-linecap:butt;stroke-linejoin:round;}</style>
 </defs>
 <g id="figure_1">
  <g id="patch_1">
   <path d="M 0 338.4 
L 338.4 338.4 
L 338.4 0 
L 0 0 
z
" style="fill:#ffffff;"/>
  </g>
  <g id="axes_1">
   <g id="patch_2">
    <path d="M 7.2 331.2 
L 331.2 331.2 
L 331.2 7.2 
L 7.2 7.2 
z
" style="fill:#ffffff;"/>
   </g>
   <g id="matplotlib.axis_1">
    <g id="xtick_1">
     <g id="line2d_1">
      <defs>
       <path d="M 0 0 
L 0 3.5 
" id="med7cf70142" style="stroke:#000000;stroke-width:0.8;"/>
      </defs>
      <g>
       <use style="stroke:#000000;stroke-width:0.8;" x="35.683516" xlink:href="#med7cf70142" y="169.2"/>
      </g>
     </g>
     <g id="text_1">
      <!-- −6 -->
      <g transform="translate(28.312423 183.798438)scale(0.1 -0.1)">
       <defs>
        <path d="M 10.59375 35.5 
L 73.1875 35.5 
L 73.1875 27.203125 
L 10.59375 27.203125 
z
" id="DejaVuSans-8722"/>
        <path d="M 33.015625 40.375 
Q 26.375 40.375 22.484375 35.828125 
Q 18.609375 31.296875 18.609375 23.390625 
Q 18.609375 15.53125 22.484375 10.953125 
Q 26.375 6.390625 33.015625 6.390625 
Q 39.65625 6.390625 43.53125 10.953125 
Q 47.40625 15.53125 47.40625 23.390625 
Q 47.40625 31.296875 43.53125 35.828125 
Q 39.65625 40.375 33.015625 40.375 
z
M 52.59375 71.296875 
L 52.59375 62.3125 
Q 48.875 64.0625 45.09375 64.984375 
Q 41.3125 65.921875 37.59375 65.921875 
Q 27.828125 65.921875 22.671875 59.328125 
Q 17.53125 52.734375 16.796875 39.40625 
Q 19.671875 43.65625 24.015625 45.921875 
Q 28.375 48.1875 33.59375 48.1875 
Q 44.578125 48.1875 50.953125 41.515625 
Q 57.328125 34.859375 57.328125 23.390625 
Q 57.328125 12.15625 50.6875 5.359375 
Q 44.046875 -1.421875 33.015625 -1.421875 
Q 20.359375 -1.421875 13.671875 8.265625 
Q 6.984375 17.96875 6.984375 36.375 
Q 6.984375 53.65625 15.1875 63.9375 
Q 23.390625 74.21875 37.203125 74.21875 
Q 40.921875 74.21875 44.703125 73.484375 
Q 48.484375 72.75 52.59375 71.296875 
z
" id="DejaVuSans-54"/>
       </defs>
       <use xlink:href="#DejaVuSans-8722"/>
       <use x="83.789062" xlink:href="#DejaVuSans-54"/>
      </g>
     </g>
    </g>
    <g id="xtick_2">
     <g id="line2d_2">
      <g>
       <use style="stroke:#000000;stroke-width:0.8;" x="80.189011" xlink:href="#med7cf70142" y="169.2"/>
      </g>
     </g>
     <g id="text_2">
      <!-- −4 -->
      <g transform="translate(72.817917 183.798438)scale(0.1 -0.1)">
       <defs>
        <path d="M 37.796875 64.3125 
L 12.890625 25.390625 
L 37.796875 25.390625 
z
M 35.203125 72.90625 
L 47.609375 72.90625 
L 47.609375 25.390625 
L 58.015625 25.390625 
L 58.015625 17.1875 
L 47.609375 17.1875 
L 47.609375 0 
L 37.796875 0 
L 37.796875 17.1875 
L 4.890625 17.1875 
L 4.890625 26.703125 
z
" id="DejaVuSans-52"/>
       </defs>
       <use xlink:href="#DejaVuSans-8722"/>
       <use x="83.789062" xlink:href="#DejaVuSans-52"/>
      </g>
     </g>
    </g>
    <g id="xtick_3">
     <g id="line2d_3">
      <g>
       <use style="stroke:#000000;stroke-width:0.8;" x="124.694505" xlink:href="#med7cf70142" y="169.2"/>
      </g>
     </g>
     <g id="text_3">
      <!-- −2 -->
      <g transform="translate(117.323412 183.798438)scale(0.1 -0.1)">
       <defs>
        <path d="M 19.1875 8.296875 
L 53.609375 8.296875 
L 53.609375 0 
L 7.328125 0 
L 7.328125 8.296875 
Q 12.9375 14.109375 22.625 23.890625 
Q 32.328125 33.6875 34.8125 36.53125 
Q 39.546875 41.84375 41.421875 45.53125 
Q 43.3125 49.21875 43.3125 52.78125 
Q 43.3125 58.59375 39.234375 62.25 
Q 35.15625 65.921875 28.609375 65.921875 
Q 23.96875 65.921875 18.8125 64.3125 
Q 13.671875 62.703125 7.8125 59.421875 
L 7.8125 69.390625 
Q 13.765625 71.78125 18.9375 73 
Q 24.125 74.21875 28.421875 74.21875 
Q 39.75 74.21875 46.484375 68.546875 
Q 53.21875 62.890625 53.21875 53.421875 
Q 53.21875 48.921875 51.53125 44.890625 
Q 49.859375 40.875 45.40625 35.40625 
Q 44.1875 33.984375 37.640625 27.21875 
Q 31.109375 20.453125 19.1875 8.296875 
z
" id="DejaVuSans-50"/>
       </defs>
       <use xlink:href="#DejaVuSans-8722"/>
       <use x="83.789062" xlink:href="#DejaVuSans-50"/>
      </g>
     </g>
    </g>
    <g id="xtick_4">
     <g id="line2d_4">
      <g>
       <use style="stroke:#000000;stroke-width:0.8;" x="169.2" xlink:href="#med7cf70142" y="169.2"/>
      </g>
     </g>
    </g>
    <g id="xtick_5">
     <g id="line2d_5">
      <g>
       <use style="stroke:#000000;stroke-width:0.8;" x="213.705495" xlink:href="#med7cf70142" y="169.2"/>
      </g>
     </g>
     <g id="text_4">
      <!-- 2 -->
      <g transform="translate(210.524245 183.798438)scale(0.1 -0.1)">
       <use xlink:href="#DejaVuSans-50"/>
      </g>
     </g>
    </g>
    <g id="xtick_6">
     <g id="line2d_6">
      <g>
       <use style="stroke:#000000;stroke-width:0.8;" x="258.210989" xlink:href="#med7cf70142" y="169.2"/>
      </g>
     </g>
     <g id="text_5">
      <!-- 4 -->
      <g transform="translate(255.029739 183.798438)scale(0.1 -0.1)">
       <use xlink:href="#DejaVuSans-52"/>
      </g>
     </g>
    </g>
    <g id="xtick_7">
     <g id="line2d_7">
      <g>
       <use style="stroke:#000000;stroke-width:0.8;" x="302.716484" xlink:href="#med7cf70142" y="169.2"/>
      </g>
     </g>
     <g id="text_6">
      <!-- 6 -->
      <g transform="translate(299.535234 183.798438)scale(0.1 -0.1)">
       <use xlink:href="#DejaVuSans-54"/>
      </g>
     </g>
    </g>
    <g id="xtick_8">
     <g id="line2d_8">
      <defs>
       <path d="M 0 0 
L 0 2 
" id="m6830f43abe" style="stroke:#000000;stroke-width:0.6;"/>
      </defs>
      <g>
       <use style="stroke:#000000;stroke-width:0.6;" x="13.430769" xlink:href="#m6830f43abe" y="169.2"/>
      </g>
     </g>
    </g>
    <g id="xtick_9">
     <g id="line2d_9">
      <g>
       <use style="stroke:#000000;stroke-width:0.6;" x="24.557143" xlink:href="#m6830f43abe" y="169.2"/>
      </g>
     </g>
    </g>
    <g id="xtick_10">
     <g id="line2d_10">
      <g>
       <use style="stroke:#000000;stroke-width:0.6;" x="46.80989" xlink:href="#m6830f43abe" y="169.2"/>
      </g>
     </g>
    </g>
    <g id="xtick_11">
     <g id="line2d_11">
      <g>
       <use style="stroke:#000000;stroke-width:0.6;" x="57.936264" xlink:href="#m6830f43abe" y="169.2"/>
      </g>
     </g>
    </g>
    <g id="xtick_12">
     <g id="line2d_12">
      <g>
       <use style="stroke:#000000;stroke-width:0.6;" x="69.062637" xlink:href="#m6830f43abe" y="169.2"/>
      </g>
     </g>
    </g>
    <g id="xtick_13">
     <g id="line2d_13">
      <g>
       <use style="stroke:#000000;stroke-width:0.6;" x="91.315385" xlink:href="#m6830f43abe" y="169.2"/>
      </g>
     </g>
    </g>
    <g id="xtick_14">
     <g id="line2d_14">
      <g>
       <use style="stroke:#000000;stroke-width:0.6;" x="102.441758" xlink:href="#m6830f43abe" y="169.2"/>
      </g>
     </g>
    </g>
    <g id="xtick_15">
     <g id="line2d_15">
      <g>
       <use style="stroke:#000000;stroke-width:0.6;" x="113.568132" xlink:href="#m6830f43abe" y="169.2"/>
      </g>
     </g>
    </g>
    <g id="xtick_16">
     <g id="line2d_16">
      <g>
       <use style="stroke:#000000;stroke-width:0.6;" x="135.820879" xlink:href="#m6830f43abe" y="169.2"/>
      </g>
     </g>
    </g>
    <g id="xtick_17">
     <g id="line2d_17">
      <g>
       <use style="stroke:#000000;stroke-width:0.6;" x="146.947253" xlink:href="#m6830f43abe" y="169.2"/>
      </g>
     </g>
    </g>
    <g id="xtick_18">
     <g id="line2d_18">
      <g>
       <use style="stroke:#000000;stroke-width:0.6;" x="158.073626" xlink:href="#m6830f43abe" y="169.2"/>
      </g>
     </g>
    </g>
    <g id="xtick_19">
     <g id="line2d_19">
      <g>
       <use style="stroke:#000000;stroke-width:0.6;" x="180.326374" xlink:href="#m6830f43abe" y="169.2"/>
      </g>
     </g>
    </g>
    <g id="xtick_20">
     <g id="line2d_20">
      <g>
       <use style="stroke:#000000;stroke-width:0.6;" x="191.452747" xlink:href="#m6830f43abe" y="169.2"/>
      </g>
     </g>
    </g>
    <g id="xtick_21">
     <g id="line2d_21">
      <g>
       <use style="stroke:#000000;stroke-width:0.6;" x="202.579121" xlink:href="#m6830f43abe" y="169.2"/>
      </g>
     </g>
    </g>
    <g id="xtick_22">
     <g id="line2d_22">
      <g>
       <use style="stroke:#000000;stroke-width:0.6;" x="224.831868" xlink:href="#m6830f43abe" y="169.2"/>
      </g>
     </g>
    </g>
    <g id="xtick_23">
     <g id="line2d_23">
      <g>
       <use style="stroke:#000000;stroke-width:0.6;" x="235.958242" xlink:href="#m6830f43abe" y="169.2"/>
      </g>
     </g>
    </g>
    <g id="xtick_24">
     <g id="line2d_24">
      <g>
       <use style="stroke:#000000;stroke-width:0.6;" x="247.084615" xlink:href="#m6830f43abe" y="169.2"/>
      </g>
     </g>
    </g>
    <g id="xtick_25">
     <g id="line2d_25">
      <g>
       <use style="stroke:#000000;stroke-width:0.6;" x="269.337363" xlink:href="#m6830f43abe" y="169.2"/>
      </g>
     </g>
    </g>
    <g id="xtick_26">
     <g id="line2d_26">
      <g>
       <use style="stroke:#000000;stroke-width:0.6;" x="280.463736" xlink:href="#m6830f43abe" y="169.2"/>
      </g>
     </g>
    </g>
    <g id="xtick_27">
     <g id="line2d_27">
      <g>
       <use style="stroke:#000000;stroke-width:0.6;" x="291.59011" xlink:href="#m6830f43abe" y="169.2"/>
      </g>
     </g>
    </g>
    <g id="xtick_28">
     <g id="line2d_28">
      <g>
       <use style="stroke:#000000;stroke-width:0.6;" x="313.842857" xlink:href="#m6830f43abe" y="169.2"/>
      </g>
     </g>
    </g>
    <g id="xtick_29">
     <g id="line2d_29">
      <g>
       <use style="stroke:#000000;stroke-width:0.6;" x="324.969231" xlink:href="#m6830f43abe" y="169.2"/>
      </g>
     </g>
    </g>
   </g>
   <g id="matplotlib.axis_2">
    <g id="ytick_1">
     <g id="line2d_30">
      <defs>
       <path d="M 0 0 
L -3.5 0 
" id="m2e251dbc8e" style="stroke:#000000;stroke-width:0.8;"/>
      </defs>
      <g>
       <use style="stroke:#000000;stroke-width:0.8;" x="169.2" xlink:href="#m2e251dbc8e" y="302.716484"/>
      </g>
     </g>
     <g id="text_7">
      <!-- −6 -->
      <g transform="translate(147.457812 306.515702)scale(0.1 -0.1)">
       <use xlink:href="#DejaVuSans-8722"/>
       <use x="83.789062" xlink:href="#DejaVuSans-54"/>
      </g>
     </g>
    </g>
    <g id="ytick_2">
     <g id="line2d_31">
      <g>
       <use style="stroke:#000000;stroke-width:0.8;" x="169.2" xlink:href="#m2e251dbc8e" y="258.210989"/>
      </g>
     </g>
     <g id="text_8">
      <!-- −4 -->
      <g transform="translate(147.457812 262.010208)scale(0.1 -0.1)">
       <use xlink:href="#DejaVuSans-8722"/>
       <use x="83.789062" xlink:href="#DejaVuSans-52"/>
      </g>
     </g>
    </g>
    <g id="ytick_3">
     <g id="line2d_32">
      <g>
       <use style="stroke:#000000;stroke-width:0.8;" x="169.2" xlink:href="#m2e251dbc8e" y="213.705495"/>
      </g>
     </g>
     <g id="text_9">
      <!-- −2 -->
      <g transform="translate(147.457812 217.504713)scale(0.1 -0.1)">
       <use xlink:href="#DejaVuSans-8722"/>
       <use x="83.789062" xlink:href="#DejaVuSans-50"/>
      </g>
     </g>
    </g>
    <g id="ytick_4">
     <g id="line2d_33">
      <g>
       <use style="stroke:#000000;stroke-width:0.8;" x="169.2" xlink:href="#m2e251dbc8e" y="169.2"/>
      </g>
     </g>
    </g>
    <g id="ytick_5">
     <g id="line2d_34">
      <g>
       <use style="stroke:#000000;stroke-width:0.8;" x="169.2" xlink:href="#m2e251dbc8e" y="124.694505"/>
      </g>
     </g>
     <g id="text_10">
      <!-- 2 -->
      <g transform="translate(155.8375 128.493724)scale(0.1 -0.1)">
       <use xlink:href="#DejaVuSans-50"/>
      </g>
     </g>
    </g>
    <g id="ytick_6">
     <g id="line2d_35">
      <g>
       <use style="stroke:#000000;stroke-width:0.8;" x="169.2" xlink:href="#m2e251dbc8e" y="80.189011"/>
      </g>
     </g>
     <g id="text_11">
      <!-- 4 -->
      <g transform="translate(155.8375 83.98823)scale(0.1 -0.1)">
       <use xlink:href="#DejaVuSans-52"/>
      </g>
     </g>
    </g>
    <g id="ytick_7">
     <g id="line2d_36">
      <g>
       <use style="stroke:#000000;stroke-width:0.8;" x="169.2" xlink:href="#m2e251dbc8e" y="35.683516"/>
      </g>
     </g>
     <g id="text_12">
      <!-- 6 -->
      <g transform="translate(155.8375 39.482735)scale(0.1 -0.1)">
       <use xlink:href="#DejaVuSans-54"/>
      </g>
     </g>
    </g>
    <g id="ytick_8">
     <g id="line2d_37">
      <defs>
       <path d="M 0 0 
L -2 0 
" id="me71867b9c7" style="stroke:#000000;stroke-width:0.6;"/>
      </defs>
      <g>
       <use style="stroke:#000000;stroke-width:0.6;" x="169.2" xlink:href="#me71867b9c7" y="324.969231"/>
      </g>
     </g>
    </g>
    <g id="ytick_9">
     <g id="line2d_38">
      <g>
       <use style="stroke:#000000;stroke-width:0.6;" x="169.2" xlink:href="#me71867b9c7" y="313.842857"/>
      </g>
     </g>
    </g>
    <g id="ytick_10">
     <g id="line2d_39">
      <g>
       <use style="stroke:#000000;stroke-width:0.6;" x="169.2" xlink:href="#me71867b9c7" y="291.59011"/>
      </g>
     </g>
    </g>
    <g id="ytick_11">
     <g id="line2d_40">
      <g>
       <use style="stroke:#000000;stroke-width:0.6;" x="169.2" xlink:href="#me71867b9c7" y="280.463736"/>
      </g>
     </g>
    </g>
    <g id="ytick_12">
     <g id="line2d_41">
      <g>
       <use style="stroke:#000000;stroke-width:0.6;" x="169.2" xlink:href="#me71867b9c7" y="269.337363"/>
      </g>
     </g>
    </g>
    <g id="ytick_13">
     <g id="line2d_42">
      <g>
       <use style="stroke:#000000;stroke-width:0.6;" x="169.2" xlink:href="#me71867b9c7" y="247.084615"/>
      </g>
     </g>
    </g>
    <g id="ytick_14">
     <g id="line2d_43">
      <g>
       <use style="stroke:#000000;stroke-width:0.6;" x="169.2" xlink:href="#me71867b9c7" y="235.958242"/>
      </g>
     </g>
    </g>
    <g id="ytick_15">
     <g id="line2d_44">
      <g>
       <use style="stroke:#000000;stroke-width:0.6;" x="169.2" xlink:href="#me71867b9c7" y="224.831868"/>
      </g>
     </g>
    </g>
    <g id="ytick_16">
     <g id="line2d_45">
      <g>
       <use style="stroke:#000000;stroke-width:0.6;" x="169.2" xlink:href="#me71867b9c7" y="202.579121"/>
      </g>
     </g>
    </g>
    <g id="ytick_17">
     <g id="line2d_46">
      <g>
       <use style="stroke:#000000;stroke-width:0.6;" x="169.2" xlink:href="#me71867b9c7" y="191.452747"/>
      </g>
     </g>
    </g>
    <g id="ytick_18">
     <g id="line2d_47">
      <g>
       <use style="stroke:#000000;stroke-width:0.6;" x="169.2" xlink:href="#me71867b9c7" y="180.326374"/>
      </g>
     </g>
    </g>
    <g id="ytick_19">
     <g id="line2d_48">
      <g>
       <use style="stroke:#000000;stroke-width:0.6;" x="169.2" xlink:href="#me71867b9c7" y="158.073626"/>
      </g>
     </g>
    </g>
    <g id="ytick_20">
     <g id="line2d_49">
      <g>
       <use style="stroke:#000000;stroke-width:0.6;" x="169.2" xlink:href="#me71867b9c7" y="146.947253"/>
      </g>
     </g>
    </g>
    <g id="ytick_21">
     <g id="line2d_50">
      <g>
       <use style="stroke:#000000;stroke-width:0.6;" x="169.2" xlink:href="#me71867b9c7" y="135.820879"/>
      </g>
     </g>
    </g>
    <g id="ytick_22">
     <g id="line2d_51">
      <g>
       <use style="stroke:#000000;stroke-width:0.6;" x="169.2" xlink:href="#me71867b9c7" y="113.568132"/>
      </g>
     </g>
    </g>
    <g id="ytick_23">
     <g id="line2d_52">
      <g>
       <use style="stroke:#000000;stroke-width:0.6;" x="169.2" xlink:href="#me71867b9c7" y="102.441758"/>
      </g>
     </g>
    </g>
    <g id="ytick_24">
     <g id="line2d_53">
      <g>
       <use style="stroke:#000000;stroke-width:0.6;" x="169.2" xlink:href="#me71867b9c7" y="91.315385"/>
      </g>
     </g>
    </g>
    <g id="ytick_25">
     <g id="line2d_54">
      <g>
       <use style="stroke:#000000;stroke-width:0.6;" x="169.2" xlink:href="#me71867b9c7" y="69.062637"/>
      </g>
     </g>
    </g>
    <g id="ytick_26">
     <g id="line2d_55">
      <g>
       <use style="stroke:#000000;stroke-width:0.6;" x="169.2" xlink:href="#me71867b9c7" y="57.936264"/>
      </g>
     </g>
    </g>
    <g id="ytick_27">
     <g id="line2d_56">
      <g>
       <use style="stroke:#000000;stroke-width:0.6;" x="169.2" xlink:href="#me71867b9c7" y="46.80989"/>
      </g>
     </g>
    </g>
    <g id="ytick_28">
     <g id="line2d_57">
      <g>
       <use style="stroke:#000000;stroke-width:0.6;" x="169.2" xlink:href="#me71867b9c7" y="24.557143"/>
      </g>
     </g>
    </g>
    <g id="ytick_29">
     <g id="line2d_58">
      <g>
       <use style="stroke:#000000;stroke-width:0.6;" x="169.2" xlink:href="#me71867b9c7" y="13.430769"/>
      </g>
     </g>
    </g>
   </g>
   <g id="line2d_59">
    <path clip-path="url(#p2e991c69ad)" d="M 13.430769 161.550618 
L 18.961111 160.70003 
L 24.483804 159.678056 
L 29.396083 158.582248 
L 33.372253 157.530944 
L 36.711012 156.506721 
L 41.049935 154.934134 
L 44.185587 153.585837 
L 47.45412 151.942063 
L 50.016117 150.444882 
L 53.488098 148.048882 
L 56.535961 145.50513 
L 58.61426 143.472515 
L 60.815408 140.994226 
L 63.30518 137.693777 
L 65.169799 134.794901 
L 66.960283 131.587086 
L 69.012275 127.282428 
L 70.626773 123.315065 
L 72.188349 118.8784 
L 73.859563 113.328205 
L 75.347199 107.526186 
L 76.80192 100.87719 
L 78.180704 93.470775 
L 79.631256 84.22332 
L 80.933332 74.320144 
L 82.233752 62.504317 
L 83.518331 48.41518 
L 84.605903 34.08242 
L 85.792587 15.194709 
L 86.643315 -1 
M 116.785195 -1 
L 117.755246 20.904299 
L 118.828354 40.680661 
L 120.042268 58.767595 
L 121.18776 72.658476 
L 122.48563 85.555952 
L 123.627193 94.957039 
L 124.965635 104.171599 
L 126.272593 111.678529 
L 127.477949 117.560012 
L 129.078135 124.136626 
L 130.599098 129.348455 
L 132.274615 134.165271 
L 133.623369 137.474018 
L 135.566496 141.525459 
L 137.582295 145.013606 
L 139.52449 147.830461 
L 141.594698 150.364908 
L 143.191813 152.050513 
L 145.696444 154.310517 
L 147.896259 155.98044 
L 149.825765 157.247912 
L 152.225844 158.61231 
L 155.575749 160.199039 
L 158.075817 161.189817 
L 161.681823 162.389723 
L 166.163123 163.587183 
L 166.163123 163.587183 
" style="fill:none;stroke:#0000ff;stroke-linecap:square;stroke-width:3;"/>
   </g>
   <g id="line2d_60">
    <path clip-path="url(#p2e991c69ad)" d="M 171.554451 164.708173 
L 173.472415 165.041595 
L 175.311214 165.334554 
L 176.700708 165.540245 
L 178.397482 165.774747 
L 179.677827 165.940507 
L 181.37615 166.146746 
L 182.305878 166.253511 
L 183.993707 166.437046 
L 186.058757 166.644959 
L 187.606059 166.789778 
L 189.241999 166.933534 
L 189.701978 166.972322 
L 191.17817 167.092241 
L 193.66256 167.279408 
L 195.119265 167.3813 
L 196.324843 167.461575 
L 198.179803 167.578395 
L 199.330309 167.647022 
L 201.411026 167.764231 
L 202.817114 167.838728 
L 203.995623 167.898432 
L 205.355832 167.964408 
L 208.112315 168.08915 
L 208.684336 168.113627 
L 210.682362 168.195587 
L 211.929661 168.244104 
L 214.299871 168.331086 
L 215.469428 168.371642 
L 217.661986 168.443759 
L 218.254462 168.462414 
L 220.850863 168.540256 
L 221.550638 168.560198 
L 223.42096 168.611467 
L 224.574587 168.641682 
L 226.500076 168.689854 
L 227.485841 168.713475 
L 229.30872 168.755397 
L 230.826616 168.788649 
L 232.906284 168.83191 
L 234.615286 168.865588 
L 235.858154 168.889078 
L 236.879061 168.907768 
L 238.732359 168.940365 
L 240.267932 168.966132 
L 241.481608 168.985741 
L 243.914472 169.023143 
L 245.111555 169.04066 
L 246.366684 169.058429 
L 247.533311 169.074417 
L 249.110637 169.095258 
L 251.522798 169.125492 
L 252.232514 169.134028 
L 254.018664 169.154822 
L 255.571096 169.172126 
L 257.343926 169.191053 
L 258.828054 169.206247 
L 261.360337 169.230875 
L 262.21151 169.238803 
L 263.642647 169.251753 
L 265.748458 169.269977 
L 267.66395 169.285737 
L 268.762436 169.29444 
L 270.857356 169.310392 
L 271.31333 169.313756 
L 273.022551 169.326031 
L 275.130822 169.340476 
L 276.553913 169.349812 
L 278.072095 169.35942 
L 279.664839 169.369123 
L 280.71828 169.375336 
L 282.582339 169.385949 
L 283.850316 169.392898 
L 285.768151 169.403012 
L 287.254558 169.410534 
L 288.697631 169.417584 
L 290.702199 169.426979 
L 292.279527 169.434059 
L 293.814448 169.440696 
L 294.539181 169.443746 
L 297.444273 169.455453 
L 297.768567 169.45671 
L 299.923503 169.464819 
L 301.581119 169.470778 
L 303.773608 169.478305 
L 305.111543 169.482707 
L 306.294148 169.486483 
L 307.622195 169.490597 
L 309.00029 169.494729 
L 311.167274 169.500956 
L 311.832827 169.502805 
L 314.297601 169.509397 
L 315.777719 169.51317 
L 317.542354 169.517496 
L 318.320749 169.519346 
L 320.199779 169.52367 
L 321.109847 169.525694 
L 323.284423 169.530351 
L 324.969231 169.533791 
" style="fill:none;stroke:#0000ff;stroke-linecap:square;stroke-width:3;"/>
   </g>
   <g id="line2d_61">
    <path clip-path="url(#p2e991c69ad)" d="M 102.441758 339.4 
L 102.441758 -1 
L 102.441758 -1 
" style="fill:none;stroke:#ff0000;stroke-dasharray:3.7,1.6;stroke-dashoffset:0;"/>
   </g>
   <g id="line2d_62">
    <path clip-path="url(#p2e991c69ad)" d="M 13.430769 169.2 
L 324.969231 169.2 
L 324.969231 169.2 
" style="fill:none;stroke:#ff0000;stroke-dasharray:3.7,1.6;stroke-dashoffset:0;"/>
   </g>
   <g id="patch_3">
    <path d="M 169.2 331.2 
L 169.2 7.2 
" style="fill:none;stroke:#000000;stroke-linecap:square;stroke-linejoin:miter;stroke-width:0.8;"/>
   </g>
   <g id="patch_4">
    <path d="M 7.2 169.2 
L 331.2 169.2 
" style="fill:none;stroke:#000000;stroke-linecap:square;stroke-linejoin:miter;stroke-width:0.8;"/>
   </g>
  </g>
 </g>
 <defs>
  <clipPath id="p2e991c69ad">
   <rect height="324" width="324" x="7.2" y="7.2"/>
  </clipPath>
 </defs>
</svg>
