<?xml version="1.0" encoding="utf-8" standalone="no"?>
<!DOCTYPE svg PUBLIC "-//W3C//DTD SVG 1.1//EN"
  "http://www.w3.org/Graphics/SVG/1.1/DTD/svg11.dtd">
<!-- Created with matplotlib (https://matplotlib.org/) -->
<svg height="337.397538pt" version="1.1" viewBox="0 0 453.087692 337.397538" width="453.087692pt" xmlns="http://www.w3.org/2000/svg" xmlns:xlink="http://www.w3.org/1999/xlink">
 <metadata>
  <rdf:RDF xmlns:cc="http://creativecommons.org/ns#" xmlns:dc="http://purl.org/dc/elements/1.1/" xmlns:rdf="http://www.w3.org/1999/02/22-rdf-syntax-ns#">
   <cc:Work>
    <dc:type rdf:resource="http://purl.org/dc/dcmitype/StillImage"/>
    <dc:date>2024-08-01T03:43:10.288653</dc:date>
    <dc:format>image/svg+xml</dc:format>
    <dc:creator>
     <cc:Agent>
      <dc:title>Matplotlib v3.3.4, https://matplotlib.org/</dc:title>
     </cc:Agent>
    </dc:creator>
   </cc:Work>
  </rdf:RDF>
 </metadata>
 <defs>
  <style type="text/css">*{stroke-linecap:butt;stroke-linejoin:round;}</style>
 </defs>
 <g id="figure_1">
  <g id="patch_1">
   <path d="M 0 337.397538 
L 453.087692 337.397538 
L 453.087692 0 
L 0 0 
z
" style="fill:#ffffff;"/>
  </g>
  <g id="axes_1">
   <g id="patch_2">
    <path d="M 7.2 330.197538 
L 445.887692 330.197538 
L 445.887692 7.2 
L 7.2 7.2 
z
" style="fill:#ffffff;"/>
   </g>
   <g id="PathCollection_1">
    <defs>
     <path d="M 0 3.535534 
C 0.937635 3.535534 1.836992 3.163008 2.5 2.5 
C 3.163008 1.836992 3.535534 0.937635 3.535534 -0 
C 3.535534 -0.937635 3.163008 -1.836992 2.5 -2.5 
C 1.836992 -3.163008 0.937635 -3.535534 0 -3.535534 
C -0.937635 -3.535534 -1.836992 -3.163008 -2.5 -2.5 
C -3.163008 -1.836992 -3.535534 -0.937635 -3.535534 0 
C -3.535534 0.937635 -3.163008 1.836992 -2.5 2.5 
C -1.836992 3.163008 -0.937635 3.535534 0 3.535534 
z
" id="C0_0_efe307fa20"/>
    </defs>
    <g clip-path="url(#p89fdc14a3a)">
     <use style="fill:#0000ff;" x="252.907289" xlink:href="#C0_0_efe307fa20" y="168.698769"/>
    </g>
    <g clip-path="url(#p89fdc14a3a)">
     <use style="fill:#0000ff;" x="279.270732" xlink:href="#C0_0_efe307fa20" y="158.993314"/>
    </g>
    <g clip-path="url(#p89fdc14a3a)">
     <use style="fill:#0000ff;" x="331.997618" xlink:href="#C0_0_efe307fa20" y="149.287859"/>
    </g>
    <g clip-path="url(#p89fdc14a3a)">
     <use style="fill:#0000ff;" x="437.451391" xlink:href="#C0_0_efe307fa20" y="139.582405"/>
    </g>
   </g>
   <g id="matplotlib.axis_1">
    <g id="xtick_1">
     <g id="line2d_1">
      <defs>
       <path d="M 0 0 
L 0 3.5 
" id="m5108382d64" style="stroke:#000000;stroke-width:0.8;"/>
      </defs>
      <g>
       <use style="stroke:#000000;stroke-width:0.8;" x="15.636302" xlink:href="#m5108382d64" y="168.698769"/>
      </g>
     </g>
     <g id="text_1">
      <!-- −8 -->
      <g transform="translate(8.265208 183.297207)scale(0.1 -0.1)">
       <defs>
        <path d="M 10.59375 35.5 
L 73.1875 35.5 
L 73.1875 27.203125 
L 10.59375 27.203125 
z
" id="DejaVuSans-8722"/>
        <path d="M 31.78125 34.625 
Q 24.75 34.625 20.71875 30.859375 
Q 16.703125 27.09375 16.703125 20.515625 
Q 16.703125 13.921875 20.71875 10.15625 
Q 24.75 6.390625 31.78125 6.390625 
Q 38.8125 6.390625 42.859375 10.171875 
Q 46.921875 13.96875 46.921875 20.515625 
Q 46.921875 27.09375 42.890625 30.859375 
Q 38.875 34.625 31.78125 34.625 
z
M 21.921875 38.8125 
Q 15.578125 40.375 12.03125 44.71875 
Q 8.5 49.078125 8.5 55.328125 
Q 8.5 64.0625 14.71875 69.140625 
Q 20.953125 74.21875 31.78125 74.21875 
Q 42.671875 74.21875 48.875 69.140625 
Q 55.078125 64.0625 55.078125 55.328125 
Q 55.078125 49.078125 51.53125 44.71875 
Q 48 40.375 41.703125 38.8125 
Q 48.828125 37.15625 52.796875 32.3125 
Q 56.78125 27.484375 56.78125 20.515625 
Q 56.78125 9.90625 50.3125 4.234375 
Q 43.84375 -1.421875 31.78125 -1.421875 
Q 19.734375 -1.421875 13.25 4.234375 
Q 6.78125 9.90625 6.78125 20.515625 
Q 6.78125 27.484375 10.78125 32.3125 
Q 14.796875 37.15625 21.921875 38.8125 
z
M 18.3125 54.390625 
Q 18.3125 48.734375 21.84375 45.5625 
Q 25.390625 42.390625 31.78125 42.390625 
Q 38.140625 42.390625 41.71875 45.5625 
Q 45.3125 48.734375 45.3125 54.390625 
Q 45.3125 60.0625 41.71875 63.234375 
Q 38.140625 66.40625 31.78125 66.40625 
Q 25.390625 66.40625 21.84375 63.234375 
Q 18.3125 60.0625 18.3125 54.390625 
z
" id="DejaVuSans-56"/>
       </defs>
       <use xlink:href="#DejaVuSans-8722"/>
       <use x="83.789062" xlink:href="#DejaVuSans-56"/>
      </g>
     </g>
    </g>
    <g id="xtick_2">
     <g id="line2d_2">
      <g>
       <use style="stroke:#000000;stroke-width:0.8;" x="68.363188" xlink:href="#m5108382d64" y="168.698769"/>
      </g>
     </g>
     <g id="text_2">
      <!-- −6 -->
      <g transform="translate(60.992094 183.297207)scale(0.1 -0.1)">
       <defs>
        <path d="M 33.015625 40.375 
Q 26.375 40.375 22.484375 35.828125 
Q 18.609375 31.296875 18.609375 23.390625 
Q 18.609375 15.53125 22.484375 10.953125 
Q 26.375 6.390625 33.015625 6.390625 
Q 39.65625 6.390625 43.53125 10.953125 
Q 47.40625 15.53125 47.40625 23.390625 
Q 47.40625 31.296875 43.53125 35.828125 
Q 39.65625 40.375 33.015625 40.375 
z
M 52.59375 71.296875 
L 52.59375 62.3125 
Q 48.875 64.0625 45.09375 64.984375 
Q 41.3125 65.921875 37.59375 65.921875 
Q 27.828125 65.921875 22.671875 59.328125 
Q 17.53125 52.734375 16.796875 39.40625 
Q 19.671875 43.65625 24.015625 45.921875 
Q 28.375 48.1875 33.59375 48.1875 
Q 44.578125 48.1875 50.953125 41.515625 
Q 57.328125 34.859375 57.328125 23.390625 
Q 57.328125 12.15625 50.6875 5.359375 
Q 44.046875 -1.421875 33.015625 -1.421875 
Q 20.359375 -1.421875 13.671875 8.265625 
Q 6.984375 17.96875 6.984375 36.375 
Q 6.984375 53.65625 15.1875 63.9375 
Q 23.390625 74.21875 37.203125 74.21875 
Q 40.921875 74.21875 44.703125 73.484375 
Q 48.484375 72.75 52.59375 71.296875 
z
" id="DejaVuSans-54"/>
       </defs>
       <use xlink:href="#DejaVuSans-8722"/>
       <use x="83.789062" xlink:href="#DejaVuSans-54"/>
      </g>
     </g>
    </g>
    <g id="xtick_3">
     <g id="line2d_3">
      <g>
       <use style="stroke:#000000;stroke-width:0.8;" x="121.090074" xlink:href="#m5108382d64" y="168.698769"/>
      </g>
     </g>
     <g id="text_3">
      <!-- −4 -->
      <g transform="translate(113.71898 183.297207)scale(0.1 -0.1)">
       <defs>
        <path d="M 37.796875 64.3125 
L 12.890625 25.390625 
L 37.796875 25.390625 
z
M 35.203125 72.90625 
L 47.609375 72.90625 
L 47.609375 25.390625 
L 58.015625 25.390625 
L 58.015625 17.1875 
L 47.609375 17.1875 
L 47.609375 0 
L 37.796875 0 
L 37.796875 17.1875 
L 4.890625 17.1875 
L 4.890625 26.703125 
z
" id="DejaVuSans-52"/>
       </defs>
       <use xlink:href="#DejaVuSans-8722"/>
       <use x="83.789062" xlink:href="#DejaVuSans-52"/>
      </g>
     </g>
    </g>
    <g id="xtick_4">
     <g id="line2d_4">
      <g>
       <use style="stroke:#000000;stroke-width:0.8;" x="173.81696" xlink:href="#m5108382d64" y="168.698769"/>
      </g>
     </g>
     <g id="text_4">
      <!-- −2 -->
      <g transform="translate(166.445866 183.297207)scale(0.1 -0.1)">
       <defs>
        <path d="M 19.1875 8.296875 
L 53.609375 8.296875 
L 53.609375 0 
L 7.328125 0 
L 7.328125 8.296875 
Q 12.9375 14.109375 22.625 23.890625 
Q 32.328125 33.6875 34.8125 36.53125 
Q 39.546875 41.84375 41.421875 45.53125 
Q 43.3125 49.21875 43.3125 52.78125 
Q 43.3125 58.59375 39.234375 62.25 
Q 35.15625 65.921875 28.609375 65.921875 
Q 23.96875 65.921875 18.8125 64.3125 
Q 13.671875 62.703125 7.8125 59.421875 
L 7.8125 69.390625 
Q 13.765625 71.78125 18.9375 73 
Q 24.125 74.21875 28.421875 74.21875 
Q 39.75 74.21875 46.484375 68.546875 
Q 53.21875 62.890625 53.21875 53.421875 
Q 53.21875 48.921875 51.53125 44.890625 
Q 49.859375 40.875 45.40625 35.40625 
Q 44.1875 33.984375 37.640625 27.21875 
Q 31.109375 20.453125 19.1875 8.296875 
z
" id="DejaVuSans-50"/>
       </defs>
       <use xlink:href="#DejaVuSans-8722"/>
       <use x="83.789062" xlink:href="#DejaVuSans-50"/>
      </g>
     </g>
    </g>
    <g id="xtick_5">
     <g id="line2d_5">
      <g>
       <use style="stroke:#000000;stroke-width:0.8;" x="226.543846" xlink:href="#m5108382d64" y="168.698769"/>
      </g>
     </g>
    </g>
    <g id="xtick_6">
     <g id="line2d_6">
      <g>
       <use style="stroke:#000000;stroke-width:0.8;" x="279.270732" xlink:href="#m5108382d64" y="168.698769"/>
      </g>
     </g>
     <g id="text_5">
      <!-- 2 -->
      <g transform="translate(276.089482 183.297207)scale(0.1 -0.1)">
       <use xlink:href="#DejaVuSans-50"/>
      </g>
     </g>
    </g>
    <g id="xtick_7">
     <g id="line2d_7">
      <g>
       <use style="stroke:#000000;stroke-width:0.8;" x="331.997618" xlink:href="#m5108382d64" y="168.698769"/>
      </g>
     </g>
     <g id="text_6">
      <!-- 4 -->
      <g transform="translate(328.816368 183.297207)scale(0.1 -0.1)">
       <use xlink:href="#DejaVuSans-52"/>
      </g>
     </g>
    </g>
    <g id="xtick_8">
     <g id="line2d_8">
      <g>
       <use style="stroke:#000000;stroke-width:0.8;" x="384.724504" xlink:href="#m5108382d64" y="168.698769"/>
      </g>
     </g>
     <g id="text_7">
      <!-- 6 -->
      <g transform="translate(381.543254 183.297207)scale(0.1 -0.1)">
       <use xlink:href="#DejaVuSans-54"/>
      </g>
     </g>
    </g>
    <g id="xtick_9">
     <g id="line2d_9">
      <g>
       <use style="stroke:#000000;stroke-width:0.8;" x="437.451391" xlink:href="#m5108382d64" y="168.698769"/>
      </g>
     </g>
     <g id="text_8">
      <!-- 8 -->
      <g transform="translate(434.270141 183.297207)scale(0.1 -0.1)">
       <use xlink:href="#DejaVuSans-56"/>
      </g>
     </g>
    </g>
    <g id="xtick_10">
     <g id="line2d_10">
      <defs>
       <path d="M 0 0 
L 0 2 
" id="m915b3efd04" style="stroke:#000000;stroke-width:0.6;"/>
      </defs>
      <g>
       <use style="stroke:#000000;stroke-width:0.6;" x="28.818023" xlink:href="#m915b3efd04" y="168.698769"/>
      </g>
     </g>
    </g>
    <g id="xtick_11">
     <g id="line2d_11">
      <g>
       <use style="stroke:#000000;stroke-width:0.6;" x="41.999745" xlink:href="#m915b3efd04" y="168.698769"/>
      </g>
     </g>
    </g>
    <g id="xtick_12">
     <g id="line2d_12">
      <g>
       <use style="stroke:#000000;stroke-width:0.6;" x="55.181466" xlink:href="#m915b3efd04" y="168.698769"/>
      </g>
     </g>
    </g>
    <g id="xtick_13">
     <g id="line2d_13">
      <g>
       <use style="stroke:#000000;stroke-width:0.6;" x="81.544909" xlink:href="#m915b3efd04" y="168.698769"/>
      </g>
     </g>
    </g>
    <g id="xtick_14">
     <g id="line2d_14">
      <g>
       <use style="stroke:#000000;stroke-width:0.6;" x="94.726631" xlink:href="#m915b3efd04" y="168.698769"/>
      </g>
     </g>
    </g>
    <g id="xtick_15">
     <g id="line2d_15">
      <g>
       <use style="stroke:#000000;stroke-width:0.6;" x="107.908352" xlink:href="#m915b3efd04" y="168.698769"/>
      </g>
     </g>
    </g>
    <g id="xtick_16">
     <g id="line2d_16">
      <g>
       <use style="stroke:#000000;stroke-width:0.6;" x="134.271795" xlink:href="#m915b3efd04" y="168.698769"/>
      </g>
     </g>
    </g>
    <g id="xtick_17">
     <g id="line2d_17">
      <g>
       <use style="stroke:#000000;stroke-width:0.6;" x="147.453517" xlink:href="#m915b3efd04" y="168.698769"/>
      </g>
     </g>
    </g>
    <g id="xtick_18">
     <g id="line2d_18">
      <g>
       <use style="stroke:#000000;stroke-width:0.6;" x="160.635239" xlink:href="#m915b3efd04" y="168.698769"/>
      </g>
     </g>
    </g>
    <g id="xtick_19">
     <g id="line2d_19">
      <g>
       <use style="stroke:#000000;stroke-width:0.6;" x="186.998682" xlink:href="#m915b3efd04" y="168.698769"/>
      </g>
     </g>
    </g>
    <g id="xtick_20">
     <g id="line2d_20">
      <g>
       <use style="stroke:#000000;stroke-width:0.6;" x="200.180403" xlink:href="#m915b3efd04" y="168.698769"/>
      </g>
     </g>
    </g>
    <g id="xtick_21">
     <g id="line2d_21">
      <g>
       <use style="stroke:#000000;stroke-width:0.6;" x="213.362125" xlink:href="#m915b3efd04" y="168.698769"/>
      </g>
     </g>
    </g>
    <g id="xtick_22">
     <g id="line2d_22">
      <g>
       <use style="stroke:#000000;stroke-width:0.6;" x="239.725568" xlink:href="#m915b3efd04" y="168.698769"/>
      </g>
     </g>
    </g>
    <g id="xtick_23">
     <g id="line2d_23">
      <g>
       <use style="stroke:#000000;stroke-width:0.6;" x="252.907289" xlink:href="#m915b3efd04" y="168.698769"/>
      </g>
     </g>
    </g>
    <g id="xtick_24">
     <g id="line2d_24">
      <g>
       <use style="stroke:#000000;stroke-width:0.6;" x="266.089011" xlink:href="#m915b3efd04" y="168.698769"/>
      </g>
     </g>
    </g>
    <g id="xtick_25">
     <g id="line2d_25">
      <g>
       <use style="stroke:#000000;stroke-width:0.6;" x="292.452454" xlink:href="#m915b3efd04" y="168.698769"/>
      </g>
     </g>
    </g>
    <g id="xtick_26">
     <g id="line2d_26">
      <g>
       <use style="stroke:#000000;stroke-width:0.6;" x="305.634175" xlink:href="#m915b3efd04" y="168.698769"/>
      </g>
     </g>
    </g>
    <g id="xtick_27">
     <g id="line2d_27">
      <g>
       <use style="stroke:#000000;stroke-width:0.6;" x="318.815897" xlink:href="#m915b3efd04" y="168.698769"/>
      </g>
     </g>
    </g>
    <g id="xtick_28">
     <g id="line2d_28">
      <g>
       <use style="stroke:#000000;stroke-width:0.6;" x="345.17934" xlink:href="#m915b3efd04" y="168.698769"/>
      </g>
     </g>
    </g>
    <g id="xtick_29">
     <g id="line2d_29">
      <g>
       <use style="stroke:#000000;stroke-width:0.6;" x="358.361061" xlink:href="#m915b3efd04" y="168.698769"/>
      </g>
     </g>
    </g>
    <g id="xtick_30">
     <g id="line2d_30">
      <g>
       <use style="stroke:#000000;stroke-width:0.6;" x="371.542783" xlink:href="#m915b3efd04" y="168.698769"/>
      </g>
     </g>
    </g>
    <g id="xtick_31">
     <g id="line2d_31">
      <g>
       <use style="stroke:#000000;stroke-width:0.6;" x="397.906226" xlink:href="#m915b3efd04" y="168.698769"/>
      </g>
     </g>
    </g>
    <g id="xtick_32">
     <g id="line2d_32">
      <g>
       <use style="stroke:#000000;stroke-width:0.6;" x="411.087947" xlink:href="#m915b3efd04" y="168.698769"/>
      </g>
     </g>
    </g>
    <g id="xtick_33">
     <g id="line2d_33">
      <g>
       <use style="stroke:#000000;stroke-width:0.6;" x="424.269669" xlink:href="#m915b3efd04" y="168.698769"/>
      </g>
     </g>
    </g>
   </g>
   <g id="matplotlib.axis_2">
    <g id="ytick_1">
     <g id="line2d_34">
      <defs>
       <path d="M 0 0 
L -3.5 0 
" id="m32caaef33b" style="stroke:#000000;stroke-width:0.8;"/>
      </defs>
      <g>
       <use style="stroke:#000000;stroke-width:0.8;" x="226.543846" xlink:href="#m32caaef33b" y="323.986047"/>
      </g>
     </g>
     <g id="text_9">
      <!-- −8 -->
      <g transform="translate(204.801659 327.785266)scale(0.1 -0.1)">
       <use xlink:href="#DejaVuSans-8722"/>
       <use x="83.789062" xlink:href="#DejaVuSans-56"/>
      </g>
     </g>
    </g>
    <g id="ytick_2">
     <g id="line2d_35">
      <g>
       <use style="stroke:#000000;stroke-width:0.8;" x="226.543846" xlink:href="#m32caaef33b" y="285.164228"/>
      </g>
     </g>
     <g id="text_10">
      <!-- −6 -->
      <g transform="translate(204.801659 288.963447)scale(0.1 -0.1)">
       <use xlink:href="#DejaVuSans-8722"/>
       <use x="83.789062" xlink:href="#DejaVuSans-54"/>
      </g>
     </g>
    </g>
    <g id="ytick_3">
     <g id="line2d_36">
      <g>
       <use style="stroke:#000000;stroke-width:0.8;" x="226.543846" xlink:href="#m32caaef33b" y="246.342408"/>
      </g>
     </g>
     <g id="text_11">
      <!-- −4 -->
      <g transform="translate(204.801659 250.141627)scale(0.1 -0.1)">
       <use xlink:href="#DejaVuSans-8722"/>
       <use x="83.789062" xlink:href="#DejaVuSans-52"/>
      </g>
     </g>
    </g>
    <g id="ytick_4">
     <g id="line2d_37">
      <g>
       <use style="stroke:#000000;stroke-width:0.8;" x="226.543846" xlink:href="#m32caaef33b" y="207.520589"/>
      </g>
     </g>
     <g id="text_12">
      <!-- −2 -->
      <g transform="translate(204.801659 211.319808)scale(0.1 -0.1)">
       <use xlink:href="#DejaVuSans-8722"/>
       <use x="83.789062" xlink:href="#DejaVuSans-50"/>
      </g>
     </g>
    </g>
    <g id="ytick_5">
     <g id="line2d_38">
      <g>
       <use style="stroke:#000000;stroke-width:0.8;" x="226.543846" xlink:href="#m32caaef33b" y="168.698769"/>
      </g>
     </g>
    </g>
    <g id="ytick_6">
     <g id="line2d_39">
      <g>
       <use style="stroke:#000000;stroke-width:0.8;" x="226.543846" xlink:href="#m32caaef33b" y="129.87695"/>
      </g>
     </g>
     <g id="text_13">
      <!-- 2 -->
      <g transform="translate(213.181346 133.676168)scale(0.1 -0.1)">
       <use xlink:href="#DejaVuSans-50"/>
      </g>
     </g>
    </g>
    <g id="ytick_7">
     <g id="line2d_40">
      <g>
       <use style="stroke:#000000;stroke-width:0.8;" x="226.543846" xlink:href="#m32caaef33b" y="91.05513"/>
      </g>
     </g>
     <g id="text_14">
      <!-- 4 -->
      <g transform="translate(213.181346 94.854349)scale(0.1 -0.1)">
       <use xlink:href="#DejaVuSans-52"/>
      </g>
     </g>
    </g>
    <g id="ytick_8">
     <g id="line2d_41">
      <g>
       <use style="stroke:#000000;stroke-width:0.8;" x="226.543846" xlink:href="#m32caaef33b" y="52.233311"/>
      </g>
     </g>
     <g id="text_15">
      <!-- 6 -->
      <g transform="translate(213.181346 56.032529)scale(0.1 -0.1)">
       <use xlink:href="#DejaVuSans-54"/>
      </g>
     </g>
    </g>
    <g id="ytick_9">
     <g id="line2d_42">
      <g>
       <use style="stroke:#000000;stroke-width:0.8;" x="226.543846" xlink:href="#m32caaef33b" y="13.411491"/>
      </g>
     </g>
     <g id="text_16">
      <!-- 8 -->
      <g transform="translate(213.181346 17.21071)scale(0.1 -0.1)">
       <use xlink:href="#DejaVuSans-56"/>
      </g>
     </g>
    </g>
    <g id="ytick_10">
     <g id="line2d_43">
      <defs>
       <path d="M 0 0 
L -2 0 
" id="m0dc73e4340" style="stroke:#000000;stroke-width:0.6;"/>
      </defs>
      <g>
       <use style="stroke:#000000;stroke-width:0.6;" x="226.543846" xlink:href="#m0dc73e4340" y="314.280592"/>
      </g>
     </g>
    </g>
    <g id="ytick_11">
     <g id="line2d_44">
      <g>
       <use style="stroke:#000000;stroke-width:0.6;" x="226.543846" xlink:href="#m0dc73e4340" y="304.575138"/>
      </g>
     </g>
    </g>
    <g id="ytick_12">
     <g id="line2d_45">
      <g>
       <use style="stroke:#000000;stroke-width:0.6;" x="226.543846" xlink:href="#m0dc73e4340" y="294.869683"/>
      </g>
     </g>
    </g>
    <g id="ytick_13">
     <g id="line2d_46">
      <g>
       <use style="stroke:#000000;stroke-width:0.6;" x="226.543846" xlink:href="#m0dc73e4340" y="275.458773"/>
      </g>
     </g>
    </g>
    <g id="ytick_14">
     <g id="line2d_47">
      <g>
       <use style="stroke:#000000;stroke-width:0.6;" x="226.543846" xlink:href="#m0dc73e4340" y="265.753318"/>
      </g>
     </g>
    </g>
    <g id="ytick_15">
     <g id="line2d_48">
      <g>
       <use style="stroke:#000000;stroke-width:0.6;" x="226.543846" xlink:href="#m0dc73e4340" y="256.047863"/>
      </g>
     </g>
    </g>
    <g id="ytick_16">
     <g id="line2d_49">
      <g>
       <use style="stroke:#000000;stroke-width:0.6;" x="226.543846" xlink:href="#m0dc73e4340" y="236.636953"/>
      </g>
     </g>
    </g>
    <g id="ytick_17">
     <g id="line2d_50">
      <g>
       <use style="stroke:#000000;stroke-width:0.6;" x="226.543846" xlink:href="#m0dc73e4340" y="226.931499"/>
      </g>
     </g>
    </g>
    <g id="ytick_18">
     <g id="line2d_51">
      <g>
       <use style="stroke:#000000;stroke-width:0.6;" x="226.543846" xlink:href="#m0dc73e4340" y="217.226044"/>
      </g>
     </g>
    </g>
    <g id="ytick_19">
     <g id="line2d_52">
      <g>
       <use style="stroke:#000000;stroke-width:0.6;" x="226.543846" xlink:href="#m0dc73e4340" y="197.815134"/>
      </g>
     </g>
    </g>
    <g id="ytick_20">
     <g id="line2d_53">
      <g>
       <use style="stroke:#000000;stroke-width:0.6;" x="226.543846" xlink:href="#m0dc73e4340" y="188.109679"/>
      </g>
     </g>
    </g>
    <g id="ytick_21">
     <g id="line2d_54">
      <g>
       <use style="stroke:#000000;stroke-width:0.6;" x="226.543846" xlink:href="#m0dc73e4340" y="178.404224"/>
      </g>
     </g>
    </g>
    <g id="ytick_22">
     <g id="line2d_55">
      <g>
       <use style="stroke:#000000;stroke-width:0.6;" x="226.543846" xlink:href="#m0dc73e4340" y="158.993314"/>
      </g>
     </g>
    </g>
    <g id="ytick_23">
     <g id="line2d_56">
      <g>
       <use style="stroke:#000000;stroke-width:0.6;" x="226.543846" xlink:href="#m0dc73e4340" y="149.287859"/>
      </g>
     </g>
    </g>
    <g id="ytick_24">
     <g id="line2d_57">
      <g>
       <use style="stroke:#000000;stroke-width:0.6;" x="226.543846" xlink:href="#m0dc73e4340" y="139.582405"/>
      </g>
     </g>
    </g>
    <g id="ytick_25">
     <g id="line2d_58">
      <g>
       <use style="stroke:#000000;stroke-width:0.6;" x="226.543846" xlink:href="#m0dc73e4340" y="120.171495"/>
      </g>
     </g>
    </g>
    <g id="ytick_26">
     <g id="line2d_59">
      <g>
       <use style="stroke:#000000;stroke-width:0.6;" x="226.543846" xlink:href="#m0dc73e4340" y="110.46604"/>
      </g>
     </g>
    </g>
    <g id="ytick_27">
     <g id="line2d_60">
      <g>
       <use style="stroke:#000000;stroke-width:0.6;" x="226.543846" xlink:href="#m0dc73e4340" y="100.760585"/>
      </g>
     </g>
    </g>
    <g id="ytick_28">
     <g id="line2d_61">
      <g>
       <use style="stroke:#000000;stroke-width:0.6;" x="226.543846" xlink:href="#m0dc73e4340" y="81.349675"/>
      </g>
     </g>
    </g>
    <g id="ytick_29">
     <g id="line2d_62">
      <g>
       <use style="stroke:#000000;stroke-width:0.6;" x="226.543846" xlink:href="#m0dc73e4340" y="71.64422"/>
      </g>
     </g>
    </g>
    <g id="ytick_30">
     <g id="line2d_63">
      <g>
       <use style="stroke:#000000;stroke-width:0.6;" x="226.543846" xlink:href="#m0dc73e4340" y="61.938766"/>
      </g>
     </g>
    </g>
    <g id="ytick_31">
     <g id="line2d_64">
      <g>
       <use style="stroke:#000000;stroke-width:0.6;" x="226.543846" xlink:href="#m0dc73e4340" y="42.527856"/>
      </g>
     </g>
    </g>
    <g id="ytick_32">
     <g id="line2d_65">
      <g>
       <use style="stroke:#000000;stroke-width:0.6;" x="226.543846" xlink:href="#m0dc73e4340" y="32.822401"/>
      </g>
     </g>
    </g>
    <g id="ytick_33">
     <g id="line2d_66">
      <g>
       <use style="stroke:#000000;stroke-width:0.6;" x="226.543846" xlink:href="#m0dc73e4340" y="23.116946"/>
      </g>
     </g>
    </g>
   </g>
   <g id="line2d_67">
    <path clip-path="url(#p89fdc14a3a)" d="M 226.543846 338.397538 
L 226.543846 -1 
" style="fill:none;stroke:#ff0000;stroke-dasharray:11.1,4.8;stroke-dashoffset:0;stroke-width:3;"/>
   </g>
   <g id="line2d_68">
    <path clip-path="url(#p89fdc14a3a)" d="M 226.54411 329.902885 
L 226.702043 240.3316 
L 226.978425 226.18201 
L 227.373257 217.131974 
L 227.861055 210.655281 
L 228.449363 205.485204 
L 229.159376 201.050582 
L 230.02752 197.037314 
L 231.009241 193.561029 
L 232.163422 190.341988 
L 233.588507 187.177341 
L 235.137384 184.394574 
L 236.82662 181.881779 
L 238.885922 179.325794 
L 240.719766 177.386088 
L 243.069988 175.238196 
L 245.619475 173.229355 
L 248.655114 171.161597 
L 252.29386 169.028421 
L 255.992482 167.149177 
L 260.014165 165.356759 
L 265.125258 163.366911 
L 270.117375 161.663157 
L 276.053236 159.874925 
L 283.249666 157.974649 
L 291.598025 156.051562 
L 301.121385 154.138623 
L 311.680706 152.284466 
L 323.015609 150.534351 
L 336.627877 148.686175 
L 351.185017 146.947195 
L 368.148455 145.160542 
L 370.707233 144.909786 
L 370.707233 144.909786 
" style="fill:none;stroke:#0000ff;stroke-linecap:square;stroke-width:3;"/>
   </g>
   <g id="line2d_69">
    <path clip-path="url(#p89fdc14a3a)" d="M 374.906543 144.507751 
L 375.246861 144.47567 
L 376.314673 144.375483 
L 378.054004 144.213811 
L 379.327739 144.096589 
L 380.075431 144.028233 
L 381.534736 143.895774 
L 383.094671 143.755552 
L 384.486744 143.631595 
L 385.09814 143.577497 
L 386.011195 143.497096 
L 386.916981 143.417789 
L 388.386588 143.290063 
L 390.12333 143.140608 
L 391.088539 143.058231 
L 392.677309 142.923682 
L 393.791053 142.830127 
L 395.020165 142.727602 
L 395.890919 142.65542 
L 397.381805 142.532689 
L 398.152467 142.469667 
L 399.819461 142.334309 
L 400.04118 142.316404 
L 402.194731 142.143673 
L 403.478427 142.041715 
L 403.958045 142.003811 
L 405.717474 141.865636 
L 406.701775 141.788926 
L 407.86426 141.698867 
L 408.377824 141.659264 
L 409.750884 141.55393 
L 411.067182 141.453688 
L 412.146933 141.371993 
L 413.486438 141.271303 
L 414.672815 141.182724 
L 416.272193 141.064189 
L 417.472984 140.97585 
L 418.840869 140.875892 
L 419.54328 140.82484 
L 420.798297 140.734083 
L 422.655859 140.600825 
L 423.369333 140.549977 
L 424.553228 140.466008 
L 425.223148 140.418715 
L 427.092677 140.287575 
L 428.385132 140.197628 
L 429.456078 140.123531 
L 430.132999 140.076898 
L 431.676213 139.971162 
L 433.353149 139.857162 
L 434.023756 139.811832 
L 434.927445 139.750978 
L 435.958575 139.681864 
L 438.155305 139.53575 
L 439.26266 139.462669 
L 440.41145 139.387254 
L 441.540743 139.313514 
L 441.896014 139.290395 
L 443.671244 139.175444 
L 444.201469 139.141293 
L 445.95961 139.028646 
L 446.960796 138.9649 
L 447.912165 138.904594 
L 449.482924 138.805591 
L 450.660821 138.731807 
L 451.748512 138.664016 
L 452.510555 138.616716 
L 453.986427 138.525561 
L 454.087692 138.519349 
" style="fill:none;stroke:#0000ff;stroke-linecap:square;stroke-width:3;"/>
   </g>
   <g id="line2d_70">
    <path clip-path="url(#p89fdc14a3a)" d="M 7.2 323.986047 
L 445.887692 323.986047 
" style="fill:none;stroke:#000000;stroke-dasharray:0.5,0.825;stroke-dashoffset:0;stroke-width:0.5;"/>
   </g>
   <g id="line2d_71">
    <path clip-path="url(#p89fdc14a3a)" d="M 7.2 304.575138 
L 445.887692 304.575138 
" style="fill:none;stroke:#000000;stroke-dasharray:0.5,0.825;stroke-dashoffset:0;stroke-width:0.5;"/>
   </g>
   <g id="line2d_72">
    <path clip-path="url(#p89fdc14a3a)" d="M 7.2 285.164228 
L 445.887692 285.164228 
" style="fill:none;stroke:#000000;stroke-dasharray:0.5,0.825;stroke-dashoffset:0;stroke-width:0.5;"/>
   </g>
   <g id="line2d_73">
    <path clip-path="url(#p89fdc14a3a)" d="M 7.2 265.753318 
L 445.887692 265.753318 
" style="fill:none;stroke:#000000;stroke-dasharray:0.5,0.825;stroke-dashoffset:0;stroke-width:0.5;"/>
   </g>
   <g id="line2d_74">
    <path clip-path="url(#p89fdc14a3a)" d="M 7.2 246.342408 
L 445.887692 246.342408 
" style="fill:none;stroke:#000000;stroke-dasharray:0.5,0.825;stroke-dashoffset:0;stroke-width:0.5;"/>
   </g>
   <g id="line2d_75">
    <path clip-path="url(#p89fdc14a3a)" d="M 7.2 226.931499 
L 445.887692 226.931499 
" style="fill:none;stroke:#000000;stroke-dasharray:0.5,0.825;stroke-dashoffset:0;stroke-width:0.5;"/>
   </g>
   <g id="line2d_76">
    <path clip-path="url(#p89fdc14a3a)" d="M 7.2 207.520589 
L 445.887692 207.520589 
" style="fill:none;stroke:#000000;stroke-dasharray:0.5,0.825;stroke-dashoffset:0;stroke-width:0.5;"/>
   </g>
   <g id="line2d_77">
    <path clip-path="url(#p89fdc14a3a)" d="M 7.2 188.109679 
L 445.887692 188.109679 
" style="fill:none;stroke:#000000;stroke-dasharray:0.5,0.825;stroke-dashoffset:0;stroke-width:0.5;"/>
   </g>
   <g id="line2d_78">
    <path clip-path="url(#p89fdc14a3a)" d="M 7.2 168.698769 
L 445.887692 168.698769 
" style="fill:none;stroke:#000000;stroke-dasharray:0.5,0.825;stroke-dashoffset:0;stroke-width:0.5;"/>
   </g>
   <g id="line2d_79">
    <path clip-path="url(#p89fdc14a3a)" d="M 7.2 149.287859 
L 445.887692 149.287859 
" style="fill:none;stroke:#000000;stroke-dasharray:0.5,0.825;stroke-dashoffset:0;stroke-width:0.5;"/>
   </g>
   <g id="line2d_80">
    <path clip-path="url(#p89fdc14a3a)" d="M 7.2 129.87695 
L 445.887692 129.87695 
" style="fill:none;stroke:#000000;stroke-dasharray:0.5,0.825;stroke-dashoffset:0;stroke-width:0.5;"/>
   </g>
   <g id="line2d_81">
    <path clip-path="url(#p89fdc14a3a)" d="M 7.2 110.46604 
L 445.887692 110.46604 
" style="fill:none;stroke:#000000;stroke-dasharray:0.5,0.825;stroke-dashoffset:0;stroke-width:0.5;"/>
   </g>
   <g id="line2d_82">
    <path clip-path="url(#p89fdc14a3a)" d="M 7.2 91.05513 
L 445.887692 91.05513 
" style="fill:none;stroke:#000000;stroke-dasharray:0.5,0.825;stroke-dashoffset:0;stroke-width:0.5;"/>
   </g>
   <g id="line2d_83">
    <path clip-path="url(#p89fdc14a3a)" d="M 7.2 71.64422 
L 445.887692 71.64422 
" style="fill:none;stroke:#000000;stroke-dasharray:0.5,0.825;stroke-dashoffset:0;stroke-width:0.5;"/>
   </g>
   <g id="line2d_84">
    <path clip-path="url(#p89fdc14a3a)" d="M 7.2 52.233311 
L 445.887692 52.233311 
" style="fill:none;stroke:#000000;stroke-dasharray:0.5,0.825;stroke-dashoffset:0;stroke-width:0.5;"/>
   </g>
   <g id="line2d_85">
    <path clip-path="url(#p89fdc14a3a)" d="M 7.2 32.822401 
L 445.887692 32.822401 
" style="fill:none;stroke:#000000;stroke-dasharray:0.5,0.825;stroke-dashoffset:0;stroke-width:0.5;"/>
   </g>
   <g id="line2d_86">
    <path clip-path="url(#p89fdc14a3a)" d="M 7.2 13.411491 
L 445.887692 13.411491 
" style="fill:none;stroke:#000000;stroke-dasharray:0.5,0.825;stroke-dashoffset:0;stroke-width:0.5;"/>
   </g>
   <g id="line2d_87">
    <path clip-path="url(#p89fdc14a3a)" d="M 15.636302 330.197538 
L 15.636302 7.2 
" style="fill:none;stroke:#000000;stroke-dasharray:0.5,0.825;stroke-dashoffset:0;stroke-width:0.5;"/>
   </g>
   <g id="line2d_88">
    <path clip-path="url(#p89fdc14a3a)" d="M 41.999745 330.197538 
L 41.999745 7.2 
" style="fill:none;stroke:#000000;stroke-dasharray:0.5,0.825;stroke-dashoffset:0;stroke-width:0.5;"/>
   </g>
   <g id="line2d_89">
    <path clip-path="url(#p89fdc14a3a)" d="M 68.363188 330.197538 
L 68.363188 7.2 
" style="fill:none;stroke:#000000;stroke-dasharray:0.5,0.825;stroke-dashoffset:0;stroke-width:0.5;"/>
   </g>
   <g id="line2d_90">
    <path clip-path="url(#p89fdc14a3a)" d="M 94.726631 330.197538 
L 94.726631 7.2 
" style="fill:none;stroke:#000000;stroke-dasharray:0.5,0.825;stroke-dashoffset:0;stroke-width:0.5;"/>
   </g>
   <g id="line2d_91">
    <path clip-path="url(#p89fdc14a3a)" d="M 121.090074 330.197538 
L 121.090074 7.2 
" style="fill:none;stroke:#000000;stroke-dasharray:0.5,0.825;stroke-dashoffset:0;stroke-width:0.5;"/>
   </g>
   <g id="line2d_92">
    <path clip-path="url(#p89fdc14a3a)" d="M 147.453517 330.197538 
L 147.453517 7.2 
" style="fill:none;stroke:#000000;stroke-dasharray:0.5,0.825;stroke-dashoffset:0;stroke-width:0.5;"/>
   </g>
   <g id="line2d_93">
    <path clip-path="url(#p89fdc14a3a)" d="M 173.81696 330.197538 
L 173.81696 7.2 
" style="fill:none;stroke:#000000;stroke-dasharray:0.5,0.825;stroke-dashoffset:0;stroke-width:0.5;"/>
   </g>
   <g id="line2d_94">
    <path clip-path="url(#p89fdc14a3a)" d="M 200.180403 330.197538 
L 200.180403 7.2 
" style="fill:none;stroke:#000000;stroke-dasharray:0.5,0.825;stroke-dashoffset:0;stroke-width:0.5;"/>
   </g>
   <g id="line2d_95">
    <path clip-path="url(#p89fdc14a3a)" d="M 226.543846 330.197538 
L 226.543846 7.2 
" style="fill:none;stroke:#000000;stroke-dasharray:0.5,0.825;stroke-dashoffset:0;stroke-width:0.5;"/>
   </g>
   <g id="line2d_96">
    <path clip-path="url(#p89fdc14a3a)" d="M 252.907289 330.197538 
L 252.907289 7.2 
" style="fill:none;stroke:#000000;stroke-dasharray:0.5,0.825;stroke-dashoffset:0;stroke-width:0.5;"/>
   </g>
   <g id="line2d_97">
    <path clip-path="url(#p89fdc14a3a)" d="M 279.270732 330.197538 
L 279.270732 7.2 
" style="fill:none;stroke:#000000;stroke-dasharray:0.5,0.825;stroke-dashoffset:0;stroke-width:0.5;"/>
   </g>
   <g id="line2d_98">
    <path clip-path="url(#p89fdc14a3a)" d="M 305.634175 330.197538 
L 305.634175 7.2 
" style="fill:none;stroke:#000000;stroke-dasharray:0.5,0.825;stroke-dashoffset:0;stroke-width:0.5;"/>
   </g>
   <g id="line2d_99">
    <path clip-path="url(#p89fdc14a3a)" d="M 331.997618 330.197538 
L 331.997618 7.2 
" style="fill:none;stroke:#000000;stroke-dasharray:0.5,0.825;stroke-dashoffset:0;stroke-width:0.5;"/>
   </g>
   <g id="line2d_100">
    <path clip-path="url(#p89fdc14a3a)" d="M 358.361061 330.197538 
L 358.361061 7.2 
" style="fill:none;stroke:#000000;stroke-dasharray:0.5,0.825;stroke-dashoffset:0;stroke-width:0.5;"/>
   </g>
   <g id="line2d_101">
    <path clip-path="url(#p89fdc14a3a)" d="M 384.724504 330.197538 
L 384.724504 7.2 
" style="fill:none;stroke:#000000;stroke-dasharray:0.5,0.825;stroke-dashoffset:0;stroke-width:0.5;"/>
   </g>
   <g id="line2d_102">
    <path clip-path="url(#p89fdc14a3a)" d="M 411.087947 330.197538 
L 411.087947 7.2 
" style="fill:none;stroke:#000000;stroke-dasharray:0.5,0.825;stroke-dashoffset:0;stroke-width:0.5;"/>
   </g>
   <g id="line2d_103">
    <path clip-path="url(#p89fdc14a3a)" d="M 437.451391 330.197538 
L 437.451391 7.2 
" style="fill:none;stroke:#000000;stroke-dasharray:0.5,0.825;stroke-dashoffset:0;stroke-width:0.5;"/>
   </g>
   <g id="patch_3">
    <path d="M 226.543846 330.197538 
L 226.543846 7.2 
" style="fill:none;stroke:#000000;stroke-linecap:square;stroke-linejoin:miter;stroke-width:0.8;"/>
   </g>
   <g id="patch_4">
    <path d="M 7.2 168.698769 
L 445.887692 168.698769 
" style="fill:none;stroke:#000000;stroke-linecap:square;stroke-linejoin:miter;stroke-width:0.8;"/>
   </g>
  </g>
 </g>
 <defs>
  <clipPath id="p89fdc14a3a">
   <rect height="322.997538" width="438.687692" x="7.2" y="7.2"/>
  </clipPath>
 </defs>
</svg>
