<?xml version="1.0" encoding="utf-8" standalone="no"?>
<!DOCTYPE svg PUBLIC "-//W3C//DTD SVG 1.1//EN"
  "http://www.w3.org/Graphics/SVG/1.1/DTD/svg11.dtd">
<!-- Created with matplotlib (https://matplotlib.org/) -->
<svg height="337.397538pt" version="1.1" viewBox="0 0 453.6 337.397538" width="453.6pt" xmlns="http://www.w3.org/2000/svg" xmlns:xlink="http://www.w3.org/1999/xlink">
 <metadata>
  <rdf:RDF xmlns:cc="http://creativecommons.org/ns#" xmlns:dc="http://purl.org/dc/elements/1.1/" xmlns:rdf="http://www.w3.org/1999/02/22-rdf-syntax-ns#">
   <cc:Work>
    <dc:type rdf:resource="http://purl.org/dc/dcmitype/StillImage"/>
    <dc:date>2024-08-01T03:41:24.694220</dc:date>
    <dc:format>image/svg+xml</dc:format>
    <dc:creator>
     <cc:Agent>
      <dc:title>Matplotlib v3.3.4, https://matplotlib.org/</dc:title>
     </cc:Agent>
    </dc:creator>
   </cc:Work>
  </rdf:RDF>
 </metadata>
 <defs>
  <style type="text/css">*{stroke-linecap:butt;stroke-linejoin:round;}</style>
 </defs>
 <g id="figure_1">
  <g id="patch_1">
   <path d="M 0 337.397538 
L 453.6 337.397538 
L 453.6 0 
L 0 0 
z
" style="fill:#ffffff;"/>
  </g>
  <g id="axes_1">
   <g id="patch_2">
    <path d="M 7.2 330.197538 
L 446.4 330.197538 
L 446.4 7.2 
L 7.2 7.2 
z
" style="fill:#ffffff;"/>
   </g>
   <g id="patch_3">
    <path clip-path="url(#pa463fbc99b)" d="M 100.107692 168.698769 
L 100.107692 168.698769 
L 101.530361 168.768993 
L 102.743376 168.829625 
L 103.051332 168.845131 
L 104.070846 168.896792 
L 105.897509 168.990636 
L 106.127246 169.002557 
L 107.987687 169.100088 
L 108.109386 169.10653 
L 109.806613 169.197183 
L 110.726278 169.246946 
L 111.831843 169.307375 
L 113.248793 169.385811 
L 113.680928 169.409956 
L 115.450579 169.509944 
L 116.552309 169.573112 
L 116.940543 169.595542 
L 118.389698 169.680064 
L 119.203049 169.728062 
L 120.712175 169.818204 
L 120.80062 169.823531 
L 122.173385 169.906855 
L 123.293623 169.975753 
L 124.460803 170.048417 
L 125.198897 170.094838 
L 126.918471 170.20443 
L 128.188273 170.286679 
L 128.600148 170.313603 
L 129.591439 170.378903 
L 130.387242 170.431844 
L 131.962508 170.538024 
L 132.956052 170.605958 
L 134.184489 170.691007 
L 135.416174 170.777474 
L 136.207721 170.833684 
L 137.365906 170.916853 
L 138.08897 170.96934 
L 139.618426 171.08182 
L 140.755833 171.166776 
L 141.794815 171.245377 
L 142.592902 171.306412 
L 143.997409 171.415237 
L 144.939853 171.489291 
L 145.669009 171.547164 
L 147.265078 171.675639 
L 147.511806 171.695723 
L 149.312882 171.844186 
L 150.344673 171.930734 
L 150.55589 171.948588 
L 152.361123 172.103121 
L 153.669257 172.217313 
L 154.242637 172.267965 
L 155.667018 172.39541 
L 156.767712 172.495504 
L 156.915553 172.509056 
L 158.178575 172.625907 
L 159.385678 172.739401 
L 160.465855 172.842502 
L 161.330118 172.926064 
L 162.227658 173.013869 
L 164.089799 173.199455 
L 165.116231 173.303775 
L 165.913639 173.385835 
L 166.719688 173.469704 
L 167.606649 173.563079 
L 169.38881 173.754228 
L 169.753876 173.793978 
L 171.3779 173.973323 
L 172.386142 174.086776 
L 173.458009 174.209209 
L 174.746221 174.358898 
L 175.265611 174.420053 
L 176.827115 174.606755 
L 177.283437 174.662137 
L 178.910127 174.862671 
L 179.809568 174.975682 
L 181.048329 175.133882 
L 182.25224 175.290544 
L 182.825036 175.366111 
L 184.266367 175.559278 
L 184.881061 175.642999 
L 186.374256 175.849804 
L 187.332355 175.985124 
L 187.848521 176.058897 
L 189.024771 176.229341 
L 190.70667 176.478833 
L 191.859962 176.653974 
L 192.510587 176.75428 
L 193.547896 176.916494 
L 194.340546 177.042388 
L 195.320658 177.200437 
L 197.046122 177.485268 
L 197.667217 177.589914 
L 198.792482 177.782448 
L 200.360817 178.057311 
L 200.515257 178.084798 
L 201.947479 178.34341 
L 203.03682 178.544692 
L 204.225855 178.769072 
L 205.660674 179.04656 
L 205.809175 179.075711 
L 207.042855 179.321094 
L 208.425079 179.603016 
L 209.58708 179.845952 
L 210.298849 179.997521 
L 211.93791 180.354814 
L 212.204336 180.414009 
L 213.481731 180.702301 
L 214.715571 180.988007 
L 216.291778 181.36379 
L 216.587815 181.435764 
L 217.763652 181.72614 
L 218.67898 181.957287 
L 219.679429 182.215215 
L 220.687324 182.480825 
L 222.093903 182.861536 
L 222.822392 183.063473 
L 224.313793 183.487443 
L 225.250435 183.761224 
L 226.12252 184.021551 
L 226.992118 184.286501 
L 227.861716 184.556976 
L 228.202605 184.66455 
L 229.102682 184.952875 
L 230.002759 185.247587 
L 230.943514 185.562679 
L 232.189209 185.991442 
L 233.022425 186.285853 
L 233.803116 186.567451 
L 235.159838 187.070571 
L 235.999961 187.391212 
L 237.233485 187.875185 
L 238.10869 188.228471 
L 238.596442 188.42905 
L 239.493147 188.804917 
L 240.389852 189.190295 
L 241.579792 189.717012 
L 242.705508 190.23213 
L 243.202133 190.464799 
L 243.859818 190.778202 
L 244.517504 191.097781 
L 244.982157 191.327386 
L 245.975356 191.829128 
L 246.968555 192.346372 
L 247.808972 192.796696 
L 248.726676 193.302259 
L 249.270629 193.608987 
L 249.814581 193.921147 
L 250.538313 194.345147 
L 251.262046 194.779377 
L 251.765622 195.087748 
L 252.269197 195.401383 
L 252.796266 195.735438 
L 253.323335 196.07557 
L 253.627395 196.274618 
L 254.351025 196.756886 
L 255.074655 197.251575 
L 255.615344 197.629601 
L 256.156034 198.015045 
L 256.603628 198.339892 
L 257.051222 198.670104 
L 257.545782 199.041365 
L 258.040342 199.419525 
L 258.730722 199.959326 
L 259.421102 200.513504 
L 260.036737 201.020282 
L 260.652372 201.53939 
L 261.13047 201.95132 
L 261.608567 202.371183 
L 262.082908 202.795815 
L 262.615047 203.282044 
L 263.147186 203.779028 
L 263.620912 204.2308 
L 264.094639 204.691646 
L 264.568365 205.161844 
L 265.042091 205.64168 
L 265.617632 206.238046 
L 266.152767 206.806195 
L 266.687901 207.387987 
L 267.152857 207.904942 
L 267.617813 208.432913 
L 267.980667 208.852824 
L 268.34352 209.279835 
L 268.706373 209.714128 
L 269.069227 210.155891 
L 269.46849 210.650846 
L 269.867754 211.155349 
L 270.303316 211.716936 
L 270.738878 212.290597 
L 271.203586 212.916399 
L 271.668294 213.556891 
L 272.122734 214.197941 
L 272.577175 214.854053 
L 273.031615 215.525763 
L 273.486056 216.213634 
L 273.887143 216.834643 
L 274.28823 217.469126 
L 274.732954 218.188928 
L 275.177679 218.926474 
L 275.435059 219.361686 
L 275.692439 219.803197 
L 275.949819 220.251144 
L 276.207199 220.705669 
L 276.440747 221.123922 
L 276.674295 221.547824 
L 276.907842 221.977489 
L 277.14139 222.413036 
L 277.446875 222.991821 
L 277.752359 223.581158 
L 278.057844 224.181339 
L 278.363328 224.792667 
L 278.697901 225.475366 
L 279.032474 226.17224 
L 279.287562 226.713353 
L 279.542649 227.263169 
L 279.797736 227.821901 
L 280.052823 228.389766 
L 280.4139 229.209636 
L 280.774977 230.048927 
L 281.136053 230.908338 
L 281.316592 231.345815 
L 281.49713 231.788599 
L 281.701507 232.296378 
L 281.905885 232.811227 
L 282.110263 233.333296 
L 282.31464 233.862736 
L 282.519018 234.399706 
L 282.723395 234.944367 
L 282.927773 235.496885 
L 283.13215 236.057432 
L 283.302528 236.530991 
L 283.472905 237.010358 
L 283.655264 237.529988 
L 283.837622 238.056529 
L 284.019981 238.590119 
L 284.202339 239.130901 
L 284.384697 239.679022 
L 284.567056 240.234631 
L 284.749414 240.797884 
L 284.931772 241.368939 
L 285.078084 241.832865 
L 285.224396 242.302006 
L 285.370708 242.776449 
L 285.51702 243.256285 
L 285.663332 243.741606 
L 285.809644 244.232507 
L 285.955956 244.729085 
L 286.102268 245.231438 
L 286.256694 245.768028 
L 286.411121 246.311287 
L 286.565547 246.86134 
L 286.719973 247.418315 
L 286.874399 247.982345 
L 287.028826 248.553563 
L 287.183252 249.132108 
L 287.337678 249.718122 
L 287.468789 250.22163 
L 287.662709 250.976602 
L 287.856629 251.744085 
L 288.050549 252.524392 
L 288.244469 253.317847 
L 288.438389 254.124786 
L 288.632309 254.945555 
L 288.826229 255.780512 
L 289.020149 256.63003 
L 289.206635 257.461072 
L 289.393121 258.306289 
L 289.579608 259.166045 
L 289.766094 260.040719 
L 289.95258 260.930702 
L 290.139067 261.8364 
L 290.325553 262.758233 
L 290.512039 263.696636 
L 290.689836 264.60716 
L 290.867634 265.53356 
L 291.035189 266.4215 
L 291.202744 267.324275 
L 291.3703 268.242259 
L 291.537855 269.175839 
L 291.70541 270.125417 
L 291.872965 271.091408 
L 292.040521 272.074241 
L 292.208076 273.074359 
L 292.302654 273.646692 
L 292.397233 274.224763 
L 292.491811 274.80866 
L 292.586389 275.398472 
L 292.680968 275.994287 
L 292.775546 276.5962 
L 292.870124 277.204303 
L 292.964703 277.818693 
L 293.081982 278.589427 
L 293.199261 279.37017 
L 293.31654 280.161119 
L 293.433819 280.962473 
L 293.551098 281.774441 
L 293.668377 282.597234 
L 293.785656 283.431071 
L 293.902935 284.276175 
L 294.017552 285.113207 
L 294.13217 285.961442 
L 294.246787 286.821104 
L 294.361405 287.692427 
L 294.476023 288.575649 
L 294.59064 289.471016 
L 294.705258 290.37878 
L 294.819875 291.299201 
L 294.934493 292.232544 
L 295.04911 293.179085 
L 295.163728 294.139104 
L 295.278346 295.112892 
L 295.392963 296.100747 
L 295.507581 297.102977 
L 295.622198 298.119897 
L 295.736816 299.151832 
L 295.804356 299.767079 
L 295.871896 300.387725 
L 295.939435 301.013844 
L 296.006975 301.645506 
L 296.074515 302.282787 
L 296.142055 302.925762 
L 296.209594 303.574506 
L 296.277134 304.229099 
L 296.37099 305.148603 
L 296.464845 306.079772 
L 296.558701 307.022829 
L 296.652557 307.978003 
L 296.746412 308.94553 
L 296.840268 309.92565 
L 296.934123 310.918611 
L 297.027979 311.924668 
L 297.121834 312.94408 
L 297.21569 313.977116 
L 297.309546 315.02405 
L 297.403401 316.085166 
L 297.497257 317.160752 
L 297.591112 318.251108 
L 297.684968 319.356538 
L 297.778824 320.477359 
L 297.850865 321.348315 
L 297.922906 322.228678 
L 297.994947 323.118602 
L 298.066988 324.018244 
L 298.139029 324.927764 
L 298.21107 325.847326 
L 298.283111 326.777096 
L 298.355152 327.717246 
L 298.427193 328.66795 
L 298.499234 329.629387 
L 298.571275 330.60174 
L 298.643316 331.585196 
L 298.715357 332.579947 
L 298.787399 333.586187 
L 298.85944 334.604117 
L 298.931481 335.633942 
L 299.021287 336.934693 
L 299.111093 338.254672 
L 299.158171 338.954461 
L 299.20525 339.659716 
L 299.252328 340.370499 
L 299.299407 341.086878 
L 299.346485 341.808918 
L 299.393564 342.536686 
L 299.440642 343.270251 
L 299.48772 344.009682 
L 299.534799 344.755051 
L 299.581877 345.506428 
L 299.628956 346.263887 
L 299.676034 347.027502 
L 299.723113 347.797349 
L 299.770191 348.573503 
L 299.817269 349.356043 
L 299.864348 350.145049 
L 299.911426 350.940599 
L 299.958505 351.742776 
L 300.005583 352.551664 
L 300.052662 353.367347 
L 300.09974 354.18991 
L 300.146819 355.019442 
L 300.193897 355.85603 
L 300.240975 356.699767 
L 300.288054 357.550743 
L 300.335132 358.409052 
L 300.382211 359.274789 
L 300.429289 360.148052 
L 300.476368 361.028939 
L 300.523446 361.917549 
L 300.570524 362.813986 
L 300.617603 363.718352 
L 300.664781 364.632694 
L 300.711959 365.555213 
L 300.759137 366.48602 
L 300.806315 367.425228 
L 300.853493 368.37295 
L 300.900671 369.329303 
L 300.947849 370.294405 
L 300.995027 371.268377 
L 301.042205 372.251343 
L 301.089383 373.243426 
L 301.136561 374.244754 
L 301.183739 375.255457 
L 301.230917 376.275668 
L 301.278095 377.305522 
L 301.325274 378.345155 
L 301.372452 379.394707 
L 301.41963 380.454322 
L 301.466808 381.524144 
L 301.513986 382.604323 
L 301.561164 383.695008 
L 301.608342 384.796354 
L 301.65552 385.908518 
L 301.702698 387.031661 
L 301.749876 388.165945 
L 301.797054 389.311537 
L 301.844232 390.468608 
L 301.89141 391.63733 
L 301.938588 392.817881 
L 301.985766 394.01044 
L 302.032944 395.215193 
L 302.080122 396.432327 
L 302.1273 397.662033 
L 302.173133 398.868898 
L 302.218966 400.087997 
L 302.264798 401.319516 
L 302.310631 402.563648 
L 302.367771 404.132678 
L 302.424911 405.722 
L 302.482051 407.33201 
L 302.539191 408.963114 
L 302.596331 410.615729 
L 302.653471 412.290285 
L 302.710611 413.98722 
L 302.767751 415.706987 
L 302.824891 417.45005 
L 302.882031 419.216884 
L 302.939171 421.00798 
L 302.996311 422.823841 
L 303.053451 424.664984 
L 303.110591 426.53194 
L 303.167732 428.425257 
L 303.224872 430.345496 
L 303.282012 432.293237 
L 303.339152 434.269074 
L 303.396292 436.273619 
L 303.453432 438.307502 
L 303.510572 440.371373 
L 303.567712 442.4659 
L 303.624852 444.591771 
L 303.681992 446.749694 
L 303.739132 448.940401 
L 303.796272 451.164643 
L 303.853412 453.423197 
L 303.910552 455.716863 
L 303.967692 458.046467 
L 304.024832 460.412859 
L 304.081972 462.816917 
L 304.139112 465.259549 
L 304.176913 466.8971 
L 304.214713 468.552218 
L 304.252513 470.225189 
L 304.290314 471.916303 
L 304.328114 473.625857 
L 304.365914 475.354153 
L 304.403715 477.101502 
L 304.441515 478.868221 
L 304.479316 480.654633 
L 304.517116 482.461069 
L 304.554916 484.287869 
L 304.592717 486.135378 
L 304.630517 488.003951 
L 304.668317 489.89395 
L 304.706118 491.805745 
L 304.743918 493.739715 
L 304.781718 495.69625 
L 304.819519 497.675746 
L 304.857319 499.678609 
L 304.89512 501.705256 
L 304.93292 503.756113 
L 304.97072 505.831617 
L 305.008521 507.932214 
L 305.046321 510.058362 
L 305.084121 512.210531 
L 305.121922 514.389201 
L 305.159722 516.594864 
L 305.197522 518.828025 
L 305.235323 521.089202 
L 305.273123 523.378925 
L 305.310923 525.697738 
L 305.348724 528.046199 
L 305.369705 529.362696 
L 305.390685 530.688602 
L 305.411666 532.024018 
L 305.432647 533.369048 
L 305.453628 534.723796 
L 305.474608 536.088368 
L 305.495589 537.462869 
L 305.51657 538.847411 
L 305.53755 540.242102 
L 305.558531 541.647055 
L 305.579512 543.062383 
L 305.600493 544.488202 
L 305.621473 545.924629 
L 305.642454 547.371783 
L 305.663435 548.829785 
L 305.684416 550.298756 
L 305.705396 551.778821 
L 305.726377 553.270107 
L 305.747358 554.77274 
L 305.768339 556.286852 
L 305.789319 557.812575 
L 305.8103 559.350042 
L 305.831281 560.899389 
L 305.852262 562.460755 
L 305.873242 564.03428 
L 305.894223 565.620107 
L 305.915204 567.218381 
L 305.936185 568.829248 
L 305.957165 570.452859 
L 305.978146 572.089364 
L 305.999127 573.738919 
L 306.020107 575.40168 
L 306.056741 578.337116 
L 306.093375 581.314168 
L 306.130009 584.333726 
L 306.166643 587.396707 
L 306.203277 590.504054 
L 306.239911 593.65674 
L 306.276545 596.855762 
L 306.313178 600.10215 
L 306.349812 603.396965 
L 306.386446 606.741297 
L 306.42308 610.136272 
L 306.459714 613.583048 
L 306.496348 617.08282 
L 306.532982 620.636821 
L 306.569616 624.24632 
L 306.606249 627.912627 
L 306.642883 631.637095 
L 306.679517 635.421118 
L 306.716151 639.266136 
L 306.752785 643.173636 
L 306.789419 647.145153 
L 306.826053 651.182275 
L 306.862686 655.286638 
L 306.89932 659.459939 
L 306.935954 663.703928 
L 306.972588 668.020417 
L 307.009222 672.411279 
L 307.045856 676.878453 
L 307.08249 681.423947 
L 307.119124 686.049837 
L 307.155757 690.758277 
L 307.192391 695.551496 
L 307.223215 699.651902 
L 307.254039 703.815385 
L 307.284863 708.043411 
L 307.315687 712.337495 
L 307.346511 716.699194 
L 307.377335 721.130121 
L 307.408159 725.631934 
L 307.438983 730.206351 
L 307.469806 734.85514 
L 307.50063 739.580131 
L 307.531454 744.383213 
L 307.562278 749.266338 
L 307.593102 754.231523 
L 307.623926 759.280855 
L 307.65475 764.416491 
L 307.685574 769.640663 
L 307.716398 774.95568 
L 307.747222 780.363933 
L 307.778046 785.867896 
L 307.808869 791.470133 
L 307.839693 797.173299 
L 307.870517 802.980148 
L 307.901341 808.893532 
L 307.932165 814.91641 
L 307.962989 821.051852 
L 307.993813 827.303043 
L 308.024637 833.67329 
L 308.055461 840.166027 
L 308.086285 846.784821 
L 308.117109 853.533379 
L 308.147932 860.415555 
L 308.178756 867.435357 
L 308.217607 876.485601 
L 308.256457 885.769851 
L 308.295307 895.297304 
L 308.334158 905.07764 
L 308.373008 915.121065 
L 308.411858 925.438338 
L 308.450709 936.040814 
L 308.489559 946.940486 
L 308.528409 958.150026 
L 308.567259 969.682839 
L 308.60611 981.553115 
L 308.64496 993.775884 
L 308.68381 1006.367085 
L 308.722661 1019.343631 
L 308.761511 1032.723486 
L 308.800361 1046.525751 
L 308.839212 1060.770748 
L 308.878062 1075.480128 
L 308.916912 1090.676975 
L 308.955762 1106.385929 
L 308.994613 1122.633319 
L 309.033463 1139.447312 
L 309.072313 1156.858071 
L 309.111164 1174.897942 
L 309.150014 1193.601651 
L 309.188864 1213.006526 
L 309.227715 1233.152749 
L 309.266565 1254.083631 
L 309.305415 1275.845923 
L 309.344265 1298.490168 
L 309.383116 1322.071088 
L 309.421966 1346.648028 
L 309.450099 1365.1031 
L 309.478232 1384.140454 
L 309.506364 1403.788087 
L 309.534497 1424.075825 
L 309.56263 1445.035465 
L 309.590763 1466.700949 
L 309.618896 1489.108543 
L 309.647028 1512.29704 
L 309.675161 1536.307986 
L 309.703294 1561.185927 
L 309.731427 1586.978686 
L 309.75956 1613.737665 
L 309.787692 1641.518197 
L 309.815825 1670.379917 
L 309.843958 1700.387195 
L 309.872091 1731.609616 
L 309.900224 1764.122516 
L 309.928356 1798.007589 
L 309.956489 1833.353576 
L 309.984622 1870.257035 
L 310.012755 1908.823229 
L 310.040888 1949.167121 
L 310.06902 1991.414525 
L 310.097153 2035.703414 
L 310.125286 2082.185426 
L 310.153419 2131.027595 
L 310.181552 2182.414363 
L 310.209684 2236.549903 
L 310.237817 2293.660831 
L 310.26595 2353.999377 
L 310.294083 2417.847111 
L 310.322216 2485.519334 
L 310.351238 2559.714392 
L 310.38026 2638.796233 
L 310.409282 2723.264091 
L 310.438305 2813.687602 
L 310.467327 2910.719665 
L 310.496349 3015.112231 
L 310.525371 3127.735829 
L 310.554394 3249.6039 
L 310.583416 3381.903377 
L 310.612438 3526.033472 
L 310.64146 3683.655353 
L 310.670483 3856.756456 
L 310.699505 4047.734726 
L 310.728527 4259.510378 
L 310.757549 4495.676269 
L 310.786572 4760.703404 
L 310.815594 5060.226687 
L 310.844616 5401.450022 
L 310.873638 5793.733265 
L 310.902661 6249.463978 
L 310.931683 6785.389387 
L 310.960705 7424.719334 
L 310.989727 8200.576456 
L 311.01875 9161.92092 
L 311.047772 10384.301423 
L 311.076794 11990.739712 
L 311.105816 14195.968865 
L 311.134839 17411.471756 
L 311.163861 22537.775698 
L 311.192883 31998.107654 
L 311.221905 55313.568576 
L 311.250928 206172.801905 
L 311.250928 168.698769 
z
" style="fill:#0000ff;opacity:0.5;"/>
   </g>
   <g id="matplotlib.axis_1">
    <g id="xtick_1">
     <g id="line2d_1">
      <defs>
       <path d="M 0 0 
L 0 3.5 
" id="me39cdaf69a" style="stroke:#000000;stroke-width:0.8;"/>
      </defs>
      <g>
       <use style="stroke:#000000;stroke-width:0.8;" x="57.876923" xlink:href="#me39cdaf69a" y="168.698769"/>
      </g>
     </g>
     <g id="text_1">
      <!-- −4 -->
      <g transform="translate(50.505829 183.297207)scale(0.1 -0.1)">
       <defs>
        <path d="M 10.59375 35.5 
L 73.1875 35.5 
L 73.1875 27.203125 
L 10.59375 27.203125 
z
" id="DejaVuSans-8722"/>
        <path d="M 37.796875 64.3125 
L 12.890625 25.390625 
L 37.796875 25.390625 
z
M 35.203125 72.90625 
L 47.609375 72.90625 
L 47.609375 25.390625 
L 58.015625 25.390625 
L 58.015625 17.1875 
L 47.609375 17.1875 
L 47.609375 0 
L 37.796875 0 
L 37.796875 17.1875 
L 4.890625 17.1875 
L 4.890625 26.703125 
z
" id="DejaVuSans-52"/>
       </defs>
       <use xlink:href="#DejaVuSans-8722"/>
       <use x="83.789062" xlink:href="#DejaVuSans-52"/>
      </g>
     </g>
    </g>
    <g id="xtick_2">
     <g id="line2d_2">
      <g>
       <use style="stroke:#000000;stroke-width:0.8;" x="142.338462" xlink:href="#me39cdaf69a" y="168.698769"/>
      </g>
     </g>
     <g id="text_2">
      <!-- −2 -->
      <g transform="translate(134.967368 183.297207)scale(0.1 -0.1)">
       <defs>
        <path d="M 19.1875 8.296875 
L 53.609375 8.296875 
L 53.609375 0 
L 7.328125 0 
L 7.328125 8.296875 
Q 12.9375 14.109375 22.625 23.890625 
Q 32.328125 33.6875 34.8125 36.53125 
Q 39.546875 41.84375 41.421875 45.53125 
Q 43.3125 49.21875 43.3125 52.78125 
Q 43.3125 58.59375 39.234375 62.25 
Q 35.15625 65.921875 28.609375 65.921875 
Q 23.96875 65.921875 18.8125 64.3125 
Q 13.671875 62.703125 7.8125 59.421875 
L 7.8125 69.390625 
Q 13.765625 71.78125 18.9375 73 
Q 24.125 74.21875 28.421875 74.21875 
Q 39.75 74.21875 46.484375 68.546875 
Q 53.21875 62.890625 53.21875 53.421875 
Q 53.21875 48.921875 51.53125 44.890625 
Q 49.859375 40.875 45.40625 35.40625 
Q 44.1875 33.984375 37.640625 27.21875 
Q 31.109375 20.453125 19.1875 8.296875 
z
" id="DejaVuSans-50"/>
       </defs>
       <use xlink:href="#DejaVuSans-8722"/>
       <use x="83.789062" xlink:href="#DejaVuSans-50"/>
      </g>
     </g>
    </g>
    <g id="xtick_3">
     <g id="line2d_3">
      <g>
       <use style="stroke:#000000;stroke-width:0.8;" x="226.8" xlink:href="#me39cdaf69a" y="168.698769"/>
      </g>
     </g>
    </g>
    <g id="xtick_4">
     <g id="line2d_4">
      <g>
       <use style="stroke:#000000;stroke-width:0.8;" x="311.261538" xlink:href="#me39cdaf69a" y="168.698769"/>
      </g>
     </g>
     <g id="text_3">
      <!-- 2 -->
      <g transform="translate(308.080288 183.297207)scale(0.1 -0.1)">
       <use xlink:href="#DejaVuSans-50"/>
      </g>
     </g>
    </g>
    <g id="xtick_5">
     <g id="line2d_5">
      <g>
       <use style="stroke:#000000;stroke-width:0.8;" x="395.723077" xlink:href="#me39cdaf69a" y="168.698769"/>
      </g>
     </g>
     <g id="text_4">
      <!-- 4 -->
      <g transform="translate(392.541827 183.297207)scale(0.1 -0.1)">
       <use xlink:href="#DejaVuSans-52"/>
      </g>
     </g>
    </g>
    <g id="xtick_6">
     <g id="line2d_6">
      <defs>
       <path d="M 0 0 
L 0 2 
" id="m7538c48e5e" style="stroke:#000000;stroke-width:0.6;"/>
      </defs>
      <g>
       <use style="stroke:#000000;stroke-width:0.6;" x="15.646154" xlink:href="#m7538c48e5e" y="168.698769"/>
      </g>
     </g>
    </g>
    <g id="xtick_7">
     <g id="line2d_7">
      <g>
       <use style="stroke:#000000;stroke-width:0.6;" x="36.761538" xlink:href="#m7538c48e5e" y="168.698769"/>
      </g>
     </g>
    </g>
    <g id="xtick_8">
     <g id="line2d_8">
      <g>
       <use style="stroke:#000000;stroke-width:0.6;" x="78.992308" xlink:href="#m7538c48e5e" y="168.698769"/>
      </g>
     </g>
    </g>
    <g id="xtick_9">
     <g id="line2d_9">
      <g>
       <use style="stroke:#000000;stroke-width:0.6;" x="100.107692" xlink:href="#m7538c48e5e" y="168.698769"/>
      </g>
     </g>
    </g>
    <g id="xtick_10">
     <g id="line2d_10">
      <g>
       <use style="stroke:#000000;stroke-width:0.6;" x="121.223077" xlink:href="#m7538c48e5e" y="168.698769"/>
      </g>
     </g>
    </g>
    <g id="xtick_11">
     <g id="line2d_11">
      <g>
       <use style="stroke:#000000;stroke-width:0.6;" x="163.453846" xlink:href="#m7538c48e5e" y="168.698769"/>
      </g>
     </g>
    </g>
    <g id="xtick_12">
     <g id="line2d_12">
      <g>
       <use style="stroke:#000000;stroke-width:0.6;" x="184.569231" xlink:href="#m7538c48e5e" y="168.698769"/>
      </g>
     </g>
    </g>
    <g id="xtick_13">
     <g id="line2d_13">
      <g>
       <use style="stroke:#000000;stroke-width:0.6;" x="205.684615" xlink:href="#m7538c48e5e" y="168.698769"/>
      </g>
     </g>
    </g>
    <g id="xtick_14">
     <g id="line2d_14">
      <g>
       <use style="stroke:#000000;stroke-width:0.6;" x="247.915385" xlink:href="#m7538c48e5e" y="168.698769"/>
      </g>
     </g>
    </g>
    <g id="xtick_15">
     <g id="line2d_15">
      <g>
       <use style="stroke:#000000;stroke-width:0.6;" x="269.030769" xlink:href="#m7538c48e5e" y="168.698769"/>
      </g>
     </g>
    </g>
    <g id="xtick_16">
     <g id="line2d_16">
      <g>
       <use style="stroke:#000000;stroke-width:0.6;" x="290.146154" xlink:href="#m7538c48e5e" y="168.698769"/>
      </g>
     </g>
    </g>
    <g id="xtick_17">
     <g id="line2d_17">
      <g>
       <use style="stroke:#000000;stroke-width:0.6;" x="332.376923" xlink:href="#m7538c48e5e" y="168.698769"/>
      </g>
     </g>
    </g>
    <g id="xtick_18">
     <g id="line2d_18">
      <g>
       <use style="stroke:#000000;stroke-width:0.6;" x="353.492308" xlink:href="#m7538c48e5e" y="168.698769"/>
      </g>
     </g>
    </g>
    <g id="xtick_19">
     <g id="line2d_19">
      <g>
       <use style="stroke:#000000;stroke-width:0.6;" x="374.607692" xlink:href="#m7538c48e5e" y="168.698769"/>
      </g>
     </g>
    </g>
    <g id="xtick_20">
     <g id="line2d_20">
      <g>
       <use style="stroke:#000000;stroke-width:0.6;" x="416.838462" xlink:href="#m7538c48e5e" y="168.698769"/>
      </g>
     </g>
    </g>
    <g id="xtick_21">
     <g id="line2d_21">
      <g>
       <use style="stroke:#000000;stroke-width:0.6;" x="437.953846" xlink:href="#m7538c48e5e" y="168.698769"/>
      </g>
     </g>
    </g>
   </g>
   <g id="matplotlib.axis_2">
    <g id="ytick_1">
     <g id="line2d_22">
      <defs>
       <path d="M 0 0 
L -3.5 0 
" id="md44bb149ef" style="stroke:#000000;stroke-width:0.8;"/>
      </defs>
      <g>
       <use style="stroke:#000000;stroke-width:0.8;" x="226.8" xlink:href="#md44bb149ef" y="323.986047"/>
      </g>
     </g>
     <g id="text_5">
      <!-- −15 -->
      <g transform="translate(198.695312 327.785266)scale(0.1 -0.1)">
       <defs>
        <path d="M 12.40625 8.296875 
L 28.515625 8.296875 
L 28.515625 63.921875 
L 10.984375 60.40625 
L 10.984375 69.390625 
L 28.421875 72.90625 
L 38.28125 72.90625 
L 38.28125 8.296875 
L 54.390625 8.296875 
L 54.390625 0 
L 12.40625 0 
z
" id="DejaVuSans-49"/>
        <path d="M 10.796875 72.90625 
L 49.515625 72.90625 
L 49.515625 64.59375 
L 19.828125 64.59375 
L 19.828125 46.734375 
Q 21.96875 47.46875 24.109375 47.828125 
Q 26.265625 48.1875 28.421875 48.1875 
Q 40.625 48.1875 47.75 41.5 
Q 54.890625 34.8125 54.890625 23.390625 
Q 54.890625 11.625 47.5625 5.09375 
Q 40.234375 -1.421875 26.90625 -1.421875 
Q 22.3125 -1.421875 17.546875 -0.640625 
Q 12.796875 0.140625 7.71875 1.703125 
L 7.71875 11.625 
Q 12.109375 9.234375 16.796875 8.0625 
Q 21.484375 6.890625 26.703125 6.890625 
Q 35.15625 6.890625 40.078125 11.328125 
Q 45.015625 15.765625 45.015625 23.390625 
Q 45.015625 31 40.078125 35.4375 
Q 35.15625 39.890625 26.703125 39.890625 
Q 22.75 39.890625 18.8125 39.015625 
Q 14.890625 38.140625 10.796875 36.28125 
z
" id="DejaVuSans-53"/>
       </defs>
       <use xlink:href="#DejaVuSans-8722"/>
       <use x="83.789062" xlink:href="#DejaVuSans-49"/>
       <use x="147.412109" xlink:href="#DejaVuSans-53"/>
      </g>
     </g>
    </g>
    <g id="ytick_2">
     <g id="line2d_23">
      <g>
       <use style="stroke:#000000;stroke-width:0.8;" x="226.8" xlink:href="#md44bb149ef" y="272.223621"/>
      </g>
     </g>
     <g id="text_6">
      <!-- −10 -->
      <g transform="translate(198.695312 276.02284)scale(0.1 -0.1)">
       <defs>
        <path d="M 31.78125 66.40625 
Q 24.171875 66.40625 20.328125 58.90625 
Q 16.5 51.421875 16.5 36.375 
Q 16.5 21.390625 20.328125 13.890625 
Q 24.171875 6.390625 31.78125 6.390625 
Q 39.453125 6.390625 43.28125 13.890625 
Q 47.125 21.390625 47.125 36.375 
Q 47.125 51.421875 43.28125 58.90625 
Q 39.453125 66.40625 31.78125 66.40625 
z
M 31.78125 74.21875 
Q 44.046875 74.21875 50.515625 64.515625 
Q 56.984375 54.828125 56.984375 36.375 
Q 56.984375 17.96875 50.515625 8.265625 
Q 44.046875 -1.421875 31.78125 -1.421875 
Q 19.53125 -1.421875 13.0625 8.265625 
Q 6.59375 17.96875 6.59375 36.375 
Q 6.59375 54.828125 13.0625 64.515625 
Q 19.53125 74.21875 31.78125 74.21875 
z
" id="DejaVuSans-48"/>
       </defs>
       <use xlink:href="#DejaVuSans-8722"/>
       <use x="83.789062" xlink:href="#DejaVuSans-49"/>
       <use x="147.412109" xlink:href="#DejaVuSans-48"/>
      </g>
     </g>
    </g>
    <g id="ytick_3">
     <g id="line2d_24">
      <g>
       <use style="stroke:#000000;stroke-width:0.8;" x="226.8" xlink:href="#md44bb149ef" y="220.461195"/>
      </g>
     </g>
     <g id="text_7">
      <!-- −5 -->
      <g transform="translate(205.057812 224.260414)scale(0.1 -0.1)">
       <use xlink:href="#DejaVuSans-8722"/>
       <use x="83.789062" xlink:href="#DejaVuSans-53"/>
      </g>
     </g>
    </g>
    <g id="ytick_4">
     <g id="line2d_25">
      <g>
       <use style="stroke:#000000;stroke-width:0.8;" x="226.8" xlink:href="#md44bb149ef" y="168.698769"/>
      </g>
     </g>
    </g>
    <g id="ytick_5">
     <g id="line2d_26">
      <g>
       <use style="stroke:#000000;stroke-width:0.8;" x="226.8" xlink:href="#md44bb149ef" y="116.936343"/>
      </g>
     </g>
     <g id="text_8">
      <!-- 5 -->
      <g transform="translate(213.4375 120.735562)scale(0.1 -0.1)">
       <use xlink:href="#DejaVuSans-53"/>
      </g>
     </g>
    </g>
    <g id="ytick_6">
     <g id="line2d_27">
      <g>
       <use style="stroke:#000000;stroke-width:0.8;" x="226.8" xlink:href="#md44bb149ef" y="65.173917"/>
      </g>
     </g>
     <g id="text_9">
      <!-- 10 -->
      <g transform="translate(207.075 68.973136)scale(0.1 -0.1)">
       <use xlink:href="#DejaVuSans-49"/>
       <use x="63.623047" xlink:href="#DejaVuSans-48"/>
      </g>
     </g>
    </g>
    <g id="ytick_7">
     <g id="line2d_28">
      <g>
       <use style="stroke:#000000;stroke-width:0.8;" x="226.8" xlink:href="#md44bb149ef" y="13.411491"/>
      </g>
     </g>
     <g id="text_10">
      <!-- 15 -->
      <g transform="translate(207.075 17.21071)scale(0.1 -0.1)">
       <use xlink:href="#DejaVuSans-49"/>
       <use x="63.623047" xlink:href="#DejaVuSans-53"/>
      </g>
     </g>
    </g>
    <g id="ytick_8">
     <g id="line2d_29">
      <defs>
       <path d="M 0 0 
L -2 0 
" id="m6b614fbf5b" style="stroke:#000000;stroke-width:0.6;"/>
      </defs>
      <g>
       <use style="stroke:#000000;stroke-width:0.6;" x="226.8" xlink:href="#m6b614fbf5b" y="313.633562"/>
      </g>
     </g>
    </g>
    <g id="ytick_9">
     <g id="line2d_30">
      <g>
       <use style="stroke:#000000;stroke-width:0.6;" x="226.8" xlink:href="#m6b614fbf5b" y="303.281077"/>
      </g>
     </g>
    </g>
    <g id="ytick_10">
     <g id="line2d_31">
      <g>
       <use style="stroke:#000000;stroke-width:0.6;" x="226.8" xlink:href="#m6b614fbf5b" y="292.928592"/>
      </g>
     </g>
    </g>
    <g id="ytick_11">
     <g id="line2d_32">
      <g>
       <use style="stroke:#000000;stroke-width:0.6;" x="226.8" xlink:href="#m6b614fbf5b" y="282.576107"/>
      </g>
     </g>
    </g>
    <g id="ytick_12">
     <g id="line2d_33">
      <g>
       <use style="stroke:#000000;stroke-width:0.6;" x="226.8" xlink:href="#m6b614fbf5b" y="261.871136"/>
      </g>
     </g>
    </g>
    <g id="ytick_13">
     <g id="line2d_34">
      <g>
       <use style="stroke:#000000;stroke-width:0.6;" x="226.8" xlink:href="#m6b614fbf5b" y="251.518651"/>
      </g>
     </g>
    </g>
    <g id="ytick_14">
     <g id="line2d_35">
      <g>
       <use style="stroke:#000000;stroke-width:0.6;" x="226.8" xlink:href="#m6b614fbf5b" y="241.166166"/>
      </g>
     </g>
    </g>
    <g id="ytick_15">
     <g id="line2d_36">
      <g>
       <use style="stroke:#000000;stroke-width:0.6;" x="226.8" xlink:href="#m6b614fbf5b" y="230.81368"/>
      </g>
     </g>
    </g>
    <g id="ytick_16">
     <g id="line2d_37">
      <g>
       <use style="stroke:#000000;stroke-width:0.6;" x="226.8" xlink:href="#m6b614fbf5b" y="210.10871"/>
      </g>
     </g>
    </g>
    <g id="ytick_17">
     <g id="line2d_38">
      <g>
       <use style="stroke:#000000;stroke-width:0.6;" x="226.8" xlink:href="#m6b614fbf5b" y="199.756225"/>
      </g>
     </g>
    </g>
    <g id="ytick_18">
     <g id="line2d_39">
      <g>
       <use style="stroke:#000000;stroke-width:0.6;" x="226.8" xlink:href="#m6b614fbf5b" y="189.40374"/>
      </g>
     </g>
    </g>
    <g id="ytick_19">
     <g id="line2d_40">
      <g>
       <use style="stroke:#000000;stroke-width:0.6;" x="226.8" xlink:href="#m6b614fbf5b" y="179.051254"/>
      </g>
     </g>
    </g>
    <g id="ytick_20">
     <g id="line2d_41">
      <g>
       <use style="stroke:#000000;stroke-width:0.6;" x="226.8" xlink:href="#m6b614fbf5b" y="158.346284"/>
      </g>
     </g>
    </g>
    <g id="ytick_21">
     <g id="line2d_42">
      <g>
       <use style="stroke:#000000;stroke-width:0.6;" x="226.8" xlink:href="#m6b614fbf5b" y="147.993799"/>
      </g>
     </g>
    </g>
    <g id="ytick_22">
     <g id="line2d_43">
      <g>
       <use style="stroke:#000000;stroke-width:0.6;" x="226.8" xlink:href="#m6b614fbf5b" y="137.641314"/>
      </g>
     </g>
    </g>
    <g id="ytick_23">
     <g id="line2d_44">
      <g>
       <use style="stroke:#000000;stroke-width:0.6;" x="226.8" xlink:href="#m6b614fbf5b" y="127.288828"/>
      </g>
     </g>
    </g>
    <g id="ytick_24">
     <g id="line2d_45">
      <g>
       <use style="stroke:#000000;stroke-width:0.6;" x="226.8" xlink:href="#m6b614fbf5b" y="106.583858"/>
      </g>
     </g>
    </g>
    <g id="ytick_25">
     <g id="line2d_46">
      <g>
       <use style="stroke:#000000;stroke-width:0.6;" x="226.8" xlink:href="#m6b614fbf5b" y="96.231373"/>
      </g>
     </g>
    </g>
    <g id="ytick_26">
     <g id="line2d_47">
      <g>
       <use style="stroke:#000000;stroke-width:0.6;" x="226.8" xlink:href="#m6b614fbf5b" y="85.878888"/>
      </g>
     </g>
    </g>
    <g id="ytick_27">
     <g id="line2d_48">
      <g>
       <use style="stroke:#000000;stroke-width:0.6;" x="226.8" xlink:href="#m6b614fbf5b" y="75.526402"/>
      </g>
     </g>
    </g>
    <g id="ytick_28">
     <g id="line2d_49">
      <g>
       <use style="stroke:#000000;stroke-width:0.6;" x="226.8" xlink:href="#m6b614fbf5b" y="54.821432"/>
      </g>
     </g>
    </g>
    <g id="ytick_29">
     <g id="line2d_50">
      <g>
       <use style="stroke:#000000;stroke-width:0.6;" x="226.8" xlink:href="#m6b614fbf5b" y="44.468947"/>
      </g>
     </g>
    </g>
    <g id="ytick_30">
     <g id="line2d_51">
      <g>
       <use style="stroke:#000000;stroke-width:0.6;" x="226.8" xlink:href="#m6b614fbf5b" y="34.116462"/>
      </g>
     </g>
    </g>
    <g id="ytick_31">
     <g id="line2d_52">
      <g>
       <use style="stroke:#000000;stroke-width:0.6;" x="226.8" xlink:href="#m6b614fbf5b" y="23.763976"/>
      </g>
     </g>
    </g>
   </g>
   <g id="line2d_53">
    <path clip-path="url(#pa463fbc99b)" d="M 100.107692 168.698769 
L 120.80062 169.823531 
L 138.08897 170.96934 
L 154.242637 172.267965 
L 167.606649 173.563079 
L 179.809568 174.975682 
L 190.70667 176.478833 
L 200.360817 178.057311 
L 208.425079 179.603016 
L 214.715571 180.988007 
L 220.687324 182.480825 
L 226.992118 184.286501 
L 232.189209 185.991442 
L 237.233485 187.875185 
L 241.579792 189.717012 
L 245.975356 191.829128 
L 249.814581 193.921147 
L 253.627395 196.274618 
L 257.051222 198.670104 
L 260.036737 201.020282 
L 263.147186 203.779028 
L 265.617632 206.238046 
L 268.34352 209.279835 
L 270.738878 212.290597 
L 273.031615 215.525763 
L 275.435059 219.361686 
L 277.446875 222.991821 
L 279.542649 227.263169 
L 281.49713 231.788599 
L 283.302528 236.530991 
L 285.078084 241.832865 
L 286.719973 247.418315 
L 288.244469 253.317847 
L 289.766094 260.040719 
L 291.202744 267.324275 
L 292.680968 275.994287 
L 294.017552 285.113207 
L 295.392963 296.100747 
L 296.652557 307.978003 
L 297.850865 321.348315 
L 299.021287 336.934693 
L 299.120704 338.397538 
L 299.120704 338.397538 
" style="fill:none;"/>
   </g>
   <g id="line2d_54">
    <path clip-path="url(#pa463fbc99b)" d="M 15.646154 165.740916 
L 17.25438 165.781365 
L 18.843933 165.821781 
L 21.949913 165.902037 
L 24.45647 165.968071 
L 25.546927 165.99716 
L 29.180335 166.095709 
L 31.433305 166.158101 
L 31.630929 166.163622 
L 34.971501 166.25814 
L 35.934838 166.285823 
L 38.61983 166.364012 
L 41.58988 166.452316 
L 43.142562 166.499258 
L 45.15042 166.560774 
L 47.197502 166.624454 
L 49.312807 166.691303 
L 50.879809 166.741524 
L 53.342945 166.821699 
L 55.448803 166.891469 
L 57.727176 166.96826 
L 59.286401 167.021612 
L 62.201362 167.123147 
L 65.417288 167.237959 
L 66.528387 167.278327 
L 69.267361 167.379423 
L 69.988773 167.406432 
L 73.13455 167.526122 
L 75.974397 167.63692 
L 76.202126 167.64592 
L 80.279546 167.810083 
L 81.001666 167.839762 
L 84.138454 167.970876 
L 86.566443 168.074877 
L 87.181923 168.101598 
L 90.728779 168.258494 
L 92.744366 168.349924 
L 94.282501 168.420838 
L 96.528036 168.526191 
L 99.140078 168.651545 
L 99.653845 168.676566 
L 101.727262 168.778787 
L 104.90019 168.939193 
L 105.842426 168.987782 
L 109.517665 169.181642 
L 110.246549 169.220931 
L 113.237288 169.38517 
L 114.943019 169.481082 
L 116.598832 169.575795 
L 120.481803 169.804351 
L 122.586508 169.932168 
L 123.676131 169.999467 
L 125.975053 170.144053 
L 128.841706 170.32945 
L 130.51844 170.440616 
L 132.33127 170.56315 
L 134.725163 170.728815 
L 136.85382 170.879944 
L 138.076673 170.968444 
L 140.216306 171.126337 
L 142.862388 171.327152 
L 145.445238 171.529349 
L 147.762723 171.71621 
L 149.189189 171.833884 
L 150.781818 171.967738 
L 153.721195 172.221886 
L 156.23439 172.446828 
L 158.284049 172.635753 
L 159.074945 172.710014 
L 161.055826 172.899439 
L 165.050813 173.297082 
L 167.331186 173.533957 
L 167.484115 173.550111 
L 170.852563 173.914855 
L 173.043063 174.161587 
L 175.598955 174.459548 
L 176.591756 174.578337 
L 178.190117 174.773305 
L 181.227563 175.157022 
L 182.381815 175.307579 
L 184.567194 175.600149 
L 187.114876 175.954225 
L 189.809596 176.344902 
L 192.43661 176.74282 
L 193.279946 176.874319 
L 195.939592 177.301627 
L 199.143853 177.84336 
L 201.331137 178.231293 
L 202.702027 178.482401 
L 204.610679 178.842763 
L 206.474316 179.207292 
L 208.284028 179.5739 
L 209.934669 179.919704 
L 211.58531 180.27696 
L 213.716886 180.756196 
L 215.650521 181.209413 
L 216.23009 181.348849 
L 218.918663 182.018571 
L 220.443822 182.416115 
L 222.919235 183.090568 
" style="fill:none;stroke:#0000ff;stroke-linecap:square;stroke-width:3;"/>
   </g>
   <g id="line2d_55">
    <path clip-path="url(#pa463fbc99b)" d="M 228.760832 184.842628 
L 233.293719 186.38307 
L 238.622457 188.439823 
L 243.494736 190.60348 
L 247.670773 192.721827 
L 251.683915 195.037359 
L 255.122269 197.284572 
L 258.163278 199.514621 
L 261.221392 202.03055 
L 263.746964 204.352528 
L 266.435959 207.112347 
L 268.684529 209.687774 
L 270.942366 212.56285 
L 273.291286 215.9168 
L 275.52843 219.52112 
L 277.80767 223.689014 
L 279.934332 228.124835 
L 281.699883 232.292314 
L 283.713074 237.696155 
L 285.446561 243.024532 
L 287.074396 248.723518 
L 288.547604 254.585317 
L 290.146543 261.873043 
L 291.706426 270.131221 
L 293.065276 278.479033 
L 294.50114 288.770811 
L 295.826553 299.970457 
L 297.072228 312.403599 
L 298.297945 326.969821 
L 299.120612 338.397538 
L 299.120612 338.397538 
" style="fill:none;stroke:#0000ff;stroke-linecap:square;stroke-width:3;"/>
   </g>
   <g id="line2d_56">
    <path clip-path="url(#pa463fbc99b)" d="M 324.980165 -1 
L 326.301735 13.004627 
L 327.58418 24.423904 
L 329.039081 35.384007 
L 330.58544 45.223835 
L 332.15355 53.714568 
L 333.705323 60.94885 
L 335.290868 67.375495 
L 336.876413 73.00653 
L 338.682192 78.626554 
L 340.405605 83.340722 
L 342.31622 87.955382 
L 344.223309 92.028029 
L 346.169619 95.725623 
L 348.044063 98.916783 
L 350.334445 102.400432 
L 352.441922 105.263557 
L 355.037774 108.411267 
L 357.946371 111.522359 
L 360.542856 113.989372 
L 363.746011 116.696498 
L 367.110276 119.205434 
L 370.71281 121.577229 
L 374.29829 123.668623 
L 378.624897 125.895897 
L 383.187798 127.954504 
L 387.986994 129.855517 
L 393.158056 131.654464 
L 398.967604 133.422499 
L 406.287607 135.342417 
L 414.25658 137.122281 
L 421.283378 138.477801 
L 429.97404 139.932326 
L 437.953846 141.092142 
L 437.953846 141.092142 
" style="fill:none;stroke:#0000ff;stroke-linecap:square;stroke-width:3;"/>
   </g>
   <g id="patch_4">
    <path d="M 226.8 330.197538 
L 226.8 7.2 
" style="fill:none;stroke:#000000;stroke-linecap:square;stroke-linejoin:miter;stroke-width:0.8;"/>
   </g>
   <g id="patch_5">
    <path d="M 7.2 168.698769 
L 446.4 168.698769 
" style="fill:none;stroke:#000000;stroke-linecap:square;stroke-linejoin:miter;stroke-width:0.8;"/>
   </g>
  </g>
 </g>
 <defs>
  <clipPath id="pa463fbc99b">
   <rect height="322.997538" width="439.2" x="7.2" y="7.2"/>
  </clipPath>
 </defs>
</svg>
