<?xml version="1.0" encoding="utf-8" standalone="no"?>
<!DOCTYPE svg PUBLIC "-//W3C//DTD SVG 1.1//EN"
  "http://www.w3.org/Graphics/SVG/1.1/DTD/svg11.dtd">
<!-- Created with matplotlib (https://matplotlib.org/) -->
<svg height="33.316178pt" version="1.1" viewBox="0 0 453.6 33.316178" width="453.6pt" xmlns="http://www.w3.org/2000/svg" xmlns:xlink="http://www.w3.org/1999/xlink">
 <metadata>
  <rdf:RDF xmlns:cc="http://creativecommons.org/ns#" xmlns:dc="http://purl.org/dc/elements/1.1/" xmlns:rdf="http://www.w3.org/1999/02/22-rdf-syntax-ns#">
   <cc:Work>
    <dc:type rdf:resource="http://purl.org/dc/dcmitype/StillImage"/>
    <dc:date>2024-08-01T03:39:42.329365</dc:date>
    <dc:format>image/svg+xml</dc:format>
    <dc:creator>
     <cc:Agent>
      <dc:title>Matplotlib v3.3.4, https://matplotlib.org/</dc:title>
     </cc:Agent>
    </dc:creator>
   </cc:Work>
  </rdf:RDF>
 </metadata>
 <defs>
  <style type="text/css">*{stroke-linecap:butt;stroke-linejoin:round;}</style>
 </defs>
 <g id="figure_1">
  <g id="patch_1">
   <path d="M 0 33.316178 
L 453.6 33.316178 
L 453.6 -0 
L 0 -0 
z
" style="fill:#ffffff;"/>
  </g>
  <g id="axes_1">
   <g id="patch_2">
    <path d="M 7.2 21.446038 
L 446.4 21.446038 
L 446.4 12.662038 
L 7.2 12.662038 
z
" style="fill:#ffffff;"/>
   </g>
   <g id="matplotlib.axis_1"/>
   <g id="matplotlib.axis_2"/>
   <g id="patch_3">
    <path clip-path="url(#pefbfcd83a8)" d="M 226.8 14.9425 
Q 332.376923 14.9425 436.835812 14.9425 
" style="fill:none;stroke:#000000;stroke-linecap:round;"/>
    <path clip-path="url(#pefbfcd83a8)" d="M 434.835812 13.9425 
L 436.835812 14.9425 
L 434.835812 15.9425 
L 434.835812 13.9425 
z
" style="stroke:#000000;stroke-linecap:round;"/>
   </g>
   <g id="patch_4">
    <path clip-path="url(#pefbfcd83a8)" d="M 226.8 14.9425 
Q 121.223077 14.9425 16.764188 14.9425 
" style="fill:none;stroke:#000000;stroke-linecap:round;"/>
    <path clip-path="url(#pefbfcd83a8)" d="M 18.764188 15.9425 
L 16.764188 14.9425 
L 18.764188 13.9425 
L 18.764188 15.9425 
z
" style="stroke:#000000;stroke-linecap:round;"/>
   </g>
   <g id="patch_5">
    <path clip-path="url(#pefbfcd83a8)" d="M 89.55 14.9425 
Q 263.751923 14.9425 434.599744 14.9425 
" style="fill:none;stroke:#0088ff;stroke-linecap:round;stroke-width:3;"/>
    <path clip-path="url(#pefbfcd83a8)" d="M 428.599744 11.9425 
L 434.599744 14.9425 
L 428.599744 17.9425 
L 428.599744 11.9425 
z
" style="fill:#0088ff;stroke:#0088ff;stroke-linecap:round;stroke-width:3;"/>
   </g>
   <g id="line2d_1">
    <path clip-path="url(#pefbfcd83a8)" d="M 26.203846 17.054038 
L 26.203846 12.830962 
" style="fill:none;stroke:#000000;stroke-linecap:square;"/>
   </g>
   <g id="line2d_2">
    <path clip-path="url(#pefbfcd83a8)" d="M 36.761538 17.054038 
L 36.761538 12.830962 
" style="fill:none;stroke:#000000;stroke-linecap:square;"/>
   </g>
   <g id="line2d_3">
    <path clip-path="url(#pefbfcd83a8)" d="M 47.319231 17.054038 
L 47.319231 12.830962 
" style="fill:none;stroke:#000000;stroke-linecap:square;"/>
   </g>
   <g id="line2d_4">
    <path clip-path="url(#pefbfcd83a8)" d="M 57.876923 17.054038 
L 57.876923 12.830962 
" style="fill:none;stroke:#000000;stroke-linecap:square;"/>
   </g>
   <g id="line2d_5">
    <path clip-path="url(#pefbfcd83a8)" d="M 68.434615 17.054038 
L 68.434615 12.830962 
" style="fill:none;stroke:#000000;stroke-linecap:square;"/>
   </g>
   <g id="line2d_6">
    <path clip-path="url(#pefbfcd83a8)" d="M 78.992308 17.054038 
L 78.992308 12.830962 
" style="fill:none;stroke:#000000;stroke-linecap:square;"/>
   </g>
   <g id="line2d_7">
    <path clip-path="url(#pefbfcd83a8)" d="M 89.55 17.054038 
L 89.55 12.830962 
" style="fill:none;stroke:#000000;stroke-linecap:square;"/>
   </g>
   <g id="line2d_8">
    <path clip-path="url(#pefbfcd83a8)" d="M 100.107692 17.054038 
L 100.107692 12.830962 
" style="fill:none;stroke:#000000;stroke-linecap:square;"/>
   </g>
   <g id="line2d_9">
    <path clip-path="url(#pefbfcd83a8)" d="M 110.665385 17.054038 
L 110.665385 12.830962 
" style="fill:none;stroke:#000000;stroke-linecap:square;"/>
   </g>
   <g id="line2d_10">
    <path clip-path="url(#pefbfcd83a8)" d="M 121.223077 17.054038 
L 121.223077 12.830962 
" style="fill:none;stroke:#000000;stroke-linecap:square;"/>
   </g>
   <g id="line2d_11">
    <path clip-path="url(#pefbfcd83a8)" d="M 131.780769 17.054038 
L 131.780769 12.830962 
" style="fill:none;stroke:#000000;stroke-linecap:square;"/>
   </g>
   <g id="line2d_12">
    <path clip-path="url(#pefbfcd83a8)" d="M 142.338462 17.054038 
L 142.338462 12.830962 
" style="fill:none;stroke:#000000;stroke-linecap:square;"/>
   </g>
   <g id="line2d_13">
    <path clip-path="url(#pefbfcd83a8)" d="M 152.896154 17.054038 
L 152.896154 12.830962 
" style="fill:none;stroke:#000000;stroke-linecap:square;"/>
   </g>
   <g id="line2d_14">
    <path clip-path="url(#pefbfcd83a8)" d="M 163.453846 17.054038 
L 163.453846 12.830962 
" style="fill:none;stroke:#000000;stroke-linecap:square;"/>
   </g>
   <g id="line2d_15">
    <path clip-path="url(#pefbfcd83a8)" d="M 174.011538 17.054038 
L 174.011538 12.830962 
" style="fill:none;stroke:#000000;stroke-linecap:square;"/>
   </g>
   <g id="line2d_16">
    <path clip-path="url(#pefbfcd83a8)" d="M 184.569231 17.054038 
L 184.569231 12.830962 
" style="fill:none;stroke:#000000;stroke-linecap:square;"/>
   </g>
   <g id="line2d_17">
    <path clip-path="url(#pefbfcd83a8)" d="M 195.126923 17.054038 
L 195.126923 12.830962 
" style="fill:none;stroke:#000000;stroke-linecap:square;"/>
   </g>
   <g id="line2d_18">
    <path clip-path="url(#pefbfcd83a8)" d="M 205.684615 17.054038 
L 205.684615 12.830962 
" style="fill:none;stroke:#000000;stroke-linecap:square;"/>
   </g>
   <g id="line2d_19">
    <path clip-path="url(#pefbfcd83a8)" d="M 216.242308 17.054038 
L 216.242308 12.830962 
" style="fill:none;stroke:#000000;stroke-linecap:square;"/>
   </g>
   <g id="line2d_20">
    <path clip-path="url(#pefbfcd83a8)" d="M 226.8 17.054038 
L 226.8 12.830962 
" style="fill:none;stroke:#000000;stroke-linecap:square;"/>
   </g>
   <g id="line2d_21">
    <path clip-path="url(#pefbfcd83a8)" d="M 237.357692 17.054038 
L 237.357692 12.830962 
" style="fill:none;stroke:#000000;stroke-linecap:square;"/>
   </g>
   <g id="line2d_22">
    <path clip-path="url(#pefbfcd83a8)" d="M 247.915385 17.054038 
L 247.915385 12.830962 
" style="fill:none;stroke:#000000;stroke-linecap:square;"/>
   </g>
   <g id="line2d_23">
    <path clip-path="url(#pefbfcd83a8)" d="M 258.473077 17.054038 
L 258.473077 12.830962 
" style="fill:none;stroke:#000000;stroke-linecap:square;"/>
   </g>
   <g id="line2d_24">
    <path clip-path="url(#pefbfcd83a8)" d="M 269.030769 17.054038 
L 269.030769 12.830962 
" style="fill:none;stroke:#000000;stroke-linecap:square;"/>
   </g>
   <g id="line2d_25">
    <path clip-path="url(#pefbfcd83a8)" d="M 279.588462 17.054038 
L 279.588462 12.830962 
" style="fill:none;stroke:#000000;stroke-linecap:square;"/>
   </g>
   <g id="line2d_26">
    <path clip-path="url(#pefbfcd83a8)" d="M 290.146154 17.054038 
L 290.146154 12.830962 
" style="fill:none;stroke:#000000;stroke-linecap:square;"/>
   </g>
   <g id="line2d_27">
    <path clip-path="url(#pefbfcd83a8)" d="M 300.703846 17.054038 
L 300.703846 12.830962 
" style="fill:none;stroke:#000000;stroke-linecap:square;"/>
   </g>
   <g id="line2d_28">
    <path clip-path="url(#pefbfcd83a8)" d="M 311.261538 17.054038 
L 311.261538 12.830962 
" style="fill:none;stroke:#000000;stroke-linecap:square;"/>
   </g>
   <g id="line2d_29">
    <path clip-path="url(#pefbfcd83a8)" d="M 321.819231 17.054038 
L 321.819231 12.830962 
" style="fill:none;stroke:#000000;stroke-linecap:square;"/>
   </g>
   <g id="line2d_30">
    <path clip-path="url(#pefbfcd83a8)" d="M 332.376923 17.054038 
L 332.376923 12.830962 
" style="fill:none;stroke:#000000;stroke-linecap:square;"/>
   </g>
   <g id="line2d_31">
    <path clip-path="url(#pefbfcd83a8)" d="M 342.934615 17.054038 
L 342.934615 12.830962 
" style="fill:none;stroke:#000000;stroke-linecap:square;"/>
   </g>
   <g id="line2d_32">
    <path clip-path="url(#pefbfcd83a8)" d="M 353.492308 17.054038 
L 353.492308 12.830962 
" style="fill:none;stroke:#000000;stroke-linecap:square;"/>
   </g>
   <g id="line2d_33">
    <path clip-path="url(#pefbfcd83a8)" d="M 364.05 17.054038 
L 364.05 12.830962 
" style="fill:none;stroke:#000000;stroke-linecap:square;"/>
   </g>
   <g id="line2d_34">
    <path clip-path="url(#pefbfcd83a8)" d="M 374.607692 17.054038 
L 374.607692 12.830962 
" style="fill:none;stroke:#000000;stroke-linecap:square;"/>
   </g>
   <g id="line2d_35">
    <path clip-path="url(#pefbfcd83a8)" d="M 385.165385 17.054038 
L 385.165385 12.830962 
" style="fill:none;stroke:#000000;stroke-linecap:square;"/>
   </g>
   <g id="line2d_36">
    <path clip-path="url(#pefbfcd83a8)" d="M 395.723077 17.054038 
L 395.723077 12.830962 
" style="fill:none;stroke:#000000;stroke-linecap:square;"/>
   </g>
   <g id="line2d_37">
    <path clip-path="url(#pefbfcd83a8)" d="M 406.280769 17.054038 
L 406.280769 12.830962 
" style="fill:none;stroke:#000000;stroke-linecap:square;"/>
   </g>
   <g id="line2d_38">
    <path clip-path="url(#pefbfcd83a8)" d="M 416.838462 17.054038 
L 416.838462 12.830962 
" style="fill:none;stroke:#000000;stroke-linecap:square;"/>
   </g>
   <g id="line2d_39">
    <path clip-path="url(#pefbfcd83a8)" d="M 427.396154 17.054038 
L 427.396154 12.830962 
" style="fill:none;stroke:#000000;stroke-linecap:square;"/>
   </g>
   <g id="text_1">
    <!-- $-18$ -->
    <g transform="translate(27.861538 24.03649)scale(0.1 -0.1)">
     <defs>
      <path d="M 10.203125 23 
Q 9.375 23 8.828125 23.625 
Q 8.296875 24.265625 8.296875 25 
Q 8.296875 25.734375 8.828125 26.359375 
Q 9.375 27 10.203125 27 
L 67.578125 27 
Q 68.359375 27 68.875 26.359375 
Q 69.390625 25.734375 69.390625 25 
Q 69.390625 24.265625 68.875 23.625 
Q 68.359375 23 67.578125 23 
z
" id="Cmsy10-161"/>
      <path d="M 9.28125 0 
L 9.28125 3.515625 
Q 21.78125 3.515625 21.78125 6.6875 
L 21.78125 59.1875 
Q 16.609375 56.6875 8.6875 56.6875 
L 8.6875 60.203125 
Q 20.953125 60.203125 27.203125 66.609375 
L 28.609375 66.609375 
Q 28.953125 66.609375 29.265625 66.328125 
Q 29.59375 66.0625 29.59375 65.71875 
L 29.59375 6.6875 
Q 29.59375 3.515625 42.09375 3.515625 
L 42.09375 0 
z
" id="Cmr10-49"/>
      <path d="M 4.203125 15.1875 
Q 4.203125 21.1875 8.15625 25.796875 
Q 12.109375 30.421875 18.3125 33.5 
L 14.59375 35.890625 
Q 11.1875 38.140625 9.03125 41.875 
Q 6.890625 45.609375 6.890625 49.703125 
Q 6.890625 54.5 9.40625 58.34375 
Q 11.921875 62.203125 16.09375 64.40625 
Q 20.265625 66.609375 25 66.609375 
Q 29.4375 66.609375 33.5625 64.796875 
Q 37.703125 62.984375 40.359375 59.609375 
Q 43.015625 56.25 43.015625 51.609375 
Q 43.015625 48.25 41.421875 45.359375 
Q 39.84375 42.484375 37.078125 40.1875 
Q 34.328125 37.890625 31.203125 36.28125 
L 36.921875 32.625 
Q 40.875 30.03125 43.28125 25.828125 
Q 45.703125 21.625 45.703125 17 
Q 45.703125 11.578125 42.796875 7.125 
Q 39.890625 2.6875 35.109375 0.234375 
Q 30.328125 -2.203125 25 -2.203125 
Q 19.828125 -2.203125 15.015625 -0.09375 
Q 10.203125 2 7.203125 5.984375 
Q 4.203125 9.96875 4.203125 15.1875 
z
M 9.625 15.1875 
Q 9.625 11.234375 11.796875 7.953125 
Q 13.96875 4.6875 17.53125 2.828125 
Q 21.09375 0.984375 25 0.984375 
Q 30.8125 0.984375 35.546875 4.375 
Q 40.28125 7.765625 40.28125 13.375 
Q 40.28125 15.28125 39.515625 17.15625 
Q 38.765625 19.046875 37.421875 20.578125 
Q 36.078125 22.125 34.421875 23.09375 
L 21 31.78125 
Q 17.875 30.125 15.25 27.578125 
Q 12.640625 25.046875 11.125 21.875 
Q 9.625 18.703125 9.625 15.1875 
z
M 16.5 45.703125 
L 28.609375 37.890625 
Q 32.8125 40.328125 35.5 43.796875 
Q 38.1875 47.265625 38.1875 51.609375 
Q 38.1875 54.984375 36.296875 57.78125 
Q 34.421875 60.59375 31.390625 62.15625 
Q 28.375 63.71875 24.90625 63.71875 
Q 21.875 63.71875 18.796875 62.546875 
Q 15.71875 61.375 13.71875 59.046875 
Q 11.71875 56.734375 11.71875 53.609375 
Q 11.71875 48.921875 16.5 45.703125 
z
" id="Cmr10-56"/>
     </defs>
     <use transform="translate(0 0.390625)" xlink:href="#Cmsy10-161"/>
     <use transform="translate(77.685547 0.390625)" xlink:href="#Cmr10-49"/>
     <use transform="translate(127.685547 0.390625)" xlink:href="#Cmr10-56"/>
    </g>
   </g>
   <g id="text_2">
    <!-- $-16$ -->
    <g transform="translate(48.976923 24.03649)scale(0.1 -0.1)">
     <defs>
      <path d="M 25 -2.203125 
Q 18.796875 -2.203125 14.640625 1.09375 
Q 10.5 4.390625 8.21875 9.640625 
Q 5.953125 14.890625 5.078125 20.65625 
Q 4.203125 26.421875 4.203125 32.328125 
Q 4.203125 40.234375 7.28125 48.1875 
Q 10.359375 56.15625 16.328125 61.375 
Q 22.3125 66.609375 30.515625 66.609375 
Q 33.9375 66.609375 36.890625 65.3125 
Q 39.84375 64.015625 41.53125 61.5 
Q 43.21875 58.984375 43.21875 55.421875 
Q 43.21875 53.375 41.828125 51.984375 
Q 40.4375 50.59375 38.375 50.59375 
Q 36.421875 50.59375 35 52 
Q 33.59375 53.421875 33.59375 55.421875 
Q 33.59375 57.375 35 58.78125 
Q 36.421875 60.203125 38.375 60.203125 
L 38.921875 60.203125 
Q 37.640625 62.015625 35.328125 62.859375 
Q 33.015625 63.71875 30.515625 63.71875 
Q 27.484375 63.71875 24.921875 62.390625 
Q 22.359375 61.078125 20.3125 58.828125 
Q 18.265625 56.59375 16.890625 53.875 
Q 15.53125 51.171875 14.765625 47.703125 
Q 14.015625 44.234375 13.8125 41.203125 
Q 13.625 38.1875 13.625 33.59375 
Q 15.375 37.703125 18.59375 40.3125 
Q 21.828125 42.921875 25.875 42.921875 
Q 30.328125 42.921875 33.984375 41.109375 
Q 37.640625 39.3125 40.28125 36.109375 
Q 42.921875 32.90625 44.3125 28.796875 
Q 45.703125 24.703125 45.703125 20.515625 
Q 45.703125 14.65625 43.09375 9.34375 
Q 40.484375 4.046875 35.734375 0.921875 
Q 31 -2.203125 25 -2.203125 
z
M 25 0.984375 
Q 28.859375 0.984375 31.203125 2.734375 
Q 33.546875 4.5 34.640625 7.390625 
Q 35.75 10.296875 36.015625 13.25 
Q 36.28125 16.21875 36.28125 20.515625 
Q 36.28125 26.171875 35.734375 30.171875 
Q 35.203125 34.1875 32.8125 37.234375 
Q 30.421875 40.28125 25.484375 40.28125 
Q 21.4375 40.28125 18.828125 37.546875 
Q 16.21875 34.8125 15.015625 30.640625 
Q 13.8125 26.46875 13.8125 22.609375 
Q 13.8125 21.296875 13.921875 20.609375 
Q 13.921875 20.453125 13.890625 20.359375 
Q 13.875 20.265625 13.8125 20.125 
Q 13.8125 15.828125 14.6875 11.421875 
Q 15.578125 7.03125 18.0625 4 
Q 20.5625 0.984375 25 0.984375 
z
" id="Cmr10-54"/>
     </defs>
     <use transform="translate(0 0.390625)" xlink:href="#Cmsy10-161"/>
     <use transform="translate(77.685547 0.390625)" xlink:href="#Cmr10-49"/>
     <use transform="translate(127.685547 0.390625)" xlink:href="#Cmr10-54"/>
    </g>
   </g>
   <g id="text_3">
    <!-- $-14$ -->
    <g transform="translate(70.092308 24.03649)scale(0.1 -0.1)">
     <defs>
      <path d="M 2.78125 16.5 
L 2.78125 20.015625 
L 33.6875 66.109375 
Q 34.03125 66.609375 34.71875 66.609375 
L 36.1875 66.609375 
Q 37.3125 66.609375 37.3125 65.484375 
L 37.3125 20.015625 
L 47.125 20.015625 
L 47.125 16.5 
L 37.3125 16.5 
L 37.3125 6.6875 
Q 37.3125 4.640625 40.234375 4.078125 
Q 43.171875 3.515625 47.015625 3.515625 
L 47.015625 0 
L 19.484375 0 
L 19.484375 3.515625 
Q 23.34375 3.515625 26.265625 4.078125 
Q 29.203125 4.640625 29.203125 6.6875 
L 29.203125 16.5 
z
M 6.109375 20.015625 
L 29.78125 20.015625 
L 29.78125 55.421875 
z
" id="Cmr10-52"/>
     </defs>
     <use transform="translate(0 0.390625)" xlink:href="#Cmsy10-161"/>
     <use transform="translate(77.685547 0.390625)" xlink:href="#Cmr10-49"/>
     <use transform="translate(127.685547 0.390625)" xlink:href="#Cmr10-52"/>
    </g>
   </g>
   <g id="text_4">
    <!-- $-12$ -->
    <g transform="translate(91.207692 24.03649)scale(0.1 -0.1)">
     <defs>
      <path d="M 4.984375 0 
L 4.984375 2.6875 
Q 4.984375 2.9375 5.171875 3.21875 
L 20.703125 20.40625 
Q 24.21875 24.21875 26.40625 26.796875 
Q 28.609375 29.390625 30.75 32.765625 
Q 32.90625 36.140625 34.15625 39.625 
Q 35.40625 43.109375 35.40625 47.015625 
Q 35.40625 51.125 33.890625 54.859375 
Q 32.375 58.59375 29.375 60.84375 
Q 26.375 63.09375 22.125 63.09375 
Q 17.78125 63.09375 14.3125 60.46875 
Q 10.84375 57.859375 9.421875 53.71875 
Q 9.8125 53.8125 10.5 53.8125 
Q 12.75 53.8125 14.328125 52.296875 
Q 15.921875 50.78125 15.921875 48.390625 
Q 15.921875 46.09375 14.328125 44.5 
Q 12.75 42.921875 10.5 42.921875 
Q 8.15625 42.921875 6.5625 44.546875 
Q 4.984375 46.1875 4.984375 48.390625 
Q 4.984375 52.15625 6.390625 55.4375 
Q 7.8125 58.734375 10.46875 61.296875 
Q 13.140625 63.875 16.484375 65.234375 
Q 19.828125 66.609375 23.578125 66.609375 
Q 29.296875 66.609375 34.21875 64.1875 
Q 39.15625 61.765625 42.03125 57.34375 
Q 44.921875 52.9375 44.921875 47.015625 
Q 44.921875 42.671875 43.015625 38.765625 
Q 41.109375 34.859375 38.125 31.65625 
Q 35.15625 28.46875 30.515625 24.40625 
Q 25.875 20.359375 24.421875 19 
L 13.09375 8.109375 
L 22.703125 8.109375 
Q 29.78125 8.109375 34.546875 8.21875 
Q 39.3125 8.34375 39.59375 8.59375 
Q 40.765625 9.859375 42 17.828125 
L 44.921875 17.828125 
L 42.09375 0 
z
" id="Cmr10-50"/>
     </defs>
     <use transform="translate(0 0.390625)" xlink:href="#Cmsy10-161"/>
     <use transform="translate(77.685547 0.390625)" xlink:href="#Cmr10-49"/>
     <use transform="translate(127.685547 0.390625)" xlink:href="#Cmr10-50"/>
    </g>
   </g>
   <g id="text_5">
    <!-- $-10$ -->
    <g transform="translate(112.323077 24.03649)scale(0.1 -0.1)">
     <defs>
      <path d="M 25 -2.203125 
Q 12.75 -2.203125 8.328125 7.875 
Q 3.90625 17.96875 3.90625 31.890625 
Q 3.90625 40.578125 5.484375 48.234375 
Q 7.078125 55.90625 11.78125 61.25 
Q 16.5 66.609375 25 66.609375 
Q 31.59375 66.609375 35.78125 63.375 
Q 39.984375 60.15625 42.1875 55.046875 
Q 44.390625 49.953125 45.1875 44.109375 
Q 46 38.28125 46 31.890625 
Q 46 23.296875 44.40625 15.796875 
Q 42.828125 8.296875 38.1875 3.046875 
Q 33.546875 -2.203125 25 -2.203125 
z
M 25 0.390625 
Q 30.5625 0.390625 33.296875 6.09375 
Q 36.03125 11.8125 36.671875 18.75 
Q 37.3125 25.6875 37.3125 33.5 
Q 37.3125 41.015625 36.671875 47.359375 
Q 36.03125 53.71875 33.3125 58.859375 
Q 30.609375 64.015625 25 64.015625 
Q 19.34375 64.015625 16.609375 58.828125 
Q 13.875 53.65625 13.234375 47.328125 
Q 12.59375 41.015625 12.59375 33.5 
Q 12.59375 27.9375 12.859375 23 
Q 13.140625 18.0625 14.3125 12.8125 
Q 15.484375 7.5625 18.09375 3.96875 
Q 20.703125 0.390625 25 0.390625 
z
" id="Cmr10-48"/>
     </defs>
     <use transform="translate(0 0.390625)" xlink:href="#Cmsy10-161"/>
     <use transform="translate(77.685547 0.390625)" xlink:href="#Cmr10-49"/>
     <use transform="translate(127.685547 0.390625)" xlink:href="#Cmr10-48"/>
    </g>
   </g>
   <g id="text_6">
    <!-- $-8$ -->
    <g transform="translate(135.938462 24.03649)scale(0.1 -0.1)">
     <use transform="translate(0 0.390625)" xlink:href="#Cmsy10-161"/>
     <use transform="translate(77.685547 0.390625)" xlink:href="#Cmr10-56"/>
    </g>
   </g>
   <g id="text_7">
    <!-- $-6$ -->
    <g transform="translate(157.053846 24.03649)scale(0.1 -0.1)">
     <use transform="translate(0 0.390625)" xlink:href="#Cmsy10-161"/>
     <use transform="translate(77.685547 0.390625)" xlink:href="#Cmr10-54"/>
    </g>
   </g>
   <g id="text_8">
    <!-- $-4$ -->
    <g transform="translate(178.169231 24.03649)scale(0.1 -0.1)">
     <use transform="translate(0 0.390625)" xlink:href="#Cmsy10-161"/>
     <use transform="translate(77.685547 0.390625)" xlink:href="#Cmr10-52"/>
    </g>
   </g>
   <g id="text_9">
    <!-- $-2$ -->
    <g transform="translate(199.284615 24.03649)scale(0.1 -0.1)">
     <use transform="translate(0 0.390625)" xlink:href="#Cmsy10-161"/>
     <use transform="translate(77.685547 0.390625)" xlink:href="#Cmr10-50"/>
    </g>
   </g>
   <g id="text_10">
    <!-- $0$ -->
    <g transform="translate(224.3 24.03649)scale(0.1 -0.1)">
     <use transform="translate(0 0.390625)" xlink:href="#Cmr10-48"/>
    </g>
   </g>
   <g id="text_11">
    <!-- $2$ -->
    <g transform="translate(245.415385 24.03649)scale(0.1 -0.1)">
     <use transform="translate(0 0.390625)" xlink:href="#Cmr10-50"/>
    </g>
   </g>
   <g id="text_12">
    <!-- $4$ -->
    <g transform="translate(266.530769 24.03649)scale(0.1 -0.1)">
     <use transform="translate(0 0.390625)" xlink:href="#Cmr10-52"/>
    </g>
   </g>
   <g id="text_13">
    <!-- $6$ -->
    <g transform="translate(287.646154 24.03649)scale(0.1 -0.1)">
     <use transform="translate(0 0.390625)" xlink:href="#Cmr10-54"/>
    </g>
   </g>
   <g id="text_14">
    <!-- $8$ -->
    <g transform="translate(308.761538 24.03649)scale(0.1 -0.1)">
     <use transform="translate(0 0.390625)" xlink:href="#Cmr10-56"/>
    </g>
   </g>
   <g id="text_15">
    <!-- $10$ -->
    <g transform="translate(327.376923 24.03649)scale(0.1 -0.1)">
     <use transform="translate(0 0.390625)" xlink:href="#Cmr10-49"/>
     <use transform="translate(50 0.390625)" xlink:href="#Cmr10-48"/>
    </g>
   </g>
   <g id="text_16">
    <!-- $12$ -->
    <g transform="translate(348.492308 24.03649)scale(0.1 -0.1)">
     <use transform="translate(0 0.390625)" xlink:href="#Cmr10-49"/>
     <use transform="translate(50 0.390625)" xlink:href="#Cmr10-50"/>
    </g>
   </g>
   <g id="text_17">
    <!-- $14$ -->
    <g transform="translate(369.607692 24.03649)scale(0.1 -0.1)">
     <use transform="translate(0 0.390625)" xlink:href="#Cmr10-49"/>
     <use transform="translate(50 0.390625)" xlink:href="#Cmr10-52"/>
    </g>
   </g>
   <g id="text_18">
    <!-- $16$ -->
    <g transform="translate(390.723077 24.03649)scale(0.1 -0.1)">
     <use transform="translate(0 0.390625)" xlink:href="#Cmr10-49"/>
     <use transform="translate(50 0.390625)" xlink:href="#Cmr10-54"/>
    </g>
   </g>
   <g id="text_19">
    <!-- $18$ -->
    <g transform="translate(411.838462 24.03649)scale(0.1 -0.1)">
     <use transform="translate(0 0.390625)" xlink:href="#Cmr10-49"/>
     <use transform="translate(50 0.390625)" xlink:href="#Cmr10-56"/>
    </g>
   </g>
   <g id="text_20">
    <!-- ( -->
    <g style="fill:#0088ff;" transform="translate(86.42875 19.3575)scale(0.16 -0.16)">
     <defs>
      <path d="M 31 75.875 
Q 24.46875 64.65625 21.28125 53.65625 
Q 18.109375 42.671875 18.109375 31.390625 
Q 18.109375 20.125 21.3125 9.0625 
Q 24.515625 -2 31 -13.1875 
L 23.1875 -13.1875 
Q 15.875 -1.703125 12.234375 9.375 
Q 8.59375 20.453125 8.59375 31.390625 
Q 8.59375 42.28125 12.203125 53.3125 
Q 15.828125 64.359375 23.1875 75.875 
z
" id="DejaVuSans-40"/>
     </defs>
     <use xlink:href="#DejaVuSans-40"/>
    </g>
   </g>
  </g>
 </g>
 <defs>
  <clipPath id="pefbfcd83a8">
   <rect height="8.784" width="439.2" x="7.2" y="12.662038"/>
  </clipPath>
 </defs>
</svg>
