<?xml version="1.0" encoding="utf-8" standalone="no"?>
<!DOCTYPE svg PUBLIC "-//W3C//DTD SVG 1.1//EN"
  "http://www.w3.org/Graphics/SVG/1.1/DTD/svg11.dtd">
<!-- Created with matplotlib (https://matplotlib.org/) -->
<svg height="337.397538pt" version="1.1" viewBox="0 0 453.087692 337.397538" width="453.087692pt" xmlns="http://www.w3.org/2000/svg" xmlns:xlink="http://www.w3.org/1999/xlink">
 <metadata>
  <rdf:RDF xmlns:cc="http://creativecommons.org/ns#" xmlns:dc="http://purl.org/dc/elements/1.1/" xmlns:rdf="http://www.w3.org/1999/02/22-rdf-syntax-ns#">
   <cc:Work>
    <dc:type rdf:resource="http://purl.org/dc/dcmitype/StillImage"/>
    <dc:date>2024-08-01T03:39:24.119427</dc:date>
    <dc:format>image/svg+xml</dc:format>
    <dc:creator>
     <cc:Agent>
      <dc:title>Matplotlib v3.3.4, https://matplotlib.org/</dc:title>
     </cc:Agent>
    </dc:creator>
   </cc:Work>
  </rdf:RDF>
 </metadata>
 <defs>
  <style type="text/css">*{stroke-linecap:butt;stroke-linejoin:round;}</style>
 </defs>
 <g id="figure_1">
  <g id="patch_1">
   <path d="M 0 337.397538 
L 453.087692 337.397538 
L 453.087692 0 
L 0 0 
z
" style="fill:#ffffff;"/>
  </g>
  <g id="axes_1">
   <g id="patch_2">
    <path d="M 7.2 330.197538 
L 445.887692 330.197538 
L 445.887692 7.2 
L 7.2 7.2 
z
" style="fill:#ffffff;"/>
   </g>
   <g id="matplotlib.axis_1">
    <g id="xtick_1">
     <g id="line2d_1">
      <defs>
       <path d="M 0 0 
L 0 3.5 
" id="m6bf0da6be6" style="stroke:#000000;stroke-width:0.8;"/>
      </defs>
      <g>
       <use style="stroke:#000000;stroke-width:0.8;" x="15.636302" xlink:href="#m6bf0da6be6" y="272.223621"/>
      </g>
     </g>
     <g id="text_1">
      <!-- −4 -->
      <g transform="translate(8.265208 286.822059)scale(0.1 -0.1)">
       <defs>
        <path d="M 10.59375 35.5 
L 73.1875 35.5 
L 73.1875 27.203125 
L 10.59375 27.203125 
z
" id="DejaVuSans-8722"/>
        <path d="M 37.796875 64.3125 
L 12.890625 25.390625 
L 37.796875 25.390625 
z
M 35.203125 72.90625 
L 47.609375 72.90625 
L 47.609375 25.390625 
L 58.015625 25.390625 
L 58.015625 17.1875 
L 47.609375 17.1875 
L 47.609375 0 
L 37.796875 0 
L 37.796875 17.1875 
L 4.890625 17.1875 
L 4.890625 26.703125 
z
" id="DejaVuSans-52"/>
       </defs>
       <use xlink:href="#DejaVuSans-8722"/>
       <use x="83.789062" xlink:href="#DejaVuSans-52"/>
      </g>
     </g>
    </g>
    <g id="xtick_2">
     <g id="line2d_2">
      <g>
       <use style="stroke:#000000;stroke-width:0.8;" x="85.938817" xlink:href="#m6bf0da6be6" y="272.223621"/>
      </g>
     </g>
     <g id="text_2">
      <!-- −3 -->
      <g transform="translate(78.567723 286.822059)scale(0.1 -0.1)">
       <defs>
        <path d="M 40.578125 39.3125 
Q 47.65625 37.796875 51.625 33 
Q 55.609375 28.21875 55.609375 21.1875 
Q 55.609375 10.40625 48.1875 4.484375 
Q 40.765625 -1.421875 27.09375 -1.421875 
Q 22.515625 -1.421875 17.65625 -0.515625 
Q 12.796875 0.390625 7.625 2.203125 
L 7.625 11.71875 
Q 11.71875 9.328125 16.59375 8.109375 
Q 21.484375 6.890625 26.8125 6.890625 
Q 36.078125 6.890625 40.9375 10.546875 
Q 45.796875 14.203125 45.796875 21.1875 
Q 45.796875 27.640625 41.28125 31.265625 
Q 36.765625 34.90625 28.71875 34.90625 
L 20.21875 34.90625 
L 20.21875 43.015625 
L 29.109375 43.015625 
Q 36.375 43.015625 40.234375 45.921875 
Q 44.09375 48.828125 44.09375 54.296875 
Q 44.09375 59.90625 40.109375 62.90625 
Q 36.140625 65.921875 28.71875 65.921875 
Q 24.65625 65.921875 20.015625 65.03125 
Q 15.375 64.15625 9.8125 62.3125 
L 9.8125 71.09375 
Q 15.4375 72.65625 20.34375 73.4375 
Q 25.25 74.21875 29.59375 74.21875 
Q 40.828125 74.21875 47.359375 69.109375 
Q 53.90625 64.015625 53.90625 55.328125 
Q 53.90625 49.265625 50.4375 45.09375 
Q 46.96875 40.921875 40.578125 39.3125 
z
" id="DejaVuSans-51"/>
       </defs>
       <use xlink:href="#DejaVuSans-8722"/>
       <use x="83.789062" xlink:href="#DejaVuSans-51"/>
      </g>
     </g>
    </g>
    <g id="xtick_3">
     <g id="line2d_3">
      <g>
       <use style="stroke:#000000;stroke-width:0.8;" x="156.241331" xlink:href="#m6bf0da6be6" y="272.223621"/>
      </g>
     </g>
     <g id="text_3">
      <!-- −2 -->
      <g transform="translate(148.870238 286.822059)scale(0.1 -0.1)">
       <defs>
        <path d="M 19.1875 8.296875 
L 53.609375 8.296875 
L 53.609375 0 
L 7.328125 0 
L 7.328125 8.296875 
Q 12.9375 14.109375 22.625 23.890625 
Q 32.328125 33.6875 34.8125 36.53125 
Q 39.546875 41.84375 41.421875 45.53125 
Q 43.3125 49.21875 43.3125 52.78125 
Q 43.3125 58.59375 39.234375 62.25 
Q 35.15625 65.921875 28.609375 65.921875 
Q 23.96875 65.921875 18.8125 64.3125 
Q 13.671875 62.703125 7.8125 59.421875 
L 7.8125 69.390625 
Q 13.765625 71.78125 18.9375 73 
Q 24.125 74.21875 28.421875 74.21875 
Q 39.75 74.21875 46.484375 68.546875 
Q 53.21875 62.890625 53.21875 53.421875 
Q 53.21875 48.921875 51.53125 44.890625 
Q 49.859375 40.875 45.40625 35.40625 
Q 44.1875 33.984375 37.640625 27.21875 
Q 31.109375 20.453125 19.1875 8.296875 
z
" id="DejaVuSans-50"/>
       </defs>
       <use xlink:href="#DejaVuSans-8722"/>
       <use x="83.789062" xlink:href="#DejaVuSans-50"/>
      </g>
     </g>
    </g>
    <g id="xtick_4">
     <g id="line2d_4">
      <g>
       <use style="stroke:#000000;stroke-width:0.8;" x="226.543846" xlink:href="#m6bf0da6be6" y="272.223621"/>
      </g>
     </g>
     <g id="text_4">
      <!-- −1 -->
      <g transform="translate(219.172752 286.822059)scale(0.1 -0.1)">
       <defs>
        <path d="M 12.40625 8.296875 
L 28.515625 8.296875 
L 28.515625 63.921875 
L 10.984375 60.40625 
L 10.984375 69.390625 
L 28.421875 72.90625 
L 38.28125 72.90625 
L 38.28125 8.296875 
L 54.390625 8.296875 
L 54.390625 0 
L 12.40625 0 
z
" id="DejaVuSans-49"/>
       </defs>
       <use xlink:href="#DejaVuSans-8722"/>
       <use x="83.789062" xlink:href="#DejaVuSans-49"/>
      </g>
     </g>
    </g>
    <g id="xtick_5">
     <g id="line2d_5">
      <g>
       <use style="stroke:#000000;stroke-width:0.8;" x="296.846361" xlink:href="#m6bf0da6be6" y="272.223621"/>
      </g>
     </g>
    </g>
    <g id="xtick_6">
     <g id="line2d_6">
      <g>
       <use style="stroke:#000000;stroke-width:0.8;" x="367.148876" xlink:href="#m6bf0da6be6" y="272.223621"/>
      </g>
     </g>
     <g id="text_5">
      <!-- 1 -->
      <g transform="translate(363.967626 286.822059)scale(0.1 -0.1)">
       <use xlink:href="#DejaVuSans-49"/>
      </g>
     </g>
    </g>
    <g id="xtick_7">
     <g id="line2d_7">
      <g>
       <use style="stroke:#000000;stroke-width:0.8;" x="437.451391" xlink:href="#m6bf0da6be6" y="272.223621"/>
      </g>
     </g>
     <g id="text_6">
      <!-- 2 -->
      <g transform="translate(434.270141 286.822059)scale(0.1 -0.1)">
       <use xlink:href="#DejaVuSans-50"/>
      </g>
     </g>
    </g>
    <g id="xtick_8">
     <g id="line2d_8">
      <defs>
       <path d="M 0 0 
L 0 2 
" id="mbe4d2c40ae" style="stroke:#000000;stroke-width:0.6;"/>
      </defs>
      <g>
       <use style="stroke:#000000;stroke-width:0.6;" x="29.696805" xlink:href="#mbe4d2c40ae" y="272.223621"/>
      </g>
     </g>
    </g>
    <g id="xtick_9">
     <g id="line2d_9">
      <g>
       <use style="stroke:#000000;stroke-width:0.6;" x="43.757308" xlink:href="#mbe4d2c40ae" y="272.223621"/>
      </g>
     </g>
    </g>
    <g id="xtick_10">
     <g id="line2d_10">
      <g>
       <use style="stroke:#000000;stroke-width:0.6;" x="57.817811" xlink:href="#mbe4d2c40ae" y="272.223621"/>
      </g>
     </g>
    </g>
    <g id="xtick_11">
     <g id="line2d_11">
      <g>
       <use style="stroke:#000000;stroke-width:0.6;" x="71.878314" xlink:href="#mbe4d2c40ae" y="272.223621"/>
      </g>
     </g>
    </g>
    <g id="xtick_12">
     <g id="line2d_12">
      <g>
       <use style="stroke:#000000;stroke-width:0.6;" x="99.99932" xlink:href="#mbe4d2c40ae" y="272.223621"/>
      </g>
     </g>
    </g>
    <g id="xtick_13">
     <g id="line2d_13">
      <g>
       <use style="stroke:#000000;stroke-width:0.6;" x="114.059822" xlink:href="#mbe4d2c40ae" y="272.223621"/>
      </g>
     </g>
    </g>
    <g id="xtick_14">
     <g id="line2d_14">
      <g>
       <use style="stroke:#000000;stroke-width:0.6;" x="128.120325" xlink:href="#mbe4d2c40ae" y="272.223621"/>
      </g>
     </g>
    </g>
    <g id="xtick_15">
     <g id="line2d_15">
      <g>
       <use style="stroke:#000000;stroke-width:0.6;" x="142.180828" xlink:href="#mbe4d2c40ae" y="272.223621"/>
      </g>
     </g>
    </g>
    <g id="xtick_16">
     <g id="line2d_16">
      <g>
       <use style="stroke:#000000;stroke-width:0.6;" x="170.301834" xlink:href="#mbe4d2c40ae" y="272.223621"/>
      </g>
     </g>
    </g>
    <g id="xtick_17">
     <g id="line2d_17">
      <g>
       <use style="stroke:#000000;stroke-width:0.6;" x="184.362337" xlink:href="#mbe4d2c40ae" y="272.223621"/>
      </g>
     </g>
    </g>
    <g id="xtick_18">
     <g id="line2d_18">
      <g>
       <use style="stroke:#000000;stroke-width:0.6;" x="198.42284" xlink:href="#mbe4d2c40ae" y="272.223621"/>
      </g>
     </g>
    </g>
    <g id="xtick_19">
     <g id="line2d_19">
      <g>
       <use style="stroke:#000000;stroke-width:0.6;" x="212.483343" xlink:href="#mbe4d2c40ae" y="272.223621"/>
      </g>
     </g>
    </g>
    <g id="xtick_20">
     <g id="line2d_20">
      <g>
       <use style="stroke:#000000;stroke-width:0.6;" x="240.604349" xlink:href="#mbe4d2c40ae" y="272.223621"/>
      </g>
     </g>
    </g>
    <g id="xtick_21">
     <g id="line2d_21">
      <g>
       <use style="stroke:#000000;stroke-width:0.6;" x="254.664852" xlink:href="#mbe4d2c40ae" y="272.223621"/>
      </g>
     </g>
    </g>
    <g id="xtick_22">
     <g id="line2d_22">
      <g>
       <use style="stroke:#000000;stroke-width:0.6;" x="268.725355" xlink:href="#mbe4d2c40ae" y="272.223621"/>
      </g>
     </g>
    </g>
    <g id="xtick_23">
     <g id="line2d_23">
      <g>
       <use style="stroke:#000000;stroke-width:0.6;" x="282.785858" xlink:href="#mbe4d2c40ae" y="272.223621"/>
      </g>
     </g>
    </g>
    <g id="xtick_24">
     <g id="line2d_24">
      <g>
       <use style="stroke:#000000;stroke-width:0.6;" x="310.906864" xlink:href="#mbe4d2c40ae" y="272.223621"/>
      </g>
     </g>
    </g>
    <g id="xtick_25">
     <g id="line2d_25">
      <g>
       <use style="stroke:#000000;stroke-width:0.6;" x="324.967367" xlink:href="#mbe4d2c40ae" y="272.223621"/>
      </g>
     </g>
    </g>
    <g id="xtick_26">
     <g id="line2d_26">
      <g>
       <use style="stroke:#000000;stroke-width:0.6;" x="339.02787" xlink:href="#mbe4d2c40ae" y="272.223621"/>
      </g>
     </g>
    </g>
    <g id="xtick_27">
     <g id="line2d_27">
      <g>
       <use style="stroke:#000000;stroke-width:0.6;" x="353.088373" xlink:href="#mbe4d2c40ae" y="272.223621"/>
      </g>
     </g>
    </g>
    <g id="xtick_28">
     <g id="line2d_28">
      <g>
       <use style="stroke:#000000;stroke-width:0.6;" x="381.209379" xlink:href="#mbe4d2c40ae" y="272.223621"/>
      </g>
     </g>
    </g>
    <g id="xtick_29">
     <g id="line2d_29">
      <g>
       <use style="stroke:#000000;stroke-width:0.6;" x="395.269882" xlink:href="#mbe4d2c40ae" y="272.223621"/>
      </g>
     </g>
    </g>
    <g id="xtick_30">
     <g id="line2d_30">
      <g>
       <use style="stroke:#000000;stroke-width:0.6;" x="409.330385" xlink:href="#mbe4d2c40ae" y="272.223621"/>
      </g>
     </g>
    </g>
    <g id="xtick_31">
     <g id="line2d_31">
      <g>
       <use style="stroke:#000000;stroke-width:0.6;" x="423.390888" xlink:href="#mbe4d2c40ae" y="272.223621"/>
      </g>
     </g>
    </g>
   </g>
   <g id="matplotlib.axis_2">
    <g id="ytick_1">
     <g id="line2d_32">
      <defs>
       <path d="M 0 0 
L -3.5 0 
" id="mdcaefe3cee" style="stroke:#000000;stroke-width:0.8;"/>
      </defs>
      <g>
       <use style="stroke:#000000;stroke-width:0.8;" x="296.846361" xlink:href="#mdcaefe3cee" y="323.986047"/>
      </g>
     </g>
     <g id="text_7">
      <!-- −1 -->
      <g transform="translate(275.104173 327.785266)scale(0.1 -0.1)">
       <use xlink:href="#DejaVuSans-8722"/>
       <use x="83.789062" xlink:href="#DejaVuSans-49"/>
      </g>
     </g>
    </g>
    <g id="ytick_2">
     <g id="line2d_33">
      <g>
       <use style="stroke:#000000;stroke-width:0.8;" x="296.846361" xlink:href="#mdcaefe3cee" y="272.223621"/>
      </g>
     </g>
    </g>
    <g id="ytick_3">
     <g id="line2d_34">
      <g>
       <use style="stroke:#000000;stroke-width:0.8;" x="296.846361" xlink:href="#mdcaefe3cee" y="220.461195"/>
      </g>
     </g>
     <g id="text_8">
      <!-- 1 -->
      <g transform="translate(283.483861 224.260414)scale(0.1 -0.1)">
       <use xlink:href="#DejaVuSans-49"/>
      </g>
     </g>
    </g>
    <g id="ytick_4">
     <g id="line2d_35">
      <g>
       <use style="stroke:#000000;stroke-width:0.8;" x="296.846361" xlink:href="#mdcaefe3cee" y="168.698769"/>
      </g>
     </g>
     <g id="text_9">
      <!-- 2 -->
      <g transform="translate(283.483861 172.497988)scale(0.1 -0.1)">
       <use xlink:href="#DejaVuSans-50"/>
      </g>
     </g>
    </g>
    <g id="ytick_5">
     <g id="line2d_36">
      <g>
       <use style="stroke:#000000;stroke-width:0.8;" x="296.846361" xlink:href="#mdcaefe3cee" y="116.936343"/>
      </g>
     </g>
     <g id="text_10">
      <!-- 3 -->
      <g transform="translate(283.483861 120.735562)scale(0.1 -0.1)">
       <use xlink:href="#DejaVuSans-51"/>
      </g>
     </g>
    </g>
    <g id="ytick_6">
     <g id="line2d_37">
      <g>
       <use style="stroke:#000000;stroke-width:0.8;" x="296.846361" xlink:href="#mdcaefe3cee" y="65.173917"/>
      </g>
     </g>
     <g id="text_11">
      <!-- 4 -->
      <g transform="translate(283.483861 68.973136)scale(0.1 -0.1)">
       <use xlink:href="#DejaVuSans-52"/>
      </g>
     </g>
    </g>
    <g id="ytick_7">
     <g id="line2d_38">
      <g>
       <use style="stroke:#000000;stroke-width:0.8;" x="296.846361" xlink:href="#mdcaefe3cee" y="13.411491"/>
      </g>
     </g>
     <g id="text_12">
      <!-- 5 -->
      <g transform="translate(283.483861 17.21071)scale(0.1 -0.1)">
       <defs>
        <path d="M 10.796875 72.90625 
L 49.515625 72.90625 
L 49.515625 64.59375 
L 19.828125 64.59375 
L 19.828125 46.734375 
Q 21.96875 47.46875 24.109375 47.828125 
Q 26.265625 48.1875 28.421875 48.1875 
Q 40.625 48.1875 47.75 41.5 
Q 54.890625 34.8125 54.890625 23.390625 
Q 54.890625 11.625 47.5625 5.09375 
Q 40.234375 -1.421875 26.90625 -1.421875 
Q 22.3125 -1.421875 17.546875 -0.640625 
Q 12.796875 0.140625 7.71875 1.703125 
L 7.71875 11.625 
Q 12.109375 9.234375 16.796875 8.0625 
Q 21.484375 6.890625 26.703125 6.890625 
Q 35.15625 6.890625 40.078125 11.328125 
Q 45.015625 15.765625 45.015625 23.390625 
Q 45.015625 31 40.078125 35.4375 
Q 35.15625 39.890625 26.703125 39.890625 
Q 22.75 39.890625 18.8125 39.015625 
Q 14.890625 38.140625 10.796875 36.28125 
z
" id="DejaVuSans-53"/>
       </defs>
       <use xlink:href="#DejaVuSans-53"/>
      </g>
     </g>
    </g>
    <g id="ytick_8">
     <g id="line2d_39">
      <defs>
       <path d="M 0 0 
L -2 0 
" id="m3bfb47c3a1" style="stroke:#000000;stroke-width:0.6;"/>
      </defs>
      <g>
       <use style="stroke:#000000;stroke-width:0.6;" x="296.846361" xlink:href="#m3bfb47c3a1" y="313.633562"/>
      </g>
     </g>
    </g>
    <g id="ytick_9">
     <g id="line2d_40">
      <g>
       <use style="stroke:#000000;stroke-width:0.6;" x="296.846361" xlink:href="#m3bfb47c3a1" y="303.281077"/>
      </g>
     </g>
    </g>
    <g id="ytick_10">
     <g id="line2d_41">
      <g>
       <use style="stroke:#000000;stroke-width:0.6;" x="296.846361" xlink:href="#m3bfb47c3a1" y="292.928592"/>
      </g>
     </g>
    </g>
    <g id="ytick_11">
     <g id="line2d_42">
      <g>
       <use style="stroke:#000000;stroke-width:0.6;" x="296.846361" xlink:href="#m3bfb47c3a1" y="282.576107"/>
      </g>
     </g>
    </g>
    <g id="ytick_12">
     <g id="line2d_43">
      <g>
       <use style="stroke:#000000;stroke-width:0.6;" x="296.846361" xlink:href="#m3bfb47c3a1" y="261.871136"/>
      </g>
     </g>
    </g>
    <g id="ytick_13">
     <g id="line2d_44">
      <g>
       <use style="stroke:#000000;stroke-width:0.6;" x="296.846361" xlink:href="#m3bfb47c3a1" y="251.518651"/>
      </g>
     </g>
    </g>
    <g id="ytick_14">
     <g id="line2d_45">
      <g>
       <use style="stroke:#000000;stroke-width:0.6;" x="296.846361" xlink:href="#m3bfb47c3a1" y="241.166166"/>
      </g>
     </g>
    </g>
    <g id="ytick_15">
     <g id="line2d_46">
      <g>
       <use style="stroke:#000000;stroke-width:0.6;" x="296.846361" xlink:href="#m3bfb47c3a1" y="230.81368"/>
      </g>
     </g>
    </g>
    <g id="ytick_16">
     <g id="line2d_47">
      <g>
       <use style="stroke:#000000;stroke-width:0.6;" x="296.846361" xlink:href="#m3bfb47c3a1" y="210.10871"/>
      </g>
     </g>
    </g>
    <g id="ytick_17">
     <g id="line2d_48">
      <g>
       <use style="stroke:#000000;stroke-width:0.6;" x="296.846361" xlink:href="#m3bfb47c3a1" y="199.756225"/>
      </g>
     </g>
    </g>
    <g id="ytick_18">
     <g id="line2d_49">
      <g>
       <use style="stroke:#000000;stroke-width:0.6;" x="296.846361" xlink:href="#m3bfb47c3a1" y="189.40374"/>
      </g>
     </g>
    </g>
    <g id="ytick_19">
     <g id="line2d_50">
      <g>
       <use style="stroke:#000000;stroke-width:0.6;" x="296.846361" xlink:href="#m3bfb47c3a1" y="179.051254"/>
      </g>
     </g>
    </g>
    <g id="ytick_20">
     <g id="line2d_51">
      <g>
       <use style="stroke:#000000;stroke-width:0.6;" x="296.846361" xlink:href="#m3bfb47c3a1" y="158.346284"/>
      </g>
     </g>
    </g>
    <g id="ytick_21">
     <g id="line2d_52">
      <g>
       <use style="stroke:#000000;stroke-width:0.6;" x="296.846361" xlink:href="#m3bfb47c3a1" y="147.993799"/>
      </g>
     </g>
    </g>
    <g id="ytick_22">
     <g id="line2d_53">
      <g>
       <use style="stroke:#000000;stroke-width:0.6;" x="296.846361" xlink:href="#m3bfb47c3a1" y="137.641314"/>
      </g>
     </g>
    </g>
    <g id="ytick_23">
     <g id="line2d_54">
      <g>
       <use style="stroke:#000000;stroke-width:0.6;" x="296.846361" xlink:href="#m3bfb47c3a1" y="127.288828"/>
      </g>
     </g>
    </g>
    <g id="ytick_24">
     <g id="line2d_55">
      <g>
       <use style="stroke:#000000;stroke-width:0.6;" x="296.846361" xlink:href="#m3bfb47c3a1" y="106.583858"/>
      </g>
     </g>
    </g>
    <g id="ytick_25">
     <g id="line2d_56">
      <g>
       <use style="stroke:#000000;stroke-width:0.6;" x="296.846361" xlink:href="#m3bfb47c3a1" y="96.231373"/>
      </g>
     </g>
    </g>
    <g id="ytick_26">
     <g id="line2d_57">
      <g>
       <use style="stroke:#000000;stroke-width:0.6;" x="296.846361" xlink:href="#m3bfb47c3a1" y="85.878888"/>
      </g>
     </g>
    </g>
    <g id="ytick_27">
     <g id="line2d_58">
      <g>
       <use style="stroke:#000000;stroke-width:0.6;" x="296.846361" xlink:href="#m3bfb47c3a1" y="75.526402"/>
      </g>
     </g>
    </g>
    <g id="ytick_28">
     <g id="line2d_59">
      <g>
       <use style="stroke:#000000;stroke-width:0.6;" x="296.846361" xlink:href="#m3bfb47c3a1" y="54.821432"/>
      </g>
     </g>
    </g>
    <g id="ytick_29">
     <g id="line2d_60">
      <g>
       <use style="stroke:#000000;stroke-width:0.6;" x="296.846361" xlink:href="#m3bfb47c3a1" y="44.468947"/>
      </g>
     </g>
    </g>
    <g id="ytick_30">
     <g id="line2d_61">
      <g>
       <use style="stroke:#000000;stroke-width:0.6;" x="296.846361" xlink:href="#m3bfb47c3a1" y="34.116462"/>
      </g>
     </g>
    </g>
    <g id="ytick_31">
     <g id="line2d_62">
      <g>
       <use style="stroke:#000000;stroke-width:0.6;" x="296.846361" xlink:href="#m3bfb47c3a1" y="23.763976"/>
      </g>
     </g>
    </g>
   </g>
   <g id="line2d_63">
    <path clip-path="url(#p659ca2b196)" d="M 65.026779 338.397538 
L 69.901901 322.147828 
L 75.599167 303.794839 
L 81.091933 286.744334 
L 87.56191 267.471 
L 92.883482 252.27581 
L 99.544297 234.092435 
L 105.403992 218.864408 
L 110.428926 206.378555 
L 114.681114 196.225946 
L 119.118851 186.034195 
L 124.298755 174.659727 
L 129.510959 163.781613 
L 134.582057 153.744138 
L 139.599177 144.343585 
L 144.586903 135.520727 
L 148.203294 129.44952 
L 152.186341 123.079779 
L 157.036956 115.771365 
L 161.495 109.489054 
L 166.833169 102.514139 
L 171.096416 97.372426 
L 175.263175 92.714955 
L 179.102345 88.745554 
L 182.460973 85.526179 
L 186.376639 82.071173 
L 190.688942 78.637791 
L 195.101685 75.527667 
L 198.646087 73.324929 
L 201.47459 71.755885 
L 204.235646 70.385888 
L 207.809757 68.8496 
L 212.072534 67.36717 
L 215.895348 66.361461 
L 220.104724 65.608154 
L 223.235511 65.288545 
L 226.584508 65.173934 
L 230.349693 65.325614 
L 234.203223 65.788329 
L 238.011317 66.551153 
L 242.286146 67.769347 
L 245.675737 69.007357 
L 249.231831 70.56486 
L 252.448601 72.201919 
L 255.8854 74.190441 
L 259.298903 76.41038 
L 263.914205 79.79998 
L 268.118745 83.276282 
L 272.677342 87.46369 
L 276.184257 90.981281 
L 281.017933 96.2519 
L 284.634708 100.515707 
L 288.831246 105.806395 
L 293.851001 112.619454 
L 298.680008 119.671716 
L 302.577016 125.71903 
L 307.732186 134.20747 
L 312.474341 142.507393 
L 317.209714 151.265471 
L 322.053262 160.709526 
L 327.899513 172.763189 
L 331.840327 181.292203 
L 337.557418 194.243842 
L 342.049657 204.900992 
L 347.634064 218.738486 
L 353.829707 234.854922 
L 359.499886 250.309136 
L 364.93685 265.760173 
L 370.917703 283.47205 
L 376.693332 301.287299 
L 383.315954 322.575074 
L 388.05823 338.397538 
L 388.05823 338.397538 
" style="fill:none;stroke:#0000ff;stroke-linecap:square;stroke-width:3;"/>
   </g>
   <g id="line2d_64">
    <path clip-path="url(#p659ca2b196)" style="fill:none;stroke:#000000;stroke-dasharray:0.5,0.825;stroke-dashoffset:0;stroke-width:0.5;"/>
   </g>
   <g id="line2d_65">
    <path clip-path="url(#p659ca2b196)" style="fill:none;stroke:#000000;stroke-dasharray:0.5,0.825;stroke-dashoffset:0;stroke-width:0.5;"/>
   </g>
   <g id="line2d_66">
    <path clip-path="url(#p659ca2b196)" style="fill:none;stroke:#000000;stroke-dasharray:0.5,0.825;stroke-dashoffset:0;stroke-width:0.5;"/>
   </g>
   <g id="line2d_67">
    <path clip-path="url(#p659ca2b196)" style="fill:none;stroke:#000000;stroke-dasharray:0.5,0.825;stroke-dashoffset:0;stroke-width:0.5;"/>
   </g>
   <g id="line2d_68">
    <path clip-path="url(#p659ca2b196)" style="fill:none;stroke:#000000;stroke-dasharray:0.5,0.825;stroke-dashoffset:0;stroke-width:0.5;"/>
   </g>
   <g id="line2d_69">
    <path clip-path="url(#p659ca2b196)" style="fill:none;stroke:#000000;stroke-dasharray:0.5,0.825;stroke-dashoffset:0;stroke-width:0.5;"/>
   </g>
   <g id="line2d_70">
    <path clip-path="url(#p659ca2b196)" style="fill:none;stroke:#000000;stroke-dasharray:0.5,0.825;stroke-dashoffset:0;stroke-width:0.5;"/>
   </g>
   <g id="line2d_71">
    <path clip-path="url(#p659ca2b196)" d="M 7.2 323.986047 
L 445.887692 323.986047 
" style="fill:none;stroke:#000000;stroke-dasharray:0.5,0.825;stroke-dashoffset:0;stroke-width:0.5;"/>
   </g>
   <g id="line2d_72">
    <path clip-path="url(#p659ca2b196)" d="M 7.2 272.223621 
L 445.887692 272.223621 
" style="fill:none;stroke:#000000;stroke-dasharray:0.5,0.825;stroke-dashoffset:0;stroke-width:0.5;"/>
   </g>
   <g id="line2d_73">
    <path clip-path="url(#p659ca2b196)" d="M 7.2 220.461195 
L 445.887692 220.461195 
" style="fill:none;stroke:#000000;stroke-dasharray:0.5,0.825;stroke-dashoffset:0;stroke-width:0.5;"/>
   </g>
   <g id="line2d_74">
    <path clip-path="url(#p659ca2b196)" d="M 7.2 168.698769 
L 445.887692 168.698769 
" style="fill:none;stroke:#000000;stroke-dasharray:0.5,0.825;stroke-dashoffset:0;stroke-width:0.5;"/>
   </g>
   <g id="line2d_75">
    <path clip-path="url(#p659ca2b196)" d="M 7.2 116.936343 
L 445.887692 116.936343 
" style="fill:none;stroke:#000000;stroke-dasharray:0.5,0.825;stroke-dashoffset:0;stroke-width:0.5;"/>
   </g>
   <g id="line2d_76">
    <path clip-path="url(#p659ca2b196)" d="M 7.2 65.173917 
L 445.887692 65.173917 
" style="fill:none;stroke:#000000;stroke-dasharray:0.5,0.825;stroke-dashoffset:0;stroke-width:0.5;"/>
   </g>
   <g id="line2d_77">
    <path clip-path="url(#p659ca2b196)" d="M 7.2 13.411491 
L 445.887692 13.411491 
" style="fill:none;stroke:#000000;stroke-dasharray:0.5,0.825;stroke-dashoffset:0;stroke-width:0.5;"/>
   </g>
   <g id="line2d_78">
    <path clip-path="url(#p659ca2b196)" style="fill:none;stroke:#000000;stroke-dasharray:0.5,0.825;stroke-dashoffset:0;stroke-width:0.5;"/>
   </g>
   <g id="line2d_79">
    <path clip-path="url(#p659ca2b196)" style="fill:none;stroke:#000000;stroke-dasharray:0.5,0.825;stroke-dashoffset:0;stroke-width:0.5;"/>
   </g>
   <g id="line2d_80">
    <path clip-path="url(#p659ca2b196)" style="fill:none;stroke:#000000;stroke-dasharray:0.5,0.825;stroke-dashoffset:0;stroke-width:0.5;"/>
   </g>
   <g id="line2d_81">
    <path clip-path="url(#p659ca2b196)" style="fill:none;stroke:#000000;stroke-dasharray:0.5,0.825;stroke-dashoffset:0;stroke-width:0.5;"/>
   </g>
   <g id="line2d_82">
    <path clip-path="url(#p659ca2b196)" style="fill:none;stroke:#000000;stroke-dasharray:0.5,0.825;stroke-dashoffset:0;stroke-width:0.5;"/>
   </g>
   <g id="line2d_83">
    <path clip-path="url(#p659ca2b196)" style="fill:none;stroke:#000000;stroke-dasharray:0.5,0.825;stroke-dashoffset:0;stroke-width:0.5;"/>
   </g>
   <g id="line2d_84">
    <path clip-path="url(#p659ca2b196)" style="fill:none;stroke:#000000;stroke-dasharray:0.5,0.825;stroke-dashoffset:0;stroke-width:0.5;"/>
   </g>
   <g id="line2d_85">
    <path clip-path="url(#p659ca2b196)" d="M 15.636302 330.197538 
L 15.636302 7.2 
" style="fill:none;stroke:#000000;stroke-dasharray:0.5,0.825;stroke-dashoffset:0;stroke-width:0.5;"/>
   </g>
   <g id="line2d_86">
    <path clip-path="url(#p659ca2b196)" d="M 85.938817 330.197538 
L 85.938817 7.2 
" style="fill:none;stroke:#000000;stroke-dasharray:0.5,0.825;stroke-dashoffset:0;stroke-width:0.5;"/>
   </g>
   <g id="line2d_87">
    <path clip-path="url(#p659ca2b196)" d="M 156.241331 330.197538 
L 156.241331 7.2 
" style="fill:none;stroke:#000000;stroke-dasharray:0.5,0.825;stroke-dashoffset:0;stroke-width:0.5;"/>
   </g>
   <g id="line2d_88">
    <path clip-path="url(#p659ca2b196)" d="M 226.543846 330.197538 
L 226.543846 7.2 
" style="fill:none;stroke:#000000;stroke-dasharray:0.5,0.825;stroke-dashoffset:0;stroke-width:0.5;"/>
   </g>
   <g id="line2d_89">
    <path clip-path="url(#p659ca2b196)" d="M 296.846361 330.197538 
L 296.846361 7.2 
" style="fill:none;stroke:#000000;stroke-dasharray:0.5,0.825;stroke-dashoffset:0;stroke-width:0.5;"/>
   </g>
   <g id="line2d_90">
    <path clip-path="url(#p659ca2b196)" d="M 367.148876 330.197538 
L 367.148876 7.2 
" style="fill:none;stroke:#000000;stroke-dasharray:0.5,0.825;stroke-dashoffset:0;stroke-width:0.5;"/>
   </g>
   <g id="line2d_91">
    <path clip-path="url(#p659ca2b196)" d="M 437.451391 330.197538 
L 437.451391 7.2 
" style="fill:none;stroke:#000000;stroke-dasharray:0.5,0.825;stroke-dashoffset:0;stroke-width:0.5;"/>
   </g>
   <g id="line2d_92">
    <path clip-path="url(#p659ca2b196)" style="fill:none;stroke:#000000;stroke-dasharray:0.5,0.825;stroke-dashoffset:0;stroke-width:0.5;"/>
   </g>
   <g id="line2d_93">
    <path clip-path="url(#p659ca2b196)" style="fill:none;stroke:#000000;stroke-dasharray:0.5,0.825;stroke-dashoffset:0;stroke-width:0.5;"/>
   </g>
   <g id="line2d_94">
    <path clip-path="url(#p659ca2b196)" style="fill:none;stroke:#000000;stroke-dasharray:0.5,0.825;stroke-dashoffset:0;stroke-width:0.5;"/>
   </g>
   <g id="line2d_95">
    <path clip-path="url(#p659ca2b196)" style="fill:none;stroke:#000000;stroke-dasharray:0.5,0.825;stroke-dashoffset:0;stroke-width:0.5;"/>
   </g>
   <g id="line2d_96">
    <path clip-path="url(#p659ca2b196)" style="fill:none;stroke:#000000;stroke-dasharray:0.5,0.825;stroke-dashoffset:0;stroke-width:0.5;"/>
   </g>
   <g id="line2d_97">
    <path clip-path="url(#p659ca2b196)" style="fill:none;stroke:#000000;stroke-dasharray:0.5,0.825;stroke-dashoffset:0;stroke-width:0.5;"/>
   </g>
   <g id="patch_3">
    <path d="M 296.846361 330.197538 
L 296.846361 7.2 
" style="fill:none;stroke:#000000;stroke-linecap:square;stroke-linejoin:miter;stroke-width:0.8;"/>
   </g>
   <g id="patch_4">
    <path d="M 7.2 272.223621 
L 445.887692 272.223621 
" style="fill:none;stroke:#000000;stroke-linecap:square;stroke-linejoin:miter;stroke-width:0.8;"/>
   </g>
  </g>
 </g>
 <defs>
  <clipPath id="p659ca2b196">
   <rect height="322.997538" width="438.687692" x="7.2" y="7.2"/>
  </clipPath>
 </defs>
</svg>
