<?xml version="1.0" encoding="utf-8" standalone="no"?>
<!DOCTYPE svg PUBLIC "-//W3C//DTD SVG 1.1//EN"
  "http://www.w3.org/Graphics/SVG/1.1/DTD/svg11.dtd">
<!-- Created with matplotlib (https://matplotlib.org/) -->
<svg height="337.397538pt" version="1.1" viewBox="0 0 452.070177 337.397538" width="452.070177pt" xmlns="http://www.w3.org/2000/svg" xmlns:xlink="http://www.w3.org/1999/xlink">
 <metadata>
  <rdf:RDF xmlns:cc="http://creativecommons.org/ns#" xmlns:dc="http://purl.org/dc/elements/1.1/" xmlns:rdf="http://www.w3.org/1999/02/22-rdf-syntax-ns#">
   <cc:Work>
    <dc:type rdf:resource="http://purl.org/dc/dcmitype/StillImage"/>
    <dc:date>2024-08-01T03:40:10.247682</dc:date>
    <dc:format>image/svg+xml</dc:format>
    <dc:creator>
     <cc:Agent>
      <dc:title>Matplotlib v3.3.4, https://matplotlib.org/</dc:title>
     </cc:Agent>
    </dc:creator>
   </cc:Work>
  </rdf:RDF>
 </metadata>
 <defs>
  <style type="text/css">*{stroke-linecap:butt;stroke-linejoin:round;}</style>
 </defs>
 <g id="figure_1">
  <g id="patch_1">
   <path d="M 0 337.397538 
L 452.070177 337.397538 
L 452.070177 0 
L 0 0 
z
" style="fill:#ffffff;"/>
  </g>
  <g id="axes_1">
   <g id="patch_2">
    <path d="M 9.377484 330.197538 
L 444.870177 330.197538 
L 444.870177 7.2 
L 9.377484 7.2 
z
" style="fill:#ffffff;"/>
   </g>
   <g id="PathCollection_1">
    <path clip-path="url(#p3c7da97c01)" d="M 248.060979 140.803591 
C 248.899625 140.803591 249.704035 140.470394 250.297047 139.877382 
C 250.890059 139.284369 251.223257 138.479959 251.223257 137.641314 
C 251.223257 136.802668 250.890059 135.998258 250.297047 135.405246 
C 249.704035 134.812233 248.899625 134.479036 248.060979 134.479036 
C 247.222333 134.479036 246.417923 134.812233 245.824911 135.405246 
C 245.231899 135.998258 244.898701 136.802668 244.898701 137.641314 
C 244.898701 138.479959 245.231899 139.284369 245.824911 139.877382 
C 246.417923 140.470394 247.222333 140.803591 248.060979 140.803591 
z
" style="fill:#0000ff;"/>
   </g>
   <g id="PathCollection_2">
    <path clip-path="url(#p3c7da97c01)" d="M 122.438087 140.803591 
C 123.276733 140.803591 124.081143 140.470394 124.674155 139.877382 
C 125.267167 139.284369 125.600365 138.479959 125.600365 137.641314 
C 125.600365 136.802668 125.267167 135.998258 124.674155 135.405246 
C 124.081143 134.812233 123.276733 134.479036 122.438087 134.479036 
C 121.599441 134.479036 120.795031 134.812233 120.202019 135.405246 
C 119.609007 135.998258 119.275809 136.802668 119.275809 137.641314 
C 119.275809 138.479959 119.609007 139.284369 120.202019 139.877382 
C 120.795031 140.470394 121.599441 140.803591 122.438087 140.803591 
z
" style="fill:#0000ff;"/>
   </g>
   <g id="PathCollection_3">
    <path clip-path="url(#p3c7da97c01)" d="M 80.56379 140.803591 
C 81.402436 140.803591 82.206846 140.470394 82.799858 139.877382 
C 83.39287 139.284369 83.726067 138.479959 83.726067 137.641314 
C 83.726067 136.802668 83.39287 135.998258 82.799858 135.405246 
C 82.206846 134.812233 81.402436 134.479036 80.56379 134.479036 
C 79.725144 134.479036 78.920734 134.812233 78.327722 135.405246 
C 77.73471 135.998258 77.401512 136.802668 77.401512 137.641314 
C 77.401512 138.479959 77.73471 139.284369 78.327722 139.877382 
C 78.920734 140.470394 79.725144 140.803591 80.56379 140.803591 
z
" style="fill:#0000ff;"/>
   </g>
   <g id="matplotlib.axis_1">
    <g id="xtick_1">
     <g id="line2d_1">
      <defs>
       <path d="M 0 0 
L 0 3.5 
" id="m8035f73220" style="stroke:#000000;stroke-width:0.8;"/>
      </defs>
      <g>
       <use style="stroke:#000000;stroke-width:0.8;" x="17.752344" xlink:href="#m8035f73220" y="168.698769"/>
      </g>
     </g>
     <g id="text_1">
      <!-- −10 -->
      <g transform="translate(7.2 183.297207)scale(0.1 -0.1)">
       <defs>
        <path d="M 10.59375 35.5 
L 73.1875 35.5 
L 73.1875 27.203125 
L 10.59375 27.203125 
z
" id="DejaVuSans-8722"/>
        <path d="M 12.40625 8.296875 
L 28.515625 8.296875 
L 28.515625 63.921875 
L 10.984375 60.40625 
L 10.984375 69.390625 
L 28.421875 72.90625 
L 38.28125 72.90625 
L 38.28125 8.296875 
L 54.390625 8.296875 
L 54.390625 0 
L 12.40625 0 
z
" id="DejaVuSans-49"/>
        <path d="M 31.78125 66.40625 
Q 24.171875 66.40625 20.328125 58.90625 
Q 16.5 51.421875 16.5 36.375 
Q 16.5 21.390625 20.328125 13.890625 
Q 24.171875 6.390625 31.78125 6.390625 
Q 39.453125 6.390625 43.28125 13.890625 
Q 47.125 21.390625 47.125 36.375 
Q 47.125 51.421875 43.28125 58.90625 
Q 39.453125 66.40625 31.78125 66.40625 
z
M 31.78125 74.21875 
Q 44.046875 74.21875 50.515625 64.515625 
Q 56.984375 54.828125 56.984375 36.375 
Q 56.984375 17.96875 50.515625 8.265625 
Q 44.046875 -1.421875 31.78125 -1.421875 
Q 19.53125 -1.421875 13.0625 8.265625 
Q 6.59375 17.96875 6.59375 36.375 
Q 6.59375 54.828125 13.0625 64.515625 
Q 19.53125 74.21875 31.78125 74.21875 
z
" id="DejaVuSans-48"/>
       </defs>
       <use xlink:href="#DejaVuSans-8722"/>
       <use x="83.789062" xlink:href="#DejaVuSans-49"/>
       <use x="147.412109" xlink:href="#DejaVuSans-48"/>
      </g>
     </g>
    </g>
    <g id="xtick_2">
     <g id="line2d_2">
      <g>
       <use style="stroke:#000000;stroke-width:0.8;" x="122.438087" xlink:href="#m8035f73220" y="168.698769"/>
      </g>
     </g>
     <g id="text_2">
      <!-- −5 -->
      <g transform="translate(115.066993 183.297207)scale(0.1 -0.1)">
       <defs>
        <path d="M 10.796875 72.90625 
L 49.515625 72.90625 
L 49.515625 64.59375 
L 19.828125 64.59375 
L 19.828125 46.734375 
Q 21.96875 47.46875 24.109375 47.828125 
Q 26.265625 48.1875 28.421875 48.1875 
Q 40.625 48.1875 47.75 41.5 
Q 54.890625 34.8125 54.890625 23.390625 
Q 54.890625 11.625 47.5625 5.09375 
Q 40.234375 -1.421875 26.90625 -1.421875 
Q 22.3125 -1.421875 17.546875 -0.640625 
Q 12.796875 0.140625 7.71875 1.703125 
L 7.71875 11.625 
Q 12.109375 9.234375 16.796875 8.0625 
Q 21.484375 6.890625 26.703125 6.890625 
Q 35.15625 6.890625 40.078125 11.328125 
Q 45.015625 15.765625 45.015625 23.390625 
Q 45.015625 31 40.078125 35.4375 
Q 35.15625 39.890625 26.703125 39.890625 
Q 22.75 39.890625 18.8125 39.015625 
Q 14.890625 38.140625 10.796875 36.28125 
z
" id="DejaVuSans-53"/>
       </defs>
       <use xlink:href="#DejaVuSans-8722"/>
       <use x="83.789062" xlink:href="#DejaVuSans-53"/>
      </g>
     </g>
    </g>
    <g id="xtick_3">
     <g id="line2d_3">
      <g>
       <use style="stroke:#000000;stroke-width:0.8;" x="227.12383" xlink:href="#m8035f73220" y="168.698769"/>
      </g>
     </g>
    </g>
    <g id="xtick_4">
     <g id="line2d_4">
      <g>
       <use style="stroke:#000000;stroke-width:0.8;" x="331.809574" xlink:href="#m8035f73220" y="168.698769"/>
      </g>
     </g>
     <g id="text_3">
      <!-- 5 -->
      <g transform="translate(328.628324 183.297207)scale(0.1 -0.1)">
       <use xlink:href="#DejaVuSans-53"/>
      </g>
     </g>
    </g>
    <g id="xtick_5">
     <g id="line2d_5">
      <g>
       <use style="stroke:#000000;stroke-width:0.8;" x="436.495317" xlink:href="#m8035f73220" y="168.698769"/>
      </g>
     </g>
     <g id="text_4">
      <!-- 10 -->
      <g transform="translate(430.132817 183.297207)scale(0.1 -0.1)">
       <use xlink:href="#DejaVuSans-49"/>
       <use x="63.623047" xlink:href="#DejaVuSans-48"/>
      </g>
     </g>
    </g>
    <g id="xtick_6">
     <g id="line2d_6">
      <defs>
       <path d="M 0 0 
L 0 2 
" id="mbd137e7322" style="stroke:#000000;stroke-width:0.6;"/>
      </defs>
      <g>
       <use style="stroke:#000000;stroke-width:0.6;" x="38.689492" xlink:href="#mbd137e7322" y="168.698769"/>
      </g>
     </g>
    </g>
    <g id="xtick_7">
     <g id="line2d_7">
      <g>
       <use style="stroke:#000000;stroke-width:0.6;" x="59.626641" xlink:href="#mbd137e7322" y="168.698769"/>
      </g>
     </g>
    </g>
    <g id="xtick_8">
     <g id="line2d_8">
      <g>
       <use style="stroke:#000000;stroke-width:0.6;" x="80.56379" xlink:href="#mbd137e7322" y="168.698769"/>
      </g>
     </g>
    </g>
    <g id="xtick_9">
     <g id="line2d_9">
      <g>
       <use style="stroke:#000000;stroke-width:0.6;" x="101.500938" xlink:href="#mbd137e7322" y="168.698769"/>
      </g>
     </g>
    </g>
    <g id="xtick_10">
     <g id="line2d_10">
      <g>
       <use style="stroke:#000000;stroke-width:0.6;" x="143.375236" xlink:href="#mbd137e7322" y="168.698769"/>
      </g>
     </g>
    </g>
    <g id="xtick_11">
     <g id="line2d_11">
      <g>
       <use style="stroke:#000000;stroke-width:0.6;" x="164.312384" xlink:href="#mbd137e7322" y="168.698769"/>
      </g>
     </g>
    </g>
    <g id="xtick_12">
     <g id="line2d_12">
      <g>
       <use style="stroke:#000000;stroke-width:0.6;" x="185.249533" xlink:href="#mbd137e7322" y="168.698769"/>
      </g>
     </g>
    </g>
    <g id="xtick_13">
     <g id="line2d_13">
      <g>
       <use style="stroke:#000000;stroke-width:0.6;" x="206.186682" xlink:href="#mbd137e7322" y="168.698769"/>
      </g>
     </g>
    </g>
    <g id="xtick_14">
     <g id="line2d_14">
      <g>
       <use style="stroke:#000000;stroke-width:0.6;" x="248.060979" xlink:href="#mbd137e7322" y="168.698769"/>
      </g>
     </g>
    </g>
    <g id="xtick_15">
     <g id="line2d_15">
      <g>
       <use style="stroke:#000000;stroke-width:0.6;" x="268.998128" xlink:href="#mbd137e7322" y="168.698769"/>
      </g>
     </g>
    </g>
    <g id="xtick_16">
     <g id="line2d_16">
      <g>
       <use style="stroke:#000000;stroke-width:0.6;" x="289.935276" xlink:href="#mbd137e7322" y="168.698769"/>
      </g>
     </g>
    </g>
    <g id="xtick_17">
     <g id="line2d_17">
      <g>
       <use style="stroke:#000000;stroke-width:0.6;" x="310.872425" xlink:href="#mbd137e7322" y="168.698769"/>
      </g>
     </g>
    </g>
    <g id="xtick_18">
     <g id="line2d_18">
      <g>
       <use style="stroke:#000000;stroke-width:0.6;" x="352.746722" xlink:href="#mbd137e7322" y="168.698769"/>
      </g>
     </g>
    </g>
    <g id="xtick_19">
     <g id="line2d_19">
      <g>
       <use style="stroke:#000000;stroke-width:0.6;" x="373.683871" xlink:href="#mbd137e7322" y="168.698769"/>
      </g>
     </g>
    </g>
    <g id="xtick_20">
     <g id="line2d_20">
      <g>
       <use style="stroke:#000000;stroke-width:0.6;" x="394.62102" xlink:href="#mbd137e7322" y="168.698769"/>
      </g>
     </g>
    </g>
    <g id="xtick_21">
     <g id="line2d_21">
      <g>
       <use style="stroke:#000000;stroke-width:0.6;" x="415.558168" xlink:href="#mbd137e7322" y="168.698769"/>
      </g>
     </g>
    </g>
   </g>
   <g id="matplotlib.axis_2">
    <g id="ytick_1">
     <g id="line2d_22">
      <defs>
       <path d="M 0 0 
L -3.5 0 
" id="m39e21a3cc6" style="stroke:#000000;stroke-width:0.8;"/>
      </defs>
      <g>
       <use style="stroke:#000000;stroke-width:0.8;" x="227.12383" xlink:href="#m39e21a3cc6" y="323.986047"/>
      </g>
     </g>
     <g id="text_5">
      <!-- −10 -->
      <g transform="translate(199.019143 327.785266)scale(0.1 -0.1)">
       <use xlink:href="#DejaVuSans-8722"/>
       <use x="83.789062" xlink:href="#DejaVuSans-49"/>
       <use x="147.412109" xlink:href="#DejaVuSans-48"/>
      </g>
     </g>
    </g>
    <g id="ytick_2">
     <g id="line2d_23">
      <g>
       <use style="stroke:#000000;stroke-width:0.8;" x="227.12383" xlink:href="#m39e21a3cc6" y="246.342408"/>
      </g>
     </g>
     <g id="text_6">
      <!-- −5 -->
      <g transform="translate(205.381643 250.141627)scale(0.1 -0.1)">
       <use xlink:href="#DejaVuSans-8722"/>
       <use x="83.789062" xlink:href="#DejaVuSans-53"/>
      </g>
     </g>
    </g>
    <g id="ytick_3">
     <g id="line2d_24">
      <g>
       <use style="stroke:#000000;stroke-width:0.8;" x="227.12383" xlink:href="#m39e21a3cc6" y="168.698769"/>
      </g>
     </g>
    </g>
    <g id="ytick_4">
     <g id="line2d_25">
      <g>
       <use style="stroke:#000000;stroke-width:0.8;" x="227.12383" xlink:href="#m39e21a3cc6" y="91.05513"/>
      </g>
     </g>
     <g id="text_7">
      <!-- 5 -->
      <g transform="translate(213.76133 94.854349)scale(0.1 -0.1)">
       <use xlink:href="#DejaVuSans-53"/>
      </g>
     </g>
    </g>
    <g id="ytick_5">
     <g id="line2d_26">
      <g>
       <use style="stroke:#000000;stroke-width:0.8;" x="227.12383" xlink:href="#m39e21a3cc6" y="13.411491"/>
      </g>
     </g>
     <g id="text_8">
      <!-- 10 -->
      <g transform="translate(207.39883 17.21071)scale(0.1 -0.1)">
       <use xlink:href="#DejaVuSans-49"/>
       <use x="63.623047" xlink:href="#DejaVuSans-48"/>
      </g>
     </g>
    </g>
    <g id="ytick_6">
     <g id="line2d_27">
      <defs>
       <path d="M 0 0 
L -2 0 
" id="m07abbef33a" style="stroke:#000000;stroke-width:0.6;"/>
      </defs>
      <g>
       <use style="stroke:#000000;stroke-width:0.6;" x="227.12383" xlink:href="#m07abbef33a" y="308.45732"/>
      </g>
     </g>
    </g>
    <g id="ytick_7">
     <g id="line2d_28">
      <g>
       <use style="stroke:#000000;stroke-width:0.6;" x="227.12383" xlink:href="#m07abbef33a" y="292.928592"/>
      </g>
     </g>
    </g>
    <g id="ytick_8">
     <g id="line2d_29">
      <g>
       <use style="stroke:#000000;stroke-width:0.6;" x="227.12383" xlink:href="#m07abbef33a" y="277.399864"/>
      </g>
     </g>
    </g>
    <g id="ytick_9">
     <g id="line2d_30">
      <g>
       <use style="stroke:#000000;stroke-width:0.6;" x="227.12383" xlink:href="#m07abbef33a" y="261.871136"/>
      </g>
     </g>
    </g>
    <g id="ytick_10">
     <g id="line2d_31">
      <g>
       <use style="stroke:#000000;stroke-width:0.6;" x="227.12383" xlink:href="#m07abbef33a" y="230.81368"/>
      </g>
     </g>
    </g>
    <g id="ytick_11">
     <g id="line2d_32">
      <g>
       <use style="stroke:#000000;stroke-width:0.6;" x="227.12383" xlink:href="#m07abbef33a" y="215.284953"/>
      </g>
     </g>
    </g>
    <g id="ytick_12">
     <g id="line2d_33">
      <g>
       <use style="stroke:#000000;stroke-width:0.6;" x="227.12383" xlink:href="#m07abbef33a" y="199.756225"/>
      </g>
     </g>
    </g>
    <g id="ytick_13">
     <g id="line2d_34">
      <g>
       <use style="stroke:#000000;stroke-width:0.6;" x="227.12383" xlink:href="#m07abbef33a" y="184.227497"/>
      </g>
     </g>
    </g>
    <g id="ytick_14">
     <g id="line2d_35">
      <g>
       <use style="stroke:#000000;stroke-width:0.6;" x="227.12383" xlink:href="#m07abbef33a" y="153.170041"/>
      </g>
     </g>
    </g>
    <g id="ytick_15">
     <g id="line2d_36">
      <g>
       <use style="stroke:#000000;stroke-width:0.6;" x="227.12383" xlink:href="#m07abbef33a" y="137.641314"/>
      </g>
     </g>
    </g>
    <g id="ytick_16">
     <g id="line2d_37">
      <g>
       <use style="stroke:#000000;stroke-width:0.6;" x="227.12383" xlink:href="#m07abbef33a" y="122.112586"/>
      </g>
     </g>
    </g>
    <g id="ytick_17">
     <g id="line2d_38">
      <g>
       <use style="stroke:#000000;stroke-width:0.6;" x="227.12383" xlink:href="#m07abbef33a" y="106.583858"/>
      </g>
     </g>
    </g>
    <g id="ytick_18">
     <g id="line2d_39">
      <g>
       <use style="stroke:#000000;stroke-width:0.6;" x="227.12383" xlink:href="#m07abbef33a" y="75.526402"/>
      </g>
     </g>
    </g>
    <g id="ytick_19">
     <g id="line2d_40">
      <g>
       <use style="stroke:#000000;stroke-width:0.6;" x="227.12383" xlink:href="#m07abbef33a" y="59.997675"/>
      </g>
     </g>
    </g>
    <g id="ytick_20">
     <g id="line2d_41">
      <g>
       <use style="stroke:#000000;stroke-width:0.6;" x="227.12383" xlink:href="#m07abbef33a" y="44.468947"/>
      </g>
     </g>
    </g>
    <g id="ytick_21">
     <g id="line2d_42">
      <g>
       <use style="stroke:#000000;stroke-width:0.6;" x="227.12383" xlink:href="#m07abbef33a" y="28.940219"/>
      </g>
     </g>
    </g>
   </g>
   <g id="patch_3">
    <path d="M 227.12383 330.197538 
L 227.12383 7.2 
" style="fill:none;stroke:#000000;stroke-linecap:square;stroke-linejoin:miter;stroke-width:0.8;"/>
   </g>
   <g id="patch_4">
    <path d="M 9.377484 168.698769 
L 444.870177 168.698769 
" style="fill:none;stroke:#000000;stroke-linecap:square;stroke-linejoin:miter;stroke-width:0.8;"/>
   </g>
  </g>
 </g>
 <defs>
  <clipPath id="p3c7da97c01">
   <rect height="322.997538" width="435.492692" x="9.377484" y="7.2"/>
  </clipPath>
 </defs>
</svg>
