<?xml version="1.0" encoding="utf-8" standalone="no"?>
<!DOCTYPE svg PUBLIC "-//W3C//DTD SVG 1.1//EN"
  "http://www.w3.org/Graphics/SVG/1.1/DTD/svg11.dtd">
<!-- Created with matplotlib (https://matplotlib.org/) -->
<svg height="337.397538pt" version="1.1" viewBox="0 0 452.070177 337.397538" width="452.070177pt" xmlns="http://www.w3.org/2000/svg" xmlns:xlink="http://www.w3.org/1999/xlink">
 <metadata>
  <rdf:RDF xmlns:cc="http://creativecommons.org/ns#" xmlns:dc="http://purl.org/dc/elements/1.1/" xmlns:rdf="http://www.w3.org/1999/02/22-rdf-syntax-ns#">
   <cc:Work>
    <dc:type rdf:resource="http://purl.org/dc/dcmitype/StillImage"/>
    <dc:date>2024-08-01T03:41:34.473985</dc:date>
    <dc:format>image/svg+xml</dc:format>
    <dc:creator>
     <cc:Agent>
      <dc:title>Matplotlib v3.3.4, https://matplotlib.org/</dc:title>
     </cc:Agent>
    </dc:creator>
   </cc:Work>
  </rdf:RDF>
 </metadata>
 <defs>
  <style type="text/css">*{stroke-linecap:butt;stroke-linejoin:round;}</style>
 </defs>
 <g id="figure_1">
  <g id="patch_1">
   <path d="M 0 337.397538 
L 452.070177 337.397538 
L 452.070177 0 
L 0 0 
z
" style="fill:#ffffff;"/>
  </g>
  <g id="axes_1">
   <g id="patch_2">
    <path d="M 9.377484 330.197538 
L 444.870177 330.197538 
L 444.870177 7.2 
L 9.377484 7.2 
z
" style="fill:#ffffff;"/>
   </g>
   <g id="PathCollection_1">
    <path clip-path="url(#p0c648b6333)" d="M 118.250657 171.861047 
C 119.089303 171.861047 119.893713 171.527849 120.486725 170.934837 
C 121.079737 170.341825 121.412935 169.537415 121.412935 168.698769 
C 121.412935 167.860123 121.079737 167.055713 120.486725 166.462701 
C 119.893713 165.869689 119.089303 165.536492 118.250657 165.536492 
C 117.412012 165.536492 116.607602 165.869689 116.014589 166.462701 
C 115.421577 167.055713 115.08838 167.860123 115.08838 168.698769 
C 115.08838 169.537415 115.421577 170.341825 116.014589 170.934837 
C 116.607602 171.527849 117.412012 171.861047 118.250657 171.861047 
z
" style="fill:#0000ff;"/>
   </g>
   <g id="PathCollection_2">
    <path clip-path="url(#p0c648b6333)" d="M 185.249533 140.803591 
C 186.088179 140.803591 186.892589 140.470394 187.485601 139.877382 
C 188.078613 139.284369 188.411811 138.479959 188.411811 137.641314 
C 188.411811 136.802668 188.078613 135.998258 187.485601 135.405246 
C 186.892589 134.812233 186.088179 134.479036 185.249533 134.479036 
C 184.410887 134.479036 183.606477 134.812233 183.013465 135.405246 
C 182.420453 135.998258 182.087255 136.802668 182.087255 137.641314 
C 182.087255 138.479959 182.420453 139.284369 183.013465 139.877382 
C 183.606477 140.470394 184.410887 140.803591 185.249533 140.803591 
z
" style="fill:#0000ff;"/>
   </g>
   <g id="PathCollection_3">
    <path clip-path="url(#p0c648b6333)" d="M 386.24616 109.746136 
C 387.084806 109.746136 387.889216 109.412938 388.482228 108.819926 
C 389.07524 108.226914 389.408438 107.422504 389.408438 106.583858 
C 389.408438 105.745212 389.07524 104.940802 388.482228 104.34779 
C 387.889216 103.754778 387.084806 103.42158 386.24616 103.42158 
C 385.407514 103.42158 384.603104 103.754778 384.010092 104.34779 
C 383.41708 104.940802 383.083883 105.745212 383.083883 106.583858 
C 383.083883 107.422504 383.41708 108.226914 384.010092 108.819926 
C 384.603104 109.412938 385.407514 109.746136 386.24616 109.746136 
z
" style="fill:#0000ff;"/>
   </g>
   <g id="matplotlib.axis_1">
    <g id="xtick_1">
     <g id="line2d_1">
      <defs>
       <path d="M 0 0 
L 0 3.5 
" id="mc2eb5be848" style="stroke:#000000;stroke-width:0.8;"/>
      </defs>
      <g>
       <use style="stroke:#000000;stroke-width:0.8;" x="17.752344" xlink:href="#mc2eb5be848" y="168.698769"/>
      </g>
     </g>
     <g id="text_1">
      <!-- −10 -->
      <g transform="translate(7.2 183.297207)scale(0.1 -0.1)">
       <defs>
        <path d="M 10.59375 35.5 
L 73.1875 35.5 
L 73.1875 27.203125 
L 10.59375 27.203125 
z
" id="DejaVuSans-8722"/>
        <path d="M 12.40625 8.296875 
L 28.515625 8.296875 
L 28.515625 63.921875 
L 10.984375 60.40625 
L 10.984375 69.390625 
L 28.421875 72.90625 
L 38.28125 72.90625 
L 38.28125 8.296875 
L 54.390625 8.296875 
L 54.390625 0 
L 12.40625 0 
z
" id="DejaVuSans-49"/>
        <path d="M 31.78125 66.40625 
Q 24.171875 66.40625 20.328125 58.90625 
Q 16.5 51.421875 16.5 36.375 
Q 16.5 21.390625 20.328125 13.890625 
Q 24.171875 6.390625 31.78125 6.390625 
Q 39.453125 6.390625 43.28125 13.890625 
Q 47.125 21.390625 47.125 36.375 
Q 47.125 51.421875 43.28125 58.90625 
Q 39.453125 66.40625 31.78125 66.40625 
z
M 31.78125 74.21875 
Q 44.046875 74.21875 50.515625 64.515625 
Q 56.984375 54.828125 56.984375 36.375 
Q 56.984375 17.96875 50.515625 8.265625 
Q 44.046875 -1.421875 31.78125 -1.421875 
Q 19.53125 -1.421875 13.0625 8.265625 
Q 6.59375 17.96875 6.59375 36.375 
Q 6.59375 54.828125 13.0625 64.515625 
Q 19.53125 74.21875 31.78125 74.21875 
z
" id="DejaVuSans-48"/>
       </defs>
       <use xlink:href="#DejaVuSans-8722"/>
       <use x="83.789062" xlink:href="#DejaVuSans-49"/>
       <use x="147.412109" xlink:href="#DejaVuSans-48"/>
      </g>
     </g>
    </g>
    <g id="xtick_2">
     <g id="line2d_2">
      <g>
       <use style="stroke:#000000;stroke-width:0.8;" x="101.500938" xlink:href="#mc2eb5be848" y="168.698769"/>
      </g>
     </g>
     <g id="text_2">
      <!-- −5 -->
      <g transform="translate(94.129845 183.297207)scale(0.1 -0.1)">
       <defs>
        <path d="M 10.796875 72.90625 
L 49.515625 72.90625 
L 49.515625 64.59375 
L 19.828125 64.59375 
L 19.828125 46.734375 
Q 21.96875 47.46875 24.109375 47.828125 
Q 26.265625 48.1875 28.421875 48.1875 
Q 40.625 48.1875 47.75 41.5 
Q 54.890625 34.8125 54.890625 23.390625 
Q 54.890625 11.625 47.5625 5.09375 
Q 40.234375 -1.421875 26.90625 -1.421875 
Q 22.3125 -1.421875 17.546875 -0.640625 
Q 12.796875 0.140625 7.71875 1.703125 
L 7.71875 11.625 
Q 12.109375 9.234375 16.796875 8.0625 
Q 21.484375 6.890625 26.703125 6.890625 
Q 35.15625 6.890625 40.078125 11.328125 
Q 45.015625 15.765625 45.015625 23.390625 
Q 45.015625 31 40.078125 35.4375 
Q 35.15625 39.890625 26.703125 39.890625 
Q 22.75 39.890625 18.8125 39.015625 
Q 14.890625 38.140625 10.796875 36.28125 
z
" id="DejaVuSans-53"/>
       </defs>
       <use xlink:href="#DejaVuSans-8722"/>
       <use x="83.789062" xlink:href="#DejaVuSans-53"/>
      </g>
     </g>
    </g>
    <g id="xtick_3">
     <g id="line2d_3">
      <g>
       <use style="stroke:#000000;stroke-width:0.8;" x="185.249533" xlink:href="#mc2eb5be848" y="168.698769"/>
      </g>
     </g>
    </g>
    <g id="xtick_4">
     <g id="line2d_4">
      <g>
       <use style="stroke:#000000;stroke-width:0.8;" x="268.998128" xlink:href="#mc2eb5be848" y="168.698769"/>
      </g>
     </g>
     <g id="text_3">
      <!-- 5 -->
      <g transform="translate(265.816878 183.297207)scale(0.1 -0.1)">
       <use xlink:href="#DejaVuSans-53"/>
      </g>
     </g>
    </g>
    <g id="xtick_5">
     <g id="line2d_5">
      <g>
       <use style="stroke:#000000;stroke-width:0.8;" x="352.746722" xlink:href="#mc2eb5be848" y="168.698769"/>
      </g>
     </g>
     <g id="text_4">
      <!-- 10 -->
      <g transform="translate(346.384222 183.297207)scale(0.1 -0.1)">
       <use xlink:href="#DejaVuSans-49"/>
       <use x="63.623047" xlink:href="#DejaVuSans-48"/>
      </g>
     </g>
    </g>
    <g id="xtick_6">
     <g id="line2d_6">
      <g>
       <use style="stroke:#000000;stroke-width:0.8;" x="436.495317" xlink:href="#mc2eb5be848" y="168.698769"/>
      </g>
     </g>
     <g id="text_5">
      <!-- 15 -->
      <g transform="translate(430.132817 183.297207)scale(0.1 -0.1)">
       <use xlink:href="#DejaVuSans-49"/>
       <use x="63.623047" xlink:href="#DejaVuSans-53"/>
      </g>
     </g>
    </g>
    <g id="xtick_7">
     <g id="line2d_7">
      <defs>
       <path d="M 0 0 
L 0 2 
" id="m3cbbd1725f" style="stroke:#000000;stroke-width:0.6;"/>
      </defs>
      <g>
       <use style="stroke:#000000;stroke-width:0.6;" x="34.502063" xlink:href="#m3cbbd1725f" y="168.698769"/>
      </g>
     </g>
    </g>
    <g id="xtick_8">
     <g id="line2d_8">
      <g>
       <use style="stroke:#000000;stroke-width:0.6;" x="51.251782" xlink:href="#m3cbbd1725f" y="168.698769"/>
      </g>
     </g>
    </g>
    <g id="xtick_9">
     <g id="line2d_9">
      <g>
       <use style="stroke:#000000;stroke-width:0.6;" x="68.001501" xlink:href="#m3cbbd1725f" y="168.698769"/>
      </g>
     </g>
    </g>
    <g id="xtick_10">
     <g id="line2d_10">
      <g>
       <use style="stroke:#000000;stroke-width:0.6;" x="84.751219" xlink:href="#m3cbbd1725f" y="168.698769"/>
      </g>
     </g>
    </g>
    <g id="xtick_11">
     <g id="line2d_11">
      <g>
       <use style="stroke:#000000;stroke-width:0.6;" x="118.250657" xlink:href="#m3cbbd1725f" y="168.698769"/>
      </g>
     </g>
    </g>
    <g id="xtick_12">
     <g id="line2d_12">
      <g>
       <use style="stroke:#000000;stroke-width:0.6;" x="135.000376" xlink:href="#m3cbbd1725f" y="168.698769"/>
      </g>
     </g>
    </g>
    <g id="xtick_13">
     <g id="line2d_13">
      <g>
       <use style="stroke:#000000;stroke-width:0.6;" x="151.750095" xlink:href="#m3cbbd1725f" y="168.698769"/>
      </g>
     </g>
    </g>
    <g id="xtick_14">
     <g id="line2d_14">
      <g>
       <use style="stroke:#000000;stroke-width:0.6;" x="168.499814" xlink:href="#m3cbbd1725f" y="168.698769"/>
      </g>
     </g>
    </g>
    <g id="xtick_15">
     <g id="line2d_15">
      <g>
       <use style="stroke:#000000;stroke-width:0.6;" x="201.999252" xlink:href="#m3cbbd1725f" y="168.698769"/>
      </g>
     </g>
    </g>
    <g id="xtick_16">
     <g id="line2d_16">
      <g>
       <use style="stroke:#000000;stroke-width:0.6;" x="218.748971" xlink:href="#m3cbbd1725f" y="168.698769"/>
      </g>
     </g>
    </g>
    <g id="xtick_17">
     <g id="line2d_17">
      <g>
       <use style="stroke:#000000;stroke-width:0.6;" x="235.49869" xlink:href="#m3cbbd1725f" y="168.698769"/>
      </g>
     </g>
    </g>
    <g id="xtick_18">
     <g id="line2d_18">
      <g>
       <use style="stroke:#000000;stroke-width:0.6;" x="252.248409" xlink:href="#m3cbbd1725f" y="168.698769"/>
      </g>
     </g>
    </g>
    <g id="xtick_19">
     <g id="line2d_19">
      <g>
       <use style="stroke:#000000;stroke-width:0.6;" x="285.747847" xlink:href="#m3cbbd1725f" y="168.698769"/>
      </g>
     </g>
    </g>
    <g id="xtick_20">
     <g id="line2d_20">
      <g>
       <use style="stroke:#000000;stroke-width:0.6;" x="302.497566" xlink:href="#m3cbbd1725f" y="168.698769"/>
      </g>
     </g>
    </g>
    <g id="xtick_21">
     <g id="line2d_21">
      <g>
       <use style="stroke:#000000;stroke-width:0.6;" x="319.247285" xlink:href="#m3cbbd1725f" y="168.698769"/>
      </g>
     </g>
    </g>
    <g id="xtick_22">
     <g id="line2d_22">
      <g>
       <use style="stroke:#000000;stroke-width:0.6;" x="335.997004" xlink:href="#m3cbbd1725f" y="168.698769"/>
      </g>
     </g>
    </g>
    <g id="xtick_23">
     <g id="line2d_23">
      <g>
       <use style="stroke:#000000;stroke-width:0.6;" x="369.496441" xlink:href="#m3cbbd1725f" y="168.698769"/>
      </g>
     </g>
    </g>
    <g id="xtick_24">
     <g id="line2d_24">
      <g>
       <use style="stroke:#000000;stroke-width:0.6;" x="386.24616" xlink:href="#m3cbbd1725f" y="168.698769"/>
      </g>
     </g>
    </g>
    <g id="xtick_25">
     <g id="line2d_25">
      <g>
       <use style="stroke:#000000;stroke-width:0.6;" x="402.995879" xlink:href="#m3cbbd1725f" y="168.698769"/>
      </g>
     </g>
    </g>
    <g id="xtick_26">
     <g id="line2d_26">
      <g>
       <use style="stroke:#000000;stroke-width:0.6;" x="419.745598" xlink:href="#m3cbbd1725f" y="168.698769"/>
      </g>
     </g>
    </g>
   </g>
   <g id="matplotlib.axis_2">
    <g id="ytick_1">
     <g id="line2d_27">
      <defs>
       <path d="M 0 0 
L -3.5 0 
" id="md691e5d13f" style="stroke:#000000;stroke-width:0.8;"/>
      </defs>
      <g>
       <use style="stroke:#000000;stroke-width:0.8;" x="185.249533" xlink:href="#md691e5d13f" y="323.986047"/>
      </g>
     </g>
     <g id="text_6">
      <!-- −10 -->
      <g transform="translate(157.144846 327.785266)scale(0.1 -0.1)">
       <use xlink:href="#DejaVuSans-8722"/>
       <use x="83.789062" xlink:href="#DejaVuSans-49"/>
       <use x="147.412109" xlink:href="#DejaVuSans-48"/>
      </g>
     </g>
    </g>
    <g id="ytick_2">
     <g id="line2d_28">
      <g>
       <use style="stroke:#000000;stroke-width:0.8;" x="185.249533" xlink:href="#md691e5d13f" y="246.342408"/>
      </g>
     </g>
     <g id="text_7">
      <!-- −5 -->
      <g transform="translate(163.507346 250.141627)scale(0.1 -0.1)">
       <use xlink:href="#DejaVuSans-8722"/>
       <use x="83.789062" xlink:href="#DejaVuSans-53"/>
      </g>
     </g>
    </g>
    <g id="ytick_3">
     <g id="line2d_29">
      <g>
       <use style="stroke:#000000;stroke-width:0.8;" x="185.249533" xlink:href="#md691e5d13f" y="168.698769"/>
      </g>
     </g>
    </g>
    <g id="ytick_4">
     <g id="line2d_30">
      <g>
       <use style="stroke:#000000;stroke-width:0.8;" x="185.249533" xlink:href="#md691e5d13f" y="91.05513"/>
      </g>
     </g>
     <g id="text_8">
      <!-- 5 -->
      <g transform="translate(171.887033 94.854349)scale(0.1 -0.1)">
       <use xlink:href="#DejaVuSans-53"/>
      </g>
     </g>
    </g>
    <g id="ytick_5">
     <g id="line2d_31">
      <g>
       <use style="stroke:#000000;stroke-width:0.8;" x="185.249533" xlink:href="#md691e5d13f" y="13.411491"/>
      </g>
     </g>
     <g id="text_9">
      <!-- 10 -->
      <g transform="translate(165.524533 17.21071)scale(0.1 -0.1)">
       <use xlink:href="#DejaVuSans-49"/>
       <use x="63.623047" xlink:href="#DejaVuSans-48"/>
      </g>
     </g>
    </g>
    <g id="ytick_6">
     <g id="line2d_32">
      <defs>
       <path d="M 0 0 
L -2 0 
" id="mb0fbc81bae" style="stroke:#000000;stroke-width:0.6;"/>
      </defs>
      <g>
       <use style="stroke:#000000;stroke-width:0.6;" x="185.249533" xlink:href="#mb0fbc81bae" y="308.45732"/>
      </g>
     </g>
    </g>
    <g id="ytick_7">
     <g id="line2d_33">
      <g>
       <use style="stroke:#000000;stroke-width:0.6;" x="185.249533" xlink:href="#mb0fbc81bae" y="292.928592"/>
      </g>
     </g>
    </g>
    <g id="ytick_8">
     <g id="line2d_34">
      <g>
       <use style="stroke:#000000;stroke-width:0.6;" x="185.249533" xlink:href="#mb0fbc81bae" y="277.399864"/>
      </g>
     </g>
    </g>
    <g id="ytick_9">
     <g id="line2d_35">
      <g>
       <use style="stroke:#000000;stroke-width:0.6;" x="185.249533" xlink:href="#mb0fbc81bae" y="261.871136"/>
      </g>
     </g>
    </g>
    <g id="ytick_10">
     <g id="line2d_36">
      <g>
       <use style="stroke:#000000;stroke-width:0.6;" x="185.249533" xlink:href="#mb0fbc81bae" y="230.81368"/>
      </g>
     </g>
    </g>
    <g id="ytick_11">
     <g id="line2d_37">
      <g>
       <use style="stroke:#000000;stroke-width:0.6;" x="185.249533" xlink:href="#mb0fbc81bae" y="215.284953"/>
      </g>
     </g>
    </g>
    <g id="ytick_12">
     <g id="line2d_38">
      <g>
       <use style="stroke:#000000;stroke-width:0.6;" x="185.249533" xlink:href="#mb0fbc81bae" y="199.756225"/>
      </g>
     </g>
    </g>
    <g id="ytick_13">
     <g id="line2d_39">
      <g>
       <use style="stroke:#000000;stroke-width:0.6;" x="185.249533" xlink:href="#mb0fbc81bae" y="184.227497"/>
      </g>
     </g>
    </g>
    <g id="ytick_14">
     <g id="line2d_40">
      <g>
       <use style="stroke:#000000;stroke-width:0.6;" x="185.249533" xlink:href="#mb0fbc81bae" y="153.170041"/>
      </g>
     </g>
    </g>
    <g id="ytick_15">
     <g id="line2d_41">
      <g>
       <use style="stroke:#000000;stroke-width:0.6;" x="185.249533" xlink:href="#mb0fbc81bae" y="137.641314"/>
      </g>
     </g>
    </g>
    <g id="ytick_16">
     <g id="line2d_42">
      <g>
       <use style="stroke:#000000;stroke-width:0.6;" x="185.249533" xlink:href="#mb0fbc81bae" y="122.112586"/>
      </g>
     </g>
    </g>
    <g id="ytick_17">
     <g id="line2d_43">
      <g>
       <use style="stroke:#000000;stroke-width:0.6;" x="185.249533" xlink:href="#mb0fbc81bae" y="106.583858"/>
      </g>
     </g>
    </g>
    <g id="ytick_18">
     <g id="line2d_44">
      <g>
       <use style="stroke:#000000;stroke-width:0.6;" x="185.249533" xlink:href="#mb0fbc81bae" y="75.526402"/>
      </g>
     </g>
    </g>
    <g id="ytick_19">
     <g id="line2d_45">
      <g>
       <use style="stroke:#000000;stroke-width:0.6;" x="185.249533" xlink:href="#mb0fbc81bae" y="59.997675"/>
      </g>
     </g>
    </g>
    <g id="ytick_20">
     <g id="line2d_46">
      <g>
       <use style="stroke:#000000;stroke-width:0.6;" x="185.249533" xlink:href="#mb0fbc81bae" y="44.468947"/>
      </g>
     </g>
    </g>
    <g id="ytick_21">
     <g id="line2d_47">
      <g>
       <use style="stroke:#000000;stroke-width:0.6;" x="185.249533" xlink:href="#mb0fbc81bae" y="28.940219"/>
      </g>
     </g>
    </g>
   </g>
   <g id="line2d_48">
    <path clip-path="url(#p0c648b6333)" d="M 120.305349 163.25994 
L 121.483168 161.87692 
L 123.34307 160.136401 
L 125.599674 158.412764 
L 128.052403 156.819661 
L 131.764701 154.750357 
L 136.151234 152.645421 
L 141.592092 150.367358 
L 147.017197 148.34823 
L 154.571676 145.831667 
L 163.248011 143.246553 
L 172.092671 140.857261 
L 182.25069 138.34433 
L 193.606704 135.761229 
L 206.634618 133.027477 
L 221.325403 130.17682 
L 238.072238 127.165163 
L 255.870549 124.187219 
L 276.763522 120.927765 
L 298.321167 117.782871 
L 323.505743 114.338815 
L 352.087248 110.67735 
L 382.481586 107.02167 
L 416.041321 103.221938 
L 436.495317 101.010614 
L 436.495317 101.010614 
" style="fill:none;stroke:#0000ff;stroke-linecap:square;stroke-width:3;"/>
   </g>
   <g id="line2d_49">
    <path clip-path="url(#p0c648b6333)" d="M 9.377484 323.986047 
L 444.870177 323.986047 
" style="fill:none;stroke:#000000;stroke-dasharray:0.5,0.825;stroke-dashoffset:0;stroke-width:0.5;"/>
   </g>
   <g id="line2d_50">
    <path clip-path="url(#p0c648b6333)" d="M 9.377484 308.45732 
L 444.870177 308.45732 
" style="fill:none;stroke:#000000;stroke-dasharray:0.5,0.825;stroke-dashoffset:0;stroke-width:0.5;"/>
   </g>
   <g id="line2d_51">
    <path clip-path="url(#p0c648b6333)" d="M 9.377484 292.928592 
L 444.870177 292.928592 
" style="fill:none;stroke:#000000;stroke-dasharray:0.5,0.825;stroke-dashoffset:0;stroke-width:0.5;"/>
   </g>
   <g id="line2d_52">
    <path clip-path="url(#p0c648b6333)" d="M 9.377484 277.399864 
L 444.870177 277.399864 
" style="fill:none;stroke:#000000;stroke-dasharray:0.5,0.825;stroke-dashoffset:0;stroke-width:0.5;"/>
   </g>
   <g id="line2d_53">
    <path clip-path="url(#p0c648b6333)" d="M 9.377484 261.871136 
L 444.870177 261.871136 
" style="fill:none;stroke:#000000;stroke-dasharray:0.5,0.825;stroke-dashoffset:0;stroke-width:0.5;"/>
   </g>
   <g id="line2d_54">
    <path clip-path="url(#p0c648b6333)" d="M 9.377484 246.342408 
L 444.870177 246.342408 
" style="fill:none;stroke:#000000;stroke-dasharray:0.5,0.825;stroke-dashoffset:0;stroke-width:0.5;"/>
   </g>
   <g id="line2d_55">
    <path clip-path="url(#p0c648b6333)" d="M 9.377484 230.81368 
L 444.870177 230.81368 
" style="fill:none;stroke:#000000;stroke-dasharray:0.5,0.825;stroke-dashoffset:0;stroke-width:0.5;"/>
   </g>
   <g id="line2d_56">
    <path clip-path="url(#p0c648b6333)" d="M 9.377484 215.284953 
L 444.870177 215.284953 
" style="fill:none;stroke:#000000;stroke-dasharray:0.5,0.825;stroke-dashoffset:0;stroke-width:0.5;"/>
   </g>
   <g id="line2d_57">
    <path clip-path="url(#p0c648b6333)" d="M 9.377484 199.756225 
L 444.870177 199.756225 
" style="fill:none;stroke:#000000;stroke-dasharray:0.5,0.825;stroke-dashoffset:0;stroke-width:0.5;"/>
   </g>
   <g id="line2d_58">
    <path clip-path="url(#p0c648b6333)" d="M 9.377484 184.227497 
L 444.870177 184.227497 
" style="fill:none;stroke:#000000;stroke-dasharray:0.5,0.825;stroke-dashoffset:0;stroke-width:0.5;"/>
   </g>
   <g id="line2d_59">
    <path clip-path="url(#p0c648b6333)" d="M 9.377484 168.698769 
L 444.870177 168.698769 
" style="fill:none;stroke:#000000;stroke-dasharray:0.5,0.825;stroke-dashoffset:0;stroke-width:0.5;"/>
   </g>
   <g id="line2d_60">
    <path clip-path="url(#p0c648b6333)" d="M 9.377484 153.170041 
L 444.870177 153.170041 
" style="fill:none;stroke:#000000;stroke-dasharray:0.5,0.825;stroke-dashoffset:0;stroke-width:0.5;"/>
   </g>
   <g id="line2d_61">
    <path clip-path="url(#p0c648b6333)" d="M 9.377484 137.641314 
L 444.870177 137.641314 
" style="fill:none;stroke:#000000;stroke-dasharray:0.5,0.825;stroke-dashoffset:0;stroke-width:0.5;"/>
   </g>
   <g id="line2d_62">
    <path clip-path="url(#p0c648b6333)" d="M 9.377484 122.112586 
L 444.870177 122.112586 
" style="fill:none;stroke:#000000;stroke-dasharray:0.5,0.825;stroke-dashoffset:0;stroke-width:0.5;"/>
   </g>
   <g id="line2d_63">
    <path clip-path="url(#p0c648b6333)" d="M 9.377484 106.583858 
L 444.870177 106.583858 
" style="fill:none;stroke:#000000;stroke-dasharray:0.5,0.825;stroke-dashoffset:0;stroke-width:0.5;"/>
   </g>
   <g id="line2d_64">
    <path clip-path="url(#p0c648b6333)" d="M 9.377484 91.05513 
L 444.870177 91.05513 
" style="fill:none;stroke:#000000;stroke-dasharray:0.5,0.825;stroke-dashoffset:0;stroke-width:0.5;"/>
   </g>
   <g id="line2d_65">
    <path clip-path="url(#p0c648b6333)" d="M 9.377484 75.526402 
L 444.870177 75.526402 
" style="fill:none;stroke:#000000;stroke-dasharray:0.5,0.825;stroke-dashoffset:0;stroke-width:0.5;"/>
   </g>
   <g id="line2d_66">
    <path clip-path="url(#p0c648b6333)" d="M 9.377484 59.997675 
L 444.870177 59.997675 
" style="fill:none;stroke:#000000;stroke-dasharray:0.5,0.825;stroke-dashoffset:0;stroke-width:0.5;"/>
   </g>
   <g id="line2d_67">
    <path clip-path="url(#p0c648b6333)" d="M 9.377484 44.468947 
L 444.870177 44.468947 
" style="fill:none;stroke:#000000;stroke-dasharray:0.5,0.825;stroke-dashoffset:0;stroke-width:0.5;"/>
   </g>
   <g id="line2d_68">
    <path clip-path="url(#p0c648b6333)" d="M 9.377484 28.940219 
L 444.870177 28.940219 
" style="fill:none;stroke:#000000;stroke-dasharray:0.5,0.825;stroke-dashoffset:0;stroke-width:0.5;"/>
   </g>
   <g id="line2d_69">
    <path clip-path="url(#p0c648b6333)" d="M 9.377484 13.411491 
L 444.870177 13.411491 
" style="fill:none;stroke:#000000;stroke-dasharray:0.5,0.825;stroke-dashoffset:0;stroke-width:0.5;"/>
   </g>
   <g id="line2d_70">
    <path clip-path="url(#p0c648b6333)" d="M 17.752344 330.197538 
L 17.752344 7.2 
" style="fill:none;stroke:#000000;stroke-dasharray:0.5,0.825;stroke-dashoffset:0;stroke-width:0.5;"/>
   </g>
   <g id="line2d_71">
    <path clip-path="url(#p0c648b6333)" d="M 34.502063 330.197538 
L 34.502063 7.2 
" style="fill:none;stroke:#000000;stroke-dasharray:0.5,0.825;stroke-dashoffset:0;stroke-width:0.5;"/>
   </g>
   <g id="line2d_72">
    <path clip-path="url(#p0c648b6333)" d="M 51.251782 330.197538 
L 51.251782 7.2 
" style="fill:none;stroke:#000000;stroke-dasharray:0.5,0.825;stroke-dashoffset:0;stroke-width:0.5;"/>
   </g>
   <g id="line2d_73">
    <path clip-path="url(#p0c648b6333)" d="M 68.001501 330.197538 
L 68.001501 7.2 
" style="fill:none;stroke:#000000;stroke-dasharray:0.5,0.825;stroke-dashoffset:0;stroke-width:0.5;"/>
   </g>
   <g id="line2d_74">
    <path clip-path="url(#p0c648b6333)" d="M 84.751219 330.197538 
L 84.751219 7.2 
" style="fill:none;stroke:#000000;stroke-dasharray:0.5,0.825;stroke-dashoffset:0;stroke-width:0.5;"/>
   </g>
   <g id="line2d_75">
    <path clip-path="url(#p0c648b6333)" d="M 101.500938 330.197538 
L 101.500938 7.2 
" style="fill:none;stroke:#000000;stroke-dasharray:0.5,0.825;stroke-dashoffset:0;stroke-width:0.5;"/>
   </g>
   <g id="line2d_76">
    <path clip-path="url(#p0c648b6333)" d="M 118.250657 330.197538 
L 118.250657 7.2 
" style="fill:none;stroke:#000000;stroke-dasharray:0.5,0.825;stroke-dashoffset:0;stroke-width:0.5;"/>
   </g>
   <g id="line2d_77">
    <path clip-path="url(#p0c648b6333)" d="M 135.000376 330.197538 
L 135.000376 7.2 
" style="fill:none;stroke:#000000;stroke-dasharray:0.5,0.825;stroke-dashoffset:0;stroke-width:0.5;"/>
   </g>
   <g id="line2d_78">
    <path clip-path="url(#p0c648b6333)" d="M 151.750095 330.197538 
L 151.750095 7.2 
" style="fill:none;stroke:#000000;stroke-dasharray:0.5,0.825;stroke-dashoffset:0;stroke-width:0.5;"/>
   </g>
   <g id="line2d_79">
    <path clip-path="url(#p0c648b6333)" d="M 168.499814 330.197538 
L 168.499814 7.2 
" style="fill:none;stroke:#000000;stroke-dasharray:0.5,0.825;stroke-dashoffset:0;stroke-width:0.5;"/>
   </g>
   <g id="line2d_80">
    <path clip-path="url(#p0c648b6333)" d="M 185.249533 330.197538 
L 185.249533 7.2 
" style="fill:none;stroke:#000000;stroke-dasharray:0.5,0.825;stroke-dashoffset:0;stroke-width:0.5;"/>
   </g>
   <g id="line2d_81">
    <path clip-path="url(#p0c648b6333)" d="M 201.999252 330.197538 
L 201.999252 7.2 
" style="fill:none;stroke:#000000;stroke-dasharray:0.5,0.825;stroke-dashoffset:0;stroke-width:0.5;"/>
   </g>
   <g id="line2d_82">
    <path clip-path="url(#p0c648b6333)" d="M 218.748971 330.197538 
L 218.748971 7.2 
" style="fill:none;stroke:#000000;stroke-dasharray:0.5,0.825;stroke-dashoffset:0;stroke-width:0.5;"/>
   </g>
   <g id="line2d_83">
    <path clip-path="url(#p0c648b6333)" d="M 235.49869 330.197538 
L 235.49869 7.2 
" style="fill:none;stroke:#000000;stroke-dasharray:0.5,0.825;stroke-dashoffset:0;stroke-width:0.5;"/>
   </g>
   <g id="line2d_84">
    <path clip-path="url(#p0c648b6333)" d="M 252.248409 330.197538 
L 252.248409 7.2 
" style="fill:none;stroke:#000000;stroke-dasharray:0.5,0.825;stroke-dashoffset:0;stroke-width:0.5;"/>
   </g>
   <g id="line2d_85">
    <path clip-path="url(#p0c648b6333)" d="M 268.998128 330.197538 
L 268.998128 7.2 
" style="fill:none;stroke:#000000;stroke-dasharray:0.5,0.825;stroke-dashoffset:0;stroke-width:0.5;"/>
   </g>
   <g id="line2d_86">
    <path clip-path="url(#p0c648b6333)" d="M 285.747847 330.197538 
L 285.747847 7.2 
" style="fill:none;stroke:#000000;stroke-dasharray:0.5,0.825;stroke-dashoffset:0;stroke-width:0.5;"/>
   </g>
   <g id="line2d_87">
    <path clip-path="url(#p0c648b6333)" d="M 302.497566 330.197538 
L 302.497566 7.2 
" style="fill:none;stroke:#000000;stroke-dasharray:0.5,0.825;stroke-dashoffset:0;stroke-width:0.5;"/>
   </g>
   <g id="line2d_88">
    <path clip-path="url(#p0c648b6333)" d="M 319.247285 330.197538 
L 319.247285 7.2 
" style="fill:none;stroke:#000000;stroke-dasharray:0.5,0.825;stroke-dashoffset:0;stroke-width:0.5;"/>
   </g>
   <g id="line2d_89">
    <path clip-path="url(#p0c648b6333)" d="M 335.997004 330.197538 
L 335.997004 7.2 
" style="fill:none;stroke:#000000;stroke-dasharray:0.5,0.825;stroke-dashoffset:0;stroke-width:0.5;"/>
   </g>
   <g id="line2d_90">
    <path clip-path="url(#p0c648b6333)" d="M 352.746722 330.197538 
L 352.746722 7.2 
" style="fill:none;stroke:#000000;stroke-dasharray:0.5,0.825;stroke-dashoffset:0;stroke-width:0.5;"/>
   </g>
   <g id="line2d_91">
    <path clip-path="url(#p0c648b6333)" d="M 369.496441 330.197538 
L 369.496441 7.2 
" style="fill:none;stroke:#000000;stroke-dasharray:0.5,0.825;stroke-dashoffset:0;stroke-width:0.5;"/>
   </g>
   <g id="line2d_92">
    <path clip-path="url(#p0c648b6333)" d="M 386.24616 330.197538 
L 386.24616 7.2 
" style="fill:none;stroke:#000000;stroke-dasharray:0.5,0.825;stroke-dashoffset:0;stroke-width:0.5;"/>
   </g>
   <g id="line2d_93">
    <path clip-path="url(#p0c648b6333)" d="M 402.995879 330.197538 
L 402.995879 7.2 
" style="fill:none;stroke:#000000;stroke-dasharray:0.5,0.825;stroke-dashoffset:0;stroke-width:0.5;"/>
   </g>
   <g id="line2d_94">
    <path clip-path="url(#p0c648b6333)" d="M 419.745598 330.197538 
L 419.745598 7.2 
" style="fill:none;stroke:#000000;stroke-dasharray:0.5,0.825;stroke-dashoffset:0;stroke-width:0.5;"/>
   </g>
   <g id="line2d_95">
    <path clip-path="url(#p0c648b6333)" d="M 436.495317 330.197538 
L 436.495317 7.2 
" style="fill:none;stroke:#000000;stroke-dasharray:0.5,0.825;stroke-dashoffset:0;stroke-width:0.5;"/>
   </g>
   <g id="patch_3">
    <path d="M 185.249533 330.197538 
L 185.249533 7.2 
" style="fill:none;stroke:#000000;stroke-linecap:square;stroke-linejoin:miter;stroke-width:0.8;"/>
   </g>
   <g id="patch_4">
    <path d="M 9.377484 168.698769 
L 444.870177 168.698769 
" style="fill:none;stroke:#000000;stroke-linecap:square;stroke-linejoin:miter;stroke-width:0.8;"/>
   </g>
  </g>
 </g>
 <defs>
  <clipPath id="p0c648b6333">
   <rect height="322.997538" width="435.492692" x="9.377484" y="7.2"/>
  </clipPath>
 </defs>
</svg>
