<svg xmlns="http://www.w3.org/2000/svg" xmlns:xlink="http://www.w3.org/1999/xlink" version="1.1" width="331" height="202" viewBox="0 0 331 202">
<defs>
<path id="font_1_27" d="M.70199587 0V.0289917C.6369934 .0289917 .61898806 .0289917 .6049957 .06993103L.3869934 .6958618C.3829956 .7078552 .3809967 .7138672 .36698915 .7138672 .35299684 .7138672 .35099793 .7108612 .34599305 .69485476L.13699341 .09689331C.12298584 .05595398 .09498596 .02998352 .0309906 .0289917V0L.1269989 .0019989014C.15499878 .0019989014 .20298767 .0019989014 .22898865 0V.0289917C.18699646 .02998352 .1619873 .050964357 .1619873 .07891846 .1619873 .08491516 .1619873 .08691406 .16699219 .09989929L.21299744 .23271179H.46499635L.519989 .075927738C.5249939 .063949588 .5249939 .061950685 .5249939 .058944704 .5249939 .0289917 .47399903 .0289917 .44898988 .0289917V0C.47200013 .0019989014 .5509949 .0019989014 .57899478 .0019989014 .6069946 .0019989014 .67900088 .0019989014 .70199587 0M.45498658 .26171876H.22299195L.33898927 .5948181 .45498658 .26171876Z"/>
<path id="font_2_1" d="M.6589966 .23046875C.6759949 .23046875 .69400027 .23046875 .69400027 .25045777 .69400027 .27046205 .6759949 .27046205 .6589966 .27046205H.117996219C.100997928 .27046205 .08299255 .27046205 .08299255 .25045777 .08299255 .23046875 .100997928 .23046875 .117996219 .23046875H.6589966Z"/>
<path id="font_3_5" d="M.36099244 .6508026C.36099244 .6697998 .36099244 .6748047 .34700013 .6748047 .33898927 .6748047 .33599855 .6748047 .32798768 .662796L.026992798 .19598389V.16699219H.2899933V.07598877C.2899933 .038986207 .28799439 .0289917 .21499634 .0289917H.19499207V0C.21798706 .0019989014 .29699708 .0019989014 .32499696 .0019989014 .35299684 .0019989014 .43299867 .0019989014 .45599366 0V.0289917H.43598939C.3639984 .0289917 .36099244 .038986207 .36099244 .07598877V.16699219H.46199037V.19598389H.36099244V.6508026M.29499818 .5728302V.19598389H.051986696L.29499818 .5728302Z"/>
<path id="font_3_3" d="M.43998719 .16790772H.41799928C.4149933 .15092469 .40699769 .09597778 .39698792 .07998657 .3899994 .070999149 .33299256 .070999149 .30299378 .070999149H.117996219C.14498902 .09397888 .20599365 .15792847 .23199463 .18190003 .38398744 .3217926 .43998719 .37374879 .43998719 .47270204 .43998719 .5878906 .34899903 .66503909 .23298645 .66503909 .116989139 .66503909 .04899597 .5658264 .04899597 .4797058 .04899597 .42871095 .09298706 .42871095 .09599304 .42871095 .116989139 .42871095 .14299011 .44371034 .14299011 .475708 .14299011 .5037079 .12399292 .5227051 .09599304 .5227051 .08699036 .5227051 .084991458 .5227051 .08198547 .521698 .100997928 .5899048 .15499878 .6360321 .21998596 .6360321 .30499269 .6360321 .35699464 .56481936 .35699464 .47270204 .35699464 .3877411 .30799867 .313797 .25099183 .24984741L.04899597 .023986817V0H.4139862L.43998719 .16790772Z"/>
<path id="font_3_6" d="M.12799073 .5727997C.17098999 .5588074 .20599365 .5578003 .21699524 .5578003 .32998658 .5578003 .4019928 .6409912 .4019928 .6550598 .4019928 .6590576 .3999939 .6640625 .3939972 .6640625 .3919983 .6640625 .3899994 .6640625 .3809967 .66004946 .32499696 .6358795 .2769928 .6328125 .25099183 .6328125 .18499756 .6328125 .13798523 .6530609 .11898804 .6610565 .11199951 .6640625 .10998535 .6640625 .10899353 .6640625 .100997928 .6640625 .100997928 .65805056 .100997928 .64201357V.34495545C.100997928 .32695008 .100997928 .32095338 .11299133 .32095338 .117996219 .32095338 .11898804 .32196046 .1289978 .33395387 .15699768 .37493897 .20399475 .39894105 .2539978 .39894105 .30699159 .39894105 .33299256 .34994508 .34098817 .33294679 .35798646 .29396058 .35899354 .2449646 .35899354 .20697022 .35899354 .16897583 .35899354 .11193848 .33099366 .0667572 .30899049 .03060913 .269989 .005508423 .22599793 .005508423 .1599884 .005508423 .09498596 .050689699 .07699585 .12397766 .08198547 .12197876 .08799744 .12097168 .09298706 .12097168 .10998535 .12097168 .13699341 .13098145 .13699341 .16497803 .13699341 .1929779 .117996219 .20898438 .09298706 .20898438 .07499695 .20898438 .04899597 .19998169 .04899597 .16098023 .04899597 .075790408 .116989139-.021484375 .22799683-.021484375 .34098817-.021484375 .43998719 .073791507 .43998719 .20097351 .43998719 .3199463 .3600006 .4189453 .25498963 .4189453 .19799805 .4189453 .1539917 .39393617 .12799073 .36595155V.5727997Z"/>
<path id="font_3_1" d="M.44799806 .31976319C.44799806 .40283204 .44299317 .48390199 .40699769 .55996707 .3659973 .64302065 .2939911 .66503909 .24499512 .66503909 .18699646 .66503909 .115997318 .63601687 .07899475 .552948 .050994874 .48989869 .040985109 .42785646 .040985109 .31976319 .040985109 .22268677 .04798889 .14962769 .083999637 .078567508 .12298584 .0025177003 .19198609-.021484375 .24398804-.021484375 .33099366-.021484375 .3809967 .030532837 .4099884 .08857727 .44599916 .16363526 .44799806 .26171876 .44799806 .31976319M.24398804-.0014953613C.21199036-.0014953613 .14698792 .016525269 .12799073 .12561035 .116989139 .18565369 .116989139 .26171876 .116989139 .33177186 .116989139 .41384889 .116989139 .48789979 .1329956 .5469513 .1499939 .6139984 .20098877 .6450348 .24398804 .6450348 .28199769 .6450348 .33999635 .6220093 .35899354 .53593447 .37199403 .4788971 .37199403 .39982606 .37199403 .33177186 .37199403 .26472474 .37199403 .18865967 .36099244 .12760926 .34199525 .01751709 .2789917-.0014953613 .24398804-.0014953613Z"/>
<path id="font_3_2" d="M.28799439 .64105227C.28799439 .664032 .28799439 .66503909 .2679901 .66503909 .24398804 .6380615 .19400025 .6012573 .09098816 .6012573V.5722656C.11399841 .5722656 .1639862 .5722656 .21899414 .59825137V.07701111C.21899414 .041000368 .21598816 .0289917 .12799073 .0289917H.09700012V0C.12399292 .0019989014 .22099304 .0019989014 .2539978 .0019989014 .2869873 .0019989014 .3829956 .0019989014 .4099884 0V.0289917H.3789978C.29100038 .0289917 .28799439 .041000368 .28799439 .07701111V.64105227Z"/>
<clipPath id="clip_4">
<path transform="matrix(.50003,0,0,-.500025,5.542511,83.626728)" d="M0 0H194.2803V161.39772H0Z"/>
</clipPath>
<path id="font_1_34" d="M.6380005 .18299866C.6380005 .2639923 .5649872 .34399415 .44599916 .35699464 .54100039 .37478639 .6100006 .43873597 .6100006 .5137024 .6100006 .5996399 .522995 .6826172 .3919983 .6826172H.042999269V.6536102H.06298828C.1349945 .6536102 .13798523 .6436157 .13798523 .6066437V.07595825C.13798523 .038986207 .1349945 .0289917 .06298828 .0289917H.042999269V0H.4189911C.5479889 0 .6380005 .08694458 .6380005 .18286133V.18299866M.5219879 .5136566C.5219879 .44769288 .46998597 .36471559 .35899354 .36471559H.21398926V.61361697C.21398926 .64660647 .21598816 .6536102 .2599945 .6536102H.38598634C.48599244 .6536102 .5219879 .5676422 .5219879 .5136566M.5469971 .18385315C.5469971 .10293579 .48599244 .0289917 .3880005 .0289917H.2599945C.21598816 .0289917 .21398926 .035980226 .21398926 .06895447V.34472657H.40098573C.49699403 .34472657 .5469971 .26078797 .5469971 .18385315Z"/>
<path id="font_3_4" d="M.18399048 .35888673C.16699219 .35787965 .16299439 .35688783 .16299439 .34788514 .16299439 .33789063 .16799927 .33789063 .18598938 .33789063H.23199463C.31698609 .33789063 .35499574 .267807 .35499574 .17172241 .35499574 .04058838 .2869873 .005508423 .23799134 .005508423 .18998719 .005508423 .10798645 .028564454 .07899475 .09472656 .11099243 .08970642 .13999939 .10771179 .13999939 .14372254 .13999939 .17271424 .11898804 .1927185 .09098816 .1927185 .066986087 .1927185 .040985109 .1787262 .040985109 .14071656 .040985109 .051620485 .12998963-.021484375 .24099732-.021484375 .3600006-.021484375 .44799806 .06965637 .44799806 .17071533 .44799806 .26280213 .37399293 .33488465 .27799989 .35188294 .36499024 .3769226 .42099 .45011903 .42099 .5282135 .42099 .6071167 .33898927 .66503909 .24198914 .66503909 .14199829 .66503909 .067993167 .604126 .067993167 .5312042 .067993167 .49121095 .09899902 .48321534 .11399841 .48321534 .1349945 .48321534 .15899658 .49821473 .15899658 .5282135 .15899658 .5602112 .1349945 .57421877 .11299133 .57421877 .10699463 .57421877 .10499573 .57421877 .101989749 .57321169 .13999939 .641037 .23399353 .641037 .23899842 .641037 .27198792 .641037 .33699037 .6260681 .33699037 .5282135 .33699037 .5092163 .33399964 .453125 .30499269 .41001893 .2749939 .3658905 .24099732 .36288453 .21398926 .36187745L.18399048 .35888673Z"/>
<clipPath id="clip_5">
<path transform="matrix(.50003,0,0,-.500025,118.936809,83.62723)" d="M0 0H194.272V161.39922H0Z"/>
</clipPath>
<path id="font_1_42" d="M.6519928 .23170471C.6519928 .24272156 .6519928 .24871826 .6409912 .24871826 .6309967 .24871826 .6299896 .24371338 .6299896 .2367096 .62098696 .07757568 .5049896 .007507324 .4079895 .007507324 .33799745 .007507324 .14698792 .049545289 .14698792 .34179688 .14698792 .63105776 .33499146 .6750946 .40699769 .6750946 .5119934 .6750946 .60398867 .5860138 .6239929 .43588258 .6259918 .4238739 .6259918 .42086793 .6380005 .42086793 .6519928 .42086793 .6519928 .4238739 .6519928 .44389344V.6810913C.6519928 .6990967 .6519928 .70410159 .6419983 .70410159 .6359863 .70410159 .6349945 .7020874 .6289978 .6920929L.5799866 .6130371C.5349884 .6690979 .46699525 .70410159 .394989 .70410159 .21199036 .70410159 .053985597 .54597476 .053985597 .34179688 .053985597 .13461304 .21398926-.021484375 .394989-.021484375 .5589905-.021484375 .6519928 .12161255 .6519928 .23170471Z"/>
<clipPath id="clip_6">
<path transform="matrix(.50003,0,0,-.500025,232.3311,83.62723)" d="M0 0H194.28095V161.39702H0Z"/>
</clipPath>
<path id="font_1_46" d="M.69299319 .33480836C.69299319 .5276947 .55799868 .6826172 .3919983 .6826172H.041992189V.6536102H.06199646C.13398743 .6536102 .13699341 .6436157 .13699341 .6066437V.07595825C.13699341 .038986207 .13398743 .0289917 .06199646 .0289917H.041992189V0H.3919983C.5589905 0 .69299319 .1499176 .69299319 .33480836M.60198977 .33580018C.60198977 .2798462 .6009979 .18589783 .5439911 .11193848 .5109863 .06996155 .45098878 .0289917 .36698915 .0289917H.2619934C.21798706 .0289917 .21598816 .035995485 .21598816 .06896973V.6136322C.21598816 .6466217 .21798706 .6536102 .2619934 .6536102H.36698915C.44999696 .6536102 .5159912 .6136322 .5569916 .5476837 .60198977 .4767151 .60198977 .3757782 .60198977 .33580018Z"/>
<path id="font_3_7" d="M.12298584 .34773255C.12298584 .60061648 .24598694 .641037 .2999878 .641037 .33599855 .641037 .37199403 .62991335 .3909912 .5996094 .3789978 .5996094 .34098817 .5996094 .34098817 .558609 .34098817 .53660586 .35598756 .51760867 .38198854 .51760867 .40699769 .51760867 .42399598 .53260806 .42399598 .56159976 .42399598 .6137543 .38598634 .66503909 .29899598 .66503909 .17298889 .66503909 .040985109 .53559878 .040985109 .31570436 .040985109 .040527345 .16099549-.021484375 .24598694-.021484375 .35499574-.021484375 .44799806 .07354736 .44799806 .2036438 .44799806 .33673097 .35499574 .42578126 .25498963 .42578126 .1659851 .42578126 .1329956 .34873963 .12298584 .32070924V.34773255M.24598694 .005508423C.18299866 .005508423 .15299988 .061538698 .14399719 .08256531 .1349945 .10858154 .125 .15760803 .125 .22766114 .125 .30670167 .16099549 .40577699 .25099183 .40577699 .30599977 .40577699 .33499146 .3687439 .34999085 .33473207 .3659973 .29769898 .3659973 .2476654 .3659973 .20463562 .3659973 .15361023 .3659973 .10858154 .34700013 .07055664 .32199098 .022521973 .28599549 .005508423 .24598694 .005508423Z"/>
<clipPath id="clip_7">
<path transform="matrix(.50003,0,0,-.500025,5.542511,197.0199)" d="M0 0H194.26607V161.4015H0Z"/>
</clipPath>
<path id="font_1_49" d="M.6380005 .2558899H.6159973C.59199526 .09996033 .56799319 .0289917 .39898683 .0289917H.2630005C.21899414 .0289917 .21699524 .035995485 .21699524 .06896973V.3388672H.30799867C.4039917 .3388672 .4149933 .3078766 .4149933 .22190857H.43699647V.48477174H.4149933C.4149933 .39883424 .4039917 .3678589 .30799867 .3678589H.21699524V.6116791C.21699524 .6446686 .21899414 .6516571 .2630005 .6516571H.3959961C.54299929 .6516571 .57398989 .6016998 .58898928 .4577942H.61099246L.58499148 .68066409H.040985109V.6516571H.06098938C.1329956 .6516571 .13598633 .6416626 .13598633 .60469058V.07597351C.13598633 .038986207 .1329956 .0289917 .06098938 .0289917H.040985109V0H.59799197L.6380005 .2558899Z"/>
<clipPath id="clip_8">
<path transform="matrix(.50003,0,0,-.500025,118.93681,197.01938)" d="M0 0H194.27439V161.39829H0Z"/>
</clipPath>
<path id="font_1_54" d="M.5970001 .45799256 .57099917 .68066409H.040985109V.6516571H.06098938C.1329956 .6516571 .13598633 .64167788 .13598633 .6047363V.07601929C.13598633 .039001466 .1329956 .0289917 .06098938 .0289917H.040985109V0C.06498718 .0019989014 .1539917 .0019989014 .18399048 .0019989014 .21899414 .0019989014 .30699159 .0019989014 .33599855 0V.0289917H.30599977C.21899414 .0289917 .21699524 .041000368 .21699524 .07702637V.32617188H.30499269C.39898683 .32617188 .40899659 .29315187 .40899659 .20909119H.43099977V.4719696H.40899659C.40899659 .3881073 .39898683 .35516358 .30499269 .35516358H.21699524V.61172488C.21699524 .6446686 .21899414 .6516571 .2630005 .6516571H.3880005C.5319977 .6516571 .5609894 .5987396 .57499697 .45799256H.5970001Z"/>
<clipPath id="clip_9">
<path transform="matrix(.50003,0,0,-.500025,232.3311,197.0199)" d="M0 0H194.2805V161.395H0Z"/>
</clipPath>
</defs>
<use data-text="A" xlink:href="#font_1_27" transform="matrix(11.955917,0,0,-11.955797,1.154747,17.024903)"/>
<path transform="matrix(.50003,0,0,-.500025,5.542511,83.626728)" stroke-width=".19925" stroke-linecap="butt" stroke-miterlimit="10" stroke-linejoin="miter" fill="none" stroke="#929292" d="M19.42812-2.1262V2.1262M58.28438-2.1262V2.1262M135.99689-2.1262V2.1262M174.85315-2.1262V2.1262"/>
<path transform="matrix(.50003,0,0,-.500025,5.542511,83.626728)" stroke-width=".19925" stroke-linecap="butt" stroke-miterlimit="10" stroke-linejoin="miter" fill="none" stroke="#929292" d="M95.01462 54.3876H99.26663M95.01462 108.78256H99.26663"/>
<path transform="matrix(.50003,0,0,-.500025,5.542511,83.626728)" stroke-width=".3985" stroke-linecap="butt" stroke-miterlimit="10" stroke-linejoin="miter" fill="none" stroke="#000000" d="M0 0H192.28778"/>
<path transform="matrix(.50003,0,0,-.500025,101.69217,83.626728)" d="M1.99252 0-1.19551 1.59401 0 0-1.19551-1.59401"/>
<path transform="matrix(.50003,0,0,-.500025,5.542511,83.626728)" stroke-width=".3985" stroke-linecap="butt" stroke-miterlimit="10" stroke-linejoin="miter" fill="none" stroke="#000000" d="M97.14064 0V159.4052"/>
<path transform="matrix(0,-.500025,-.50003,-0,54.11574,3.9201432)" d="M1.99252 0-1.19551 1.59401 0 0-1.19551-1.59401"/>
<use data-text="&#x2212;" xlink:href="#font_2_1" transform="matrix(5.9779589,0,0,-5.9778988,11.468866,90.634578)"/>
<use data-text="4" xlink:href="#font_3_5" transform="matrix(5.9779589,0,0,-5.9778988,16.118647,90.634578)"/>
<use data-text="&#x2212;" xlink:href="#font_2_1" transform="matrix(5.9779589,0,0,-5.9778988,30.898531,90.634578)"/>
<use data-text="2" xlink:href="#font_3_3" transform="matrix(5.9779589,0,0,-5.9778988,35.54831,90.634578)"/>
<use data-text="2" xlink:href="#font_3_3" transform="matrix(5.9779589,0,0,-5.9778988,72.081508,90.634578)"/>
<use data-text="4" xlink:href="#font_3_5" transform="matrix(5.9779589,0,0,-5.9778988,91.51117,90.634578)"/>
<use data-text="5" xlink:href="#font_3_6" transform="matrix(5.9779589,0,0,-5.9778988,45.107385,58.357965)"/>
<use data-text="0" xlink:href="#font_3_1" transform="matrix(5.9779589,0,0,-5.9778988,48.036584,58.357965)"/>
<use data-text="1" xlink:href="#font_3_2" transform="matrix(5.9779589,0,0,-5.9778988,42.18021,31.159104)"/>
<use data-text="0" xlink:href="#font_3_1" transform="matrix(5.9779589,0,0,-5.9778988,45.10941,31.159104)"/>
<use data-text="0" xlink:href="#font_3_1" transform="matrix(5.9779589,0,0,-5.9778988,48.038614,31.159104)"/>
<g clip-path="url(#clip_4)">
<path transform="matrix(.50003,0,0,-.500025,5.542511,83.626728)" stroke-width="1.59404" stroke-linecap="butt" stroke-miterlimit="10" stroke-linejoin="miter" fill="none" stroke="#0000ff" d="M0 0 .38933 .00012 .77867 .00027 1.168 .00043 1.55734 .0006 1.94669 .00075 2.33601 .00092 2.72536 .00108 3.1147 .00124 3.50403 .00143 3.89337 .00162 4.28273 .0018 4.67206 .00198 5.0614 .00217 5.45074 .00237 5.84007 .00256 6.22942 .00276 6.61874 .00296 7.00809 .00317 7.39743 .00337 7.78676 .00359 8.1761 .00383 8.56546 .00404 8.95479 .00426 9.34413 .0045 9.73347 .00475 10.1228 .00499 10.51215 .00525 10.90149 .0055 11.29082 .00577 11.68016 .00603 12.0695 .00629 12.45883 .00658 12.84819 .00687 13.23752 .00714 13.62686 .00745 14.0162 .00774 14.40553 .00804 14.79488 .00835 15.18422 .00867 15.57355 .00897 15.96289 .00931 16.35223 .00966 16.74156 .01 17.13092 .01036 17.52026 .01071 17.90959 .01108 18.29893 .01146 18.68828 .01184 19.0776 .01222 19.46695 .0126 19.85628 .01302 20.24562 .01343 20.63496 .01384 21.02429 .01428 21.41365 .01472 21.803 .01518 22.19232 .01563 22.58167 .0161 22.97101 .01656 23.36034 .01704 23.74968 .01755 24.13902 .01805 24.52835 .01855 24.9177 .01909 25.30704 .01962 25.69638 .02017 26.08572 .0207 26.47505 .02127 26.8644 .02187 27.25374 .02246 27.64307 .02306 28.03241 .02368 28.42175 .0243 28.81108 .02495 29.20042 .02559 29.58977 .02626 29.97911 .02695 30.36845 .02765 30.7578 .02837 31.14713 .02907 31.53647 .02982 31.9258 .03056 32.31514 .03133 32.70448 .03214 33.09381 .03291 33.48315 .03372 33.8725 .03456 34.26184 .03542 34.65118 .03629 35.04053 .03714 35.42986 .03806 35.8192 .03899 36.20854 .03992 36.59787 .04086 36.98721 .04184 37.37656 .04285 37.76588 .04387 38.15524 .0449 38.54457 .04594 38.93391 .04703 39.32326 .04814 39.71259 .04924 40.10193 .0504 40.49127 .05157 40.8806 .05278 41.26994 .05399 41.65929 .05524 42.04861 .0565 42.43797 .05779 42.82732 .0591 43.21664 .06044 43.60599 .06181 43.99533 .06322 44.38466 .06465 44.774 .0661 45.16333 .0676 45.55267 .0691 45.94202 .07065 46.33134 .07224 46.7207 .07384 47.11005 .0755 47.49937 .07718 47.88872 .07889 48.27806 .08063 48.66739 .0824 49.05673 .08421 49.44608 .08606 49.8354 .08797 50.22475 .08989 50.61409 .09187 51.00343 .09389 51.39278 .09592 51.7821 .098 52.17145 .10014 52.56079 .10231 52.95012 .1045 53.33946 .10678 53.7288 .10909 54.11813 .11147 54.50748 .11386 54.89682 .11626 55.28616 .11876 55.6755 .12137 56.06485 .12398 56.45418 .12659 56.84352 .12932 57.23285 .13214 57.6222 .13496 58.01154 .1378 58.40086 .14073 58.7902 .14378 59.17955 .14684 59.5689 .14998 59.95824 .15314 60.34758 .1564 60.73691 .15967 61.12625 .16306 61.5156 .16653 61.90492 .17 62.29427 .1736 62.68361 .1773 63.07294 .18098 63.46228 .1848 63.85162 .18872 64.24097 .19273 64.63031 .19678 65.01964 .20091 65.40898 .20515 65.79832 .2094 66.18765 .21376 66.577 .21832 66.96634 .22289 67.35567 .22748 67.74501 .23225 68.13437 .23714 68.5237 .24205 68.91304 .24716 69.30238 .25227 69.69171 .25749 70.08105 .26294 70.47038 .26837 70.85973 .27393 71.24907 .2796 71.6384 .28546 72.02776 .29134 72.4171 .29744 72.80643 .30363 73.19577 .30984 73.58511 .31636 73.97444 .32289 74.36378 .32953 74.75313 .33638 75.14246 .34335 75.5318 .35043 75.92114 .35771 76.31049 .365 76.69983 .37262 77.08916 .38023 77.4785 .38818 77.86784 .39612 78.25717 .40428 78.64651 .41267 79.03586 .42116 79.42519 .42986 79.81453 .43867 80.20389 .44771 80.59322 .45697 80.98256 .46631 81.3719 .47589 81.76123 .48569 82.15057 .4957 82.5399 .50583 82.92924 .51627 83.31859 .52681 83.70792 .53769 84.09727 .54869 84.48662 .55989 84.87595 .57144 85.26529 .58318 85.65463 .59505 86.04396 .60735 86.4333 .61975 86.82265 .63249 87.21198 .64542 87.60133 .65858 87.99068 .67209 88.38 .6858 88.76935 .69984 89.15868 .7142 89.54802 .72878 89.93736 .74368 90.32669 .75893 90.71605 .77438 91.1054 .79027 91.49472 .80637 91.88406 .8228 92.2734 .83966 92.66273 .85675 93.05208 .87427 93.44142 .89212 93.83075 .9103 94.22011 .9289 94.60945 .94783 94.99878 .96721 95.38812 .9869 95.77745 1.00703 96.1668 1.02759 96.55614 1.0485 96.94547 1.06992 97.33481 1.09146 97.72417 1.11371 98.1135 1.1364 98.50284 1.15956 98.89218 1.18315 99.28151 1.20724 99.67085 1.23184 100.0602 1.25691 100.44952 1.2825 100.83887 1.30861 101.22823 1.33525 101.61755 1.36241 102.0069 1.39014 102.39622 1.41844 102.78557 1.44728 103.17491 1.47675 103.56424 1.50674 103.95358 1.53743 104.34293 1.56868 104.73227 1.60057 105.12161 1.63316 105.51096 1.66632 105.90028 1.7002 106.28963 1.73477 106.67897 1.77005 107.0683 1.806 107.45764 1.84268 107.84698 1.88016 108.23633 1.91838 108.62567 1.95734 109.015 1.9971 109.40434 2.0377 109.79369 2.07909 110.18301 2.12129 110.57236 2.16437 110.9617 2.20834 111.35104 2.25319 111.74039 2.29895 112.12973 2.34558 112.51906 2.39325 112.9084 2.44185 113.29774 2.49141 113.68707 2.54199 114.07642 2.59361 114.46574 2.64622 114.8551 2.69994 115.24445 2.75478 115.63377 2.81067 116.02312 2.86768 116.41246 2.92592 116.80179 2.98528 117.19113 3.04587 117.58047 3.10764 117.9698 3.1707 118.35915 3.235 118.74849 3.30063 119.13783 3.3676 119.52718 3.43597 119.91652 3.5056 120.30585 3.57675 120.69519 3.64932 121.08452 3.72327 121.47386 3.79878 121.8632 3.8758 122.25253 3.95442 122.64188 4.03464 123.03122 4.11641 123.42056 4.19987 123.8099 4.28513 124.19925 4.37196 124.58858 4.46062 124.97792 4.55112 125.36726 4.6433 125.75659 4.73744 126.14594 4.8334 126.53528 4.9315 126.9246 5.03143 127.31396 5.1334 127.7033 5.23743 128.09264 5.34369 128.48198 5.45184 128.8713 5.56244 129.26065 5.67525 129.65 5.7902 130.03932 5.90758 130.42867 6.02724 130.81801 6.14941 131.20734 6.27406 131.5967 6.40117 131.98604 6.53096 132.37537 6.66327 132.76471 6.79836 133.15404 6.93607 133.54338 7.07668 133.93273 7.21996 134.32205 7.36626 134.7114 7.51541 135.10074 7.66786 135.49007 7.82317 135.87943 7.9815 136.26877 8.14336 136.6581 8.30827 137.04744 8.47665 137.43679 8.64827 137.82611 8.82362 138.21546 9.0023 138.6048 9.18474 138.99413 9.37059 139.38347 9.56062 139.7728 9.75429 140.16216 9.95178 140.5515 10.1533 140.94083 10.35909 141.33017 10.56888 141.71952 10.78294 142.10884 11.00175 142.49819 11.22455 142.88753 11.45181 143.27686 11.68376 143.6662 11.92038 144.05554 12.16177 144.44489 12.40797 144.83423 12.6595 145.22357 12.9158 145.6129 13.17722 146.00225 13.4442 146.39157 13.71638 146.78092 13.99413 147.17026 14.27742 147.55959 14.5667 147.94893 14.86185 148.33827 15.16275 148.72762 15.46953 149.11696 15.78307 149.5063 16.10248 149.89563 16.42863 150.28498 16.7613 150.67432 17.10085 151.06365 17.44711 151.45299 17.80003 151.84233 18.16035 152.23166 18.52861 152.621 18.9036 153.01035 19.28621 153.39969 19.67699 153.78903 20.0755 154.17836 20.48192 154.5677 20.89641 154.95705 21.31982 155.34638 21.7515 155.73572 22.19165 156.12506 22.64085 156.51439 23.09962 156.90373 23.56721 157.29309 24.04448 157.68242 24.5311 158.07176 25.02826 158.46109 25.53445 158.85044 26.05153 159.23978 26.57928 159.6291 27.11723 160.01845 27.6662 160.40779 28.22667 160.79712 28.79784 161.18648 29.38106 161.57582 29.97557 161.96515 30.58286 162.35449 31.2022 162.74384 31.83328 163.13317 32.4784 163.5225 33.13593 163.91185 33.80618 164.30118 34.4908 164.69052 35.18867 165.07985 35.90149 165.46921 36.62852 165.85855 37.36928 166.24788 38.12634 166.63722 38.89897 167.02657 39.68596 167.4159 40.48991 167.80524 41.30931 168.19458 42.14505 168.58391 42.9984 168.97325 43.86946 169.3626 44.75699 169.75194 45.66364 170.14128 46.58737 170.53063 47.53102 170.91996 48.49315 171.3093 49.47421 171.69863 50.47617 172.08797 51.49869 172.47731 52.54015 172.86664 53.6041 173.25598 54.68993 173.64533 55.79643 174.03467 56.92688 174.42401 58.07884 174.81336 59.25476 175.20269 60.45428 175.59203 61.67719 175.98137 62.92653 176.3707 64.20154 176.76004 65.49995 177.14939 66.82567 177.53871 68.17912 177.92806 69.55869 178.3174 70.96687 178.70674 72.40279 179.09609 73.86926 179.48542 75.3647 179.87476 76.8896 180.2641 78.44574 180.65343 80.03427 181.04277 81.65482 181.43212 83.3082 181.82144 84.99478 182.21079 86.71388 182.60015 88.47061 182.98947 90.25923 183.37882 92.0882 183.76816 93.95232 184.15749 95.85376 184.54683 97.79468 184.93616 99.77388 185.3255 101.79324 185.71485 103.85329 186.10417 105.95763 186.49352 108.10153 186.88288 110.29366 187.2722 112.52495 187.66155 114.803 188.05089 117.12675 188.44022 119.49838 188.82956 121.91678 189.2189 124.38304 189.60823 126.89934 189.99758 129.47006 190.3869 132.0908 190.77625 134.76486 191.1656 137.49222 191.55493 140.27399 191.94428 143.11449 192.33362 146.01157 192.72295 148.9663 193.11229 151.98305 193.50164 155.05854 193.89096 158.19603 194.2803 161.39772"/>
</g>
<use data-text="B" xlink:href="#font_1_34" transform="matrix(11.955917,0,0,-11.955797,199.83966,87.710437)"/>
<path transform="matrix(.50003,0,0,-.500025,118.936809,83.62723)" stroke-width=".19925" stroke-linecap="butt" stroke-miterlimit="10" stroke-linejoin="miter" fill="none" stroke="#929292" d="M38.54294 117.47485V121.72688M77.4752 117.47485V121.72688M116.40747 117.47485V121.72688M155.33974 117.47485V121.72688M194.272 117.47485V121.72688"/>
<path transform="matrix(.50003,0,0,-.500025,118.936809,83.62723)" stroke-width=".19925" stroke-linecap="butt" stroke-miterlimit="10" stroke-linejoin="miter" fill="none" stroke="#929292" d="M-2.12593 15.71663H2.12593M-2.12593 67.65875H2.12593"/>
<path transform="matrix(.50003,0,0,-.500025,118.936809,83.62723)" stroke-width=".3985" stroke-linecap="butt" stroke-miterlimit="10" stroke-linejoin="miter" fill="none" stroke="#000000" d="M0 119.60088H192.27948"/>
<path transform="matrix(.50003,0,0,-.500025,215.0823,23.8238)" d="M1.99252 0-1.19551 1.59401 0 0-1.19551-1.59401"/>
<path transform="matrix(.50003,0,0,-.500025,118.936809,83.62723)" stroke-width=".3985" stroke-linecap="butt" stroke-miterlimit="10" stroke-linejoin="miter" fill="none" stroke="#000000" d="M0 0V159.4067"/>
<path transform="matrix(0,-.500025,-.50003,-0,118.936809,3.919899)" d="M1.99252 0-1.19551 1.59401 0 0-1.19551-1.59401"/>
<use data-text="1" xlink:href="#font_3_2" transform="matrix(5.9779589,0,0,-5.9778988,136.74588,30.831593)"/>
<use data-text="2" xlink:href="#font_3_3" transform="matrix(5.9779589,0,0,-5.9778988,156.21355,30.831593)"/>
<use data-text="3" xlink:href="#font_3_4" transform="matrix(5.9779589,0,0,-5.9778988,175.68071,30.831593)"/>
<use data-text="4" xlink:href="#font_3_5" transform="matrix(5.9779589,0,0,-5.9778988,195.14788,30.831593)"/>
<use data-text="5" xlink:href="#font_3_6" transform="matrix(5.9779589,0,0,-5.9778988,214.61505,30.831593)"/>
<use data-text="&#x2212;" xlink:href="#font_2_1" transform="matrix(5.9779589,0,0,-5.9778988,108.20516,77.44542)"/>
<use data-text="4" xlink:href="#font_3_5" transform="matrix(5.9779589,0,0,-5.9778988,112.85445,77.44542)"/>
<use data-text="&#x2212;" xlink:href="#font_2_1" transform="matrix(5.9779589,0,0,-5.9778988,108.20516,51.47312)"/>
<use data-text="2" xlink:href="#font_3_3" transform="matrix(5.9779589,0,0,-5.9778988,112.85445,51.47312)"/>
<g clip-path="url(#clip_5)">
<path transform="matrix(.50003,0,0,-.500025,118.936809,83.62723)" stroke-width="1.59404" stroke-linecap="butt" stroke-miterlimit="10" stroke-linejoin="miter" fill="none" stroke="#0000ff" d="M0 0 .38931 17.99922 .77864 28.53128 1.16795 36.00342 1.55728 41.79834 1.94661 46.53311 2.33592 50.53447 2.72525 54.00499 3.11458 57.0636 3.50389 59.80043 3.89322 62.27522 4.28255 64.53468 4.67186 66.6142 5.06119 68.53813 5.45052 70.33014 5.83983 72.00528 6.22916 73.57886 6.61848 75.06465 7.0078 76.46788 7.39713 77.79967 7.78645 79.06862 8.17577 80.27654 8.5651 81.4312 8.9544 82.53653 9.34373 83.5972 9.73306 84.61578 10.12238 85.59514 10.5117 86.53972 10.90103 87.45183 11.29034 88.33171 11.67967 89.182 12.069 90.00659 12.45831 90.80545 12.84764 91.58069 13.23697 92.33308 13.62628 93.06624 14.01561 93.77759 14.40494 94.46947 14.79425 95.1447 15.18358 95.80385 15.5729 96.44455 15.96222 97.06967 16.35155 97.68103 16.74086 98.27838 17.13019 98.86246 17.51952 99.43304 17.90883 99.99168 18.29816 100.53812 18.68748 101.07364 19.0768 101.59879 19.46613 102.11275 19.85545 102.6171 20.24477 103.11185 20.6341 103.59673 21.02342 104.07356 21.41273 104.54155 21.80206 105.00047 22.19139 105.4534 22.5807 105.89645 22.97003 106.33356 23.35936 106.76207 23.74867 107.1836 24.138 107.59964 24.52731 108.00818 24.91664 108.41124 25.30597 108.8073 25.69528 109.19868 26.08461 109.58228 26.47394 109.96275 26.86325 110.33492 27.25258 110.70319 27.6419 111.06653 28.03122 111.42337 28.42055 111.77942 28.80988 112.12485 29.19919 112.4713 29.58852 112.80737 29.97784 113.14655 30.36716 113.47429 30.75648 113.8057 31.14581 114.12773 31.53513 114.4464 31.92445 114.76091 32.31377 115.07126 32.7031 115.37927 33.09242 115.68288 33.48174 115.98311 33.87106 116.27995 34.26039 116.57317 34.6497 116.86404 35.03903 117.1505 35.42836 117.43488 35.81767 117.71538 36.207 117.99352 36.59633 118.26855 36.98564 118.53996 37.37497 118.80902 37.7643 119.07549 38.15361 119.33934 38.54294 119.60088 38.93227 119.85876 39.32158 120.1151 39.7109 120.3678 40.10022 120.61842 40.48955 120.8675 40.87888 121.11342 41.26819 121.35756 41.65752 121.59933 42.04684 121.83829 42.43616 122.07567 42.82549 122.3107 43.21481 122.54366 43.60413 122.77454 43.99345 123.00334 44.38278 123.23007 44.7721 123.45497 45.16142 123.67833 45.55075 123.89934 45.94006 124.11853 46.32939 124.33539 46.71872 124.55173 47.10803 124.76495 47.49736 124.97688 47.88667 125.18726 48.276 125.3958 48.66533 125.60278 49.05464 125.80795 49.44397 126.0121 49.8333 126.21362 50.22261 126.41464 50.61194 126.61305 51.00127 126.81018 51.39058 127.00626 51.7799 127.20209 52.16924 127.39479 52.55855 127.58646 52.94788 127.7763 53.3372 127.96484 53.72652 128.15236 54.11584 128.33858 54.50517 128.52376 54.89449 128.7071 55.28381 128.88813 55.67313 129.07019 56.06245 129.25043 56.45178 129.42807 56.8411 129.6052 57.23042 129.78076 57.61975 129.9558 58.00906 130.13059 58.39839 130.30225 58.78772 130.4734 59.17703 130.64377 59.56636 130.81337 59.95569 130.98062 60.345 131.14865 60.73433 131.3146 61.12366 131.48003 61.51297 131.64237 61.9023 131.80573 62.29163 131.96674 62.68094 132.12906 63.07027 132.28878 63.45958 132.44643 63.8489 132.60433 64.23824 132.76067 64.62755 132.91936 65.01688 133.07309 65.4062 133.22788 65.79552 133.37929 66.18484 133.5315 66.57417 133.68343 66.96349 133.83562 67.35281 133.98416 67.74214 134.13195 68.13145 134.27973 68.52078 134.4275 68.91011 134.57424 69.29942 134.71993 69.68875 134.8651 70.07808 135.0082 70.46739 135.15027 70.85672 135.29103 71.24603 135.43622 71.63536 135.5749 72.02469 135.71514 72.414 135.85382 72.80333 135.99121 73.19266 136.13144 73.58197 136.26833 73.9713 136.4039 74.36063 136.53868 74.74994 136.67322 75.13927 136.80567 75.5286 136.94356 75.91791 137.07524 76.30724 137.2051 76.69656 137.33834 77.08588 137.4674 77.4752 137.60012 77.86453 137.73178 78.25385 137.86061 78.64317 137.98889 79.0325 138.11617 79.42181 138.24343 79.81114 138.36937 80.20045 138.49585 80.58978 138.62027 80.97911 138.74518 81.36842 138.86907 81.75775 138.99192 82.14708 139.11528 82.53639 139.2376 82.92572 139.35887 83.31505 139.4799 83.70436 139.6012 84.09369 139.72039 84.48302 139.84012 84.87233 139.9588 85.26166 140.07698 85.65099 140.19463 86.0403 140.31253 86.42963 140.42942 86.81895 140.54549 87.20827 140.66107 87.5976 140.7756 87.98691 140.89092 88.37624 141.00519 88.76556 141.11843 89.15488 141.2319 89.5442 141.34438 89.93353 141.45682 90.32285 141.56824 90.71217 141.6799 91.1015 141.79106 91.49081 141.90119 91.88014 142.01078 92.26947 142.12039 92.65878 142.22843 93.04811 142.33698 93.43744 142.44554 93.82675 142.55254 94.21608 142.65953 94.60541 142.76654 94.99472 142.8725 95.38405 142.97872 95.77336 143.08391 96.16269 143.18909 96.55202 143.29323 96.94133 143.39765 97.33066 143.50099 97.71999 143.60437 98.1093 143.70722 98.49863 143.80928 98.88795 143.9116 99.27727 144.01367 99.6666 144.11496 100.05592 144.21546 100.44524 144.31598 100.83456 144.41622 101.22389 144.5162 101.6132 144.6149 102.00253 144.71384 102.39186 144.81175 102.78117 144.91045 103.1705 145.0081 103.55981 145.106 103.94914 145.20366 104.33847 145.30002 104.72778 145.39559 105.11711 145.49143 105.50644 145.58829 105.89575 145.68257 106.28508 145.7779 106.67441 145.87242 107.06372 145.96591 107.45305 146.0602 107.84238 146.1542 108.23169 146.24771 108.62102 146.34043 109.01035 146.43312 109.39966 146.52533 109.78899 146.617 110.17831 146.70896 110.56763 146.8001 110.95695 146.88996 111.34627 146.9806 111.7356 147.07176 112.12492 147.16136 112.51424 147.25226 112.90356 147.34134 113.2929 147.42964 113.6822 147.51898 114.07153 147.60677 114.46086 147.69533 114.85017 147.78234 115.2395 147.87036 115.62883 147.95764 116.01814 148.04439 116.40747 148.13242 116.7968 148.21865 117.18611 148.3041 117.57544 148.39084 117.96477 148.47602 118.35408 148.56069 118.74341 148.6456 119.13272 148.73107 119.52205 148.8152 119.91138 148.89832 120.30069 148.98246 120.69002 149.06607 121.07935 149.1505 121.46866 149.23332 121.85799 149.31566 122.24731 149.39852 122.63663 149.48163 123.02596 149.56369 123.41528 149.6442 123.8046 149.72548 124.19392 149.80704 124.58325 149.88755 124.97256 149.9683 125.3619 150.0496 125.75122 150.1309 126.14053 150.2101 126.52986 150.29062 126.91917 150.36931 127.3085 150.44826 127.69783 150.52748 128.08715 150.6059 128.47647 150.68486 128.8658 150.76251 129.25511 150.84069 129.64444 150.92093 130.03377 150.9978 130.42308 151.07469 130.81241 151.15157 131.20174 151.22974 131.59105 151.30583 131.98038 151.38114 132.3697 151.45803 132.75902 151.5328 133.14835 151.60813 133.53768 151.685 133.92699 151.76161 134.31632 151.83719 134.70563 151.91147 135.09496 151.98548 135.48429 152.0595 135.8736 152.13378 136.26293 152.20859 136.65225 152.28156 137.04157 152.35558 137.4309 152.42882 137.82022 152.50179 138.20954 152.5758 138.59886 152.64879 138.98819 152.72176 139.3775 152.79346 139.76683 152.86669 140.15616 152.93811 140.54547 153.0098 140.9348 153.08016 141.32413 153.15158 141.71344 153.22223 142.10277 153.29286 142.49208 153.36688 142.88141 153.43779 143.27074 153.50687 143.66005 153.57802 144.04938 153.64737 144.4387 153.7167 144.82802 153.78582 145.21735 153.8554 145.60668 153.9237 145.99599 153.99434 146.38532 154.06084 146.77465 154.13329 147.16396 154.20212 147.55329 154.27016 147.94261 154.33846 148.33193 154.40547 148.72126 154.47248 149.11058 154.54027 149.4999 154.607 149.88922 154.67505 150.27855 154.74129 150.66786 154.80724 151.05719 154.874 151.4465 154.94542 151.83583 155.01137 152.22516 155.07656 152.61447 155.14226 153.0038 155.20693 153.39313 155.27317 153.78244 155.3399 154.17177 155.40354 154.5611 155.46796 154.95041 155.53263 155.33974 155.6043 155.72907 155.66896 156.11838 155.73363 156.5077 155.79778 156.89704 155.86219 157.28635 155.92659 157.67568 155.99076 158.065 156.05464 158.45432 156.118 158.84365 156.18137 159.23296 156.245 159.62229 156.30837 160.01161 156.37122 160.40093 156.43485 160.79026 156.49718 161.17958 156.55977 161.5689 156.6221 161.95822 156.6847 162.34755 156.74675 162.73686 156.8091 163.12619 156.87012 163.51552 156.93219 163.90483 156.99375 164.29416 157.05582 164.68349 157.11685 165.0728 157.17789 165.46213 157.23865 165.85146 157.29969 166.24077 157.36072 166.6301 157.42122 167.01941 157.48148 167.40874 157.54199 167.79807 157.60277 168.18738 157.66223 168.5767 157.72199 168.96604 157.78197 169.35535 157.8417 169.74468 157.90119 170.134 157.96065 170.52332 158.01935 170.91265 158.07881 171.30197 158.13751 171.69129 158.19646 172.08061 158.25516 172.46994 158.3141 172.85926 158.37203 173.24858 158.43099 173.63791 158.4889 174.02722 158.54708 174.41655 158.6055 174.80587 158.6629 175.19519 158.72083 175.58452 158.77744 175.97383 158.83536 176.36316 158.89275 176.75249 158.94937 177.1418 159.00676 177.53113 159.06365 177.92046 159.12026 178.30977 159.17687 178.6991 159.23349 179.08843 159.28986 179.47774 159.34595 179.86707 159.4023 180.2564 159.45787 180.6457 159.51398 181.03504 159.57009 181.42436 159.62618 181.81368 159.68177 182.203 159.73734 182.59232 159.79238 182.98165 159.84745 183.37097 159.90276 183.76029 159.95757 184.14962 160.01264 184.53894 160.06742 184.92826 160.1217 185.31758 160.17624 185.70691 160.23 186.09622 160.2848 186.48555 160.33882 186.87488 160.3931 187.26419 160.44738 187.65352 160.50089 188.04285 160.55438 188.43216 160.60788 188.82149 160.66138 189.21082 160.71436 189.60013 160.76837 189.98946 160.8211 190.37877 160.87409 190.7681 160.92758 191.15743 160.98032 191.54674 161.03354 191.93607 161.08576 192.3254 161.13822 192.7147 161.19094 193.10404 161.24314 193.49337 161.29506 193.88268 161.34728 194.272 161.39922"/>
</g>
<use data-text="C" xlink:href="#font_1_42" transform="matrix(11.955917,0,0,-11.955797,228.10437,87.710437)"/>
<path transform="matrix(.50003,0,0,-.500025,232.3311,83.62723)" stroke-width=".19925" stroke-linecap="butt" stroke-miterlimit="10" stroke-linejoin="miter" fill="none" stroke="#929292" d="M19.42812 78.57986V82.83167M58.28438 78.57986V82.83167M135.99689 78.57986V82.83167M174.85315 78.57986V82.83167"/>
<path transform="matrix(.50003,0,0,-.500025,232.3311,83.62723)" stroke-width=".19925" stroke-linecap="butt" stroke-miterlimit="10" stroke-linejoin="miter" fill="none" stroke="#929292" d="M95.01462 0H99.26663M95.01462 40.35289H99.26663M95.01462 121.05867H99.26663M95.01462 161.41156H99.26663"/>
<path transform="matrix(.50003,0,0,-.500025,232.3311,83.62723)" stroke-width=".3985" stroke-linecap="butt" stroke-miterlimit="10" stroke-linejoin="miter" fill="none" stroke="#000000" d="M0 80.70578H192.28842"/>
<path transform="matrix(.50003,0,0,-.500025,328.48109,43.272325)" d="M1.99252 0-1.19551 1.59401 0 0-1.19551-1.59401"/>
<path transform="matrix(.50003,0,0,-.500025,232.3311,83.62723)" stroke-width=".3985" stroke-linecap="butt" stroke-miterlimit="10" stroke-linejoin="miter" fill="none" stroke="#000000" d="M97.14064 0V159.4045"/>
<path transform="matrix(0,-.500025,-.50003,-0,280.90434,3.9209977)" d="M1.99252 0-1.19551 1.59401 0 0-1.19551-1.59401"/>
<use data-text="&#x2212;" xlink:href="#font_2_1" transform="matrix(5.9779589,0,0,-5.9778988,238.25746,50.28006)"/>
<use data-text="4" xlink:href="#font_3_5" transform="matrix(5.9779589,0,0,-5.9778988,242.90724,50.28006)"/>
<use data-text="&#x2212;" xlink:href="#font_2_1" transform="matrix(5.9779589,0,0,-5.9778988,257.68714,50.28006)"/>
<use data-text="2" xlink:href="#font_3_3" transform="matrix(5.9779589,0,0,-5.9778988,262.3369,50.28006)"/>
<use data-text="2" xlink:href="#font_3_3" transform="matrix(5.9779589,0,0,-5.9778988,298.87013,50.28006)"/>
<use data-text="4" xlink:href="#font_3_5" transform="matrix(5.9779589,0,0,-5.9778988,318.29978,50.28006)"/>
<use data-text="&#x2212;" xlink:href="#font_2_1" transform="matrix(5.9779589,0,0,-5.9778988,267.24623,85.304309)"/>
<use data-text="1" xlink:href="#font_3_2" transform="matrix(5.9779589,0,0,-5.9778988,271.896,85.304309)"/>
<use data-text="0" xlink:href="#font_3_1" transform="matrix(5.9779589,0,0,-5.9778988,274.8252,85.304309)"/>
<use data-text="&#x2212;" xlink:href="#font_2_1" transform="matrix(5.9779589,0,0,-5.9778988,270.17289,65.1268)"/>
<use data-text="5" xlink:href="#font_3_6" transform="matrix(5.9779589,0,0,-5.9778988,274.82267,65.1268)"/>
<use data-text="5" xlink:href="#font_3_6" transform="matrix(5.9779589,0,0,-5.9778988,274.82267,25.021302)"/>
<use data-text="1" xlink:href="#font_3_2" transform="matrix(5.9779589,0,0,-5.9778988,271.896,4.843788)"/>
<use data-text="0" xlink:href="#font_3_1" transform="matrix(5.9779589,0,0,-5.9778988,274.8252,4.843788)"/>
<g clip-path="url(#clip_6)">
<path transform="matrix(.50003,0,0,-.500025,232.3311,83.62723)" stroke-width="1.59404" stroke-linecap="butt" stroke-miterlimit="10" stroke-linejoin="miter" fill="none" stroke="#0000ff" d="M0 82.31989 3.96655 82.38857 7.93312 82.46346 11.89967 82.54521 15.86624 82.63495 19.8328 82.734 23.79936 82.84373 27.76591 82.96585 31.73248 83.10298 35.69904 83.25777 39.6656 83.43387 43.63216 83.63603 47.59874 83.87065 51.5653 84.14609 55.53186 84.47409 59.49843 84.87108 63.46498 85.36168 67.43155 85.98352 71.3981 86.79663 75.36467 87.9061 79.33122 89.50995 83.29779 92.03284 87.26436 96.5822 91.23093 107.2378 95.1975 161.39702"/>
<path transform="matrix(.50003,0,0,-.500025,232.3311,83.62723)" stroke-width="1.59404" stroke-linecap="butt" stroke-miterlimit="10" stroke-linejoin="miter" fill="none" stroke="#0000ff" d="M99.08345 0 103.05 54.17213 107.01657 64.82933 110.98312 69.37871 114.94969 71.90158 118.91624 73.50511 122.88281 74.6148 126.84938 75.42801 130.81594 76.0497 134.78252 76.54047 138.74907 76.93745 142.71564 77.26544 146.68219 77.5409 150.64876 77.7755 154.61531 77.97768 158.58188 78.15378 162.54843 78.30856 166.515 78.44568 170.48157 78.5678 174.44812 78.67754 178.41469 78.77658 182.38126 78.86632 186.34783 78.94807 190.31438 79.02298 194.28095 79.09166"/>
</g>
<use data-text="D" xlink:href="#font_1_46" transform="matrix(11.955917,0,0,-11.955797,1.071743,201.10309)"/>
<path transform="matrix(.50003,0,0,-.500025,5.542511,197.0199)" stroke-width=".19925" stroke-linecap="butt" stroke-miterlimit="10" stroke-linejoin="miter" fill="none" stroke="#929292" d="M19.4266 71.84598V76.09782M58.27982 71.84598V76.09782M135.98625 71.84598V76.09782M174.83946 71.84598V76.09782"/>
<path transform="matrix(.50003,0,0,-.500025,5.542511,197.0199)" stroke-width=".19925" stroke-linecap="butt" stroke-miterlimit="10" stroke-linejoin="miter" fill="none" stroke="#929292" d="M95.00711 20.16905H99.25894M95.00711 47.07047H99.25894M95.00711 100.8733H99.25894M95.00711 127.77473H99.25894M95.00711 154.67615H99.25894"/>
<path transform="matrix(.50003,0,0,-.500025,5.542511,197.0199)" stroke-width=".3985" stroke-linecap="butt" stroke-miterlimit="10" stroke-linejoin="miter" fill="none" stroke="#000000" d="M0 73.9719H192.27355"/>
<path transform="matrix(.50003,0,0,-.500025,101.68505,160.0321)" d="M1.99252 0-1.19551 1.59401 0 0-1.19551-1.59401"/>
<path transform="matrix(.50003,0,0,-.500025,5.542511,197.0199)" stroke-width=".3985" stroke-linecap="butt" stroke-miterlimit="10" stroke-linejoin="miter" fill="none" stroke="#000000" d="M97.13303 0V159.40898"/>
<path transform="matrix(0,-.500025,-.50003,-0,54.11194,117.311428)" d="M1.99252 0-1.19551 1.59401 0 0-1.19551-1.59401"/>
<use data-text="&#x2212;" xlink:href="#font_2_1" transform="matrix(5.9779589,0,0,-5.9778988,11.468367,167.0394)"/>
<use data-text="4" xlink:href="#font_3_5" transform="matrix(5.9779589,0,0,-5.9778988,16.118147,167.0394)"/>
<use data-text="&#x2212;" xlink:href="#font_2_1" transform="matrix(5.9779589,0,0,-5.9778988,30.89603,167.0394)"/>
<use data-text="2" xlink:href="#font_3_3" transform="matrix(5.9779589,0,0,-5.9778988,35.54581,167.0394)"/>
<use data-text="2" xlink:href="#font_3_3" transform="matrix(5.9779589,0,0,-5.9778988,72.0765,167.0394)"/>
<use data-text="4" xlink:href="#font_3_5" transform="matrix(5.9779589,0,0,-5.9778988,91.504169,167.0394)"/>
<use data-text="&#x2212;" xlink:href="#font_2_1" transform="matrix(5.9779589,0,0,-5.9778988,40.453607,188.61197)"/>
<use data-text="4" xlink:href="#font_3_5" transform="matrix(5.9779589,0,0,-5.9778988,45.103387,188.61197)"/>
<use data-text="0" xlink:href="#font_3_1" transform="matrix(5.9779589,0,0,-5.9778988,48.032587,188.61197)"/>
<use data-text="&#x2212;" xlink:href="#font_2_1" transform="matrix(5.9779589,0,0,-5.9778988,40.453607,175.1608)"/>
<use data-text="2" xlink:href="#font_3_3" transform="matrix(5.9779589,0,0,-5.9778988,45.103387,175.1608)"/>
<use data-text="0" xlink:href="#font_3_1" transform="matrix(5.9779589,0,0,-5.9778988,48.032587,175.1608)"/>
<use data-text="2" xlink:href="#font_3_3" transform="matrix(5.9779589,0,0,-5.9778988,45.103384,148.50696)"/>
<use data-text="0" xlink:href="#font_3_1" transform="matrix(5.9779589,0,0,-5.9778988,48.03258,148.50696)"/>
<use data-text="4" xlink:href="#font_3_5" transform="matrix(5.9779589,0,0,-5.9778988,45.103384,135.05579)"/>
<use data-text="0" xlink:href="#font_3_1" transform="matrix(5.9779589,0,0,-5.9778988,48.03258,135.05579)"/>
<use data-text="6" xlink:href="#font_3_7" transform="matrix(5.9779589,0,0,-5.9778988,45.103384,121.60412)"/>
<use data-text="0" xlink:href="#font_3_1" transform="matrix(5.9779589,0,0,-5.9778988,48.03258,121.60412)"/>
<g clip-path="url(#clip_7)">
<path transform="matrix(.50003,0,0,-.500025,5.542511,197.0199)" stroke-width="1.59404" stroke-linecap="butt" stroke-miterlimit="10" stroke-linejoin="miter" fill="none" stroke="#0000ff" d="M0 79.35217 4.77568 79.2946 9.55138 79.23207 14.32709 79.16373 19.10278 79.08855 23.87848 79.00569 28.65419 78.9137 33.42989 78.81134 38.20558 78.69632 42.9813 78.56639 47.75699 78.4187 52.5327 78.24855 57.3084 78.05122 62.08409 77.81926 66.8598 77.54268 71.6355 77.20735 76.4112 76.79222 81.1869 76.26497 85.9626 75.5732 90.73831 74.62549 95.514 73.24768 100.2897 71.0609 105.06541 67.05728 109.84111 57.36162 114.6168 0"/>
<path transform="matrix(.50003,0,0,-.500025,5.542511,197.0199)" stroke-width="1.59404" stroke-linecap="butt" stroke-miterlimit="10" stroke-linejoin="miter" fill="none" stroke="#0000ff" d="M118.5023 161.4015 121.65912 111.4418 124.81595 99.68643 127.97276 94.43405 131.1296 91.45767 134.2864 89.54109 137.44324 88.20464 140.60007 87.21857 143.7569 86.46169 146.91371 85.86234 150.07053 85.37569 153.22736 84.9731 156.38419 84.63402 159.541 84.34508 162.69783 84.09518 165.85466 83.87767 169.01149 83.68614 172.16829 83.51665 175.32512 83.3652 178.48195 83.22908 181.63878 83.10641 184.7956 82.9949 187.95243 82.89336 191.10926 82.80042 194.26607 82.71486"/>
</g>
<use data-text="E" xlink:href="#font_1_49" transform="matrix(11.955917,0,0,-11.955797,114.95557,201.0911)"/>
<path transform="matrix(.50003,0,0,-.500025,118.93681,197.01938)" stroke-width=".19925" stroke-linecap="butt" stroke-miterlimit="10" stroke-linejoin="miter" fill="none" stroke="#929292" d="M0 78.63554V82.88756M48.56879 78.63554V82.88756M145.70639 78.63554V82.88756M194.27519 78.63554V82.88756"/>
<path transform="matrix(.50003,0,0,-.500025,118.93681,197.01938)" stroke-width=".19925" stroke-linecap="butt" stroke-miterlimit="10" stroke-linejoin="miter" fill="none" stroke="#929292" d="M95.01173 .22147H99.26344M95.01173 40.49152H99.26344M95.01173 121.03159H99.26344M95.01173 161.30164H99.26344"/>
<path transform="matrix(.50003,0,0,-.500025,118.93681,197.01938)" stroke-width=".3985" stroke-linecap="butt" stroke-miterlimit="10" stroke-linejoin="miter" fill="none" stroke="#000000" d="M0 80.76155H192.28186"/>
<path transform="matrix(.50003,0,0,-.500025,215.08351,156.63658)" d="M1.99252 0-1.19551 1.59401 0 0-1.19551-1.59401"/>
<path transform="matrix(.50003,0,0,-.500025,118.93681,197.01938)" stroke-width=".3985" stroke-linecap="butt" stroke-miterlimit="10" stroke-linejoin="miter" fill="none" stroke="#000000" d="M97.13759 0V159.40576"/>
<path transform="matrix(0,-.500025,-.50003,-0,167.50852,117.312519)" d="M1.99252 0-1.19551 1.59401 0 0-1.19551-1.59401"/>
<use data-text="&#x2212;" xlink:href="#font_2_1" transform="matrix(5.9779589,0,0,-5.9778988,115.14858,163.64421)"/>
<use data-text="2" xlink:href="#font_3_3" transform="matrix(5.9779589,0,0,-5.9778988,119.79836,163.64421)"/>
<use data-text="&#x2212;" xlink:href="#font_2_1" transform="matrix(5.9779589,0,0,-5.9778988,139.43454,163.64421)"/>
<use data-text="1" xlink:href="#font_3_2" transform="matrix(5.9779589,0,0,-5.9778988,144.08432,163.64421)"/>
<use data-text="1" xlink:href="#font_3_2" transform="matrix(5.9779589,0,0,-5.9778988,190.3311,163.64421)"/>
<use data-text="2" xlink:href="#font_3_3" transform="matrix(5.9779589,0,0,-5.9778988,214.61705,163.64421)"/>
<use data-text="&#x2212;" xlink:href="#font_2_1" transform="matrix(5.9779589,0,0,-5.9778988,153.8504,198.58596)"/>
<use data-text="2" xlink:href="#font_3_3" transform="matrix(5.9779589,0,0,-5.9778988,158.50019,198.58596)"/>
<use data-text="0" xlink:href="#font_3_1" transform="matrix(5.9779589,0,0,-5.9778988,161.42938,198.58596)"/>
<use data-text="&#x2212;" xlink:href="#font_2_1" transform="matrix(5.9779589,0,0,-5.9778988,153.8504,178.44995)"/>
<use data-text="1" xlink:href="#font_3_2" transform="matrix(5.9779589,0,0,-5.9778988,158.50019,178.44995)"/>
<use data-text="0" xlink:href="#font_3_1" transform="matrix(5.9779589,0,0,-5.9778988,161.42938,178.44995)"/>
<use data-text="1" xlink:href="#font_3_2" transform="matrix(5.9779589,0,0,-5.9778988,158.50019,138.42696)"/>
<use data-text="0" xlink:href="#font_3_1" transform="matrix(5.9779589,0,0,-5.9778988,161.42938,138.42696)"/>
<use data-text="2" xlink:href="#font_3_3" transform="matrix(5.9779589,0,0,-5.9778988,158.50019,118.29094)"/>
<use data-text="0" xlink:href="#font_3_1" transform="matrix(5.9779589,0,0,-5.9778988,161.42938,118.29094)"/>
<g clip-path="url(#clip_8)">
<path transform="matrix(.50003,0,0,-.500025,118.93681,197.01938)" stroke-width="1.59404" stroke-linecap="butt" stroke-miterlimit="10" stroke-linejoin="miter" fill="none" stroke="#0000ff" d="M0 75.47409 3.84499 75.35167 7.68997 75.21718 11.53496 75.06616 15.37997 74.89783 19.22496 74.70776 23.06995 74.49393 26.91496 74.25311 30.75995 73.97847 34.60493 73.66516 38.44995 73.30315 42.29494 72.88513 46.13992 72.39786 49.98494 71.82361 53.82993 71.13821 57.67493 70.30826 61.51993 69.28822 65.36491 68.00883 69.20992 66.36502 73.0549 64.18237 76.89992 61.1452 80.7449 56.65993 84.5899 49.38957 88.4349 35.65186 92.27989 0"/>
<path transform="matrix(.50003,0,0,-.500025,118.93681,197.01938)" stroke-width="1.59404" stroke-linecap="butt" stroke-miterlimit="10" stroke-linejoin="miter" fill="none" stroke="#0000ff" d="M101.99448 161.39829 105.83946 125.84387 109.68446 112.11621 113.52946 104.85512 117.37445 100.37306 121.21945 97.33952 125.06445 95.15407 128.90946 93.51106 132.75444 92.23332 136.59946 91.21465 140.44445 90.3856 144.28943 89.69977 148.13445 89.12476 151.97943 88.63712 155.82444 88.2194 159.66944 87.8587 163.51442 87.54512 167.35942 87.27065 171.20442 87.02917 175.04941 86.8157 178.89441 86.62625 182.7394 86.45738 186.5844 86.30649 190.4294 86.17102 194.27439 86.04941"/>
</g>
<use data-text="F" xlink:href="#font_1_54" transform="matrix(11.955917,0,0,-11.955797,228.51139,201.0911)"/>
<path transform="matrix(.50003,0,0,-.500025,232.3311,197.0199)" stroke-width=".19925" stroke-linecap="butt" stroke-miterlimit="10" stroke-linejoin="miter" fill="none" stroke="#929292" d="M19.42812 70.52802V74.77986M58.28438 70.52802V74.77986M135.99689 70.52802V74.77986M174.85315 70.52802V74.77986"/>
<path transform="matrix(.50003,0,0,-.500025,232.3311,197.0199)" stroke-width=".19925" stroke-linecap="butt" stroke-miterlimit="10" stroke-linejoin="miter" fill="none" stroke="#929292" d="M95.01462 32.49944H99.26663M95.01462 112.80844H99.26663M95.01462 152.96295H99.26663"/>
<path transform="matrix(.50003,0,0,-.500025,232.3311,197.0199)" stroke-width=".3985" stroke-linecap="butt" stroke-miterlimit="10" stroke-linejoin="miter" fill="none" stroke="#000000" d="M0 72.65395H192.28798"/>
<path transform="matrix(.50003,0,0,-.500025,328.48088,160.6911)" d="M1.99252 0-1.19551 1.59401 0 0-1.19551-1.59401"/>
<path transform="matrix(.50003,0,0,-.500025,232.3311,197.0199)" stroke-width=".3985" stroke-linecap="butt" stroke-miterlimit="10" stroke-linejoin="miter" fill="none" stroke="#000000" d="M97.14064 0V159.40248"/>
<path transform="matrix(0,-.500025,-.50003,-0,280.90434,117.314678)" d="M1.99252 0-1.19551 1.59401 0 0-1.19551-1.59401"/>
<use data-text="&#x2212;" xlink:href="#font_2_1" transform="matrix(5.9779589,0,0,-5.9778988,238.25746,167.69843)"/>
<use data-text="4" xlink:href="#font_3_5" transform="matrix(5.9779589,0,0,-5.9778988,242.90724,167.69843)"/>
<use data-text="&#x2212;" xlink:href="#font_2_1" transform="matrix(5.9779589,0,0,-5.9778988,257.68714,167.69843)"/>
<use data-text="2" xlink:href="#font_3_3" transform="matrix(5.9779589,0,0,-5.9778988,262.3369,167.69843)"/>
<use data-text="2" xlink:href="#font_3_3" transform="matrix(5.9779589,0,0,-5.9778988,298.87013,167.69843)"/>
<use data-text="4" xlink:href="#font_3_5" transform="matrix(5.9779589,0,0,-5.9778988,318.29978,167.69843)"/>
<use data-text="&#x2212;" xlink:href="#font_2_1" transform="matrix(5.9779589,0,0,-5.9778988,267.24623,182.44666)"/>
<use data-text="1" xlink:href="#font_3_2" transform="matrix(5.9779589,0,0,-5.9778988,271.896,182.44666)"/>
<use data-text="0" xlink:href="#font_3_1" transform="matrix(5.9779589,0,0,-5.9778988,274.8252,182.44666)"/>
<use data-text="1" xlink:href="#font_3_2" transform="matrix(5.9779589,0,0,-5.9778988,271.896,142.53917)"/>
<use data-text="0" xlink:href="#font_3_1" transform="matrix(5.9779589,0,0,-5.9778988,274.8252,142.53917)"/>
<use data-text="2" xlink:href="#font_3_3" transform="matrix(5.9779589,0,0,-5.9778988,271.896,122.46067)"/>
<use data-text="0" xlink:href="#font_3_1" transform="matrix(5.9779589,0,0,-5.9778988,274.8252,122.46067)"/>
<g clip-path="url(#clip_9)">
<path transform="matrix(.50003,0,0,-.500025,232.3311,197.0199)" stroke-width="1.59404" stroke-linecap="butt" stroke-miterlimit="10" stroke-linejoin="miter" fill="none" stroke="#0000ff" d="M0 55.2542 .22969 55.29836 .45941 55.34334 .68912 55.3883 .91882 55.43327 1.14853 55.47784 1.37825 55.52242 1.60796 55.5674 1.83766 55.61197 2.06737 55.65654 2.29709 55.70152 2.5268 55.7461 2.7565 55.79106 2.9862 55.83563 3.21593 55.8806 3.44563 55.92519 3.67534 55.96974 3.90506 56.01472 4.13477 56.0593 4.36449 56.10345 4.59418 56.14803 4.8239 56.19301 5.0536 56.23758 5.28333 56.28255 5.51302 56.32632 5.74274 56.37129 5.97244 56.41588 6.20216 56.46004 6.43185 56.50461 6.66158 56.54958 6.89128 56.59415 7.12099 56.63832 7.35071 56.68289 7.58041 56.72705 7.81013 56.77203 8.03983 56.81621 8.26955 56.86078 8.49925 56.90495 8.72897 56.94952 8.95866 56.99368 9.18839 57.03825 9.41809 57.08241 9.64781 57.1266 9.8775 57.17157 10.10722 57.21535 10.33693 57.26031 10.56665 57.30449 10.79636 57.34865 11.02606 57.39241 11.25578 57.43738 11.48549 57.48157 11.7152 57.52574 11.9449 57.5695 12.17462 57.61368 12.40433 57.65784 12.63403 57.70203 12.86374 57.74619 13.09346 57.79034 13.32315 57.83452 13.55287 57.87828 13.78258 57.92247 14.0123 57.96663 14.242 58.0108 14.47171 58.05496 14.70143 58.09914 14.93114 58.14333 15.16084 58.18709 15.39055 58.23083 15.62027 58.27461 15.84998 58.31879 16.07968 58.36296 16.30939 58.40672 16.53911 58.45088 16.76881 58.49466 16.99852 58.53844 17.22823 58.5826 17.45795 58.62596 17.68767 58.67014 17.91736 58.7135 18.14708 58.75768 18.37679 58.80104 18.6065 58.84521 18.8362 58.88898 19.06592 58.93234 19.29562 58.97652 19.52534 59.01988 19.75504 59.06325 19.98476 59.10701 20.21446 59.1512 20.44417 59.19455 20.67387 59.23831 20.9036 59.2817 21.1333 59.32506 21.363 59.36842 21.59273 59.4122 21.82243 59.45555 22.05215 59.49933 22.28185 59.5427 22.51157 59.58606 22.74127 59.62944 22.971 59.6732 23.20068 59.71616 23.4304 59.75954 23.66011 59.8029 23.88983 59.84665 24.11952 59.88922 24.34924 59.933 24.57895 59.97597 24.80867 60.01933 25.03838 60.06268 25.26808 60.10567 25.4978 60.14902 25.72751 60.192 25.95721 60.23495 26.18692 60.27832 26.41664 60.32129 26.64633 60.36426 26.87605 60.40762 27.10576 60.45058 27.33548 60.49356 27.56517 60.53651 27.79489 60.57948 28.0246 60.62204 28.25432 60.66501 28.48402 60.70798 28.71373 60.75095 28.94345 60.7939 29.17316 60.83647 29.40286 60.87904 29.63257 60.9216 29.86229 60.96497 30.092 61.00754 30.3217 61.0497 30.5514 61.09265 30.78113 61.13483 31.01083 61.17778 31.24054 61.22035 31.47025 61.26291 31.69997 61.30548 31.92969 61.34804 32.15938 61.3906 32.3891 61.43277 32.6188 61.47493 32.84853 61.5179 33.07822 61.56006 33.30794 61.60262 33.53764 61.64478 33.76735 61.68695 33.99706 61.7295 34.22678 61.77167 34.45648 61.81384 34.68619 61.85559 34.9159 61.89775 35.14561 61.93993 35.37534 61.98167 35.60503 62.02425 35.83475 62.0656 36.06445 62.10815 36.29417 62.14952 36.52386 62.1921 36.75359 62.23386 36.98329 62.2752 37.21301 62.31737 37.4427 62.35913 37.67242 62.4009 37.90213 62.44266 38.13185 62.48401 38.36154 62.52577 38.59126 62.56754 38.82097 62.6093 39.05069 62.6505 39.2804 62.69197 39.5101 62.73344 39.73982 62.77484 39.96951 62.81621 40.19923 62.85757 40.42894 62.8989 40.65866 62.94017 40.88835 62.98141 41.11807 63.02261 41.34778 63.06375 41.5775 63.10492 41.80719 63.146 42.03691 63.18703 42.26662 63.22803 42.49634 63.26895 42.72604 63.30988 42.95575 63.35083 43.18547 63.39162 43.41518 63.43246 43.64488 63.47322 43.87459 63.51393 44.10431 63.55461 44.33401 63.5952 44.56372 63.6358 44.79343 63.67635 45.02315 63.71672 45.25285 63.75731 45.48256 63.79771 45.71227 63.83803 45.94199 63.87834 46.1717 63.91866 46.4014 63.95888 46.63112 63.99904 46.86082 64.0392 47.09053 64.07927 47.32024 64.11926 47.54996 64.15926 47.77966 64.19916 48.00937 64.23904 48.23907 64.27888 48.4688 64.31866 48.6985 64.35834 48.9282 64.39806 49.15791 64.4377 49.38763 64.47719 49.61736 64.51675 49.84705 64.55618 50.07677 64.59557 50.30647 64.63493 50.5362 64.67427 50.76588 64.71347 50.9956 64.75262 51.22531 64.79169 51.45503 64.83081 51.68472 64.8698 51.91444 64.9087 52.14415 64.94762 52.37387 64.98645 52.60356 65.02515 52.83328 65.06383 53.063 65.1024 53.2927 65.14104 53.52242 65.1795 53.75212 65.21794 53.98184 65.25627 54.21153 65.29459 54.44125 65.33281 54.67096 65.37096 54.90068 65.4091 55.13037 65.4471 55.36009 65.485 55.5898 65.5229 55.81952 65.56073 56.04921 65.5984 56.27893 65.6361 56.50865 65.67365 56.73836 65.71115 56.96806 65.74857 57.19777 65.78592 57.42749 65.82323 57.6572 65.86041 57.8869 65.89754 58.11661 65.93452 58.34633 65.97151 58.57603 66.00833 58.80574 66.04515 59.03545 66.08185 59.26517 66.1184 59.49487 66.15494 59.72458 66.19139 59.95428 66.22775 60.184 66.26396 60.41371 66.30014 60.64342 66.3362 60.87314 66.37218 61.10284 66.40802 61.33255 66.44385 61.56226 66.4795 61.79198 66.51508 62.02168 66.55057 62.25139 66.58592 62.4811 66.6212 62.71082 66.65639 62.94052 66.6914 63.17023 66.72641 63.39993 66.76128 63.62965 66.79599 63.85938 66.83061 64.08907 66.86519 64.31879 66.89957 64.5485 66.9339 64.77821 66.96806 65.0079 67.00208 65.23763 67.03601 65.46733 67.06981 65.69705 67.10355 65.92674 67.13712 66.15646 67.17049 66.38617 67.20384 66.61588 67.23706 66.84558 67.27007 67.0753 67.30295 67.30502 67.33575 67.53471 67.36841 67.76443 67.40088 67.99414 67.43321 68.22386 67.46545 68.45355 67.49759 68.68327 67.52943 68.91298 67.56123 69.1427 67.59286 69.37239 67.62434 69.60211 67.65564 69.83182 67.68678 70.06154 67.71776 70.29123 67.74858 70.52095 67.77924 70.75067 67.80974 70.98038 67.84006 71.21008 67.87021 71.43979 67.90018 71.66951 67.92998 71.89922 67.95955 72.12892 67.98903 72.35863 68.01819 72.58835 68.0473 72.81804 68.0761 73.04776 68.10477 73.27747 68.1332 73.50719 68.1615 73.73688 68.18956 73.9666 68.21739 74.19632 68.24498 74.42603 68.27242 74.65573 68.29959 74.88544 68.32658 75.11516 68.35327 75.34486 68.3798 75.57457 68.40604 75.80428 68.4321 76.034 68.45787 76.2637 68.48341 76.49341 68.50871 76.72311 68.53369 76.95284 68.55855 77.18254 68.58301 77.41225 68.60725 77.64195 68.63118 77.87167 68.65483 78.1014 68.67824 78.33109 68.70139 78.5608 68.72423 78.79051 68.74677 79.02023 68.76895 79.24992 68.79088 79.47964 68.81236 79.70935 68.83368 79.93906 68.8546 80.16878 68.87517 80.39848 68.89548 80.6282 68.91536 80.8579 68.935 81.08762 68.95415 81.31732 68.9729 81.54704 68.99138 81.77673 69.00943 82.00645 69.02715 82.23618 69.04442 82.46588 69.06128 82.69559 69.07767 82.9253 69.09373 83.15501 69.10934 83.38472 69.12448 83.61443 69.1392 83.84413 69.1534 84.07385 69.1672 84.30357 69.1805 84.53326 69.1933 84.76299 69.20563 84.99269 69.21739 85.22241 69.22865 85.4521 69.23936 85.68182 69.24956 85.91153 69.25923 86.14124 69.26831 86.37096 69.27675 86.60066 69.28458 86.83038 69.29181 87.06007 69.29842 87.2898 69.30449 87.5195 69.30984 87.74922 69.31458 87.97891 69.31848 88.20863 69.32181 88.43834 69.3243 88.66806 69.32607 88.89777 69.32713 89.12747 69.3275 89.3572 69.32686 89.5869 69.32558 89.8166 69.32336 90.04631 69.32039 90.27603 69.31647 90.50574 69.3116 90.73544 69.30586 90.96516 69.2992 91.19487 69.29152 91.42459 69.2828 91.65428 69.27303 91.884 69.2622 92.11371 69.25032 92.34343 69.23727 92.57312 69.22307 92.80284 69.20776 93.03256 69.19115 93.26225 69.17336 93.49197 69.15416 93.72168 69.13368 93.9514 69.11176 94.18109 69.08842 94.41081 69.06364 94.64052 69.03741 94.87024 69.00952 95.09995 68.98007 95.32965 68.949 95.55937 68.91612 95.78908 68.88152 96.01878 68.84506 96.24849 68.8067 96.47821 68.76643 96.70792 68.72409 96.93762 68.67961 97.16734 68.63286 97.39705 68.58427 97.62677 68.53288 97.85646 68.47908 98.08618 68.42326 98.31589 68.36423 98.54561 68.30319 98.7753 68.23895 99.00502 68.1715 99.23474 68.10083 99.46443 68.02815 99.69415 67.95065 99.92386 67.87114 100.15358 67.78723 100.38327 67.69968 100.61299 67.60812 100.8427 67.51337 101.07242 67.41338 101.30211 67.30939 101.53183 67.20096 101.76155 67.08733 101.99126 66.96846 102.22096 66.84479 102.45067 66.71548 102.68039 66.58017 102.9101 66.43843 103.1398 66.29106 103.3695 66.13606 103.59923 65.97424 103.82895 65.80438 104.05864 65.62732 104.28836 65.44179 104.51807 65.24706 104.74779 65.04306 104.97748 64.82823 105.2072 64.60336 105.4369 64.36847 105.66661 64.12032 105.89633 63.85971 106.12604 63.58505 106.35576 63.29674 106.58545 62.99277 106.81517 62.67233 107.04488 62.33423 107.2746 61.97646 107.50429 61.599 107.73401 61.19867 107.96373 60.77463 108.19344 60.3245 108.42314 59.84706 108.65285 59.33871 108.88257 58.79663 109.11227 58.21921 109.34198 57.60162 109.57169 56.93988 109.8014 56.23076 110.03113 55.46782 110.26082 54.64626 110.49054 53.75925 110.72025 52.79836 110.94997 51.75513 111.17966 50.61916 111.40938 49.37717 111.63908 48.01555 111.8688 46.51657 112.0985 44.85779 112.32822 43.0147 112.55794 40.95558 112.78763 38.63947 113.01735 36.01776 113.24706 33.02626 113.47678 29.58463 113.70647 25.58243 113.93619 20.8731 114.1659 15.25548 114.39561 8.43846 114.62532 0"/>
<path transform="matrix(.50003,0,0,-.500025,232.3311,197.0199)" stroke-width="1.59404" stroke-linecap="butt" stroke-miterlimit="10" stroke-linejoin="miter" fill="none" stroke="#0000ff" d="M118.51158 161.395 118.6634 155.60512 118.81525 150.60187 118.96709 146.23587 119.11894 142.39389 119.27078 138.98719 119.4226 135.94548 119.57445 133.21578 119.7263 130.75109 119.87814 128.51529 120.02998 126.47786 120.18184 124.6155 120.33366 122.9045 120.4855 121.32924 120.63734 119.87404 120.7892 118.52646 120.94104 117.27364 121.09286 116.10713 121.2447 115.01855 121.39656 114.00104 121.5484 113.04697 121.70024 112.15112 121.85208 111.30869 122.00392 110.51523 122.15576 109.76555 122.3076 109.05882 122.45946 108.38905 122.6113 107.755 122.76312 107.15308 122.91496 106.58209 123.06682 106.0392 123.21866 105.52202 123.3705 105.02933 123.52234 104.5603 123.67418 104.11218 123.82602 103.68414 123.97786 103.27457 124.12971 102.88306 124.28154 102.50801 124.43338 102.14903 124.58524 101.8049 124.73708 101.47444 124.88892 101.15721 125.04076 100.85284 125.1926 100.55972 125.34444 100.27783 125.49628 100.0072 125.64812 99.74619 125.79997 99.49481 125.9518 99.25269 126.10364 99.01938 126.2555 98.79413 126.40733 98.57689 126.55917 98.36769 126.711 98.1645 126.86285 97.96936 127.0147 97.78062 127.16653 97.59793 127.31837 97.42084 127.47023 97.2506 127.62206 97.08514 127.7739 96.92534 127.92575 96.77034 128.07759 96.62056 128.22943 96.4756 128.38126 96.33466 128.53311 96.19853 128.68495 96.06602 128.83679 95.93874 128.98863 95.81425 129.14048 95.6942 129.29232 95.57733 129.44416 95.46451 129.59601 95.35408 129.74785 95.24768 129.89969 95.14409 130.05152 95.04369 130.20337 94.94612 130.35521 94.85176 130.50705 94.75981 130.6589 94.67067 130.81073 94.58392 130.96257 94.4996 131.11441 94.41768 131.26627 94.33818 131.4181 94.26108 131.56993 94.18639 131.72177 94.11331 131.87363 94.04224 132.02547 93.97357 132.1773 93.90692 132.32917 93.84187 132.48099 93.77924 132.63283 93.71779 132.78467 93.65836 132.93653 93.60014 133.08837 93.54431 133.24019 93.48932 133.39203 93.43631 133.54389 93.3849 133.69573 93.33473 133.84757 93.28574 133.9994 93.23834 134.15125 93.19258 134.30309 93.148 134.45493 93.10504 134.60678 93.06287 134.75862 93.02231 134.91045 92.98256 135.06229 92.94402 135.21414 92.90628 135.36598 92.87013 135.51782 92.8356 135.66967 92.80106 135.8215 92.76854 135.97335 92.73601 136.12519 92.70497 136.27704 92.6749 136.42887 92.64578 136.5807 92.61755 136.73256 92.59013 136.8844 92.5638 137.03624 92.53818 137.18808 92.51352 137.33992 92.48947 137.49176 92.46632 137.6436 92.44402 137.79544 92.42244 137.9473 92.4016 138.09912 92.38153 138.25096 92.36217 138.40282 92.34346 138.55466 92.32559 138.7065 92.30824 138.85832 92.29163 139.01018 92.2756 139.16202 92.26035 139.31386 92.2456 139.4657 92.23148 139.61756 92.21794 139.76938 92.205 139.92122 92.19267 140.07308 92.18091 140.22492 92.16963 140.37676 92.15904 140.52858 92.14883 140.68044 92.13925 140.83228 92.13013 140.98412 92.12149 141.13596 92.11342 141.2878 92.10576 141.43964 92.09856 141.59148 92.09193 141.74333 92.08572 141.89517 92.07993 142.04701 92.07454 142.19884 92.06966 142.3507 92.06525 142.50254 92.06122 142.65438 92.05757 142.80623 92.05435 142.95806 92.05147 143.1099 92.04906 143.26174 92.04697 143.41359 92.04536 143.56543 92.04399 143.71726 92.04298 143.8691 92.04247 144.02095 92.04227 144.17279 92.04239 144.32463 92.04283 144.47647 92.04364 144.62831 92.0448 144.78015 92.04616 144.93199 92.04797 145.08385 92.05005 145.23569 92.05243 145.38751 92.05519 145.53936 92.0582 145.69121 92.06151 145.84305 92.06503 145.99489 92.06892 146.14673 92.07306 146.29857 92.07756 146.45041 92.08229 146.60225 92.08731 146.7541 92.0925 146.90593 92.09805 147.05777 92.10378 147.20963 92.10985 147.36147 92.1161 147.5133 92.12257 147.66515 92.12932 147.81699 92.13643 147.96883 92.1436 148.12067 92.1511 148.2725 92.1588 148.42436 92.1667 148.57619 92.17487 148.72803 92.18321 148.87989 92.19185 149.03173 92.20059 149.18357 92.20958 149.33539 92.21883 149.48725 92.2283 149.63909 92.23785 149.79093 92.24767 149.94277 92.25769 150.09462 92.26793 150.24645 92.27832 150.39829 92.2889 150.55014 92.29965 150.70198 92.31062 150.85382 92.32178 151.00565 92.3331 151.1575 92.34459 151.30934 92.35623 151.46118 92.3681 151.61302 92.38013 151.76486 92.3923 151.9167 92.40463 152.06855 92.4171 152.2204 92.4298 152.37224 92.4426 152.52408 92.45561 152.6759 92.4687 152.82776 92.482 152.9796 92.4954 153.13144 92.50911 153.2833 92.5228 153.43512 92.53665 153.58696 92.5507 153.7388 92.56483 153.89066 92.57913 154.0425 92.59358 154.19432 92.60817 154.34616 92.62285 154.49802 92.63771 154.64986 92.6527 154.8017 92.66783 154.95355 92.68301 155.10538 92.69844 155.25722 92.71393 155.40906 92.72955 155.56092 92.74525 155.71276 92.7605 155.86458 92.77696 156.01642 92.79303 156.16828 92.80908 156.32012 92.82555 156.47196 92.84161 156.6238 92.85847 156.77564 92.87535 156.92748 92.89221 157.07932 92.90907 157.23117 92.92595 157.38301 92.94241 157.53484 92.96007 157.68668 92.97734 157.83853 92.99542 157.99037 93.01228 158.14221 93.03033 158.29405 93.04721 158.44589 93.06569 158.59774 93.08334 158.74958 93.10143 158.90143 93.11948 159.05326 93.13797 159.2051 93.15643 159.35695 93.1749 159.50879 93.19296 159.66063 93.21144 159.81247 93.23071 159.96431 93.2496 160.11615 93.26807 160.26799 93.28693 160.41983 93.30582 160.57169 93.32549 160.72351 93.34435 160.87535 93.36363 161.0272 93.3833 161.17905 93.40257 161.33089 93.42184 161.48271 93.44113 161.63457 93.46161 161.7864 93.48128 161.93825 93.50096 162.09009 93.52103 162.24195 93.54071 162.39377 93.56078 162.54561 93.58086 162.69747 93.60133 162.8493 93.62143 163.00115 93.64151 163.15297 93.66278 163.30483 93.68285 163.45667 93.70374 163.6085 93.72382 163.76035 93.74469 163.91219 93.76558 164.06403 93.78645 164.21587 93.80733 164.36772 93.82863 164.51956 93.8495 164.6714 93.87039 164.82323 93.89166 164.97509 93.91254 165.12693 93.93382 165.27877 93.9555 165.43062 93.97678 165.58245 93.99847 165.73429 94.01976 165.88613 94.04185 166.03798 94.06311 166.18982 94.0852 166.34165 94.10689 166.49349 94.12857 166.64534 94.15025 166.79718 94.17235 166.94902 94.19443 167.10088 94.21652 167.2527 94.23859 167.40454 94.26108 167.55638 94.28316 167.70824 94.30525 167.86008 94.32774 168.0119 94.34982 168.16374 94.37271 168.3156 94.3952 168.46744 94.41768 168.61928 94.44017 168.77112 94.46265 168.92296 94.48555 169.0748 94.50883 169.22664 94.53133 169.3785 94.55421 169.53034 94.5767 169.68216 94.59999 169.834 94.62328 169.98586 94.64577 170.1377 94.66905 170.28954 94.69234 170.44138 94.71564 170.59322 94.73892 170.74506 94.7622 170.8969 94.78549 171.04875 94.80879 171.20058 94.83208 171.35242 94.85536 171.50428 94.87946 171.65612 94.90276 171.80796 94.92644 171.9598 94.94972 172.11164 94.97382 172.26348 94.99751 172.41532 95.02081 172.56716 95.04489 172.71901 95.06859 172.87084 95.09229 173.02268 95.11717 173.17453 95.14046 173.32637 95.16496 173.47821 95.18866 173.63004 95.21274 173.78189 95.23724 173.93373 95.26093 174.08557 95.28502 174.23741 95.30952 174.38927 95.33401 174.54109 95.3577 174.69293 95.38219 174.84479 95.40709 174.99663 95.43158 175.14847 95.45607 175.3003 95.48058 175.45215 95.50507 175.60399 95.52956 175.75583 95.55406 175.90769 95.57814 176.05951 95.60304 176.21135 95.62794 176.36319 95.65244 176.51505 95.67773 176.66689 95.70222 176.81873 95.72754 176.97055 95.75203 177.1224 95.77692 177.27425 95.8014 177.42609 95.8267 177.57794 95.8516 177.72977 95.87689 177.8816 95.9018 178.03345 95.9271 178.1853 95.9524 178.33715 95.9773 178.48897 96.00258 178.64081 96.02748 178.79267 96.05278 178.9445 96.07848 179.09635 96.10338 179.24819 96.12866 179.40003 96.15436 179.55187 96.17966 179.7037 96.20537 179.85556 96.23027 180.0074 96.25595 180.15923 96.28125 180.31107 96.30696 180.46292 96.33264 180.61476 96.35835 180.7666 96.38365 180.91844 96.40935 181.07028 96.43504 181.22212 96.46074 181.37397 96.48645 181.52582 96.51215 181.67765 96.53784 181.82949 96.56355 181.98134 96.59004 182.13318 96.61574 182.28502 96.64145 182.43686 96.66714 182.5887 96.69363 182.74054 96.71935 182.89238 96.74504 183.04422 96.77155 183.19608 96.79724 183.3479 96.82333 183.49974 96.84985 183.6516 96.87555 183.80344 96.90204 183.95528 96.92734 184.1071 96.95384 184.25896 96.98035 184.4108 97.00684 184.56264 97.03255 184.71448 97.05865 184.86634 97.08514 185.01816 97.11165 185.17 97.13774 185.32186 97.16466 185.4737 97.19034 185.62554 97.21686 185.77736 97.24335 185.92922 97.27026 186.08106 97.29675 186.2329 97.32286 186.38474 97.34897 186.53658 97.37627 186.68842 97.40237 186.84026 97.42888 186.99211 97.45576 187.14395 97.48268 187.29579 97.50839 187.44762 97.53528 187.59947 97.56258 187.75131 97.58868 187.90316 97.61559 188.05501 97.6425 188.20684 97.66899 188.35868 97.6959 188.51052 97.72281 188.66237 97.7497 188.81421 97.77621 188.96604 97.8031 189.11788 97.83002 189.26973 97.85732 189.42157 97.88422 189.57341 97.91113 189.72527 97.93802 189.87709 97.96494 190.02893 97.99184 190.18077 98.01875 190.33263 98.04564 190.48447 98.07294 190.63629 98.10027 190.78813 98.12675 190.93999 98.15446 191.09183 98.18137 191.24367 98.20868 191.39551 98.23518 191.54735 98.26288 191.69919 98.28978 191.85103 98.3167 192.00289 98.3444 192.15473 98.37129 192.30655 98.3986 192.45839 98.42592 192.61025 98.45322 192.76209 98.48012 192.91393 98.50783 193.06577 98.53473 193.2176 98.56242 193.36945 98.58974 193.52129 98.61705 193.67314 98.64435 193.82497 98.67206 193.9768 98.69977 194.12866 98.72626 194.2805 98.75478"/>
</g>
</svg>
