<svg xmlns="http://www.w3.org/2000/svg" xmlns:xlink="http://www.w3.org/1999/xlink" version="1.1" width="252" height="98" viewBox="0 0 252 98">
<defs>
<path id="font_1_1" d="M.5629883 .39352418C.5279999 .38352967 .519989 .3545227 .519989 .33952333 .519989 .30752564 .54599 .30052186 .55999758 .30052186 .58898928 .30052186 .6179962 .32452394 .6179962 .3635254 .6179962 .41740418 .5589905 .44140626 .5079956 .44140626 .44198609 .44140626 .4019928 .3905182 .3909912 .371521 .37799073 .39649964 .33999635 .44140626 .2649994 .44140626 .1499939 .44140626 .08198547 .32252503 .08198547 .28749085 .08198547 .2824707 .085998538 .27345277 .099990848 .27345277 .11399841 .27345277 .116989139 .27946473 .11999512 .28848268 .14498902 .3695221 .21299744 .4084015 .2619934 .4084015 .31098939 .4084015 .32598878 .37652589 .32598878 .34352113 .32598878 .3315277 .32598878 .32252503 .31799317 .29148866 .29499818 .19825745 .272995 .10707092 .2679901 .095077518 .25299073 .05708313 .21699524 .023223877 .1749878 .023223877 .16899109 .023223877 .14099121 .023223877 .117996219 .038085939 .15699768 .051071168 .16099549 .08407593 .16099549 .09207153 .16099549 .11807251 .14099121 .13108826 .12098694 .13108826 .09298706 .13108826 .06298828 .10908508 .06298828 .06808472 .06298828 .011230469 .12599182-.009765625 .17298889-.009765625 .22999573-.009765625 .2709961 .029159546 .2899933 .060073854 .30999757 .018234253 .35798646-.009765625 .4149933-.009765625 .5329895-.009765625 .598999 .111083988 .598999 .14411927 .598999 .14611817 .59799197 .15815735 .5799866 .15815735 .56599429 .15815735 .56399539 .1511383 .5609894 .1421051 .5319977 .05508423 .46099855 .023223877 .4189911 .023223877 .3809967 .023223877 .35398866 .045074464 .35398866 .08708191 .35398866 .1060791 .35899354 .12808228 .36799623 .16316223L.3999939 .2935028C.4099884 .33251954 .4149933 .3505249 .43598939 .37452699 .44999696 .38952638 .47399903 .4084015 .5059967 .4084015 .5109863 .4084015 .54100039 .4084015 .5629883 .39352418Z"/>
<path id="font_2_1" d="M.42399598 .6221924C.42399598 .65219119 .4189911 .6582031 .3880005 .6582031H.37098695C.2889862 .59417727 .16299439 .59417727 .14099121 .59417727H.115997318V.5341797H.14099121C.16299439 .5341797 .22399903 .5361786 .2919922 .5561676V.05999756H.12298584V0C.17399597 .0039978029 .2999878 .0039978029 .35699464 .0039978029 .4119873 .0039978029 .5399933 .0039978029 .58898928 0V.05999756H.42399598V.6221924Z"/>
<path id="font_2_2" d="M.6159973 .2220459H.54499819C.54299929 .21003723 .5339966 .1459961 .5119934 .14299011 .49198915 .13899231 .44499208 .13899231 .41099549 .13899231H.272995C.2829895 .1459961 .30699159 .16200257 .31599427 .16900635 .48298646 .28208924 .46499635 .2600708 .5209961 .30110169 .57598879 .34213258 .6159973 .38916017 .6159973 .45819093 .6159973 .581192 .5009918 .6582031 .32699586 .6582031 .17098999 .6582031 .07598877 .6031952 .07598877 .5101929 .07598877 .45018006 .12399292 .42918397 .15499878 .42918397 .19299317 .42918397 .23498535 .45518495 .23498535 .5091858 .23498535 .53318789 .22599793 .55918887 .20199585 .57418826 .24198914 .5981903 .2889862 .5981903 .2999878 .5981903 .3999939 .5981903 .46299745 .53718569 .46299745 .45718385 .46299745 .37815858 .3999939 .31210328 .33699037 .26107789L.08999634 .06098938C.07598877 .049987794 .07598877 .04499817 .07598877 .024993897V0H.5799866L.6159973 .2220459Z"/>
<path id="font_2_3" d="M.2639923 .37425233C.24398804 .3732605 .23399353 .3672638 .23399353 .34825135 .23399353 .32226563 .24899292 .32226563 .2679901 .32226563H.32699586C.45599366 .32226563 .45999146 .22918701 .45999146 .18118286 .45999146 .1381836 .45700074 .0413208 .32998658 .0413208 .31399537 .0413208 .24499512 .0413208 .19198609 .076187137 .21199036 .08718872 .23199463 .111190799 .23199463 .14819336 .23199463 .19718933 .19599915 .23118592 .14898682 .23118592 .102996829 .23118592 .06498718 .20019531 .06498718 .14619446 .06498718 .04928589 .16499329-.013671875 .33399964-.013671875 .5499878-.013671875 .6269989 .093185428 .6269989 .18118286 .6269989 .24620056 .58099368 .32025147 .45498658 .3522644 .5219879 .3772583 .58898928 .4302063 .58898928 .51420596 .58898928 .59220889 .5049896 .6582031 .33699037 .6582031 .19198609 .6582031 .102996829 .59220889 .102996829 .50320437 .102996829 .45021058 .14299011 .4242096 .18099976 .4242096 .22099304 .4242096 .25898744 .45321656 .25898744 .5022125 .25898744 .5512085 .22099304 .57121279 .21299744 .57421877 .22898865 .58621218 .2709961 .6082001 .33198548 .6082001 .42099 .6082001 .43899537 .5622101 .43899537 .51620486 .43899537 .43721009 .38198854 .38024903 .32499696 .3772583L.2639923 .37425233Z"/>
<path id="font_2_4" d="M.6459961 .15483094V.21484375H.5279999V.6290283C.5279999 .6590271 .522995 .66503909 .49198915 .66503909H.45498658C.42799378 .66503909 .4269867 .6630249 .4139862 .6480255L.04598999 .21484375V.15483094H.3889923V.05999756H.2579956V0C.30699159 .0039978029 .4039917 .0039978029 .45700074 .0039978029 .5139923 .0039978029 .58999636 .0039978029 .6459961 0V.05999756H.5279999V.15483094H.6459961M.4039917 .54599V.21484375H.12298584L.4039917 .54599Z"/>
<path id="font_2_5" d="M.20799256 .49327088C.23098755 .49028016 .27799989 .48828126 .2869873 .48828126 .33599855 .48828126 .40299989 .49926759 .46598817 .53627017 .48399354 .5472717 .5629883 .60028079 .5629883 .63227847 .5629883 .65026858 .55400088 .6582794 .5419922 .6582794 .5399933 .6582794 .5379944 .6582794 .5239868 .65327456 .46099855 .63427737 .40098573 .6262665 .34399415 .6262665 .27598573 .6262665 .21798706 .63726809 .1619873 .65426638 .1499939 .6582794 .147995 .6582794 .1459961 .6582794 .125 .6582794 .125 .63827517 .125 .6242676V.32633973C.125 .30036927 .1269989 .29037477 .15899658 .29037477 .1789856 .29037477 .17999268 .29136659 .19099427 .30336 .22999573 .34632875 .2869873 .36132813 .34799195 .36132813 .46299745 .36132813 .46299745 .27038575 .46299745 .20741272 .46299745 .14341736 .46299745 .0413208 .31199647 .0413208 .269989 .0413208 .21398926 .053344728 .17999268 .08641052 .21998596 .10140991 .22799683 .13841248 .22799683 .15641785 .22799683 .19641114 .19898987 .23242188 .1519928 .23242188 .10998535 .23242188 .07598877 .20341492 .07598877 .15541077 .07598877 .05935669 .17298889-.013671875 .31498719-.013671875 .5189972-.013671875 .6159973 .089416507 .6159973 .20141602 .6159973 .30236817 .5389862 .412323 .35299684 .412323 .31498719 .412323 .2579956 .40731813 .20799256 .37931825V.49327088Z"/>
<path id="font_2_6" d="M.21699524 .34613038C.21699524 .4391632 .22898865 .4881897 .25498963 .52919009 .2899933 .581192 .35499574 .6082001 .41999818 .6082001 .44599916 .6082001 .47200013 .6021881 .4909973 .5891876 .48298646 .5851898 .44898988 .5661926 .44898988 .5221863 .44898988 .4771881 .48399354 .4501953 .5209961 .4501953 .5529938 .4501953 .59298709 .4711914 .59298709 .5241852 .59298709 .5871887 .5499878 .6582031 .4189911 .6582031 .22499085 .6582031 .06498718 .5431824 .06498718 .31814576 .06498718 .11627197 .1499939-.013671875 .35099793-.013671875 .519989-.013671875 .6269989 .074295047 .6269989 .20521546 .6269989 .2541809 .6159973 .31414796 .5529938 .3631134 .5039978 .4011078 .45799256 .42210389 .3619995 .42210389 .28799439 .42210389 .24299622 .3791046 .21699524 .34613038M.34999085 .0413208C.22399903 .0413208 .21998596 .1542511 .21998596 .21321106 .21998596 .30815126 .2769928 .3701172 .35798646 .3701172 .47499085 .3701172 .47499085 .2931671 .47499085 .20622254 .47499085 .120269779 .47499085 .0413208 .34999085 .0413208Z"/>
<path id="font_2_7" d="M.22299195 .6495209C.19898987 .65052798 .19599915 .66651919 .19499207 .6725311H.125L.083999637 .42248536H.15499878C.1559906 .4284973 .1659851 .49751283 .18798828 .5015259 .20899964 .5055237 .2630005 .5055237 .2999878 .5055237H.46699525L.38198854 .42048646C.31399537 .3474579 .23699951 .21240235 .23699951 .065338138 .23699951-.011672974 .2999878-.013671875 .30899049-.013671875 .32798768-.013671875 .34799195-.007675171 .36099244 .0063171389 .3809967 .028335572 .3809967 .046340944 .3809967 .07034302 .38198854 .26641847 .4099884 .3474579 .4850006 .42248536 .5079956 .4454956 .54299929 .47950746 .5549927 .49050904 .56999209 .5035248 .6589966 .5915222 .6619873 .598526 .6639862 .6035309 .6639862 .6055298 .6639862 .64453127H.4249878L.22299195 .6495209Z"/>
<path id="font_2_8" d="M.48199464 .36825563C.5389862 .3972473 .58898928 .43623353 .58898928 .5072174 .58898928 .65519717 .4059906 .6582031 .34899903 .6582031 .16799927 .6582031 .102996829 .5702057 .102996829 .47921754 .102996829 .4142456 .14498902 .36325074 .20098877 .33325196 .15299988 .31126405 .06498718 .27127076 .06498718 .16329956 .06498718 .00032043458 .2519989-.013671875 .34298707-.013671875 .548996-.013671875 .6269989 .08131409 .6269989 .18728638 .6269989 .29927064 .5219879 .34925843 .48199464 .36825563M.4149933 .40023805C.37399293 .4182434 .34298707 .43322755 .2849884 .46122743 .21998596 .4932251 .19599915 .5042114 .19599915 .5362091 .19599915 .5802002 .23199463 .6082001 .34199525 .6082001 .42999269 .6082001 .49598695 .5802002 .49598695 .5062103 .49598695 .4662323 .47599793 .42922975 .4149933 .40023805M.27398683 .29725648 .42900086 .22328186C.47698976 .20127869 .5189972 .18128968 .5189972 .13529969 .5189972 .060317995 .43399049 .0413208 .34899903 .0413208 .25898744 .0413208 .17298889 .0703125 .17298889 .16429138 .17298889 .24327088 .23699951 .28027345 .27398683 .29725648Z"/>
</defs>
<path transform="matrix(1.00009,0,0,-1.00006,1.4280167,87.24412)" stroke-width="1.19553" stroke-linecap="butt" stroke-miterlimit="10" stroke-linejoin="miter" fill="none" stroke="#000000" d="M0 0H239.99146"/>
<path transform="matrix(1.00009,0,0,-1.00006,241.44107,87.24412)" stroke-width=".9564" stroke-linecap="round" stroke-linejoin="round" fill="none" stroke="#000000" d="M-1.91284 2.55046C-1.75343 1.59402 0 .15938 .4782 0 0-.15938-1.75343-1.59402-1.91284-2.55046"/>
<use data-text="x" xlink:href="#font_1_1" transform="matrix(5.978138,0,0,-5.9779589,246.98012,94.40054)"/>
<path transform="matrix(1.00009,0,0,-1.00006,1.4280167,87.24412)" stroke-width=".3985" stroke-linecap="butt" stroke-miterlimit="10" stroke-linejoin="miter" fill="none" stroke="#000000" d="M28.3468 .99628V-.99628"/>
<use data-text="1" xlink:href="#font_2_1" transform="matrix(5.978138,0,0,-5.9779589,27.704382,96.27666)"/>
<path transform="matrix(1.00009,0,0,-1.00006,1.4280167,87.24412)" stroke-width=".3985" stroke-linecap="butt" stroke-miterlimit="10" stroke-linejoin="miter" fill="none" stroke="#000000" d="M56.69363 .99628V-.99628"/>
<use data-text="2" xlink:href="#font_2_2" transform="matrix(5.978138,0,0,-5.9779589,56.053934,96.27666)"/>
<path transform="matrix(1.00009,0,0,-1.00006,1.4280167,87.24412)" stroke-width=".3985" stroke-linecap="butt" stroke-miterlimit="10" stroke-linejoin="miter" fill="none" stroke="#000000" d="M85.04045 .99628V-.99628"/>
<use data-text="3" xlink:href="#font_2_3" transform="matrix(5.978138,0,0,-5.9779589,84.40349,96.27666)"/>
<path transform="matrix(1.00009,0,0,-1.00006,1.4280167,87.24412)" stroke-width=".3985" stroke-linecap="butt" stroke-miterlimit="10" stroke-linejoin="miter" fill="none" stroke="#000000" d="M113.38728 .99628V-.99628"/>
<use data-text="4" xlink:href="#font_2_4" transform="matrix(5.978138,0,0,-5.9779589,112.75204,96.27666)"/>
<path transform="matrix(1.00009,0,0,-1.00006,1.4280167,87.24412)" stroke-width=".3985" stroke-linecap="butt" stroke-miterlimit="10" stroke-linejoin="miter" fill="none" stroke="#000000" d="M141.7341 .99628V-.99628"/>
<use data-text="5" xlink:href="#font_2_5" transform="matrix(5.978138,0,0,-5.9779589,141.1016,96.27666)"/>
<path transform="matrix(1.00009,0,0,-1.00006,1.4280167,87.24412)" stroke-width=".3985" stroke-linecap="butt" stroke-miterlimit="10" stroke-linejoin="miter" fill="none" stroke="#000000" d="M170.08092 .99628V-.99628"/>
<use data-text="6" xlink:href="#font_2_6" transform="matrix(5.978138,0,0,-5.9779589,169.45114,96.27666)"/>
<path transform="matrix(1.00009,0,0,-1.00006,1.4280167,87.24412)" stroke-width=".3985" stroke-linecap="butt" stroke-miterlimit="10" stroke-linejoin="miter" fill="none" stroke="#000000" d="M198.42774 .99628V-.99628"/>
<use data-text="7" xlink:href="#font_2_7" transform="matrix(5.978138,0,0,-5.9779589,197.80069,96.27666)"/>
<path transform="matrix(1.00009,0,0,-1.00006,1.4280167,87.24412)" stroke-width=".3985" stroke-linecap="butt" stroke-miterlimit="10" stroke-linejoin="miter" fill="none" stroke="#000000" d="M226.77457 .99628V-.99628"/>
<use data-text="8" xlink:href="#font_2_8" transform="matrix(5.978138,0,0,-5.9779589,226.15024,96.27666)"/>
<path transform="matrix(1.00009,0,0,-1.00006,1.4280167,87.24412)" stroke-width=".3985" stroke-linecap="butt" stroke-miterlimit="10" stroke-linejoin="miter" fill="none" stroke="#000000" d="M14.17339 0H42.5202V28.3468H14.17339V0"/>
<g>
<path transform="matrix(1.00009,0,0,-1.00006,1.4280167,87.24412)" d="M14.17339 0V28.3468H42.5202V0ZM42.5202 28.3468" fill="#0000ff" fill-opacity=".2"/>
<path transform="matrix(1.00009,0,0,-1.00006,1.4280167,87.24412)" stroke-width=".3985" stroke-linecap="butt" stroke-miterlimit="10" stroke-linejoin="miter" fill="none" stroke="#000000" stroke-opacity=".2" d="M14.17339 0V28.3468H42.5202V0ZM42.5202 28.3468"/>
</g>
<path transform="matrix(1.00009,0,0,-1.00006,1.4280167,87.24412)" stroke-width=".3985" stroke-linecap="butt" stroke-miterlimit="10" stroke-linejoin="miter" fill="none" stroke="#000000" d="M14.17339 28.3468H42.5202V56.69362H14.17339V28.3468"/>
<g>
<path transform="matrix(1.00009,0,0,-1.00006,1.4280167,87.24412)" d="M14.17339 28.3468V56.69362H42.5202V28.3468ZM42.5202 56.69362" fill="#0000ff" fill-opacity=".2"/>
<path transform="matrix(1.00009,0,0,-1.00006,1.4280167,87.24412)" stroke-width=".3985" stroke-linecap="butt" stroke-miterlimit="10" stroke-linejoin="miter" fill="none" stroke="#000000" stroke-opacity=".2" d="M14.17339 28.3468V56.69362H42.5202V28.3468ZM42.5202 56.69362"/>
</g>
<path transform="matrix(1.00009,0,0,-1.00006,1.4280167,87.24412)" stroke-width=".3985" stroke-linecap="butt" stroke-miterlimit="10" stroke-linejoin="miter" fill="none" stroke="#000000" d="M42.5202 0H70.867V28.3468H42.5202V0"/>
<g>
<path transform="matrix(1.00009,0,0,-1.00006,1.4280167,87.24412)" d="M42.5202 0V28.3468H70.867V0ZM70.867 28.3468" fill="#0000ff" fill-opacity=".2"/>
<path transform="matrix(1.00009,0,0,-1.00006,1.4280167,87.24412)" stroke-width=".3985" stroke-linecap="butt" stroke-miterlimit="10" stroke-linejoin="miter" fill="none" stroke="#000000" stroke-opacity=".2" d="M42.5202 0V28.3468H70.867V0ZM70.867 28.3468"/>
</g>
<path transform="matrix(1.00009,0,0,-1.00006,1.4280167,87.24412)" stroke-width=".3985" stroke-linecap="butt" stroke-miterlimit="10" stroke-linejoin="miter" fill="none" stroke="#000000" d="M42.5202 28.3468H70.867V56.69362H42.5202V28.3468"/>
<g>
<path transform="matrix(1.00009,0,0,-1.00006,1.4280167,87.24412)" d="M42.5202 28.3468V56.69362H70.867V28.3468ZM70.867 56.69362" fill="#0000ff" fill-opacity=".2"/>
<path transform="matrix(1.00009,0,0,-1.00006,1.4280167,87.24412)" stroke-width=".3985" stroke-linecap="butt" stroke-miterlimit="10" stroke-linejoin="miter" fill="none" stroke="#000000" stroke-opacity=".2" d="M42.5202 28.3468V56.69362H70.867V28.3468ZM70.867 56.69362"/>
</g>
<path transform="matrix(1.00009,0,0,-1.00006,1.4280167,87.24412)" stroke-width=".3985" stroke-linecap="butt" stroke-miterlimit="10" stroke-linejoin="miter" fill="none" stroke="#000000" d="M42.5202 56.69362H70.867V85.04042H42.5202V56.69362"/>
<g>
<path transform="matrix(1.00009,0,0,-1.00006,1.4280167,87.24412)" d="M42.5202 56.69362V85.04042H70.867V56.69362ZM70.867 85.04042" fill="#0000ff" fill-opacity=".2"/>
<path transform="matrix(1.00009,0,0,-1.00006,1.4280167,87.24412)" stroke-width=".3985" stroke-linecap="butt" stroke-miterlimit="10" stroke-linejoin="miter" fill="none" stroke="#000000" stroke-opacity=".2" d="M42.5202 56.69362V85.04042H70.867V56.69362ZM70.867 85.04042"/>
</g>
<path transform="matrix(1.00009,0,0,-1.00006,1.4280167,87.24412)" stroke-width=".3985" stroke-linecap="butt" stroke-miterlimit="10" stroke-linejoin="miter" fill="none" stroke="#000000" d="M155.90744 0H184.25424V28.3468H155.90744V0"/>
<g>
<path transform="matrix(1.00009,0,0,-1.00006,1.4280167,87.24412)" d="M155.90744 0V28.3468H184.25424V0ZM184.25424 28.3468" fill="#0000ff" fill-opacity=".2"/>
<path transform="matrix(1.00009,0,0,-1.00006,1.4280167,87.24412)" stroke-width=".3985" stroke-linecap="butt" stroke-miterlimit="10" stroke-linejoin="miter" fill="none" stroke="#000000" stroke-opacity=".2" d="M155.90744 0V28.3468H184.25424V0ZM184.25424 28.3468"/>
</g>
</svg>
