<svg xmlns="http://www.w3.org/2000/svg" xmlns:xlink="http://www.w3.org/1999/xlink" version="1.1" width="149" height="259" viewBox="0 0 149 259">
<defs>
<path id="font_1_1" d="M.44198609 .69781497C.43499757 .7108154 .43299867 .7158203 .41600038 .7158203 .39898683 .7158203 .39698792 .7108154 .3899994 .69781497L.051986696 .019989014C.04699707 .010986328 .04699707 .008987427 .04699707 .0079956059 .04699707 0 .052993776 0 .068984989 0H.7630005C.7789917 0 .7849884 0 .7849884 .0079956059 .7849884 .008987427 .7849884 .010986328 .7799988 .019989014L.44198609 .69781497M.38398744 .61582949 .6529999 .07598877H.11399841L.38398744 .61582949Z"/>
<path id="font_2_1" d="M.2869873 .68333438C.2869873 .6843262 .2869873 .69433596 .27398683 .69433596 .25099183 .69433596 .17799378 .6863251 .1519928 .6843262 .14399719 .68333438 .1329956 .6823273 .1329956 .6643219 .1329956 .6523285 .14199829 .6523285 .15699768 .6523285 .20498657 .6523285 .20698548 .6453247 .20698548 .6353302L.20399475 .6153412 .05899048 .039260866C.054992677 .025253296 .054992677 .023254395 .054992677 .01725769 .054992677-.0057525637 .07499695-.0107421879 .083999637-.0107421879 .099990848-.0107421879 .115997318 .0012512207 .12098694 .015258789L.13999939 .091278079 .1619873 .18130493C.16799927 .2033081 .17399597 .22531128 .1789856 .24832154 .18099976 .25431825 .18899536 .28733827 .18998719 .29333497 .19299317 .30233766 .22399903 .35835267 .2579956 .38536073 .27999879 .4013672 .31098939 .42037965 .35398866 .42037965 .39698792 .42037965 .4079895 .3863678 .4079895 .35035707 .4079895 .29634095 .36999513 .18730164 .34599305 .12628174 .33799745 .103271488 .33299256 .091278079 .33299256 .0712738 .33299256 .024261475 .36799623-.0107421879 .4149933-.0107421879 .5089874-.0107421879 .54599 .13528443 .54599 .14329529 .54599 .1532898 .5369873 .1532898 .5339966 .1532898 .5239868 .1532898 .5239868 .15029907 .5189972 .13528443 .5039978 .08227539 .47200013 .011245728 .4169922 .011245728 .3999939 .011245728 .3929901 .021255494 .3929901 .044265748 .3929901 .0692749 .4019928 .09327698 .41099549 .11528015 .4269867 .15829468 .47200013 .2773285 .47200013 .3353424 .47200013 .4003601 .43199159 .4423828 .35699464 .4423828 .2939911 .4423828 .24598694 .41137696 .20899964 .36535646L.2869873 .68333438Z"/>
<path id="font_1_3" d="M.68699648 .32714845C.70199587 .32714845 .72099307 .32714845 .72099307 .34713746 .72099307 .36714173 .70199587 .36714173 .6879883 .36714173H.08898926C.07499695 .36714173 .055999757 .36714173 .055999757 .34713746 .055999757 .32714845 .07499695 .32714845 .08999634 .32714845H.68699648M.6879883 .13284302C.70199587 .13284302 .72099307 .13284302 .72099307 .15284729 .72099307 .17285156 .70199587 .17285156 .68699648 .17285156H.08999634C.07499695 .17285156 .055999757 .17285156 .055999757 .15284729 .055999757 .13284302 .07499695 .13284302 .08898926 .13284302H.6879883Z"/>
<path id="font_1_2" d="M.44898988 .20022583C.44898988 .3193512 .36698915 .41944886 .25898744 .41944886 .21099854 .41944886 .16799927 .40345765 .13198853 .36842347V.5637665C.1519928 .5577698 .18499756 .55078127 .21699524 .55078127 .33999635 .55078127 .4099884 .6417694 .4099884 .6547699 .4099884 .6607666 .40699769 .6657715 .3999939 .6657715 .39898683 .6657715 .39698792 .6657715 .3919983 .66278079 .37199403 .6537781 .32299806 .6337738 .2559967 .6337738 .21598816 .6337738 .16999817 .6407776 .12298584 .6617737 .114990238 .66477969 .11299133 .66477969 .11099243 .66477969 .100997928 .66477969 .100997928 .6567688 .100997928 .6407776V.34439088C.100997928 .32637025 .100997928 .31835938 .114990238 .31835938 .12199402 .31835938 .12399292 .32136537 .12799073 .32736207 .13899231 .3433838 .17599488 .39746095 .25698854 .39746095 .30899049 .39746095 .33399964 .35139466 .34199525 .33337403 .35798646 .29632569 .3600006 .25727845 .3600006 .20722962 .3600006 .17222595 .3600006 .11222839 .33599855 .07035828 .31199647 .031463624 .2749939 .0055389406 .22898865 .0055389406 .1559906 .0055389406 .09899902 .058380128 .08198547 .11723328 .084991458 .1162262 .08799744 .115234378 .09899902 .115234378 .13198853 .115234378 .14898682 .14022827 .14898682 .16423035 .14898682 .18823242 .13198853 .21322632 .09899902 .21322632 .084991458 .21322632 .049987794 .20622254 .049987794 .16023255 .049987794 .07434082 .11898804-.022460938 .23098755-.022460938 .34700013-.022460938 .44898988 .073349 .44898988 .20022583Z"/>
<path id="font_3_75" d="M.8129883 0V.0309906C.7609863 .0309906 .73599246 .0309906 .7350006 .061019899V.25221253C.7350006 .3383026 .7350006 .36932374 .70399478 .405365 .6899872 .42237855 .6569977 .4423828 .598999 .4423828 .5149994 .4423828 .47099305 .38233949 .45399476 .34429933 .43998719 .43138124 .3659973 .4423828 .32099916 .4423828 .24798584 .4423828 .20098877 .39935304 .17298889 .33729554V.4423828L.03199768 .43066407V.3996582C.101989749 .3996582 .10998535 .39266969 .10998535 .34370423V.07595825C.10998535 .0309906 .09899902 .0309906 .03199768 .0309906V0L.14498902 .0029907227 .25698854 0V.0309906C.18998719 .0309906 .1789856 .0309906 .1789856 .07595825V.25978089C.1789856 .36431886 .25 .42037965 .31399537 .42037965 .3769989 .42037965 .3880005 .36631776 .3880005 .30926515V.076034549C.3880005 .0309906 .3769989 .0309906 .30999757 .0309906V0L.4229889 .0029907227 .5349884 0V.0309906C.46798707 .0309906 .45700074 .0309906 .45700074 .076034549V.2602234C.45700074 .36431886 .5279999 .42037965 .59199526 .42037965 .6549988 .42037965 .66600039 .36631776 .66600039 .30926515V.076034549C.66600039 .0309906 .6549988 .0309906 .58799746 .0309906V0L.70098879 .0029907227 .8129883 0Z"/>
<path id="font_4_1" d="M.33299256 .66430667C.33399964 .66830447 .33599855 .67430117 .33599855 .67930606 .33599855 .6953125 .31599427 .6943054 .3039856 .69329836L.19198609 .6843109C.1749878 .68330386 .1619873 .682312 .1619873 .65930178 .1619873 .64331057 .1749878 .64331057 .18998719 .64331057 .21998596 .64331057 .22698975 .64131167 .23999024 .63630679 .23999024 .62431338 .23999024 .62231448 .23599243 .60632327L.09599304 .04724121C.09199524 .031234742 .09199524 .026229859 .09199524 .024230957 .09199524-.00077819827 .11199951-.009765625 .1269989-.009765625 .13699341-.009765625 .15499878-.0057678224 .16799927 .01322937 .17098999 .020233155 .17999268 .053237916 .18499756 .07424927 .18998719 .09326172 .20098877 .13928223 .20698548 .16429138 .21398926 .19030762 .21899414 .20831299 .22399903 .23132324 .22799683 .24632263 .23298645 .264328 .26098634 .3053589 .2939911 .3533783 .34599305 .4084015 .4229889 .4084015 .48599244 .4084015 .48599244 .35638429 .48599244 .33836366 .48599244 .27934266 .44400025 .17329407 .4249878 .12727356 .4189911 .11026001 .4119873 .09425354 .4119873 .07725525 .4119873 .026229859 .45799256-.009765625 .5130005-.009765625 .6139984-.009765625 .6639862 .12226868 .6639862 .14428711 .6639862 .14628601 .6629944 .15829468 .644989 .15829468 .6309967 .15829468 .6299896 .1532898 .6239929 .13427735 .60798647 .08226013 .5669861 .023223877 .5159912 .023223877 .49699403 .023223877 .4889984 .038238527 .4889984 .059249879 .4889984 .07925415 .49598695 .09625244 .5049896 .117263797 .519989 .15628052 .5649872 .2693329 .5649872 .32536317 .5649872 .4044037 .5079956 .44140626 .4269867 .44140626 .34799195 .44140626 .29499818 .39839173 .25498963 .3533783L.33299256 .66430667Z"/>
<path id="font_5_1" d="M.3959961 .6244507C.3959961 .64845278 .37799073 .66744998 .35198976 .66744998 .32398988 .66744998 .29100038 .6404419 .29100038 .6074524 .29100038 .5794525 .31298829 .5644531 .33399964 .5644531 .36698915 .5644531 .3959961 .5944519 .3959961 .6244507M.44299317 .14428711C.44299317 .15829468 .42599488 .15829468 .42199708 .15829468 .40499879 .15829468 .4039917 .15429688 .397995 .13528443 .3809967 .08027649 .33599855 .023254395 .28599549 .023254395 .2630005 .023254395 .2559967 .039260866 .2559967 .061264039 .2559967 .08227539 .26098634 .09327698 .2689972 .11227417 .2769928 .1322937 .2849884 .15229798 .2899933 .16629029 .2939911 .17530823 .33299256 .2683258 .34700013 .30433656 .35499574 .32435609 .36099244 .33735658 .36099244 .35435487 .36099244 .40237428 .31498719 .4423828 .2519989 .4423828 .14698792 .4423828 .09098816 .3143463 .09098816 .28733827 .09098816 .2733307 .10699463 .2733307 .11199951 .2733307 .1289978 .2733307 .12998963 .27833558 .1349945 .29333497 .15699768 .36436463 .20498657 .40837098 .24798584 .40837098 .2669983 .40837098 .27799989 .39736939 .27799989 .37036134 .27799989 .36636354 .27799989 .35336305 .27198792 .3343506 .2649994 .3163452 .21998596 .20930481 .20599365 .17530823 .19898987 .15829468 .19898987 .15629578 .18399048 .122283939 .1789856 .10827637 .17298889 .0942688 .17298889 .07727051 .17298889 .025253296 .22200012-.0107421879 .28199769-.0107421879 .3869934-.0107421879 .44299317 .119277957 .44299317 .14428711Z"/>
<path id="font_6_2" d="M.81799319 .3388672C.83200076 .3388672 .8549957 .3388672 .8549957 .3648529 .8549957 .39085389 .8279877 .39085389 .8129883 .39085389H.12098694C.10598755 .39085389 .07899475 .39085389 .07899475 .3648529 .07899475 .3388672 .101989749 .3388672 .115997318 .3388672H.81799319M.8129883 .10913086C.8279877 .10913086 .8549957 .10913086 .8549957 .13513184 .8549957 .16113281 .83200076 .16113281 .81799319 .16113281H.115997318C.101989749 .16113281 .07899475 .16113281 .07899475 .13513184 .07899475 .10913086 .10598755 .10913086 .12098694 .10913086H.8129883Z"/>
<path id="font_6_1" d="M.16999817 .5549774C.20298767 .54599 .23799134 .5419922 .27198792 .5419922 .2939911 .5419922 .34999085 .5419922 .41299439 .5769806 .42999269 .58699038 .49198915 .6279907 .49198915 .6490326 .49198915 .6620331 .48199464 .66503909 .47799684 .66503909 .47499085 .66503909 .47399903 .66503909 .46299745 .661026 .4269867 .6470337 .37599183 .63298037 .31098939 .63298037 .2619934 .63298037 .20799256 .64201357 .16299439 .6590271 .15299988 .6630249 .14898682 .66503909 .14498902 .66503909 .1309967 .66503909 .1309967 .6540375 .1309967 .6380005V.33787538C.1309967 .32086183 .1309967 .30885316 .14898682 .30885316 .1579895 .30885316 .16099549 .31285096 .16799927 .32086183 .19299317 .35289 .23699951 .38693238 .31498719 .38693238 .43798829 .38693238 .43798829 .23677063 .43798829 .20472718 .43798829 .16567993 .43499757 .10961914 .4019928 .068573 .37098695 .030532837 .32499696 .014511108 .28199769 .014511108 .21299744 .014511108 .14399719 .05255127 .11999512 .11061096 .16899109 .11161804 .1749878 .15066529 .1749878 .16267395 .1749878 .18971253 .1539917 .21372986 .12298584 .21372986 .11399841 .21372986 .07199097 .20872498 .07199097 .15867615 .07199097 .0665741 .15899658-.021484375 .2849884-.021484375 .42199708-.021484375 .5379944 .07557678 .5379944 .20072937 .5379944 .31484986 .44599916 .4189453 .31698609 .4189453 .2519989 .4189453 .20199585 .39793397 .16999817 .37091065V.5549774Z"/>
<path id="font_7_75" d="M.94999697 0V.038986207C.8809967 .038986207 .87098696 .038986207 .87098696 .08204651V.3022766C.87098696 .40438844 .8109894 .44140626 .71299746 .44140626 .6199951 .44140626 .5649872 .38838197 .54299929 .3503418 .519989 .44140626 .41799928 .44140626 .3899994 .44140626 .29899598 .44140626 .24299622 .39138795 .21899414 .34933473H.21798706V.44140626L.06298828 .43058778V.39160157C.1329956 .39160157 .14199829 .38458253 .14199829 .335495V.08206177C.14199829 .038986207 .13198853 .038986207 .06298828 .038986207V0C.069992069 .0009918213 .13798523 .0039978029 .18299866 .0039978029 .22799683 .0039978029 .2939911 .0009918213 .3039856 0V.038986207C.23498535 .038986207 .22499085 .038986207 .22499085 .08206177V.25836183C.22499085 .36836244 .31999208 .4093933 .3809967 .4093933 .44999696 .4093933 .46499635 .36634828 .46499635 .30429078V.08204651C.46499635 .038986207 .45498658 .038986207 .38598634 .038986207V0C.3929901 .0009918213 .46099855 .0039978029 .5059967 .0039978029 .5509949 .0039978029 .61698916 .0009918213 .6269989 0V.038986207C.55799868 .038986207 .5479889 .038986207 .5479889 .08204651V.25823976C.5479889 .36836244 .6429901 .4093933 .70399478 .4093933 .772995 .4093933 .7879944 .36634828 .7879944 .30429078V.08204651C.7879944 .038986207 .7779999 .038986207 .70899966 .038986207V0C.71598818 .0009918213 .7839966 .0039978029 .82899478 .0039978029 .8739929 .0039978029 .9399872 .0009918213 .94999697 0Z"/>
</defs>
<path transform="matrix(1,0,0,-1.00002,62.795999,257.3211)" stroke-width=".3985" stroke-linecap="butt" stroke-miterlimit="10" stroke-linejoin="miter" fill="none" stroke="#000000" d="M28.3468 85.04042H56.69362L51.02432 56.69362H34.01608L28.3468 85.04042"/>
<path transform="matrix(1,0,0,-1.00002,62.795999,257.3211)" stroke-width=".3985" stroke-linecap="butt" stroke-dasharray="2.98883,2.98883" stroke-miterlimit="10" stroke-linejoin="miter" fill="none" stroke="#000000" d="M28.3468 141.73404H56.69362L51.02432 113.38724H34.01608L28.3468 141.73404"/>
<path transform="matrix(1,0,0,-1.00002,62.795999,257.3211)" stroke-width=".3985" stroke-linecap="butt" stroke-miterlimit="10" stroke-linejoin="miter" fill="none" stroke="#000000" d="M42.5202 85.04042V255.12128H85.04042V0"/>
<path transform="matrix(1,0,0,-1.00002,62.795999,257.3211)" stroke-width=".3985" stroke-linecap="butt" stroke-miterlimit="10" stroke-linejoin="miter" fill="none" stroke="#000000" d="M24.3617 56.69362C21.37283 58.18797 19.38031 61.675 19.38031 66.65639V75.07765C19.38031 80.05904 17.38779 83.54607 14.39893 85.04042 17.38779 86.53477 19.38031 90.0218 19.38031 95.00319V103.42447C19.38031 108.40585 21.37283 111.89288 24.3617 113.38724"/>
<use data-text="&#x2206;" xlink:href="#font_1_1" transform="matrix(9.9626,0,0,-9.962799,35.164999,175.73847)"/>
<use data-text="h" xlink:href="#font_2_1" transform="matrix(9.9626,0,0,-9.962799,43.467,175.73847)"/>
<use data-text="=" xlink:href="#font_1_3" transform="matrix(9.9626,0,0,-9.962799,51.973997,175.73847)"/>
<use data-text="5" xlink:href="#font_1_2" transform="matrix(9.9626,0,0,-9.962799,62.48454,175.73847)"/>
<use data-text="m" xlink:href="#font_3_75" transform="matrix(9.9626,0,0,-9.962799,70.789,175.73847)"/>
<path transform="matrix(1,0,0,-1.00002,62.795999,257.3211)" stroke-width=".3985" stroke-linecap="butt" stroke-dasharray=".3985,1.99255" stroke-miterlimit="10" stroke-linejoin="miter" fill="none" stroke="#000000" d="M51.02432 56.69362H-28.3468"/>
<path transform="matrix(1,0,0,-1.00002,62.795999,257.3211)" stroke-width=".3985" stroke-linecap="butt" stroke-miterlimit="10" stroke-linejoin="miter" fill="none" stroke="#000000" d="M-28.3468 56.69362V56.69362"/>
<use data-text="h" xlink:href="#font_4_1" transform="matrix(5.9776,0,0,-5.97772,.814003,202.071)"/>
<use data-text="i" xlink:href="#font_5_1" transform="matrix(4.9813,0,0,-4.9813997,5.151001,203.33202)"/>
<use data-text="=" xlink:href="#font_6_2" transform="matrix(5.9776,0,0,-5.97772,10.429001,202.071)"/>
<use data-text="5" xlink:href="#font_6_1" transform="matrix(5.9776,0,0,-5.97772,18.134133,202.071)"/>
<use data-text="m" xlink:href="#font_7_75" transform="matrix(5.9776,0,0,-5.97772,24.286004,202.071)"/>
</svg>
