<svg xmlns="http://www.w3.org/2000/svg" xmlns:xlink="http://www.w3.org/1999/xlink" version="1.1" width="226" height="241" viewBox="0 0 226 241">
<defs>
<path id="font_1_1" d="M.44198609 .69781497C.43499757 .7108154 .43299867 .7158203 .41600038 .7158203 .39898683 .7158203 .39698792 .7108154 .3899994 .69781497L.051986696 .019989014C.04699707 .010986328 .04699707 .008987427 .04699707 .0079956059 .04699707 0 .052993776 0 .068984989 0H.7630005C.7789917 0 .7849884 0 .7849884 .0079956059 .7849884 .008987427 .7849884 .010986328 .7799988 .019989014L.44198609 .69781497M.38398744 .61582949 .6529999 .07598877H.11399841L.38398744 .61582949Z"/>
<path id="font_2_1" d="M.2869873 .68333438C.2869873 .6843262 .2869873 .69433596 .27398683 .69433596 .25099183 .69433596 .17799378 .6863251 .1519928 .6843262 .14399719 .68333438 .1329956 .6823273 .1329956 .6643219 .1329956 .6523285 .14199829 .6523285 .15699768 .6523285 .20498657 .6523285 .20698548 .6453247 .20698548 .6353302L.20399475 .6153412 .05899048 .039260866C.054992677 .025253296 .054992677 .023254395 .054992677 .01725769 .054992677-.0057525637 .07499695-.0107421879 .083999637-.0107421879 .099990848-.0107421879 .115997318 .0012512207 .12098694 .015258789L.13999939 .091278079 .1619873 .18130493C.16799927 .2033081 .17399597 .22531128 .1789856 .24832154 .18099976 .25431825 .18899536 .28733827 .18998719 .29333497 .19299317 .30233766 .22399903 .35835267 .2579956 .38536073 .27999879 .4013672 .31098939 .42037965 .35398866 .42037965 .39698792 .42037965 .4079895 .3863678 .4079895 .35035707 .4079895 .29634095 .36999513 .18730164 .34599305 .12628174 .33799745 .103271488 .33299256 .091278079 .33299256 .0712738 .33299256 .024261475 .36799623-.0107421879 .4149933-.0107421879 .5089874-.0107421879 .54599 .13528443 .54599 .14329529 .54599 .1532898 .5369873 .1532898 .5339966 .1532898 .5239868 .1532898 .5239868 .15029907 .5189972 .13528443 .5039978 .08227539 .47200013 .011245728 .4169922 .011245728 .3999939 .011245728 .3929901 .021255494 .3929901 .044265748 .3929901 .0692749 .4019928 .09327698 .41099549 .11528015 .4269867 .15829468 .47200013 .2773285 .47200013 .3353424 .47200013 .4003601 .43199159 .4423828 .35699464 .4423828 .2939911 .4423828 .24598694 .41137696 .20899964 .36535646L.2869873 .68333438Z"/>
<path id="font_1_5" d="M.68699648 .32714845C.70199587 .32714845 .72099307 .32714845 .72099307 .34713746 .72099307 .36714173 .70199587 .36714173 .6879883 .36714173H.08898926C.07499695 .36714173 .055999757 .36714173 .055999757 .34713746 .055999757 .32714845 .07499695 .32714845 .08999634 .32714845H.68699648M.6879883 .13284302C.70199587 .13284302 .72099307 .13284302 .72099307 .15284729 .72099307 .17285156 .70199587 .17285156 .68699648 .17285156H.08999634C.07499695 .17285156 .055999757 .17285156 .055999757 .15284729 .055999757 .13284302 .07499695 .13284302 .08898926 .13284302H.6879883Z"/>
<path id="font_1_3" d="M.2899933 .35191346C.37199403 .37893678 .42999269 .4490509 .42999269 .52809146 .42999269 .6100464 .34199525 .6660156 .24598694 .6660156 .14498902 .6660156 .068984989 .60606387 .068984989 .53009036 .068984989 .49710084 .09098816 .47808839 .11999512 .47808839 .15098572 .47808839 .17098999 .50009158 .17098999 .5290985 .17098999 .57910159 .12399292 .57910159 .10899353 .57910159 .13999939 .62802127 .20599365 .64100649 .24198914 .64100649 .2829895 .64100649 .33799745 .6190338 .33799745 .5290985 .33799745 .51708987 .33599855 .45906068 .30999757 .4149933 .27999879 .36691285 .24598694 .36390687 .22099304 .36291505 .21299744 .36190797 .18899536 .35990907 .18199158 .35990907 .17399597 .35890199 .16699219 .35791017 .16699219 .3479004 .16699219 .33691407 .17399597 .33691407 .19099427 .33691407H.23498535C.31698609 .33691407 .35398866 .2686615 .35398866 .17037964 .35398866 .034469606 .2849884 .0055389406 .24099732 .0055389406 .19799805 .0055389406 .12298584 .022491456 .08799744 .08137512 .12298584 .07637024 .1539917 .09837341 .1539917 .1363678 .1539917 .17237854 .1269989 .19238281 .09799194 .19238281 .07398987 .19238281 .041992189 .17837525 .041992189 .1343689 .041992189 .043441774 .1349945-.022460938 .24398804-.022460938 .3659973-.022460938 .45700074 .06838989 .45700074 .17037964 .45700074 .252594 .3939972 .33088685 .2899933 .35191346Z"/>
<path id="font_1_2" d="M.45999146 .31976319C.45999146 .39982606 .45498658 .47988893 .41999818 .5539398 .37399293 .65000918 .2919922 .6660156 .25 .6660156 .18998719 .6660156 .116989139 .64001467 .07598877 .54693606 .04399109 .47789 .038986207 .39982606 .038986207 .31976319 .038986207 .24472046 .042999269 .15464783 .083999637 .07859802 .1269989-.0024719239 .19999695-.022460938 .24899292-.022460938 .30299378-.022460938 .3789978-.0014648438 .4229889 .09359741 .45498658 .16265869 .45999146 .2407074 .45999146 .31976319M.24899292-.00047302247C.20999146-.00047302247 .15098572 .024551392 .1329956 .12062073 .12199402 .18066406 .12199402 .2727356 .12199402 .3317871 .12199402 .39582826 .12199402 .46188355 .12998963 .5159149 .14898682 .63500979 .22399903 .64401248 .24899292 .64401248 .28199769 .64401248 .34799195 .6259918 .36698915 .52693179 .3769989 .47088624 .3769989 .39482118 .3769989 .3317871 .3769989 .25672914 .3769989 .18867493 .3659973 .12461853 .35099793 .029556275 .2939911-.00047302247 .24899292-.00047302247Z"/>
<path id="font_3_66" d="M.24699402 0V.0309906C.18099976 .0309906 .1769867 .035995485 .1769867 .075042728V.4423828L.036987306 .43066407V.3996582C.101989749 .3996582 .11099243 .3936615 .11099243 .3447113V.07595825C.11099243 .0309906 .099990848 .0309906 .032989503 .0309906V0L.14299011 .0029907227C.17799378 .0029907227 .21299744 .0009918213 .24699402 0M.19198609 .603775C.19198609 .6307678 .16899109 .6567688 .13899231 .6567688 .10499573 .6567688 .084991458 .6287689 .084991458 .603775 .084991458 .57676699 .10798645 .55078127 .13798523 .55078127 .17199707 .55078127 .19198609 .5787811 .19198609 .603775Z"/>
<path id="font_3_77" d="M.5349884 0V.0309906C.48298646 .0309906 .45799256 .0309906 .45700074 .061019899V.25221253C.45700074 .3383026 .45700074 .36932374 .42599488 .405365 .4119873 .42237855 .3789978 .4423828 .32099916 .4423828 .24798584 .4423828 .20098877 .39935304 .17298889 .33729554V.4423828L.03199768 .43066407V.3996582C.101989749 .3996582 .10998535 .39266969 .10998535 .34370423V.07595825C.10998535 .0309906 .09899902 .0309906 .03199768 .0309906V0L.14498902 .0029907227 .25698854 0V.0309906C.18998719 .0309906 .1789856 .0309906 .1789856 .07595825V.25978089C.1789856 .36431886 .25 .42037965 .31399537 .42037965 .3769989 .42037965 .3880005 .36631776 .3880005 .30926515V.076034549C.3880005 .0309906 .3769989 .0309906 .30999757 .0309906V0L.4229889 .0029907227 .5349884 0Z"/>
<path id="font_4_3" d="M.28399659 .29953004C.2869873 .30451966 .30999757 .34951783 .34899903 .38052369 .36099244 .3885193 .3899994 .4084015 .43598939 .4084015 .44499208 .4084015 .47698976 .4084015 .5029907 .39352418 .47698976 .38452149 .46199037 .3615265 .46199037 .33952333 .46199037 .30752564 .48799134 .30052186 .5019989 .30052186 .5309906 .30052186 .55999758 .32452394 .55999758 .3635254 .55999758 .4163971 .5019989 .44140626 .43798829 .44140626 .4119873 .44140626 .35099793 .4393921 .2899933 .36853028 .2749939 .42140199 .22099304 .44140626 .17999268 .44140626 .13699341 .44140626 .11299133 .4123993 .09799194 .3885193 .07598877 .35151673 .06098938 .29452516 .06098938 .28851319 .06098938 .27749635 .069992069 .27349855 .07899475 .27349855 .09498596 .27349855 .09599304 .28050233 .100997928 .29652406 .11999512 .3735199 .14399719 .4084015 .1769867 .4084015 .20799256 .4084015 .21299744 .3795166 .21299744 .3585205 .21299744 .34152223 .20298767 .30152894 .19599915 .27349855 .18899536 .24647522 .1789856 .20542908 .17399597 .18341065 .16699219 .15837097 .16099549 .13235474 .1539917 .10733032 .14698792 .07929993 .1349945 .029251099 .1349945 .023239136 .1349945 .0012207031 .1519928-.009765625 .16999817-.009765625 .18998719-.009765625 .20899964 .0042266848 .21499634 .024246216 .21798706 .03224182 .25498963 .18341065 .26098634 .2064209L.28399659 .29953004Z"/>
<path id="font_5_1" d="M.397995 .63591006C.397995 .6660156 .394989 .6660156 .3619995 .6660156 .29100038 .6016083 .17999268 .6016083 .1599884 .6016083H.14299011V.5576172H.1599884C.18299866 .5576172 .24798584 .5606079 .30599977 .58561709V.08596802C.30599977 .054977418 .30599977 .04399109 .19999695 .04399109H.1499939V0C.20498657 .0039978029 .2939911 .0039978029 .35198976 .0039978029 .4099884 .0039978029 .49899293 .0039978029 .55400088 0V.04399109H.5039978C.397995 .04399109 .397995 .054977418 .397995 .08596802V.63591006Z"/>
<path id="font_6_3" d="M.81799319 .3388672C.83200076 .3388672 .8549957 .3388672 .8549957 .3648529 .8549957 .39085389 .8279877 .39085389 .8129883 .39085389H.12098694C.10598755 .39085389 .07899475 .39085389 .07899475 .3648529 .07899475 .3388672 .101989749 .3388672 .115997318 .3388672H.81799319M.8129883 .10913086C.8279877 .10913086 .8549957 .10913086 .8549957 .13513184 .8549957 .16113281 .83200076 .16113281 .81799319 .16113281H.115997318C.101989749 .16113281 .07899475 .16113281 .07899475 .13513184 .07899475 .10913086 .10598755 .10913086 .12098694 .10913086H.8129883Z"/>
<path id="font_6_1" d="M.35899354 .6349335C.35899354 .66503909 .35499574 .66503909 .32499696 .66503909 .25898744 .60058596 .15699768 .60058596 .12098694 .60058596V.5615845C.14698792 .5615845 .21299744 .5615845 .272995 .58958438V.08496094C.272995 .051986696 .272995 .038986207 .16999817 .038986207H.1269989V0C.18199158 .0039978029 .2599945 .0039978029 .31599427 .0039978029 .37199403 .0039978029 .44999696 .0039978029 .5049896 0V.038986207H.46199037C.35899354 .038986207 .35899354 .051986696 .35899354 .08496094V.6349335Z"/>
<path id="font_6_2" d="M.16999817 .5549774C.20298767 .54599 .23799134 .5419922 .27198792 .5419922 .2939911 .5419922 .34999085 .5419922 .41299439 .5769806 .42999269 .58699038 .49198915 .6279907 .49198915 .6490326 .49198915 .6620331 .48199464 .66503909 .47799684 .66503909 .47499085 .66503909 .47399903 .66503909 .46299745 .661026 .4269867 .6470337 .37599183 .63298037 .31098939 .63298037 .2619934 .63298037 .20799256 .64201357 .16299439 .6590271 .15299988 .6630249 .14898682 .66503909 .14498902 .66503909 .1309967 .66503909 .1309967 .6540375 .1309967 .6380005V.33787538C.1309967 .32086183 .1309967 .30885316 .14898682 .30885316 .1579895 .30885316 .16099549 .31285096 .16799927 .32086183 .19299317 .35289 .23699951 .38693238 .31498719 .38693238 .43798829 .38693238 .43798829 .23677063 .43798829 .20472718 .43798829 .16567993 .43499757 .10961914 .4019928 .068573 .37098695 .030532837 .32499696 .014511108 .28199769 .014511108 .21299744 .014511108 .14399719 .05255127 .11999512 .11061096 .16899109 .11161804 .1749878 .15066529 .1749878 .16267395 .1749878 .18971253 .1539917 .21372986 .12298584 .21372986 .11399841 .21372986 .07199097 .20872498 .07199097 .15867615 .07199097 .0665741 .15899658-.021484375 .2849884-.021484375 .42199708-.021484375 .5379944 .07557678 .5379944 .20072937 .5379944 .31484986 .44599916 .4189453 .31698609 .4189453 .2519989 .4189453 .20199585 .39793397 .16999817 .37091065V.5549774Z"/>
<path id="font_7_66" d="M.29299928 0V.038986207C.23098755 .038986207 .22200012 .038986207 .22200012 .08103943V.44140626L.067993167 .43058778V.39160157C.13398743 .39160157 .14299011 .38459779 .14299011 .33558656V.082595828C.14299011 .038986207 .1329956 .038986207 .06399536 .038986207V0L.18099976 .0039978029C.19099427 .0039978029 .2669983 .0019989014 .29299928 0M.23599243 .60112C.23599243 .6331177 .20999146 .6611328 .17599488 .6611328 .13899231 .6611328 .114990238 .63012698 .114990238 .60112 .114990238 .5691223 .14099121 .54112246 .1749878 .54112246 .21199036 .54112246 .23599243 .5721283 .23599243 .60112Z"/>
<path id="font_7_77" d="M.6259918 0V.038986207C.5569916 .038986207 .5469971 .038986207 .5469971 .08204651V.3022766C.5469971 .40039063 .4909973 .44140626 .3899994 .44140626 .3019867 .44140626 .24699402 .39538575 .21798706 .34733583V.44140626L.06298828 .43058778V.39160157C.1329956 .39160157 .14199829 .38458253 .14199829 .335495V.08206177C.14199829 .038986207 .13198853 .038986207 .06298828 .038986207V0C.069992069 .0009918213 .13798523 .0039978029 .18299866 .0039978029 .22799683 .0039978029 .2939911 .0009918213 .3039856 0V.038986207C.23498535 .038986207 .22499085 .038986207 .22499085 .08206177V.25836183C.22499085 .36836244 .31900025 .4093933 .3809967 .4093933 .44799806 .4093933 .46398927 .36735536 .46398927 .3052826V.08204651C.46398927 .038986207 .45399476 .038986207 .3849945 .038986207V0C.3919983 .0009918213 .45999146 .0039978029 .5049896 .0039978029 .5499878 .0039978029 .6159973 .0009918213 .6259918 0Z"/>
<path id="font_5_2" d="M.58898928 .19296265H.5469971C.5439911 .17396546 .5339966 .11198425 .5179901 .101989749 .5099945 .09599304 .42599488 .09599304 .41099549 .09599304H.21499634C.2809906 .14497376 .35499574 .20095825 .4149933 .24093628 .5049896 .30291749 .58898928 .36090089 .58898928 .46687318 .58898928 .59495547 .46798707 .6660156 .32499696 .6660156 .18998719 .6660156 .09098816 .58795168 .09098816 .48986817 .09098816 .4378662 .1349945 .42886354 .14898682 .42886354 .17599488 .42886354 .20799256 .4468689 .20799256 .48786927 .20799256 .52386477 .18199158 .543869 .15098572 .546875 .1789856 .59194949 .23699951 .6220093 .3039856 .6220093 .40098573 .6220093 .48199464 .5639038 .48199464 .4658661 .48199464 .3818817 .42399598 .31791688 .34700013 .2529297L.102996829 .04598999C.09298706 .036987306 .09199524 .036987306 .09098816 .02999878V0H.55599978L.58898928 .19296265Z"/>
<path id="font_4_1" d="M.20999146 .082977298C.20098877 .04698181 .19898987 .039993287 .12399292 .039993287 .101989749 .039993287 .099990848 .039993287 .09599304 .036987306 .09098816 .032989503 .08699036 .019989014 .08699036 .01399231 .08999634 0 .09899902 0 .11898804 0H.526001C.69898989 0 .83499148 .112960819 .83499148 .21292115 .83499148 .27488709 .7809906 .3408661 .6559906 .35786439 .7709961 .3758545 .8849945 .4487915 .8849945 .53970339 .8849945 .6116333 .80599978 .6826172 .6649933 .6826172H.28199769C.2630005 .6826172 .24798584 .6826172 .24798584 .65760806 .24798584 .64260867 .2630005 .64260867 .2809906 .64260867 .29899598 .64260867 .32398988 .64260867 .34498597 .6356201 .34498597 .6256256 .34498597 .6196289 .34098817 .6036377L.20999146 .082977298M.37399293 .3718567 .43299867 .6086426C.44099427 .64060977 .44198609 .64260867 .48399354 .64260867H.6489868C.7529907 .64260867 .7829895 .57966616 .7829895 .53770449 .7829895 .45578004 .67900088 .3718567 .55599978 .3718567H.37399293M.32598878 .039993287C.30699159 .039993287 .30499269 .039993287 .29299928 .04298401L.36499024 .3388672H.58299258C.70899966 .3388672 .7299957 .2578888 .7299957 .21791077 .7299957 .12194824 .6239929 .039993287 .5 .039993287H.32598878Z"/>
<path id="font_4_2" d="M.8889923 .6750946C.8909912 .6840973 .8919983 .6880951 .8919983 .690094 .8919983 .6920929 .8909912 .70410159 .8769989 .70410159 .86898806 .70410159 .8679962 .7030945 .8580017 .6920929L.7829895 .6140442C.72898867 .6810913 .6559906 .70410159 .58399966 .70410159 .32998658 .70410159 .084991458 .48994447 .084991458 .2667389 .084991458 .094573978 .22499085-.021484375 .41099549-.021484375 .5149994-.021484375 .60598757 .021514893 .6649933 .06755066 .7639923 .1466217 .7799988 .23570252 .7799988 .2407074 .7799988 .25071717 .7709961 .25473023 .7619934 .25473023 .75 .25473023 .74598696 .25071717 .7429962 .2407074 .69499209 .08456421 .5379944 .018508912 .4269867 .018508912 .35299684 .018508912 .18998719 .048538209 .18998719 .2387085 .18998719 .27874757 .19898987 .41687013 .30899049 .5379791 .3619995 .59703066 .46899415 .664093 .59399417 .664093 .72299197 .664093 .7899933 .5720062 .7899933 .46691896 .7899933 .4499054 .7869873 .43188478 .7869873 .42988587 .7869873 .41487123 .8019867 .41487123 .8069916 .41487123 .81999209 .41487123 .82499697 .41586305 .8299866 .43688966L.8889923 .6750946Z"/>
<path id="font_8_1" d="M.3600006 .46505738C.36099244 .46606446 .36999513 .48506166 .36999513 .50006106 .36999513 .5360565 .33799745 .5590515 .30799867 .5590515 .2669983 .5590515 .2559967 .5280609 .25099183 .5130615L.09700012 .080078128C.09298706 .06808472 .09298706 .065078739 .09298706 .064071658 .09298706 .048080446 .1349945 .038085939 .13598633 .038085939 .14498902 .038085939 .14698792 .04307556 .15299988 .05508423L.3600006 .46505738Z"/>
<path id="font_1_4" d="M.13198853 .327713V.35173036C.13198853 .6047821 .2559967 .64100649 .30699159 .64100649 .33099366 .64100649 .37298585 .634964 .394989 .6007538 .37998963 .6007538 .33999635 .6007538 .33999635 .5557556 .33999635 .524765 .3639984 .5097656 .38598634 .5097656 .4019928 .5097656 .43199159 .51875308 .43199159 .5577545 .43199159 .6178589 .3880005 .6660156 .30499269 .6660156 .1769867 .6660156 .041992189 .5367584 .041992189 .31570436 .041992189 .048553468 .1579895-.022460938 .25099183-.022460938 .3619995-.022460938 .45700074 .07156372 .45700074 .2036438 .45700074 .33070375 .36799623 .4267578 .25698854 .4267578 .18899536 .4267578 .1519928 .37573243 .13198853 .327713M.25099183 .0055389406C.18798828 .0055389406 .1579895 .06556702 .1519928 .080566409 .13398743 .127594 .13398743 .2076416 .13398743 .22564698 .13398743 .30369569 .1659851 .40374757 .2559967 .40374757 .27198792 .40374757 .31799317 .40374757 .34899903 .34172059 .36698915 .30470277 .36698915 .2536621 .36698915 .20463562 .36698915 .15661621 .36698915 .10658264 .34999085 .0705719 .31999208 .010528564 .27398683 .0055389406 .25099183 .0055389406Z"/>
</defs>
<g>
<path transform="matrix(1.00005,0,0,-1,103.740428,229.963)" d="M-56.69362 0V113.38724H56.69362V0ZM56.69362 113.38724" fill="#0000ff" fill-opacity=".2"/>
<path transform="matrix(1.00005,0,0,-1,103.740428,229.963)" stroke-width=".3985" stroke-linecap="butt" stroke-miterlimit="10" stroke-linejoin="miter" fill="none" stroke="#000000" stroke-opacity=".2" d="M-56.69362 0V113.38724H56.69362V0ZM56.69362 113.38724"/>
</g>
<path transform="matrix(1.00005,0,0,-1,103.740428,229.963)" stroke-width=".3985" stroke-linecap="butt" stroke-miterlimit="10" stroke-linejoin="miter" fill="none" stroke="#0000ff" d="M-56.69362 0H56.69362V113.38724H-56.69362V0"/>
<g>
<path transform="matrix(1.00005,0,0,-1,103.740428,229.963)" d="M-28.3468 113.38724V226.77448H28.3468V113.38724ZM28.3468 226.77448" fill="#0000ff" fill-opacity=".2"/>
<path transform="matrix(1.00005,0,0,-1,103.740428,229.963)" stroke-width=".3985" stroke-linecap="butt" stroke-miterlimit="10" stroke-linejoin="miter" fill="none" stroke="#000000" stroke-opacity=".2" d="M-28.3468 113.38724V226.77448H28.3468V113.38724ZM28.3468 226.77448"/>
</g>
<path transform="matrix(1.00005,0,0,-1,103.740428,229.963)" stroke-width=".3985" stroke-linecap="butt" stroke-miterlimit="10" stroke-linejoin="miter" fill="none" stroke="#0000ff" d="M-28.3468 113.38724H28.3468V226.77448H-28.3468V113.38724"/>
<path transform="matrix(1.00005,0,0,-1,103.740428,229.963)" stroke-width=".3985" stroke-linecap="butt" stroke-miterlimit="10" stroke-linejoin="miter" fill="none" stroke="#000000" d="M-56.69362 0H56.69362L0 226.77448-56.69362 0"/>
<path transform="matrix(1.00005,0,0,-1,103.740428,229.963)" stroke-width=".3985" stroke-linecap="butt" stroke-miterlimit="10" stroke-linejoin="miter" fill="none" stroke="#000000" d="M60.67873 0C63.66759 1.49435 65.66011 4.98138 65.66011 9.96277V46.73085C65.66011 51.71223 67.65263 55.19926 70.6415 56.69362 67.65263 58.18797 65.66011 61.675 65.66011 66.65639V103.42447C65.66011 108.40585 63.66759 111.89288 60.67873 113.38724"/>
<use data-text="&#x2206;" xlink:href="#font_1_1" transform="matrix(9.963098,0,0,-9.9626,175.66501,176.729)"/>
<use data-text="h" xlink:href="#font_2_1" transform="matrix(9.963098,0,0,-9.9626,183.96744,176.729)"/>
<use data-text="=" xlink:href="#font_1_5" transform="matrix(9.963098,0,0,-9.9626,192.47586,176.729)"/>
<use data-text="3" xlink:href="#font_1_3" transform="matrix(9.963098,0,0,-9.9626,202.98694,176.729)"/>
<use data-text="0" xlink:href="#font_1_2" transform="matrix(9.963098,0,0,-9.9626,207.96848,176.729)"/>
<use data-text="i" xlink:href="#font_3_66" transform="matrix(9.963098,0,0,-9.9626,216.27304,176.729)"/>
<use data-text="n" xlink:href="#font_3_77" transform="matrix(9.963098,0,0,-9.9626,219.04279,176.729)"/>
<path transform="matrix(1.00005,0,0,-1,103.740428,229.963)" stroke-width=".3985" stroke-linecap="butt" stroke-miterlimit="10" stroke-linejoin="miter" fill="none" stroke="#000000" d="M32.33191 113.38724C35.32077 114.88159 37.3133 118.36862 37.3133 123.35V160.11809C37.3133 165.09947 39.30582 168.5865 42.29468 170.08086 39.30582 171.57521 37.3133 175.06224 37.3133 180.04363V216.8117C37.3133 221.79309 35.32077 225.28012 32.33191 226.77448"/>
<use data-text="&#x2206;" xlink:href="#font_1_1" transform="matrix(9.963098,0,0,-9.9626,147.3176,63.341005)"/>
<use data-text="h" xlink:href="#font_2_1" transform="matrix(9.963098,0,0,-9.9626,155.62003,63.341005)"/>
<use data-text="=" xlink:href="#font_1_5" transform="matrix(9.963098,0,0,-9.9626,164.12845,63.341005)"/>
<use data-text="3" xlink:href="#font_1_3" transform="matrix(9.963098,0,0,-9.9626,174.63953,63.341005)"/>
<use data-text="0" xlink:href="#font_1_2" transform="matrix(9.963098,0,0,-9.9626,179.62107,63.341005)"/>
<use data-text="i" xlink:href="#font_3_66" transform="matrix(9.963098,0,0,-9.9626,187.92563,63.341005)"/>
<use data-text="n" xlink:href="#font_3_77" transform="matrix(9.963098,0,0,-9.9626,190.69538,63.341005)"/>
<path transform="matrix(1.00005,0,0,-1,103.740428,229.963)" stroke-width=".3985" stroke-linecap="butt" stroke-dasharray="2.98883,2.98883" stroke-miterlimit="10" stroke-linejoin="miter" fill="none" stroke="#000000" d="M0 226.77448V0"/>
<path transform="matrix(1.00005,0,0,-1,103.740428,229.963)" stroke-width=".3985" stroke-linecap="butt" stroke-dasharray="2.98883,2.98883" stroke-miterlimit="10" stroke-linejoin="miter" fill="none" stroke="#000000" d="M0 0H56.69362"/>
<use data-text="r" xlink:href="#font_4_3" transform="matrix(5.9778988,0,0,-5.9776,115.52201,238.09799)"/>
<use data-text="1" xlink:href="#font_5_1" transform="matrix(4.981549,0,0,-4.9813,118.9882,239.24999)"/>
<use data-text="=" xlink:href="#font_6_3" transform="matrix(5.9778988,0,0,-5.9776,124.99848,238.09799)"/>
<use data-text="1" xlink:href="#font_6_1" transform="matrix(5.9778988,0,0,-5.9776,132.70401,238.09799)"/>
<use data-text="5" xlink:href="#font_6_2" transform="matrix(5.9778988,0,0,-5.9776,136.3565,238.09799)"/>
<use data-text="i" xlink:href="#font_7_66" transform="matrix(5.9778988,0,0,-5.9776,142.51038,238.09799)"/>
<use data-text="n" xlink:href="#font_7_77" transform="matrix(5.9778988,0,0,-5.9776,144.6146,238.09799)"/>
<path transform="matrix(1.00005,0,0,-1,103.740428,229.963)" stroke-width=".3985" stroke-linecap="butt" stroke-dasharray="2.98883,2.98883" stroke-miterlimit="10" stroke-linejoin="miter" fill="none" stroke="#000000" d="M0 113.38724H28.3468"/>
<use data-text="r" xlink:href="#font_4_3" transform="matrix(5.9778988,0,0,-5.9776,114.23695,123.333)"/>
<use data-text="2" xlink:href="#font_5_2" transform="matrix(4.981549,0,0,-4.9813,117.70314,124.48499)"/>
<path transform="matrix(1.00005,0,0,-1,103.740428,229.963)" d="M1.99255 0C1.99255 1.10046 1.10046 1.99255 0 1.99255-1.10046 1.99255-1.99255 1.10046-1.99255 0-1.99255-1.10046-1.10046-1.99255 0-1.99255 1.10046-1.99255 1.99255-1.10046 1.99255 0ZM0 0"/>
<path transform="matrix(1.00005,0,0,-1,103.740428,229.963)" stroke-width=".3985" stroke-linecap="butt" stroke-miterlimit="10" stroke-linejoin="miter" fill="none" stroke="#000000" d="M1.99255 0C1.99255 1.10046 1.10046 1.99255 0 1.99255-1.10046 1.99255-1.99255 1.10046-1.99255 0-1.99255-1.10046-1.10046-1.99255 0-1.99255 1.10046-1.99255 1.99255-1.10046 1.99255 0ZM0 0"/>
<path transform="matrix(1.00005,0,0,-1,103.740428,229.963)" stroke-width=".3985" stroke-linecap="butt" stroke-miterlimit="10" stroke-linejoin="miter" fill="none" stroke="#000000" d="M0 0V0"/>
<use data-text="B" xlink:href="#font_4_1" transform="matrix(5.9778988,0,0,-5.9776,100.82828,238.232)"/>
<path transform="matrix(1.00005,0,0,-1,103.740428,229.963)" d="M58.68617 0C58.68617 1.10046 57.79408 1.99255 56.69362 1.99255 55.59314 1.99255 54.70107 1.10046 54.70107 0 54.70107-1.10046 55.59314-1.99255 56.69362-1.99255 57.79408-1.99255 58.68617-1.10046 58.68617 0ZM56.69362 0"/>
<path transform="matrix(1.00005,0,0,-1,103.740428,229.963)" stroke-width=".3985" stroke-linecap="butt" stroke-miterlimit="10" stroke-linejoin="miter" fill="none" stroke="#000000" d="M58.68617 0C58.68617 1.10046 57.79408 1.99255 56.69362 1.99255 55.59314 1.99255 54.70107 1.10046 54.70107 0 54.70107-1.10046 55.59314-1.99255 56.69362-1.99255 57.79408-1.99255 58.68617-1.10046 58.68617 0ZM56.69362 0"/>
<path transform="matrix(1.00005,0,0,-1,103.740428,229.963)" stroke-width=".3985" stroke-linecap="butt" stroke-miterlimit="10" stroke-linejoin="miter" fill="none" stroke="#000000" d="M56.69362 0V0"/>
<use data-text="C" xlink:href="#font_4_2" transform="matrix(5.9778988,0,0,-5.9776,164.62146,238.232)"/>
<path transform="matrix(1.00005,0,0,-1,103.740428,229.963)" d="M1.99255 113.38724C1.99255 114.4877 1.10046 115.37979 0 115.37979-1.10046 115.37979-1.99255 114.4877-1.99255 113.38724-1.99255 112.28676-1.10046 111.39468 0 111.39468 1.10046 111.39468 1.99255 112.28676 1.99255 113.38724ZM0 113.38724"/>
<path transform="matrix(1.00005,0,0,-1,103.740428,229.963)" stroke-width=".3985" stroke-linecap="butt" stroke-miterlimit="10" stroke-linejoin="miter" fill="none" stroke="#000000" d="M1.99255 113.38724C1.99255 114.4877 1.10046 115.37979 0 115.37979-1.10046 115.37979-1.99255 114.4877-1.99255 113.38724-1.99255 112.28676-1.10046 111.39468 0 111.39468 1.10046 111.39468 1.99255 112.28676 1.99255 113.38724ZM0 113.38724"/>
<path transform="matrix(1.00005,0,0,-1,103.740428,229.963)" stroke-width=".3985" stroke-linecap="butt" stroke-miterlimit="10" stroke-linejoin="miter" fill="none" stroke="#000000" d="M0 113.38724V113.38724"/>
<use data-text="B" xlink:href="#font_4_1" transform="matrix(5.9778988,0,0,-5.9776,91.03679,126.035999)"/>
<use data-text="&#x2032;" xlink:href="#font_8_1" transform="matrix(4.981549,0,0,-4.9813,96.862079,123.528)"/>
<path transform="matrix(1.00005,0,0,-1,103.740428,229.963)" d="M30.33936 113.38724C30.33936 114.4877 29.44728 115.37979 28.3468 115.37979 27.24634 115.37979 26.35425 114.4877 26.35425 113.38724 26.35425 112.28676 27.24634 111.39468 28.3468 111.39468 29.44728 111.39468 30.33936 112.28676 30.33936 113.38724ZM28.3468 113.38724"/>
<path transform="matrix(1.00005,0,0,-1,103.740428,229.963)" stroke-width=".3985" stroke-linecap="butt" stroke-miterlimit="10" stroke-linejoin="miter" fill="none" stroke="#000000" d="M30.33936 113.38724C30.33936 114.4877 29.44728 115.37979 28.3468 115.37979 27.24634 115.37979 26.35425 114.4877 26.35425 113.38724 26.35425 112.28676 27.24634 111.39468 28.3468 111.39468 29.44728 111.39468 30.33936 112.28676 30.33936 113.38724ZM28.3468 113.38724"/>
<path transform="matrix(1.00005,0,0,-1,103.740428,229.963)" stroke-width=".3985" stroke-linecap="butt" stroke-miterlimit="10" stroke-linejoin="miter" fill="none" stroke="#000000" d="M28.3468 113.38724V113.38724"/>
<use data-text="C" xlink:href="#font_4_2" transform="matrix(5.9778988,0,0,-5.9776,136.27304,126.035999)"/>
<use data-text="&#x2032;" xlink:href="#font_8_1" transform="matrix(4.981549,0,0,-4.9813,141.96933,123.528)"/>
<path transform="matrix(1.00005,0,0,-1,103.740428,229.963)" d="M1.99255 226.77448C1.99255 227.87494 1.10046 228.76703 0 228.76703-1.10046 228.76703-1.99255 227.87494-1.99255 226.77448-1.99255 225.674-1.10046 224.78192 0 224.78192 1.10046 224.78192 1.99255 225.674 1.99255 226.77448ZM0 226.77448"/>
<path transform="matrix(1.00005,0,0,-1,103.740428,229.963)" stroke-width=".3985" stroke-linecap="butt" stroke-miterlimit="10" stroke-linejoin="miter" fill="none" stroke="#000000" d="M1.99255 226.77448C1.99255 227.87494 1.10046 228.76703 0 228.76703-1.10046 228.76703-1.99255 227.87494-1.99255 226.77448-1.99255 225.674-1.10046 224.78192 0 224.78192 1.10046 224.78192 1.99255 225.674 1.99255 226.77448ZM0 226.77448"/>
<path transform="matrix(1.00005,0,0,-1,103.740428,229.963)" stroke-width=".3985" stroke-linecap="butt" stroke-miterlimit="10" stroke-linejoin="miter" fill="none" stroke="#000000" d="M0 226.77448V226.77448"/>
<use data-text="C" xlink:href="#font_4_2" transform="matrix(5.9778988,0,0,-5.9776,107.92464,12.647995)"/>
<use data-text="&#x2032;" xlink:href="#font_8_1" transform="matrix(4.981549,0,0,-4.9813,113.620929,10.139999)"/>
<path transform="matrix(1.00005,0,0,-1,103.740428,229.963)" stroke-width=".3985" stroke-linecap="butt" stroke-miterlimit="10" stroke-linejoin="miter" fill="none" stroke="#000000" d="M-67.76541 0C-70.75427 1.49435-72.7468 4.98138-72.7468 9.96277V103.42447C-72.7468 108.40585-74.73932 111.89288-77.72818 113.38724-74.73932 114.88159-72.7468 118.36862-72.7468 123.35V216.8117C-72.7468 221.79309-70.75427 225.28012-67.76541 226.77448"/>
<use data-text="6" xlink:href="#font_1_4" transform="matrix(9.963098,0,0,-9.9626,.8132858,119.849)"/>
<use data-text="0" xlink:href="#font_1_2" transform="matrix(9.963098,0,0,-9.9626,5.794838,119.849)"/>
<use data-text="i" xlink:href="#font_3_66" transform="matrix(9.963098,0,0,-9.9626,14.093956,119.849)"/>
<use data-text="n" xlink:href="#font_3_77" transform="matrix(9.963098,0,0,-9.9626,16.8637,119.849)"/>
</svg>
