<svg xmlns="http://www.w3.org/2000/svg" xmlns:xlink="http://www.w3.org/1999/xlink" version="1.1" width="254" height="240" viewBox="0 0 254 240">
<defs>
<path id="font_1_1" d="M.44198609 .69781497C.43499757 .7108154 .43299867 .7158203 .41600038 .7158203 .39898683 .7158203 .39698792 .7108154 .3899994 .69781497L.051986696 .019989014C.04699707 .010986328 .04699707 .008987427 .04699707 .0079956059 .04699707 0 .052993776 0 .068984989 0H.7630005C.7789917 0 .7849884 0 .7849884 .0079956059 .7849884 .008987427 .7849884 .010986328 .7799988 .019989014L.44198609 .69781497M.38398744 .61582949 .6529999 .07598877H.11399841L.38398744 .61582949Z"/>
<path id="font_2_1" d="M.2869873 .68333438C.2869873 .6843262 .2869873 .69433596 .27398683 .69433596 .25099183 .69433596 .17799378 .6863251 .1519928 .6843262 .14399719 .68333438 .1329956 .6823273 .1329956 .6643219 .1329956 .6523285 .14199829 .6523285 .15699768 .6523285 .20498657 .6523285 .20698548 .6453247 .20698548 .6353302L.20399475 .6153412 .05899048 .039260866C.054992677 .025253296 .054992677 .023254395 .054992677 .01725769 .054992677-.0057525637 .07499695-.0107421879 .083999637-.0107421879 .099990848-.0107421879 .115997318 .0012512207 .12098694 .015258789L.13999939 .091278079 .1619873 .18130493C.16799927 .2033081 .17399597 .22531128 .1789856 .24832154 .18099976 .25431825 .18899536 .28733827 .18998719 .29333497 .19299317 .30233766 .22399903 .35835267 .2579956 .38536073 .27999879 .4013672 .31098939 .42037965 .35398866 .42037965 .39698792 .42037965 .4079895 .3863678 .4079895 .35035707 .4079895 .29634095 .36999513 .18730164 .34599305 .12628174 .33799745 .103271488 .33299256 .091278079 .33299256 .0712738 .33299256 .024261475 .36799623-.0107421879 .4149933-.0107421879 .5089874-.0107421879 .54599 .13528443 .54599 .14329529 .54599 .1532898 .5369873 .1532898 .5339966 .1532898 .5239868 .1532898 .5239868 .15029907 .5189972 .13528443 .5039978 .08227539 .47200013 .011245728 .4169922 .011245728 .3999939 .011245728 .3929901 .021255494 .3929901 .044265748 .3929901 .0692749 .4019928 .09327698 .41099549 .11528015 .4269867 .15829468 .47200013 .2773285 .47200013 .3353424 .47200013 .4003601 .43199159 .4423828 .35699464 .4423828 .2939911 .4423828 .24598694 .41137696 .20899964 .36535646L.2869873 .68333438Z"/>
<path id="font_1_5" d="M.68699648 .32714845C.70199587 .32714845 .72099307 .32714845 .72099307 .34713746 .72099307 .36714173 .70199587 .36714173 .6879883 .36714173H.08898926C.07499695 .36714173 .055999757 .36714173 .055999757 .34713746 .055999757 .32714845 .07499695 .32714845 .08999634 .32714845H.68699648M.6879883 .13284302C.70199587 .13284302 .72099307 .13284302 .72099307 .15284729 .72099307 .17285156 .70199587 .17285156 .68699648 .17285156H.08999634C.07499695 .17285156 .055999757 .17285156 .055999757 .15284729 .055999757 .13284302 .07499695 .13284302 .08898926 .13284302H.6879883Z"/>
<path id="font_1_3" d="M.1269989 .07699585 .23298645 .18003845C.3889923 .31811524 .44898988 .3721466 .44898988 .47216798 .44898988 .5860901 .35899354 .6660156 .23699951 .6660156 .12399292 .6660156 .049987794 .57411196 .049987794 .48516847 .049987794 .4291687 .099990848 .4291687 .102996829 .4291687 .11999512 .4291687 .15499878 .44117738 .15499878 .48217774 .15499878 .5081787 .13699341 .5341797 .101989749 .5341797 .09399414 .5341797 .09199524 .5341797 .08898926 .5331726 .11199951 .59806826 .1659851 .63500979 .22399903 .63500979 .31498719 .63500979 .35798646 .5541382 .35798646 .47216798 .35798646 .39215089 .30799867 .31311036 .25299073 .25108338L.06098938 .036987306C.049987794 .025985718 .049987794 .023986817 .049987794 0H.42099L.44898988 .17404175H.42399598C.4189911 .14402771 .4119873 .1000061 .4019928 .084991458 .394989 .07699585 .32899476 .07699585 .30699159 .07699585H.1269989Z"/>
<path id="font_1_2" d="M.45999146 .31976319C.45999146 .39982606 .45498658 .47988893 .41999818 .5539398 .37399293 .65000918 .2919922 .6660156 .25 .6660156 .18998719 .6660156 .116989139 .64001467 .07598877 .54693606 .04399109 .47789 .038986207 .39982606 .038986207 .31976319 .038986207 .24472046 .042999269 .15464783 .083999637 .07859802 .1269989-.0024719239 .19999695-.022460938 .24899292-.022460938 .30299378-.022460938 .3789978-.0014648438 .4229889 .09359741 .45498658 .16265869 .45999146 .2407074 .45999146 .31976319M.24899292-.00047302247C.20999146-.00047302247 .15098572 .024551392 .1329956 .12062073 .12199402 .18066406 .12199402 .2727356 .12199402 .3317871 .12199402 .39582826 .12199402 .46188355 .12998963 .5159149 .14898682 .63500979 .22399903 .64401248 .24899292 .64401248 .28199769 .64401248 .34799195 .6259918 .36698915 .52693179 .3769989 .47088624 .3769989 .39482118 .3769989 .3317871 .3769989 .25672914 .3769989 .18867493 .3659973 .12461853 .35099793 .029556275 .2939911-.00047302247 .24899292-.00047302247Z"/>
<path id="font_3_66" d="M.24699402 0V.0309906C.18099976 .0309906 .1769867 .035995485 .1769867 .075042728V.4423828L.036987306 .43066407V.3996582C.101989749 .3996582 .11099243 .3936615 .11099243 .3447113V.07595825C.11099243 .0309906 .099990848 .0309906 .032989503 .0309906V0L.14299011 .0029907227C.17799378 .0029907227 .21299744 .0009918213 .24699402 0M.19198609 .603775C.19198609 .6307678 .16899109 .6567688 .13899231 .6567688 .10499573 .6567688 .084991458 .6287689 .084991458 .603775 .084991458 .57676699 .10798645 .55078127 .13798523 .55078127 .17199707 .55078127 .19198609 .5787811 .19198609 .603775Z"/>
<path id="font_3_77" d="M.5349884 0V.0309906C.48298646 .0309906 .45799256 .0309906 .45700074 .061019899V.25221253C.45700074 .3383026 .45700074 .36932374 .42599488 .405365 .4119873 .42237855 .3789978 .4423828 .32099916 .4423828 .24798584 .4423828 .20098877 .39935304 .17298889 .33729554V.4423828L.03199768 .43066407V.3996582C.101989749 .3996582 .10998535 .39266969 .10998535 .34370423V.07595825C.10998535 .0309906 .09899902 .0309906 .03199768 .0309906V0L.14498902 .0029907227 .25698854 0V.0309906C.18998719 .0309906 .1789856 .0309906 .1789856 .07595825V.25978089C.1789856 .36431886 .25 .42037965 .31399537 .42037965 .3769989 .42037965 .3880005 .36631776 .3880005 .30926515V.076034549C.3880005 .0309906 .3769989 .0309906 .30999757 .0309906V0L.4229889 .0029907227 .5349884 0Z"/>
<path id="font_4_2" d="M.28399659 .29953004C.2869873 .30451966 .30999757 .34951783 .34899903 .38052369 .36099244 .3885193 .3899994 .4084015 .43598939 .4084015 .44499208 .4084015 .47698976 .4084015 .5029907 .39352418 .47698976 .38452149 .46199037 .3615265 .46199037 .33952333 .46199037 .30752564 .48799134 .30052186 .5019989 .30052186 .5309906 .30052186 .55999758 .32452394 .55999758 .3635254 .55999758 .4163971 .5019989 .44140626 .43798829 .44140626 .4119873 .44140626 .35099793 .4393921 .2899933 .36853028 .2749939 .42140199 .22099304 .44140626 .17999268 .44140626 .13699341 .44140626 .11299133 .4123993 .09799194 .3885193 .07598877 .35151673 .06098938 .29452516 .06098938 .28851319 .06098938 .27749635 .069992069 .27349855 .07899475 .27349855 .09498596 .27349855 .09599304 .28050233 .100997928 .29652406 .11999512 .3735199 .14399719 .4084015 .1769867 .4084015 .20799256 .4084015 .21299744 .3795166 .21299744 .3585205 .21299744 .34152223 .20298767 .30152894 .19599915 .27349855 .18899536 .24647522 .1789856 .20542908 .17399597 .18341065 .16699219 .15837097 .16099549 .13235474 .1539917 .10733032 .14698792 .07929993 .1349945 .029251099 .1349945 .023239136 .1349945 .0012207031 .1519928-.009765625 .16999817-.009765625 .18998719-.009765625 .20899964 .0042266848 .21499634 .024246216 .21798706 .03224182 .25498963 .18341065 .26098634 .2064209L.28399659 .29953004Z"/>
<path id="font_5_1" d="M.397995 .63591006C.397995 .6660156 .394989 .6660156 .3619995 .6660156 .29100038 .6016083 .17999268 .6016083 .1599884 .6016083H.14299011V.5576172H.1599884C.18299866 .5576172 .24798584 .5606079 .30599977 .58561709V.08596802C.30599977 .054977418 .30599977 .04399109 .19999695 .04399109H.1499939V0C.20498657 .0039978029 .2939911 .0039978029 .35198976 .0039978029 .4099884 .0039978029 .49899293 .0039978029 .55400088 0V.04399109H.5039978C.397995 .04399109 .397995 .054977418 .397995 .08596802V.63591006Z"/>
<path id="font_6_6" d="M.81799319 .3388672C.83200076 .3388672 .8549957 .3388672 .8549957 .3648529 .8549957 .39085389 .8279877 .39085389 .8129883 .39085389H.12098694C.10598755 .39085389 .07899475 .39085389 .07899475 .3648529 .07899475 .3388672 .101989749 .3388672 .115997318 .3388672H.81799319M.8129883 .10913086C.8279877 .10913086 .8549957 .10913086 .8549957 .13513184 .8549957 .16113281 .83200076 .16113281 .81799319 .16113281H.115997318C.101989749 .16113281 .07899475 .16113281 .07899475 .13513184 .07899475 .10913086 .10598755 .10913086 .12098694 .10913086H.8129883Z"/>
<path id="font_6_2" d="M.35899354 .6349335C.35899354 .66503909 .35499574 .66503909 .32499696 .66503909 .25898744 .60058596 .15699768 .60058596 .12098694 .60058596V.5615845C.14698792 .5615845 .21299744 .5615845 .272995 .58958438V.08496094C.272995 .051986696 .272995 .038986207 .16999817 .038986207H.1269989V0C.18199158 .0039978029 .2599945 .0039978029 .31599427 .0039978029 .37199403 .0039978029 .44999696 .0039978029 .5049896 0V.038986207H.46199037C.35899354 .038986207 .35899354 .051986696 .35899354 .08496094V.6349335Z"/>
<path id="font_6_5" d="M.16999817 .5549774C.20298767 .54599 .23799134 .5419922 .27198792 .5419922 .2939911 .5419922 .34999085 .5419922 .41299439 .5769806 .42999269 .58699038 .49198915 .6279907 .49198915 .6490326 .49198915 .6620331 .48199464 .66503909 .47799684 .66503909 .47499085 .66503909 .47399903 .66503909 .46299745 .661026 .4269867 .6470337 .37599183 .63298037 .31098939 .63298037 .2619934 .63298037 .20799256 .64201357 .16299439 .6590271 .15299988 .6630249 .14898682 .66503909 .14498902 .66503909 .1309967 .66503909 .1309967 .6540375 .1309967 .6380005V.33787538C.1309967 .32086183 .1309967 .30885316 .14898682 .30885316 .1579895 .30885316 .16099549 .31285096 .16799927 .32086183 .19299317 .35289 .23699951 .38693238 .31498719 .38693238 .43798829 .38693238 .43798829 .23677063 .43798829 .20472718 .43798829 .16567993 .43499757 .10961914 .4019928 .068573 .37098695 .030532837 .32499696 .014511108 .28199769 .014511108 .21299744 .014511108 .14399719 .05255127 .11999512 .11061096 .16899109 .11161804 .1749878 .15066529 .1749878 .16267395 .1749878 .18971253 .1539917 .21372986 .12298584 .21372986 .11399841 .21372986 .07199097 .20872498 .07199097 .15867615 .07199097 .0665741 .15899658-.021484375 .2849884-.021484375 .42199708-.021484375 .5379944 .07557678 .5379944 .20072937 .5379944 .31484986 .44599916 .4189453 .31698609 .4189453 .2519989 .4189453 .20199585 .39793397 .16999817 .37091065V.5549774Z"/>
<path id="font_7_66" d="M.29299928 0V.038986207C.23098755 .038986207 .22200012 .038986207 .22200012 .08103943V.44140626L.067993167 .43058778V.39160157C.13398743 .39160157 .14299011 .38459779 .14299011 .33558656V.082595828C.14299011 .038986207 .1329956 .038986207 .06399536 .038986207V0L.18099976 .0039978029C.19099427 .0039978029 .2669983 .0019989014 .29299928 0M.23599243 .60112C.23599243 .6331177 .20999146 .6611328 .17599488 .6611328 .13899231 .6611328 .114990238 .63012698 .114990238 .60112 .114990238 .5691223 .14099121 .54112246 .1749878 .54112246 .21199036 .54112246 .23599243 .5721283 .23599243 .60112Z"/>
<path id="font_7_77" d="M.6259918 0V.038986207C.5569916 .038986207 .5469971 .038986207 .5469971 .08204651V.3022766C.5469971 .40039063 .4909973 .44140626 .3899994 .44140626 .3019867 .44140626 .24699402 .39538575 .21798706 .34733583V.44140626L.06298828 .43058778V.39160157C.1329956 .39160157 .14199829 .38458253 .14199829 .335495V.08206177C.14199829 .038986207 .13198853 .038986207 .06298828 .038986207V0C.069992069 .0009918213 .13798523 .0039978029 .18299866 .0039978029 .22799683 .0039978029 .2939911 .0009918213 .3039856 0V.038986207C.23498535 .038986207 .22499085 .038986207 .22499085 .08206177V.25836183C.22499085 .36836244 .31900025 .4093933 .3809967 .4093933 .44799806 .4093933 .46398927 .36735536 .46398927 .3052826V.08204651C.46398927 .038986207 .45399476 .038986207 .3849945 .038986207V0C.3919983 .0009918213 .45999146 .0039978029 .5049896 .0039978029 .5499878 .0039978029 .6159973 .0009918213 .6259918 0Z"/>
<path id="font_5_2" d="M.58898928 .19296265H.5469971C.5439911 .17396546 .5339966 .11198425 .5179901 .101989749 .5099945 .09599304 .42599488 .09599304 .41099549 .09599304H.21499634C.2809906 .14497376 .35499574 .20095825 .4149933 .24093628 .5049896 .30291749 .58898928 .36090089 .58898928 .46687318 .58898928 .59495547 .46798707 .6660156 .32499696 .6660156 .18998719 .6660156 .09098816 .58795168 .09098816 .48986817 .09098816 .4378662 .1349945 .42886354 .14898682 .42886354 .17599488 .42886354 .20799256 .4468689 .20799256 .48786927 .20799256 .52386477 .18199158 .543869 .15098572 .546875 .1789856 .59194949 .23699951 .6220093 .3039856 .6220093 .40098573 .6220093 .48199464 .5639038 .48199464 .4658661 .48199464 .3818817 .42399598 .31791688 .34700013 .2529297L.102996829 .04598999C.09298706 .036987306 .09199524 .036987306 .09098816 .02999878V0H.55599978L.58898928 .19296265Z"/>
<path id="font_6_1" d="M.5499878 .31877137C.5499878 .39183045 .5499878 .66503909 .30499269 .66503909 .05999756 .66503909 .05999756 .39183045 .05999756 .31877137 .05999756 .2467041 .05999756-.021484375 .30499269-.021484375 .5499878-.021484375 .5499878 .2467041 .5499878 .31877137M.30499269 .010513306C.2630005 .010513306 .19499207 .030517579 .17098999 .113601688 .15499878 .17164612 .15499878 .2697296 .15499878 .33177186 .15499878 .39883424 .15499878 .4758911 .16899109 .52993777 .19400025 .6200104 .269989 .6330261 .30499269 .6330261 .35099793 .6330261 .4169922 .6110077 .43899537 .5349426 .45399476 .48190309 .45498658 .408844 .45498658 .33177186 .45498658 .26771546 .45498658 .16664124 .43798829 .1105957 .4099884 .023513794 .33799745 .010513306 .30499269 .010513306Z"/>
<path id="font_5_3" d="M.32998658 .3310547C.42199708 .3310547 .48298646 .2737732 .48298646 .17437744 .48298646 .07237244 .41999818 .01852417 .33099366 .01852417 .31999208 .01852417 .20098877 .01852417 .1499939 .070373538 .19099427 .07637024 .20298767 .1073761 .20298767 .13137818 .20298767 .16838074 .1749878 .19238281 .14199829 .19238281 .10998535 .19238281 .07998657 .17137146 .07998657 .12937927 .07998657 .025512696 .19799805-.022460938 .33399964-.022460938 .49798585-.022460938 .59999087 .07637024 .59999087 .17337036 .59999087 .25567628 .5269928 .3260193 .41299439 .35205079 .5329895 .3909912 .5649872 .46684266 .5649872 .5228424 .5649872 .60491946 .46299745 .6660156 .33699037 .6660156 .21398926 .6660156 .114990238 .61395266 .114990238 .5238342 .114990238 .47683717 .15299988 .46484376 .17199707 .46484376 .20098877 .46484376 .22898865 .48583985 .22898865 .5218353 .22898865 .5448303 .21699524 .5728302 .18099976 .57884219 .22399903 .625 .31298829 .628006 .33399964 .628006 .40699769 .628006 .45899964 .5908661 .45899964 .5228424 .45899964 .46484376 .42099 .37402345 .31599427 .368042 .28799439 .3670349 .28399659 .3660431 .2579956 .365036 .24699402 .3640442 .23599243 .36305238 .23599243 .34805299 .23599243 .3310547 .24598694 .3310547 .2639923 .3310547H.32998658Z"/>
<path id="font_1_4" d="M.13198853 .327713V.35173036C.13198853 .6047821 .2559967 .64100649 .30699159 .64100649 .33099366 .64100649 .37298585 .634964 .394989 .6007538 .37998963 .6007538 .33999635 .6007538 .33999635 .5557556 .33999635 .524765 .3639984 .5097656 .38598634 .5097656 .4019928 .5097656 .43199159 .51875308 .43199159 .5577545 .43199159 .6178589 .3880005 .6660156 .30499269 .6660156 .1769867 .6660156 .041992189 .5367584 .041992189 .31570436 .041992189 .048553468 .1579895-.022460938 .25099183-.022460938 .3619995-.022460938 .45700074 .07156372 .45700074 .2036438 .45700074 .33070375 .36799623 .4267578 .25698854 .4267578 .18899536 .4267578 .1519928 .37573243 .13198853 .327713M.25099183 .0055389406C.18798828 .0055389406 .1579895 .06556702 .1519928 .080566409 .13398743 .127594 .13398743 .2076416 .13398743 .22564698 .13398743 .30369569 .1659851 .40374757 .2559967 .40374757 .27198792 .40374757 .31799317 .40374757 .34899903 .34172059 .36698915 .30470277 .36698915 .2536621 .36698915 .20463562 .36698915 .15661621 .36698915 .10658264 .34999085 .0705719 .31999208 .010528564 .27398683 .0055389406 .25099183 .0055389406Z"/>
<path id="font_4_1" d="M.33299256 .66430667C.33399964 .66830447 .33599855 .67430117 .33599855 .67930606 .33599855 .6953125 .31599427 .6943054 .3039856 .69329836L.19198609 .6843109C.1749878 .68330386 .1619873 .682312 .1619873 .65930178 .1619873 .64331057 .1749878 .64331057 .18998719 .64331057 .21998596 .64331057 .22698975 .64131167 .23999024 .63630679 .23999024 .62431338 .23999024 .62231448 .23599243 .60632327L.09599304 .04724121C.09199524 .031234742 .09199524 .026229859 .09199524 .024230957 .09199524-.00077819827 .11199951-.009765625 .1269989-.009765625 .13699341-.009765625 .15499878-.0057678224 .16799927 .01322937 .17098999 .020233155 .17999268 .053237916 .18499756 .07424927 .18998719 .09326172 .20098877 .13928223 .20698548 .16429138 .21398926 .19030762 .21899414 .20831299 .22399903 .23132324 .22799683 .24632263 .23298645 .264328 .26098634 .3053589 .2939911 .3533783 .34599305 .4084015 .4229889 .4084015 .48599244 .4084015 .48599244 .35638429 .48599244 .33836366 .48599244 .27934266 .44400025 .17329407 .4249878 .12727356 .4189911 .11026001 .4119873 .09425354 .4119873 .07725525 .4119873 .026229859 .45799256-.009765625 .5130005-.009765625 .6139984-.009765625 .6639862 .12226868 .6639862 .14428711 .6639862 .14628601 .6629944 .15829468 .644989 .15829468 .6309967 .15829468 .6299896 .1532898 .6239929 .13427735 .60798647 .08226013 .5669861 .023223877 .5159912 .023223877 .49699403 .023223877 .4889984 .038238527 .4889984 .059249879 .4889984 .07925415 .49598695 .09625244 .5049896 .117263797 .519989 .15628052 .5649872 .2693329 .5649872 .32536317 .5649872 .4044037 .5079956 .44140626 .4269867 .44140626 .34799195 .44140626 .29499818 .39839173 .25498963 .3533783L.33299256 .66430667Z"/>
<path id="font_6_3" d="M.5379944 .18702698H.5009918C.49899293 .17301941 .4889984 .10699463 .47399903 .09599304 .46699525 .08999634 .38598634 .08999634 .37199403 .08999634H.18499756L.31298829 .19403076C.34700013 .22103882 .43598939 .28504945 .46699525 .31506349 .49699403 .3450775 .5379944 .39608766 .5379944 .46710206 .5379944 .5920563 .4249878 .66503909 .29100038 .66503909 .1619873 .66503909 .07199097 .58006289 .07199097 .48609925 .07199097 .43510438 .114990238 .42910768 .12599182 .42910768 .15098572 .42910768 .17999268 .44709779 .17999268 .48310853 .17999268 .50509646 .16699219 .5371094 .12298584 .5371094 .1459961 .5880585 .20698548 .6260376 .27598573 .6260376 .3809967 .6260376 .43699647 .5480957 .43699647 .46710206 .43699647 .39608766 .3899994 .32305909 .31999208 .25904847L.08299255 .041992189C.07299805 .03199768 .07199097 .0309906 .07199097 0H.5069885L.5379944 .18702698Z"/>
<path id="font_6_4" d="M.56399539 .1640625V.2030487H.44699098V.6448059C.44699098 .6678009 .44699098 .6748047 .42199708 .6748047 .4039917 .6748047 .4019928 .6717987 .3929901 .65979006L.04598999 .2030487V.1640625H.35699464V.08401489C.35699464 .050994874 .35699464 .038986207 .272995 .038986207H.24398804V0C.2639923 .0009918213 .35798646 .0039978029 .4019928 .0039978029 .44599916 .0039978029 .5399933 .0009918213 .55999758 0V.038986207H.5309906C.44699098 .038986207 .44699098 .050994874 .44699098 .08401489V.1640625H.56399539M.3639984 .56585696V.2030487H.08898926L.3639984 .56585696Z"/>
</defs>
<g>
<path transform="matrix(1.00009,0,0,-1,132.09415,228.971)" d="M-56.69362 0V75.59119H56.69362V0ZM56.69362 75.59119" fill="#0000ff" fill-opacity=".2"/>
<path transform="matrix(1.00009,0,0,-1,132.09415,228.971)" stroke-width=".3985" stroke-linecap="butt" stroke-miterlimit="10" stroke-linejoin="miter" fill="none" stroke="#000000" stroke-opacity=".2" d="M-56.69362 0V75.59119H56.69362V0ZM56.69362 75.59119"/>
</g>
<path transform="matrix(1.00009,0,0,-1,132.09415,228.971)" stroke-width=".3985" stroke-linecap="butt" stroke-miterlimit="10" stroke-linejoin="miter" fill="none" stroke="#0000ff" d="M-56.69362 0H56.69362V75.59119H-56.69362V0"/>
<g>
<path transform="matrix(1.00009,0,0,-1,132.09415,228.971)" d="M-37.7956 75.59119V151.18283H37.7956V75.59119ZM37.7956 151.18283" fill="#0000ff" fill-opacity=".2"/>
<path transform="matrix(1.00009,0,0,-1,132.09415,228.971)" stroke-width=".3985" stroke-linecap="butt" stroke-miterlimit="10" stroke-linejoin="miter" fill="none" stroke="#000000" stroke-opacity=".2" d="M-37.7956 75.59119V151.18283H37.7956V75.59119ZM37.7956 151.18283"/>
</g>
<path transform="matrix(1.00009,0,0,-1,132.09415,228.971)" stroke-width=".3985" stroke-linecap="butt" stroke-miterlimit="10" stroke-linejoin="miter" fill="none" stroke="#0000ff" d="M-37.7956 75.59119H37.7956V151.18283H-37.7956V75.59119"/>
<g>
<path transform="matrix(1.00009,0,0,-1,132.09415,228.971)" d="M-18.89757 151.18283V226.77448H18.89757V151.18283ZM18.89757 226.77448" fill="#0000ff" fill-opacity=".2"/>
<path transform="matrix(1.00009,0,0,-1,132.09415,228.971)" stroke-width=".3985" stroke-linecap="butt" stroke-miterlimit="10" stroke-linejoin="miter" fill="none" stroke="#000000" stroke-opacity=".2" d="M-18.89757 151.18283V226.77448H18.89757V151.18283ZM18.89757 226.77448"/>
</g>
<path transform="matrix(1.00009,0,0,-1,132.09415,228.971)" stroke-width=".3985" stroke-linecap="butt" stroke-miterlimit="10" stroke-linejoin="miter" fill="none" stroke="#0000ff" d="M-18.89757 151.18283H18.89757V226.77448H-18.89757V151.18283"/>
<path transform="matrix(1.00009,0,0,-1,132.09415,228.971)" stroke-width=".3985" stroke-linecap="butt" stroke-miterlimit="10" stroke-linejoin="miter" fill="none" stroke="#000000" d="M-56.69362 0H56.69362L0 226.77448-56.69362 0"/>
<path transform="matrix(1.00009,0,0,-1,132.09415,228.971)" stroke-width=".3985" stroke-linecap="butt" stroke-miterlimit="10" stroke-linejoin="miter" fill="none" stroke="#000000" d="M60.67873 0C63.66759 1.49435 65.66011 4.98138 65.66011 9.96277V27.83282C65.66011 32.81421 67.65263 36.30124 70.6415 37.7956 67.65263 39.28995 65.66011 42.77698 65.66011 47.75836V65.62842C65.66011 70.6098 63.66759 74.09683 60.67873 75.59119"/>
<use data-text="&#x2206;" xlink:href="#font_1_1" transform="matrix(9.963496,0,0,-9.9626,204.0216,194.635)"/>
<use data-text="h" xlink:href="#font_2_1" transform="matrix(9.963496,0,0,-9.9626,212.32437,194.635)"/>
<use data-text="=" xlink:href="#font_1_5" transform="matrix(9.963496,0,0,-9.9626,220.83213,194.635)"/>
<use data-text="2" xlink:href="#font_1_3" transform="matrix(9.963496,0,0,-9.9626,231.34363,194.635)"/>
<use data-text="0" xlink:href="#font_1_2" transform="matrix(9.963496,0,0,-9.9626,236.32535,194.635)"/>
<use data-text="i" xlink:href="#font_3_66" transform="matrix(9.963496,0,0,-9.9626,244.63126,194.635)"/>
<use data-text="n" xlink:href="#font_3_77" transform="matrix(9.963496,0,0,-9.9626,247.40113,194.635)"/>
<path transform="matrix(1.00009,0,0,-1,132.09415,228.971)" stroke-width=".3985" stroke-linecap="butt" stroke-miterlimit="10" stroke-linejoin="miter" fill="none" stroke="#000000" d="M41.7807 75.59119C44.76956 77.08554 46.76208 80.57257 46.76208 85.55396V103.42424C46.76208 108.40562 48.75461 111.89265 51.74347 113.38701 48.75461 114.88136 46.76208 118.3684 46.76208 123.34978V141.22006C46.76208 146.20145 44.76956 149.68848 41.7807 151.18283"/>
<use data-text="&#x2206;" xlink:href="#font_1_1" transform="matrix(9.963496,0,0,-9.9626,185.12192,119.04299)"/>
<use data-text="h" xlink:href="#font_2_1" transform="matrix(9.963496,0,0,-9.9626,193.42467,119.04299)"/>
<use data-text="=" xlink:href="#font_1_5" transform="matrix(9.963496,0,0,-9.9626,201.93244,119.04299)"/>
<use data-text="2" xlink:href="#font_1_3" transform="matrix(9.963496,0,0,-9.9626,212.44393,119.04299)"/>
<use data-text="0" xlink:href="#font_1_2" transform="matrix(9.963496,0,0,-9.9626,217.42566,119.04299)"/>
<use data-text="i" xlink:href="#font_3_66" transform="matrix(9.963496,0,0,-9.9626,225.73157,119.04299)"/>
<use data-text="n" xlink:href="#font_3_77" transform="matrix(9.963496,0,0,-9.9626,228.50142,119.04299)"/>
<path transform="matrix(1.00009,0,0,-1,132.09415,228.971)" stroke-width=".3985" stroke-linecap="butt" stroke-miterlimit="10" stroke-linejoin="miter" fill="none" stroke="#000000" d="M22.88268 151.18283C25.87154 152.67719 27.86406 156.16422 27.86406 161.1456V179.01587C27.86406 183.99726 29.85658 187.48429 32.84544 188.97864 29.85658 190.47299 27.86406 193.96002 27.86406 198.9414V216.8117C27.86406 221.79309 25.87154 225.28012 22.88268 226.77448"/>
<use data-text="&#x2206;" xlink:href="#font_1_1" transform="matrix(9.963496,0,0,-9.9626,166.22222,43.451997)"/>
<use data-text="h" xlink:href="#font_2_1" transform="matrix(9.963496,0,0,-9.9626,174.52497,43.451997)"/>
<use data-text="=" xlink:href="#font_1_5" transform="matrix(9.963496,0,0,-9.9626,183.03273,43.451997)"/>
<use data-text="2" xlink:href="#font_1_3" transform="matrix(9.963496,0,0,-9.9626,193.54422,43.451997)"/>
<use data-text="0" xlink:href="#font_1_2" transform="matrix(9.963496,0,0,-9.9626,198.52596,43.451997)"/>
<use data-text="i" xlink:href="#font_3_66" transform="matrix(9.963496,0,0,-9.9626,206.83187,43.451997)"/>
<use data-text="n" xlink:href="#font_3_77" transform="matrix(9.963496,0,0,-9.9626,209.60172,43.451997)"/>
<path transform="matrix(1.00009,0,0,-1,132.09415,228.971)" stroke-width=".3985" stroke-linecap="butt" stroke-dasharray="2.98883,2.98883" stroke-miterlimit="10" stroke-linejoin="miter" fill="none" stroke="#000000" d="M0 226.77448V0"/>
<path transform="matrix(1.00009,0,0,-1,132.09415,228.971)" stroke-width=".3985" stroke-linecap="butt" stroke-dasharray="2.98883,2.98883" stroke-miterlimit="10" stroke-linejoin="miter" fill="none" stroke="#000000" d="M0 0H56.69362"/>
<use data-text="r" xlink:href="#font_4_2" transform="matrix(5.978138,0,0,-5.9776,143.8762,237.10599)"/>
<use data-text="1" xlink:href="#font_5_1" transform="matrix(4.981748,0,0,-4.9813,147.34252,238.25699)"/>
<use data-text="=" xlink:href="#font_6_6" transform="matrix(5.978138,0,0,-5.9776,153.35305,237.10599)"/>
<use data-text="1" xlink:href="#font_6_2" transform="matrix(5.978138,0,0,-5.9776,161.05887,237.10599)"/>
<use data-text="5" xlink:href="#font_6_5" transform="matrix(5.978138,0,0,-5.9776,164.7115,237.10599)"/>
<use data-text="i" xlink:href="#font_7_66" transform="matrix(5.978138,0,0,-5.9776,170.86463,237.10599)"/>
<use data-text="n" xlink:href="#font_7_77" transform="matrix(5.978138,0,0,-5.9776,172.96892,237.10599)"/>
<path transform="matrix(1.00009,0,0,-1,132.09415,228.971)" stroke-width=".3985" stroke-linecap="butt" stroke-dasharray="2.98883,2.98883" stroke-miterlimit="10" stroke-linejoin="miter" fill="none" stroke="#000000" d="M0 75.59119H37.7956"/>
<use data-text="r" xlink:href="#font_4_2" transform="matrix(5.978138,0,0,-5.9776,134.42636,161.51499)"/>
<use data-text="2" xlink:href="#font_5_2" transform="matrix(4.981748,0,0,-4.9813,137.89267,162.66599)"/>
<use data-text="=" xlink:href="#font_6_6" transform="matrix(5.978138,0,0,-5.9776,143.9032,161.51499)"/>
<use data-text="1" xlink:href="#font_6_2" transform="matrix(5.978138,0,0,-5.9776,151.60903,161.51499)"/>
<use data-text="0" xlink:href="#font_6_1" transform="matrix(5.978138,0,0,-5.9776,155.26166,161.51499)"/>
<use data-text="i" xlink:href="#font_7_66" transform="matrix(5.978138,0,0,-5.9776,161.41478,161.51499)"/>
<use data-text="n" xlink:href="#font_7_77" transform="matrix(5.978138,0,0,-5.9776,163.51908,161.51499)"/>
<path transform="matrix(1.00009,0,0,-1,132.09415,228.971)" stroke-width=".3985" stroke-linecap="butt" stroke-dasharray="2.98883,2.98883" stroke-miterlimit="10" stroke-linejoin="miter" fill="none" stroke="#000000" d="M0 151.18283H18.89757"/>
<use data-text="r" xlink:href="#font_4_2" transform="matrix(5.978138,0,0,-5.9776,126.80267,85.92299)"/>
<use data-text="3" xlink:href="#font_5_3" transform="matrix(4.981748,0,0,-4.9813,130.26898,87.07399)"/>
<use data-text="=" xlink:href="#font_6_6" transform="matrix(5.978138,0,0,-5.9776,136.27951,85.92299)"/>
<use data-text="5" xlink:href="#font_6_5" transform="matrix(5.978138,0,0,-5.9776,143.98534,85.92299)"/>
<use data-text="i" xlink:href="#font_7_66" transform="matrix(5.978138,0,0,-5.9776,150.13776,85.92299)"/>
<use data-text="n" xlink:href="#font_7_77" transform="matrix(5.978138,0,0,-5.9776,152.24207,85.92299)"/>
<path transform="matrix(1.00009,0,0,-1,132.09415,228.971)" stroke-width=".3985" stroke-linecap="butt" stroke-miterlimit="10" stroke-linejoin="miter" fill="none" stroke="#000000" d="M-96.11221 0C-99.10107 1.49435-101.0936 4.98138-101.0936 9.96277V103.42447C-101.0936 108.40585-103.08612 111.89288-106.07498 113.38724-103.08612 114.88159-101.0936 118.36862-101.0936 123.35V216.8117C-101.0936 221.79309-99.10107 225.28012-96.11221 226.77448"/>
<use data-text="6" xlink:href="#font_1_4" transform="matrix(9.963496,0,0,-9.9626,.81333926,118.856998)"/>
<use data-text="0" xlink:href="#font_1_2" transform="matrix(9.963496,0,0,-9.9626,5.7950747,118.856998)"/>
<use data-text="i" xlink:href="#font_3_66" transform="matrix(9.963496,0,0,-9.9626,14.094528,118.856998)"/>
<use data-text="n" xlink:href="#font_3_77" transform="matrix(9.963496,0,0,-9.9626,16.86438,118.856998)"/>
<path transform="matrix(1.00009,0,0,-1,132.09415,228.971)" stroke-width=".3985" stroke-linecap="butt" stroke-miterlimit="10" stroke-linejoin="miter" fill="none" stroke="#000000" d="M-56.69362 0V0"/>
<use data-text="h" xlink:href="#font_4_1" transform="matrix(5.978138,0,0,-5.9776,40.85794,230.471)"/>
<use data-text="1" xlink:href="#font_5_1" transform="matrix(4.981748,0,0,-4.9813,45.19632,231.622)"/>
<use data-text="=" xlink:href="#font_6_6" transform="matrix(5.978138,0,0,-5.9776,51.20587,230.471)"/>
<use data-text="0" xlink:href="#font_6_1" transform="matrix(5.978138,0,0,-5.9776,58.917665,230.471)"/>
<use data-text="i" xlink:href="#font_7_66" transform="matrix(5.978138,0,0,-5.9776,65.06511,230.471)"/>
<use data-text="n" xlink:href="#font_7_77" transform="matrix(5.978138,0,0,-5.9776,67.16942,230.471)"/>
<path transform="matrix(1.00009,0,0,-1,132.09415,228.971)" stroke-width=".3985" stroke-linecap="butt" stroke-miterlimit="10" stroke-linejoin="miter" fill="none" stroke="#000000" d="M-56.69362 75.59119V75.59119"/>
<use data-text="h" xlink:href="#font_4_1" transform="matrix(5.978138,0,0,-5.9776,37.204614,154.87999)"/>
<use data-text="2" xlink:href="#font_5_2" transform="matrix(4.981748,0,0,-4.9813,41.54299,156.03099)"/>
<use data-text="=" xlink:href="#font_6_6" transform="matrix(5.978138,0,0,-5.9776,47.552545,154.87999)"/>
<use data-text="2" xlink:href="#font_6_3" transform="matrix(5.978138,0,0,-5.9776,55.264337,154.87999)"/>
<use data-text="0" xlink:href="#font_6_1" transform="matrix(5.978138,0,0,-5.9776,58.916986,154.87999)"/>
<use data-text="i" xlink:href="#font_7_66" transform="matrix(5.978138,0,0,-5.9776,65.06512,154.87999)"/>
<use data-text="n" xlink:href="#font_7_77" transform="matrix(5.978138,0,0,-5.9776,67.16941,154.87999)"/>
<path transform="matrix(1.00009,0,0,-1,132.09415,228.971)" stroke-width=".3985" stroke-linecap="butt" stroke-miterlimit="10" stroke-linejoin="miter" fill="none" stroke="#000000" d="M-37.7956 151.18283V151.18283"/>
<use data-text="h" xlink:href="#font_4_1" transform="matrix(5.978138,0,0,-5.9776,56.10431,79.287998)"/>
<use data-text="3" xlink:href="#font_5_3" transform="matrix(4.981748,0,0,-4.9813,60.442689,80.438999)"/>
<use data-text="=" xlink:href="#font_6_6" transform="matrix(5.978138,0,0,-5.9776,66.45224,79.287998)"/>
<use data-text="4" xlink:href="#font_6_4" transform="matrix(5.978138,0,0,-5.9776,74.16403,79.287998)"/>
<use data-text="0" xlink:href="#font_6_1" transform="matrix(5.978138,0,0,-5.9776,77.81668,79.287998)"/>
<use data-text="i" xlink:href="#font_7_66" transform="matrix(5.978138,0,0,-5.9776,83.96481,79.287998)"/>
<use data-text="n" xlink:href="#font_7_77" transform="matrix(5.978138,0,0,-5.9776,86.06911,79.287998)"/>
</svg>
