<svg xmlns="http://www.w3.org/2000/svg" xmlns:xlink="http://www.w3.org/1999/xlink" version="1.1" width="162" height="106" viewBox="0 0 162 106">
<defs>
<path id="font_1_1" d="M.47399903 .40820313C.44198609 .40219117 .42999269 .3781891 .42999269 .3591919 .42999269 .33518983 .44898988 .3271942 .46299745 .3271942 .49299623 .3271942 .5139923 .3531952 .5139923 .380188 .5139923 .4223938 .46598817 .44140626 .42399598 .44140626 .36299134 .44140626 .32899476 .38119508 .31999208 .36219789 .29699708 .4373932 .23498535 .44140626 .21699524 .44140626 .114990238 .44140626 .06098938 .31021119 .06098938 .28822328 .06098938 .28422547 .06498718 .27923585 .07199097 .27923585 .07998657 .27923585 .08198547 .28523255 .083999637 .2892151 .117996219 .40019227 .18499756 .42140199 .21398926 .42140199 .25898744 .42140199 .2679901 .37919618 .2679901 .3551941 .2679901 .33319093 .2619934 .31021119 .25 .26223756L.21598816 .12535095C.20098877 .06535339 .17199707 .010223389 .11898804 .010223389 .11399841 .010223389 .08898926 .010223389 .067993167 .023330689 .10398865 .03036499 .11199951 .06036377 .11199951 .07235718 .11199951 .09236145 .09700012 .10435486 .07798767 .10435486 .053985597 .10435486 .027999878 .083358768 .027999878 .051361085 .027999878 .009231567 .07499695-.009765625 .117996219-.009765625 .1659851-.009765625 .19999695 .028366089 .22099304 .069366458 .23699951 .010223389 .2869873-.009765625 .32398988-.009765625 .42599488-.009765625 .47999574 .12135315 .47999574 .1433258 .47999574 .14833069 .47599793 .15232849 .46998597 .15232849 .46099855 .15232849 .45999146 .14732361 .45700074 .139328 .42999269 .051361085 .37199403 .010223389 .32699586 .010223389 .2919922 .010223389 .272995 .036361696 .272995 .07736206 .272995 .099365238 .2769928 .115356449 .29299928 .18130493L.32798768 .3171997C.34298707 .37719728 .3769989 .42140199 .4229889 .42140199 .4249878 .42140199 .45298768 .42140199 .47399903 .40820313Z"/>
<path id="font_1_2" d="M.2630005-.11172485C.23599243-.14982605 .19699097-.18411255 .147995-.18411255 .13598633-.18411255 .08799744-.18209839 .07299805-.13572693 .07598877-.13671875 .08099365-.13671875 .08299255-.13671875 .11299133-.13671875 .1329956-.11073303 .1329956-.08772278 .1329956-.06472778 .11399841-.056732179 .09899902-.056732179 .08299255-.056732179 .04798889-.068725589 .04798889-.11772156 .04798889-.16899109 .09098816-.20410156 .147995-.20410156 .24798584-.20410156 .34899903-.11172485 .3769989-.00077819827L.47499085 .38868714C.47599793 .39367677 .47799684 .39967347 .47799684 .4056549 .47799684 .4206543 .46598817 .43066407 .45098878 .43066407 .44198609 .43066407 .42099 .426651 .41299439 .39666749L.33898927 .10308838C.33399964 .085113529 .33399964 .08312988 .32598878 .072143558 .30599977 .04423523 .272995 .010223389 .22499085 .010223389 .16899109 .010223389 .1639862 .06524658 .1639862 .09225464 .1639862 .14929199 .19099427 .22631836 .21798706 .2983551 .22898865 .32736207 .23498535 .34136964 .23498535 .3613739 .23498535 .4033966 .20498657 .44140626 .1559906 .44140626 .06399536 .44140626 .026992798 .29634095 .026992798 .28834535 .026992798 .28434754 .0309906 .27934266 .037994386 .27934266 .04699707 .27934266 .04798889 .28334046 .051986696 .29734803 .07598877 .38137818 .11399841 .42140199 .15299988 .42140199 .1619873 .42140199 .1789856 .42140199 .1789856 .38838197 .1789856 .36238099 .16799927 .33335877 .15299988 .29534913 .10398865 .16429138 .10398865 .13127136 .10398865 .10726929 .10398865 .01222229 .17199707-.009765625 .22200012-.009765625 .25099183-.009765625 .2869873-.00077819827 .32199098 .036239625L.32299806 .035232545C.30799867-.023757935 .2979889-.06272888 .2630005-.11172485Z"/>
<path id="font_2_1" d="M.43099977 .39065553H.5329895C.5529938 .39065553 .5669861 .39065553 .5669861 .4156494 .5669861 .43066407 .55400088 .43066407 .5359955 .43066407H.43798829C.46798707 .5951538 .46798707 .5971527 .47200013 .6151428 .47698976 .637146 .47898866 .6461487 .49398805 .6581421 .5059967 .66711428 .5149994 .6710968 .5299988 .6710968 .54599 .6710968 .56199648 .66911318 .57598879 .6621399 .55599978 .6541443 .5379944 .6321411 .5379944 .6081543 .5379944 .58714297 .5549927 .57014468 .57899478 .57014468 .6049957 .57014468 .6359863 .5921478 .6359863 .6311493 .6359863 .6860962 .57398989 .70410159 .5299988 .70410159 .4850006 .70410159 .4169922 .6830902 .3869934 .58314517 .3789978 .55810549 .37599183 .53804019 .36898805 .50190737 .3639984 .47280885 .3619995 .45976258 .35598756 .43066407H.27398683C.2539978 .43066407 .23999024 .43066407 .23999024 .4056549 .23999024 .39065553 .25299073 .39065553 .2709961 .39065553H.34899903C.30999757 .16674805 .29599 .089767459 .2919922 .071777347 .26098634-.10015869 .2559967-.11016846 .24699402-.12716675 .23298645-.15116883 .21598816-.17111206 .19099427-.17111206 .18499756-.17111206 .16299439-.16912842 .14698792-.16215515 .16699219-.15415955 .18499756-.13215637 .18499756-.108169559 .18499756-.0871582 .16799927-.07015991 .14399719-.07015991 .117996219-.07015991 .08699036-.092163089 .08699036-.13116455 .08699036-.18710327 .1499939-.20410156 .18998719-.20410156 .24499512-.20410156 .28399659-.15916443 .3019867-.13716126 .34599305-.07817078 .36698915 .040786745 .36898805 .04978943L.43099977 .39065553Z"/>
<path id="font_3_1" d="M.397995-.22601319C.28799439-.14201355 .19799805 .015991211 .19799805 .25 .19799805 .48098756 .28599549 .6409912 .397995 .7259979 .397995 .72698977 .40098573 .73098757 .40098573 .73599246 .40098573 .74198916 .39698792 .75 .3849945 .75 .36698915 .75 .12599182 .59298709 .12599182 .25 .12599182-.0920105 .3659973-.25 .3849945-.25 .39698792-.25 .40098573-.2420044 .40098573-.23600769 .40098573-.23100281 .397995-.227005 .397995-.22601319Z"/>
<path id="font_2_4" d="M.5629883 .39352418C.5279999 .38352967 .519989 .3545227 .519989 .33952333 .519989 .30752564 .54599 .30052186 .55999758 .30052186 .58898928 .30052186 .6179962 .32452394 .6179962 .3635254 .6179962 .41740418 .5589905 .44140626 .5079956 .44140626 .44198609 .44140626 .4019928 .3905182 .3909912 .371521 .37799073 .39649964 .33999635 .44140626 .2649994 .44140626 .1499939 .44140626 .08198547 .32252503 .08198547 .28749085 .08198547 .2824707 .085998538 .27345277 .099990848 .27345277 .11399841 .27345277 .116989139 .27946473 .11999512 .28848268 .14498902 .3695221 .21299744 .4084015 .2619934 .4084015 .31098939 .4084015 .32598878 .37652589 .32598878 .34352113 .32598878 .3315277 .32598878 .32252503 .31799317 .29148866 .29499818 .19825745 .272995 .10707092 .2679901 .095077518 .25299073 .05708313 .21699524 .023223877 .1749878 .023223877 .16899109 .023223877 .14099121 .023223877 .117996219 .038085939 .15699768 .051071168 .16099549 .08407593 .16099549 .09207153 .16099549 .11807251 .14099121 .13108826 .12098694 .13108826 .09298706 .13108826 .06298828 .10908508 .06298828 .06808472 .06298828 .011230469 .12599182-.009765625 .17298889-.009765625 .22999573-.009765625 .2709961 .029159546 .2899933 .060073854 .30999757 .018234253 .35798646-.009765625 .4149933-.009765625 .5329895-.009765625 .598999 .111083988 .598999 .14411927 .598999 .14611817 .59799197 .15815735 .5799866 .15815735 .56599429 .15815735 .56399539 .1511383 .5609894 .1421051 .5319977 .05508423 .46099855 .023223877 .4189911 .023223877 .3809967 .023223877 .35398866 .045074464 .35398866 .08708191 .35398866 .1060791 .35899354 .12808228 .36799623 .16316223L.3999939 .2935028C.4099884 .33251954 .4149933 .3505249 .43598939 .37452699 .44999696 .38952638 .47399903 .4084015 .5059967 .4084015 .5109863 .4084015 .54100039 .4084015 .5629883 .39352418Z"/>
<path id="font_3_2" d="M.35398866 .25C.35398866 .59199526 .11399841 .75 .09498596 .75 .08299255 .75 .07998657 .7409973 .07998657 .73599246 .07998657 .7299957 .08099365 .72898867 .09899902 .71299746 .18899536 .6360016 .28199769 .48799134 .28199769 .25 .28199769 .037994386 .20799256-.1210022 .09498596-.21600342 .08099365-.2290039 .07998657-.23001099 .07998657-.23600769 .07998657-.24101258 .08299255-.25 .09498596-.25 .11299133-.25 .35398866-.09300232 .35398866 .25Z"/>
<path id="font_2_2" d="M.5669861 .36535646C.57099917 .38136292 .57099917 .3863678 .57099917 .38937379 .57099917 .4113922 .55400088 .4223938 .5359955 .4223938 .5189972 .4223938 .49499513 .4104004 .4889984 .38237 .47799684 .39938355 .44400025 .44140626 .37799073 .44140626 .24398804 .44140626 .11199951 .30429078 .11199951 .1681366 .11199951 .06903076 .18099976 0 .2749939 0 .32699586 0 .37399293 .025985718 .40699769 .054016115L.3849945-.036026C.37399293-.077056888 .36698915-.10507202 .32598878-.13609314 .27999879-.17111206 .23999024-.17111206 .20999146-.17111206 .1659851-.17111206 .15299988-.16911316 .13398743-.1651001 .1559906-.15109253 .1599884-.12908936 .1599884-.11907959 .1599884-.08706665 .13398743-.080062869 .11999512-.080062869 .08799744-.080062869 .06199646-.108078 .06199646-.14109802 .06199646-.20410156 .15699768-.20410156 .21099854-.20410156 .34199525-.20410156 .43699647-.15409851 .45999146-.062042238L.5669861 .36535646M.42799378 .13911438C.4229889 .12208557 .4229889 .12008667 .40899659 .10406494 .37298585 .062026979 .32299806 .032989503 .27799989 .032989503 .24099732 .032989503 .19799805 .056015016 .19799805 .13009644 .19799805 .17414856 .22099304 .27424623 .2519989 .3243103 .2889862 .38337709 .33898927 .4084015 .37799073 .4084015 .45298768 .4084015 .47399903 .33432008 .47399903 .3243103 .47399903 .31930543 .47200013 .31329347 .47099305 .30828858L.42799378 .13911438Z"/>
<path id="font_2_3" d="M.33299256 .66430667C.33399964 .66830447 .33599855 .67430117 .33599855 .67930606 .33599855 .6953125 .31599427 .6943054 .3039856 .69329836L.19198609 .6843109C.1749878 .68330386 .1619873 .682312 .1619873 .65930178 .1619873 .64331057 .1749878 .64331057 .18998719 .64331057 .21998596 .64331057 .22698975 .64131167 .23999024 .63630679 .23999024 .62431338 .23999024 .62231448 .23599243 .60632327L.09599304 .04724121C.09199524 .031234742 .09199524 .026229859 .09199524 .024230957 .09199524-.00077819827 .11199951-.009765625 .1269989-.009765625 .13699341-.009765625 .15499878-.0057678224 .16799927 .01322937 .17098999 .020233155 .17999268 .053237916 .18499756 .07424927 .18998719 .09326172 .20098877 .13928223 .20698548 .16429138 .21398926 .19030762 .21899414 .20831299 .22399903 .23132324 .22799683 .24632263 .23298645 .264328 .26098634 .3053589 .2939911 .3533783 .34599305 .4084015 .4229889 .4084015 .48599244 .4084015 .48599244 .35638429 .48599244 .33836366 .48599244 .27934266 .44400025 .17329407 .4249878 .12727356 .4189911 .11026001 .4119873 .09425354 .4119873 .07725525 .4119873 .026229859 .45799256-.009765625 .5130005-.009765625 .6139984-.009765625 .6639862 .12226868 .6639862 .14428711 .6639862 .14628601 .6629944 .15829468 .644989 .15829468 .6309967 .15829468 .6299896 .1532898 .6239929 .13427735 .60798647 .08226013 .5669861 .023223877 .5159912 .023223877 .49699403 .023223877 .4889984 .038238527 .4889984 .059249879 .4889984 .07925415 .49598695 .09625244 .5049896 .117263797 .519989 .15628052 .5649872 .2693329 .5649872 .32536317 .5649872 .4044037 .5079956 .44140626 .4269867 .44140626 .34799195 .44140626 .29499818 .39839173 .25498963 .3533783L.33299256 .66430667Z"/>
</defs>
<path transform="matrix(1.00005,0,0,-1.00002,29.377518,76.00356)" stroke-width=".3985" stroke-linecap="butt" stroke-miterlimit="10" stroke-linejoin="miter" fill="none" stroke="#000000" d="M-28.3468 0H118.59822"/>
<path transform="matrix(1.00005,0,0,-1.00002,147.98166,76.00356)" stroke-width=".31879" stroke-linecap="round" stroke-linejoin="round" fill="none" stroke="#000000" d="M-1.19551 1.59401C-1.09587 .99626 0 .09961 .29886 0 0-.09961-1.09587-.99626-1.19551-1.59401"/>
<use data-text="x" xlink:href="#font_1_1" transform="matrix(11.955797,0,0,-11.95544,152.62368,85.33475)"/>
<path transform="matrix(1.00005,0,0,-1.00002,29.377518,76.00356)" stroke-width=".3985" stroke-linecap="butt" stroke-miterlimit="10" stroke-linejoin="miter" fill="none" stroke="#000000" d="M0-28.3468V61.9046"/>
<path transform="matrix(0,-1.00002,-1.00005,-0,29.377518,14.097725)" stroke-width=".31879" stroke-linecap="round" stroke-linejoin="round" fill="none" stroke="#000000" d="M-1.19551 1.59401C-1.09587 .99626 0 .09961 .29886 0 0-.09961-1.09587-.99626-1.19551-1.59401"/>
<use data-text="y" xlink:href="#font_1_2" transform="matrix(11.955797,0,0,-11.95544,26.309365,7.13118)"/>
<path transform="matrix(1.00005,0,0,-1.00002,29.377518,76.00356)" stroke-width=".3985" stroke-linecap="butt" stroke-miterlimit="10" stroke-linejoin="miter" fill="none" stroke="#ff8000" d="M28.3468 28.3468 29.20538 27.51329 30.06396 26.7252 30.92256 25.98557 31.78114 25.28268 32.63974 24.61919 33.49832 23.9842 34.3569 23.38904 35.2155 22.81636 36.0741 22.27483 36.93266 21.75319 37.79126 21.2601 38.64986 20.7869 39.50844 20.33878 40.36702 19.90495 41.22562 19.49144 42.08421 19.09135 42.94278 18.71158 43.80138 18.34305 44.65997 17.99184 45.51854 17.65143 46.37714 17.32573 47.23573 17.00824 48.09433 16.70764 48.9529 16.41264 49.8115 16.12932 50.67009 15.85727 51.52867 15.5934 52.38725 15.33563 53.24585 15.08907 54.10443 14.85074 54.96301 14.61847 55.82161 14.39183 56.68019 14.17642 57.53879 13.96361 58.39737 13.75946 59.25597 13.55832 60.11455 13.3654 60.97313 13.17554 61.83173 12.9943 62.6903 12.81566 63.5489 12.64394 64.40749 12.47525 65.26607 12.31174 66.12466 12.15128 66.98326 11.99513 67.84184 11.8433 68.70042 11.69624 69.55902 11.55133 70.4176 11.41121 71.27618 11.27193 72.13478 11.13828 72.99338 11.00722 73.85194 10.88048 74.71054 10.75504 75.56914 10.63306 76.4277 10.51282 77.2863 10.39603 78.1449 10.28185 79.0035 10.17111 79.86206 10.06212 80.72066 9.95442 81.57925 9.84886 82.43782 9.74722 83.29642 9.64645 84.15501 9.5474 85.0136 9.45181 85.87218 9.35751 86.73077 9.26408 87.58937 9.17369 88.44795 9.085 89.30653 8.99678 90.16513 8.912 91.02371 8.82808 91.8823 8.74591 92.74089 8.66501 93.59947 8.58456 94.45807 8.50671 95.31665 8.43059 96.17523 8.35489 97.03383 8.28136 97.89241 8.20912 98.751 8.13733 99.60959 8.06726 100.46819 7.99762 101.32677 7.931 102.18535 7.86353 103.04395 7.79865 103.90254 7.73376 104.76111 7.67105 105.6197 7.60876 106.4783 7.54648 107.33688 7.48679 108.19547 7.42711 109.05406 7.36914 109.91266 7.31161 110.77122 7.25322 111.62982 7.19786 112.48842 7.14249 113.34698 7.08885"/>
<path transform="matrix(1.00005,0,0,-1.00002,29.377518,76.00356)" stroke-width=".3985" stroke-linecap="butt" stroke-dasharray="2.98883,2.98883" stroke-miterlimit="10" stroke-linejoin="miter" fill="none" stroke="#000000" d="M28.3468-28.3468V56.69362"/>
<path transform="matrix(1.00005,0,0,-1.00002,29.377518,76.00356)" d="M28.3468 0V28.3468L31.89014 25.19748 35.43349 22.67752 38.97685 20.61647 42.5202 18.89886 46.06355 17.44165 49.6069 16.19724 53.15025 15.11719 56.69362 14.17339 60.23695 13.3373 63.7803 12.59808 67.32365 11.935 70.867 11.33855 74.41037 10.79916 77.95372 10.30823 81.49707 9.8597 85.04042 9.44878 88.58376 9.07117 92.1271 8.7221 95.67047 8.399 99.21382 8.09883 102.75717 7.81898 106.30052 7.55858 109.84387 7.3155 113.38724 7.08669V0Z" fill="#ff8000" fill-opacity=".2"/>
<path transform="matrix(1.00005,0,0,-1.00002,29.377518,76.00356)" stroke-width=".3985" stroke-linecap="butt" stroke-miterlimit="10" stroke-linejoin="miter" fill="none" stroke="#ff0000" d="M28.3468 28.3468 29.20538 26.69968 30.06396 25.20052 30.92256 23.81985 31.78114 22.54993 32.63974 21.37904 33.49832 20.299 34.3569 19.2955 35.2155 18.36858 36.0741 17.50394 36.93266 16.69899 37.79126 15.9481 38.64986 15.24782 39.50844 14.58992 40.36702 13.97787 41.22562 13.40218 42.08421 12.86107 42.94278 12.35196 43.80138 11.87186 44.65997 11.41986 45.51854 10.99336 46.37714 10.59111 47.23573 10.20831 48.09433 9.84671 48.9529 9.50545 49.8115 9.1806 50.67009 8.87178 51.52867 8.57808 52.38725 8.3004 53.24585 8.03482 54.10443 7.78134 54.96301 7.54042 55.82161 7.31075 56.68019 7.09015 57.53879 6.87994 58.39737 6.67924 59.25597 6.48676 60.11455 6.30336 60.97313 6.12689 61.83173 5.95776 62.6903 5.79599 63.5489 5.64027 64.40749 5.49106 65.26607 5.34746 66.12466 5.20905 66.98326 5.07668 67.84184 4.94865 68.70042 4.82623 69.55902 4.70773 70.4176 4.59354 71.27618 4.48367 72.13478 4.3777 72.99338 4.27477 73.85194 4.17615 74.71054 4.08098 75.56914 3.98799 76.4277 3.89932 77.2863 3.81325 78.1449 3.72977 79.0035 3.6493 79.86206 3.57146 80.72066 3.49576 81.57925 3.42265 82.43782 3.35173 83.29642 3.28252 84.15501 3.21591 85.0136 3.15146 85.87218 3.08875 86.73077 3.02818 87.58937 2.96892 88.44795 2.91139 89.30653 2.85603 90.16513 2.80196 91.02371 2.74876 91.8823 2.69817 92.74089 2.64798 93.59947 2.59998 94.45807 2.55283 95.31665 2.50699 96.17523 2.46284 97.03383 2.41917 97.89241 2.37677 98.751 2.33568 99.60959 2.29546 100.46819 2.25653 101.32677 2.21848 102.18535 2.18127 103.04395 2.14494 103.90254 2.10991 104.76111 2.0753 105.6197 2.04199 106.4783 2.00911 107.33688 1.97668 108.19547 1.94554 109.05406 1.91525 109.91266 1.88542 110.77122 1.856 111.62982 1.8279 112.48842 1.80022 113.34698 1.77295"/>
<path transform="matrix(1.00005,0,0,-1.00002,29.377518,76.00356)" stroke-width=".3985" stroke-linecap="butt" stroke-miterlimit="10" stroke-linejoin="miter" fill="none" stroke="#0000ff" d="M28.3468 28.3468 29.20538 27.92464 30.06396 27.52454 30.92256 27.13914 31.78114 26.77063 32.63974 26.41638 33.49832 26.0764 34.3569 25.74725 35.2155 25.43538 36.0741 25.12958 36.93266 24.83458 37.79126 24.54825 38.64986 24.27618 39.50844 24.00974 40.36702 23.75455 41.22562 23.50496 42.08421 23.26404 42.94278 23.02873 43.80138 22.80511 44.65997 22.58669 45.51854 22.37129 46.37714 22.16452 47.23573 21.95735 48.09433 21.76184 48.9529 21.57195 49.8115 21.38206 50.67009 21.2004 51.52867 21.02478 52.38725 20.85178 53.24585 20.68483 54.10443 20.52046 54.96301 20.36171 55.82161 20.19994 56.68019 20.04683 57.53879 19.89674 58.39737 19.74924 59.25597 19.60175 60.11455 19.46593 60.97313 19.32664 61.83173 19.19344 62.6903 19.0576 63.5489 18.93262 64.40749 18.80544 65.26607 18.68347 66.12466 18.55846 66.98326 18.4395 67.84184 18.32317 68.70042 18.20984 69.55902 18.09392 70.4176 17.9862 71.27618 17.87851 72.13478 17.7708 72.99338 17.6657 73.85194 17.56104 74.71054 17.46155 75.56914 17.35947 76.4277 17.26302 77.2863 17.16698 78.1449 17.07312 79.0035 16.97969 79.86206 16.88885 80.72066 16.79846 81.57925 16.71022 82.43782 16.6224 83.29642 16.53764 84.15501 16.45244 85.0136 16.36722 85.87218 16.28503 86.73077 16.20587 87.58937 16.1263 88.44795 16.04713 89.30653 15.97058 90.16513 15.89403 91.02371 15.8205 91.8823 15.74394 92.74089 15.673 93.59947 15.59903 94.45807 15.52852 95.31665 15.46019 96.17523 15.38925 97.03383 15.32135 97.89241 15.25345 98.751 15.18813 99.60959 15.12282 100.46819 15.05794 101.32677 14.99565 102.18535 14.93033 103.04395 14.86804 103.90254 14.80531 104.76111 14.74606 105.6197 14.68639 106.4783 14.62712 107.33688 14.56743 108.19547 14.51077 109.05406 14.45412 109.91266 14.39441 110.77122 14.34077 111.62982 14.28673 112.48842 14.23004 113.34698 14.17642"/>
<path transform="matrix(1.00005,0,0,-1.00002,29.377518,76.00356)" stroke-width=".3985" stroke-linecap="butt" stroke-miterlimit="10" stroke-linejoin="miter" fill="none" stroke="#ff8000" d="M113.38724 7.08669V7.08669"/>
<use data-text="f" xlink:href="#font_2_1" transform="matrix(5.9778988,0,0,-5.97772,146.95439,70.41145)" fill="#ff8000"/>
<use data-text="(" xlink:href="#font_3_1" transform="matrix(5.9778988,0,0,-5.97772,151.22962,70.41145)" fill="#ff8000"/>
<use data-text="x" xlink:href="#font_2_4" transform="matrix(5.9778988,0,0,-5.97772,154.10875,70.41145)" fill="#ff8000"/>
<use data-text=")" xlink:href="#font_3_2" transform="matrix(5.9778988,0,0,-5.97772,158.27997,70.41145)" fill="#ff8000"/>
<path transform="matrix(1.00005,0,0,-1.00002,29.377518,76.00356)" stroke-width=".3985" stroke-linecap="butt" stroke-miterlimit="10" stroke-linejoin="miter" fill="none" stroke="#ff0000" d="M113.38724 1.77167V1.77167"/>
<use data-text="g" xlink:href="#font_2_2" transform="matrix(5.9778988,0,0,-5.97772,146.95439,75.726558)" fill="#ff0000"/>
<use data-text="(" xlink:href="#font_3_1" transform="matrix(5.9778988,0,0,-5.97772,150.80158,75.726558)" fill="#ff0000"/>
<use data-text="x" xlink:href="#font_2_4" transform="matrix(5.9778988,0,0,-5.97772,153.67972,75.726558)" fill="#ff0000"/>
<use data-text=")" xlink:href="#font_3_2" transform="matrix(5.9778988,0,0,-5.97772,157.85193,75.726558)" fill="#ff0000"/>
<path transform="matrix(1.00005,0,0,-1.00002,29.377518,76.00356)" stroke-width=".3985" stroke-linecap="butt" stroke-miterlimit="10" stroke-linejoin="miter" fill="none" stroke="#0000ff" d="M113.38724 14.17339V14.17339"/>
<use data-text="h" xlink:href="#font_2_3" transform="matrix(5.9778988,0,0,-5.97772,146.95439,63.32431)" fill="#0000ff"/>
<use data-text="(" xlink:href="#font_3_1" transform="matrix(5.9778988,0,0,-5.97772,151.2926,63.32431)" fill="#0000ff"/>
<use data-text="x" xlink:href="#font_2_4" transform="matrix(5.9778988,0,0,-5.97772,154.17075,63.32431)" fill="#0000ff"/>
<use data-text=")" xlink:href="#font_3_2" transform="matrix(5.9778988,0,0,-5.97772,158.34296,63.32431)" fill="#0000ff"/>
</svg>
