<svg xmlns="http://www.w3.org/2000/svg" xmlns:xlink="http://www.w3.org/1999/xlink" version="1.1" width="104" height="162" viewBox="0 0 104 162">
<defs>
<path id="font_1_1" d="M.47399903 .40820313C.44198609 .40219117 .42999269 .3781891 .42999269 .3591919 .42999269 .33518983 .44898988 .3271942 .46299745 .3271942 .49299623 .3271942 .5139923 .3531952 .5139923 .380188 .5139923 .4223938 .46598817 .44140626 .42399598 .44140626 .36299134 .44140626 .32899476 .38119508 .31999208 .36219789 .29699708 .4373932 .23498535 .44140626 .21699524 .44140626 .114990238 .44140626 .06098938 .31021119 .06098938 .28822328 .06098938 .28422547 .06498718 .27923585 .07199097 .27923585 .07998657 .27923585 .08198547 .28523255 .083999637 .2892151 .117996219 .40019227 .18499756 .42140199 .21398926 .42140199 .25898744 .42140199 .2679901 .37919618 .2679901 .3551941 .2679901 .33319093 .2619934 .31021119 .25 .26223756L.21598816 .12535095C.20098877 .06535339 .17199707 .010223389 .11898804 .010223389 .11399841 .010223389 .08898926 .010223389 .067993167 .023330689 .10398865 .03036499 .11199951 .06036377 .11199951 .07235718 .11199951 .09236145 .09700012 .10435486 .07798767 .10435486 .053985597 .10435486 .027999878 .083358768 .027999878 .051361085 .027999878 .009231567 .07499695-.009765625 .117996219-.009765625 .1659851-.009765625 .19999695 .028366089 .22099304 .069366458 .23699951 .010223389 .2869873-.009765625 .32398988-.009765625 .42599488-.009765625 .47999574 .12135315 .47999574 .1433258 .47999574 .14833069 .47599793 .15232849 .46998597 .15232849 .46099855 .15232849 .45999146 .14732361 .45700074 .139328 .42999269 .051361085 .37199403 .010223389 .32699586 .010223389 .2919922 .010223389 .272995 .036361696 .272995 .07736206 .272995 .099365238 .2769928 .115356449 .29299928 .18130493L.32798768 .3171997C.34298707 .37719728 .3769989 .42140199 .4229889 .42140199 .4249878 .42140199 .45298768 .42140199 .47399903 .40820313Z"/>
<path id="font_1_2" d="M.2630005-.11172485C.23599243-.14982605 .19699097-.18411255 .147995-.18411255 .13598633-.18411255 .08799744-.18209839 .07299805-.13572693 .07598877-.13671875 .08099365-.13671875 .08299255-.13671875 .11299133-.13671875 .1329956-.11073303 .1329956-.08772278 .1329956-.06472778 .11399841-.056732179 .09899902-.056732179 .08299255-.056732179 .04798889-.068725589 .04798889-.11772156 .04798889-.16899109 .09098816-.20410156 .147995-.20410156 .24798584-.20410156 .34899903-.11172485 .3769989-.00077819827L.47499085 .38868714C.47599793 .39367677 .47799684 .39967347 .47799684 .4056549 .47799684 .4206543 .46598817 .43066407 .45098878 .43066407 .44198609 .43066407 .42099 .426651 .41299439 .39666749L.33898927 .10308838C.33399964 .085113529 .33399964 .08312988 .32598878 .072143558 .30599977 .04423523 .272995 .010223389 .22499085 .010223389 .16899109 .010223389 .1639862 .06524658 .1639862 .09225464 .1639862 .14929199 .19099427 .22631836 .21798706 .2983551 .22898865 .32736207 .23498535 .34136964 .23498535 .3613739 .23498535 .4033966 .20498657 .44140626 .1559906 .44140626 .06399536 .44140626 .026992798 .29634095 .026992798 .28834535 .026992798 .28434754 .0309906 .27934266 .037994386 .27934266 .04699707 .27934266 .04798889 .28334046 .051986696 .29734803 .07598877 .38137818 .11399841 .42140199 .15299988 .42140199 .1619873 .42140199 .1789856 .42140199 .1789856 .38838197 .1789856 .36238099 .16799927 .33335877 .15299988 .29534913 .10398865 .16429138 .10398865 .13127136 .10398865 .10726929 .10398865 .01222229 .17199707-.009765625 .22200012-.009765625 .25099183-.009765625 .2869873-.00077819827 .32199098 .036239625L.32299806 .035232545C.30799867-.023757935 .2979889-.06272888 .2630005-.11172485Z"/>
<path id="font_2_1" d="M.43099977 .39065553H.5329895C.5529938 .39065553 .5669861 .39065553 .5669861 .4156494 .5669861 .43066407 .55400088 .43066407 .5359955 .43066407H.43798829C.46798707 .5951538 .46798707 .5971527 .47200013 .6151428 .47698976 .637146 .47898866 .6461487 .49398805 .6581421 .5059967 .66711428 .5149994 .6710968 .5299988 .6710968 .54599 .6710968 .56199648 .66911318 .57598879 .6621399 .55599978 .6541443 .5379944 .6321411 .5379944 .6081543 .5379944 .58714297 .5549927 .57014468 .57899478 .57014468 .6049957 .57014468 .6359863 .5921478 .6359863 .6311493 .6359863 .6860962 .57398989 .70410159 .5299988 .70410159 .4850006 .70410159 .4169922 .6830902 .3869934 .58314517 .3789978 .55810549 .37599183 .53804019 .36898805 .50190737 .3639984 .47280885 .3619995 .45976258 .35598756 .43066407H.27398683C.2539978 .43066407 .23999024 .43066407 .23999024 .4056549 .23999024 .39065553 .25299073 .39065553 .2709961 .39065553H.34899903C.30999757 .16674805 .29599 .089767459 .2919922 .071777347 .26098634-.10015869 .2559967-.11016846 .24699402-.12716675 .23298645-.15116883 .21598816-.17111206 .19099427-.17111206 .18499756-.17111206 .16299439-.16912842 .14698792-.16215515 .16699219-.15415955 .18499756-.13215637 .18499756-.108169559 .18499756-.0871582 .16799927-.07015991 .14399719-.07015991 .117996219-.07015991 .08699036-.092163089 .08699036-.13116455 .08699036-.18710327 .1499939-.20410156 .18998719-.20410156 .24499512-.20410156 .28399659-.15916443 .3019867-.13716126 .34599305-.07817078 .36698915 .040786745 .36898805 .04978943L.43099977 .39065553Z"/>
<path id="font_3_1" d="M.397995-.22601319C.28799439-.14201355 .19799805 .015991211 .19799805 .25 .19799805 .48098756 .28599549 .6409912 .397995 .7259979 .397995 .72698977 .40098573 .73098757 .40098573 .73599246 .40098573 .74198916 .39698792 .75 .3849945 .75 .36698915 .75 .12599182 .59298709 .12599182 .25 .12599182-.0920105 .3659973-.25 .3849945-.25 .39698792-.25 .40098573-.2420044 .40098573-.23600769 .40098573-.23100281 .397995-.227005 .397995-.22601319Z"/>
<path id="font_2_4" d="M.5629883 .39352418C.5279999 .38352967 .519989 .3545227 .519989 .33952333 .519989 .30752564 .54599 .30052186 .55999758 .30052186 .58898928 .30052186 .6179962 .32452394 .6179962 .3635254 .6179962 .41740418 .5589905 .44140626 .5079956 .44140626 .44198609 .44140626 .4019928 .3905182 .3909912 .371521 .37799073 .39649964 .33999635 .44140626 .2649994 .44140626 .1499939 .44140626 .08198547 .32252503 .08198547 .28749085 .08198547 .2824707 .085998538 .27345277 .099990848 .27345277 .11399841 .27345277 .116989139 .27946473 .11999512 .28848268 .14498902 .3695221 .21299744 .4084015 .2619934 .4084015 .31098939 .4084015 .32598878 .37652589 .32598878 .34352113 .32598878 .3315277 .32598878 .32252503 .31799317 .29148866 .29499818 .19825745 .272995 .10707092 .2679901 .095077518 .25299073 .05708313 .21699524 .023223877 .1749878 .023223877 .16899109 .023223877 .14099121 .023223877 .117996219 .038085939 .15699768 .051071168 .16099549 .08407593 .16099549 .09207153 .16099549 .11807251 .14099121 .13108826 .12098694 .13108826 .09298706 .13108826 .06298828 .10908508 .06298828 .06808472 .06298828 .011230469 .12599182-.009765625 .17298889-.009765625 .22999573-.009765625 .2709961 .029159546 .2899933 .060073854 .30999757 .018234253 .35798646-.009765625 .4149933-.009765625 .5329895-.009765625 .598999 .111083988 .598999 .14411927 .598999 .14611817 .59799197 .15815735 .5799866 .15815735 .56599429 .15815735 .56399539 .1511383 .5609894 .1421051 .5319977 .05508423 .46099855 .023223877 .4189911 .023223877 .3809967 .023223877 .35398866 .045074464 .35398866 .08708191 .35398866 .1060791 .35899354 .12808228 .36799623 .16316223L.3999939 .2935028C.4099884 .33251954 .4149933 .3505249 .43598939 .37452699 .44999696 .38952638 .47399903 .4084015 .5059967 .4084015 .5109863 .4084015 .54100039 .4084015 .5629883 .39352418Z"/>
<path id="font_3_2" d="M.35398866 .25C.35398866 .59199526 .11399841 .75 .09498596 .75 .08299255 .75 .07998657 .7409973 .07998657 .73599246 .07998657 .7299957 .08099365 .72898867 .09899902 .71299746 .18899536 .6360016 .28199769 .48799134 .28199769 .25 .28199769 .037994386 .20799256-.1210022 .09498596-.21600342 .08099365-.2290039 .07998657-.23001099 .07998657-.23600769 .07998657-.24101258 .08299255-.25 .09498596-.25 .11299133-.25 .35398866-.09300232 .35398866 .25Z"/>
<path id="font_2_3" d="M.33299256 .66430667C.33399964 .66830447 .33599855 .67430117 .33599855 .67930606 .33599855 .6953125 .31599427 .6943054 .3039856 .69329836L.19198609 .6843109C.1749878 .68330386 .1619873 .682312 .1619873 .65930178 .1619873 .64331057 .1749878 .64331057 .18998719 .64331057 .21998596 .64331057 .22698975 .64131167 .23999024 .63630679 .23999024 .62431338 .23999024 .62231448 .23599243 .60632327L.09599304 .04724121C.09199524 .031234742 .09199524 .026229859 .09199524 .024230957 .09199524-.00077819827 .11199951-.009765625 .1269989-.009765625 .13699341-.009765625 .15499878-.0057678224 .16799927 .01322937 .17098999 .020233155 .17999268 .053237916 .18499756 .07424927 .18998719 .09326172 .20098877 .13928223 .20698548 .16429138 .21398926 .19030762 .21899414 .20831299 .22399903 .23132324 .22799683 .24632263 .23298645 .264328 .26098634 .3053589 .2939911 .3533783 .34599305 .4084015 .4229889 .4084015 .48599244 .4084015 .48599244 .35638429 .48599244 .33836366 .48599244 .27934266 .44400025 .17329407 .4249878 .12727356 .4189911 .11026001 .4119873 .09425354 .4119873 .07725525 .4119873 .026229859 .45799256-.009765625 .5130005-.009765625 .6139984-.009765625 .6639862 .12226868 .6639862 .14428711 .6639862 .14628601 .6629944 .15829468 .644989 .15829468 .6309967 .15829468 .6299896 .1532898 .6239929 .13427735 .60798647 .08226013 .5669861 .023223877 .5159912 .023223877 .49699403 .023223877 .4889984 .038238527 .4889984 .059249879 .4889984 .07925415 .49598695 .09625244 .5049896 .117263797 .519989 .15628052 .5649872 .2693329 .5649872 .32536317 .5649872 .4044037 .5079956 .44140626 .4269867 .44140626 .34799195 .44140626 .29499818 .39839173 .25498963 .3533783L.33299256 .66430667Z"/>
<path id="font_2_2" d="M.5669861 .36535646C.57099917 .38136292 .57099917 .3863678 .57099917 .38937379 .57099917 .4113922 .55400088 .4223938 .5359955 .4223938 .5189972 .4223938 .49499513 .4104004 .4889984 .38237 .47799684 .39938355 .44400025 .44140626 .37799073 .44140626 .24398804 .44140626 .11199951 .30429078 .11199951 .1681366 .11199951 .06903076 .18099976 0 .2749939 0 .32699586 0 .37399293 .025985718 .40699769 .054016115L.3849945-.036026C.37399293-.077056888 .36698915-.10507202 .32598878-.13609314 .27999879-.17111206 .23999024-.17111206 .20999146-.17111206 .1659851-.17111206 .15299988-.16911316 .13398743-.1651001 .1559906-.15109253 .1599884-.12908936 .1599884-.11907959 .1599884-.08706665 .13398743-.080062869 .11999512-.080062869 .08799744-.080062869 .06199646-.108078 .06199646-.14109802 .06199646-.20410156 .15699768-.20410156 .21099854-.20410156 .34199525-.20410156 .43699647-.15409851 .45999146-.062042238L.5669861 .36535646M.42799378 .13911438C.4229889 .12208557 .4229889 .12008667 .40899659 .10406494 .37298585 .062026979 .32299806 .032989503 .27799989 .032989503 .24099732 .032989503 .19799805 .056015016 .19799805 .13009644 .19799805 .17414856 .22099304 .27424623 .2519989 .3243103 .2889862 .38337709 .33898927 .4084015 .37799073 .4084015 .45298768 .4084015 .47399903 .33432008 .47399903 .3243103 .47399903 .31930543 .47200013 .31329347 .47099305 .30828858L.42799378 .13911438Z"/>
</defs>
<path transform="matrix(1.00003,0,0,-1.00005,29.376515,132.70174)" stroke-width=".3985" stroke-linecap="butt" stroke-miterlimit="10" stroke-linejoin="miter" fill="none" stroke="#000000" d="M-28.3468 0H61.9046"/>
<path transform="matrix(1.00003,0,0,-1.00005,91.282978,132.70174)" stroke-width=".31879" stroke-linecap="round" stroke-linejoin="round" fill="none" stroke="#000000" d="M-1.19551 1.59401C-1.09587 .99626 0 .09961 .29886 0 0-.09961-1.09587-.99626-1.19551-1.59401"/>
<use data-text="x" xlink:href="#font_1_1" transform="matrix(11.95556,0,0,-11.955797,95.92551,142.0332)"/>
<path transform="matrix(1.00003,0,0,-1.00005,29.376515,132.70174)" stroke-width=".3985" stroke-linecap="butt" stroke-miterlimit="10" stroke-linejoin="miter" fill="none" stroke="#000000" d="M0-28.3468V118.59822"/>
<path transform="matrix(0,-1.00005,-1.00003,-0,29.376515,14.097595)" stroke-width=".31879" stroke-linecap="round" stroke-linejoin="round" fill="none" stroke="#000000" d="M-1.19551 1.59401C-1.09587 .99626 0 .09961 .29886 0 0-.09961-1.09587-.99626-1.19551-1.59401"/>
<use data-text="y" xlink:href="#font_1_2" transform="matrix(11.95556,0,0,-11.955797,26.308423,7.1304628)"/>
<path transform="matrix(1.00003,0,0,-1.00005,29.376515,132.70174)" stroke-width=".3985" stroke-linecap="butt" stroke-miterlimit="10" stroke-linejoin="miter" fill="none" stroke="#ff8000" d="M7.08669 113.38724 7.30122 110.05972 7.51576 106.91516 7.7303 103.95227 7.94484 101.14207 8.15938 98.48283 8.37393 95.95941 8.58846 93.56055 8.80301 91.27805 9.01753 89.10626 9.23207 87.03613 9.44661 85.05988 9.66115 83.17877 9.8757 81.36946 10.09023 79.64018 10.30478 77.9814 10.5193 76.38792 10.73386 74.86237 10.94838 73.3965 11.16293 71.9847 11.37746 70.62651 11.592 69.31938 11.80655 68.06027 12.02107 66.847 12.23563 65.67308 12.45015 64.54158 12.6647 63.44727 12.87923 62.38971 13.09378 61.36891 13.30832 60.37926 13.52286 59.4212 13.7374 58.4908 13.95193 57.592 14.16647 56.71869 14.381 55.88087 14.59555 55.05861 14.81007 54.26187 15.02463 53.48503 15.23917 52.73372 15.4537 51.99927 15.66824 51.29034 15.88278 50.59569 16.09732 49.92091 16.31186 49.26607 16.5264 48.62505 16.74092 48.00131 16.95547 47.39447 17.17001 46.8019 17.38455 46.22359 17.59909 45.65956 17.81363 45.10938 18.02817 44.57346 18.2427 44.04878 18.45724 43.53839 18.6718 43.03665 18.88632 42.54875 19.10086 42.06993 19.3154 41.60193 19.52994 41.14558 19.74448 40.69748 19.95901 40.26062 20.17355 39.83284 20.38809 39.41284 20.60265 39.00192 20.81717 38.59924 21.03172 38.2078 21.24625 37.8224 21.46078 37.4422 21.67532 37.07108 21.88986 36.70818 22.10442 36.35092 22.31894 36.00185 22.5335 35.65884 22.74802 35.3245 22.96257 34.99274 23.1771 34.66963 23.39165 34.35172 23.60617 34.03987 23.82072 33.73363 24.03526 33.43042 24.24979 33.13542 24.46434 32.84346 24.67886 32.55971 24.89342 32.27943 25.10794 32.00131 25.3225 31.73184 25.53702 31.4654 25.75157 31.20198 25.96611 30.94376 26.18065 30.69159 26.39519 30.44202 26.60971 30.19502 26.82426 29.9541 27.03879 29.71622 27.25334 29.4835 27.46788 29.25124 27.68242 29.02718 27.89696 28.80312 28.1115 28.58209 28.32603 28.36626"/>
<path transform="matrix(1.00003,0,0,-1.00005,29.376515,132.70174)" stroke-width=".3985" stroke-linecap="butt" stroke-dasharray="2.98883,2.98883" stroke-miterlimit="10" stroke-linejoin="miter" fill="none" stroke="#000000" d="M28.3468-28.3468V113.38724"/>
<path transform="matrix(1.00003,0,0,-1.00005,29.376515,132.70174)" d="M0 0V113.38724H7.08669L7.97252 100.79086 8.85837 90.71098 9.7442 82.46681 10.63004 75.5938 11.51587 69.77875 12.40172 64.79417 13.28755 60.47313 14.17339 56.69362 15.05922 53.36305 15.94505 50.39716 16.8309 47.74612 17.71674 45.35895 18.60258 43.19843 19.48842 41.2334 20.37427 39.44139 21.2601 37.79689 22.14594 36.2856 23.03177 34.88763 23.9176 33.59479 24.80345 32.39534 25.68929 31.27853 26.57512 30.23483 27.46095 29.25946 28.3468 28.3468V0Z" fill="#ff8000" fill-opacity=".2"/>
<path transform="matrix(1.00003,0,0,-1.00005,29.376515,132.70174)" stroke-width=".3985" stroke-linecap="butt" stroke-miterlimit="10" stroke-linejoin="miter" fill="none" stroke="#ff8000" d="M28.3468 28.3468V28.3468"/>
<use data-text="f" xlink:href="#font_2_1" transform="matrix(5.97778,0,0,-5.9778988,61.90849,105.8484)" fill="#ff8000"/>
<use data-text="(" xlink:href="#font_3_1" transform="matrix(5.97778,0,0,-5.9778988,66.18362,105.8484)" fill="#ff8000"/>
<use data-text="x" xlink:href="#font_2_4" transform="matrix(5.97778,0,0,-5.9778988,69.062709,105.8484)" fill="#ff8000"/>
<use data-text=")" xlink:href="#font_3_2" transform="matrix(5.97778,0,0,-5.9778988,73.23383,105.8484)" fill="#ff8000"/>
<path transform="matrix(1.00003,0,0,-1.00005,29.376515,132.70174)" stroke-width=".3985" stroke-linecap="butt" stroke-miterlimit="10" stroke-linejoin="miter" fill="none" stroke="#ff0000" d="M4.96077 113.38808 5.19693 108.23569 5.43309 103.52579 5.66927 99.2134 5.90543 95.2483 6.14159 91.58644 6.37776 88.19449 6.61392 85.04474 6.8501 82.11343 7.08626 79.37633 7.32242 76.817 7.55858 74.41728 7.79474 72.16246 8.03093 70.04086 8.26709 68.03821 8.50325 66.14888 8.73941 64.36034 8.97557 62.66566 9.21175 61.05963 9.44792 59.53365 9.68408 58.08551 9.92024 56.70226 10.1564 55.38431 10.39258 54.12605 10.62874 52.92317 10.86491 51.77002 11.10107 50.66878 11.33723 49.61469 11.57341 48.60039 11.80957 47.62976 12.04573 46.69505 12.2819 45.79797 12.51807 44.93246 12.75424 44.10114 12.9904 43.2992 13.22656 42.52496 13.46272 41.77882 13.69888 41.05865 13.93507 40.36183 14.17123 39.69098 14.4074 39.0426 14.64355 38.4137 14.87971 37.80424 15.11589 37.21297 15.35207 36.64114 15.58823 36.08534 15.82439 35.54768 16.06055 35.0256 16.29672 34.51782 16.53288 34.02342 16.76906 33.54504 17.00522 33.07877 17.24138 32.62589 17.47755 32.18558 17.71371 31.75476 17.94987 31.3378 18.18605 30.93077 18.42221 30.53413 18.65837 30.14702 18.89455 29.77026 19.1307 29.40305 19.36687 29.04361 19.60303 28.69456 19.8392 28.35286 20.07538 28.01936 20.31154 27.69193 20.5477 27.37445 20.78386 27.06259 21.02002 26.75894 21.25621 26.46136 21.49237 26.17157 21.72853 25.88565 21.96469 25.60797 22.20085 25.33589 22.43703 25.06816 22.6732 24.80821 22.90936 24.55214 23.14552 24.30214 23.38168 24.05602 23.61786 23.81596 23.85402 23.5798 24.0902 23.34752 24.32635 23.1213 24.56252 22.89854 24.79869 22.68056 25.03485 22.466 25.27101 22.25752 25.50717 22.05121 25.74335 21.84877 25.97952 21.65024 26.21568 21.45387 26.45184 21.26355 26.688 21.07454 26.92416 20.89027 27.16035 20.7073 27.39651 20.52911 27.63268 20.35435 27.86884 20.18135 28.105 20.01308 28.34117 19.84656"/>
<path transform="matrix(1.00003,0,0,-1.00005,29.376515,132.70174)" stroke-width=".3985" stroke-linecap="butt" stroke-miterlimit="10" stroke-linejoin="miter" fill="none" stroke="#0000ff" d="M9.2126 113.3868 9.40552 111.06104 9.59843 108.83649 9.79134 106.69456 9.98425 104.6305 10.17717 102.64731 10.37009 100.73808 10.56299 98.89893 10.7559 97.12207 10.94882 95.40836 11.14174 93.7608 11.33466 92.16086 11.52756 90.62016 11.72046 89.12703 11.91338 87.68625 12.1063 86.28525 12.2992 84.93228 12.49211 83.61996 12.68503 82.34872 12.87794 81.11383 13.07085 79.91959 13.26376 78.7552 13.45668 77.62715 13.6496 76.5285 13.8425 75.45927 14.03542 74.42377 14.22832 73.42287 14.42123 72.44188 14.61414 71.48381 14.80705 70.55516 14.99997 69.64467 15.19289 68.76357 15.38579 67.90111 15.5787 67.05678 15.77162 66.23886 15.96454 65.4352 16.15744 64.65749 16.35036 63.8945 16.54327 63.1501 16.73619 62.42041 16.92908 61.70888 17.122 61.01207 17.31491 60.33427 17.50783 59.66643 17.70073 59.01762 17.89365 58.38008 18.08656 57.75764 18.27948 57.14906 18.47238 56.55215 18.6653 55.96608 18.85822 55.3947 19.05113 54.83412 19.24403 54.28523 19.43694 53.74672 19.62985 53.21643 19.82277 52.70042 20.01567 52.19131 20.20859 51.6939 20.4015 51.2034 20.59442 50.72415 20.78732 50.25269 20.98024 49.79204 21.17316 49.3383 21.36607 48.89235 21.55898 48.45377 21.75189 48.0225 21.9448 47.60252 22.13771 47.18599 22.33061 46.78026 22.52353 46.37888 22.71645 45.98396 22.90936 45.59727 23.10226 45.21794 23.29518 44.84163 23.4881 44.47311 23.68102 44.11151 23.87392 43.75424 24.06683 43.4043 24.25975 43.0574 24.45265 42.71829 24.64557 42.38307 24.83847 42.0548 25.03139 41.73082 25.2243 41.40988 25.41722 41.09671 25.61012 40.78702 25.80304 40.48077 25.99596 40.18233 26.18887 39.88779 26.38177 39.59235 26.57469 39.30515 26.76761 39.02141 26.96051 38.745 27.15341 38.46861 27.34633 38.19568 27.53925 37.93054 27.73216 37.66496 27.92506 37.40674 28.11798 37.14894 28.3109 36.89462"/>
<path transform="matrix(1.00003,0,0,-1.00005,29.376515,132.70174)" stroke-width=".3985" stroke-linecap="butt" stroke-miterlimit="10" stroke-linejoin="miter" fill="none" stroke="#0000ff" d="M28.3468 36.85092V36.85092"/>
<use data-text="h" xlink:href="#font_2_3" transform="matrix(5.97778,0,0,-5.9778988,61.90849,97.34397)" fill="#0000ff"/>
<use data-text="(" xlink:href="#font_3_1" transform="matrix(5.97778,0,0,-5.9778988,66.24662,97.34397)" fill="#0000ff"/>
<use data-text="x" xlink:href="#font_2_4" transform="matrix(5.97778,0,0,-5.9778988,69.12471,97.34397)" fill="#0000ff"/>
<use data-text=")" xlink:href="#font_3_2" transform="matrix(5.97778,0,0,-5.9778988,73.29683,97.34397)" fill="#0000ff"/>
<path transform="matrix(1.00003,0,0,-1.00005,29.376515,132.70174)" stroke-width=".3985" stroke-linecap="butt" stroke-miterlimit="10" stroke-linejoin="miter" fill="none" stroke="#ff0000" d="M28.3468 19.84267V19.84267"/>
<use data-text="g" xlink:href="#font_2_2" transform="matrix(5.97778,0,0,-5.9778988,61.90849,114.35282)" fill="#ff0000"/>
<use data-text="(" xlink:href="#font_3_1" transform="matrix(5.97778,0,0,-5.9778988,65.7556,114.35282)" fill="#ff0000"/>
<use data-text="x" xlink:href="#font_2_4" transform="matrix(5.97778,0,0,-5.9778988,68.63369,114.35282)" fill="#ff0000"/>
<use data-text=")" xlink:href="#font_3_2" transform="matrix(5.97778,0,0,-5.9778988,72.80582,114.35282)" fill="#ff0000"/>
</svg>
