<svg xmlns="http://www.w3.org/2000/svg" xmlns:xlink="http://www.w3.org/1999/xlink" version="1.1" width="120" height="117" viewBox="0 0 120 117">
<defs>
<path id="font_1_1" d="M.6589966 .23046875C.6759949 .23046875 .69400027 .23046875 .69400027 .25045777 .69400027 .27046205 .6759949 .27046205 .6589966 .27046205H.117996219C.100997928 .27046205 .08299255 .27046205 .08299255 .25045777 .08299255 .23046875 .100997928 .23046875 .117996219 .23046875H.6589966Z"/>
<path id="font_2_4" d="M.36099244 .6508026C.36099244 .6697998 .36099244 .6748047 .34700013 .6748047 .33898927 .6748047 .33599855 .6748047 .32798768 .662796L.026992798 .19598389V.16699219H.2899933V.07598877C.2899933 .038986207 .28799439 .0289917 .21499634 .0289917H.19499207V0C.21798706 .0019989014 .29699708 .0019989014 .32499696 .0019989014 .35299684 .0019989014 .43299867 .0019989014 .45599366 0V.0289917H.43598939C.3639984 .0289917 .36099244 .038986207 .36099244 .07598877V.16699219H.46199037V.19598389H.36099244V.6508026M.29499818 .5728302V.19598389H.051986696L.29499818 .5728302Z"/>
<path id="font_2_3" d="M.43998719 .16790772H.41799928C.4149933 .15092469 .40699769 .09597778 .39698792 .07998657 .3899994 .070999149 .33299256 .070999149 .30299378 .070999149H.117996219C.14498902 .09397888 .20599365 .15792847 .23199463 .18190003 .38398744 .3217926 .43998719 .37374879 .43998719 .47270204 .43998719 .5878906 .34899903 .66503909 .23298645 .66503909 .116989139 .66503909 .04899597 .5658264 .04899597 .4797058 .04899597 .42871095 .09298706 .42871095 .09599304 .42871095 .116989139 .42871095 .14299011 .44371034 .14299011 .475708 .14299011 .5037079 .12399292 .5227051 .09599304 .5227051 .08699036 .5227051 .084991458 .5227051 .08198547 .521698 .100997928 .5899048 .15499878 .6360321 .21998596 .6360321 .30499269 .6360321 .35699464 .56481936 .35699464 .47270204 .35699464 .3877411 .30799867 .313797 .25099183 .24984741L.04899597 .023986817V0H.4139862L.43998719 .16790772Z"/>
<path id="font_2_2" d="M.28799439 .64105227C.28799439 .664032 .28799439 .66503909 .2679901 .66503909 .24398804 .6380615 .19400025 .6012573 .09098816 .6012573V.5722656C.11399841 .5722656 .1639862 .5722656 .21899414 .59825137V.07701111C.21899414 .041000368 .21598816 .0289917 .12799073 .0289917H.09700012V0C.12399292 .0019989014 .22099304 .0019989014 .2539978 .0019989014 .2869873 .0019989014 .3829956 .0019989014 .4099884 0V.0289917H.3789978C.29100038 .0289917 .28799439 .041000368 .28799439 .07701111V.64105227Z"/>
<path id="font_2_1" d="M.44799806 .31976319C.44799806 .40283204 .44299317 .48390199 .40699769 .55996707 .3659973 .64302065 .2939911 .66503909 .24499512 .66503909 .18699646 .66503909 .115997318 .63601687 .07899475 .552948 .050994874 .48989869 .040985109 .42785646 .040985109 .31976319 .040985109 .22268677 .04798889 .14962769 .083999637 .078567508 .12298584 .0025177003 .19198609-.021484375 .24398804-.021484375 .33099366-.021484375 .3809967 .030532837 .4099884 .08857727 .44599916 .16363526 .44799806 .26171876 .44799806 .31976319M.24398804-.0014953613C.21199036-.0014953613 .14698792 .016525269 .12799073 .12561035 .116989139 .18565369 .116989139 .26171876 .116989139 .33177186 .116989139 .41384889 .116989139 .48789979 .1329956 .5469513 .1499939 .6139984 .20098877 .6450348 .24398804 .6450348 .28199769 .6450348 .33999635 .6220093 .35899354 .53593447 .37199403 .4788971 .37199403 .39982606 .37199403 .33177186 .37199403 .26472474 .37199403 .18865967 .36099244 .12760926 .34199525 .01751709 .2789917-.0014953613 .24398804-.0014953613Z"/>
<clipPath id="clip_3">
<path transform="matrix(.60003,0,0,-.60003,1.9494982,97.96065)" d="M0 0H194.2805V161.395H0Z"/>
</clipPath>
<path id="font_4_1" d="M.47399903 .40820313C.44198609 .40219117 .42999269 .3781891 .42999269 .3591919 .42999269 .33518983 .44898988 .3271942 .46299745 .3271942 .49299623 .3271942 .5139923 .3531952 .5139923 .380188 .5139923 .4223938 .46598817 .44140626 .42399598 .44140626 .36299134 .44140626 .32899476 .38119508 .31999208 .36219789 .29699708 .4373932 .23498535 .44140626 .21699524 .44140626 .114990238 .44140626 .06098938 .31021119 .06098938 .28822328 .06098938 .28422547 .06498718 .27923585 .07199097 .27923585 .07998657 .27923585 .08198547 .28523255 .083999637 .2892151 .117996219 .40019227 .18499756 .42140199 .21398926 .42140199 .25898744 .42140199 .2679901 .37919618 .2679901 .3551941 .2679901 .33319093 .2619934 .31021119 .25 .26223756L.21598816 .12535095C.20098877 .06535339 .17199707 .010223389 .11898804 .010223389 .11399841 .010223389 .08898926 .010223389 .067993167 .023330689 .10398865 .03036499 .11199951 .06036377 .11199951 .07235718 .11199951 .09236145 .09700012 .10435486 .07798767 .10435486 .053985597 .10435486 .027999878 .083358768 .027999878 .051361085 .027999878 .009231567 .07499695-.009765625 .117996219-.009765625 .1659851-.009765625 .19999695 .028366089 .22099304 .069366458 .23699951 .010223389 .2869873-.009765625 .32398988-.009765625 .42599488-.009765625 .47999574 .12135315 .47999574 .1433258 .47999574 .14833069 .47599793 .15232849 .46998597 .15232849 .46099855 .15232849 .45999146 .14732361 .45700074 .139328 .42999269 .051361085 .37199403 .010223389 .32699586 .010223389 .2919922 .010223389 .272995 .036361696 .272995 .07736206 .272995 .099365238 .2769928 .115356449 .29299928 .18130493L.32798768 .3171997C.34298707 .37719728 .3769989 .42140199 .4229889 .42140199 .4249878 .42140199 .45298768 .42140199 .47399903 .40820313Z"/>
<path id="font_4_2" d="M.2630005-.11172485C.23599243-.14982605 .19699097-.18411255 .147995-.18411255 .13598633-.18411255 .08799744-.18209839 .07299805-.13572693 .07598877-.13671875 .08099365-.13671875 .08299255-.13671875 .11299133-.13671875 .1329956-.11073303 .1329956-.08772278 .1329956-.06472778 .11399841-.056732179 .09899902-.056732179 .08299255-.056732179 .04798889-.068725589 .04798889-.11772156 .04798889-.16899109 .09098816-.20410156 .147995-.20410156 .24798584-.20410156 .34899903-.11172485 .3769989-.00077819827L.47499085 .38868714C.47599793 .39367677 .47799684 .39967347 .47799684 .4056549 .47799684 .4206543 .46598817 .43066407 .45098878 .43066407 .44198609 .43066407 .42099 .426651 .41299439 .39666749L.33898927 .10308838C.33399964 .085113529 .33399964 .08312988 .32598878 .072143558 .30599977 .04423523 .272995 .010223389 .22499085 .010223389 .16899109 .010223389 .1639862 .06524658 .1639862 .09225464 .1639862 .14929199 .19099427 .22631836 .21798706 .2983551 .22898865 .32736207 .23498535 .34136964 .23498535 .3613739 .23498535 .4033966 .20498657 .44140626 .1559906 .44140626 .06399536 .44140626 .026992798 .29634095 .026992798 .28834535 .026992798 .28434754 .0309906 .27934266 .037994386 .27934266 .04699707 .27934266 .04798889 .28334046 .051986696 .29734803 .07598877 .38137818 .11399841 .42140199 .15299988 .42140199 .1619873 .42140199 .1789856 .42140199 .1789856 .38838197 .1789856 .36238099 .16799927 .33335877 .15299988 .29534913 .10398865 .16429138 .10398865 .13127136 .10398865 .10726929 .10398865 .01222229 .17199707-.009765625 .22200012-.009765625 .25099183-.009765625 .2869873-.00077819827 .32199098 .036239625L.32299806 .035232545C.30799867-.023757935 .2979889-.06272888 .2630005-.11172485Z"/>
</defs>
<path transform="matrix(.60003,0,0,-.60003,1.9494982,97.96065)" stroke-width=".19925" stroke-linecap="butt" stroke-miterlimit="10" stroke-linejoin="miter" fill="none" stroke="#929292" d="M19.42812 70.52802V74.77986M58.28438 70.52802V74.77986M135.99689 70.52802V74.77986M174.85315 70.52802V74.77986"/>
<path transform="matrix(.60003,0,0,-.60003,1.9494982,97.96065)" stroke-width=".19925" stroke-linecap="butt" stroke-miterlimit="10" stroke-linejoin="miter" fill="none" stroke="#929292" d="M95.01462 32.49944H99.26663M95.01462 112.80844H99.26663M95.01462 152.96295H99.26663"/>
<path transform="matrix(.60003,0,0,-.60003,1.9494982,97.96065)" stroke-width=".3985" stroke-linecap="butt" stroke-miterlimit="10" stroke-linejoin="miter" fill="none" stroke="#000000" d="M0 72.65395H192.28798"/>
<path transform="matrix(.60003,0,0,-.60003,117.32806,54.366098)" d="M1.99252 0-1.19551 1.59401 0 0-1.19551-1.59401"/>
<path transform="matrix(.60003,0,0,-.60003,1.9494982,97.96065)" stroke-width=".3985" stroke-linecap="butt" stroke-miterlimit="10" stroke-linejoin="miter" fill="none" stroke="#000000" d="M97.14064 0V159.40248"/>
<path transform="matrix(0,-.60003,-.60003,-0,60.236799,2.3143769)" d="M1.99252 0-1.19551 1.59401 0 0-1.19551-1.59401"/>
<use data-text="&#x2212;" xlink:href="#font_1_1" transform="matrix(7.1734788,0,0,-7.1734788,9.061054,62.774888)"/>
<use data-text="4" xlink:href="#font_2_4" transform="matrix(7.1734788,0,0,-7.1734788,14.640133,62.774888)"/>
<use data-text="&#x2212;" xlink:href="#font_1_1" transform="matrix(7.1734788,0,0,-7.1734788,32.37642,62.774888)"/>
<use data-text="2" xlink:href="#font_2_3" transform="matrix(7.1734788,0,0,-7.1734788,37.955499,62.774888)"/>
<use data-text="2" xlink:href="#font_2_3" transform="matrix(7.1734788,0,0,-7.1734788,81.795497,62.774888)"/>
<use data-text="4" xlink:href="#font_2_4" transform="matrix(7.1734788,0,0,-7.1734788,105.110858,62.774888)"/>
<use data-text="&#x2212;" xlink:href="#font_1_1" transform="matrix(7.1734788,0,0,-7.1734788,43.84719,80.47277)"/>
<use data-text="1" xlink:href="#font_2_2" transform="matrix(7.1734788,0,0,-7.1734788,49.42627,80.47277)"/>
<use data-text="0" xlink:href="#font_2_1" transform="matrix(7.1734788,0,0,-7.1734788,52.941278,80.47277)"/>
<use data-text="1" xlink:href="#font_2_2" transform="matrix(7.1734788,0,0,-7.1734788,49.426877,32.58378)"/>
<use data-text="0" xlink:href="#font_2_1" transform="matrix(7.1734788,0,0,-7.1734788,52.94188,32.58378)"/>
<use data-text="2" xlink:href="#font_2_3" transform="matrix(7.1734788,0,0,-7.1734788,49.426877,8.489578)"/>
<use data-text="0" xlink:href="#font_2_1" transform="matrix(7.1734788,0,0,-7.1734788,52.94188,8.489578)"/>
<g clip-path="url(#clip_3)">
<path transform="matrix(.60003,0,0,-.60003,1.9494982,97.96065)" stroke-width="1.59404" stroke-linecap="butt" stroke-miterlimit="10" stroke-linejoin="miter" fill="none" stroke="#0000ff" d="M0 55.2542 .22969 55.29836 .45941 55.34334 .68912 55.3883 .91882 55.43327 1.14853 55.47784 1.37825 55.52242 1.60796 55.5674 1.83766 55.61197 2.06737 55.65654 2.29709 55.70152 2.5268 55.7461 2.7565 55.79106 2.9862 55.83563 3.21593 55.8806 3.44563 55.92519 3.67534 55.96974 3.90506 56.01472 4.13477 56.0593 4.36449 56.10345 4.59418 56.14803 4.8239 56.19301 5.0536 56.23758 5.28333 56.28255 5.51302 56.32632 5.74274 56.37129 5.97244 56.41588 6.20216 56.46004 6.43185 56.50461 6.66158 56.54958 6.89128 56.59415 7.12099 56.63832 7.35071 56.68289 7.58041 56.72705 7.81013 56.77203 8.03983 56.81621 8.26955 56.86078 8.49925 56.90495 8.72897 56.94952 8.95866 56.99368 9.18839 57.03825 9.41809 57.08241 9.64781 57.1266 9.8775 57.17157 10.10722 57.21535 10.33693 57.26031 10.56665 57.30449 10.79636 57.34865 11.02606 57.39241 11.25578 57.43738 11.48549 57.48157 11.7152 57.52574 11.9449 57.5695 12.17462 57.61368 12.40433 57.65784 12.63403 57.70203 12.86374 57.74619 13.09346 57.79034 13.32315 57.83452 13.55287 57.87828 13.78258 57.92247 14.0123 57.96663 14.242 58.0108 14.47171 58.05496 14.70143 58.09914 14.93114 58.14333 15.16084 58.18709 15.39055 58.23083 15.62027 58.27461 15.84998 58.31879 16.07968 58.36296 16.30939 58.40672 16.53911 58.45088 16.76881 58.49466 16.99852 58.53844 17.22823 58.5826 17.45795 58.62596 17.68767 58.67014 17.91736 58.7135 18.14708 58.75768 18.37679 58.80104 18.6065 58.84521 18.8362 58.88898 19.06592 58.93234 19.29562 58.97652 19.52534 59.01988 19.75504 59.06325 19.98476 59.10701 20.21446 59.1512 20.44417 59.19455 20.67387 59.23831 20.9036 59.2817 21.1333 59.32506 21.363 59.36842 21.59273 59.4122 21.82243 59.45555 22.05215 59.49933 22.28185 59.5427 22.51157 59.58606 22.74127 59.62944 22.971 59.6732 23.20068 59.71616 23.4304 59.75954 23.66011 59.8029 23.88983 59.84665 24.11952 59.88922 24.34924 59.933 24.57895 59.97597 24.80867 60.01933 25.03838 60.06268 25.26808 60.10567 25.4978 60.14902 25.72751 60.192 25.95721 60.23495 26.18692 60.27832 26.41664 60.32129 26.64633 60.36426 26.87605 60.40762 27.10576 60.45058 27.33548 60.49356 27.56517 60.53651 27.79489 60.57948 28.0246 60.62204 28.25432 60.66501 28.48402 60.70798 28.71373 60.75095 28.94345 60.7939 29.17316 60.83647 29.40286 60.87904 29.63257 60.9216 29.86229 60.96497 30.092 61.00754 30.3217 61.0497 30.5514 61.09265 30.78113 61.13483 31.01083 61.17778 31.24054 61.22035 31.47025 61.26291 31.69997 61.30548 31.92969 61.34804 32.15938 61.3906 32.3891 61.43277 32.6188 61.47493 32.84853 61.5179 33.07822 61.56006 33.30794 61.60262 33.53764 61.64478 33.76735 61.68695 33.99706 61.7295 34.22678 61.77167 34.45648 61.81384 34.68619 61.85559 34.9159 61.89775 35.14561 61.93993 35.37534 61.98167 35.60503 62.02425 35.83475 62.0656 36.06445 62.10815 36.29417 62.14952 36.52386 62.1921 36.75359 62.23386 36.98329 62.2752 37.21301 62.31737 37.4427 62.35913 37.67242 62.4009 37.90213 62.44266 38.13185 62.48401 38.36154 62.52577 38.59126 62.56754 38.82097 62.6093 39.05069 62.6505 39.2804 62.69197 39.5101 62.73344 39.73982 62.77484 39.96951 62.81621 40.19923 62.85757 40.42894 62.8989 40.65866 62.94017 40.88835 62.98141 41.11807 63.02261 41.34778 63.06375 41.5775 63.10492 41.80719 63.146 42.03691 63.18703 42.26662 63.22803 42.49634 63.26895 42.72604 63.30988 42.95575 63.35083 43.18547 63.39162 43.41518 63.43246 43.64488 63.47322 43.87459 63.51393 44.10431 63.55461 44.33401 63.5952 44.56372 63.6358 44.79343 63.67635 45.02315 63.71672 45.25285 63.75731 45.48256 63.79771 45.71227 63.83803 45.94199 63.87834 46.1717 63.91866 46.4014 63.95888 46.63112 63.99904 46.86082 64.0392 47.09053 64.07927 47.32024 64.11926 47.54996 64.15926 47.77966 64.19916 48.00937 64.23904 48.23907 64.27888 48.4688 64.31866 48.6985 64.35834 48.9282 64.39806 49.15791 64.4377 49.38763 64.47719 49.61736 64.51675 49.84705 64.55618 50.07677 64.59557 50.30647 64.63493 50.5362 64.67427 50.76588 64.71347 50.9956 64.75262 51.22531 64.79169 51.45503 64.83081 51.68472 64.8698 51.91444 64.9087 52.14415 64.94762 52.37387 64.98645 52.60356 65.02515 52.83328 65.06383 53.063 65.1024 53.2927 65.14104 53.52242 65.1795 53.75212 65.21794 53.98184 65.25627 54.21153 65.29459 54.44125 65.33281 54.67096 65.37096 54.90068 65.4091 55.13037 65.4471 55.36009 65.485 55.5898 65.5229 55.81952 65.56073 56.04921 65.5984 56.27893 65.6361 56.50865 65.67365 56.73836 65.71115 56.96806 65.74857 57.19777 65.78592 57.42749 65.82323 57.6572 65.86041 57.8869 65.89754 58.11661 65.93452 58.34633 65.97151 58.57603 66.00833 58.80574 66.04515 59.03545 66.08185 59.26517 66.1184 59.49487 66.15494 59.72458 66.19139 59.95428 66.22775 60.184 66.26396 60.41371 66.30014 60.64342 66.3362 60.87314 66.37218 61.10284 66.40802 61.33255 66.44385 61.56226 66.4795 61.79198 66.51508 62.02168 66.55057 62.25139 66.58592 62.4811 66.6212 62.71082 66.65639 62.94052 66.6914 63.17023 66.72641 63.39993 66.76128 63.62965 66.79599 63.85938 66.83061 64.08907 66.86519 64.31879 66.89957 64.5485 66.9339 64.77821 66.96806 65.0079 67.00208 65.23763 67.03601 65.46733 67.06981 65.69705 67.10355 65.92674 67.13712 66.15646 67.17049 66.38617 67.20384 66.61588 67.23706 66.84558 67.27007 67.0753 67.30295 67.30502 67.33575 67.53471 67.36841 67.76443 67.40088 67.99414 67.43321 68.22386 67.46545 68.45355 67.49759 68.68327 67.52943 68.91298 67.56123 69.1427 67.59286 69.37239 67.62434 69.60211 67.65564 69.83182 67.68678 70.06154 67.71776 70.29123 67.74858 70.52095 67.77924 70.75067 67.80974 70.98038 67.84006 71.21008 67.87021 71.43979 67.90018 71.66951 67.92998 71.89922 67.95955 72.12892 67.98903 72.35863 68.01819 72.58835 68.0473 72.81804 68.0761 73.04776 68.10477 73.27747 68.1332 73.50719 68.1615 73.73688 68.18956 73.9666 68.21739 74.19632 68.24498 74.42603 68.27242 74.65573 68.29959 74.88544 68.32658 75.11516 68.35327 75.34486 68.3798 75.57457 68.40604 75.80428 68.4321 76.034 68.45787 76.2637 68.48341 76.49341 68.50871 76.72311 68.53369 76.95284 68.55855 77.18254 68.58301 77.41225 68.60725 77.64195 68.63118 77.87167 68.65483 78.1014 68.67824 78.33109 68.70139 78.5608 68.72423 78.79051 68.74677 79.02023 68.76895 79.24992 68.79088 79.47964 68.81236 79.70935 68.83368 79.93906 68.8546 80.16878 68.87517 80.39848 68.89548 80.6282 68.91536 80.8579 68.935 81.08762 68.95415 81.31732 68.9729 81.54704 68.99138 81.77673 69.00943 82.00645 69.02715 82.23618 69.04442 82.46588 69.06128 82.69559 69.07767 82.9253 69.09373 83.15501 69.10934 83.38472 69.12448 83.61443 69.1392 83.84413 69.1534 84.07385 69.1672 84.30357 69.1805 84.53326 69.1933 84.76299 69.20563 84.99269 69.21739 85.22241 69.22865 85.4521 69.23936 85.68182 69.24956 85.91153 69.25923 86.14124 69.26831 86.37096 69.27675 86.60066 69.28458 86.83038 69.29181 87.06007 69.29842 87.2898 69.30449 87.5195 69.30984 87.74922 69.31458 87.97891 69.31848 88.20863 69.32181 88.43834 69.3243 88.66806 69.32607 88.89777 69.32713 89.12747 69.3275 89.3572 69.32686 89.5869 69.32558 89.8166 69.32336 90.04631 69.32039 90.27603 69.31647 90.50574 69.3116 90.73544 69.30586 90.96516 69.2992 91.19487 69.29152 91.42459 69.2828 91.65428 69.27303 91.884 69.2622 92.11371 69.25032 92.34343 69.23727 92.57312 69.22307 92.80284 69.20776 93.03256 69.19115 93.26225 69.17336 93.49197 69.15416 93.72168 69.13368 93.9514 69.11176 94.18109 69.08842 94.41081 69.06364 94.64052 69.03741 94.87024 69.00952 95.09995 68.98007 95.32965 68.949 95.55937 68.91612 95.78908 68.88152 96.01878 68.84506 96.24849 68.8067 96.47821 68.76643 96.70792 68.72409 96.93762 68.67961 97.16734 68.63286 97.39705 68.58427 97.62677 68.53288 97.85646 68.47908 98.08618 68.42326 98.31589 68.36423 98.54561 68.30319 98.7753 68.23895 99.00502 68.1715 99.23474 68.10083 99.46443 68.02815 99.69415 67.95065 99.92386 67.87114 100.15358 67.78723 100.38327 67.69968 100.61299 67.60812 100.8427 67.51337 101.07242 67.41338 101.30211 67.30939 101.53183 67.20096 101.76155 67.08733 101.99126 66.96846 102.22096 66.84479 102.45067 66.71548 102.68039 66.58017 102.9101 66.43843 103.1398 66.29106 103.3695 66.13606 103.59923 65.97424 103.82895 65.80438 104.05864 65.62732 104.28836 65.44179 104.51807 65.24706 104.74779 65.04306 104.97748 64.82823 105.2072 64.60336 105.4369 64.36847 105.66661 64.12032 105.89633 63.85971 106.12604 63.58505 106.35576 63.29674 106.58545 62.99277 106.81517 62.67233 107.04488 62.33423 107.2746 61.97646 107.50429 61.599 107.73401 61.19867 107.96373 60.77463 108.19344 60.3245 108.42314 59.84706 108.65285 59.33871 108.88257 58.79663 109.11227 58.21921 109.34198 57.60162 109.57169 56.93988 109.8014 56.23076 110.03113 55.46782 110.26082 54.64626 110.49054 53.75925 110.72025 52.79836 110.94997 51.75513 111.17966 50.61916 111.40938 49.37717 111.63908 48.01555 111.8688 46.51657 112.0985 44.85779 112.32822 43.0147 112.55794 40.95558 112.78763 38.63947 113.01735 36.01776 113.24706 33.02626 113.47678 29.58463 113.70647 25.58243 113.93619 20.8731 114.1659 15.25548 114.39561 8.43846 114.62532 0"/>
<path transform="matrix(.60003,0,0,-.60003,1.9494982,97.96065)" stroke-width="1.59404" stroke-linecap="butt" stroke-miterlimit="10" stroke-linejoin="miter" fill="none" stroke="#0000ff" d="M118.51158 161.395 118.6634 155.60512 118.81525 150.60187 118.96709 146.23587 119.11894 142.39389 119.27078 138.98719 119.4226 135.94548 119.57445 133.21578 119.7263 130.75109 119.87814 128.51529 120.02998 126.47786 120.18184 124.6155 120.33366 122.9045 120.4855 121.32924 120.63734 119.87404 120.7892 118.52646 120.94104 117.27364 121.09286 116.10713 121.2447 115.01855 121.39656 114.00104 121.5484 113.04697 121.70024 112.15112 121.85208 111.30869 122.00392 110.51523 122.15576 109.76555 122.3076 109.05882 122.45946 108.38905 122.6113 107.755 122.76312 107.15308 122.91496 106.58209 123.06682 106.0392 123.21866 105.52202 123.3705 105.02933 123.52234 104.5603 123.67418 104.11218 123.82602 103.68414 123.97786 103.27457 124.12971 102.88306 124.28154 102.50801 124.43338 102.14903 124.58524 101.8049 124.73708 101.47444 124.88892 101.15721 125.04076 100.85284 125.1926 100.55972 125.34444 100.27783 125.49628 100.0072 125.64812 99.74619 125.79997 99.49481 125.9518 99.25269 126.10364 99.01938 126.2555 98.79413 126.40733 98.57689 126.55917 98.36769 126.711 98.1645 126.86285 97.96936 127.0147 97.78062 127.16653 97.59793 127.31837 97.42084 127.47023 97.2506 127.62206 97.08514 127.7739 96.92534 127.92575 96.77034 128.07759 96.62056 128.22943 96.4756 128.38126 96.33466 128.53311 96.19853 128.68495 96.06602 128.83679 95.93874 128.98863 95.81425 129.14048 95.6942 129.29232 95.57733 129.44416 95.46451 129.59601 95.35408 129.74785 95.24768 129.89969 95.14409 130.05152 95.04369 130.20337 94.94612 130.35521 94.85176 130.50705 94.75981 130.6589 94.67067 130.81073 94.58392 130.96257 94.4996 131.11441 94.41768 131.26627 94.33818 131.4181 94.26108 131.56993 94.18639 131.72177 94.11331 131.87363 94.04224 132.02547 93.97357 132.1773 93.90692 132.32917 93.84187 132.48099 93.77924 132.63283 93.71779 132.78467 93.65836 132.93653 93.60014 133.08837 93.54431 133.24019 93.48932 133.39203 93.43631 133.54389 93.3849 133.69573 93.33473 133.84757 93.28574 133.9994 93.23834 134.15125 93.19258 134.30309 93.148 134.45493 93.10504 134.60678 93.06287 134.75862 93.02231 134.91045 92.98256 135.06229 92.94402 135.21414 92.90628 135.36598 92.87013 135.51782 92.8356 135.66967 92.80106 135.8215 92.76854 135.97335 92.73601 136.12519 92.70497 136.27704 92.6749 136.42887 92.64578 136.5807 92.61755 136.73256 92.59013 136.8844 92.5638 137.03624 92.53818 137.18808 92.51352 137.33992 92.48947 137.49176 92.46632 137.6436 92.44402 137.79544 92.42244 137.9473 92.4016 138.09912 92.38153 138.25096 92.36217 138.40282 92.34346 138.55466 92.32559 138.7065 92.30824 138.85832 92.29163 139.01018 92.2756 139.16202 92.26035 139.31386 92.2456 139.4657 92.23148 139.61756 92.21794 139.76938 92.205 139.92122 92.19267 140.07308 92.18091 140.22492 92.16963 140.37676 92.15904 140.52858 92.14883 140.68044 92.13925 140.83228 92.13013 140.98412 92.12149 141.13596 92.11342 141.2878 92.10576 141.43964 92.09856 141.59148 92.09193 141.74333 92.08572 141.89517 92.07993 142.04701 92.07454 142.19884 92.06966 142.3507 92.06525 142.50254 92.06122 142.65438 92.05757 142.80623 92.05435 142.95806 92.05147 143.1099 92.04906 143.26174 92.04697 143.41359 92.04536 143.56543 92.04399 143.71726 92.04298 143.8691 92.04247 144.02095 92.04227 144.17279 92.04239 144.32463 92.04283 144.47647 92.04364 144.62831 92.0448 144.78015 92.04616 144.93199 92.04797 145.08385 92.05005 145.23569 92.05243 145.38751 92.05519 145.53936 92.0582 145.69121 92.06151 145.84305 92.06503 145.99489 92.06892 146.14673 92.07306 146.29857 92.07756 146.45041 92.08229 146.60225 92.08731 146.7541 92.0925 146.90593 92.09805 147.05777 92.10378 147.20963 92.10985 147.36147 92.1161 147.5133 92.12257 147.66515 92.12932 147.81699 92.13643 147.96883 92.1436 148.12067 92.1511 148.2725 92.1588 148.42436 92.1667 148.57619 92.17487 148.72803 92.18321 148.87989 92.19185 149.03173 92.20059 149.18357 92.20958 149.33539 92.21883 149.48725 92.2283 149.63909 92.23785 149.79093 92.24767 149.94277 92.25769 150.09462 92.26793 150.24645 92.27832 150.39829 92.2889 150.55014 92.29965 150.70198 92.31062 150.85382 92.32178 151.00565 92.3331 151.1575 92.34459 151.30934 92.35623 151.46118 92.3681 151.61302 92.38013 151.76486 92.3923 151.9167 92.40463 152.06855 92.4171 152.2204 92.4298 152.37224 92.4426 152.52408 92.45561 152.6759 92.4687 152.82776 92.482 152.9796 92.4954 153.13144 92.50911 153.2833 92.5228 153.43512 92.53665 153.58696 92.5507 153.7388 92.56483 153.89066 92.57913 154.0425 92.59358 154.19432 92.60817 154.34616 92.62285 154.49802 92.63771 154.64986 92.6527 154.8017 92.66783 154.95355 92.68301 155.10538 92.69844 155.25722 92.71393 155.40906 92.72955 155.56092 92.74525 155.71276 92.7605 155.86458 92.77696 156.01642 92.79303 156.16828 92.80908 156.32012 92.82555 156.47196 92.84161 156.6238 92.85847 156.77564 92.87535 156.92748 92.89221 157.07932 92.90907 157.23117 92.92595 157.38301 92.94241 157.53484 92.96007 157.68668 92.97734 157.83853 92.99542 157.99037 93.01228 158.14221 93.03033 158.29405 93.04721 158.44589 93.06569 158.59774 93.08334 158.74958 93.10143 158.90143 93.11948 159.05326 93.13797 159.2051 93.15643 159.35695 93.1749 159.50879 93.19296 159.66063 93.21144 159.81247 93.23071 159.96431 93.2496 160.11615 93.26807 160.26799 93.28693 160.41983 93.30582 160.57169 93.32549 160.72351 93.34435 160.87535 93.36363 161.0272 93.3833 161.17905 93.40257 161.33089 93.42184 161.48271 93.44113 161.63457 93.46161 161.7864 93.48128 161.93825 93.50096 162.09009 93.52103 162.24195 93.54071 162.39377 93.56078 162.54561 93.58086 162.69747 93.60133 162.8493 93.62143 163.00115 93.64151 163.15297 93.66278 163.30483 93.68285 163.45667 93.70374 163.6085 93.72382 163.76035 93.74469 163.91219 93.76558 164.06403 93.78645 164.21587 93.80733 164.36772 93.82863 164.51956 93.8495 164.6714 93.87039 164.82323 93.89166 164.97509 93.91254 165.12693 93.93382 165.27877 93.9555 165.43062 93.97678 165.58245 93.99847 165.73429 94.01976 165.88613 94.04185 166.03798 94.06311 166.18982 94.0852 166.34165 94.10689 166.49349 94.12857 166.64534 94.15025 166.79718 94.17235 166.94902 94.19443 167.10088 94.21652 167.2527 94.23859 167.40454 94.26108 167.55638 94.28316 167.70824 94.30525 167.86008 94.32774 168.0119 94.34982 168.16374 94.37271 168.3156 94.3952 168.46744 94.41768 168.61928 94.44017 168.77112 94.46265 168.92296 94.48555 169.0748 94.50883 169.22664 94.53133 169.3785 94.55421 169.53034 94.5767 169.68216 94.59999 169.834 94.62328 169.98586 94.64577 170.1377 94.66905 170.28954 94.69234 170.44138 94.71564 170.59322 94.73892 170.74506 94.7622 170.8969 94.78549 171.04875 94.80879 171.20058 94.83208 171.35242 94.85536 171.50428 94.87946 171.65612 94.90276 171.80796 94.92644 171.9598 94.94972 172.11164 94.97382 172.26348 94.99751 172.41532 95.02081 172.56716 95.04489 172.71901 95.06859 172.87084 95.09229 173.02268 95.11717 173.17453 95.14046 173.32637 95.16496 173.47821 95.18866 173.63004 95.21274 173.78189 95.23724 173.93373 95.26093 174.08557 95.28502 174.23741 95.30952 174.38927 95.33401 174.54109 95.3577 174.69293 95.38219 174.84479 95.40709 174.99663 95.43158 175.14847 95.45607 175.3003 95.48058 175.45215 95.50507 175.60399 95.52956 175.75583 95.55406 175.90769 95.57814 176.05951 95.60304 176.21135 95.62794 176.36319 95.65244 176.51505 95.67773 176.66689 95.70222 176.81873 95.72754 176.97055 95.75203 177.1224 95.77692 177.27425 95.8014 177.42609 95.8267 177.57794 95.8516 177.72977 95.87689 177.8816 95.9018 178.03345 95.9271 178.1853 95.9524 178.33715 95.9773 178.48897 96.00258 178.64081 96.02748 178.79267 96.05278 178.9445 96.07848 179.09635 96.10338 179.24819 96.12866 179.40003 96.15436 179.55187 96.17966 179.7037 96.20537 179.85556 96.23027 180.0074 96.25595 180.15923 96.28125 180.31107 96.30696 180.46292 96.33264 180.61476 96.35835 180.7666 96.38365 180.91844 96.40935 181.07028 96.43504 181.22212 96.46074 181.37397 96.48645 181.52582 96.51215 181.67765 96.53784 181.82949 96.56355 181.98134 96.59004 182.13318 96.61574 182.28502 96.64145 182.43686 96.66714 182.5887 96.69363 182.74054 96.71935 182.89238 96.74504 183.04422 96.77155 183.19608 96.79724 183.3479 96.82333 183.49974 96.84985 183.6516 96.87555 183.80344 96.90204 183.95528 96.92734 184.1071 96.95384 184.25896 96.98035 184.4108 97.00684 184.56264 97.03255 184.71448 97.05865 184.86634 97.08514 185.01816 97.11165 185.17 97.13774 185.32186 97.16466 185.4737 97.19034 185.62554 97.21686 185.77736 97.24335 185.92922 97.27026 186.08106 97.29675 186.2329 97.32286 186.38474 97.34897 186.53658 97.37627 186.68842 97.40237 186.84026 97.42888 186.99211 97.45576 187.14395 97.48268 187.29579 97.50839 187.44762 97.53528 187.59947 97.56258 187.75131 97.58868 187.90316 97.61559 188.05501 97.6425 188.20684 97.66899 188.35868 97.6959 188.51052 97.72281 188.66237 97.7497 188.81421 97.77621 188.96604 97.8031 189.11788 97.83002 189.26973 97.85732 189.42157 97.88422 189.57341 97.91113 189.72527 97.93802 189.87709 97.96494 190.02893 97.99184 190.18077 98.01875 190.33263 98.04564 190.48447 98.07294 190.63629 98.10027 190.78813 98.12675 190.93999 98.15446 191.09183 98.18137 191.24367 98.20868 191.39551 98.23518 191.54735 98.26288 191.69919 98.28978 191.85103 98.3167 192.00289 98.3444 192.15473 98.37129 192.30655 98.3986 192.45839 98.42592 192.61025 98.45322 192.76209 98.48012 192.91393 98.50783 193.06577 98.53473 193.2176 98.56242 193.36945 98.58974 193.52129 98.61705 193.67314 98.64435 193.82497 98.67206 193.9768 98.69977 194.12866 98.72626 194.2805 98.75478"/>
</g>
<use data-text="x" xlink:href="#font_4_1" transform="matrix(7.1734788,0,0,-7.1734788,112.0214,114.81849)"/>
<use data-text="y" xlink:href="#font_4_2" transform="matrix(7.1734788,0,0,-7.1734788,39.432775,6.7176897)"/>
</svg>
