<svg xmlns="http://www.w3.org/2000/svg" xmlns:xlink="http://www.w3.org/1999/xlink" version="1.1" width="364" height="148" viewBox="0 0 364 148">
<defs>
<path id="font_1_2" d="M.28799439 .64105227C.28799439 .664032 .28799439 .66503909 .2679901 .66503909 .24398804 .6380615 .19400025 .6012573 .09098816 .6012573V.5722656C.11399841 .5722656 .1639862 .5722656 .21899414 .59825137V.07701111C.21899414 .041000368 .21598816 .0289917 .12799073 .0289917H.09700012V0C.12399292 .0019989014 .22099304 .0019989014 .2539978 .0019989014 .2869873 .0019989014 .3829956 .0019989014 .4099884 0V.0289917H.3789978C.29100038 .0289917 .28799439 .041000368 .28799439 .07701111V.64105227Z"/>
<path id="font_1_1" d="M.44799806 .31976319C.44799806 .40283204 .44299317 .48390199 .40699769 .55996707 .3659973 .64302065 .2939911 .66503909 .24499512 .66503909 .18699646 .66503909 .115997318 .63601687 .07899475 .552948 .050994874 .48989869 .040985109 .42785646 .040985109 .31976319 .040985109 .22268677 .04798889 .14962769 .083999637 .078567508 .12298584 .0025177003 .19198609-.021484375 .24398804-.021484375 .33099366-.021484375 .3809967 .030532837 .4099884 .08857727 .44599916 .16363526 .44799806 .26171876 .44799806 .31976319M.24398804-.0014953613C.21199036-.0014953613 .14698792 .016525269 .12799073 .12561035 .116989139 .18565369 .116989139 .26171876 .116989139 .33177186 .116989139 .41384889 .116989139 .48789979 .1329956 .5469513 .1499939 .6139984 .20098877 .6450348 .24398804 .6450348 .28199769 .6450348 .33999635 .6220093 .35899354 .53593447 .37199403 .4788971 .37199403 .39982606 .37199403 .33177186 .37199403 .26472474 .37199403 .18865967 .36099244 .12760926 .34199525 .01751709 .2789917-.0014953613 .24398804-.0014953613Z"/>
<path id="font_1_3" d="M.43998719 .16790772H.41799928C.4149933 .15092469 .40699769 .09597778 .39698792 .07998657 .3899994 .070999149 .33299256 .070999149 .30299378 .070999149H.117996219C.14498902 .09397888 .20599365 .15792847 .23199463 .18190003 .38398744 .3217926 .43998719 .37374879 .43998719 .47270204 .43998719 .5878906 .34899903 .66503909 .23298645 .66503909 .116989139 .66503909 .04899597 .5658264 .04899597 .4797058 .04899597 .42871095 .09298706 .42871095 .09599304 .42871095 .116989139 .42871095 .14299011 .44371034 .14299011 .475708 .14299011 .5037079 .12399292 .5227051 .09599304 .5227051 .08699036 .5227051 .084991458 .5227051 .08198547 .521698 .100997928 .5899048 .15499878 .6360321 .21998596 .6360321 .30499269 .6360321 .35699464 .56481936 .35699464 .47270204 .35699464 .3877411 .30799867 .313797 .25099183 .24984741L.04899597 .023986817V0H.4139862L.43998719 .16790772Z"/>
<path id="font_1_4" d="M.18399048 .35888673C.16699219 .35787965 .16299439 .35688783 .16299439 .34788514 .16299439 .33789063 .16799927 .33789063 .18598938 .33789063H.23199463C.31698609 .33789063 .35499574 .267807 .35499574 .17172241 .35499574 .04058838 .2869873 .005508423 .23799134 .005508423 .18998719 .005508423 .10798645 .028564454 .07899475 .09472656 .11099243 .08970642 .13999939 .10771179 .13999939 .14372254 .13999939 .17271424 .11898804 .1927185 .09098816 .1927185 .066986087 .1927185 .040985109 .1787262 .040985109 .14071656 .040985109 .051620485 .12998963-.021484375 .24099732-.021484375 .3600006-.021484375 .44799806 .06965637 .44799806 .17071533 .44799806 .26280213 .37399293 .33488465 .27799989 .35188294 .36499024 .3769226 .42099 .45011903 .42099 .5282135 .42099 .6071167 .33898927 .66503909 .24198914 .66503909 .14199829 .66503909 .067993167 .604126 .067993167 .5312042 .067993167 .49121095 .09899902 .48321534 .11399841 .48321534 .1349945 .48321534 .15899658 .49821473 .15899658 .5282135 .15899658 .5602112 .1349945 .57421877 .11299133 .57421877 .10699463 .57421877 .10499573 .57421877 .101989749 .57321169 .13999939 .641037 .23399353 .641037 .23899842 .641037 .27198792 .641037 .33699037 .6260681 .33699037 .5282135 .33699037 .5092163 .33399964 .453125 .30499269 .41001893 .2749939 .3658905 .24099732 .36288453 .21398926 .36187745L.18399048 .35888673Z"/>
<path id="font_1_5" d="M.36099244 .6508026C.36099244 .6697998 .36099244 .6748047 .34700013 .6748047 .33898927 .6748047 .33599855 .6748047 .32798768 .662796L.026992798 .19598389V.16699219H.2899933V.07598877C.2899933 .038986207 .28799439 .0289917 .21499634 .0289917H.19499207V0C.21798706 .0019989014 .29699708 .0019989014 .32499696 .0019989014 .35299684 .0019989014 .43299867 .0019989014 .45599366 0V.0289917H.43598939C.3639984 .0289917 .36099244 .038986207 .36099244 .07598877V.16699219H.46199037V.19598389H.36099244V.6508026M.29499818 .5728302V.19598389H.051986696L.29499818 .5728302Z"/>
<path id="font_1_6" d="M.12799073 .5727997C.17098999 .5588074 .20599365 .5578003 .21699524 .5578003 .32998658 .5578003 .4019928 .6409912 .4019928 .6550598 .4019928 .6590576 .3999939 .6640625 .3939972 .6640625 .3919983 .6640625 .3899994 .6640625 .3809967 .66004946 .32499696 .6358795 .2769928 .6328125 .25099183 .6328125 .18499756 .6328125 .13798523 .6530609 .11898804 .6610565 .11199951 .6640625 .10998535 .6640625 .10899353 .6640625 .100997928 .6640625 .100997928 .65805056 .100997928 .64201357V.34495545C.100997928 .32695008 .100997928 .32095338 .11299133 .32095338 .117996219 .32095338 .11898804 .32196046 .1289978 .33395387 .15699768 .37493897 .20399475 .39894105 .2539978 .39894105 .30699159 .39894105 .33299256 .34994508 .34098817 .33294679 .35798646 .29396058 .35899354 .2449646 .35899354 .20697022 .35899354 .16897583 .35899354 .11193848 .33099366 .0667572 .30899049 .03060913 .269989 .005508423 .22599793 .005508423 .1599884 .005508423 .09498596 .050689699 .07699585 .12397766 .08198547 .12197876 .08799744 .12097168 .09298706 .12097168 .10998535 .12097168 .13699341 .13098145 .13699341 .16497803 .13699341 .1929779 .117996219 .20898438 .09298706 .20898438 .07499695 .20898438 .04899597 .19998169 .04899597 .16098023 .04899597 .075790408 .116989139-.021484375 .22799683-.021484375 .34098817-.021484375 .43998719 .073791507 .43998719 .20097351 .43998719 .3199463 .3600006 .4189453 .25498963 .4189453 .19799805 .4189453 .1539917 .39393617 .12799073 .36595155V.5727997Z"/>
<path id="font_1_7" d="M.12298584 .34773255C.12298584 .60061648 .24598694 .641037 .2999878 .641037 .33599855 .641037 .37199403 .62991335 .3909912 .5996094 .3789978 .5996094 .34098817 .5996094 .34098817 .558609 .34098817 .53660586 .35598756 .51760867 .38198854 .51760867 .40699769 .51760867 .42399598 .53260806 .42399598 .56159976 .42399598 .6137543 .38598634 .66503909 .29899598 .66503909 .17298889 .66503909 .040985109 .53559878 .040985109 .31570436 .040985109 .040527345 .16099549-.021484375 .24598694-.021484375 .35499574-.021484375 .44799806 .07354736 .44799806 .2036438 .44799806 .33673097 .35499574 .42578126 .25498963 .42578126 .1659851 .42578126 .1329956 .34873963 .12298584 .32070924V.34773255M.24598694 .005508423C.18299866 .005508423 .15299988 .061538698 .14399719 .08256531 .1349945 .10858154 .125 .15760803 .125 .22766114 .125 .30670167 .16099549 .40577699 .25099183 .40577699 .30599977 .40577699 .33499146 .3687439 .34999085 .33473207 .3659973 .29769898 .3659973 .2476654 .3659973 .20463562 .3659973 .15361023 .3659973 .10858154 .34700013 .07055664 .32199098 .022521973 .28599549 .005508423 .24598694 .005508423Z"/>
<path id="font_1_8" d="M.47499085 .62054446V.6435547H.23399353C.11299133 .6435547 .11099243 .6567688 .10699463 .67578127H.084991458L.053985597 .47554017H.07598877C.07899475 .49354554 .08799744 .555542 .100997928 .5665436 .10899353 .5725403 .18399048 .5725403 .19799805 .5725403H.4099884L.3039856 .42053224C.2769928 .38153077 .17599488 .21751404 .17599488 .029510498 .17599488 .018508912 .17599488-.021484375 .21699524-.021484375 .25898744-.021484375 .25898744 .017501831 .25898744 .030517579V.08052063C.25898744 .2295227 .2829895 .34553529 .32998658 .41253663L.47499085 .62054446Z"/>
<path id="font_1_9" d="M.2979889 .36079408C.34799195 .38781739 .42099 .43385316 .42099 .5179291 .42099 .6049957 .33699037 .66503909 .24499512 .66503909 .1459961 .66503909 .067993167 .59199526 .067993167 .5009155 .067993167 .46688844 .07798767 .43286134 .10598755 .39883424 .116989139 .38581849 .117996219 .38482667 .18798828 .3357849 .09098816 .29074098 .040985109 .22369385 .040985109 .15063477 .040985109 .044540407 .14199829-.021484375 .24398804-.021484375 .35499574-.021484375 .44799806 .060546876 .44799806 .16563416 .44799806 .2677307 .37599183 .3127594 .2979889 .36079408M.1619873 .4508667C.14898682 .45988465 .10899353 .48590089 .10899353 .5349426 .10899353 .59999087 .1769867 .641037 .24398804 .641037 .31599427 .641037 .37998963 .58898928 .37998963 .516922 .37998963 .45587159 .33599855 .4068451 .27799989 .3748169L.1619873 .4508667M.20899964 .32176209 .32998658 .2427063C.35598756 .22569275 .4019928 .19465637 .4019928 .13360596 .4019928 .057556154 .32499696 .005508423 .24499512 .005508423 .1599884 .005508423 .08699036 .06756592 .08699036 .15063477 .08699036 .22869873 .14399719 .29174806 .20899964 .32176209Z"/>
<clipPath id="clip_2">
<path transform="matrix(.8,0,0,-.8,15.430801,134.38481)" d="M0 0H194.26912V161.3956H0Z"/>
</clipPath>
<path id="font_3_1" d="M.42900086 .3973236H.54599C.5649872 .3973236 .58299258 .3973236 .58299258 .42633058 .58299258 .44433595 .56599429 .44433595 .548996 .44433595H.43699647L.46998597 .62516787C.47299195 .64315798 .47299195 .64515689 .48298646 .6541443 .49598695 .6661377 .5069885 .6661377 .5119934 .6661377 .526001 .6661377 .5349884 .6641388 .5469971 .65914919 .522995 .64715579 .5049896 .6211853 .5049896 .59420779 .5049896 .56422427 .5289917 .54823306 .55400088 .54823306 .59498599 .54823306 .6259918 .58421328 .6259918 .6221771 .6259918 .6731415 .57398989 .70214846 .5119934 .70214846 .46499635 .70214846 .40899659 .683136 .37399293 .62716677 .35099793 .59020999 .34498597 .551239 .32598878 .44433595H.22799683C.20899964 .44433595 .19198609 .44433595 .19198609 .41532899 .19198609 .3973236 .20899964 .3973236 .22499085 .3973236H.31698609L.24099732-.029037476C.23899842-.03804016 .22799683-.10110474 .22299195-.115112308 .22099304-.12011719 .20498657-.16615296 .17298889-.16615296 .1539917-.16615296 .1459961-.16314698 .13899231-.16015625 .1639862-.14814759 .18299866-.12211609 .18299866-.09410095 .18299866-.064071658 .15899658-.048049928 .13398743-.048049928 .09298706-.048049928 .06199646-.08409119 .06199646-.12211609 .06199646-.17616272 .11898804-.20214844 .17098999-.20214844 .24598694-.20214844 .2979889-.12812805 .30599977-.115112308 .34899903-.049057008 .37199403 .078048709 .375 .095077518L.42900086 .3973236Z"/>
<path id="font_4_1" d="M.37399293-.23898316C.37399293-.23498535 .37399293-.23298645 .35499574-.21498108 .24299622-.10298157 .19999695 .073013309 .19999695 .24900818 .19999695 .44599916 .24899292 .60798647 .36099244 .72099307 .37298585 .73298647 .37399293 .73399356 .37399293 .73799136 .37399293 .75 .3619995 .75 .35699464 .75 .34799195 .75 .34599305 .75 .31999208 .72898867 .17599488 .6139984 .10798645 .42999269 .10798645 .25 .10798645 .06600952 .1769867-.11299133 .31900025-.22898865 .34498597-.25097657 .34700013-.25097657 .35699464-.25097657 .3619995-.25097657 .37399293-.25097657 .37399293-.23898316Z"/>
<path id="font_3_2" d="M.54100039 .3621521C.54100039 .45314027 .47399903 .45314027 .47299195 .45314027 .43299867 .45314027 .39698792 .41114808 .39698792 .3771515 .39698792 .3491516 .41799928 .33714295 .4269867 .33215333 .46899415 .30714417 .47698976 .28915406 .47698976 .26914979 .47698976 .24716187 .4189911 .028182984 .3019867 .028182984 .22999573 .028182984 .22999573 .08818054 .22999573 .106170658 .22999573 .16416931 .2579956 .2371521 .2899933 .31715394 .2979889 .33714295 .30099488 .34614564 .30099488 .3621521 .30099488 .4201355 .24299622 .45214845 .18798828 .45214845 .08198547 .45214845 .03199768 .31614686 .03199768 .29615785 .03199768 .28215028 .04699707 .28215028 .055999757 .28215028 .067993167 .28215028 .07499695 .28215028 .07899475 .29515077 .11099243 .4031372 .1639862 .4161377 .18199158 .4161377 .18899536 .4161377 .19898987 .4161377 .19898987 .3951416 .19898987 .3721466 .18699646 .3431549 .18399048 .33514405 .13798523 .21916199 .12298584 .17416382 .12298584 .12617493 .12298584 .020187378 .20899964-.0078125 .29599-.0078125 .46798707-.0078125 .54100039 .27615357 .54100039 .3621521Z"/>
<path id="font_4_2" d="M.32798768 .24900818C.32798768 .43299867 .25898744 .6119995 .116989139 .7279968 .09098816 .75 .08898926 .75 .07899475 .75 .07398987 .75 .06199646 .75 .06199646 .73799136 .06199646 .73399356 .06199646 .7319946 .08099365 .71398928 .19299317 .60198977 .23599243 .42599488 .23599243 .25 .23599243 .053009035 .18699646-.10899353 .07499695-.22198487 .06298828-.23397827 .06199646-.23498535 .06199646-.23898316 .06199646-.25097657 .07398987-.25097657 .07899475-.25097657 .08799744-.25097657 .08999634-.25097657 .115997318-.22998047 .2599945-.114990238 .32798768 .069000247 .32798768 .24900818Z"/>
<path id="font_5_2" d="M.45700074 .3743744C.45700074 .4373932 .4249878 .44140626 .4169922 .44140626 .3929901 .44140626 .37098695 .41740418 .37098695 .39738465 .37098695 .38539125 .37799073 .37838746 .38198854 .3743744 .3919983 .3653717 .41799928 .33836366 .41799928 .28634645 .41799928 .24432373 .35798646 .010223389 .23799134 .010223389 .1769867 .010223389 .16499329 .06124878 .16499329 .0982666 .16499329 .14828491 .18798828 .2183075 .21499634 .29034425 .23098755 .33135987 .23498535 .34136964 .23498535 .3613739 .23498535 .4033966 .20498657 .44140626 .1559906 .44140626 .06399536 .44140626 .026992798 .29634095 .026992798 .28834535 .026992798 .28434754 .0309906 .27934266 .037994386 .27934266 .04699707 .27934266 .04798889 .28334046 .051986696 .29734803 .07598877 .38337709 .114990238 .42140199 .15299988 .42140199 .1619873 .42140199 .1789856 .42140199 .1789856 .38838197 .1789856 .36238099 .16799927 .33335877 .15299988 .29534913 .10499573 .16729737 .10499573 .13627625 .10499573 .11227417 .10499573 .09025574 .10798645 .049240114 .13899231 .021224976 .1749878-.009765625 .22499085-.009765625 .23399353-.009765625 .3999939-.009765625 .45700074 .3173523 .45700074 .3743744Z"/>
<path id="font_5_1" d="M.18399048 .04798889C.18399048 .07699585 .1599884 .09700012 .13598633 .09700012 .10699463 .09700012 .08699036 .07299805 .08699036 .04899597 .08699036 .019989014 .11099243 0 .1349945 0 .1639862 0 .18399048 .023986817 .18399048 .04798889Z"/>
<clipPath id="clip_6">
<path transform="matrix(.8,0,0,-.8,202.8138,134.3858)" d="M0 0H194.26912V161.39575H0Z"/>
</clipPath>
<path id="font_7_1" d="M.33499146 .43595887C.33999635 .44496156 .34999085 .4619751 .34999085 .48298646 .34999085 .5220032 .31498719 .56100466 .2649994 .56100466 .21199036 .56100466 .19699097 .5179901 .19099427 .50198367L.040985109 .08479309C.038986207 .07978821 .036987306 .072784427 .036987306 .06878662 .036987306 .056777955 .041992189 .054779054 .06399536 .044769288 .07598877 .038772584 .09599304 .029769898 .100997928 .029769898 .11099243 .029769898 .11299133 .0337677 .12098694 .04777527L.33499146 .43595887Z"/>
</defs>
<path transform="matrix(.8,0,0,-.8,15.430801,134.38481)" stroke-width=".3985" stroke-linecap="butt" stroke-miterlimit="10" stroke-linejoin="miter" fill="none" stroke="#cbcbcb" d="M24.28363 0V161.3956M48.56728 0V161.3956M72.8509 0V161.3956M97.13455 0V161.3956M121.4182 0V161.3956M145.70183 0V161.3956M169.98548 0V161.3956M194.26912 0V161.3956"/>
<path transform="matrix(.8,0,0,-.8,15.430801,134.38481)" stroke-width=".3985" stroke-linecap="butt" stroke-miterlimit="10" stroke-linejoin="miter" fill="none" stroke="#cbcbcb" d="M0 12.91164H194.26912M0 25.82329H194.26912M0 38.73494H194.26912M0 51.64659H194.26912M0 64.55823H194.26912M0 77.46988H194.26912M0 90.38153H194.26912M0 103.29318H194.26912M0 116.20483H194.26912M0 129.11647H194.26912M0 142.02812H194.26912M0 154.93978H194.26912"/>
<path transform="matrix(.8,0,0,-.8,15.430801,134.38481)" stroke-width=".19925" stroke-linecap="butt" stroke-miterlimit="10" stroke-linejoin="miter" fill="none" stroke="#929292" d="M24.28363-2.12604V2.12604M48.56728-2.12604V2.12604M72.8509-2.12604V2.12604M97.13455-2.12604V2.12604M121.4182-2.12604V2.12604M145.70183-2.12604V2.12604M169.98548-2.12604V2.12604M194.26912-2.12604V2.12604"/>
<path transform="matrix(.8,0,0,-.8,15.430801,134.38481)" stroke-width=".19925" stroke-linecap="butt" stroke-miterlimit="10" stroke-linejoin="miter" fill="none" stroke="#929292" d="M-2.12593 12.91164H2.12593M-2.12593 25.82329H2.12593M-2.12593 38.73494H2.12593M-2.12593 51.64659H2.12593M-2.12593 64.55823H2.12593M-2.12593 77.46988H2.12593M-2.12593 90.38153H2.12593M-2.12593 103.29318H2.12593M-2.12593 116.20483H2.12593M-2.12593 129.11647H2.12593M-2.12593 142.02812H2.12593M-2.12593 154.93978H2.12593"/>
<path transform="matrix(.8,0,0,-.8,15.430801,134.38481)" stroke-width=".3985" stroke-linecap="butt" stroke-miterlimit="10" stroke-linejoin="miter" fill="none" stroke="#000000" d="M0 0H192.2766"/>
<path transform="matrix(.8,0,0,-.8,169.25208,134.38481)" d="M1.99252 0-1.19551 1.59401 0 0-1.19551-1.59401"/>
<path transform="matrix(.8,0,0,-.8,15.430801,134.38481)" stroke-width=".3985" stroke-linecap="butt" stroke-miterlimit="10" stroke-linejoin="miter" fill="none" stroke="#000000" d="M0 0V159.40308"/>
<path transform="matrix(0,-.8,-.8,-0,15.430801,6.8623507)" d="M1.99252 0-1.19551 1.59401 0 0-1.19551-1.59401"/>
<use data-text="1" xlink:href="#font_1_2" transform="matrix(9.56416,0,0,-9.56416,30.175602,145.59601)"/>
<use data-text="0" xlink:href="#font_1_1" transform="matrix(9.56416,0,0,-9.56416,34.862039,145.59601)"/>
<use data-text="2" xlink:href="#font_1_3" transform="matrix(9.56416,0,0,-9.56416,49.602,145.59601)"/>
<use data-text="0" xlink:href="#font_1_1" transform="matrix(9.56416,0,0,-9.56416,54.288438,145.59601)"/>
<use data-text="3" xlink:href="#font_1_4" transform="matrix(9.56416,0,0,-9.56416,69.029209,145.59601)"/>
<use data-text="0" xlink:href="#font_1_1" transform="matrix(9.56416,0,0,-9.56416,73.71564,145.59601)"/>
<use data-text="4" xlink:href="#font_1_5" transform="matrix(9.56416,0,0,-9.56416,88.455608,145.59601)"/>
<use data-text="0" xlink:href="#font_1_1" transform="matrix(9.56416,0,0,-9.56416,93.142047,145.59601)"/>
<use data-text="5" xlink:href="#font_1_6" transform="matrix(9.56416,0,0,-9.56416,107.882808,145.59601)"/>
<use data-text="0" xlink:href="#font_1_1" transform="matrix(9.56416,0,0,-9.56416,112.569248,145.59601)"/>
<use data-text="6" xlink:href="#font_1_7" transform="matrix(9.56416,0,0,-9.56416,127.31001,145.59601)"/>
<use data-text="0" xlink:href="#font_1_1" transform="matrix(9.56416,0,0,-9.56416,131.99645,145.59601)"/>
<use data-text="7" xlink:href="#font_1_8" transform="matrix(9.56416,0,0,-9.56416,146.7364,145.59601)"/>
<use data-text="0" xlink:href="#font_1_1" transform="matrix(9.56416,0,0,-9.56416,151.42284,145.59601)"/>
<use data-text="8" xlink:href="#font_1_9" transform="matrix(9.56416,0,0,-9.56416,166.1636,145.59601)"/>
<use data-text="0" xlink:href="#font_1_1" transform="matrix(9.56416,0,0,-9.56416,170.85004,145.59601)"/>
<use data-text="2" xlink:href="#font_1_3" transform="matrix(9.56416,0,0,-9.56416,5.7004015,127.13761)"/>
<use data-text="4" xlink:href="#font_1_5" transform="matrix(9.56416,0,0,-9.56416,5.7004015,116.808017)"/>
<use data-text="6" xlink:href="#font_1_7" transform="matrix(9.56416,0,0,-9.56416,5.7004015,106.47841)"/>
<use data-text="8" xlink:href="#font_1_9" transform="matrix(9.56416,0,0,-9.56416,5.7004015,96.14961)"/>
<use data-text="1" xlink:href="#font_1_2" transform="matrix(9.56416,0,0,-9.56416,1.0180016,85.82001)"/>
<use data-text="0" xlink:href="#font_1_1" transform="matrix(9.56416,0,0,-9.56416,5.7044374,85.82001)"/>
<use data-text="1" xlink:href="#font_1_2" transform="matrix(9.56416,0,0,-9.56416,1.0180016,75.49042)"/>
<use data-text="2" xlink:href="#font_1_3" transform="matrix(9.56416,0,0,-9.56416,5.7044374,75.49042)"/>
<use data-text="1" xlink:href="#font_1_2" transform="matrix(9.56416,0,0,-9.56416,1.0180016,65.16161)"/>
<use data-text="4" xlink:href="#font_1_5" transform="matrix(9.56416,0,0,-9.56416,5.7044374,65.16161)"/>
<use data-text="1" xlink:href="#font_1_2" transform="matrix(9.56416,0,0,-9.56416,1.0180016,54.83201)"/>
<use data-text="6" xlink:href="#font_1_7" transform="matrix(9.56416,0,0,-9.56416,5.7044374,54.83201)"/>
<use data-text="1" xlink:href="#font_1_2" transform="matrix(9.56416,0,0,-9.56416,1.0180016,44.50241)"/>
<use data-text="8" xlink:href="#font_1_9" transform="matrix(9.56416,0,0,-9.56416,5.7044374,44.50241)"/>
<use data-text="2" xlink:href="#font_1_3" transform="matrix(9.56416,0,0,-9.56416,1.0180016,34.173608)"/>
<use data-text="0" xlink:href="#font_1_1" transform="matrix(9.56416,0,0,-9.56416,5.7044374,34.173608)"/>
<use data-text="2" xlink:href="#font_1_3" transform="matrix(9.56416,0,0,-9.56416,1.0180016,23.844017)"/>
<use data-text="2" xlink:href="#font_1_3" transform="matrix(9.56416,0,0,-9.56416,5.7044374,23.844017)"/>
<use data-text="2" xlink:href="#font_1_3" transform="matrix(9.56416,0,0,-9.56416,1.0180016,13.514412)"/>
<use data-text="4" xlink:href="#font_1_5" transform="matrix(9.56416,0,0,-9.56416,5.7044374,13.514412)"/>
<g clip-path="url(#clip_2)">
<path transform="matrix(.8,0,0,-.8,15.430801,134.38481)" stroke-width="1.59404" stroke-linecap="butt" stroke-miterlimit="10" stroke-linejoin="miter" fill="none" stroke="#0000ff" d="M0 0 8.09453 .01326 16.18907 .10625 24.2836 .35864 32.37814 .85013 40.47267 1.66043 48.56721 2.86923 56.66174 4.55624 64.75629 6.80121 72.85081 9.6836 80.94536 13.2835 89.03992 17.68028 97.13445 22.95393 105.22899 29.18387 113.32352 36.45001 121.41806 44.83202 129.51259 54.40935 137.60713 65.26256 145.70166 77.46988 153.7962 91.11232 161.89075 106.26736 169.98529 123.01764 178.07984 141.44258 186.17436 161.62026 194.2689 183.63204"/>
<use data-text="f" xlink:href="#font_3_1" transform="matrix(9.56416,0,0,-9.56416,121.012409,42.065607)" fill="#0000ff"/>
<use data-text="(" xlink:href="#font_4_1" transform="matrix(9.56416,0,0,-9.56416,127.501209,42.065607)" fill="#0000ff"/>
<use data-text="v" xlink:href="#font_3_2" transform="matrix(9.56416,0,0,-9.56416,131.686,42.065607)" fill="#0000ff"/>
<use data-text=")" xlink:href="#font_4_2" transform="matrix(9.56416,0,0,-9.56416,137.4596,42.065607)" fill="#0000ff"/>
</g>
<use data-text="v" xlink:href="#font_5_2" transform="matrix(9.56416,0,0,-9.56416,131.56601,131.03762)"/>
<path transform="matrix(.8,0,0,-.8,202.8138,134.3858)" stroke-width=".3985" stroke-linecap="butt" stroke-miterlimit="10" stroke-linejoin="miter" fill="none" stroke="#cbcbcb" d="M24.28363 0V161.39575M48.56728 0V161.39575M72.8509 0V161.39575M97.13455 0V161.39575M121.4182 0V161.39575M145.70183 0V161.39575M169.98548 0V161.39575M194.26912 0V161.39575"/>
<path transform="matrix(.8,0,0,-.8,202.8138,134.3858)" stroke-width=".3985" stroke-linecap="butt" stroke-miterlimit="10" stroke-linejoin="miter" fill="none" stroke="#cbcbcb" d="M0 26.89929H194.26912M0 53.79858H194.26912M0 80.69788H194.26912M0 107.59717H194.26912M0 134.49646H194.26912M0 161.39575H194.26912"/>
<path transform="matrix(.8,0,0,-.8,202.8138,134.3858)" stroke-width=".19925" stroke-linecap="butt" stroke-miterlimit="10" stroke-linejoin="miter" fill="none" stroke="#929292" d="M24.28363-2.12627V2.12627M48.56728-2.12627V2.12627M72.8509-2.12627V2.12627M97.13455-2.12627V2.12627M121.4182-2.12627V2.12627M145.70183-2.12627V2.12627M169.98548-2.12627V2.12627M194.26912-2.12627V2.12627"/>
<path transform="matrix(.8,0,0,-.8,202.8138,134.3858)" stroke-width=".19925" stroke-linecap="butt" stroke-miterlimit="10" stroke-linejoin="miter" fill="none" stroke="#929292" d="M-2.12593 26.89929H2.12593M-2.12593 53.79858H2.12593M-2.12593 80.69788H2.12593M-2.12593 107.59717H2.12593M-2.12593 134.49646H2.12593M-2.12593 161.39575H2.12593"/>
<path transform="matrix(.8,0,0,-.8,202.8138,134.3858)" stroke-width=".3985" stroke-linecap="butt" stroke-miterlimit="10" stroke-linejoin="miter" fill="none" stroke="#000000" d="M0 0H192.2766"/>
<path transform="matrix(.8,0,0,-.8,356.63508,134.3858)" d="M1.99252 0-1.19551 1.59401 0 0-1.19551-1.59401"/>
<path transform="matrix(.8,0,0,-.8,202.8138,134.3858)" stroke-width=".3985" stroke-linecap="butt" stroke-miterlimit="10" stroke-linejoin="miter" fill="none" stroke="#000000" d="M0 0V159.40323"/>
<path transform="matrix(0,-.8,-.8,-0,202.8138,6.86322)" d="M1.99252 0-1.19551 1.59401 0 0-1.19551-1.59401"/>
<use data-text="1" xlink:href="#font_1_2" transform="matrix(9.56416,0,0,-9.56416,217.5586,145.59781)"/>
<use data-text="0" xlink:href="#font_1_1" transform="matrix(9.56416,0,0,-9.56416,222.24503,145.59781)"/>
<use data-text="2" xlink:href="#font_1_3" transform="matrix(9.56416,0,0,-9.56416,236.985,145.59781)"/>
<use data-text="0" xlink:href="#font_1_1" transform="matrix(9.56416,0,0,-9.56416,241.67144,145.59781)"/>
<use data-text="3" xlink:href="#font_1_4" transform="matrix(9.56416,0,0,-9.56416,256.4122,145.59781)"/>
<use data-text="0" xlink:href="#font_1_1" transform="matrix(9.56416,0,0,-9.56416,261.09864,145.59781)"/>
<use data-text="4" xlink:href="#font_1_5" transform="matrix(9.56416,0,0,-9.56416,275.8386,145.59781)"/>
<use data-text="0" xlink:href="#font_1_1" transform="matrix(9.56416,0,0,-9.56416,280.52503,145.59781)"/>
<use data-text="5" xlink:href="#font_1_6" transform="matrix(9.56416,0,0,-9.56416,295.2658,145.59781)"/>
<use data-text="0" xlink:href="#font_1_1" transform="matrix(9.56416,0,0,-9.56416,299.95225,145.59781)"/>
<use data-text="6" xlink:href="#font_1_7" transform="matrix(9.56416,0,0,-9.56416,314.693,145.59781)"/>
<use data-text="0" xlink:href="#font_1_1" transform="matrix(9.56416,0,0,-9.56416,319.37944,145.59781)"/>
<use data-text="7" xlink:href="#font_1_8" transform="matrix(9.56416,0,0,-9.56416,334.1194,145.59781)"/>
<use data-text="0" xlink:href="#font_1_1" transform="matrix(9.56416,0,0,-9.56416,338.80586,145.59781)"/>
<use data-text="8" xlink:href="#font_1_9" transform="matrix(9.56416,0,0,-9.56416,353.5466,145.59781)"/>
<use data-text="0" xlink:href="#font_1_1" transform="matrix(9.56416,0,0,-9.56416,358.23304,145.59781)"/>
<use data-text="0" xlink:href="#font_1_1" transform="matrix(9.56416,0,0,-9.56416,185.7994,115.948207)"/>
<use data-text="." xlink:href="#font_5_1" transform="matrix(9.56416,0,0,-9.56416,190.4818,115.948207)"/>
<use data-text="2" xlink:href="#font_1_3" transform="matrix(9.56416,0,0,-9.56416,193.08261,115.948207)"/>
<use data-text="0" xlink:href="#font_1_1" transform="matrix(9.56416,0,0,-9.56416,185.7994,94.429)"/>
<use data-text="." xlink:href="#font_5_1" transform="matrix(9.56416,0,0,-9.56416,190.4818,94.429)"/>
<use data-text="4" xlink:href="#font_1_5" transform="matrix(9.56416,0,0,-9.56416,193.08261,94.429)"/>
<use data-text="0" xlink:href="#font_1_1" transform="matrix(9.56416,0,0,-9.56416,185.7994,72.909)"/>
<use data-text="." xlink:href="#font_5_1" transform="matrix(9.56416,0,0,-9.56416,190.4818,72.909)"/>
<use data-text="6" xlink:href="#font_1_7" transform="matrix(9.56416,0,0,-9.56416,193.08261,72.909)"/>
<use data-text="0" xlink:href="#font_1_1" transform="matrix(9.56416,0,0,-9.56416,185.7994,51.3898)"/>
<use data-text="." xlink:href="#font_5_1" transform="matrix(9.56416,0,0,-9.56416,190.4818,51.3898)"/>
<use data-text="8" xlink:href="#font_1_9" transform="matrix(9.56416,0,0,-9.56416,193.08261,51.3898)"/>
<use data-text="1" xlink:href="#font_1_2" transform="matrix(9.56416,0,0,-9.56416,193.0834,29.870606)"/>
<use data-text="1" xlink:href="#font_1_2" transform="matrix(9.56416,0,0,-9.56416,185.7994,8.351402)"/>
<use data-text="." xlink:href="#font_5_1" transform="matrix(9.56416,0,0,-9.56416,190.4818,8.351402)"/>
<use data-text="2" xlink:href="#font_1_3" transform="matrix(9.56416,0,0,-9.56416,193.08261,8.351402)"/>
<g clip-path="url(#clip_6)">
<path transform="matrix(.8,0,0,-.8,202.8138,134.3858)" stroke-width="1.59404" stroke-linecap="butt" stroke-miterlimit="10" stroke-linejoin="miter" fill="none" stroke="#0000ff" d="M0 0 8.09453 .24905 16.18907 .99626 24.2836 2.2416 32.37814 3.9851 40.47267 6.2265 48.56721 8.96632 56.66174 12.20421 64.75629 15.94025 72.85081 20.1742 80.94536 24.90659 89.03992 30.13687 97.13445 35.86562 105.22899 42.09201 113.32352 48.81683 121.41806 56.03929 129.51259 63.75938 137.60713 71.97845 145.70166 80.6965 153.7962 89.91087 161.89075 99.6269 169.98529 109.8365 178.07984 120.54782 186.17436 131.75406 194.2689 143.46062"/>
<use data-text="f" xlink:href="#font_3_1" transform="matrix(9.56416,0,0,-9.56416,299.9754,54.679399)" fill="#0000ff"/>
<use data-text="&#x2032;" xlink:href="#font_7_1" transform="matrix(6.37608,0,0,-6.37608,306.4642,51.2082)" fill="#0000ff"/>
<use data-text="(" xlink:href="#font_4_1" transform="matrix(9.56416,0,0,-9.56416,309.18263,54.679399)" fill="#0000ff"/>
<use data-text="v" xlink:href="#font_3_2" transform="matrix(9.56416,0,0,-9.56416,313.3674,54.679399)" fill="#0000ff"/>
<use data-text=")" xlink:href="#font_4_2" transform="matrix(9.56416,0,0,-9.56416,319.141,54.679399)" fill="#0000ff"/>
</g>
<use data-text="v" xlink:href="#font_5_2" transform="matrix(9.56416,0,0,-9.56416,318.949,131.0386)"/>
</svg>
