<svg xmlns="http://www.w3.org/2000/svg" xmlns:xlink="http://www.w3.org/1999/xlink" version="1.1" width="197" height="164" viewBox="0 0 197 164">
<defs>
<path id="font_1_1" d="M.6589966 .23046875C.6759949 .23046875 .69400027 .23046875 .69400027 .25045777 .69400027 .27046205 .6759949 .27046205 .6589966 .27046205H.117996219C.100997928 .27046205 .08299255 .27046205 .08299255 .25045777 .08299255 .23046875 .100997928 .23046875 .117996219 .23046875H.6589966Z"/>
<path id="font_2_5" d="M.18399048 .35888673C.16699219 .35787965 .16299439 .35688783 .16299439 .34788514 .16299439 .33789063 .16799927 .33789063 .18598938 .33789063H.23199463C.31698609 .33789063 .35499574 .267807 .35499574 .17172241 .35499574 .04058838 .2869873 .005508423 .23799134 .005508423 .18998719 .005508423 .10798645 .028564454 .07899475 .09472656 .11099243 .08970642 .13999939 .10771179 .13999939 .14372254 .13999939 .17271424 .11898804 .1927185 .09098816 .1927185 .066986087 .1927185 .040985109 .1787262 .040985109 .14071656 .040985109 .051620485 .12998963-.021484375 .24099732-.021484375 .3600006-.021484375 .44799806 .06965637 .44799806 .17071533 .44799806 .26280213 .37399293 .33488465 .27799989 .35188294 .36499024 .3769226 .42099 .45011903 .42099 .5282135 .42099 .6071167 .33898927 .66503909 .24198914 .66503909 .14199829 .66503909 .067993167 .604126 .067993167 .5312042 .067993167 .49121095 .09899902 .48321534 .11399841 .48321534 .1349945 .48321534 .15899658 .49821473 .15899658 .5282135 .15899658 .5602112 .1349945 .57421877 .11299133 .57421877 .10699463 .57421877 .10499573 .57421877 .101989749 .57321169 .13999939 .641037 .23399353 .641037 .23899842 .641037 .27198792 .641037 .33699037 .6260681 .33699037 .5282135 .33699037 .5092163 .33399964 .453125 .30499269 .41001893 .2749939 .3658905 .24099732 .36288453 .21398926 .36187745L.18399048 .35888673Z"/>
<path id="font_2_4" d="M.43998719 .16790772H.41799928C.4149933 .15092469 .40699769 .09597778 .39698792 .07998657 .3899994 .070999149 .33299256 .070999149 .30299378 .070999149H.117996219C.14498902 .09397888 .20599365 .15792847 .23199463 .18190003 .38398744 .3217926 .43998719 .37374879 .43998719 .47270204 .43998719 .5878906 .34899903 .66503909 .23298645 .66503909 .116989139 .66503909 .04899597 .5658264 .04899597 .4797058 .04899597 .42871095 .09298706 .42871095 .09599304 .42871095 .116989139 .42871095 .14299011 .44371034 .14299011 .475708 .14299011 .5037079 .12399292 .5227051 .09599304 .5227051 .08699036 .5227051 .084991458 .5227051 .08198547 .521698 .100997928 .5899048 .15499878 .6360321 .21998596 .6360321 .30499269 .6360321 .35699464 .56481936 .35699464 .47270204 .35699464 .3877411 .30799867 .313797 .25099183 .24984741L.04899597 .023986817V0H.4139862L.43998719 .16790772Z"/>
<path id="font_2_3" d="M.28799439 .64105227C.28799439 .664032 .28799439 .66503909 .2679901 .66503909 .24398804 .6380615 .19400025 .6012573 .09098816 .6012573V.5722656C.11399841 .5722656 .1639862 .5722656 .21899414 .59825137V.07701111C.21899414 .041000368 .21598816 .0289917 .12799073 .0289917H.09700012V0C.12399292 .0019989014 .22099304 .0019989014 .2539978 .0019989014 .2869873 .0019989014 .3829956 .0019989014 .4099884 0V.0289917H.3789978C.29100038 .0289917 .28799439 .041000368 .28799439 .07701111V.64105227Z"/>
<path id="font_2_6" d="M.36099244 .6508026C.36099244 .6697998 .36099244 .6748047 .34700013 .6748047 .33898927 .6748047 .33599855 .6748047 .32798768 .662796L.026992798 .19598389V.16699219H.2899933V.07598877C.2899933 .038986207 .28799439 .0289917 .21499634 .0289917H.19499207V0C.21798706 .0019989014 .29699708 .0019989014 .32499696 .0019989014 .35299684 .0019989014 .43299867 .0019989014 .45599366 0V.0289917H.43598939C.3639984 .0289917 .36099244 .038986207 .36099244 .07598877V.16699219H.46199037V.19598389H.36099244V.6508026M.29499818 .5728302V.19598389H.051986696L.29499818 .5728302Z"/>
<clipPath id="clip_3">
<path transform="matrix(1,0,0,-1.00006,1.0300007,162.6037)" d="M0 0H194.26912V161.39667H0Z"/>
</clipPath>
<path id="font_4_1" d="M.33799745 .12710572C.33399964 .111083988 .33198548 .10708618 .31900025 .09207153 .27799989 .039016725 .23599243 .019989014 .20498657 .019989014 .17199707 .019989014 .14099121 .046020509 .14099121 .11508179 .14099121 .1681366 .17098999 .28025819 .19299317 .32530213 .22200012 .38136292 .2669983 .42140199 .30899049 .42140199 .375 .42140199 .3880005 .3393097 .3880005 .333313L.3849945 .31929017 .33799745 .12710572M.3999939 .37535096C.3869934 .40438844 .35899354 .44140626 .30899049 .44140626 .19999695 .44140626 .07598877 .3042755 .07598877 .15513611 .07598877 .05102539 .13899231 0 .20298767 0 .2559967 0 .30299378 .042007448 .32099916 .062042238L.29899598-.028030396C.2849884-.08305359 .2789917-.108062747 .24299622-.14308167 .20199585-.18411255 .1639862-.18411255 .14199829-.18411255 .11199951-.18411255 .08699036-.18211365 .06199646-.17410279 .09399414-.1651001 .101989749-.13708496 .101989749-.12608338 .101989749-.110061649 .08999634-.094055179 .067993167-.094055179 .04399109-.094055179 .017990113-.11407471 .017990113-.14709473 .017990113-.18811035 .05899048-.20410156 .14399719-.20410156 .272995-.20410156 .33999635-.12107849 .35299684-.06704712L.46398927 .38131715C.46699525 .3933258 .46699525 .3953247 .46699525 .3973236 .46699525 .41133119 .45599366 .42233277 .44099427 .42233277 .4169922 .42233277 .40299989 .40234376 .3999939 .37530519V.37535096Z"/>
<path id="font_2_1" d="M.32499696-.24298096C.32499696-.23999024 .32499696-.23799134 .30799867-.22097779 .20799256-.11997986 .1519928 .045013429 .1519928 .24900818 .1519928 .44299317 .19898987 .60998538 .31498719 .7279968 .32499696 .7369995 .32499696 .7389984 .32499696 .74198916 .32499696 .74798586 .31999208 .75 .31599427 .75 .30299378 .75 .22099304 .6779938 .17199707 .5799866 .12098694 .47898866 .09799194 .37199403 .09799194 .24900818 .09799194 .16000366 .11199951 .041015626 .1639862-.06599426 .22299195-.18598938 .30499269-.25097657 .31599427-.25097657 .31999208-.25097657 .32499696-.24897766 .32499696-.24298096Z"/>
<path id="font_4_2" d="M.47399903 .40820313C.44198609 .40219117 .42999269 .3781891 .42999269 .3591919 .42999269 .33518983 .44898988 .3271942 .46299745 .3271942 .49299623 .3271942 .5139923 .3531952 .5139923 .380188 .5139923 .4223938 .46598817 .44140626 .42399598 .44140626 .36299134 .44140626 .32899476 .38119508 .31999208 .36219789 .29699708 .4373932 .23498535 .44140626 .21699524 .44140626 .114990238 .44140626 .06098938 .31021119 .06098938 .28822328 .06098938 .28422547 .06498718 .27923585 .07199097 .27923585 .07998657 .27923585 .08198547 .28523255 .083999637 .2892151 .117996219 .40019227 .18499756 .42140199 .21398926 .42140199 .25898744 .42140199 .2679901 .37919618 .2679901 .3551941 .2679901 .33319093 .2619934 .31021119 .25 .26223756L.21598816 .12535095C.20098877 .06535339 .17199707 .010223389 .11898804 .010223389 .11399841 .010223389 .08898926 .010223389 .067993167 .023330689 .10398865 .03036499 .11199951 .06036377 .11199951 .07235718 .11199951 .09236145 .09700012 .10435486 .07798767 .10435486 .053985597 .10435486 .027999878 .083358768 .027999878 .051361085 .027999878 .009231567 .07499695-.009765625 .117996219-.009765625 .1659851-.009765625 .19999695 .028366089 .22099304 .069366458 .23699951 .010223389 .2869873-.009765625 .32398988-.009765625 .42599488-.009765625 .47999574 .12135315 .47999574 .1433258 .47999574 .14833069 .47599793 .15232849 .46998597 .15232849 .46099855 .15232849 .45999146 .14732361 .45700074 .139328 .42999269 .051361085 .37199403 .010223389 .32699586 .010223389 .2919922 .010223389 .272995 .036361696 .272995 .07736206 .272995 .099365238 .2769928 .115356449 .29299928 .18130493L.32798768 .3171997C.34298707 .37719728 .3769989 .42140199 .4229889 .42140199 .4249878 .42140199 .45298768 .42140199 .47399903 .40820313Z"/>
<path id="font_2_2" d="M.28199769 .24900818C.28199769 .32499696 .27198792 .44898988 .21598816 .5649872 .15699768 .68499758 .07499695 .75 .06399536 .75 .05999756 .75 .054992677 .74798586 .054992677 .74198916 .054992677 .7389984 .054992677 .7369995 .07199097 .71998599 .17199707 .61898806 .22799683 .45399476 .22799683 .25 .22799683 .056015016 .18099976-.11099243 .06498718-.22898865 .054992677-.23799134 .054992677-.23999024 .054992677-.24298096 .054992677-.24897766 .05999756-.25097657 .06399536-.25097657 .07699585-.25097657 .15899658-.1789856 .20799256-.08099365 .25898744 .021011353 .28199769 .12901306 .28199769 .24900818Z"/>
</defs>
<path transform="matrix(1,0,0,-1.00006,1.0300007,162.6037)" stroke-width=".3985" stroke-linecap="butt" stroke-miterlimit="10" stroke-linejoin="miter" fill="none" stroke="#cbcbcb" d="M13.87636 0V161.39667M41.62909 0V161.39667M69.38182 0V161.39667M124.88728 0V161.39667M152.64002 0V161.39667M180.39275 0V161.39667"/>
<path transform="matrix(1,0,0,-1.00006,1.0300007,162.6037)" stroke-width=".3985" stroke-linecap="butt" stroke-miterlimit="10" stroke-linejoin="miter" fill="none" stroke="#cbcbcb" d="M0 4.81781H194.26912M0 28.90686H194.26912M0 77.08496H194.26912M0 101.17403H194.26912M0 125.26308H194.26912M0 149.35213H194.26912"/>
<path transform="matrix(1,0,0,-1.00006,1.0300007,162.6037)" stroke-width=".19925" stroke-linecap="butt" stroke-miterlimit="10" stroke-linejoin="miter" fill="none" stroke="#929292" d="M13.87636 50.86998V55.12184M41.62909 50.86998V55.12184M69.38182 50.86998V55.12184M124.88728 50.86998V55.12184M152.64002 50.86998V55.12184M180.39275 50.86998V55.12184"/>
<path transform="matrix(1,0,0,-1.00006,1.0300007,162.6037)" stroke-width=".19925" stroke-linecap="butt" stroke-miterlimit="10" stroke-linejoin="miter" fill="none" stroke="#929292" d="M95.00858 4.81781H99.26051M95.00858 28.90686H99.26051M95.00858 77.08496H99.26051M95.00858 101.17403H99.26051M95.00858 125.26308H99.26051M95.00858 149.35213H99.26051"/>
<path transform="matrix(1,0,0,-1.00006,1.0300007,162.6037)" stroke-width=".3985" stroke-linecap="butt" stroke-miterlimit="10" stroke-linejoin="miter" fill="none" stroke="#000000" d="M0 52.99591H192.2766"/>
<path transform="matrix(1,0,0,-1.00006,193.3066,109.604618)" d="M1.99252 0-1.19551 1.59401 0 0-1.19551-1.59401"/>
<path transform="matrix(1,0,0,-1.00006,1.0300007,162.6037)" stroke-width=".3985" stroke-linecap="butt" stroke-miterlimit="10" stroke-linejoin="miter" fill="none" stroke="#000000" d="M97.13455 0V159.40415"/>
<path transform="matrix(0,-1.00006,-1,-0,98.16455,3.1900025)" d="M1.99252 0-1.19551 1.59401 0 0-1.19551-1.59401"/>
<use data-text="&#x2212;" xlink:href="#font_1_1" transform="matrix(11.9552,0,0,-11.955917,7.3310015,123.61936)"/>
<use data-text="3" xlink:href="#font_2_5" transform="matrix(11.9552,0,0,-11.955917,16.629002,123.61936)"/>
<use data-text="&#x2212;" xlink:href="#font_1_1" transform="matrix(11.9552,0,0,-11.955917,35.083,123.61936)"/>
<use data-text="2" xlink:href="#font_2_4" transform="matrix(11.9552,0,0,-11.955917,44.381006,123.61936)"/>
<use data-text="&#x2212;" xlink:href="#font_1_1" transform="matrix(11.9552,0,0,-11.955917,62.836004,123.61936)"/>
<use data-text="1" xlink:href="#font_2_3" transform="matrix(11.9552,0,0,-11.955917,72.134,123.61936)"/>
<use data-text="1" xlink:href="#font_2_3" transform="matrix(11.9552,0,0,-11.955917,122.991,123.61936)"/>
<use data-text="2" xlink:href="#font_2_4" transform="matrix(11.9552,0,0,-11.955917,150.743,123.61936)"/>
<use data-text="3" xlink:href="#font_2_5" transform="matrix(11.9552,0,0,-11.955917,178.496,123.61936)"/>
<use data-text="&#x2212;" xlink:href="#font_1_1" transform="matrix(11.9552,0,0,-11.955917,76.703,161.13962)"/>
<use data-text="2" xlink:href="#font_2_4" transform="matrix(11.9552,0,0,-11.955917,86.001,161.13962)"/>
<use data-text="&#x2212;" xlink:href="#font_1_1" transform="matrix(11.9552,0,0,-11.955917,76.703,137.04917)"/>
<use data-text="1" xlink:href="#font_2_3" transform="matrix(11.9552,0,0,-11.955917,86.001,137.04917)"/>
<use data-text="1" xlink:href="#font_2_3" transform="matrix(11.9552,0,0,-11.955917,86.002,89.3663)"/>
<use data-text="2" xlink:href="#font_2_4" transform="matrix(11.9552,0,0,-11.955917,86.002,65.27586)"/>
<use data-text="3" xlink:href="#font_2_5" transform="matrix(11.9552,0,0,-11.955917,86.002,41.185419)"/>
<use data-text="4" xlink:href="#font_2_6" transform="matrix(11.9552,0,0,-11.955917,86.002,17.09497)"/>
<g clip-path="url(#clip_3)">
<path transform="matrix(1,0,0,-1.00006,1.0300007,162.6037)" stroke-width=".3985" stroke-linecap="butt" stroke-miterlimit="10" stroke-linejoin="miter" fill="none" stroke="#0000ff" d="M13.87636 16.86234 14.71732 17.2273 15.55827 17.59227 16.39923 17.95724 17.2402 18.32222 18.08116 18.6872 18.92212 19.05215 19.76308 19.41713 20.60405 19.78212 21.445 20.14706 22.28596 20.51205 23.12694 20.87703 23.9679 21.24199 24.80887 21.60698 25.64983 21.97194 26.4908 22.33693 27.33176 22.70189 28.17271 23.06686 29.01369 23.43185 29.85464 23.7968 30.6956 24.16179 31.53656 24.52676 32.37753 24.89172 33.21849 25.2567 34.05945 25.62167 34.9004 25.98665 35.74138 26.35162 36.58234 26.71658 37.4233 27.08157 38.26427 27.44653 39.10522 27.81151 39.94618 28.1765 40.78714 28.54144 41.62811 28.90643 42.46907 29.27141 43.31003 29.63637 44.151 30.00134 44.99196 30.36632 45.83292 30.73131 46.67389 31.09627 47.51486 31.46124 48.35582 31.82622 49.19678 32.19118 50.03773 32.55615 50.87871 32.92114 51.71967 33.28609 52.56062 33.65108 53.4016 34.01605 54.24255 34.38103 55.08351 34.74599 55.92447 35.11096 56.76544 35.47595 57.6064 35.84091 58.44736 36.20589 59.28833 36.57086 60.12929 36.93582 60.97025 37.3008 61.8112 37.66579 62.65218 38.03076 63.49313 38.39572 64.33409 38.76071 65.17506 39.12567 66.01602 39.49065 66.85698 39.8556 67.69794 40.2206 68.53893 40.58556 69.37988 40.95053 70.22084 41.3155 71.0618 41.68048 71.90277 42.04546 72.74373 42.41043 73.5847 42.7754 74.42566 43.14038 75.26662 43.50536 76.10757 43.87032 76.94855 44.2353 77.7895 44.60027 78.63046 44.96524 79.47144 45.33022 80.3124 45.69519 81.15335 46.06017 81.99432 46.42513 82.83528 46.7901 83.67624 47.15509 84.5172 47.52005 85.35817 47.88503 86.19913 48.25 87.04008 48.61497 87.88106 48.97995 88.72202 49.34491 89.56297 49.70988 90.40395 50.07487 91.24492 50.43983 92.08588 50.80481 92.92685 51.16977 93.7678 51.53476 94.60876 51.89973 95.44972 52.2647 96.2907 52.62968 97.13165 52.99464"/>
<path transform="matrix(1,0,0,-1.00006,1.0300007,162.6037)" stroke-width=".3985" stroke-linecap="butt" stroke-miterlimit="10" stroke-linejoin="miter" fill="none" stroke="#0000ff" d="M97.13455 77.08496 97.69518 77.4246 98.25581 77.7686 98.81644 78.1179 99.37708 78.47177 99.93771 78.83142 100.49834 79.19565 101.05898 79.56493 101.61961 79.93951 102.18024 80.31915 102.74088 80.7041 103.30151 81.09506 103.86214 81.49084 104.42278 81.89265 104.98341 82.3 105.54404 82.71385 106.10468 83.13228 106.6653 83.55745 107.22594 83.98744 107.78656 84.4249 108.3472 84.8674 108.90784 85.31787 109.46846 85.77365 110.0291 86.23518 110.58974 86.70421 111.15036 87.17923 111.71098 87.66101 112.27164 88.14955 112.83228 88.6453 113.39288 89.14755 113.95352 89.65727 114.51416 90.17424 115.07478 90.69864 115.63542 91.23006 116.19606 91.76868 116.75668 92.3155 117.31732 92.87027 117.87796 93.43228 118.43858 94.00246 118.99922 94.58061 119.55986 95.16718 120.1205 95.7612 120.68112 96.36464 121.24174 96.97626 121.80238 97.59607 122.363 98.22504 122.92365 98.86194 123.48428 99.5097 124.0449 100.16469 124.60555 100.83003 125.16618 101.50403 125.72682 102.18768 126.28743 102.88097 126.84807 103.58484 127.4087 104.29788 127.96933 105.02176 128.52997 105.7543 129.0906 106.4989 129.65123 107.25362 130.21187 108.0182 130.77249 108.7934 131.33312 109.58061 131.89376 110.37749 132.45439 111.18808 133.01503 112.00662 133.57566 112.83914 134.13629 113.68346 134.69693 114.53815 135.25754 115.40704 135.81818 116.28581 136.37882 117.17879 136.93944 118.08286 137.50008 119.00185 138.06072 119.93193 138.62134 120.87573 139.18196 121.83278 139.7426 122.80334 140.30324 123.7869 140.86386 124.7849 141.4245 125.7976 141.98514 126.82524 142.54576 127.86444 143.1064 128.92028 143.66703 129.99079 144.22765 131.07624 144.78829 132.17664 145.34893 133.29364 145.90956 134.42485 146.47019 135.57367 147.03083 136.73862 147.59146 137.9185 148.15207 139.11717 148.7127 140.3298 149.27335 141.56293 149.83397 142.80954 150.3946 144.07567 150.95525 145.3596 151.51587 146.66379 152.07649 147.98291 152.63713 149.32274"/>
<path transform="matrix(1,0,0,-1.00006,1.0300007,162.6037)" stroke-width=".3985" stroke-linecap="butt" stroke-miterlimit="10" stroke-linejoin="miter" fill="none" stroke="#0000ff" d="M152.64002 149.35213 153.77277 149.84374 154.9055 150.33535 156.03827 150.82694 157.171 151.31856 158.30377 151.81015 159.43653 152.30179 160.56928 152.7934 161.70203 153.28499 162.83478 153.7766 163.96753 154.2682 165.10028 154.75981 166.23303 155.25142 167.3658 155.74303 168.49854 156.23464 169.6313 156.72623 170.76404 157.21787 171.8968 157.70948 173.02956 158.20107 174.16231 158.69269 175.29506 159.18428 176.42781 159.67589 177.56056 160.16751 178.69332 160.6591 179.82607 161.15071 180.95883 161.64234 182.09157 162.13394 183.22434 162.62555 184.35707 163.11716 185.48984 163.60877 186.62258 164.10036 187.75534 164.59198 188.88809 165.08359 190.02083 165.57518 191.1536 166.0668 192.28633 166.5584 193.4191 167.05002 194.55184 167.54164 195.6846 168.03324 196.81735 168.52484 197.9501 169.01645 199.08286 169.50806 200.2156 169.99967 201.34836 170.49127 202.48111 170.98288 203.61386 171.47449 204.74663 171.96611 205.87937 172.45772 207.01213 172.94931 208.14487 173.44094"/>
<path transform="matrix(1,0,0,-1.00006,1.0300007,162.6037)" stroke-width=".3985" stroke-linecap="butt" stroke-miterlimit="10" stroke-linejoin="miter" fill="none" stroke="#0000ff" d="M152.64002 77.08496"/>
</g>
<path transform="matrix(1,0,0,-1.00006,1.0300007,162.6037)" d="M99.1271 77.08496C99.1271 78.18544 98.23503 79.07751 97.13455 79.07751 96.03409 79.07751 95.142 78.18544 95.142 77.08496 95.142 75.9845 96.03409 75.0924 97.13455 75.0924 98.23503 75.0924 99.1271 75.9845 99.1271 77.08496ZM97.13455 77.08496" fill="#0000ff"/>
<path transform="matrix(1,0,0,-1.00006,1.0300007,162.6037)" stroke-width=".3985" stroke-linecap="butt" stroke-miterlimit="10" stroke-linejoin="miter" fill="none" stroke="#0000ff" d="M99.1271 77.08496C99.1271 78.18544 98.23503 79.07751 97.13455 79.07751 96.03409 79.07751 95.142 78.18544 95.142 77.08496 95.142 75.9845 96.03409 75.0924 97.13455 75.0924 98.23503 75.0924 99.1271 75.9845 99.1271 77.08496ZM97.13455 77.08496"/>
<path transform="matrix(1,0,0,-1.00006,1.0300007,162.6037)" d="" fill="#0000ff"/>
<path transform="matrix(1,0,0,-1.00006,1.0300007,162.6037)" stroke-width=".3985" stroke-linecap="butt" stroke-miterlimit="10" stroke-linejoin="miter" fill="none" stroke="#0000ff" d=""/>
<path transform="matrix(1,0,0,-1.00006,1.0300007,162.6037)" d="M99.1271 52.99591C99.1271 54.09639 98.23503 54.98846 97.13455 54.98846 96.03409 54.98846 95.142 54.09639 95.142 52.99591 95.142 51.89545 96.03409 51.00336 97.13455 51.00336 98.23503 51.00336 99.1271 51.89545 99.1271 52.99591ZM97.13455 52.99591" fill="#ffffff"/>
<path transform="matrix(1,0,0,-1.00006,1.0300007,162.6037)" stroke-width=".3985" stroke-linecap="butt" stroke-miterlimit="10" stroke-linejoin="miter" fill="none" stroke="#0000ff" d="M99.1271 52.99591C99.1271 54.09639 98.23503 54.98846 97.13455 54.98846 96.03409 54.98846 95.142 54.09639 95.142 52.99591 95.142 51.89545 96.03409 51.00336 97.13455 51.00336 98.23503 51.00336 99.1271 51.89545 99.1271 52.99591ZM97.13455 52.99591"/>
<path transform="matrix(1,0,0,-1.00006,1.0300007,162.6037)" d="" fill="#ffffff"/>
<path transform="matrix(1,0,0,-1.00006,1.0300007,162.6037)" stroke-width=".3985" stroke-linecap="butt" stroke-miterlimit="10" stroke-linejoin="miter" fill="none" stroke="#0000ff" d=""/>
<path transform="matrix(1,0,0,-1.00006,1.0300007,162.6037)" stroke-width=".3985" stroke-linecap="butt" stroke-miterlimit="10" stroke-linejoin="miter" fill="none" stroke="#0000ff" d=""/>
<use data-text="g" xlink:href="#font_4_1" transform="matrix(11.9552,0,0,-11.955917,142.774,78.340648)" fill="#0000ff"/>
<use data-text="(" xlink:href="#font_2_1" transform="matrix(11.9552,0,0,-11.955917,148.80802,78.340648)" fill="#0000ff"/>
<use data-text="x" xlink:href="#font_4_2" transform="matrix(11.9552,0,0,-11.955917,153.36002,78.340648)" fill="#0000ff"/>
<use data-text=")" xlink:href="#font_2_2" transform="matrix(11.9552,0,0,-11.955917,160.01201,78.340648)" fill="#0000ff"/>
<path transform="matrix(1,0,0,-1.00006,1.0300007,162.6037)" stroke-width=".3985" stroke-linecap="butt" stroke-miterlimit="10" stroke-linejoin="miter" fill="none" stroke="#0000ff" d=""/>
<use data-text="x" xlink:href="#font_4_2" transform="matrix(11.9552,0,0,-11.955917,184.494,105.41227)"/>
</svg>
