<svg xmlns="http://www.w3.org/2000/svg" xmlns:xlink="http://www.w3.org/1999/xlink" version="1.1" width="197" height="164" viewBox="0 0 197 164">
<defs>
<path id="font_1_1" d="M.6589966 .23046875C.6759949 .23046875 .69400027 .23046875 .69400027 .25045777 .69400027 .27046205 .6759949 .27046205 .6589966 .27046205H.117996219C.100997928 .27046205 .08299255 .27046205 .08299255 .25045777 .08299255 .23046875 .100997928 .23046875 .117996219 .23046875H.6589966Z"/>
<path id="font_2_2" d="M.28799439 .64105227C.28799439 .664032 .28799439 .66503909 .2679901 .66503909 .24398804 .6380615 .19400025 .6012573 .09098816 .6012573V.5722656C.11399841 .5722656 .1639862 .5722656 .21899414 .59825137V.07701111C.21899414 .041000368 .21598816 .0289917 .12799073 .0289917H.09700012V0C.12399292 .0019989014 .22099304 .0019989014 .2539978 .0019989014 .2869873 .0019989014 .3829956 .0019989014 .4099884 0V.0289917H.3789978C.29100038 .0289917 .28799439 .041000368 .28799439 .07701111V.64105227Z"/>
<path id="font_2_1" d="M.44799806 .31976319C.44799806 .40283204 .44299317 .48390199 .40699769 .55996707 .3659973 .64302065 .2939911 .66503909 .24499512 .66503909 .18699646 .66503909 .115997318 .63601687 .07899475 .552948 .050994874 .48989869 .040985109 .42785646 .040985109 .31976319 .040985109 .22268677 .04798889 .14962769 .083999637 .078567508 .12298584 .0025177003 .19198609-.021484375 .24398804-.021484375 .33099366-.021484375 .3809967 .030532837 .4099884 .08857727 .44599916 .16363526 .44799806 .26171876 .44799806 .31976319M.24398804-.0014953613C.21199036-.0014953613 .14698792 .016525269 .12799073 .12561035 .116989139 .18565369 .116989139 .26171876 .116989139 .33177186 .116989139 .41384889 .116989139 .48789979 .1329956 .5469513 .1499939 .6139984 .20098877 .6450348 .24398804 .6450348 .28199769 .6450348 .33999635 .6220093 .35899354 .53593447 .37199403 .4788971 .37199403 .39982606 .37199403 .33177186 .37199403 .26472474 .37199403 .18865967 .36099244 .12760926 .34199525 .01751709 .2789917-.0014953613 .24398804-.0014953613Z"/>
<path id="font_2_3" d="M.12799073 .5727997C.17098999 .5588074 .20599365 .5578003 .21699524 .5578003 .32998658 .5578003 .4019928 .6409912 .4019928 .6550598 .4019928 .6590576 .3999939 .6640625 .3939972 .6640625 .3919983 .6640625 .3899994 .6640625 .3809967 .66004946 .32499696 .6358795 .2769928 .6328125 .25099183 .6328125 .18499756 .6328125 .13798523 .6530609 .11898804 .6610565 .11199951 .6640625 .10998535 .6640625 .10899353 .6640625 .100997928 .6640625 .100997928 .65805056 .100997928 .64201357V.34495545C.100997928 .32695008 .100997928 .32095338 .11299133 .32095338 .117996219 .32095338 .11898804 .32196046 .1289978 .33395387 .15699768 .37493897 .20399475 .39894105 .2539978 .39894105 .30699159 .39894105 .33299256 .34994508 .34098817 .33294679 .35798646 .29396058 .35899354 .2449646 .35899354 .20697022 .35899354 .16897583 .35899354 .11193848 .33099366 .0667572 .30899049 .03060913 .269989 .005508423 .22599793 .005508423 .1599884 .005508423 .09498596 .050689699 .07699585 .12397766 .08198547 .12197876 .08799744 .12097168 .09298706 .12097168 .10998535 .12097168 .13699341 .13098145 .13699341 .16497803 .13699341 .1929779 .117996219 .20898438 .09298706 .20898438 .07499695 .20898438 .04899597 .19998169 .04899597 .16098023 .04899597 .075790408 .116989139-.021484375 .22799683-.021484375 .34098817-.021484375 .43998719 .073791507 .43998719 .20097351 .43998719 .3199463 .3600006 .4189453 .25498963 .4189453 .19799805 .4189453 .1539917 .39393617 .12799073 .36595155V.5727997Z"/>
<clipPath id="clip_3">
<path transform="matrix(1.00002,0,0,-1.00003,1.0304413,162.59685)" d="M0 0H194.27248V161.39484H0Z"/>
</clipPath>
</defs>
<path transform="matrix(1.00002,0,0,-1.00003,1.0304413,162.59685)" stroke-width=".19925" stroke-linecap="butt" stroke-miterlimit="10" stroke-linejoin="miter" fill="none" stroke="#929292" d="M19.83817 78.57133V82.82347M58.48843 78.57133V82.82347M135.78897 78.57133V82.82347M174.43924 78.57133V82.82347"/>
<path transform="matrix(1.00002,0,0,-1.00003,1.0304413,162.59685)" stroke-width=".19925" stroke-linecap="butt" stroke-miterlimit="10" stroke-linejoin="miter" fill="none" stroke="#929292" d="M95.01274 26.89914H99.26466M95.01274 134.4957H99.26466"/>
<path transform="matrix(1.00002,0,0,-1.00003,1.0304413,162.59685)" stroke-width=".3985" stroke-linecap="butt" stroke-miterlimit="10" stroke-linejoin="miter" fill="none" stroke="#000000" d="M0 80.69742H192.27996"/>
<path transform="matrix(1.00002,0,0,-1.00003,193.31424,81.897)" d="M1.99252 0-1.19551 1.59401 0 0-1.19551-1.59401"/>
<path transform="matrix(1.00002,0,0,-1.00003,1.0304413,162.59685)" stroke-width=".3985" stroke-linecap="butt" stroke-miterlimit="10" stroke-linejoin="miter" fill="none" stroke="#000000" d="M97.1387 0V159.40232"/>
<path transform="matrix(0,-1.00003,-1.00002,-0,98.17109,3.189743)" d="M1.99252 0-1.19551 1.59401 0 0-1.19551-1.59401"/>
<use data-text="&#x2212;" xlink:href="#font_1_1" transform="matrix(11.95544,0,0,-11.95556,10.366629,95.91184)"/>
<use data-text="1" xlink:href="#font_2_2" transform="matrix(11.95544,0,0,-11.95556,19.664816,95.91184)"/>
<use data-text="0" xlink:href="#font_2_1" transform="matrix(11.95544,0,0,-11.95556,25.52298,95.91184)"/>
<use data-text="&#x2212;" xlink:href="#font_1_1" transform="matrix(11.95544,0,0,-11.95556,51.944459,95.91184)"/>
<use data-text="5" xlink:href="#font_2_3" transform="matrix(11.95544,0,0,-11.95556,61.242647,95.91184)"/>
<use data-text="5" xlink:href="#font_2_3" transform="matrix(11.95544,0,0,-11.95556,133.8951,95.91184)"/>
<use data-text="1" xlink:href="#font_2_2" transform="matrix(11.95544,0,0,-11.95556,169.61981,95.91184)"/>
<use data-text="0" xlink:href="#font_2_1" transform="matrix(11.95544,0,0,-11.95556,175.47798,95.91184)"/>
<use data-text="&#x2212;" xlink:href="#font_1_1" transform="matrix(11.95544,0,0,-11.95556,76.70896,139.05115)"/>
<use data-text="1" xlink:href="#font_2_2" transform="matrix(11.95544,0,0,-11.95556,86.00715,139.05115)"/>
<use data-text="1" xlink:href="#font_2_2" transform="matrix(11.95544,0,0,-11.95556,86.00814,31.94992)"/>
<g clip-path="url(#clip_3)">
<path transform="matrix(1.00002,0,0,-1.00003,1.0304413,162.59685)" stroke-width=".79701" stroke-linecap="butt" stroke-miterlimit="10" stroke-linejoin="miter" fill="none" stroke="#0000ff" d="M0 80.69742 .3893 83.40454 .77863 86.1063 1.16794 88.79405 1.55727 91.46083 1.9466 94.10016 2.3359 96.70724 2.72523 99.27287 3.11456 101.7901 3.50388 104.25621 3.8932 106.66045 4.28253 108.9996 4.67184 111.26666 5.06117 113.45625 5.4505 115.56354 5.83981 117.5815 6.22914 119.50696 6.61845 121.3334 7.00777 123.05655 7.3971 124.67213 7.78642 126.1758 8.17574 127.56378 8.56506 128.83397 8.95438 129.98201 9.3437 131.00525 9.73303 131.9026 10.12234 132.66924 10.51167 133.30191 10.901 133.8017 11.29031 134.16751 11.67964 134.39617 12.06897 134.49085 12.45828 134.44782 12.8476 134.26973 13.23692 133.95555 13.62624 133.50742 14.01556 132.92209 14.40489 132.20549 14.7942 131.35926 15.18353 130.38227 15.57286 129.28156 15.96217 128.05767 16.3515 126.71269 16.74081 125.25261 17.13014 123.67847 17.51947 121.99405 17.90878 120.20633 18.29811 118.31746 18.68744 116.33392 19.07674 114.26001 19.46606 112.10161 19.8554 109.86307 20.24472 107.55081 20.63405 105.17024 21.02338 102.7262 21.41269 100.22726 21.80202 97.67937 22.19136 95.08684 22.58066 92.45932 22.96999 89.80223 23.35931 87.12093 23.74864 84.42401 24.13797 81.71797 24.52728 79.00975 24.91661 76.3048 25.30594 73.61055 25.69527 70.93625 26.08458 68.28453 26.4739 65.66508 26.86322 63.08331 27.25255 60.54672 27.64189 58.06125 28.0312 55.63278 28.42053 53.26889 28.80986 50.97385 29.19917 48.7536 29.5885 46.61566 29.97783 44.56325 30.36714 42.60231 30.75647 40.73766 31.1458 38.97523 31.53513 37.31879 31.92445 35.77206 32.31377 34.33942 32.7031 33.02406 33.09242 31.83028 33.48174 30.75916 33.87106 29.81392 34.26039 29.00049 34.6497 28.3167 35.03903 27.76581 35.42838 27.34995 35.81769 27.06967 36.20702 26.92389 36.59634 26.91473 36.98566 27.04224 37.37498 27.3037 37.76431 27.70288 38.15363 28.23817 38.54295 28.90472 38.93228 29.70256 39.32161 30.6295 39.71094 31.68341 40.10025 32.86212 40.48958 34.16081 40.8789 35.5784 41.26822 37.11111 41.65755 38.75465 42.04688 40.50363 42.43619 42.35536 42.82552 44.30287 43.21486 46.34291 43.60417 48.47061 43.9935 50.67958 44.38283 52.96494 44.77214 55.32184 45.16145 57.74168 45.5508 60.22072 45.94011 62.75084 46.32944 65.32777 46.71877 67.94238 47.1081 70.58978 47.49742 73.26248 47.88673 75.95349 48.27606 78.65736 48.66537 81.36559 49.05469 84.07271 49.44403 86.77122 49.83336 89.45415 50.22267 92.11502 50.612 94.74683 51.00134 97.34528 51.39066 99.8991 51.77998 102.40446 52.1693 104.85498 52.55861 107.24362 52.94794 109.56557 53.33728 111.81433 53.7266 113.98454 54.11592 116.06978 54.50525 118.06624 54.89458 119.96745 55.2839 121.76755 55.6732 123.46436 56.06253 125.05302 56.45186 126.52977 56.84117 127.88927 57.23051 129.13039 57.61984 130.24777 58.00916 131.2398 58.39848 132.10274 58.78783 132.836 59.17712 133.43694 59.56645 133.90283 59.95578 134.2353 60.3451 134.43274 60.73442 134.49407 61.12376 134.41768 61.51308 134.20572 61.9024 133.85604 62.29173 133.37346 62.68105 132.75693 63.07037 132.0075 63.45969 131.12899 63.84901 130.12296 64.23834 128.9916 64.62767 127.73808 65.017 126.36407 65.40633 124.87386 65.79564 123.27176 66.18497 121.56151 66.5743 119.74905 66.96361 117.83652 67.35294 115.83092 67.74226 113.73492 68.13158 111.55664 68.52092 109.29819 68.91025 106.96765 69.29956 104.57094 69.68889 102.11397 70.07822 99.60213 70.46753 97.04294 70.85686 94.4418 71.24617 91.80566 71.6355 89.14214 72.02483 86.45596 72.41415 83.75691 72.80348 81.04872 73.19281 78.3405 73.58212 75.6393 73.97145 72.94884 74.36078 70.27776 74.75009 67.63464 75.13942 65.02328 75.52875 62.45226 75.91806 59.92804 76.3074 57.45656 76.69673 55.0437 77.08604 52.69487 77.47537 50.41866 77.8647 48.21724 78.254 46.09918 78.64334 44.06885 79.03265 42.13264 79.42198 40.29382 79.81131 38.55669 80.20064 36.92659 80.58997 35.4084 80.9793 34.00319 81.3686 32.71687 81.75792 31.55267 82.14725 30.51437 82.53658 29.60141 82.9259 28.81972 83.31523 28.16878 83.70454 27.65121 84.09389 27.26764 84.48322 27.01964 84.87253 26.9072 85.26184 26.93195 85.65117 27.09442 86.04048 27.39192 86.42982 27.82446 86.81914 28.39095 87.20847 29.09033 87.5978 29.91936 87.98712 30.87804 88.37645 31.96155 88.76576 33.17094 89.15508 34.50136 89.5444 35.94691 89.93373 37.50653 90.32306 39.1775 90.71239 40.95232 91.10172 42.82718 91.49103 44.79782 91.88036 46.86098 92.26968 49.00916 92.659 51.238 93.04832 53.54112 93.43765 55.91469 93.82697 58.34961 94.21631 60.84154 94.60562 63.38297 94.99495 65.96959 95.38428 68.59334 95.77359 71.24721 96.16292 73.92473 96.55225 76.62003 96.94156 79.32661 97.33089 82.03375 97.72023 84.74036 98.10954 87.4351 98.49887 90.11372 98.8882 92.76811 99.27751 95.39241 99.66684 97.97902 100.05617 100.52101 100.44548 103.01454 100.83481 105.45053 101.22414 107.82411 101.61346 110.1283 102.00279 112.3577 102.3921 114.50746 102.78143 116.57118 103.17076 118.54396 103.56007 120.4199 103.9494 122.19632 104.33873 123.86731 104.72804 125.42906 105.11737 126.87624 105.5067 128.20775 105.89603 129.4182 106.28535 130.50386 106.67468 131.46416 107.064 132.29535 107.45332 132.99687 107.84265 133.56499 108.23196 133.99913 108.62129 134.2977 109.01062 134.46179 109.39993 134.48816 109.78928 134.37734 110.17859 134.13147 110.56792 133.74951 110.95723 133.23305 111.34656 132.5837 111.73589 131.80416 112.12521 130.89336 112.51453 129.85613 112.90385 128.69355 113.29318 127.40884 113.68251 126.00632 114.07184 124.48813 114.46115 122.85912 114.85046 121.12413 115.2398 119.28638 115.62914 117.35017 116.01845 115.32199 116.40778 113.20502 116.7971 111.00412 117.18642 108.72847 117.57576 106.38177 117.96506 103.97 118.35439 101.49797 118.74371 98.97482 119.13304 96.40436 119.52237 93.79297 119.9117 91.15042 120.30101 88.48041 120.69034 85.79048 121.07967 83.08766 121.46898 80.38052 121.8583 77.6734 122.24763 74.97328 122.63695 72.28712 123.02629 69.6225 123.41562 66.98584 123.80493 64.38469 124.19426 61.82497 124.58359 59.31313 124.9729 56.85454 125.36223 54.45569 125.75154 52.12514 126.14087 49.86615 126.5302 47.68677 126.91953 45.59026 127.30885 43.58304 127.69818 41.66945 128.0875 39.85536 128.47682 38.14458 128.86615 36.54031 129.25547 35.04904 129.64479 33.67393 130.03412 32.41882 130.42343 31.28584 130.81278 30.27765 131.2021 29.39699 131.59142 28.64703 131.98075 28.0289 132.37007 27.54256 132.75939 27.19232 133.14871 26.97874 133.53803 26.90182 133.92736 26.96046 134.31668 27.15628 134.70601 27.48607 135.09534 27.95142 135.48467 28.55019 135.87398 29.28131 136.2633 30.14262 136.65264 31.13411 137.04195 32.25044 137.43128 33.48943 137.8206 34.84782 138.20992 36.32243 138.59926 37.90894 138.98859 39.60574 139.3779 41.40422 139.76723 43.30492 140.15654 45.29868 140.54586 47.3839 140.9352 49.55252 141.32451 51.8002 141.71384 54.12158 142.10317 56.5097 142.4925 58.95914 142.88182 61.46397 143.27115 64.01779 143.66046 66.61409 144.04978 69.2459 144.43912 71.90677 144.82843 74.58969 145.21776 77.28821 145.60709 79.9948 145.9964 82.70302 146.38574 85.4069 146.77507 88.09843 147.16439 90.77167 147.5537 93.41908 147.94303 96.0353 148.33234 98.61223 148.72168 101.1429 149.111 103.62193 149.50032 106.04285 149.88965 108.4003 150.27896 110.68617 150.6683 112.89621 151.05762 115.02502 151.44693 117.06665 151.83626 119.01631 152.2256 120.86804 152.61492 122.61919 153.00424 124.2638 153.39357 125.79758 153.78289 127.21678 154.17221 128.51708 154.56154 129.69742 154.95085 130.75241 155.34018 131.68204 155.72949 132.48094 156.11884 133.15018 156.50817 133.68549 156.89748 134.08628 157.2868 134.35042 157.67613 134.47956 158.06545 134.47202 158.45478 134.32837 158.8441 134.04917 159.23342 133.63492 159.62274 133.08563 160.01209 132.40509 160.4014 131.59111 160.79073 130.64804 161.18006 129.5796 161.56937 128.38636 161.9587 127.07315 162.34803 125.64049 162.73734 124.09648 163.12667 122.44164 163.51598 120.68028 163.90532 118.81673 164.29465 116.85684 164.68396 114.80551 165.07329 112.66812 165.46262 110.45001 165.85193 108.15605 166.24126 105.79216 166.63059 103.36478 167.0199 100.87984 167.40923 98.34433 167.79857 95.76254 168.18788 93.14311 168.57721 90.49246 168.96654 87.81761 169.35585 85.12393 169.74518 82.41895 170.1345 79.71236 170.52382 77.00415 170.91315 74.30832 171.30246 71.62648 171.6918 68.96938 172.08113 66.34079 172.47045 63.74826 172.85977 61.20038 173.2491 58.69981 173.6384 56.25523 174.02774 53.87358 174.41707 51.56026 174.80638 49.32225 175.19571 47.16225 175.58504 45.08617 175.97435 43.10208 176.36368 41.21216 176.753 39.42282 177.14232 37.73679 177.53165 36.16104 177.92098 34.69987 178.31027 33.35277 178.6996 32.12833 179.08893 31.02545 179.47824 30.04741 179.86757 29.19954 180.25688 28.48026 180.64621 27.89493 181.03554 27.4441 181.42485 27.12885 181.81418 26.94861 182.2035 26.90396 182.59282 26.99596 182.98215 27.22408 183.37148 27.58774 183.76079 28.08537 184.15012 28.7175 184.53945 29.48145 184.92874 30.37718 185.31807 31.39935 185.7074 32.54526 186.09671 33.81328 186.48604 35.20073 186.87537 36.70226 187.26468 38.3162 187.654 40.03935 188.04332 41.86472 188.43265 43.78802 188.82198 45.80598 189.21129 47.91165 189.60062 50.09909 189.98995 52.36563 190.37926 54.70369 190.76859 57.10739 191.1579 59.5719 191.54721 62.0902 191.93654 64.65475 192.32587 67.26076 192.71518 69.90009 193.1045 72.56633 193.49384 75.2541 193.88315 77.95584 194.27248 80.66351"/>
</g>
</svg>
