<svg xmlns="http://www.w3.org/2000/svg" xmlns:xlink="http://www.w3.org/1999/xlink" version="1.1" width="120" height="117" viewBox="0 0 120 117">
<defs>
<path id="font_1_1" d="M.6589966 .23046875C.6759949 .23046875 .69400027 .23046875 .69400027 .25045777 .69400027 .27046205 .6759949 .27046205 .6589966 .27046205H.117996219C.100997928 .27046205 .08299255 .27046205 .08299255 .25045777 .08299255 .23046875 .100997928 .23046875 .117996219 .23046875H.6589966Z"/>
<path id="font_2_3" d="M.36099244 .6508026C.36099244 .6697998 .36099244 .6748047 .34700013 .6748047 .33898927 .6748047 .33599855 .6748047 .32798768 .662796L.026992798 .19598389V.16699219H.2899933V.07598877C.2899933 .038986207 .28799439 .0289917 .21499634 .0289917H.19499207V0C.21798706 .0019989014 .29699708 .0019989014 .32499696 .0019989014 .35299684 .0019989014 .43299867 .0019989014 .45599366 0V.0289917H.43598939C.3639984 .0289917 .36099244 .038986207 .36099244 .07598877V.16699219H.46199037V.19598389H.36099244V.6508026M.29499818 .5728302V.19598389H.051986696L.29499818 .5728302Z"/>
<path id="font_2_2" d="M.43998719 .16790772H.41799928C.4149933 .15092469 .40699769 .09597778 .39698792 .07998657 .3899994 .070999149 .33299256 .070999149 .30299378 .070999149H.117996219C.14498902 .09397888 .20599365 .15792847 .23199463 .18190003 .38398744 .3217926 .43998719 .37374879 .43998719 .47270204 .43998719 .5878906 .34899903 .66503909 .23298645 .66503909 .116989139 .66503909 .04899597 .5658264 .04899597 .4797058 .04899597 .42871095 .09298706 .42871095 .09599304 .42871095 .116989139 .42871095 .14299011 .44371034 .14299011 .475708 .14299011 .5037079 .12399292 .5227051 .09599304 .5227051 .08699036 .5227051 .084991458 .5227051 .08198547 .521698 .100997928 .5899048 .15499878 .6360321 .21998596 .6360321 .30499269 .6360321 .35699464 .56481936 .35699464 .47270204 .35699464 .3877411 .30799867 .313797 .25099183 .24984741L.04899597 .023986817V0H.4139862L.43998719 .16790772Z"/>
<path id="font_2_1" d="M.44799806 .31976319C.44799806 .40283204 .44299317 .48390199 .40699769 .55996707 .3659973 .64302065 .2939911 .66503909 .24499512 .66503909 .18699646 .66503909 .115997318 .63601687 .07899475 .552948 .050994874 .48989869 .040985109 .42785646 .040985109 .31976319 .040985109 .22268677 .04798889 .14962769 .083999637 .078567508 .12298584 .0025177003 .19198609-.021484375 .24398804-.021484375 .33099366-.021484375 .3809967 .030532837 .4099884 .08857727 .44599916 .16363526 .44799806 .26171876 .44799806 .31976319M.24398804-.0014953613C.21199036-.0014953613 .14698792 .016525269 .12799073 .12561035 .116989139 .18565369 .116989139 .26171876 .116989139 .33177186 .116989139 .41384889 .116989139 .48789979 .1329956 .5469513 .1499939 .6139984 .20098877 .6450348 .24398804 .6450348 .28199769 .6450348 .33999635 .6220093 .35899354 .53593447 .37199403 .4788971 .37199403 .39982606 .37199403 .33177186 .37199403 .26472474 .37199403 .18865967 .36099244 .12760926 .34199525 .01751709 .2789917-.0014953613 .24398804-.0014953613Z"/>
<path id="font_2_4" d="M.12298584 .34773255C.12298584 .60061648 .24598694 .641037 .2999878 .641037 .33599855 .641037 .37199403 .62991335 .3909912 .5996094 .3789978 .5996094 .34098817 .5996094 .34098817 .558609 .34098817 .53660586 .35598756 .51760867 .38198854 .51760867 .40699769 .51760867 .42399598 .53260806 .42399598 .56159976 .42399598 .6137543 .38598634 .66503909 .29899598 .66503909 .17298889 .66503909 .040985109 .53559878 .040985109 .31570436 .040985109 .040527345 .16099549-.021484375 .24598694-.021484375 .35499574-.021484375 .44799806 .07354736 .44799806 .2036438 .44799806 .33673097 .35499574 .42578126 .25498963 .42578126 .1659851 .42578126 .1329956 .34873963 .12298584 .32070924V.34773255M.24598694 .005508423C.18299866 .005508423 .15299988 .061538698 .14399719 .08256531 .1349945 .10858154 .125 .15760803 .125 .22766114 .125 .30670167 .16099549 .40577699 .25099183 .40577699 .30599977 .40577699 .33499146 .3687439 .34999085 .33473207 .3659973 .29769898 .3659973 .2476654 .3659973 .20463562 .3659973 .15361023 .3659973 .10858154 .34700013 .07055664 .32199098 .022521973 .28599549 .005508423 .24598694 .005508423Z"/>
<clipPath id="clip_3">
<path transform="matrix(.60003,0,0,-.60003,1.9494982,98.51268)" d="M0 0H194.26607V161.4015H0Z"/>
</clipPath>
<path id="font_4_1" d="M.47399903 .40820313C.44198609 .40219117 .42999269 .3781891 .42999269 .3591919 .42999269 .33518983 .44898988 .3271942 .46299745 .3271942 .49299623 .3271942 .5139923 .3531952 .5139923 .380188 .5139923 .4223938 .46598817 .44140626 .42399598 .44140626 .36299134 .44140626 .32899476 .38119508 .31999208 .36219789 .29699708 .4373932 .23498535 .44140626 .21699524 .44140626 .114990238 .44140626 .06098938 .31021119 .06098938 .28822328 .06098938 .28422547 .06498718 .27923585 .07199097 .27923585 .07998657 .27923585 .08198547 .28523255 .083999637 .2892151 .117996219 .40019227 .18499756 .42140199 .21398926 .42140199 .25898744 .42140199 .2679901 .37919618 .2679901 .3551941 .2679901 .33319093 .2619934 .31021119 .25 .26223756L.21598816 .12535095C.20098877 .06535339 .17199707 .010223389 .11898804 .010223389 .11399841 .010223389 .08898926 .010223389 .067993167 .023330689 .10398865 .03036499 .11199951 .06036377 .11199951 .07235718 .11199951 .09236145 .09700012 .10435486 .07798767 .10435486 .053985597 .10435486 .027999878 .083358768 .027999878 .051361085 .027999878 .009231567 .07499695-.009765625 .117996219-.009765625 .1659851-.009765625 .19999695 .028366089 .22099304 .069366458 .23699951 .010223389 .2869873-.009765625 .32398988-.009765625 .42599488-.009765625 .47999574 .12135315 .47999574 .1433258 .47999574 .14833069 .47599793 .15232849 .46998597 .15232849 .46099855 .15232849 .45999146 .14732361 .45700074 .139328 .42999269 .051361085 .37199403 .010223389 .32699586 .010223389 .2919922 .010223389 .272995 .036361696 .272995 .07736206 .272995 .099365238 .2769928 .115356449 .29299928 .18130493L.32798768 .3171997C.34298707 .37719728 .3769989 .42140199 .4229889 .42140199 .4249878 .42140199 .45298768 .42140199 .47399903 .40820313Z"/>
<path id="font_4_2" d="M.2630005-.11172485C.23599243-.14982605 .19699097-.18411255 .147995-.18411255 .13598633-.18411255 .08799744-.18209839 .07299805-.13572693 .07598877-.13671875 .08099365-.13671875 .08299255-.13671875 .11299133-.13671875 .1329956-.11073303 .1329956-.08772278 .1329956-.06472778 .11399841-.056732179 .09899902-.056732179 .08299255-.056732179 .04798889-.068725589 .04798889-.11772156 .04798889-.16899109 .09098816-.20410156 .147995-.20410156 .24798584-.20410156 .34899903-.11172485 .3769989-.00077819827L.47499085 .38868714C.47599793 .39367677 .47799684 .39967347 .47799684 .4056549 .47799684 .4206543 .46598817 .43066407 .45098878 .43066407 .44198609 .43066407 .42099 .426651 .41299439 .39666749L.33898927 .10308838C.33399964 .085113529 .33399964 .08312988 .32598878 .072143558 .30599977 .04423523 .272995 .010223389 .22499085 .010223389 .16899109 .010223389 .1639862 .06524658 .1639862 .09225464 .1639862 .14929199 .19099427 .22631836 .21798706 .2983551 .22898865 .32736207 .23498535 .34136964 .23498535 .3613739 .23498535 .4033966 .20498657 .44140626 .1559906 .44140626 .06399536 .44140626 .026992798 .29634095 .026992798 .28834535 .026992798 .28434754 .0309906 .27934266 .037994386 .27934266 .04699707 .27934266 .04798889 .28334046 .051986696 .29734803 .07598877 .38137818 .11399841 .42140199 .15299988 .42140199 .1619873 .42140199 .1789856 .42140199 .1789856 .38838197 .1789856 .36238099 .16799927 .33335877 .15299988 .29534913 .10398865 .16429138 .10398865 .13127136 .10398865 .10726929 .10398865 .01222229 .17199707-.009765625 .22200012-.009765625 .25099183-.009765625 .2869873-.00077819827 .32199098 .036239625L.32299806 .035232545C.30799867-.023757935 .2979889-.06272888 .2630005-.11172485Z"/>
</defs>
<path transform="matrix(.60003,0,0,-.60003,1.9494982,98.51268)" stroke-width=".19925" stroke-linecap="butt" stroke-miterlimit="10" stroke-linejoin="miter" fill="none" stroke="#929292" d="M19.4266 71.84598V76.09782M58.27982 71.84598V76.09782M135.98625 71.84598V76.09782M174.83946 71.84598V76.09782"/>
<path transform="matrix(.60003,0,0,-.60003,1.9494982,98.51268)" stroke-width=".19925" stroke-linecap="butt" stroke-miterlimit="10" stroke-linejoin="miter" fill="none" stroke="#929292" d="M95.00711 20.16905H99.25894M95.00711 47.07047H99.25894M95.00711 100.8733H99.25894M95.00711 127.77473H99.25894M95.00711 154.67615H99.25894"/>
<path transform="matrix(.60003,0,0,-.60003,1.9494982,98.51268)" stroke-width=".3985" stroke-linecap="butt" stroke-miterlimit="10" stroke-linejoin="miter" fill="none" stroke="#000000" d="M0 73.9719H192.27355"/>
<path transform="matrix(.60003,0,0,-.60003,117.3194,54.12732)" d="M1.99252 0-1.19551 1.59401 0 0-1.19551-1.59401"/>
<path transform="matrix(.60003,0,0,-.60003,1.9494982,98.51268)" stroke-width=".3985" stroke-linecap="butt" stroke-miterlimit="10" stroke-linejoin="miter" fill="none" stroke="#000000" d="M97.13303 0V159.40898"/>
<path transform="matrix(0,-.60003,-.60003,-0,60.23223,2.8625108)" d="M1.99252 0-1.19551 1.59401 0 0-1.19551-1.59401"/>
<use data-text="&#x2212;" xlink:href="#font_1_1" transform="matrix(7.1734788,0,0,-7.1734788,9.060453,62.53608)"/>
<use data-text="4" xlink:href="#font_2_3" transform="matrix(7.1734788,0,0,-7.1734788,14.639534,62.53608)"/>
<use data-text="&#x2212;" xlink:href="#font_1_1" transform="matrix(7.1734788,0,0,-7.1734788,32.373418,62.53608)"/>
<use data-text="2" xlink:href="#font_2_2" transform="matrix(7.1734788,0,0,-7.1734788,37.9525,62.53608)"/>
<use data-text="2" xlink:href="#font_2_2" transform="matrix(7.1734788,0,0,-7.1734788,81.78948,62.53608)"/>
<use data-text="4" xlink:href="#font_2_3" transform="matrix(7.1734788,0,0,-7.1734788,105.10245,62.53608)"/>
<use data-text="&#x2212;" xlink:href="#font_1_1" transform="matrix(7.1734788,0,0,-7.1734788,43.842393,88.42317)"/>
<use data-text="4" xlink:href="#font_2_3" transform="matrix(7.1734788,0,0,-7.1734788,49.42147,88.42317)"/>
<use data-text="0" xlink:href="#font_2_1" transform="matrix(7.1734788,0,0,-7.1734788,52.936479,88.42317)"/>
<use data-text="&#x2212;" xlink:href="#font_1_1" transform="matrix(7.1734788,0,0,-7.1734788,43.842393,72.28177)"/>
<use data-text="2" xlink:href="#font_2_2" transform="matrix(7.1734788,0,0,-7.1734788,49.42147,72.28177)"/>
<use data-text="0" xlink:href="#font_2_1" transform="matrix(7.1734788,0,0,-7.1734788,52.936479,72.28177)"/>
<use data-text="2" xlink:href="#font_2_2" transform="matrix(7.1734788,0,0,-7.1734788,49.42207,40.297166)"/>
<use data-text="0" xlink:href="#font_2_1" transform="matrix(7.1734788,0,0,-7.1734788,52.937074,40.297166)"/>
<use data-text="4" xlink:href="#font_2_3" transform="matrix(7.1734788,0,0,-7.1734788,49.42207,24.155762)"/>
<use data-text="0" xlink:href="#font_2_1" transform="matrix(7.1734788,0,0,-7.1734788,52.937074,24.155762)"/>
<use data-text="6" xlink:href="#font_2_4" transform="matrix(7.1734788,0,0,-7.1734788,49.42207,8.013748)"/>
<use data-text="0" xlink:href="#font_2_1" transform="matrix(7.1734788,0,0,-7.1734788,52.937074,8.013748)"/>
<g clip-path="url(#clip_3)">
<path transform="matrix(.60003,0,0,-.60003,1.9494982,98.51268)" stroke-width="1.59404" stroke-linecap="butt" stroke-miterlimit="10" stroke-linejoin="miter" fill="none" stroke="#0000ff" d="M0 79.35217 4.77568 79.2946 9.55138 79.23207 14.32709 79.16373 19.10278 79.08855 23.87848 79.00569 28.65419 78.9137 33.42989 78.81134 38.20558 78.69632 42.9813 78.56639 47.75699 78.4187 52.5327 78.24855 57.3084 78.05122 62.08409 77.81926 66.8598 77.54268 71.6355 77.20735 76.4112 76.79222 81.1869 76.26497 85.9626 75.5732 90.73831 74.62549 95.514 73.24768 100.2897 71.0609 105.06541 67.05728 109.84111 57.36162 114.6168 0"/>
<path transform="matrix(.60003,0,0,-.60003,1.9494982,98.51268)" stroke-width="1.59404" stroke-linecap="butt" stroke-miterlimit="10" stroke-linejoin="miter" fill="none" stroke="#0000ff" d="M118.5023 161.4015 121.65912 111.4418 124.81595 99.68643 127.97276 94.43405 131.1296 91.45767 134.2864 89.54109 137.44324 88.20464 140.60007 87.21857 143.7569 86.46169 146.91371 85.86234 150.07053 85.37569 153.22736 84.9731 156.38419 84.63402 159.541 84.34508 162.69783 84.09518 165.85466 83.87767 169.01149 83.68614 172.16829 83.51665 175.32512 83.3652 178.48195 83.22908 181.63878 83.10641 184.7956 82.9949 187.95243 82.89336 191.10926 82.80042 194.26607 82.71486"/>
</g>
<use data-text="x" xlink:href="#font_4_1" transform="matrix(7.1734788,0,0,-7.1734788,112.01299,115.371128)"/>
<use data-text="y" xlink:href="#font_4_2" transform="matrix(7.1734788,0,0,-7.1734788,39.42977,7.2661135)"/>
</svg>
