<svg xmlns="http://www.w3.org/2000/svg" xmlns:xlink="http://www.w3.org/1999/xlink" version="1.1" width="104" height="88" viewBox="0 0 104 88">
<defs>
<path id="font_1_1" d="M.6589966 .23046875C.6759949 .23046875 .69400027 .23046875 .69400027 .25045777 .69400027 .27046205 .6759949 .27046205 .6589966 .27046205H.117996219C.100997928 .27046205 .08299255 .27046205 .08299255 .25045777 .08299255 .23046875 .100997928 .23046875 .117996219 .23046875H.6589966Z"/>
<path id="font_2_3" d="M.43998719 .16790772H.41799928C.4149933 .15092469 .40699769 .09597778 .39698792 .07998657 .3899994 .070999149 .33299256 .070999149 .30299378 .070999149H.117996219C.14498902 .09397888 .20599365 .15792847 .23199463 .18190003 .38398744 .3217926 .43998719 .37374879 .43998719 .47270204 .43998719 .5878906 .34899903 .66503909 .23298645 .66503909 .116989139 .66503909 .04899597 .5658264 .04899597 .4797058 .04899597 .42871095 .09298706 .42871095 .09599304 .42871095 .116989139 .42871095 .14299011 .44371034 .14299011 .475708 .14299011 .5037079 .12399292 .5227051 .09599304 .5227051 .08699036 .5227051 .084991458 .5227051 .08198547 .521698 .100997928 .5899048 .15499878 .6360321 .21998596 .6360321 .30499269 .6360321 .35699464 .56481936 .35699464 .47270204 .35699464 .3877411 .30799867 .313797 .25099183 .24984741L.04899597 .023986817V0H.4139862L.43998719 .16790772Z"/>
<path id="font_2_2" d="M.28799439 .64105227C.28799439 .664032 .28799439 .66503909 .2679901 .66503909 .24398804 .6380615 .19400025 .6012573 .09098816 .6012573V.5722656C.11399841 .5722656 .1639862 .5722656 .21899414 .59825137V.07701111C.21899414 .041000368 .21598816 .0289917 .12799073 .0289917H.09700012V0C.12399292 .0019989014 .22099304 .0019989014 .2539978 .0019989014 .2869873 .0019989014 .3829956 .0019989014 .4099884 0V.0289917H.3789978C.29100038 .0289917 .28799439 .041000368 .28799439 .07701111V.64105227Z"/>
<path id="font_3_1" d="M.19499207-.0040130617C.19499207 .053985597 .17599488 .09700012 .1349945 .09700012 .102996829 .09700012 .08699036 .070999149 .08699036 .04899597 .08699036 .026992798 .101989749 0 .13598633 0 .14898682 0 .1599884 .0039978029 .16899109 .0129852299 .17098999 .01499939 .17199707 .01499939 .17298889 .01499939 .1749878 .01499939 .1749878 .0009918213 .1749878-.0040130617 .1749878-.037078859 .16899109-.10221863 .11099243-.1673584 .099990848-.17936707 .099990848-.18136597 .099990848-.18336487 .099990848-.18836975 .10499573-.19335938 .10998535-.19335938 .117996219-.19335938 .19499207-.119262699 .19499207-.0040130617Z"/>
<path id="font_2_1" d="M.44799806 .31976319C.44799806 .40283204 .44299317 .48390199 .40699769 .55996707 .3659973 .64302065 .2939911 .66503909 .24499512 .66503909 .18699646 .66503909 .115997318 .63601687 .07899475 .552948 .050994874 .48989869 .040985109 .42785646 .040985109 .31976319 .040985109 .22268677 .04798889 .14962769 .083999637 .078567508 .12298584 .0025177003 .19198609-.021484375 .24398804-.021484375 .33099366-.021484375 .3809967 .030532837 .4099884 .08857727 .44599916 .16363526 .44799806 .26171876 .44799806 .31976319M.24398804-.0014953613C.21199036-.0014953613 .14698792 .016525269 .12799073 .12561035 .116989139 .18565369 .116989139 .26171876 .116989139 .33177186 .116989139 .41384889 .116989139 .48789979 .1329956 .5469513 .1499939 .6139984 .20098877 .6450348 .24398804 .6450348 .28199769 .6450348 .33999635 .6220093 .35899354 .53593447 .37199403 .4788971 .37199403 .39982606 .37199403 .33177186 .37199403 .26472474 .37199403 .18865967 .36099244 .12760926 .34199525 .01751709 .2789917-.0014953613 .24398804-.0014953613Z"/>
<path id="font_2_4" d="M.12799073 .5727997C.17098999 .5588074 .20599365 .5578003 .21699524 .5578003 .32998658 .5578003 .4019928 .6409912 .4019928 .6550598 .4019928 .6590576 .3999939 .6640625 .3939972 .6640625 .3919983 .6640625 .3899994 .6640625 .3809967 .66004946 .32499696 .6358795 .2769928 .6328125 .25099183 .6328125 .18499756 .6328125 .13798523 .6530609 .11898804 .6610565 .11199951 .6640625 .10998535 .6640625 .10899353 .6640625 .100997928 .6640625 .100997928 .65805056 .100997928 .64201357V.34495545C.100997928 .32695008 .100997928 .32095338 .11299133 .32095338 .117996219 .32095338 .11898804 .32196046 .1289978 .33395387 .15699768 .37493897 .20399475 .39894105 .2539978 .39894105 .30699159 .39894105 .33299256 .34994508 .34098817 .33294679 .35798646 .29396058 .35899354 .2449646 .35899354 .20697022 .35899354 .16897583 .35899354 .11193848 .33099366 .0667572 .30899049 .03060913 .269989 .005508423 .22599793 .005508423 .1599884 .005508423 .09498596 .050689699 .07699585 .12397766 .08198547 .12197876 .08799744 .12097168 .09298706 .12097168 .10998535 .12097168 .13699341 .13098145 .13699341 .16497803 .13699341 .1929779 .117996219 .20898438 .09298706 .20898438 .07499695 .20898438 .04899597 .19998169 .04899597 .16098023 .04899597 .075790408 .116989139-.021484375 .22799683-.021484375 .34098817-.021484375 .43998719 .073791507 .43998719 .20097351 .43998719 .3199463 .3600006 .4189453 .25498963 .4189453 .19799805 .4189453 .1539917 .39393617 .12799073 .36595155V.5727997Z"/>
<clipPath id="clip_4">
<path transform="matrix(.5,0,0,-.5,4.6105005,84.197498)" d="M0 0H194.2769V161.39797H0Z"/>
</clipPath>
</defs>
<path transform="matrix(.5,0,0,-.5,4.6105005,84.197498)" stroke-width=".19925" stroke-linecap="butt" stroke-miterlimit="10" stroke-linejoin="miter" fill="none" stroke="#929292" d="M0 78.61343V82.86517M48.56879 78.61343V82.86517M145.70639 78.61343V82.86517M194.27519 78.61343V82.86517"/>
<path transform="matrix(.5,0,0,-.5,4.6105005,84.197498)" stroke-width=".19925" stroke-linecap="butt" stroke-miterlimit="10" stroke-linejoin="miter" fill="none" stroke="#929292" d="M95.01173 .08066H99.26344M95.01173 40.40999H99.26344M95.01173 121.06863H99.26344M95.01173 161.39797H99.26344"/>
<path transform="matrix(.5,0,0,-.5,4.6105005,84.197498)" stroke-width=".3985" stroke-linecap="butt" stroke-miterlimit="10" stroke-linejoin="miter" fill="none" stroke="#000000" d="M0 80.7393H192.28438"/>
<path transform="matrix(.5,0,0,-.5,100.752689,43.827844)" d="M1.99252 0-1.19551 1.59401 0 0-1.19551-1.59401"/>
<path transform="matrix(.5,0,0,-.5,4.6105005,84.197498)" stroke-width=".3985" stroke-linecap="butt" stroke-miterlimit="10" stroke-linejoin="miter" fill="none" stroke="#000000" d="M97.13759 0V159.40544"/>
<path transform="matrix(0,-.5,-.5,-0,53.179296,4.494774)" d="M1.99252 0-1.19551 1.59401 0 0-1.19551-1.59401"/>
<use data-text="&#x2212;" xlink:href="#font_1_1" transform="matrix(5.9776,0,0,-5.9776,.8225002,50.834997)"/>
<use data-text="2" xlink:href="#font_2_3" transform="matrix(5.9776,0,0,-5.9776,5.4715006,50.834997)"/>
<use data-text="&#x2212;" xlink:href="#font_1_1" transform="matrix(5.9776,0,0,-5.9776,25.107,50.834997)"/>
<use data-text="1" xlink:href="#font_2_2" transform="matrix(5.9776,0,0,-5.9776,29.756,50.834997)"/>
<use data-text="1" xlink:href="#font_2_2" transform="matrix(5.9776,0,0,-5.9776,76.0005,50.834997)"/>
<use data-text="2" xlink:href="#font_2_3" transform="matrix(5.9776,0,0,-5.9776,100.285,50.834997)"/>
<use data-text="&#x2212;" xlink:href="#font_1_1" transform="matrix(5.9776,0,0,-5.9776,32.043,85.502)"/>
<use data-text="1" xlink:href="#font_2_2" transform="matrix(5.9776,0,0,-5.9776,36.692,85.502)"/>
<use data-text="," xlink:href="#font_3_1" transform="matrix(5.9776,0,0,-5.9776,39.6185,85.502)"/>
<use data-text="0" xlink:href="#font_2_1" transform="matrix(5.9776,0,0,-5.9776,41.2445,85.502)"/>
<use data-text="0" xlink:href="#font_2_1" transform="matrix(5.9776,0,0,-5.9776,44.173524,85.502)"/>
<use data-text="0" xlink:href="#font_2_1" transform="matrix(5.9776,0,0,-5.9776,47.10255,85.502)"/>
<use data-text="&#x2212;" xlink:href="#font_1_1" transform="matrix(5.9776,0,0,-5.9776,36.5955,65.669498)"/>
<use data-text="5" xlink:href="#font_2_4" transform="matrix(5.9776,0,0,-5.9776,41.2445,65.669498)"/>
<use data-text="0" xlink:href="#font_2_1" transform="matrix(5.9776,0,0,-5.9776,44.173524,65.669498)"/>
<use data-text="0" xlink:href="#font_2_1" transform="matrix(5.9776,0,0,-5.9776,47.102548,65.669498)"/>
<use data-text="5" xlink:href="#font_2_4" transform="matrix(5.9776,0,0,-5.9776,41.245,25.589493)"/>
<use data-text="0" xlink:href="#font_2_1" transform="matrix(5.9776,0,0,-5.9776,44.174024,25.589493)"/>
<use data-text="0" xlink:href="#font_2_1" transform="matrix(5.9776,0,0,-5.9776,47.103048,25.589493)"/>
<use data-text="1" xlink:href="#font_2_2" transform="matrix(5.9776,0,0,-5.9776,36.6925,4.843498)"/>
<use data-text="," xlink:href="#font_3_1" transform="matrix(5.9776,0,0,-5.9776,39.619005,4.843498)"/>
<use data-text="0" xlink:href="#font_2_1" transform="matrix(5.9776,0,0,-5.9776,41.2445,4.843498)"/>
<use data-text="0" xlink:href="#font_2_1" transform="matrix(5.9776,0,0,-5.9776,44.173524,4.843498)"/>
<use data-text="0" xlink:href="#font_2_1" transform="matrix(5.9776,0,0,-5.9776,47.102548,4.843498)"/>
<g clip-path="url(#clip_4)">
<path transform="matrix(.5,0,0,-.5,4.6105005,84.197498)" stroke-width=".79701" stroke-linecap="butt" stroke-miterlimit="10" stroke-linejoin="miter" fill="none" stroke="#0000ff" d="M0 80.72923 .18492 80.72917 .36986 80.7291 .5548 80.72905 .73972 80.72899 .92465 80.72893 1.10959 80.72887 1.29453 80.7288 1.47946 80.72874 1.6644 80.72868 1.84933 80.72862 2.03426 80.72856 2.2192 80.7285 2.40413 80.72844 2.58907 80.72838 2.774 80.7283 2.95894 80.72824 3.14388 80.72818 3.3288 80.7281 3.51373 80.72804 3.69868 80.72798 3.8836 80.7279 4.06854 80.72784 4.25348 80.72777 4.4384 80.72769 4.62334 80.72763 4.80827 80.72755 4.99323 80.72748 5.17815 80.72742 5.36308 80.72736 5.54802 80.72728 5.73294 80.7272 5.91788 80.72713 6.10281 80.72705 6.28777 80.72699 6.47269 80.72691 6.65762 80.72684 6.84256 80.72676 7.02748 80.72668 7.21242 80.7266 7.39737 80.72652 7.5823 80.72646 7.76723 80.72636 7.95216 80.72629 8.1371 80.7262 8.32202 80.72612 8.50696 80.72603 8.69191 80.72595 8.87683 80.72588 9.06177 80.72578 9.2467 80.7257 9.43164 80.72562 9.61656 80.72552 9.80151 80.72543 9.98645 80.72536 10.17137 80.72525 10.35631 80.72516 10.54124 80.72508 10.72618 80.72498 10.9111 80.7249 11.09605 80.7248 11.28099 80.7247 11.46591 80.72461 11.65085 80.7245 11.83578 80.72441 12.0207 80.72432 12.20564 80.72421 12.3906 80.72412 12.57553 80.72401 12.76045 80.72392 12.94539 80.72382 13.13033 80.72372 13.31525 80.7236 13.5002 80.72351 13.68513 80.7234 13.87007 80.72328 14.055 80.72319 14.23993 80.72308 14.42487 80.72296 14.60979 80.72287 14.79474 80.72276 14.97968 80.72264 15.16461 80.72253 15.34953 80.72243 15.53447 80.7223 15.7194 80.72218 15.90433 80.72206 16.08928 80.72195 16.27422 80.72183 16.45914 80.72171 16.64407 80.72159 16.82901 80.72147 17.01395 80.72134 17.19888 80.72122 17.38382 80.72108 17.56876 80.72096 17.75368 80.72083 17.93861 80.7207 18.12355 80.72057 18.30849 80.72044 18.49342 80.7203 18.67836 80.72017 18.8633 80.72003 19.04822 80.7199 19.23315 80.71976 19.41809 80.71962 19.60303 80.71947 19.78796 80.71933 19.9729 80.7192 20.15784 80.71904 20.34276 80.71889 20.5277 80.71877 20.71263 80.71861 20.89757 80.71846 21.0825 80.7183 21.26744 80.71815 21.45238 80.71799 21.6373 80.71783 21.82224 80.71768 22.00717 80.71751 22.19211 80.71735 22.37704 80.7172 22.56198 80.71703 22.74692 80.71686 22.93184 80.71669 23.11678 80.71652 23.30173 80.71635 23.48665 80.71617 23.67159 80.71599 23.85652 80.71582 24.04144 80.71565 24.22638 80.71545 24.41132 80.71527 24.59627 80.71509 24.78119 80.7149 24.96613 80.71474 25.15106 80.71454 25.33598 80.71436 25.52092 80.71416 25.70587 80.71396 25.89081 80.71376 26.07573 80.71356 26.26067 80.71335 26.4456 80.71315 26.63052 80.71294 26.81546 80.71274 27.00041 80.71252 27.18533 80.71231 27.37027 80.7121 27.5552 80.71187 27.74014 80.71164 27.92506 80.71143 28.11 80.7112 28.29495 80.71098 28.47987 80.71074 28.66481 80.71053 28.84975 80.7103 29.03468 80.71005 29.2196 80.70981 29.40456 80.70958 29.5895 80.70932 29.77441 80.70908 29.95935 80.70882 30.14429 80.70857 30.32922 80.70831 30.51414 80.70805 30.6991 80.7078 30.88403 80.70752 31.06895 80.70726 31.25389 80.70699 31.43883 80.70671 31.62375 80.70645 31.80869 80.70616 31.99364 80.70589 32.17857 80.7056 32.3635 80.7053 32.54843 80.705 32.73337 80.70471 32.91829 80.7044 33.10324 80.7041 33.28818 80.7038 33.47311 80.70349 33.65804 80.70317 33.84297 80.70285 34.02791 80.70253 34.21283 80.70221 34.39778 80.70189 34.58272 80.70157 34.76764 80.70122 34.95258 80.70087 35.13751 80.70053 35.32245 80.70018 35.50739 80.69981 35.69232 80.69946 35.87726 80.6991 36.06218 80.69873 36.24712 80.69838 36.43205 80.69801 36.61699 80.69763 36.80193 80.69724 36.98686 80.69685 37.1718 80.69646 37.35672 80.69606 37.54166 80.69565 37.7266 80.69522 37.91153 80.69482 38.09647 80.6944 38.2814 80.69398 38.46634 80.69356 38.65126 80.69312 38.8362 80.69267 39.02113 80.69223 39.20607 80.69177 39.391 80.69131 39.57594 80.69084 39.76088 80.69037 39.9458 80.68991 40.13074 80.68942 40.31567 80.68893 40.50061 80.68845 40.68555 80.68793 40.87048 80.68742 41.05542 80.6869 41.24034 80.68639 41.42528 80.68587 41.61023 80.68533 41.79515 80.68478 41.98009 80.68423 42.16502 80.68367 42.34995 80.6831 42.53488 80.68254 42.71982 80.68198 42.90477 80.68138 43.08969 80.68077 43.27463 80.68016 43.45956 80.67955 43.64449 80.67894 43.82942 80.6783 44.01436 80.67767 44.19931 80.67702 44.38423 80.67636 44.56917 80.67569 44.7541 80.67502 44.93903 80.67433 45.12396 80.67365 45.30891 80.67293 45.49385 80.67221 45.67877 80.6715 45.86371 80.67075 46.04865 80.67 46.23357 80.66925 46.4185 80.66847 46.60345 80.6677 46.78838 80.6669 46.97331 80.66609 47.15825 80.6653 47.34319 80.66446 47.5281 80.66362 47.71304 80.66277 47.898 80.6619 48.08292 80.66103 48.26785 80.66013 48.45279 80.65923 48.63773 80.6583 48.82265 80.65738 49.0076 80.65642 49.19254 80.65546 49.37746 80.65448 49.5624 80.65349 49.74734 80.65248 49.93227 80.65146 50.1172 80.6504 50.30214 80.64937 50.48708 80.64828 50.672 80.6472 50.85695 80.64609 51.04189 80.64496 51.2268 80.64381 51.41174 80.64265 51.5967 80.64145 51.78163 80.64027 51.96655 80.63904 52.15149 80.6378 52.33643 80.63654 52.52135 80.63525 52.7063 80.63394 52.89124 80.63263 53.07617 80.63127 53.2611 80.6299 53.44604 80.62852 53.63098 80.62709 53.8159 80.62564 54.00084 80.62419 54.18578 80.62268 54.3707 80.62115 54.55565 80.61961 54.74059 80.61804 54.92552 80.61644 55.11044 80.61482 55.2954 80.61314 55.48033 80.61147 55.66525 80.60976 55.85019 80.60802 56.03513 80.60622 56.22006 80.60442 56.405 80.60257 56.58994 80.60068 56.77487 80.59877 56.9598 80.59682 57.14474 80.59485 57.32968 80.5928 57.5146 80.59076 57.69954 80.58864 57.88448 80.58652 58.06941 80.58432 58.25435 80.5821 58.43929 80.57985 58.62422 80.57753 58.80914 80.5752 58.9941 80.57278 59.17903 80.57034 59.36397 80.56784 59.54889 80.56529 59.73383 80.56271 59.91876 80.56006 60.1037 80.55736 60.28864 80.55463 60.47357 80.55179 60.65851 80.54895 60.84344 80.54602 61.02838 80.54303 61.21332 80.53998 61.39824 80.53687 61.58318 80.53369 61.76811 80.53047 61.95305 80.52713 62.13799 80.52376 62.32292 80.52031 62.50786 80.51678 62.6928 80.51318 62.87773 80.5095 63.06267 80.50574 63.24759 80.50189 63.43253 80.49797 63.61746 80.49394 63.80241 80.48984 63.98734 80.48564 64.17227 80.48135 64.35721 80.47696 64.54214 80.47247 64.72708 80.46788 64.91202 80.46317 65.09694 80.45836 65.28188 80.45343 65.46681 80.44841 65.65176 80.44325 65.83669 80.43796 66.02162 80.43257 66.20656 80.42703 66.3915 80.42136 66.57643 80.41556 66.76137 80.40959 66.9463 80.4035 67.13123 80.39725 67.31616 80.39085 67.50111 80.3843 67.68604 80.37756 67.87097 80.37067 68.05591 80.3636 68.24086 80.35632 68.42578 80.34888 68.61072 80.34125 68.79565 80.3334 68.98058 80.32535 69.16551 80.31708 69.35046 80.3086 69.53539 80.29988 69.72032 80.29092 69.90526 80.28172 70.09021 80.27228 70.27513 80.26256 70.46007 80.2526 70.645 80.24231 70.82993 80.23175 71.01486 80.22089 71.19981 80.20973 71.38475 80.19826 71.56967 80.18643 71.75461 80.17424 71.93956 80.16171 72.12448 80.14882 72.30942 80.1355 72.49435 80.12183 72.67928 80.1077 72.86421 80.09317 73.04916 80.07816 73.2341 80.06268 73.41902 80.04675 73.60396 80.03027 73.78891 80.0133 73.97383 79.99579 74.15877 79.97769 74.3437 79.959 74.52864 79.9397 74.71356 79.91972 74.89851 79.89917 75.08345 79.87778 75.26837 79.85577 75.45331 79.83293 75.63826 79.80931 75.8232 79.78496 76.00812 79.75978 76.19305 79.7335 76.37799 79.7063 76.56291 79.67824 76.74786 79.64912 76.9328 79.61896 77.11772 79.58759 77.30266 79.55508 77.48761 79.52136 77.67255 79.48627 77.85747 79.44981 78.0424 79.41208 78.22734 79.3727 78.41226 79.33182 78.59721 79.28938 78.78215 79.24493 78.96709 79.19888 79.15201 79.15091 79.33696 79.10089 79.5219 79.0487 79.70682 78.99434 79.89175 78.93764 80.07669 78.87843 80.26161 78.81664 80.44656 78.75203 80.6315 78.68445 80.81644 78.6138 81.00136 78.53983 81.18631 78.46239 81.37125 78.38133 81.55617 78.2964 81.7411 78.20743 81.92604 78.11386 82.11098 78.01563 82.29591 77.91263 82.48085 77.80429 82.66579 77.6904 82.85071 77.57039 83.03566 77.44408 83.2206 77.3109 83.40552 77.17064 83.59045 77.0224 83.77539 76.866 83.96033 76.70056 84.14526 76.52553 84.3302 76.34052 84.51514 76.14418 84.70006 75.93617 84.88501 75.7154 85.06995 75.48091 85.25488 75.23152 85.4398 74.96625 85.62474 74.68346 85.80968 74.38194 85.99461 74.06029 86.17955 73.71628 86.36449 73.34824 86.54942 72.9543 86.73436 72.5315 86.9193 72.07817 87.10423 71.5902 87.28915 71.0643 87.47409 70.49968 87.65903 69.8875 87.84396 69.2269 88.0289 68.51144 88.21384 67.73552 88.39877 66.89183 88.58371 65.97394 88.76865 64.97296 88.95358 63.88083 89.1385 62.68387 89.32344 61.37074 89.50838 59.92856 89.69333 58.33798 89.87825 56.58205 90.06319 54.63817 90.24812 52.47975 90.43306 50.0761 90.618 47.3918 90.80293 44.38565 90.98785 41.00604 91.17279 37.1941 91.35773 32.8805 91.54268 27.97482 91.7276 22.37712 91.91254 15.9583 92.09747 8.5619 92.28241 0"/>
<path transform="matrix(.5,0,0,-.5,4.6105005,84.197498)" stroke-width=".79701" stroke-linecap="butt" stroke-miterlimit="10" stroke-linejoin="miter" fill="none" stroke="#0000ff" d="M101.99448 161.39797 102.17941 152.84412 102.36433 145.45738 102.54927 139.04663 102.7342 133.45458 102.91914 128.55619 103.10408 124.24658 103.28902 120.43948 103.47395 117.06393 103.65887 114.06102 103.84381 111.3791 104.02876 108.9779 104.21368 106.82109 104.39862 104.87964 104.58356 103.12451 104.76848 101.53633 104.95343 100.09416 105.13837 98.78345 105.3233 97.58728 105.50822 96.49516 105.69316 95.49501 105.87811 94.57791 106.06303 93.73584 106.24797 92.9607 106.4329 92.24527 106.61786 91.58466 106.80278 90.97408 106.98772 90.40787 107.17265 89.88358 107.35757 89.3964 107.54251 88.9439 107.72746 88.52045 107.91238 88.12683 108.09732 87.75919 108.28226 87.41525 108.4672 87.09383 108.65213 86.7924 108.83707 86.50978 109.022 86.24475 109.20692 85.9955 109.39186 85.76112 109.57681 85.54051 109.76175 85.33249 109.94667 85.13643 110.1316 84.95131 110.31654 84.77644 110.50148 84.61116 110.68642 84.45486 110.87135 84.30669 111.05627 84.16649 111.24121 84.03333 111.42616 83.90703 111.6111 83.78723 111.79602 83.67326 111.98096 83.565 112.1659 83.46194 112.35083 83.36394 112.53577 83.27046 112.7207 83.18132 112.90564 83.09647 113.09056 83.0155 113.27551 82.93806 113.46045 82.86418 113.64537 82.79352 113.8303 82.72592 114.01526 82.66148 114.2002 82.59961 114.38512 82.5404 114.57005 82.48378 114.75499 82.42935 114.93991 82.37715 115.12486 82.32724 115.3098 82.27924 115.49472 82.23318 115.67966 82.18889 115.8646 82.14632 116.04955 82.10542 116.23447 82.06615 116.4194 82.0284 116.60434 81.99193 116.78926 81.95702 116.97421 81.92314 117.15915 81.8907 117.34409 81.8594 117.529 81.82916 117.71396 81.80014 117.8989 81.77206 118.08382 81.7448 118.26875 81.71875 118.45369 81.69342 118.63861 81.66898 118.82356 81.64543 119.0085 81.62259 119.19344 81.60059 119.37836 81.57928 119.5633 81.5588 119.74825 81.53874 119.93317 81.51942 120.1181 81.50076 120.30304 81.48267 120.48798 81.46515 120.67291 81.44817 120.85785 81.43172 121.04279 81.41579 121.2277 81.40031 121.41266 81.3853 121.5976 81.37077 121.78253 81.35666 121.96745 81.34297 122.15239 81.32968 122.33733 81.31677 122.52226 81.30424 122.7072 81.29207 122.89214 81.28024 123.07706 81.26878 123.262 81.25761 123.44695 81.24675 123.63188 81.2362 123.8168 81.22592 124.00174 81.21596 124.18668 81.20625 124.37161 81.1968 124.55655 81.1876 124.74149 81.17865 124.92642 81.16995 125.11136 81.16145 125.2963 81.15318 125.48123 81.14513 125.66615 81.1373 125.85109 81.12967 126.03603 81.12222 126.22096 81.11494 126.4059 81.10788 126.59084 81.10098 126.77577 81.09427 126.96071 81.08769 127.14565 81.08128 127.33058 81.07504 127.5155 81.06895 127.70044 81.063 127.88538 81.0572 128.07033 81.05153 128.25525 81.04599 128.44019 81.0406 128.62512 81.03531 128.81005 81.03015 128.995 81.02512 129.17993 81.0202 129.36487 81.0154 129.54979 81.0107 129.73473 81.0061 129.91968 81.00162 130.1046 80.99722 130.28954 80.99294 130.47447 80.98874 130.65941 80.98462 130.84435 80.9806 131.02928 80.97667 131.21422 80.97284 131.39914 80.96907 131.58408 80.96541 131.76903 80.9618 131.95395 80.95827 132.13889 80.95482 132.32382 80.95154 132.50876 80.94812 132.6937 80.94487 132.87863 80.94171 133.06357 80.9386 133.24849 80.93555 133.43343 80.93257 133.61838 80.92964 133.8033 80.92677 133.98824 80.92397 134.17317 80.92122 134.35813 80.91852 134.54305 80.91588 134.72798 80.91328 134.91292 80.91074 135.09784 80.90825 135.28278 80.9058 135.46773 80.9034 135.65267 80.90105 135.83759 80.89874 136.02252 80.89648 136.20748 80.89426 136.3924 80.89207 136.57733 80.88994 136.76227 80.88783 136.9472 80.88579 137.13213 80.88376 137.31708 80.88177 137.50202 80.87982 137.68694 80.87791 137.87187 80.87602 138.05683 80.87418 138.24175 80.87238 138.42668 80.87059 138.61162 80.86885 138.79656 80.86711 138.98148 80.86543 139.16643 80.86378 139.35137 80.86214 139.53629 80.86055 139.72122 80.85898 139.90616 80.85744 140.09111 80.85593 140.27603 80.85442 140.46097 80.85295 140.6459 80.85152 140.83083 80.85008 141.01578 80.8487 141.20072 80.84732 141.38564 80.84596 141.57057 80.84465 141.75553 80.84334 141.94046 80.84206 142.12538 80.8408 142.31032 80.83957 142.49526 80.83833 142.68018 80.83714 142.86513 80.83595 143.05007 80.8348 143.235 80.83363 143.41992 80.83253 143.60486 80.83142 143.78981 80.83032 143.97473 80.82924 144.15967 80.8282 144.3446 80.82715 144.52954 80.82613 144.71448 80.8251 144.89942 80.82413 145.08435 80.82315 145.26927 80.82217 145.45423 80.82123 145.63916 80.82031 145.82408 80.81938 146.00902 80.81847 146.19396 80.81758 146.37889 80.81671 146.56383 80.81584 146.74877 80.81499 146.9337 80.81415 147.11862 80.81332 147.30356 80.8125 147.4885 80.8117 147.67345 80.81091 147.85837 80.81012 148.0433 80.80936 148.22824 80.80861 148.41316 80.80786 148.5981 80.80713 148.78304 80.8064 148.96797 80.80568 149.15291 80.80496 149.33785 80.80429 149.52278 80.80359 149.7077 80.80292 149.89264 80.80225 150.07759 80.80157 150.26251 80.80093 150.44745 80.80031 150.63239 80.79968 150.81732 80.79904 151.00225 80.79843 151.18718 80.79782 151.37213 80.79723 151.55706 80.79665 151.74199 80.79608 151.92693 80.79549 152.11186 80.79492 152.29679 80.79437 152.48172 80.79381 152.66667 80.79327 152.8516 80.79274 153.03653 80.79222 153.22147 80.79169 153.40639 80.79117 153.59133 80.79066 153.77628 80.79018 153.96121 80.78967 154.14614 80.78917 154.33107 80.7887 154.516 80.78824 154.70093 80.78775 154.88587 80.7873 155.07082 80.78683 155.25576 80.78638 155.44068 80.78593 155.62561 80.78549 155.81055 80.78505 155.99547 80.78462 156.1804 80.7842 156.36536 80.7838 156.55028 80.78337 156.73522 80.78296 156.92015 80.78256 157.10509 80.78217 157.29001 80.78177 157.47496 80.78137 157.6599 80.78099 157.84482 80.78061 158.02976 80.78023 158.21469 80.77986 158.39963 80.77951 158.58455 80.77913 158.7695 80.77878 158.95444 80.77843 159.13936 80.77808 159.3243 80.77773 159.50923 80.77739 159.69417 80.77705 159.8791 80.77672 160.06404 80.77638 160.24898 80.77606 160.4339 80.77576 160.61884 80.77544 160.80377 80.77512 160.9887 80.77481 161.17365 80.77449 161.35858 80.7742 161.54352 80.7739 161.72844 80.77359 161.91338 80.7733 162.09832 80.77301 162.28324 80.77272 162.46819 80.77245 162.65312 80.77216 162.83806 80.7719 163.02298 80.77162 163.20792 80.77135 163.39286 80.77109 163.57779 80.77081 163.76273 80.77055 163.94766 80.7703 164.13259 80.77003 164.31752 80.76978 164.50246 80.76953 164.6874 80.76929 164.87233 80.76904 165.05727 80.76878 165.2422 80.76855 165.42713 80.76833 165.61206 80.76808 165.797 80.76785 165.98194 80.76764 166.16687 80.76741 166.3518 80.76718 166.53675 80.76695 166.72167 80.76674 166.9066 80.76653 167.09154 80.7663 167.27649 80.76608 167.46141 80.76588 167.64635 80.76567 167.83129 80.76546 168.0162 80.76526 168.20114 80.76505 168.38608 80.76485 168.57102 80.76465 168.75595 80.76445 168.94089 80.76425 169.12583 80.76407 169.31075 80.76387 169.49568 80.7637 169.68064 80.76352 169.86556 80.76334 170.05049 80.76315 170.23543 80.76297 170.42037 80.76279 170.60529 80.76262 170.79022 80.76244 170.97518 80.76227 171.1601 80.76208 171.34503 80.76192 171.52997 80.76175 171.71489 80.76158 171.89983 80.76141 172.08477 80.76126 172.26972 80.7611 172.45464 80.76093 172.63957 80.76077 172.82451 80.76062 173.00943 80.76045 173.19437 80.76031 173.37932 80.76015 173.56426 80.76 173.74918 80.75986 173.93412 80.7597 174.11905 80.75957 174.30397 80.75943 174.4889 80.75928 174.67386 80.75914 174.8588 80.75899 175.04372 80.75885 175.22866 80.75871 175.41359 80.75858 175.59851 80.75845 175.78347 80.75832 175.9684 80.75818 176.15332 80.75804 176.33826 80.7579 176.5232 80.75778 176.70813 80.75764 176.89305 80.75752 177.078 80.7574 177.26294 80.75728 177.44786 80.75716 177.6328 80.75702 177.81774 80.7569 178.00267 80.75677 178.18759 80.75665 178.37255 80.75655 178.55748 80.75642 178.7424 80.7563 178.92734 80.75618 179.11228 80.75607 179.2972 80.75597 179.48215 80.75586 179.66709 80.75574 179.85202 80.75563 180.03694 80.75554 180.22188 80.75542 180.40682 80.75531 180.59174 80.75522 180.77669 80.7551 180.96163 80.755 181.14656 80.7549 181.33148 80.75479 181.51642 80.7547 181.70136 80.7546 181.88628 80.7545 182.07123 80.7544 182.25617 80.7543 182.4411 80.7542 182.62602 80.7541 182.81096 80.754 182.9959 80.7539 183.18083 80.75381 183.36577 80.75372 183.5507 80.75363 183.73563 80.75354 183.92057 80.75345 184.1055 80.75336 184.29044 80.75327 184.47537 80.75317 184.66031 80.75308 184.84525 80.753 185.03017 80.75291 185.2151 80.75282 185.40004 80.75275 185.58499 80.75266 185.76992 80.75256 185.95485 80.7525 186.13979 80.75241 186.3247 80.75232 186.50965 80.75224 186.69458 80.75217 186.87952 80.75209 187.06446 80.75201 187.24939 80.75192 187.43433 80.75185 187.61925 80.75179 187.80419 80.7517 187.98912 80.75162 188.17406 80.75154 188.359 80.75148 188.54393 80.7514 188.72887 80.75134 188.91379 80.75127 189.09873 80.75119 189.28368 80.75113 189.4686 80.75105 189.65354 80.75098 189.83847 80.7509 190.0234 80.75084 190.20833 80.75076 190.39327 80.7507 190.57822 80.75063 190.76314 80.75056 190.94808 80.7505 191.13301 80.75044 191.31793 80.75037 191.50287 80.7503 191.68782 80.75024 191.87276 80.75018 192.05768 80.7501 192.24262 80.75005 192.42755 80.74998 192.61248 80.74992 192.79741 80.74986 192.98236 80.7498 193.1673 80.74974 193.35222 80.74968 193.53716 80.74962 193.72209 80.74956 193.90702 80.74951 194.09195 80.74945 194.2769 80.74939"/>
</g>
</svg>
