<svg xmlns="http://www.w3.org/2000/svg" xmlns:xlink="http://www.w3.org/1999/xlink" version="1.1" width="206" height="164" viewBox="0 0 206 164">
<defs>
<path id="font_1_1" d="M.6589966 .23046875C.6759949 .23046875 .69400027 .23046875 .69400027 .25045777 .69400027 .27046205 .6759949 .27046205 .6589966 .27046205H.117996219C.100997928 .27046205 .08299255 .27046205 .08299255 .25045777 .08299255 .23046875 .100997928 .23046875 .117996219 .23046875H.6589966Z"/>
<path id="font_2_4" d="M.43998719 .16790772H.41799928C.4149933 .15092469 .40699769 .09597778 .39698792 .07998657 .3899994 .070999149 .33299256 .070999149 .30299378 .070999149H.117996219C.14498902 .09397888 .20599365 .15792847 .23199463 .18190003 .38398744 .3217926 .43998719 .37374879 .43998719 .47270204 .43998719 .5878906 .34899903 .66503909 .23298645 .66503909 .116989139 .66503909 .04899597 .5658264 .04899597 .4797058 .04899597 .42871095 .09298706 .42871095 .09599304 .42871095 .116989139 .42871095 .14299011 .44371034 .14299011 .475708 .14299011 .5037079 .12399292 .5227051 .09599304 .5227051 .08699036 .5227051 .084991458 .5227051 .08198547 .521698 .100997928 .5899048 .15499878 .6360321 .21998596 .6360321 .30499269 .6360321 .35699464 .56481936 .35699464 .47270204 .35699464 .3877411 .30799867 .313797 .25099183 .24984741L.04899597 .023986817V0H.4139862L.43998719 .16790772Z"/>
<path id="font_2_3" d="M.28799439 .64105227C.28799439 .664032 .28799439 .66503909 .2679901 .66503909 .24398804 .6380615 .19400025 .6012573 .09098816 .6012573V.5722656C.11399841 .5722656 .1639862 .5722656 .21899414 .59825137V.07701111C.21899414 .041000368 .21598816 .0289917 .12799073 .0289917H.09700012V0C.12399292 .0019989014 .22099304 .0019989014 .2539978 .0019989014 .2869873 .0019989014 .3829956 .0019989014 .4099884 0V.0289917H.3789978C.29100038 .0289917 .28799439 .041000368 .28799439 .07701111V.64105227Z"/>
<path id="font_2_5" d="M.18399048 .35888673C.16699219 .35787965 .16299439 .35688783 .16299439 .34788514 .16299439 .33789063 .16799927 .33789063 .18598938 .33789063H.23199463C.31698609 .33789063 .35499574 .267807 .35499574 .17172241 .35499574 .04058838 .2869873 .005508423 .23799134 .005508423 .18998719 .005508423 .10798645 .028564454 .07899475 .09472656 .11099243 .08970642 .13999939 .10771179 .13999939 .14372254 .13999939 .17271424 .11898804 .1927185 .09098816 .1927185 .066986087 .1927185 .040985109 .1787262 .040985109 .14071656 .040985109 .051620485 .12998963-.021484375 .24099732-.021484375 .3600006-.021484375 .44799806 .06965637 .44799806 .17071533 .44799806 .26280213 .37399293 .33488465 .27799989 .35188294 .36499024 .3769226 .42099 .45011903 .42099 .5282135 .42099 .6071167 .33898927 .66503909 .24198914 .66503909 .14199829 .66503909 .067993167 .604126 .067993167 .5312042 .067993167 .49121095 .09899902 .48321534 .11399841 .48321534 .1349945 .48321534 .15899658 .49821473 .15899658 .5282135 .15899658 .5602112 .1349945 .57421877 .11299133 .57421877 .10699463 .57421877 .10499573 .57421877 .101989749 .57321169 .13999939 .641037 .23399353 .641037 .23899842 .641037 .27198792 .641037 .33699037 .6260681 .33699037 .5282135 .33699037 .5092163 .33399964 .453125 .30499269 .41001893 .2749939 .3658905 .24099732 .36288453 .21398926 .36187745L.18399048 .35888673Z"/>
<path id="font_2_6" d="M.36099244 .6508026C.36099244 .6697998 .36099244 .6748047 .34700013 .6748047 .33898927 .6748047 .33599855 .6748047 .32798768 .662796L.026992798 .19598389V.16699219H.2899933V.07598877C.2899933 .038986207 .28799439 .0289917 .21499634 .0289917H.19499207V0C.21798706 .0019989014 .29699708 .0019989014 .32499696 .0019989014 .35299684 .0019989014 .43299867 .0019989014 .45599366 0V.0289917H.43598939C.3639984 .0289917 .36099244 .038986207 .36099244 .07598877V.16699219H.46199037V.19598389H.36099244V.6508026M.29499818 .5728302V.19598389H.051986696L.29499818 .5728302Z"/>
<path id="font_2_7" d="M.12799073 .5727997C.17098999 .5588074 .20599365 .5578003 .21699524 .5578003 .32998658 .5578003 .4019928 .6409912 .4019928 .6550598 .4019928 .6590576 .3999939 .6640625 .3939972 .6640625 .3919983 .6640625 .3899994 .6640625 .3809967 .66004946 .32499696 .6358795 .2769928 .6328125 .25099183 .6328125 .18499756 .6328125 .13798523 .6530609 .11898804 .6610565 .11199951 .6640625 .10998535 .6640625 .10899353 .6640625 .100997928 .6640625 .100997928 .65805056 .100997928 .64201357V.34495545C.100997928 .32695008 .100997928 .32095338 .11299133 .32095338 .117996219 .32095338 .11898804 .32196046 .1289978 .33395387 .15699768 .37493897 .20399475 .39894105 .2539978 .39894105 .30699159 .39894105 .33299256 .34994508 .34098817 .33294679 .35798646 .29396058 .35899354 .2449646 .35899354 .20697022 .35899354 .16897583 .35899354 .11193848 .33099366 .0667572 .30899049 .03060913 .269989 .005508423 .22599793 .005508423 .1599884 .005508423 .09498596 .050689699 .07699585 .12397766 .08198547 .12197876 .08799744 .12097168 .09298706 .12097168 .10998535 .12097168 .13699341 .13098145 .13699341 .16497803 .13699341 .1929779 .117996219 .20898438 .09298706 .20898438 .07499695 .20898438 .04899597 .19998169 .04899597 .16098023 .04899597 .075790408 .116989139-.021484375 .22799683-.021484375 .34098817-.021484375 .43998719 .073791507 .43998719 .20097351 .43998719 .3199463 .3600006 .4189453 .25498963 .4189453 .19799805 .4189453 .1539917 .39393617 .12799073 .36595155V.5727997Z"/>
<path id="font_2_8" d="M.12298584 .34773255C.12298584 .60061648 .24598694 .641037 .2999878 .641037 .33599855 .641037 .37199403 .62991335 .3909912 .5996094 .3789978 .5996094 .34098817 .5996094 .34098817 .558609 .34098817 .53660586 .35598756 .51760867 .38198854 .51760867 .40699769 .51760867 .42399598 .53260806 .42399598 .56159976 .42399598 .6137543 .38598634 .66503909 .29899598 .66503909 .17298889 .66503909 .040985109 .53559878 .040985109 .31570436 .040985109 .040527345 .16099549-.021484375 .24598694-.021484375 .35499574-.021484375 .44799806 .07354736 .44799806 .2036438 .44799806 .33673097 .35499574 .42578126 .25498963 .42578126 .1659851 .42578126 .1329956 .34873963 .12298584 .32070924V.34773255M.24598694 .005508423C.18299866 .005508423 .15299988 .061538698 .14399719 .08256531 .1349945 .10858154 .125 .15760803 .125 .22766114 .125 .30670167 .16099549 .40577699 .25099183 .40577699 .30599977 .40577699 .33499146 .3687439 .34999085 .33473207 .3659973 .29769898 .3659973 .2476654 .3659973 .20463562 .3659973 .15361023 .3659973 .10858154 .34700013 .07055664 .32199098 .022521973 .28599549 .005508423 .24598694 .005508423Z"/>
<path id="font_2_9" d="M.47499085 .62054446V.6435547H.23399353C.11299133 .6435547 .11099243 .6567688 .10699463 .67578127H.084991458L.053985597 .47554017H.07598877C.07899475 .49354554 .08799744 .555542 .100997928 .5665436 .10899353 .5725403 .18399048 .5725403 .19799805 .5725403H.4099884L.3039856 .42053224C.2769928 .38153077 .17599488 .21751404 .17599488 .029510498 .17599488 .018508912 .17599488-.021484375 .21699524-.021484375 .25898744-.021484375 .25898744 .017501831 .25898744 .030517579V.08052063C.25898744 .2295227 .2829895 .34553529 .32998658 .41253663L.47499085 .62054446Z"/>
<clipPath id="clip_3">
<path transform="matrix(1,0,0,-1,-137.309,365.82603)" d="M145.70183 203.23436H339.97096V364.6312H145.70183Z"/>
</clipPath>
<path id="font_4_3" d="M.47399903 .40820313C.44198609 .40219117 .42999269 .3781891 .42999269 .3591919 .42999269 .33518983 .44898988 .3271942 .46299745 .3271942 .49299623 .3271942 .5139923 .3531952 .5139923 .380188 .5139923 .4223938 .46598817 .44140626 .42399598 .44140626 .36299134 .44140626 .32899476 .38119508 .31999208 .36219789 .29699708 .4373932 .23498535 .44140626 .21699524 .44140626 .114990238 .44140626 .06098938 .31021119 .06098938 .28822328 .06098938 .28422547 .06498718 .27923585 .07199097 .27923585 .07998657 .27923585 .08198547 .28523255 .083999637 .2892151 .117996219 .40019227 .18499756 .42140199 .21398926 .42140199 .25898744 .42140199 .2679901 .37919618 .2679901 .3551941 .2679901 .33319093 .2619934 .31021119 .25 .26223756L.21598816 .12535095C.20098877 .06535339 .17199707 .010223389 .11898804 .010223389 .11399841 .010223389 .08898926 .010223389 .067993167 .023330689 .10398865 .03036499 .11199951 .06036377 .11199951 .07235718 .11199951 .09236145 .09700012 .10435486 .07798767 .10435486 .053985597 .10435486 .027999878 .083358768 .027999878 .051361085 .027999878 .009231567 .07499695-.009765625 .117996219-.009765625 .1659851-.009765625 .19999695 .028366089 .22099304 .069366458 .23699951 .010223389 .2869873-.009765625 .32398988-.009765625 .42599488-.009765625 .47999574 .12135315 .47999574 .1433258 .47999574 .14833069 .47599793 .15232849 .46998597 .15232849 .46099855 .15232849 .45999146 .14732361 .45700074 .139328 .42999269 .051361085 .37199403 .010223389 .32699586 .010223389 .2919922 .010223389 .272995 .036361696 .272995 .07736206 .272995 .099365238 .2769928 .115356449 .29299928 .18130493L.32798768 .3171997C.34298707 .37719728 .3769989 .42140199 .4229889 .42140199 .4249878 .42140199 .45298768 .42140199 .47399903 .40820313Z"/>
<path id="font_4_4" d="M.2630005-.11172485C.23599243-.14982605 .19699097-.18411255 .147995-.18411255 .13598633-.18411255 .08799744-.18209839 .07299805-.13572693 .07598877-.13671875 .08099365-.13671875 .08299255-.13671875 .11299133-.13671875 .1329956-.11073303 .1329956-.08772278 .1329956-.06472778 .11399841-.056732179 .09899902-.056732179 .08299255-.056732179 .04798889-.068725589 .04798889-.11772156 .04798889-.16899109 .09098816-.20410156 .147995-.20410156 .24798584-.20410156 .34899903-.11172485 .3769989-.00077819827L.47499085 .38868714C.47599793 .39367677 .47799684 .39967347 .47799684 .4056549 .47799684 .4206543 .46598817 .43066407 .45098878 .43066407 .44198609 .43066407 .42099 .426651 .41299439 .39666749L.33898927 .10308838C.33399964 .085113529 .33399964 .08312988 .32598878 .072143558 .30599977 .04423523 .272995 .010223389 .22499085 .010223389 .16899109 .010223389 .1639862 .06524658 .1639862 .09225464 .1639862 .14929199 .19099427 .22631836 .21798706 .2983551 .22898865 .32736207 .23498535 .34136964 .23498535 .3613739 .23498535 .4033966 .20498657 .44140626 .1559906 .44140626 .06399536 .44140626 .026992798 .29634095 .026992798 .28834535 .026992798 .28434754 .0309906 .27934266 .037994386 .27934266 .04699707 .27934266 .04798889 .28334046 .051986696 .29734803 .07598877 .38137818 .11399841 .42140199 .15299988 .42140199 .1619873 .42140199 .1789856 .42140199 .1789856 .38838197 .1789856 .36238099 .16799927 .33335877 .15299988 .29534913 .10398865 .16429138 .10398865 .13127136 .10398865 .10726929 .10398865 .01222229 .17199707-.009765625 .22200012-.009765625 .25099183-.009765625 .2869873-.00077819827 .32199098 .036239625L.32299806 .035232545C.30799867-.023757935 .2979889-.06272888 .2630005-.11172485Z"/>
<path id="font_2_10" d="M.6749878 .32421876C.68899539 .32421876 .70700076 .32421876 .70700076 .34220887 .70700076 .36120606 .6899872 .36120606 .6749878 .36120606H.085998538C.07199097 .36120606 .053985597 .36120606 .053985597 .34321595 .053985597 .32421876 .070999149 .32421876 .085998538 .32421876H.6749878M.6749878 .13780213C.68899539 .13780213 .70700076 .13780213 .70700076 .15579224 .70700076 .17480469 .6899872 .17480469 .6749878 .17480469H.085998538C.07199097 .17480469 .053985597 .17480469 .053985597 .15679932 .053985597 .13780213 .070999149 .13780213 .085998538 .13780213H.6749878Z"/>
<path id="font_4_1" d="M.1789856 .23242188C.20599365 .23242188 .27398683 .23442078 .32199098 .2524109 .397995 .28141786 .40499879 .33940126 .40499879 .35740663 .40499879 .4013977 .36698915 .44140626 .30099488 .44140626 .19599915 .44140626 .04499817 .34640504 .04499817 .16836548 .04499817 .0632782 .10499573-.009765625 .19599915-.009765625 .33198548-.009765625 .41799928 .09629822 .41799928 .109313968 .41799928 .11531067 .4119873 .12031555 .4079895 .12031555 .40499879 .12031555 .4039917 .11932373 .394989 .110305789 .33099366 .025238038 .23599243 .010223389 .19799805 .010223389 .14099121 .010223389 .11099243 .055267335 .11099243 .1293335 .11099243 .14334107 .11099243 .16836548 .12599182 .23242188H.1789856M.1309967 .2524109C.17399597 .4064026 .2689972 .42140199 .30099488 .42140199 .34498597 .42140199 .375 .395401 .375 .35740663 .375 .2524109 .21499634 .2524109 .17298889 .2524109H.1309967Z"/>
<path id="font_5_1" d="M.5009918 .39942933C.45700074 .38842774 .45498658 .34942628 .45498658 .34542848 .45498658 .3234253 .47200013 .3084259 .49398805 .3084259 .5159912 .3084259 .5499878 .3254242 .5499878 .36842347 .5499878 .42539979 .4869995 .44140626 .44999696 .44140626 .40299989 .44140626 .36499024 .4084015 .34199525 .36943055 .31999208 .4223938 .2679901 .44140626 .22698975 .44140626 .117996219 .44140626 .056991579 .31643678 .056991579 .28840638 .056991579 .27938844 .06399536 .27539063 .07199097 .27539063 .083999637 .27539063 .085998538 .2803955 .08898926 .29240418 .11199951 .36543275 .17199707 .4133911 .22399903 .4133911 .2630005 .4133911 .28199769 .385437 .28199769 .34942628 .28199769 .32943727 .269989 .2834015 .2619934 .25135804 .25498963 .22232056 .23298645 .13320923 .22799683 .11419678 .21398926 .060195924 .17799378 .018234253 .1329956 .018234253 .1289978 .018234253 .102996829 .018234253 .08198547 .032196046 .12799073 .04319763 .12799073 .08518982 .12799073 .0861969 .12799073 .109191898 .10998535 .12319946 .08799744 .12319946 .06098938 .12319946 .03199768 .10018921 .03199768 .062194826 .03199768 .016220093 .08099365-.009765625 .13198853-.009765625 .18499756-.009765625 .22200012 .030197144 .23999024 .062194826 .2619934 .01322937 .30799867-.009765625 .35598756-.009765625 .46499635-.009765625 .5249939 .1151886 .5249939 .143219 .5249939 .15322876 .5169983 .15623474 .5099945 .15623474 .49798585 .15623474 .49598695 .14923096 .49299623 .13922119 .47299195 .07218933 .41600038 .018234253 .35798646 .018234253 .32499696 .018234253 .30099488 .04019165 .30099488 .0821991 .30099488 .10218811 .30699159 .12519837 .32099916 .18127442 .32798768 .21130371 .34999085 .29942323 .35499574 .31843568 .36898805 .37042237 .4039917 .4133911 .44898988 .4133911 .45399476 .4133911 .47999574 .4133911 .5009918 .39942933Z"/>
<path id="font_4_2" d="M.44599916 .4016571C.46598817 .4016571 .47399903 .4016571 .47399903 .4206543 .47399903 .43066407 .46598817 .43066407 .44799806 .43066407H.36698915C.38598634 .5338745 .3999939 .60498049 .4079895 .63697817 .4139862 .6609802 .43499757 .6840973 .46099855 .6840973 .48199464 .6840973 .5029907 .67503359 .5130005 .6659851 .47399903 .66197207 .46199037 .63298037 .46199037 .61598208 .46199037 .5959778 .47698976 .5839844 .49598695 .5839844 .5159912 .5839844 .54599 .60098269 .54599 .63897708 .54599 .68107607 .5039978 .70410159 .45999146 .70410159 .4169922 .70410159 .375 .6720276 .35499574 .63298037 .33699037 .5979767 .32699586 .5619354 .3039856 .43066407H.23699951C.21798706 .43066407 .20799256 .43066407 .20799256 .4126587 .20799256 .4016571 .21398926 .4016571 .23399353 .4016571H.2979889C.27999879 .30871583 .23899842 .082839969 .21598816-.024108887 .19898987-.111068729 .18399048-.18411255 .13398743-.18411255 .1309967-.18411255 .101989749-.18411255 .083999637-.16506958 .1349945-.16107178 .1349945-.11706543 .1349945-.11607361 .1349945-.096069339 .11999512-.08407593 .100997928-.08407593 .08099365-.08407593 .050994874-.10107422 .050994874-.1390686 .050994874-.18209839 .09498596-.20410156 .13398743-.20410156 .23599243-.20410156 .27799989-.021102906 .2889862 .028869629 .30699159 .1058197 .35598756 .37167359 .36099244 .4016571H.44599916Z"/>
<path id="font_6_1" d="M.13999939 .5618439C.15299988 .55784609 .19299317 .54785159 .23498535 .54785159 .3600006 .54785159 .43598939 .6358948 .43598939 .6510315 .43598939 .6620331 .42900086 .66503909 .42399598 .66503909 .42199708 .66503909 .41999818 .66503909 .41099549 .6600342 .37199403 .6450348 .32598878 .632843 .27198792 .632843 .21299744 .632843 .1639862 .6480255 .1329956 .6600342 .12298584 .66503909 .12098694 .66503909 .11999512 .66503909 .10699463 .66503909 .10699463 .6540375 .10699463 .6358948V.34292604C.10699463 .32492066 .10699463 .312912 .12298584 .312912 .1309967 .312912 .13398743 .3169098 .13899231 .32492066 .15098572 .33992005 .18899536 .39093019 .27398683 .39093019 .32998658 .39093019 .35699464 .34492494 .3659973 .32591249 .3829956 .28990174 .3849945 .24389649 .3849945 .20487976 .3849945 .1678772 .38398744 .11387634 .35598756 .069732669 .33699037 .039611818 .29699708 .008514404 .24398804 .008514404 .1789856 .008514404 .114990238 .0496521 .09199524 .11488342 .09498596 .11387634 .100997928 .11387634 .101989749 .11387634 .12998963 .11387634 .1519928 .13188172 .1519928 .16288758 .1519928 .19989014 .12298584 .21289063 .102996829 .21289063 .084991458 .21289063 .052993776 .20288086 .052993776 .15988159 .052993776 .069732669 .1309967-.021484375 .24598694-.021484375 .37098695-.021484375 .47698976 .07574463 .47698976 .19989014 .47698976 .31591798 .3929901 .4189453 .2749939 .4189453 .22499085 .4189453 .17799378 .40293885 .13999939 .368927V.5618439Z"/>
<path id="font_2_1" d="M.32499696-.24298096C.32499696-.23999024 .32499696-.23799134 .30799867-.22097779 .20799256-.11997986 .1519928 .045013429 .1519928 .24900818 .1519928 .44299317 .19898987 .60998538 .31498719 .7279968 .32499696 .7369995 .32499696 .7389984 .32499696 .74198916 .32499696 .74798586 .31999208 .75 .31599427 .75 .30299378 .75 .22099304 .6779938 .17199707 .5799866 .12098694 .47898866 .09799194 .37199403 .09799194 .24900818 .09799194 .16000366 .11199951 .041015626 .1639862-.06599426 .22299195-.18598938 .30499269-.25097657 .31599427-.25097657 .31999208-.25097657 .32499696-.24897766 .32499696-.24298096Z"/>
<path id="font_2_2" d="M.28199769 .24900818C.28199769 .32499696 .27198792 .44898988 .21598816 .5649872 .15699768 .68499758 .07499695 .75 .06399536 .75 .05999756 .75 .054992677 .74798586 .054992677 .74198916 .054992677 .7389984 .054992677 .7369995 .07199097 .71998599 .17199707 .61898806 .22799683 .45399476 .22799683 .25 .22799683 .056015016 .18099976-.11099243 .06498718-.22898865 .054992677-.23799134 .054992677-.23999024 .054992677-.24298096 .054992677-.24897766 .05999756-.25097657 .06399536-.25097657 .07699585-.25097657 .15899658-.1789856 .20799256-.08099365 .25898744 .021011353 .28199769 .12901306 .28199769 .24900818Z"/>
</defs>
<path transform="matrix(1,0,0,-1,-137.309,365.82603)" stroke-width=".3985" stroke-linecap="butt" stroke-miterlimit="10" stroke-linejoin="miter" fill="none" stroke="#cbcbcb" d="M145.70183 203.23436V364.6312M194.26912 203.23436V364.6312M291.40367 203.23436V364.6312M339.97096 203.23436V364.6312"/>
<path transform="matrix(1,0,0,-1,-137.309,365.82603)" stroke-width=".3985" stroke-linecap="butt" stroke-miterlimit="10" stroke-linejoin="miter" fill="none" stroke="#cbcbcb" d="M145.70183 239.10033H339.97096M145.70183 257.03334H339.97096M145.70183 274.9663H339.97096M145.70183 292.8993H339.97096M145.70183 310.83226H339.97096M145.70183 328.76524H339.97096M145.70183 346.69825H339.97096"/>
<path transform="matrix(1,0,0,-1,-137.309,365.82603)" stroke-width="1.19553" stroke-linecap="butt" stroke-miterlimit="10" stroke-linejoin="miter" fill="none" stroke="#929292" d="M145.70183 219.04203V223.29267M194.26912 219.04203V223.29267M291.40367 219.04203V223.29267M339.97096 219.04203V223.29267"/>
<path transform="matrix(1,0,0,-1,-137.309,365.82603)" stroke-width="1.19553" stroke-linecap="butt" stroke-miterlimit="10" stroke-linejoin="miter" fill="none" stroke="#929292" d="M240.71051 239.10033H244.96227M240.71051 257.03334H244.96227M240.71051 274.9663H244.96227M240.71051 292.8993H244.96227M240.71051 310.83226H244.96227M240.71051 328.76524H244.96227M240.71051 346.69825H244.96227"/>
<path transform="matrix(1,0,0,-1,-137.309,365.82603)" stroke-width=".3985" stroke-linecap="butt" stroke-miterlimit="10" stroke-linejoin="miter" fill="none" stroke="#000000" d="M145.70183 221.16735H337.97846"/>
<path transform="matrix(1,0,0,-1,200.66945,144.65868)" d="M1.99252 0-1.19551 1.59401 0 0-1.19551-1.59401"/>
<path transform="matrix(1,0,0,-1,-137.309,365.82603)" stroke-width=".3985" stroke-linecap="butt" stroke-miterlimit="10" stroke-linejoin="miter" fill="none" stroke="#000000" d="M242.8364 203.23436V362.6387"/>
<path transform="matrix(0,-1,-1,-0,105.52739,3.187317)" d="M1.99252 0-1.19551 1.59401 0 0-1.19551-1.59401"/>
<use data-text="&#x2212;" xlink:href="#font_1_1" transform="matrix(11.9552,0,0,-11.9552,.81700137,158.67201)"/>
<use data-text="2" xlink:href="#font_2_4" transform="matrix(11.9552,0,0,-11.9552,10.114998,158.67201)"/>
<use data-text="&#x2212;" xlink:href="#font_1_1" transform="matrix(11.9552,0,0,-11.9552,49.383996,158.67201)"/>
<use data-text="1" xlink:href="#font_2_3" transform="matrix(11.9552,0,0,-11.9552,58.68199,158.67201)"/>
<use data-text="1" xlink:href="#font_2_3" transform="matrix(11.9552,0,0,-11.9552,151.168,158.67201)"/>
<use data-text="2" xlink:href="#font_2_4" transform="matrix(11.9552,0,0,-11.9552,199.73502,158.67201)"/>
<use data-text="1" xlink:href="#font_2_3" transform="matrix(11.9552,0,0,-11.9552,93.36498,130.57802)"/>
<use data-text="2" xlink:href="#font_2_4" transform="matrix(11.9552,0,0,-11.9552,93.36498,112.64502)"/>
<use data-text="3" xlink:href="#font_2_5" transform="matrix(11.9552,0,0,-11.9552,93.36498,94.712009)"/>
<use data-text="4" xlink:href="#font_2_6" transform="matrix(11.9552,0,0,-11.9552,93.36498,76.77902)"/>
<use data-text="5" xlink:href="#font_2_7" transform="matrix(11.9552,0,0,-11.9552,93.36498,58.84601)"/>
<use data-text="6" xlink:href="#font_2_8" transform="matrix(11.9552,0,0,-11.9552,93.36498,40.913026)"/>
<use data-text="7" xlink:href="#font_2_9" transform="matrix(11.9552,0,0,-11.9552,93.36498,22.980011)"/>
<g clip-path="url(#clip_3)">
<path transform="matrix(1,0,0,-1,-137.309,365.82603)" stroke-width=".3985" stroke-linecap="butt" stroke-miterlimit="10" stroke-linejoin="miter" fill="none" stroke="#0000ff" d="M0 221.28829 4.90527 221.30115 9.81056 221.31539 14.71584 221.33098 19.62112 221.3485 24.52641 221.36765 29.43169 221.38899 34.33698 221.41252 39.24226 221.43852 44.14754 221.46726 49.05283 221.49927 53.95811 221.53429 58.86339 221.57343 63.76868 221.61666 68.67395 221.66426 73.57924 221.71707 78.48453 221.77564 83.3898 221.84021 88.29509 221.91164 93.20038 221.9907 98.10565 222.07828 103.01094 222.17514 107.91623 222.28214 112.8215 222.40062 117.72679 222.5317 122.63206 222.67671 127.53735 222.83707 132.44264 223.01467 137.34792 223.21031 142.2532 223.4273 147.1585 223.66756 152.06377 223.93326 156.96906 224.22742 161.87435 224.55387 166.77962 224.91423 171.6849 225.31266 176.59018 225.7521 181.49547 226.24 186.40076 226.77797 191.30603 227.37532 196.21132 228.03533 201.11663 228.76538 206.0219 229.5726 210.92719 230.46604 215.83249 231.45413 220.73777 232.54676 225.64307 233.75733 230.54834 235.09375 235.45365 236.57358 240.35894 238.21129 245.26422 240.0192 250.16951 242.02248 255.07482 244.23867 259.9801 246.69043 264.88539 249.40244 269.79069 252.40312 274.69596 255.72315 279.60127 259.39537 284.50654 263.45747 289.41184 267.9511 294.3171 272.9236 299.2224 278.42314 304.1277 284.50798 309.033 291.2394 313.93827 298.68476 318.84355 306.92448 323.74885 316.0368 328.6541 326.1189 333.5594 337.27177 338.4647 349.61027 343.36997 363.26249 348.27525 378.36308 353.18055 395.06416 358.08583 413.54878 362.9911 433.99595 367.8964 456.61137 372.80168 481.6296 377.70695 509.30567 382.61225 539.926 387.51753 573.807 392.4228 611.28146 397.3281 652.73178 402.23338 698.5901 407.13865 749.33309 412.0439 805.4669 416.94923 867.57077 421.8545 936.24508 426.75978 1012.2342 431.66508 1096.3202 436.57035 1189.3063 441.47563 1292.2075 446.38093 1406.0175 451.2862 1531.934 456.19148 1671.2304 461.09678 1825.3318 466.00205 1995.8388 470.90733 2184.4525 475.8126 2393.067 480.7179 2623.8465 485.62318 2879.23"/>
<path transform="matrix(1,0,0,-1,-137.309,365.82603)" stroke-width=".3985" stroke-linecap="butt" stroke-dasharray="2.98883,2.98883" stroke-miterlimit="10" stroke-linejoin="miter" fill="none" stroke="#ff0000" d="M0 0 4.90527 23.73952 9.81056 45.35947 14.71584 65.02676 19.62112 82.85548 24.52641 99.01695 29.43169 113.61787 34.33698 126.77893 39.24226 138.60573 44.14754 149.20938 49.05283 158.69414 53.95811 167.15003 58.86339 174.66407 63.76868 181.326 68.67395 187.21218 73.57924 192.39319 78.48453 196.9391 83.3898 200.91448 88.29509 204.38309 93.20038 207.3928 98.10565 209.99672 103.01094 212.24819 107.91623 214.1817 112.8215 215.84212 117.72679 217.26476 122.63206 218.48928 127.53735 219.53784 132.44264 220.44385 137.34792 221.22974 142.2532 221.9223 147.1585 222.53963 152.06377 223.10085 156.96906 223.62404 161.87435 224.12398 166.77962 224.61434 171.6849 225.10852 176.59018 225.61775 181.49547 226.15354 186.40076 226.72544 191.30603 227.34329 196.21132 228.01673 201.11663 228.75444 206.0219 229.56659 210.92719 230.46193 215.83249 231.45111 220.73777 232.54457 225.64307 233.75376 230.54834 235.09157 235.45365 236.57138 240.35894 238.20854 245.26422 240.01947 250.16951 242.02303 255.07482 244.23947 259.9801 246.69153 264.88539 249.40407 269.79069 252.4045 274.69596 255.72287 279.60127 259.39234 284.50654 263.44926 289.41184 267.93305 294.3171 272.8861 299.2224 278.35557 304.1277 284.39195 309.033 291.0495 313.93827 298.38676 318.84355 306.4664 323.74885 315.35685 328.6541 325.13026 333.5594 335.86363 338.4647 347.64118 343.36997 360.54859 348.27525 374.67967 353.18055 390.1343 358.08583 407.0201 362.9911 425.44563 367.8964 445.52638 372.80168 467.39125 377.70695 491.16416 382.61225 516.99429 387.51753 545.0118 392.4228 575.37826 397.3281 608.2468 402.23338 643.794 407.13865 682.18399 412.0439 723.6042 416.94923 768.247 421.8545 816.3092 426.75978 867.9951 431.66508 923.5273 436.57035 983.1303 441.47563 1047.0365 446.38093 1115.4884 451.2862 1188.7465 456.19148 1267.0634 461.09678 1350.7225 466.00205 1440.002 470.90733 1535.1882 475.8126 1636.5798 480.7179 1744.5271 485.62318 1859.3126"/>
</g>
<use data-text="x" xlink:href="#font_4_3" transform="matrix(11.9552,0,0,-11.9552,191.87302,140.44303)"/>
<use data-text="y" xlink:href="#font_4_4" transform="matrix(11.9552,0,0,-11.9552,109.71099,10.47403)"/>
<path transform="matrix(1,0,0,-1,-137.309,365.82603)" d="M145.9011 336.1387H215.43555V364.43196H145.9011Z" fill="#f5f5f5"/>
<path transform="matrix(1,0,0,-1,8.790993,8.169037)" stroke-width=".3985" stroke-linecap="butt" stroke-miterlimit="10" stroke-linejoin="miter" fill="none" stroke="#0000ff" d="M0 0H8.50412 17.00826"/>
<use data-text="y" xlink:href="#font_4_4" transform="matrix(11.9552,0,0,-11.9552,35.774995,11.157043)"/>
<use data-text="=" xlink:href="#font_2_10" transform="matrix(11.9552,0,0,-11.9552,45.231996,11.157043)"/>
<use data-text="e" xlink:href="#font_4_1" transform="matrix(11.9552,0,0,-11.9552,57.657995,11.157043)"/>
<use data-text="x" xlink:href="#font_5_1" transform="matrix(7.9701,0,0,-7.9701,63.082994,6.818054)"/>
<path transform="matrix(1,0,0,-1,8.790993,22.315033)" stroke-width=".3985" stroke-linecap="butt" stroke-dasharray="2.98883,2.98883" stroke-miterlimit="10" stroke-linejoin="miter" fill="none" stroke="#ff0000" d="M0 0H8.50412 17.00826"/>
<use data-text="y" xlink:href="#font_4_4" transform="matrix(11.9552,0,0,-11.9552,27.990998,25.902039)"/>
<use data-text="=" xlink:href="#font_2_10" transform="matrix(11.9552,0,0,-11.9552,37.447999,25.902039)"/>
<use data-text="f" xlink:href="#font_4_2" transform="matrix(11.9552,0,0,-11.9552,49.873998,25.902039)"/>
<use data-text="5" xlink:href="#font_6_1" transform="matrix(7.9701,0,0,-7.9701,55.643999,27.695038)"/>
<use data-text="(" xlink:href="#font_2_1" transform="matrix(11.9552,0,0,-11.9552,60.376,25.902039)"/>
<use data-text="x" xlink:href="#font_4_3" transform="matrix(11.9552,0,0,-11.9552,64.929,25.902039)"/>
<use data-text=")" xlink:href="#font_2_2" transform="matrix(11.9552,0,0,-11.9552,71.58099,25.902039)"/>
</svg>
