<svg xmlns="http://www.w3.org/2000/svg" xmlns:xlink="http://www.w3.org/1999/xlink" version="1.1" width="189" height="119" viewBox="0 0 189 119">
<defs>
<path id="font_1_1" d="M.44198609 .69781497C.43499757 .7108154 .43299867 .7158203 .41600038 .7158203 .39898683 .7158203 .39698792 .7108154 .3899994 .69781497L.051986696 .019989014C.04699707 .010986328 .04699707 .008987427 .04699707 .0079956059 .04699707 0 .052993776 0 .068984989 0H.7630005C.7789917 0 .7849884 0 .7849884 .0079956059 .7849884 .008987427 .7849884 .010986328 .7799988 .019989014L.44198609 .69781497M.38398744 .61582949 .6529999 .07598877H.11399841L.38398744 .61582949Z"/>
<path id="font_2_1" d="M.2869873 .68333438C.2869873 .6843262 .2869873 .69433596 .27398683 .69433596 .25099183 .69433596 .17799378 .6863251 .1519928 .6843262 .14399719 .68333438 .1329956 .6823273 .1329956 .6643219 .1329956 .6523285 .14199829 .6523285 .15699768 .6523285 .20498657 .6523285 .20698548 .6453247 .20698548 .6353302L.20399475 .6153412 .05899048 .039260866C.054992677 .025253296 .054992677 .023254395 .054992677 .01725769 .054992677-.0057525637 .07499695-.0107421879 .083999637-.0107421879 .099990848-.0107421879 .115997318 .0012512207 .12098694 .015258789L.13999939 .091278079 .1619873 .18130493C.16799927 .2033081 .17399597 .22531128 .1789856 .24832154 .18099976 .25431825 .18899536 .28733827 .18998719 .29333497 .19299317 .30233766 .22399903 .35835267 .2579956 .38536073 .27999879 .4013672 .31098939 .42037965 .35398866 .42037965 .39698792 .42037965 .4079895 .3863678 .4079895 .35035707 .4079895 .29634095 .36999513 .18730164 .34599305 .12628174 .33799745 .103271488 .33299256 .091278079 .33299256 .0712738 .33299256 .024261475 .36799623-.0107421879 .4149933-.0107421879 .5089874-.0107421879 .54599 .13528443 .54599 .14329529 .54599 .1532898 .5369873 .1532898 .5339966 .1532898 .5239868 .1532898 .5239868 .15029907 .5189972 .13528443 .5039978 .08227539 .47200013 .011245728 .4169922 .011245728 .3999939 .011245728 .3929901 .021255494 .3929901 .044265748 .3929901 .0692749 .4019928 .09327698 .41099549 .11528015 .4269867 .15829468 .47200013 .2773285 .47200013 .3353424 .47200013 .4003601 .43199159 .4423828 .35699464 .4423828 .2939911 .4423828 .24598694 .41137696 .20899964 .36535646L.2869873 .68333438Z"/>
<path id="font_1_5" d="M.68699648 .32714845C.70199587 .32714845 .72099307 .32714845 .72099307 .34713746 .72099307 .36714173 .70199587 .36714173 .6879883 .36714173H.08898926C.07499695 .36714173 .055999757 .36714173 .055999757 .34713746 .055999757 .32714845 .07499695 .32714845 .08999634 .32714845H.68699648M.6879883 .13284302C.70199587 .13284302 .72099307 .13284302 .72099307 .15284729 .72099307 .17285156 .70199587 .17285156 .68699648 .17285156H.08999634C.07499695 .17285156 .055999757 .17285156 .055999757 .15284729 .055999757 .13284302 .07499695 .13284302 .08898926 .13284302H.6879883Z"/>
<path id="font_1_4" d="M.44898988 .20022583C.44898988 .3193512 .36698915 .41944886 .25898744 .41944886 .21099854 .41944886 .16799927 .40345765 .13198853 .36842347V.5637665C.1519928 .5577698 .18499756 .55078127 .21699524 .55078127 .33999635 .55078127 .4099884 .6417694 .4099884 .6547699 .4099884 .6607666 .40699769 .6657715 .3999939 .6657715 .39898683 .6657715 .39698792 .6657715 .3919983 .66278079 .37199403 .6537781 .32299806 .6337738 .2559967 .6337738 .21598816 .6337738 .16999817 .6407776 .12298584 .6617737 .114990238 .66477969 .11299133 .66477969 .11099243 .66477969 .100997928 .66477969 .100997928 .6567688 .100997928 .6407776V.34439088C.100997928 .32637025 .100997928 .31835938 .114990238 .31835938 .12199402 .31835938 .12399292 .32136537 .12799073 .32736207 .13899231 .3433838 .17599488 .39746095 .25698854 .39746095 .30899049 .39746095 .33399964 .35139466 .34199525 .33337403 .35798646 .29632569 .3600006 .25727845 .3600006 .20722962 .3600006 .17222595 .3600006 .11222839 .33599855 .07035828 .31199647 .031463624 .2749939 .0055389406 .22898865 .0055389406 .1559906 .0055389406 .09899902 .058380128 .08198547 .11723328 .084991458 .1162262 .08799744 .115234378 .09899902 .115234378 .13198853 .115234378 .14898682 .14022827 .14898682 .16423035 .14898682 .18823242 .13198853 .21322632 .09899902 .21322632 .084991458 .21322632 .049987794 .20622254 .049987794 .16023255 .049987794 .07434082 .11898804-.022460938 .23098755-.022460938 .34700013-.022460938 .44898988 .073349 .44898988 .20022583Z"/>
<path id="font_3_75" d="M.8129883 0V.0309906C.7609863 .0309906 .73599246 .0309906 .7350006 .061019899V.25221253C.7350006 .3383026 .7350006 .36932374 .70399478 .405365 .6899872 .42237855 .6569977 .4423828 .598999 .4423828 .5149994 .4423828 .47099305 .38233949 .45399476 .34429933 .43998719 .43138124 .3659973 .4423828 .32099916 .4423828 .24798584 .4423828 .20098877 .39935304 .17298889 .33729554V.4423828L.03199768 .43066407V.3996582C.101989749 .3996582 .10998535 .39266969 .10998535 .34370423V.07595825C.10998535 .0309906 .09899902 .0309906 .03199768 .0309906V0L.14498902 .0029907227 .25698854 0V.0309906C.18998719 .0309906 .1789856 .0309906 .1789856 .07595825V.25978089C.1789856 .36431886 .25 .42037965 .31399537 .42037965 .3769989 .42037965 .3880005 .36631776 .3880005 .30926515V.076034549C.3880005 .0309906 .3769989 .0309906 .30999757 .0309906V0L.4229889 .0029907227 .5349884 0V.0309906C.46798707 .0309906 .45700074 .0309906 .45700074 .076034549V.2602234C.45700074 .36431886 .5279999 .42037965 .59199526 .42037965 .6549988 .42037965 .66600039 .36631776 .66600039 .30926515V.076034549C.66600039 .0309906 .6549988 .0309906 .58799746 .0309906V0L.70098879 .0029907227 .8129883 0Z"/>
<path id="font_4_1" d="M.33299256 .66430667C.33399964 .66830447 .33599855 .67430117 .33599855 .67930606 .33599855 .6953125 .31599427 .6943054 .3039856 .69329836L.19198609 .6843109C.1749878 .68330386 .1619873 .682312 .1619873 .65930178 .1619873 .64331057 .1749878 .64331057 .18998719 .64331057 .21998596 .64331057 .22698975 .64131167 .23999024 .63630679 .23999024 .62431338 .23999024 .62231448 .23599243 .60632327L.09599304 .04724121C.09199524 .031234742 .09199524 .026229859 .09199524 .024230957 .09199524-.00077819827 .11199951-.009765625 .1269989-.009765625 .13699341-.009765625 .15499878-.0057678224 .16799927 .01322937 .17098999 .020233155 .17999268 .053237916 .18499756 .07424927 .18998719 .09326172 .20098877 .13928223 .20698548 .16429138 .21398926 .19030762 .21899414 .20831299 .22399903 .23132324 .22799683 .24632263 .23298645 .264328 .26098634 .3053589 .2939911 .3533783 .34599305 .4084015 .4229889 .4084015 .48599244 .4084015 .48599244 .35638429 .48599244 .33836366 .48599244 .27934266 .44400025 .17329407 .4249878 .12727356 .4189911 .11026001 .4119873 .09425354 .4119873 .07725525 .4119873 .026229859 .45799256-.009765625 .5130005-.009765625 .6139984-.009765625 .6639862 .12226868 .6639862 .14428711 .6639862 .14628601 .6629944 .15829468 .644989 .15829468 .6309967 .15829468 .6299896 .1532898 .6239929 .13427735 .60798647 .08226013 .5669861 .023223877 .5159912 .023223877 .49699403 .023223877 .4889984 .038238527 .4889984 .059249879 .4889984 .07925415 .49598695 .09625244 .5049896 .117263797 .519989 .15628052 .5649872 .2693329 .5649872 .32536317 .5649872 .4044037 .5079956 .44140626 .4269867 .44140626 .34799195 .44140626 .29499818 .39839173 .25498963 .3533783L.33299256 .66430667Z"/>
<path id="font_5_1" d="M.397995 .63591006C.397995 .6660156 .394989 .6660156 .3619995 .6660156 .29100038 .6016083 .17999268 .6016083 .1599884 .6016083H.14299011V.5576172H.1599884C.18299866 .5576172 .24798584 .5606079 .30599977 .58561709V.08596802C.30599977 .054977418 .30599977 .04399109 .19999695 .04399109H.1499939V0C.20498657 .0039978029 .2939911 .0039978029 .35198976 .0039978029 .4099884 .0039978029 .49899293 .0039978029 .55400088 0V.04399109H.5039978C.397995 .04399109 .397995 .054977418 .397995 .08596802V.63591006Z"/>
<path id="font_6_4" d="M.81799319 .3388672C.83200076 .3388672 .8549957 .3388672 .8549957 .3648529 .8549957 .39085389 .8279877 .39085389 .8129883 .39085389H.12098694C.10598755 .39085389 .07899475 .39085389 .07899475 .3648529 .07899475 .3388672 .101989749 .3388672 .115997318 .3388672H.81799319M.8129883 .10913086C.8279877 .10913086 .8549957 .10913086 .8549957 .13513184 .8549957 .16113281 .83200076 .16113281 .81799319 .16113281H.115997318C.101989749 .16113281 .07899475 .16113281 .07899475 .13513184 .07899475 .10913086 .10598755 .10913086 .12098694 .10913086H.8129883Z"/>
<path id="font_6_1" d="M.5499878 .31877137C.5499878 .39183045 .5499878 .66503909 .30499269 .66503909 .05999756 .66503909 .05999756 .39183045 .05999756 .31877137 .05999756 .2467041 .05999756-.021484375 .30499269-.021484375 .5499878-.021484375 .5499878 .2467041 .5499878 .31877137M.30499269 .010513306C.2630005 .010513306 .19499207 .030517579 .17098999 .113601688 .15499878 .17164612 .15499878 .2697296 .15499878 .33177186 .15499878 .39883424 .15499878 .4758911 .16899109 .52993777 .19400025 .6200104 .269989 .6330261 .30499269 .6330261 .35099793 .6330261 .4169922 .6110077 .43899537 .5349426 .45399476 .48190309 .45498658 .408844 .45498658 .33177186 .45498658 .26771546 .45498658 .16664124 .43798829 .1105957 .4099884 .023513794 .33799745 .010513306 .30499269 .010513306Z"/>
<path id="font_7_75" d="M.94999697 0V.038986207C.8809967 .038986207 .87098696 .038986207 .87098696 .08204651V.3022766C.87098696 .40438844 .8109894 .44140626 .71299746 .44140626 .6199951 .44140626 .5649872 .38838197 .54299929 .3503418 .519989 .44140626 .41799928 .44140626 .3899994 .44140626 .29899598 .44140626 .24299622 .39138795 .21899414 .34933473H.21798706V.44140626L.06298828 .43058778V.39160157C.1329956 .39160157 .14199829 .38458253 .14199829 .335495V.08206177C.14199829 .038986207 .13198853 .038986207 .06298828 .038986207V0C.069992069 .0009918213 .13798523 .0039978029 .18299866 .0039978029 .22799683 .0039978029 .2939911 .0009918213 .3039856 0V.038986207C.23498535 .038986207 .22499085 .038986207 .22499085 .08206177V.25836183C.22499085 .36836244 .31999208 .4093933 .3809967 .4093933 .44999696 .4093933 .46499635 .36634828 .46499635 .30429078V.08204651C.46499635 .038986207 .45498658 .038986207 .38598634 .038986207V0C.3929901 .0009918213 .46099855 .0039978029 .5059967 .0039978029 .5509949 .0039978029 .61698916 .0009918213 .6269989 0V.038986207C.55799868 .038986207 .5479889 .038986207 .5479889 .08204651V.25823976C.5479889 .36836244 .6429901 .4093933 .70399478 .4093933 .772995 .4093933 .7879944 .36634828 .7879944 .30429078V.08204651C.7879944 .038986207 .7779999 .038986207 .70899966 .038986207V0C.71598818 .0009918213 .7839966 .0039978029 .82899478 .0039978029 .8739929 .0039978029 .9399872 .0009918213 .94999697 0Z"/>
<path id="font_5_2" d="M.58898928 .19296265H.5469971C.5439911 .17396546 .5339966 .11198425 .5179901 .101989749 .5099945 .09599304 .42599488 .09599304 .41099549 .09599304H.21499634C.2809906 .14497376 .35499574 .20095825 .4149933 .24093628 .5049896 .30291749 .58898928 .36090089 .58898928 .46687318 .58898928 .59495547 .46798707 .6660156 .32499696 .6660156 .18998719 .6660156 .09098816 .58795168 .09098816 .48986817 .09098816 .4378662 .1349945 .42886354 .14898682 .42886354 .17599488 .42886354 .20799256 .4468689 .20799256 .48786927 .20799256 .52386477 .18199158 .543869 .15098572 .546875 .1789856 .59194949 .23699951 .6220093 .3039856 .6220093 .40098573 .6220093 .48199464 .5639038 .48199464 .4658661 .48199464 .3818817 .42399598 .31791688 .34700013 .2529297L.102996829 .04598999C.09298706 .036987306 .09199524 .036987306 .09098816 .02999878V0H.55599978L.58898928 .19296265Z"/>
<path id="font_6_3" d="M.16999817 .5549774C.20298767 .54599 .23799134 .5419922 .27198792 .5419922 .2939911 .5419922 .34999085 .5419922 .41299439 .5769806 .42999269 .58699038 .49198915 .6279907 .49198915 .6490326 .49198915 .6620331 .48199464 .66503909 .47799684 .66503909 .47499085 .66503909 .47399903 .66503909 .46299745 .661026 .4269867 .6470337 .37599183 .63298037 .31098939 .63298037 .2619934 .63298037 .20799256 .64201357 .16299439 .6590271 .15299988 .6630249 .14898682 .66503909 .14498902 .66503909 .1309967 .66503909 .1309967 .6540375 .1309967 .6380005V.33787538C.1309967 .32086183 .1309967 .30885316 .14898682 .30885316 .1579895 .30885316 .16099549 .31285096 .16799927 .32086183 .19299317 .35289 .23699951 .38693238 .31498719 .38693238 .43798829 .38693238 .43798829 .23677063 .43798829 .20472718 .43798829 .16567993 .43499757 .10961914 .4019928 .068573 .37098695 .030532837 .32499696 .014511108 .28199769 .014511108 .21299744 .014511108 .14399719 .05255127 .11999512 .11061096 .16899109 .11161804 .1749878 .15066529 .1749878 .16267395 .1749878 .18971253 .1539917 .21372986 .12298584 .21372986 .11399841 .21372986 .07199097 .20872498 .07199097 .15867615 .07199097 .0665741 .15899658-.021484375 .2849884-.021484375 .42199708-.021484375 .5379944 .07557678 .5379944 .20072937 .5379944 .31484986 .44599916 .4189453 .31698609 .4189453 .2519989 .4189453 .20199585 .39793397 .16999817 .37091065V.5549774Z"/>
<path id="font_5_3" d="M.32998658 .3310547C.42199708 .3310547 .48298646 .2737732 .48298646 .17437744 .48298646 .07237244 .41999818 .01852417 .33099366 .01852417 .31999208 .01852417 .20098877 .01852417 .1499939 .070373538 .19099427 .07637024 .20298767 .1073761 .20298767 .13137818 .20298767 .16838074 .1749878 .19238281 .14199829 .19238281 .10998535 .19238281 .07998657 .17137146 .07998657 .12937927 .07998657 .025512696 .19799805-.022460938 .33399964-.022460938 .49798585-.022460938 .59999087 .07637024 .59999087 .17337036 .59999087 .25567628 .5269928 .3260193 .41299439 .35205079 .5329895 .3909912 .5649872 .46684266 .5649872 .5228424 .5649872 .60491946 .46299745 .6660156 .33699037 .6660156 .21398926 .6660156 .114990238 .61395266 .114990238 .5238342 .114990238 .47683717 .15299988 .46484376 .17199707 .46484376 .20098877 .46484376 .22898865 .48583985 .22898865 .5218353 .22898865 .5448303 .21699524 .5728302 .18099976 .57884219 .22399903 .625 .31298829 .628006 .33399964 .628006 .40699769 .628006 .45899964 .5908661 .45899964 .5228424 .45899964 .46484376 .42099 .37402345 .31599427 .368042 .28799439 .3670349 .28399659 .3660431 .2579956 .365036 .24699402 .3640442 .23599243 .36305238 .23599243 .34805299 .23599243 .3310547 .24598694 .3310547 .2639923 .3310547H.32998658Z"/>
<path id="font_6_2" d="M.35899354 .6349335C.35899354 .66503909 .35499574 .66503909 .32499696 .66503909 .25898744 .60058596 .15699768 .60058596 .12098694 .60058596V.5615845C.14698792 .5615845 .21299744 .5615845 .272995 .58958438V.08496094C.272995 .051986696 .272995 .038986207 .16999817 .038986207H.1269989V0C.18199158 .0039978029 .2599945 .0039978029 .31599427 .0039978029 .37199403 .0039978029 .44999696 .0039978029 .5049896 0V.038986207H.46199037C.35899354 .038986207 .35899354 .051986696 .35899354 .08496094V.6349335Z"/>
<path id="font_5_4" d="M.61698916 .1630249V.20703125H.49198915V.64675906C.49198915 .67074587 .4909973 .6767578 .46499635 .6767578 .44499208 .6767578 .44400025 .67575076 .43299867 .66174319L.06298828 .20703125V.1630249H.3959961V.085006717C.3959961 .054000856 .3959961 .04399109 .30899049 .04399109H.27398683V0C.32099916 .0019989014 .38598634 .0039978029 .44400025 .0039978029 .5019989 .0039978029 .56599429 .0019989014 .6139984 0V.04399109H.57899478C.49198915 .04399109 .49198915 .054000856 .49198915 .085006717V.1630249H.61698916M.4039917 .5688019V.20703125H.10998535L.4039917 .5688019Z"/>
<path id="font_1_3" d="M.1269989 .07699585 .23298645 .18003845C.3889923 .31811524 .44898988 .3721466 .44898988 .47216798 .44898988 .5860901 .35899354 .6660156 .23699951 .6660156 .12399292 .6660156 .049987794 .57411196 .049987794 .48516847 .049987794 .4291687 .099990848 .4291687 .102996829 .4291687 .11999512 .4291687 .15499878 .44117738 .15499878 .48217774 .15499878 .5081787 .13699341 .5341797 .101989749 .5341797 .09399414 .5341797 .09199524 .5341797 .08898926 .5331726 .11199951 .59806826 .1659851 .63500979 .22399903 .63500979 .31498719 .63500979 .35798646 .5541382 .35798646 .47216798 .35798646 .39215089 .30799867 .31311036 .25299073 .25108338L.06098938 .036987306C.049987794 .025985718 .049987794 .023986817 .049987794 0H.42099L.44898988 .17404175H.42399598C.4189911 .14402771 .4119873 .1000061 .4019928 .084991458 .394989 .07699585 .32899476 .07699585 .30699159 .07699585H.1269989Z"/>
<path id="font_1_2" d="M.45999146 .31976319C.45999146 .39982606 .45498658 .47988893 .41999818 .5539398 .37399293 .65000918 .2919922 .6660156 .25 .6660156 .18998719 .6660156 .116989139 .64001467 .07598877 .54693606 .04399109 .47789 .038986207 .39982606 .038986207 .31976319 .038986207 .24472046 .042999269 .15464783 .083999637 .07859802 .1269989-.0024719239 .19999695-.022460938 .24899292-.022460938 .30299378-.022460938 .3789978-.0014648438 .4229889 .09359741 .45498658 .16265869 .45999146 .2407074 .45999146 .31976319M.24899292-.00047302247C.20999146-.00047302247 .15098572 .024551392 .1329956 .12062073 .12199402 .18066406 .12199402 .2727356 .12199402 .3317871 .12199402 .39582826 .12199402 .46188355 .12998963 .5159149 .14898682 .63500979 .22399903 .64401248 .24899292 .64401248 .28199769 .64401248 .34799195 .6259918 .36698915 .52693179 .3769989 .47088624 .3769989 .39482118 .3769989 .3317871 .3769989 .25672914 .3769989 .18867493 .3659973 .12461853 .35099793 .029556275 .2939911-.00047302247 .24899292-.00047302247Z"/>
</defs>
<g>
<path transform="matrix(1.00006,0,0,-1.00006,75.38902,115.59181)" d="M0 0V28.3468H56.69362V0ZM56.69362 28.3468" fill="#0000ff" fill-opacity=".2"/>
<path transform="matrix(1.00006,0,0,-1.00006,75.38902,115.59181)" stroke-width=".3985" stroke-linecap="butt" stroke-miterlimit="10" stroke-linejoin="miter" fill="none" stroke="#000000" stroke-opacity=".2" d="M0 0V28.3468H56.69362V0ZM56.69362 28.3468"/>
</g>
<g>
<path transform="matrix(1.00006,0,0,-1.00006,75.38902,115.59181)" d="M0 28.3468V56.69362H56.69362V28.3468ZM56.69362 56.69362" fill="#0000ff" fill-opacity=".2"/>
<path transform="matrix(1.00006,0,0,-1.00006,75.38902,115.59181)" stroke-width=".3985" stroke-linecap="butt" stroke-miterlimit="10" stroke-linejoin="miter" fill="none" stroke="#000000" stroke-opacity=".2" d="M0 28.3468V56.69362H56.69362V28.3468ZM56.69362 56.69362"/>
</g>
<g>
<path transform="matrix(1.00006,0,0,-1.00006,75.38902,115.59181)" d="M0 56.69362V85.04042H56.69362V56.69362ZM56.69362 85.04042" fill="#0000ff" fill-opacity=".2"/>
<path transform="matrix(1.00006,0,0,-1.00006,75.38902,115.59181)" stroke-width=".3985" stroke-linecap="butt" stroke-miterlimit="10" stroke-linejoin="miter" fill="none" stroke="#000000" stroke-opacity=".2" d="M0 56.69362V85.04042H56.69362V56.69362ZM56.69362 85.04042"/>
</g>
<g>
<path transform="matrix(1.00006,0,0,-1.00006,75.38902,115.59181)" d="M0 85.04042V113.38724H56.69362V85.04042ZM56.69362 113.38724" fill="#0000ff" fill-opacity=".2"/>
<path transform="matrix(1.00006,0,0,-1.00006,75.38902,115.59181)" stroke-width=".3985" stroke-linecap="butt" stroke-miterlimit="10" stroke-linejoin="miter" fill="none" stroke="#000000" stroke-opacity=".2" d="M0 85.04042V113.38724H56.69362V85.04042ZM56.69362 113.38724"/>
</g>
<path transform="matrix(1.00006,0,0,-1.00006,75.38902,115.59181)" stroke-width=".3985" stroke-linecap="butt" stroke-miterlimit="10" stroke-linejoin="miter" fill="none" stroke="#000000" d="M0 0H56.69362V113.38724H0V0"/>
<path transform="matrix(1.00006,0,0,-1.00006,75.38902,115.59181)" stroke-width=".3985" stroke-linecap="butt" stroke-miterlimit="10" stroke-linejoin="miter" fill="none" stroke="#000000" d="M60.67873 28.3468C63.66759 29.40976 65.66011 31.89014 65.66011 35.43349V35.4335C65.66011 38.97687 67.65263 41.45724 70.6415 42.5202 67.65263 43.58315 65.66011 46.06355 65.66011 49.6069 65.66011 53.15025 63.66759 55.63066 60.67873 56.69362"/>
<use data-text="&#x2206;" xlink:href="#font_1_1" transform="matrix(9.963197,0,0,-9.963197,144.14115,76.52847)"/>
<use data-text="h" xlink:href="#font_2_1" transform="matrix(9.963197,0,0,-9.963197,152.44364,76.52847)"/>
<use data-text="=" xlink:href="#font_1_5" transform="matrix(9.963197,0,0,-9.963197,160.95116,76.52847)"/>
<use data-text="5" xlink:href="#font_1_4" transform="matrix(9.963197,0,0,-9.963197,171.46234,76.52847)"/>
<use data-text="m" xlink:href="#font_3_75" transform="matrix(9.963197,0,0,-9.963197,179.76728,76.52847)"/>
<path transform="matrix(1.00006,0,0,-1.00006,75.38902,115.59181)" stroke-width=".3985" stroke-linecap="butt" stroke-miterlimit="10" stroke-linejoin="miter" fill="none" stroke="#000000" d="M0 0V0"/>
<use data-text="h" xlink:href="#font_4_1" transform="matrix(5.9779589,0,0,-5.9779589,41.019964,117.0919)"/>
<use data-text="1" xlink:href="#font_5_1" transform="matrix(4.9815986,0,0,-4.9815986,45.35822,118.24397)"/>
<use data-text="=" xlink:href="#font_6_4" transform="matrix(5.9779589,0,0,-5.9779589,51.36858,117.0919)"/>
<use data-text="0" xlink:href="#font_6_1" transform="matrix(5.9779589,0,0,-5.9779589,59.074178,117.0919)"/>
<use data-text="m" xlink:href="#font_7_75" transform="matrix(5.9779589,0,0,-5.9779589,65.22641,117.0919)"/>
<path transform="matrix(1.00006,0,0,-1.00006,75.38902,115.59181)" stroke-width=".3985" stroke-linecap="butt" stroke-miterlimit="10" stroke-linejoin="miter" fill="none" stroke="#000000" d="M0 28.3468V28.3468"/>
<use data-text="h" xlink:href="#font_4_1" transform="matrix(5.9779589,0,0,-5.9779589,41.019964,88.7432)"/>
<use data-text="2" xlink:href="#font_5_2" transform="matrix(4.9815986,0,0,-4.9815986,45.35822,89.89527)"/>
<use data-text="=" xlink:href="#font_6_4" transform="matrix(5.9779589,0,0,-5.9779589,51.36858,88.7432)"/>
<use data-text="5" xlink:href="#font_6_3" transform="matrix(5.9779589,0,0,-5.9779589,59.074178,88.7432)"/>
<use data-text="m" xlink:href="#font_7_75" transform="matrix(5.9779589,0,0,-5.9779589,65.22641,88.7432)"/>
<path transform="matrix(1.00006,0,0,-1.00006,75.38902,115.59181)" stroke-width=".3985" stroke-linecap="butt" stroke-miterlimit="10" stroke-linejoin="miter" fill="none" stroke="#000000" d="M0 56.69362V56.69362"/>
<use data-text="h" xlink:href="#font_4_1" transform="matrix(5.9779589,0,0,-5.9779589,37.36674,60.3945)"/>
<use data-text="3" xlink:href="#font_5_3" transform="matrix(4.9815986,0,0,-4.9815986,41.704999,61.54657)"/>
<use data-text="=" xlink:href="#font_6_4" transform="matrix(5.9779589,0,0,-5.9779589,47.71536,60.3945)"/>
<use data-text="1" xlink:href="#font_6_2" transform="matrix(5.9779589,0,0,-5.9779589,55.420957,60.3945)"/>
<use data-text="0" xlink:href="#font_6_1" transform="matrix(5.9779589,0,0,-5.9779589,59.07349,60.3945)"/>
<use data-text="m" xlink:href="#font_7_75" transform="matrix(5.9779589,0,0,-5.9779589,65.22641,60.3945)"/>
<path transform="matrix(1.00006,0,0,-1.00006,75.38902,115.59181)" stroke-width=".3985" stroke-linecap="butt" stroke-miterlimit="10" stroke-linejoin="miter" fill="none" stroke="#000000" d="M0 85.04042V85.04042"/>
<use data-text="h" xlink:href="#font_4_1" transform="matrix(5.9779589,0,0,-5.9779589,37.36674,32.0468)"/>
<use data-text="4" xlink:href="#font_5_4" transform="matrix(4.9815986,0,0,-4.9815986,41.704999,33.198869)"/>
<use data-text="=" xlink:href="#font_6_4" transform="matrix(5.9779589,0,0,-5.9779589,47.71536,32.0468)"/>
<use data-text="1" xlink:href="#font_6_2" transform="matrix(5.9779589,0,0,-5.9779589,55.420957,32.0468)"/>
<use data-text="5" xlink:href="#font_6_3" transform="matrix(5.9779589,0,0,-5.9779589,59.07349,32.0468)"/>
<use data-text="m" xlink:href="#font_7_75" transform="matrix(5.9779589,0,0,-5.9779589,65.22641,32.0468)"/>
<path transform="matrix(1.00006,0,0,-1.00006,75.38902,115.59181)" stroke-width=".3985" stroke-linecap="butt" stroke-miterlimit="10" stroke-linejoin="miter" fill="none" stroke="#000000" d="M-39.4186 0C-42.40746 1.49435-44.39998 4.98138-44.39998 9.96277V46.73085C-44.39998 51.71223-46.3925 55.19926-49.38136 56.69362-46.3925 58.18797-44.39998 61.675-44.39998 66.65639V103.42447C-44.39998 108.40585-42.40746 111.89288-39.4186 113.38724"/>
<use data-text="2" xlink:href="#font_1_3" transform="matrix(9.963197,0,0,-9.963197,.8145523,62.105604)"/>
<use data-text="0" xlink:href="#font_1_2" transform="matrix(9.963197,0,0,-9.963197,5.79615,62.105604)"/>
<use data-text="m" xlink:href="#font_3_75" transform="matrix(9.963197,0,0,-9.963197,14.095345,62.105604)"/>
</svg>
