<svg xmlns="http://www.w3.org/2000/svg" xmlns:xlink="http://www.w3.org/1999/xlink" version="1.1" width="139" height="117" viewBox="0 0 139 117">
<defs>
<path id="font_1_88" d="M.18399048 .04899597C.18399048 .07598877 .16099549 .09700012 .13598633 .09700012 .10699463 .09700012 .08699036 .07398987 .08699036 .04899597 .08699036 .018997193 .11199951 0 .1349945 0 .1619873 0 .18399048 .020996094 .18399048 .04899597Z"/>
<path id="font_2_1" d="M.44198609 .69781497C.43499757 .7108154 .43299867 .7158203 .41600038 .7158203 .39898683 .7158203 .39698792 .7108154 .3899994 .69781497L.051986696 .019989014C.04699707 .010986328 .04699707 .008987427 .04699707 .0079956059 .04699707 0 .052993776 0 .068984989 0H.7630005C.7789917 0 .7849884 0 .7849884 .0079956059 .7849884 .008987427 .7849884 .010986328 .7799988 .019989014L.44198609 .69781497M.38398744 .61582949 .6529999 .07598877H.11399841L.38398744 .61582949Z"/>
<path id="font_3_1" d="M.2869873 .68333438C.2869873 .6843262 .2869873 .69433596 .27398683 .69433596 .25099183 .69433596 .17799378 .6863251 .1519928 .6843262 .14399719 .68333438 .1329956 .6823273 .1329956 .6643219 .1329956 .6523285 .14199829 .6523285 .15699768 .6523285 .20498657 .6523285 .20698548 .6453247 .20698548 .6353302L.20399475 .6153412 .05899048 .039260866C.054992677 .025253296 .054992677 .023254395 .054992677 .01725769 .054992677-.0057525637 .07499695-.0107421879 .083999637-.0107421879 .099990848-.0107421879 .115997318 .0012512207 .12098694 .015258789L.13999939 .091278079 .1619873 .18130493C.16799927 .2033081 .17399597 .22531128 .1789856 .24832154 .18099976 .25431825 .18899536 .28733827 .18998719 .29333497 .19299317 .30233766 .22399903 .35835267 .2579956 .38536073 .27999879 .4013672 .31098939 .42037965 .35398866 .42037965 .39698792 .42037965 .4079895 .3863678 .4079895 .35035707 .4079895 .29634095 .36999513 .18730164 .34599305 .12628174 .33799745 .103271488 .33299256 .091278079 .33299256 .0712738 .33299256 .024261475 .36799623-.0107421879 .4149933-.0107421879 .5089874-.0107421879 .54599 .13528443 .54599 .14329529 .54599 .1532898 .5369873 .1532898 .5339966 .1532898 .5239868 .1532898 .5239868 .15029907 .5189972 .13528443 .5039978 .08227539 .47200013 .011245728 .4169922 .011245728 .3999939 .011245728 .3929901 .021255494 .3929901 .044265748 .3929901 .0692749 .4019928 .09327698 .41099549 .11528015 .4269867 .15829468 .47200013 .2773285 .47200013 .3353424 .47200013 .4003601 .43199159 .4423828 .35699464 .4423828 .2939911 .4423828 .24598694 .41137696 .20899964 .36535646L.2869873 .68333438Z"/>
<path id="font_4_1" d="M.33299256 .66430667C.33399964 .66830447 .33599855 .67430117 .33599855 .67930606 .33599855 .6953125 .31599427 .6943054 .3039856 .69329836L.19198609 .6843109C.1749878 .68330386 .1619873 .682312 .1619873 .65930178 .1619873 .64331057 .1749878 .64331057 .18998719 .64331057 .21998596 .64331057 .22698975 .64131167 .23999024 .63630679 .23999024 .62431338 .23999024 .62231448 .23599243 .60632327L.09599304 .04724121C.09199524 .031234742 .09199524 .026229859 .09199524 .024230957 .09199524-.00077819827 .11199951-.009765625 .1269989-.009765625 .13699341-.009765625 .15499878-.0057678224 .16799927 .01322937 .17098999 .020233155 .17999268 .053237916 .18499756 .07424927 .18998719 .09326172 .20098877 .13928223 .20698548 .16429138 .21398926 .19030762 .21899414 .20831299 .22399903 .23132324 .22799683 .24632263 .23298645 .264328 .26098634 .3053589 .2939911 .3533783 .34599305 .4084015 .4229889 .4084015 .48599244 .4084015 .48599244 .35638429 .48599244 .33836366 .48599244 .27934266 .44400025 .17329407 .4249878 .12727356 .4189911 .11026001 .4119873 .09425354 .4119873 .07725525 .4119873 .026229859 .45799256-.009765625 .5130005-.009765625 .6139984-.009765625 .6639862 .12226868 .6639862 .14428711 .6639862 .14628601 .6629944 .15829468 .644989 .15829468 .6309967 .15829468 .6299896 .1532898 .6239929 .13427735 .60798647 .08226013 .5669861 .023223877 .5159912 .023223877 .49699403 .023223877 .4889984 .038238527 .4889984 .059249879 .4889984 .07925415 .49598695 .09625244 .5049896 .117263797 .519989 .15628052 .5649872 .2693329 .5649872 .32536317 .5649872 .4044037 .5079956 .44140626 .4269867 .44140626 .34799195 .44140626 .29499818 .39839173 .25498963 .3533783L.33299256 .66430667Z"/>
<path id="font_5_1" d="M.3959961 .6244507C.3959961 .64845278 .37799073 .66744998 .35198976 .66744998 .32398988 .66744998 .29100038 .6404419 .29100038 .6074524 .29100038 .5794525 .31298829 .5644531 .33399964 .5644531 .36698915 .5644531 .3959961 .5944519 .3959961 .6244507M.44299317 .14428711C.44299317 .15829468 .42599488 .15829468 .42199708 .15829468 .40499879 .15829468 .4039917 .15429688 .397995 .13528443 .3809967 .08027649 .33599855 .023254395 .28599549 .023254395 .2630005 .023254395 .2559967 .039260866 .2559967 .061264039 .2559967 .08227539 .26098634 .09327698 .2689972 .11227417 .2769928 .1322937 .2849884 .15229798 .2899933 .16629029 .2939911 .17530823 .33299256 .2683258 .34700013 .30433656 .35499574 .32435609 .36099244 .33735658 .36099244 .35435487 .36099244 .40237428 .31498719 .4423828 .2519989 .4423828 .14698792 .4423828 .09098816 .3143463 .09098816 .28733827 .09098816 .2733307 .10699463 .2733307 .11199951 .2733307 .1289978 .2733307 .12998963 .27833558 .1349945 .29333497 .15699768 .36436463 .20498657 .40837098 .24798584 .40837098 .2669983 .40837098 .27799989 .39736939 .27799989 .37036134 .27799989 .36636354 .27799989 .35336305 .27198792 .3343506 .2649994 .3163452 .21998596 .20930481 .20599365 .17530823 .19898987 .15829468 .19898987 .15629578 .18399048 .122283939 .1789856 .10827637 .17298889 .0942688 .17298889 .07727051 .17298889 .025253296 .22200012-.0107421879 .28199769-.0107421879 .3869934-.0107421879 .44299317 .119277957 .44299317 .14428711Z"/>
<path id="font_2_3" d="M.1269989 .07699585 .23298645 .18003845C.3889923 .31811524 .44898988 .3721466 .44898988 .47216798 .44898988 .5860901 .35899354 .6660156 .23699951 .6660156 .12399292 .6660156 .049987794 .57411196 .049987794 .48516847 .049987794 .4291687 .099990848 .4291687 .102996829 .4291687 .11999512 .4291687 .15499878 .44117738 .15499878 .48217774 .15499878 .5081787 .13699341 .5341797 .101989749 .5341797 .09399414 .5341797 .09199524 .5341797 .08898926 .5331726 .11199951 .59806826 .1659851 .63500979 .22399903 .63500979 .31498719 .63500979 .35798646 .5541382 .35798646 .47216798 .35798646 .39215089 .30799867 .31311036 .25299073 .25108338L.06098938 .036987306C.049987794 .025985718 .049987794 .023986817 .049987794 0H.42099L.44898988 .17404175H.42399598C.4189911 .14402771 .4119873 .1000061 .4019928 .084991458 .394989 .07699585 .32899476 .07699585 .30699159 .07699585H.1269989Z"/>
<path id="font_2_2" d="M.45999146 .31976319C.45999146 .39982606 .45498658 .47988893 .41999818 .5539398 .37399293 .65000918 .2919922 .6660156 .25 .6660156 .18998719 .6660156 .116989139 .64001467 .07598877 .54693606 .04399109 .47789 .038986207 .39982606 .038986207 .31976319 .038986207 .24472046 .042999269 .15464783 .083999637 .07859802 .1269989-.0024719239 .19999695-.022460938 .24899292-.022460938 .30299378-.022460938 .3789978-.0014648438 .4229889 .09359741 .45498658 .16265869 .45999146 .2407074 .45999146 .31976319M.24899292-.00047302247C.20999146-.00047302247 .15098572 .024551392 .1329956 .12062073 .12199402 .18066406 .12199402 .2727356 .12199402 .3317871 .12199402 .39582826 .12199402 .46188355 .12998963 .5159149 .14898682 .63500979 .22399903 .64401248 .24899292 .64401248 .28199769 .64401248 .34799195 .6259918 .36698915 .52693179 .3769989 .47088624 .3769989 .39482118 .3769989 .3317871 .3769989 .25672914 .3769989 .18867493 .3659973 .12461853 .35099793 .029556275 .2939911-.00047302247 .24899292-.00047302247Z"/>
<path id="font_6_75" d="M.8129883 0V.0309906C.7609863 .0309906 .73599246 .0309906 .7350006 .061019899V.25221253C.7350006 .3383026 .7350006 .36932374 .70399478 .405365 .6899872 .42237855 .6569977 .4423828 .598999 .4423828 .5149994 .4423828 .47099305 .38233949 .45399476 .34429933 .43998719 .43138124 .3659973 .4423828 .32099916 .4423828 .24798584 .4423828 .20098877 .39935304 .17298889 .33729554V.4423828L.03199768 .43066407V.3996582C.101989749 .3996582 .10998535 .39266969 .10998535 .34370423V.07595825C.10998535 .0309906 .09899902 .0309906 .03199768 .0309906V0L.14498902 .0029907227 .25698854 0V.0309906C.18998719 .0309906 .1789856 .0309906 .1789856 .07595825V.25978089C.1789856 .36431886 .25 .42037965 .31399537 .42037965 .3769989 .42037965 .3880005 .36631776 .3880005 .30926515V.076034549C.3880005 .0309906 .3769989 .0309906 .30999757 .0309906V0L.4229889 .0029907227 .5349884 0V.0309906C.46798707 .0309906 .45700074 .0309906 .45700074 .076034549V.2602234C.45700074 .36431886 .5279999 .42037965 .59199526 .42037965 .6549988 .42037965 .66600039 .36631776 .66600039 .30926515V.076034549C.66600039 .0309906 .6549988 .0309906 .58799746 .0309906V0L.70098879 .0029907227 .8129883 0Z"/>
</defs>
<g>
<path transform="matrix(1.00009,0,0,-1,54.12912,115.585)" d="M0 53.85875V59.52846H56.69362V53.85875ZM56.69362 59.52846" fill="#0000ff" fill-opacity=".2"/>
<path transform="matrix(1.00009,0,0,-1,54.12912,115.585)" stroke-width=".3985" stroke-linecap="butt" stroke-miterlimit="10" stroke-linejoin="miter" fill="none" stroke="#000000" stroke-opacity=".2" d="M0 53.85875V59.52846H56.69362V53.85875ZM56.69362 59.52846"/>
</g>
<path transform="matrix(1.00009,0,0,-1,54.12912,115.585)" stroke-width=".3985" stroke-linecap="butt" stroke-miterlimit="10" stroke-linejoin="miter" fill="none" stroke="#000000" d="M0 0H56.69362V113.38724H0V0"/>
<use data-text="." xlink:href="#font_1_88" transform="matrix(11.956276,0,0,-11.9552,80.85252,88.239)"/>
<use data-text="." xlink:href="#font_1_88" transform="matrix(11.956276,0,0,-11.9552,80.85252,92.224)"/>
<use data-text="." xlink:href="#font_1_88" transform="matrix(11.956276,0,0,-11.9552,80.85252,96.209)"/>
<use data-text="." xlink:href="#font_1_88" transform="matrix(11.956276,0,0,-11.9552,80.85252,28.710999)"/>
<use data-text="." xlink:href="#font_1_88" transform="matrix(11.956276,0,0,-11.9552,80.85252,32.696)"/>
<use data-text="." xlink:href="#font_1_88" transform="matrix(11.956276,0,0,-11.9552,80.85252,36.681)"/>
<path transform="matrix(1.00009,0,0,-1,54.12912,115.585)" stroke-width=".3985" stroke-linecap="butt" stroke-miterlimit="10" stroke-linejoin="miter" fill="none" stroke="#000000" d="M60.67873 53.85875C63.66759 54.07135 65.66011 54.56744 65.66011 55.27617V55.27618C65.66011 55.9849 67.65263 56.481 70.6415 56.6936 67.65263 56.90619 65.66011 57.40231 65.66011 58.11102 65.66011 58.81975 63.66759 59.31586 60.67873 59.52846"/>
<use data-text="&#x2206;" xlink:href="#font_2_1" transform="matrix(9.963496,0,0,-9.9626,123.650379,62.350999)"/>
<use data-text="h" xlink:href="#font_3_1" transform="matrix(9.963496,0,0,-9.9626,131.95313,62.350999)"/>
<path transform="matrix(1.00009,0,0,-1,54.12912,115.585)" stroke-width=".3985" stroke-linecap="butt" stroke-miterlimit="10" stroke-linejoin="miter" fill="none" stroke="#000000" d="M0 53.85875V53.85875"/>
<use data-text="h" xlink:href="#font_4_1" transform="matrix(5.978138,0,0,-5.9776,42.45007,63.170999)"/>
<use data-text="i" xlink:href="#font_5_1" transform="matrix(4.981748,0,0,-4.9813,46.788465,64.432)"/>
<path transform="matrix(1.00009,0,0,-1,54.12912,115.585)" stroke-width=".3985" stroke-linecap="butt" stroke-miterlimit="10" stroke-linejoin="miter" fill="none" stroke="#000000" d="M-18.1585 0C-21.14735 1.49435-23.13988 4.98138-23.13988 9.96277V46.73085C-23.13988 51.71223-25.1324 55.19926-28.12126 56.69362-25.1324 58.18797-23.13988 61.675-23.13988 66.65639V103.42447C-23.13988 108.40585-21.14735 111.89288-18.1585 113.38724"/>
<use data-text="2" xlink:href="#font_2_3" transform="matrix(9.963496,0,0,-9.9626,.8143158,62.101999)"/>
<use data-text="0" xlink:href="#font_2_2" transform="matrix(9.963496,0,0,-9.9626,5.7960665,62.101999)"/>
<use data-text="m" xlink:href="#font_6_75" transform="matrix(9.963496,0,0,-9.9626,14.095512,62.101999)"/>
</svg>
