<svg xmlns="http://www.w3.org/2000/svg" xmlns:xlink="http://www.w3.org/1999/xlink" version="1.1" width="173" height="201" viewBox="0 0 173 201">
<defs>
<path id="font_1_1" d="M.5629883 .39352418C.5279999 .38352967 .519989 .3545227 .519989 .33952333 .519989 .30752564 .54599 .30052186 .55999758 .30052186 .58898928 .30052186 .6179962 .32452394 .6179962 .3635254 .6179962 .41740418 .5589905 .44140626 .5079956 .44140626 .44198609 .44140626 .4019928 .3905182 .3909912 .371521 .37799073 .39649964 .33999635 .44140626 .2649994 .44140626 .1499939 .44140626 .08198547 .32252503 .08198547 .28749085 .08198547 .2824707 .085998538 .27345277 .099990848 .27345277 .11399841 .27345277 .116989139 .27946473 .11999512 .28848268 .14498902 .3695221 .21299744 .4084015 .2619934 .4084015 .31098939 .4084015 .32598878 .37652589 .32598878 .34352113 .32598878 .3315277 .32598878 .32252503 .31799317 .29148866 .29499818 .19825745 .272995 .10707092 .2679901 .095077518 .25299073 .05708313 .21699524 .023223877 .1749878 .023223877 .16899109 .023223877 .14099121 .023223877 .117996219 .038085939 .15699768 .051071168 .16099549 .08407593 .16099549 .09207153 .16099549 .11807251 .14099121 .13108826 .12098694 .13108826 .09298706 .13108826 .06298828 .10908508 .06298828 .06808472 .06298828 .011230469 .12599182-.009765625 .17298889-.009765625 .22999573-.009765625 .2709961 .029159546 .2899933 .060073854 .30999757 .018234253 .35798646-.009765625 .4149933-.009765625 .5329895-.009765625 .598999 .111083988 .598999 .14411927 .598999 .14611817 .59799197 .15815735 .5799866 .15815735 .56599429 .15815735 .56399539 .1511383 .5609894 .1421051 .5319977 .05508423 .46099855 .023223877 .4189911 .023223877 .3809967 .023223877 .35398866 .045074464 .35398866 .08708191 .35398866 .1060791 .35899354 .12808228 .36799623 .16316223L.3999939 .2935028C.4099884 .33251954 .4149933 .3505249 .43598939 .37452699 .44999696 .38952638 .47399903 .4084015 .5059967 .4084015 .5109863 .4084015 .54100039 .4084015 .5629883 .39352418Z"/>
<path id="font_1_2" d="M.59599307 .38438417C.59799197 .39138795 .598999 .395401 .598999 .39839173 .598999 .4104004 .58999636 .43139649 .5629883 .43139649 .54599 .43139649 .5289917 .4203949 .5219879 .4064026 .5179901 .3993988 .5109863 .3683777 .5059967 .3493805L.4850006 .26634217 .45399476 .14128113C.44699098 .11326599 .44299317 .09725952 .40299989 .059249879 .3919983 .049240114 .3600006 .023223877 .31698609 .023223877 .24299622 .023223877 .24299622 .088256839 .24299622 .10626221 .24299622 .15028382 .25498963 .19529724 .29899598 .3053589 .30899049 .32936097 .31199647 .33636476 .31199647 .35437013 .31199647 .4104004 .2619934 .44140626 .21199036 .44140626 .10998535 .44140626 .06098938 .3093567 .06098938 .28733827 .06098938 .28234864 .06498718 .27334596 .07899475 .27334596 .09298706 .27334596 .09599304 .27934266 .09899902 .28834535 .1269989 .38539125 .17999268 .4084015 .20799256 .4084015 .22799683 .4084015 .23498535 .395401 .23498535 .37239076 .23498535 .3513794 .22200012 .3173523 .21099854 .29034425 .17599488 .20230103 .1639862 .15628052 .1639862 .120269779 .1639862 .025222779 .23498535-.009765625 .31298829-.009765625 .32699586-.009765625 .37399293-.009765625 .4269867 .036239625 .4139862-.01878357 .40499879-.05781555 .35699464-.109817508 .33898927-.12980652 .2939911-.1710968 .23399353-.1710968 .22499085-.1710968 .18199158-.17008972 .15899658-.14382935 .20298767-.13581848 .20899964-.09681702 .20899964-.08781433 .20899964-.060806276 .18699646-.049804689 .16799927-.049804689 .14299011-.049804689 .10998535-.06980896 .10998535-.11581421 .10998535-.16403198 .15699768-.20410156 .23498535-.20410156 .34098817-.20410156 .46899415-.12580872 .5-.00077819827L.59599307 .38438417Z"/>
<path id="font_2_2" d="M.42399598 .6221924C.42399598 .65219119 .4189911 .6582031 .3880005 .6582031H.37098695C.2889862 .59417727 .16299439 .59417727 .14099121 .59417727H.115997318V.5341797H.14099121C.16299439 .5341797 .22399903 .5361786 .2919922 .5561676V.05999756H.12298584V0C.17399597 .0039978029 .2999878 .0039978029 .35699464 .0039978029 .4119873 .0039978029 .5399933 .0039978029 .58898928 0V.05999756H.42399598V.6221924Z"/>
<path id="font_2_3" d="M.6159973 .2220459H.54499819C.54299929 .21003723 .5339966 .1459961 .5119934 .14299011 .49198915 .13899231 .44499208 .13899231 .41099549 .13899231H.272995C.2829895 .1459961 .30699159 .16200257 .31599427 .16900635 .48298646 .28208924 .46499635 .2600708 .5209961 .30110169 .57598879 .34213258 .6159973 .38916017 .6159973 .45819093 .6159973 .581192 .5009918 .6582031 .32699586 .6582031 .17098999 .6582031 .07598877 .6031952 .07598877 .5101929 .07598877 .45018006 .12399292 .42918397 .15499878 .42918397 .19299317 .42918397 .23498535 .45518495 .23498535 .5091858 .23498535 .53318789 .22599793 .55918887 .20199585 .57418826 .24198914 .5981903 .2889862 .5981903 .2999878 .5981903 .3999939 .5981903 .46299745 .53718569 .46299745 .45718385 .46299745 .37815858 .3999939 .31210328 .33699037 .26107789L.08999634 .06098938C.07598877 .049987794 .07598877 .04499817 .07598877 .024993897V0H.5799866L.6159973 .2220459Z"/>
<path id="font_2_4" d="M.2639923 .37425233C.24398804 .3732605 .23399353 .3672638 .23399353 .34825135 .23399353 .32226563 .24899292 .32226563 .2679901 .32226563H.32699586C.45599366 .32226563 .45999146 .22918701 .45999146 .18118286 .45999146 .1381836 .45700074 .0413208 .32998658 .0413208 .31399537 .0413208 .24499512 .0413208 .19198609 .076187137 .21199036 .08718872 .23199463 .111190799 .23199463 .14819336 .23199463 .19718933 .19599915 .23118592 .14898682 .23118592 .102996829 .23118592 .06498718 .20019531 .06498718 .14619446 .06498718 .04928589 .16499329-.013671875 .33399964-.013671875 .5499878-.013671875 .6269989 .093185428 .6269989 .18118286 .6269989 .24620056 .58099368 .32025147 .45498658 .3522644 .5219879 .3772583 .58898928 .4302063 .58898928 .51420596 .58898928 .59220889 .5049896 .6582031 .33699037 .6582031 .19198609 .6582031 .102996829 .59220889 .102996829 .50320437 .102996829 .45021058 .14299011 .4242096 .18099976 .4242096 .22099304 .4242096 .25898744 .45321656 .25898744 .5022125 .25898744 .5512085 .22099304 .57121279 .21299744 .57421877 .22898865 .58621218 .2709961 .6082001 .33198548 .6082001 .42099 .6082001 .43899537 .5622101 .43899537 .51620486 .43899537 .43721009 .38198854 .38024903 .32499696 .3772583L.2639923 .37425233Z"/>
<path id="font_2_5" d="M.6459961 .15483094V.21484375H.5279999V.6290283C.5279999 .6590271 .522995 .66503909 .49198915 .66503909H.45498658C.42799378 .66503909 .4269867 .6630249 .4139862 .6480255L.04598999 .21484375V.15483094H.3889923V.05999756H.2579956V0C.30699159 .0039978029 .4039917 .0039978029 .45700074 .0039978029 .5139923 .0039978029 .58999636 .0039978029 .6459961 0V.05999756H.5279999V.15483094H.6459961M.4039917 .54599V.21484375H.12298584L.4039917 .54599Z"/>
<path id="font_3_1" d="M.79599 .22436524C.81199648 .22436524 .83699038 .22436524 .83699038 .2503662 .83699038 .2763672 .81199648 .2763672 .79599 .2763672H.1659851C.1499939 .2763672 .125 .2763672 .125 .2503662 .125 .22436524 .1499939 .22436524 .1659851 .22436524H.79599Z"/>
<path id="font_2_1" d="M.6309967 .31825257C.6309967 .46221925 .60598757 .6582031 .34599305 .6582031 .084991458 .6582031 .06098938 .46022035 .06098938 .31825257 .06098938 .17428589 .08699036-.013671875 .34599305-.013671875 .60598757-.013671875 .6309967 .17628479 .6309967 .31825257M.34599305 .037322999C.31199647 .037322999 .23098755 .047317506 .21499634 .13929749 .20498657 .19328308 .20498657 .26327516 .20498657 .33125306 .20498657 .39424134 .20498657 .47322084 .21598816 .5202179 .23498535 .5941925 .30499269 .607193 .34599305 .607193 .38198854 .607193 .46099855 .5971985 .47698976 .5132141 .4869995 .46122743 .4869995 .3972473 .4869995 .33125306 .4869995 .27026368 .4869995 .19328308 .47698976 .13929749 .45999146 .048324586 .38398744 .037322999 .34599305 .037322999Z"/>
</defs>
<path transform="matrix(1.00002,0,0,-1.00005,15.8978199,100.315959)" stroke-width=".19925" stroke-linecap="butt" stroke-miterlimit="10" stroke-linejoin="miter" fill="none" stroke="#cbcbcb" d="M-14.17339-85.04042H155.90744M-14.17339-56.69362H155.90744M-14.17339-28.3468H155.90744M-14.17339 0H155.90744M-14.17339 28.3468H155.90744M-14.17339 56.69362H155.90744M-14.17339 85.04042H155.90744M0-99.21382V99.21382M28.3468-99.21382V99.21382M56.69362-99.21382V99.21382M85.04042-99.21382V99.21382M113.38724-99.21382V99.21382M141.73404-99.21382V99.21382M155.90744 99.21382"/>
<path transform="matrix(1.00002,0,0,-1.00005,15.8978199,100.315959)" stroke-width="1.19553" stroke-linecap="butt" stroke-miterlimit="10" stroke-linejoin="miter" fill="none" stroke="#000000" d="M0 0H140.77762"/>
<path transform="matrix(1.00002,0,0,-1.00005,156.67826,100.315959)" stroke-width=".9564" stroke-linecap="round" stroke-linejoin="round" fill="none" stroke="#000000" d="M-1.91284 2.55046C-1.75343 1.59402 0 .15938 .4782 0 0-.15938-1.75343-1.59402-1.91284-2.55046"/>
<use data-text="x" xlink:href="#font_1_1" transform="matrix(5.97772,0,0,-5.9778988,162.21674,107.47231)"/>
<path transform="matrix(1.00002,0,0,-1.00005,15.8978199,100.315959)" stroke-width="1.19553" stroke-linecap="butt" stroke-miterlimit="10" stroke-linejoin="miter" fill="none" stroke="#000000" d="M0-85.04042V84.084"/>
<path transform="matrix(0,-1.00005,-1.00002,-0,15.8978199,16.22776)" stroke-width=".9564" stroke-linecap="round" stroke-linejoin="round" fill="none" stroke="#000000" d="M-1.91284 2.55046C-1.75343 1.59402 0 .15938 .4782 0 0-.15938-1.75343-1.59402-1.91284-2.55046"/>
<use data-text="y" xlink:href="#font_1_2" transform="matrix(5.97772,0,0,-5.9778988,7.3166468,9.526421)"/>
<path transform="matrix(1.00002,0,0,-1.00005,15.8978199,100.315959)" stroke-width=".3985" stroke-linecap="butt" stroke-miterlimit="10" stroke-linejoin="miter" fill="none" stroke="#000000" d="M28.3468 .99628V-.99628"/>
<use data-text="1" xlink:href="#font_2_2" transform="matrix(5.97772,0,0,-5.9778988,42.172349,109.348407)"/>
<path transform="matrix(1.00002,0,0,-1.00005,15.8978199,100.315959)" stroke-width=".3985" stroke-linecap="butt" stroke-miterlimit="10" stroke-linejoin="miter" fill="none" stroke="#000000" d="M56.69363 .99628V-.99628"/>
<use data-text="2" xlink:href="#font_2_3" transform="matrix(5.97772,0,0,-5.9778988,70.51991,109.348407)"/>
<path transform="matrix(1.00002,0,0,-1.00005,15.8978199,100.315959)" stroke-width=".3985" stroke-linecap="butt" stroke-miterlimit="10" stroke-linejoin="miter" fill="none" stroke="#000000" d="M85.04045 .99628V-.99628"/>
<use data-text="3" xlink:href="#font_2_4" transform="matrix(5.97772,0,0,-5.9778988,98.867488,109.348407)"/>
<path transform="matrix(1.00002,0,0,-1.00005,15.8978199,100.315959)" stroke-width=".3985" stroke-linecap="butt" stroke-miterlimit="10" stroke-linejoin="miter" fill="none" stroke="#000000" d="M113.38728 .99628V-.99628"/>
<use data-text="4" xlink:href="#font_2_5" transform="matrix(5.97772,0,0,-5.9778988,127.21405,109.348407)"/>
<path transform="matrix(1.00002,0,0,-1.00005,15.8978199,100.315959)" stroke-width=".3985" stroke-linecap="butt" stroke-miterlimit="10" stroke-linejoin="miter" fill="none" stroke="#000000" d="M.99628-85.04045H-.99628"/>
<use data-text="&#x2212;" xlink:href="#font_3_1" transform="matrix(5.97772,0,0,-5.9778988,.8155174,186.87128)"/>
<use data-text="3" xlink:href="#font_2_4" transform="matrix(5.97772,0,0,-5.9778988,6.5716326,186.87128)"/>
<path transform="matrix(1.00002,0,0,-1.00005,15.8978199,100.315959)" stroke-width=".3985" stroke-linecap="butt" stroke-miterlimit="10" stroke-linejoin="miter" fill="none" stroke="#000000" d="M.99628-56.69363H-.99628"/>
<use data-text="&#x2212;" xlink:href="#font_3_1" transform="matrix(5.97772,0,0,-5.9778988,.8155174,158.52387)"/>
<use data-text="2" xlink:href="#font_2_3" transform="matrix(5.97772,0,0,-5.9778988,6.5716326,158.52387)"/>
<path transform="matrix(1.00002,0,0,-1.00005,15.8978199,100.315959)" stroke-width=".3985" stroke-linecap="butt" stroke-miterlimit="10" stroke-linejoin="miter" fill="none" stroke="#000000" d="M.99628-28.3468H-.99628"/>
<use data-text="&#x2212;" xlink:href="#font_3_1" transform="matrix(5.97772,0,0,-5.9778988,.8155174,130.17545)"/>
<use data-text="1" xlink:href="#font_2_2" transform="matrix(5.97772,0,0,-5.9778988,6.5716326,130.17545)"/>
<path transform="matrix(1.00002,0,0,-1.00005,15.8978199,100.315959)" stroke-width=".3985" stroke-linecap="butt" stroke-miterlimit="10" stroke-linejoin="miter" fill="none" stroke="#000000" d="M.99628 0H-.99628"/>
<use data-text="0" xlink:href="#font_2_1" transform="matrix(5.97772,0,0,-5.9778988,6.5716326,102.24205)"/>
<path transform="matrix(1.00002,0,0,-1.00005,15.8978199,100.315959)" stroke-width=".3985" stroke-linecap="butt" stroke-miterlimit="10" stroke-linejoin="miter" fill="none" stroke="#000000" d="M.99628 28.3468H-.99628"/>
<use data-text="1" xlink:href="#font_2_2" transform="matrix(5.97772,0,0,-5.9778988,6.5716326,73.89364)"/>
<path transform="matrix(1.00002,0,0,-1.00005,15.8978199,100.315959)" stroke-width=".3985" stroke-linecap="butt" stroke-miterlimit="10" stroke-linejoin="miter" fill="none" stroke="#000000" d="M.99628 56.69363H-.99628"/>
<use data-text="2" xlink:href="#font_2_3" transform="matrix(5.97772,0,0,-5.9778988,6.5716326,45.546224)"/>
<path transform="matrix(1.00002,0,0,-1.00005,15.8978199,100.315959)" stroke-width=".3985" stroke-linecap="butt" stroke-miterlimit="10" stroke-linejoin="miter" fill="none" stroke="#000000" d="M.99628 85.04045H-.99628"/>
<use data-text="3" xlink:href="#font_2_4" transform="matrix(5.97772,0,0,-5.9778988,6.5716326,17.197808)"/>
<path transform="matrix(1.00002,0,0,-1.00005,15.8978199,100.315959)" stroke-width=".3985" stroke-linecap="butt" stroke-miterlimit="10" stroke-linejoin="miter" fill="none" stroke="#0000ff" d="M0 0 1.14491 5.71599 2.28984 8.08629 3.43477 9.86963 4.5797 11.435 5.72462 12.74774 6.86955 13.95842 8.01448 15.07523 9.15941 16.11592 10.30434 17.09431 11.44926 18.01866 12.5942 18.89757 13.73912 19.7367 14.88405 20.54468 16.02898 21.31891 17.1739 22.06764 18.31883 22.79344 19.46378 23.49373 20.60869 24.1741 21.75362 24.8376 22.89854 25.48123 24.04347 26.11058 25.18842 26.72607 26.33333 27.32426 27.47826 27.91382 28.62318 28.4839 29.76811 29.04793 30.91306 29.60115 32.05797 30.144 33.2029 30.67773 34.34782 31.20285 35.49275 31.71799 36.63768 32.22536 37.78261 32.72581 38.92755 33.21674 40.07246 33.70161 41.21739 34.18 42.36232 34.65147 43.50725 35.11688 44.65219 35.57451 45.7971 36.0278 46.94203 36.47504 48.08696 36.91797 49.23189 37.35483 50.37683 37.78737 51.52174 38.21169 52.66667 38.6343 53.8116 39.0534 54.95653 39.46518 56.10147 39.87523 57.24638 40.28139 58.39133 40.68234 59.53624 41.07898 60.68117 41.47215 61.82611 41.86188 62.97102 42.24771 64.11597 42.62964 65.26088 43.00853 66.4058 43.38397 67.55075 43.75682 68.69566 44.1262 69.8406 44.49214 70.98552 44.85547 72.13045 45.21535 73.27538 45.57304 74.4203 45.92729 75.56525 46.28026 76.71016 46.62889 77.8551 46.97534 79.00002 47.31879 80.14494 47.66092 81.28989 48.00131 82.4348 48.3374 83.57974 48.67218 84.72466 49.00395 85.86958 49.33484 87.01453 49.6614 88.15944 49.98798 89.30438 50.30934 90.4493 50.6307 91.59422 50.95036 92.73917 51.26743 93.88408 51.5836 95.02902 51.89848 96.17393 52.20905 97.31888 52.51918 98.4638 52.82758 99.60872 53.1338 100.75366 53.4392 101.89857 53.7385 103.04352 54.03912 104.18845 54.3406 105.33336 54.63644 106.4783 54.93187 107.62321 55.23076 108.76816 55.52057 109.91307 55.81252 111.058 56.1032 112.20294 56.39084 113.34785 56.67802"/>
<path transform="matrix(1.00002,0,0,-1.00005,15.8978199,100.315959)" stroke-width=".3985" stroke-linecap="butt" stroke-dasharray="2.98883,2.98883" stroke-miterlimit="10" stroke-linejoin="miter" fill="none" stroke="#0000ff" d="M0 0 1.14491-5.71599 2.28984-8.08629 3.43477-9.86963 4.5797-11.435 5.72462-12.74774 6.86955-13.95842 8.01448-15.07523 9.15941-16.11592 10.30434-17.09431 11.44926-18.01866 12.5942-18.89757 13.73912-19.7367 14.88405-20.54468 16.02898-21.31891 17.1739-22.06764 18.31883-22.79344 19.46378-23.49373 20.60869-24.1741 21.75362-24.8376 22.89854-25.48123 24.04347-26.11058 25.18842-26.72607 26.33333-27.32426 27.47826-27.91382 28.62318-28.4839 29.76811-29.04793 30.91306-29.60115 32.05797-30.144 33.2029-30.67773 34.34782-31.20285 35.49275-31.71799 36.63768-32.22536 37.78261-32.72581 38.92755-33.21674 40.07246-33.70161 41.21739-34.18 42.36232-34.65147 43.50725-35.11688 44.65219-35.57451 45.7971-36.0278 46.94203-36.47504 48.08696-36.91797 49.23189-37.35483 50.37683-37.78737 51.52174-38.21169 52.66667-38.6343 53.8116-39.0534 54.95653-39.46518 56.10147-39.87523 57.24638-40.28139 58.39133-40.68234 59.53624-41.07898 60.68117-41.47215 61.82611-41.86188 62.97102-42.24771 64.11597-42.62964 65.26088-43.00853 66.4058-43.38397 67.55075-43.75682 68.69566-44.1262 69.8406-44.49214 70.98552-44.85547 72.13045-45.21535 73.27538-45.57304 74.4203-45.92729 75.56525-46.28026 76.71016-46.62889 77.8551-46.97534 79.00002-47.31879 80.14494-47.66092 81.28989-48.00131 82.4348-48.3374 83.57974-48.67218 84.72466-49.00395 85.86958-49.33484 87.01453-49.6614 88.15944-49.98798 89.30438-50.30934 90.4493-50.6307 91.59422-50.95036 92.73917-51.26743 93.88408-51.5836 95.02902-51.89848 96.17393-52.20905 97.31888-52.51918 98.4638-52.82758 99.60872-53.1338 100.75366-53.4392 101.89857-53.7385 103.04352-54.03912 104.18845-54.3406 105.33336-54.63644 106.4783-54.93187 107.62321-55.23076 108.76816-55.52057 109.91307-55.81252 111.058-56.1032 112.20294-56.39084 113.34785-56.67802"/>
<path transform="matrix(1.00002,0,0,-1.00005,15.8978199,100.315959)" d="M0 0 28.3468 28.3468 56.69362 40.08803 85.04042 49.09651 113.38724 56.69362V-56.69362L85.04042-49.09651 56.69362-40.08803 28.3468-28.3468 0 0" fill="#0000ff" fill-opacity=".2"/>
<path transform="matrix(1.00002,0,0,-1.00005,15.8978199,100.315959)" stroke-width=".3985" stroke-linecap="butt" stroke-dasharray="2.98883,2.98883" stroke-miterlimit="10" stroke-linejoin="miter" fill="none" stroke="#000000" d="M0 0 28.3468 28.3468 56.69362 40.08803 85.04042 49.09651 113.38724 56.69362"/>
<path transform="matrix(1.00002,0,0,-1.00005,15.8978199,100.315959)" stroke-width=".3985" stroke-linecap="butt" stroke-dasharray="2.98883,2.98883" stroke-miterlimit="10" stroke-linejoin="miter" fill="none" stroke="#000000" d="M0 0 28.3468-28.3468 56.69362-40.08803 85.04042-49.09651 113.38724-56.69362"/>
<path transform="matrix(1.00002,0,0,-1.00005,15.8978199,100.315959)" d="M1.99255 0C1.99255 1.10046 1.10046 1.99255 0 1.99255-1.10046 1.99255-1.99255 1.10046-1.99255 0-1.99255-1.10046-1.10046-1.99255 0-1.99255 1.10046-1.99255 1.99255-1.10046 1.99255 0ZM0 0"/>
<path transform="matrix(1.00002,0,0,-1.00005,15.8978199,100.315959)" stroke-width=".3985" stroke-linecap="butt" stroke-miterlimit="10" stroke-linejoin="miter" fill="none" stroke="#000000" d="M1.99255 0C1.99255 1.10046 1.10046 1.99255 0 1.99255-1.10046 1.99255-1.99255 1.10046-1.99255 0-1.99255-1.10046-1.10046-1.99255 0-1.99255 1.10046-1.99255 1.99255-1.10046 1.99255 0ZM0 0"/>
<path transform="matrix(1.00002,0,0,-1.00005,15.8978199,100.315959)" d="M30.33936 28.3468C30.33936 29.44728 29.44728 30.33936 28.3468 30.33936 27.24634 30.33936 26.35425 29.44728 26.35425 28.3468 26.35425 27.24634 27.24634 26.35425 28.3468 26.35425 29.44728 26.35425 30.33936 27.24634 30.33936 28.3468ZM28.3468 28.3468"/>
<path transform="matrix(1.00002,0,0,-1.00005,15.8978199,100.315959)" stroke-width=".3985" stroke-linecap="butt" stroke-miterlimit="10" stroke-linejoin="miter" fill="none" stroke="#000000" d="M30.33936 28.3468C30.33936 29.44728 29.44728 30.33936 28.3468 30.33936 27.24634 30.33936 26.35425 29.44728 26.35425 28.3468 26.35425 27.24634 27.24634 26.35425 28.3468 26.35425 29.44728 26.35425 30.33936 27.24634 30.33936 28.3468ZM28.3468 28.3468"/>
<path transform="matrix(1.00002,0,0,-1.00005,15.8978199,100.315959)" d="M58.68617 40.08803C58.68617 41.1885 57.79408 42.08058 56.69362 42.08058 55.59314 42.08058 54.70107 41.1885 54.70107 40.08803 54.70107 38.98756 55.59314 38.09547 56.69362 38.09547 57.79408 38.09547 58.68617 38.98756 58.68617 40.08803ZM56.69362 40.08803"/>
<path transform="matrix(1.00002,0,0,-1.00005,15.8978199,100.315959)" stroke-width=".3985" stroke-linecap="butt" stroke-miterlimit="10" stroke-linejoin="miter" fill="none" stroke="#000000" d="M58.68617 40.08803C58.68617 41.1885 57.79408 42.08058 56.69362 42.08058 55.59314 42.08058 54.70107 41.1885 54.70107 40.08803 54.70107 38.98756 55.59314 38.09547 56.69362 38.09547 57.79408 38.09547 58.68617 38.98756 58.68617 40.08803ZM56.69362 40.08803"/>
<path transform="matrix(1.00002,0,0,-1.00005,15.8978199,100.315959)" d="M87.03297 49.09651C87.03297 50.19699 86.1409 51.08907 85.04042 51.08907 83.93996 51.08907 83.04787 50.19699 83.04787 49.09651 83.04787 47.99605 83.93996 47.10396 85.04042 47.10396 86.1409 47.10396 87.03297 47.99605 87.03297 49.09651ZM85.04042 49.09651"/>
<path transform="matrix(1.00002,0,0,-1.00005,15.8978199,100.315959)" stroke-width=".3985" stroke-linecap="butt" stroke-miterlimit="10" stroke-linejoin="miter" fill="none" stroke="#000000" d="M87.03297 49.09651C87.03297 50.19699 86.1409 51.08907 85.04042 51.08907 83.93996 51.08907 83.04787 50.19699 83.04787 49.09651 83.04787 47.99605 83.93996 47.10396 85.04042 47.10396 86.1409 47.10396 87.03297 47.99605 87.03297 49.09651ZM85.04042 49.09651"/>
<path transform="matrix(1.00002,0,0,-1.00005,15.8978199,100.315959)" d="M115.37979 56.69362C115.37979 57.79408 114.4877 58.68617 113.38724 58.68617 112.28676 58.68617 111.39468 57.79408 111.39468 56.69362 111.39468 55.59314 112.28676 54.70107 113.38724 54.70107 114.4877 54.70107 115.37979 55.59314 115.37979 56.69362ZM113.38724 56.69362"/>
<path transform="matrix(1.00002,0,0,-1.00005,15.8978199,100.315959)" stroke-width=".3985" stroke-linecap="butt" stroke-miterlimit="10" stroke-linejoin="miter" fill="none" stroke="#000000" d="M115.37979 56.69362C115.37979 57.79408 114.4877 58.68617 113.38724 58.68617 112.28676 58.68617 111.39468 57.79408 111.39468 56.69362 111.39468 55.59314 112.28676 54.70107 113.38724 54.70107 114.4877 54.70107 115.37979 55.59314 115.37979 56.69362ZM113.38724 56.69362"/>
</svg>
