<svg xmlns="http://www.w3.org/2000/svg" xmlns:xlink="http://www.w3.org/1999/xlink" version="1.1" width="181" height="119" viewBox="0 0 181 119">
<defs>
<path id="font_1_1" d="M.5629883 .39352418C.5279999 .38352967 .519989 .3545227 .519989 .33952333 .519989 .30752564 .54599 .30052186 .55999758 .30052186 .58898928 .30052186 .6179962 .32452394 .6179962 .3635254 .6179962 .41740418 .5589905 .44140626 .5079956 .44140626 .44198609 .44140626 .4019928 .3905182 .3909912 .371521 .37799073 .39649964 .33999635 .44140626 .2649994 .44140626 .1499939 .44140626 .08198547 .32252503 .08198547 .28749085 .08198547 .2824707 .085998538 .27345277 .099990848 .27345277 .11399841 .27345277 .116989139 .27946473 .11999512 .28848268 .14498902 .3695221 .21299744 .4084015 .2619934 .4084015 .31098939 .4084015 .32598878 .37652589 .32598878 .34352113 .32598878 .3315277 .32598878 .32252503 .31799317 .29148866 .29499818 .19825745 .272995 .10707092 .2679901 .095077518 .25299073 .05708313 .21699524 .023223877 .1749878 .023223877 .16899109 .023223877 .14099121 .023223877 .117996219 .038085939 .15699768 .051071168 .16099549 .08407593 .16099549 .09207153 .16099549 .11807251 .14099121 .13108826 .12098694 .13108826 .09298706 .13108826 .06298828 .10908508 .06298828 .06808472 .06298828 .011230469 .12599182-.009765625 .17298889-.009765625 .22999573-.009765625 .2709961 .029159546 .2899933 .060073854 .30999757 .018234253 .35798646-.009765625 .4149933-.009765625 .5329895-.009765625 .598999 .111083988 .598999 .14411927 .598999 .14611817 .59799197 .15815735 .5799866 .15815735 .56599429 .15815735 .56399539 .1511383 .5609894 .1421051 .5319977 .05508423 .46099855 .023223877 .4189911 .023223877 .3809967 .023223877 .35398866 .045074464 .35398866 .08708191 .35398866 .1060791 .35899354 .12808228 .36799623 .16316223L.3999939 .2935028C.4099884 .33251954 .4149933 .3505249 .43598939 .37452699 .44999696 .38952638 .47399903 .4084015 .5059967 .4084015 .5109863 .4084015 .54100039 .4084015 .5629883 .39352418Z"/>
<path id="font_2_1" d="M.44198609 .69781497C.43499757 .7108154 .43299867 .7158203 .41600038 .7158203 .39898683 .7158203 .39698792 .7108154 .3899994 .69781497L.051986696 .019989014C.04699707 .010986328 .04699707 .008987427 .04699707 .0079956059 .04699707 0 .052993776 0 .068984989 0H.7630005C.7789917 0 .7849884 0 .7849884 .0079956059 .7849884 .008987427 .7849884 .010986328 .7799988 .019989014L.44198609 .69781497M.38398744 .61582949 .6529999 .07598877H.11399841L.38398744 .61582949Z"/>
<path id="font_3_1" d="M.33399964 .30233766C.33999635 .32835389 .36299134 .42037965 .43299867 .42037965 .43798829 .42037965 .46199037 .42037965 .48298646 .40734864 .45498658 .402359 .43499757 .37734986 .43499757 .35334779 .43499757 .33735658 .44599916 .31835938 .47299195 .31835938 .49499513 .31835938 .5269928 .3363495 .5269928 .37635804 .5269928 .42837525 .46798707 .4423828 .43399049 .4423828 .37599183 .4423828 .34098817 .38935853 .32899476 .36634828 .3039856 .43237306 .25 .4423828 .22099304 .4423828 .116989139 .4423828 .05999756 .3133545 .05999756 .28834535 .05999756 .27833558 .069992069 .27833558 .07199097 .27833558 .07998657 .27833558 .08299255 .28033448 .084991458 .28933717 .11898804 .39535523 .18499756 .42037965 .21899414 .42037965 .23799134 .42037965 .272995 .4113617 .272995 .35334779 .272995 .32235719 .2559967 .25532533 .21899414 .11528015 .20298767 .053268434 .16799927 .011245728 .12399292 .011245728 .117996219 .011245728 .09498596 .011245728 .07398987 .024276734 .09899902 .029266358 .12098694 .05027771 .12098694 .07827759 .12098694 .105270389 .09899902 .11328125 .083999637 .11328125 .053985597 .11328125 .0289917 .08728027 .0289917 .055267335 .0289917 .009246826 .07899475-.0107421879 .12298584-.0107421879 .18899536-.0107421879 .22499085 .059280397 .22799683 .0652771 .23999024 .028274537 .27598573-.0107421879 .33599855-.0107421879 .43899537-.0107421879 .49598695 .118270877 .49598695 .14328003 .49598695 .1532898 .4869995 .1532898 .48399354 .1532898 .47499085 .1532898 .47299195 .14929199 .47099305 .14228821 .43798829 .03527832 .36999513 .011245728 .33799745 .011245728 .29899598 .011245728 .2829895 .043273927 .2829895 .07727051 .2829895 .09927368 .2889862 .121276859 .2999878 .16529846L.33399964 .30233766Z"/>
</defs>
<path transform="matrix(1.00005,0,0,-1.00003,29.576527,58.893709)" stroke-width=".79701" stroke-linecap="butt" stroke-miterlimit="10" stroke-linejoin="miter" fill="none" stroke="#000000" d="M-28.3468 0H141.02667"/>
<path transform="matrix(1.00005,0,0,-1.00003,170.61025,58.893709)" stroke-width=".6376" stroke-linecap="round" stroke-linejoin="round" fill="none" stroke="#000000" d="M-1.55415 2.0722C-1.42464 1.29512 0 .1295 .38852 0 0-.1295-1.42464-1.29512-1.55415-2.0722"/>
<use data-text="x" xlink:href="#font_1_1" transform="matrix(5.9778988,0,0,-5.97778,175.70082,65.850917)"/>
<path transform="matrix(1.00005,0,0,-1.00003,29.576527,58.893709)" stroke-width=".3985" stroke-linecap="butt" stroke-miterlimit="10" stroke-linejoin="miter" fill="none" stroke="#000000" d="M0 0 1.14491 5.71599 2.28984 8.08629 3.43477 9.86963 4.5797 11.435 5.72462 12.74774 6.86955 13.95842 8.01448 15.07523 9.15941 16.11592 10.30434 17.09431 11.44926 18.01866 12.5942 18.89757 13.73912 19.7367 14.88405 20.54468 16.02898 21.31891 17.1739 22.06764 18.31883 22.79344 19.46378 23.49373 20.60869 24.1741 21.75362 24.8376 22.89854 25.48123 24.04347 26.11058 25.18842 26.72607 26.33333 27.32426 27.47826 27.91382 28.62318 28.4839 29.76811 29.04793 30.91306 29.60115 32.05797 30.144 33.2029 30.67773 34.34782 31.20285 35.49275 31.71799 36.63768 32.22536 37.78261 32.72581 38.92755 33.21674 40.07246 33.70161 41.21739 34.18 42.36232 34.65147 43.50725 35.11688 44.65219 35.57451 45.7971 36.0278 46.94203 36.47504 48.08696 36.91797 49.23189 37.35483 50.37683 37.78737 51.52174 38.21169 52.66667 38.6343 53.8116 39.0534 54.95653 39.46518 56.10147 39.87523 57.24638 40.28139 58.39133 40.68234 59.53624 41.07898 60.68117 41.47215 61.82611 41.86188 62.97102 42.24771 64.11597 42.62964 65.26088 43.00853 66.4058 43.38397 67.55075 43.75682 68.69566 44.1262 69.8406 44.49214 70.98552 44.85547 72.13045 45.21535 73.27538 45.57304 74.4203 45.92729 75.56525 46.28026 76.71016 46.62889 77.8551 46.97534 79.00002 47.31879 80.14494 47.66092 81.28989 48.00131 82.4348 48.3374 83.57974 48.67218 84.72466 49.00395 85.86958 49.33484 87.01453 49.6614 88.15944 49.98798 89.30438 50.30934 90.4493 50.6307 91.59422 50.95036 92.73917 51.26743 93.88408 51.5836 95.02902 51.89848 96.17393 52.20905 97.31888 52.51918 98.4638 52.82758 99.60872 53.1338 100.75366 53.4392 101.89857 53.7385 103.04352 54.03912 104.18845 54.3406 105.33336 54.63644 106.4783 54.93187 107.62321 55.23076 108.76816 55.52057 109.91307 55.81252 111.058 56.1032 112.20294 56.39084 113.34785 56.67802"/>
<path transform="matrix(1.00005,0,0,-1.00003,29.576527,58.893709)" stroke-width=".3985" stroke-linecap="butt" stroke-miterlimit="10" stroke-linejoin="miter" fill="none" stroke="#000000" d="M0 0 1.14491-5.71599 2.28984-8.08629 3.43477-9.86963 4.5797-11.435 5.72462-12.74774 6.86955-13.95842 8.01448-15.07523 9.15941-16.11592 10.30434-17.09431 11.44926-18.01866 12.5942-18.89757 13.73912-19.7367 14.88405-20.54468 16.02898-21.31891 17.1739-22.06764 18.31883-22.79344 19.46378-23.49373 20.60869-24.1741 21.75362-24.8376 22.89854-25.48123 24.04347-26.11058 25.18842-26.72607 26.33333-27.32426 27.47826-27.91382 28.62318-28.4839 29.76811-29.04793 30.91306-29.60115 32.05797-30.144 33.2029-30.67773 34.34782-31.20285 35.49275-31.71799 36.63768-32.22536 37.78261-32.72581 38.92755-33.21674 40.07246-33.70161 41.21739-34.18 42.36232-34.65147 43.50725-35.11688 44.65219-35.57451 45.7971-36.0278 46.94203-36.47504 48.08696-36.91797 49.23189-37.35483 50.37683-37.78737 51.52174-38.21169 52.66667-38.6343 53.8116-39.0534 54.95653-39.46518 56.10147-39.87523 57.24638-40.28139 58.39133-40.68234 59.53624-41.07898 60.68117-41.47215 61.82611-41.86188 62.97102-42.24771 64.11597-42.62964 65.26088-43.00853 66.4058-43.38397 67.55075-43.75682 68.69566-44.1262 69.8406-44.49214 70.98552-44.85547 72.13045-45.21535 73.27538-45.57304 74.4203-45.92729 75.56525-46.28026 76.71016-46.62889 77.8551-46.97534 79.00002-47.31879 80.14494-47.66092 81.28989-48.00131 82.4348-48.3374 83.57974-48.67218 84.72466-49.00395 85.86958-49.33484 87.01453-49.6614 88.15944-49.98798 89.30438-50.30934 90.4493-50.6307 91.59422-50.95036 92.73917-51.26743 93.88408-51.5836 95.02902-51.89848 96.17393-52.20905 97.31888-52.51918 98.4638-52.82758 99.60872-53.1338 100.75366-53.4392 101.89857-53.7385 103.04352-54.03912 104.18845-54.3406 105.33336-54.63644 106.4783-54.93187 107.62321-55.23076 108.76816-55.52057 109.91307-55.81252 111.058-56.1032 112.20294-56.39084 113.34785-56.67802"/>
<path transform="matrix(1.00005,0,0,-1.00003,29.576527,58.893709)" stroke-width=".3985" stroke-linecap="butt" stroke-miterlimit="10" stroke-linejoin="miter" fill="none" stroke="#000000" d="M113.38724-56.69362V56.69362"/>
<path transform="matrix(1.00005,0,0,-1.00003,29.576527,58.893709)" stroke-width=".3985" stroke-linecap="butt" stroke-miterlimit="10" stroke-linejoin="miter" fill="none" stroke="#000000" d="M0 0H5.66927 0"/>
<g>
<path transform="matrix(1.00005,0,0,-1.00003,29.576527,58.893709)" d="M0 0V0H5.66927ZM5.66927 0" fill="#0000ff" fill-opacity=".2"/>
<path transform="matrix(1.00005,0,0,-1.00003,29.576527,58.893709)" stroke-width=".3985" stroke-linecap="butt" stroke-miterlimit="10" stroke-linejoin="miter" fill="none" stroke="#000000" stroke-opacity=".2" d="M0 0V0H5.66927ZM5.66927 0"/>
</g>
<path transform="matrix(1.00005,0,0,-1.00003,29.576527,58.893709)" stroke-width=".3985" stroke-linecap="butt" stroke-miterlimit="10" stroke-linejoin="miter" fill="none" stroke="#000000" d="M5.66927-12.67682H11.33855V12.67682H5.66927V-12.67682"/>
<g>
<path transform="matrix(1.00005,0,0,-1.00003,29.576527,58.893709)" d="M5.66927-12.67682V12.67682H11.33855V-12.67682ZM11.33855 12.67682" fill="#0000ff" fill-opacity=".2"/>
<path transform="matrix(1.00005,0,0,-1.00003,29.576527,58.893709)" stroke-width=".3985" stroke-linecap="butt" stroke-miterlimit="10" stroke-linejoin="miter" fill="none" stroke="#000000" stroke-opacity=".2" d="M5.66927-12.67682V12.67682H11.33855V-12.67682ZM11.33855 12.67682"/>
</g>
<path transform="matrix(1.00005,0,0,-1.00003,29.576527,58.893709)" stroke-width=".3985" stroke-linecap="butt" stroke-miterlimit="10" stroke-linejoin="miter" fill="none" stroke="#000000" d="M11.33855-17.92783H17.00781V17.92783H11.33855V-17.92783"/>
<g>
<path transform="matrix(1.00005,0,0,-1.00003,29.576527,58.893709)" d="M11.33855-17.92783V17.92783H17.00781V-17.92783ZM17.00781 17.92783" fill="#0000ff" fill-opacity=".2"/>
<path transform="matrix(1.00005,0,0,-1.00003,29.576527,58.893709)" stroke-width=".3985" stroke-linecap="butt" stroke-miterlimit="10" stroke-linejoin="miter" fill="none" stroke="#000000" stroke-opacity=".2" d="M11.33855-17.92783V17.92783H17.00781V-17.92783ZM17.00781 17.92783"/>
</g>
<path transform="matrix(1.00005,0,0,-1.00003,29.576527,58.893709)" stroke-width=".3985" stroke-linecap="butt" stroke-miterlimit="10" stroke-linejoin="miter" fill="none" stroke="#000000" d="M17.00781-21.95735H22.6771V21.95735H17.00781V-21.95735"/>
<g>
<path transform="matrix(1.00005,0,0,-1.00003,29.576527,58.893709)" d="M17.00781-21.95735V21.95735H22.6771V-21.95735ZM22.6771 21.95735" fill="#0000ff" fill-opacity=".2"/>
<path transform="matrix(1.00005,0,0,-1.00003,29.576527,58.893709)" stroke-width=".3985" stroke-linecap="butt" stroke-miterlimit="10" stroke-linejoin="miter" fill="none" stroke="#000000" stroke-opacity=".2" d="M17.00781-21.95735V21.95735H22.6771V-21.95735ZM22.6771 21.95735"/>
</g>
<path transform="matrix(1.00005,0,0,-1.00003,29.576527,58.893709)" stroke-width=".3985" stroke-linecap="butt" stroke-miterlimit="10" stroke-linejoin="miter" fill="none" stroke="#000000" d="M22.6771-25.35406H28.34636V25.35406H22.6771V-25.35406"/>
<g>
<path transform="matrix(1.00005,0,0,-1.00003,29.576527,58.893709)" d="M22.6771-25.35406V25.35406H28.34636V-25.35406ZM28.34636 25.35406" fill="#0000ff" fill-opacity=".2"/>
<path transform="matrix(1.00005,0,0,-1.00003,29.576527,58.893709)" stroke-width=".3985" stroke-linecap="butt" stroke-miterlimit="10" stroke-linejoin="miter" fill="none" stroke="#000000" stroke-opacity=".2" d="M22.6771-25.35406V25.35406H28.34636V-25.35406ZM28.34636 25.35406"/>
</g>
<path transform="matrix(1.00005,0,0,-1.00003,29.576527,58.893709)" stroke-width=".3985" stroke-linecap="butt" stroke-miterlimit="10" stroke-linejoin="miter" fill="none" stroke="#000000" d="M28.34636-28.34636H34.01564V28.34636H28.34636V-28.34636"/>
<g>
<path transform="matrix(1.00005,0,0,-1.00003,29.576527,58.893709)" d="M28.34636-28.34636V28.34636H34.01564V-28.34636ZM34.01564 28.34636" fill="#0000ff" fill-opacity=".2"/>
<path transform="matrix(1.00005,0,0,-1.00003,29.576527,58.893709)" stroke-width=".3985" stroke-linecap="butt" stroke-miterlimit="10" stroke-linejoin="miter" fill="none" stroke="#000000" stroke-opacity=".2" d="M28.34636-28.34636V28.34636H34.01564V-28.34636ZM34.01564 28.34636"/>
</g>
<path transform="matrix(1.00005,0,0,-1.00003,29.576527,58.893709)" stroke-width=".3985" stroke-linecap="butt" stroke-miterlimit="10" stroke-linejoin="miter" fill="none" stroke="#000000" d="M34.01564-31.0519H39.6849V31.0519H34.01564V-31.0519"/>
<g>
<path transform="matrix(1.00005,0,0,-1.00003,29.576527,58.893709)" d="M34.01564-31.0519V31.0519H39.6849V-31.0519ZM39.6849 31.0519" fill="#0000ff" fill-opacity=".2"/>
<path transform="matrix(1.00005,0,0,-1.00003,29.576527,58.893709)" stroke-width=".3985" stroke-linecap="butt" stroke-miterlimit="10" stroke-linejoin="miter" fill="none" stroke="#000000" stroke-opacity=".2" d="M34.01564-31.0519V31.0519H39.6849V-31.0519ZM39.6849 31.0519"/>
</g>
<path transform="matrix(1.00005,0,0,-1.00003,29.576527,58.893709)" stroke-width=".3985" stroke-linecap="butt" stroke-miterlimit="10" stroke-linejoin="miter" fill="none" stroke="#000000" d="M39.6849-33.53984H45.35419V33.53984H39.6849V-33.53984"/>
<g>
<path transform="matrix(1.00005,0,0,-1.00003,29.576527,58.893709)" d="M39.6849-33.53984V33.53984H45.35419V-33.53984ZM45.35419 33.53984" fill="#0000ff" fill-opacity=".2"/>
<path transform="matrix(1.00005,0,0,-1.00003,29.576527,58.893709)" stroke-width=".3985" stroke-linecap="butt" stroke-miterlimit="10" stroke-linejoin="miter" fill="none" stroke="#000000" stroke-opacity=".2" d="M39.6849-33.53984V33.53984H45.35419V-33.53984ZM45.35419 33.53984"/>
</g>
<path transform="matrix(1.00005,0,0,-1.00003,29.576527,58.893709)" stroke-width=".3985" stroke-linecap="butt" stroke-miterlimit="10" stroke-linejoin="miter" fill="none" stroke="#000000" d="M45.35419-35.85565H51.02345V35.85565H45.35419V-35.85565"/>
<g>
<path transform="matrix(1.00005,0,0,-1.00003,29.576527,58.893709)" d="M45.35419-35.85565V35.85565H51.02345V-35.85565ZM51.02345 35.85565" fill="#0000ff" fill-opacity=".2"/>
<path transform="matrix(1.00005,0,0,-1.00003,29.576527,58.893709)" stroke-width=".3985" stroke-linecap="butt" stroke-miterlimit="10" stroke-linejoin="miter" fill="none" stroke="#000000" stroke-opacity=".2" d="M45.35419-35.85565V35.85565H51.02345V-35.85565ZM51.02345 35.85565"/>
</g>
<path transform="matrix(1.00005,0,0,-1.00003,29.576527,58.893709)" stroke-width=".3985" stroke-linecap="butt" stroke-miterlimit="10" stroke-linejoin="miter" fill="none" stroke="#000000" d="M51.02345-38.03046H56.69275V38.03046H51.02345V-38.03046"/>
<g>
<path transform="matrix(1.00005,0,0,-1.00003,29.576527,58.893709)" d="M51.02345-38.03046V38.03046H56.69275V-38.03046ZM56.69275 38.03046" fill="#0000ff" fill-opacity=".2"/>
<path transform="matrix(1.00005,0,0,-1.00003,29.576527,58.893709)" stroke-width=".3985" stroke-linecap="butt" stroke-miterlimit="10" stroke-linejoin="miter" fill="none" stroke="#000000" stroke-opacity=".2" d="M51.02345-38.03046V38.03046H56.69275V-38.03046ZM56.69275 38.03046"/>
</g>
<path transform="matrix(1.00005,0,0,-1.00003,29.576527,58.893709)" stroke-width=".3985" stroke-linecap="butt" stroke-miterlimit="10" stroke-linejoin="miter" fill="none" stroke="#000000" d="M56.69275-40.08803H62.36201V40.08803H56.69275V-40.08803"/>
<g>
<path transform="matrix(1.00005,0,0,-1.00003,29.576527,58.893709)" d="M56.69275-40.08803V40.08803H62.36201V-40.08803ZM62.36201 40.08803" fill="#0000ff" fill-opacity=".2"/>
<path transform="matrix(1.00005,0,0,-1.00003,29.576527,58.893709)" stroke-width=".3985" stroke-linecap="butt" stroke-miterlimit="10" stroke-linejoin="miter" fill="none" stroke="#000000" stroke-opacity=".2" d="M56.69275-40.08803V40.08803H62.36201V-40.08803ZM62.36201 40.08803"/>
</g>
<path transform="matrix(1.00005,0,0,-1.00003,29.576527,58.893709)" stroke-width=".3985" stroke-linecap="butt" stroke-miterlimit="10" stroke-linejoin="miter" fill="none" stroke="#000000" d="M62.36201-42.0444H68.0313V42.0444H62.36201V-42.0444"/>
<g>
<path transform="matrix(1.00005,0,0,-1.00003,29.576527,58.893709)" d="M62.36201-42.0444V42.0444H68.0313V-42.0444ZM68.0313 42.0444" fill="#0000ff" fill-opacity=".2"/>
<path transform="matrix(1.00005,0,0,-1.00003,29.576527,58.893709)" stroke-width=".3985" stroke-linecap="butt" stroke-miterlimit="10" stroke-linejoin="miter" fill="none" stroke="#000000" stroke-opacity=".2" d="M62.36201-42.0444V42.0444H68.0313V-42.0444ZM68.0313 42.0444"/>
</g>
<path transform="matrix(1.00005,0,0,-1.00003,29.576527,58.893709)" stroke-width=".3985" stroke-linecap="butt" stroke-miterlimit="10" stroke-linejoin="miter" fill="none" stroke="#000000" d="M68.0313-43.91426H73.70056V43.91426H68.0313V-43.91426"/>
<g>
<path transform="matrix(1.00005,0,0,-1.00003,29.576527,58.893709)" d="M68.0313-43.91426V43.91426H73.70056V-43.91426ZM73.70056 43.91426" fill="#0000ff" fill-opacity=".2"/>
<path transform="matrix(1.00005,0,0,-1.00003,29.576527,58.893709)" stroke-width=".3985" stroke-linecap="butt" stroke-miterlimit="10" stroke-linejoin="miter" fill="none" stroke="#000000" stroke-opacity=".2" d="M68.0313-43.91426V43.91426H73.70056V-43.91426ZM73.70056 43.91426"/>
</g>
<path transform="matrix(1.00005,0,0,-1.00003,29.576527,58.893709)" stroke-width=".3985" stroke-linecap="butt" stroke-miterlimit="10" stroke-linejoin="miter" fill="none" stroke="#000000" d="M73.70056-45.70714H79.36984V45.70714H73.70056V-45.70714"/>
<g>
<path transform="matrix(1.00005,0,0,-1.00003,29.576527,58.893709)" d="M73.70056-45.70714V45.70714H79.36984V-45.70714ZM79.36984 45.70714" fill="#0000ff" fill-opacity=".2"/>
<path transform="matrix(1.00005,0,0,-1.00003,29.576527,58.893709)" stroke-width=".3985" stroke-linecap="butt" stroke-miterlimit="10" stroke-linejoin="miter" fill="none" stroke="#000000" stroke-opacity=".2" d="M73.70056-45.70714V45.70714H79.36984V-45.70714ZM79.36984 45.70714"/>
</g>
<path transform="matrix(1.00005,0,0,-1.00003,29.576527,58.893709)" stroke-width=".3985" stroke-linecap="butt" stroke-miterlimit="10" stroke-linejoin="miter" fill="none" stroke="#000000" d="M79.36984-47.43254H85.03911V47.43254H79.36984V-47.43254"/>
<g>
<path transform="matrix(1.00005,0,0,-1.00003,29.576527,58.893709)" d="M79.36984-47.43254V47.43254H85.03911V-47.43254ZM85.03911 47.43254" fill="#0000ff" fill-opacity=".2"/>
<path transform="matrix(1.00005,0,0,-1.00003,29.576527,58.893709)" stroke-width=".3985" stroke-linecap="butt" stroke-miterlimit="10" stroke-linejoin="miter" fill="none" stroke="#000000" stroke-opacity=".2" d="M79.36984-47.43254V47.43254H85.03911V-47.43254ZM85.03911 47.43254"/>
</g>
<path transform="matrix(1.00005,0,0,-1.00003,29.576527,58.893709)" stroke-width=".3985" stroke-linecap="butt" stroke-miterlimit="10" stroke-linejoin="miter" fill="none" stroke="#000000" d="M85.03911-49.09737H90.70839V49.09737H85.03911V-49.09737"/>
<g>
<path transform="matrix(1.00005,0,0,-1.00003,29.576527,58.893709)" d="M85.03911-49.09737V49.09737H90.70839V-49.09737ZM90.70839 49.09737" fill="#0000ff" fill-opacity=".2"/>
<path transform="matrix(1.00005,0,0,-1.00003,29.576527,58.893709)" stroke-width=".3985" stroke-linecap="butt" stroke-miterlimit="10" stroke-linejoin="miter" fill="none" stroke="#000000" stroke-opacity=".2" d="M85.03911-49.09737V49.09737H90.70839V-49.09737ZM90.70839 49.09737"/>
</g>
<path transform="matrix(1.00005,0,0,-1.00003,29.576527,58.893709)" stroke-width=".3985" stroke-linecap="butt" stroke-miterlimit="10" stroke-linejoin="miter" fill="none" stroke="#000000" d="M90.70839-50.70772H96.37766V50.70772H90.70839V-50.70772"/>
<g>
<path transform="matrix(1.00005,0,0,-1.00003,29.576527,58.893709)" d="M90.70839-50.70772V50.70772H96.37766V-50.70772ZM96.37766 50.70772" fill="#0000ff" fill-opacity=".2"/>
<path transform="matrix(1.00005,0,0,-1.00003,29.576527,58.893709)" stroke-width=".3985" stroke-linecap="butt" stroke-miterlimit="10" stroke-linejoin="miter" fill="none" stroke="#000000" stroke-opacity=".2" d="M90.70839-50.70772V50.70772H96.37766V-50.70772ZM96.37766 50.70772"/>
</g>
<path transform="matrix(1.00005,0,0,-1.00003,29.576527,58.893709)" stroke-width=".3985" stroke-linecap="butt" stroke-miterlimit="10" stroke-linejoin="miter" fill="none" stroke="#000000" d="M96.37766-52.2683H102.04694V52.2683H96.37766V-52.2683"/>
<g>
<path transform="matrix(1.00005,0,0,-1.00003,29.576527,58.893709)" d="M96.37766-52.2683V52.2683H102.04694V-52.2683ZM102.04694 52.2683" fill="#0000ff" fill-opacity=".2"/>
<path transform="matrix(1.00005,0,0,-1.00003,29.576527,58.893709)" stroke-width=".3985" stroke-linecap="butt" stroke-miterlimit="10" stroke-linejoin="miter" fill="none" stroke="#000000" stroke-opacity=".2" d="M96.37766-52.2683V52.2683H102.04694V-52.2683ZM102.04694 52.2683"/>
</g>
<path transform="matrix(1.00005,0,0,-1.00003,29.576527,58.893709)" stroke-width=".3985" stroke-linecap="butt" stroke-miterlimit="10" stroke-linejoin="miter" fill="none" stroke="#000000" d="M102.04694-53.78392H107.71623V53.78392H102.04694V-53.78392"/>
<g>
<path transform="matrix(1.00005,0,0,-1.00003,29.576527,58.893709)" d="M102.04694-53.78392V53.78392H107.71623V-53.78392ZM107.71623 53.78392" fill="#0000ff" fill-opacity=".2"/>
<path transform="matrix(1.00005,0,0,-1.00003,29.576527,58.893709)" stroke-width=".3985" stroke-linecap="butt" stroke-miterlimit="10" stroke-linejoin="miter" fill="none" stroke="#000000" stroke-opacity=".2" d="M102.04694-53.78392V53.78392H107.71623V-53.78392ZM107.71623 53.78392"/>
</g>
<path transform="matrix(1.00005,0,0,-1.00003,29.576527,58.893709)" stroke-width=".3985" stroke-linecap="butt" stroke-miterlimit="10" stroke-linejoin="miter" fill="none" stroke="#000000" d="M107.71623-55.25757H113.3855V55.25757H107.71623V-55.25757"/>
<g>
<path transform="matrix(1.00005,0,0,-1.00003,29.576527,58.893709)" d="M107.71623-55.25757V55.25757H113.3855V-55.25757ZM113.3855 55.25757" fill="#0000ff" fill-opacity=".2"/>
<path transform="matrix(1.00005,0,0,-1.00003,29.576527,58.893709)" stroke-width=".3985" stroke-linecap="butt" stroke-miterlimit="10" stroke-linejoin="miter" fill="none" stroke="#000000" stroke-opacity=".2" d="M107.71623-55.25757V55.25757H113.3855V-55.25757ZM113.3855 55.25757"/>
</g>
<path transform="matrix(1.00005,0,0,-1.00003,29.576527,58.893709)" stroke-width=".3985" stroke-linecap="butt" stroke-miterlimit="10" stroke-linejoin="miter" fill="none" stroke="#000000" d="M113.3855-56.69318H119.05478V56.69318H113.3855V-56.69318"/>
<g>
<path transform="matrix(1.00005,0,0,-1.00003,29.576527,58.893709)" d="M113.3855-56.69318V56.69318H119.05478V-56.69318ZM119.05478 56.69318" fill="#0000ff" fill-opacity=".2"/>
<path transform="matrix(1.00005,0,0,-1.00003,29.576527,58.893709)" stroke-width=".3985" stroke-linecap="butt" stroke-miterlimit="10" stroke-linejoin="miter" fill="none" stroke="#000000" stroke-opacity=".2" d="M113.3855-56.69318V56.69318H119.05478V-56.69318ZM119.05478 56.69318"/>
</g>
<path transform="matrix(1.00005,0,0,-1.00003,29.576527,58.893709)" stroke-width=".3985" stroke-linecap="butt" stroke-miterlimit="10" stroke-linejoin="miter" fill="none" stroke="#000000" d="M56.69362-40.48091C56.90619-43.46977 57.40227-45.4623 58.11092-45.4623H58.11093C58.8196-45.4623 59.31566-47.45482 59.52824-50.44368 59.74083-47.45482 60.23691-45.4623 60.94556-45.4623H60.94557C61.65424-45.4623 62.1503-43.46977 62.36288-40.48091"/>
<use data-text="&#x2206;" xlink:href="#font_2_1" transform="matrix(9.963098,0,0,-9.962899,82.109149,116.953449)"/>
<use data-text="x" xlink:href="#font_3_1" transform="matrix(9.963098,0,0,-9.962899,90.41156,116.953449)"/>
</svg>
