<svg xmlns="http://www.w3.org/2000/svg" xmlns:xlink="http://www.w3.org/1999/xlink" version="1.1" width="104" height="92" viewBox="0 0 104 92">
<defs>
<path id="font_1_1" d="M.6589966 .23046875C.6759949 .23046875 .69400027 .23046875 .69400027 .25045777 .69400027 .27046205 .6759949 .27046205 .6589966 .27046205H.117996219C.100997928 .27046205 .08299255 .27046205 .08299255 .25045777 .08299255 .23046875 .100997928 .23046875 .117996219 .23046875H.6589966Z"/>
<path id="font_2_3" d="M.43998719 .16790772H.41799928C.4149933 .15092469 .40699769 .09597778 .39698792 .07998657 .3899994 .070999149 .33299256 .070999149 .30299378 .070999149H.117996219C.14498902 .09397888 .20599365 .15792847 .23199463 .18190003 .38398744 .3217926 .43998719 .37374879 .43998719 .47270204 .43998719 .5878906 .34899903 .66503909 .23298645 .66503909 .116989139 .66503909 .04899597 .5658264 .04899597 .4797058 .04899597 .42871095 .09298706 .42871095 .09599304 .42871095 .116989139 .42871095 .14299011 .44371034 .14299011 .475708 .14299011 .5037079 .12399292 .5227051 .09599304 .5227051 .08699036 .5227051 .084991458 .5227051 .08198547 .521698 .100997928 .5899048 .15499878 .6360321 .21998596 .6360321 .30499269 .6360321 .35699464 .56481936 .35699464 .47270204 .35699464 .3877411 .30799867 .313797 .25099183 .24984741L.04899597 .023986817V0H.4139862L.43998719 .16790772Z"/>
<path id="font_2_2" d="M.28799439 .64105227C.28799439 .664032 .28799439 .66503909 .2679901 .66503909 .24398804 .6380615 .19400025 .6012573 .09098816 .6012573V.5722656C.11399841 .5722656 .1639862 .5722656 .21899414 .59825137V.07701111C.21899414 .041000368 .21598816 .0289917 .12799073 .0289917H.09700012V0C.12399292 .0019989014 .22099304 .0019989014 .2539978 .0019989014 .2869873 .0019989014 .3829956 .0019989014 .4099884 0V.0289917H.3789978C.29100038 .0289917 .28799439 .041000368 .28799439 .07701111V.64105227Z"/>
<path id="font_2_1" d="M.44799806 .31976319C.44799806 .40283204 .44299317 .48390199 .40699769 .55996707 .3659973 .64302065 .2939911 .66503909 .24499512 .66503909 .18699646 .66503909 .115997318 .63601687 .07899475 .552948 .050994874 .48989869 .040985109 .42785646 .040985109 .31976319 .040985109 .22268677 .04798889 .14962769 .083999637 .078567508 .12298584 .0025177003 .19198609-.021484375 .24398804-.021484375 .33099366-.021484375 .3809967 .030532837 .4099884 .08857727 .44599916 .16363526 .44799806 .26171876 .44799806 .31976319M.24398804-.0014953613C.21199036-.0014953613 .14698792 .016525269 .12799073 .12561035 .116989139 .18565369 .116989139 .26171876 .116989139 .33177186 .116989139 .41384889 .116989139 .48789979 .1329956 .5469513 .1499939 .6139984 .20098877 .6450348 .24398804 .6450348 .28199769 .6450348 .33999635 .6220093 .35899354 .53593447 .37199403 .4788971 .37199403 .39982606 .37199403 .33177186 .37199403 .26472474 .37199403 .18865967 .36099244 .12760926 .34199525 .01751709 .2789917-.0014953613 .24398804-.0014953613Z"/>
<path id="font_2_4" d="M.36099244 .6508026C.36099244 .6697998 .36099244 .6748047 .34700013 .6748047 .33898927 .6748047 .33599855 .6748047 .32798768 .662796L.026992798 .19598389V.16699219H.2899933V.07598877C.2899933 .038986207 .28799439 .0289917 .21499634 .0289917H.19499207V0C.21798706 .0019989014 .29699708 .0019989014 .32499696 .0019989014 .35299684 .0019989014 .43299867 .0019989014 .45599366 0V.0289917H.43598939C.3639984 .0289917 .36099244 .038986207 .36099244 .07598877V.16699219H.46199037V.19598389H.36099244V.6508026M.29499818 .5728302V.19598389H.051986696L.29499818 .5728302Z"/>
<path id="font_2_5" d="M.12298584 .34773255C.12298584 .60061648 .24598694 .641037 .2999878 .641037 .33599855 .641037 .37199403 .62991335 .3909912 .5996094 .3789978 .5996094 .34098817 .5996094 .34098817 .558609 .34098817 .53660586 .35598756 .51760867 .38198854 .51760867 .40699769 .51760867 .42399598 .53260806 .42399598 .56159976 .42399598 .6137543 .38598634 .66503909 .29899598 .66503909 .17298889 .66503909 .040985109 .53559878 .040985109 .31570436 .040985109 .040527345 .16099549-.021484375 .24598694-.021484375 .35499574-.021484375 .44799806 .07354736 .44799806 .2036438 .44799806 .33673097 .35499574 .42578126 .25498963 .42578126 .1659851 .42578126 .1329956 .34873963 .12298584 .32070924V.34773255M.24598694 .005508423C.18299866 .005508423 .15299988 .061538698 .14399719 .08256531 .1349945 .10858154 .125 .15760803 .125 .22766114 .125 .30670167 .16099549 .40577699 .25099183 .40577699 .30599977 .40577699 .33499146 .3687439 .34999085 .33473207 .3659973 .29769898 .3659973 .2476654 .3659973 .20463562 .3659973 .15361023 .3659973 .10858154 .34700013 .07055664 .32199098 .022521973 .28599549 .005508423 .24598694 .005508423Z"/>
<path id="font_2_6" d="M.2979889 .36079408C.34799195 .38781739 .42099 .43385316 .42099 .5179291 .42099 .6049957 .33699037 .66503909 .24499512 .66503909 .1459961 .66503909 .067993167 .59199526 .067993167 .5009155 .067993167 .46688844 .07798767 .43286134 .10598755 .39883424 .116989139 .38581849 .117996219 .38482667 .18798828 .3357849 .09098816 .29074098 .040985109 .22369385 .040985109 .15063477 .040985109 .044540407 .14199829-.021484375 .24398804-.021484375 .35499574-.021484375 .44799806 .060546876 .44799806 .16563416 .44799806 .2677307 .37599183 .3127594 .2979889 .36079408M.1619873 .4508667C.14898682 .45988465 .10899353 .48590089 .10899353 .5349426 .10899353 .59999087 .1769867 .641037 .24398804 .641037 .31599427 .641037 .37998963 .58898928 .37998963 .516922 .37998963 .45587159 .33599855 .4068451 .27799989 .3748169L.1619873 .4508667M.20899964 .32176209 .32998658 .2427063C.35598756 .22569275 .4019928 .19465637 .4019928 .13360596 .4019928 .057556154 .32499696 .005508423 .24499512 .005508423 .1599884 .005508423 .08699036 .06756592 .08699036 .15063477 .08699036 .22869873 .14399719 .29174806 .20899964 .32176209Z"/>
<clipPath id="clip_3">
<path transform="matrix(.5,0,0,-.500015,4.6105005,83.56204)" d="M0 0H194.2769V161.39722H0Z"/>
</clipPath>
</defs>
<path transform="matrix(.5,0,0,-.500015,4.6105005,83.56204)" stroke-width=".19925" stroke-linecap="butt" stroke-miterlimit="10" stroke-linejoin="miter" fill="none" stroke="#929292" d="M0-2.12581V2.12581M48.56879-2.12581V2.12581M145.70639-2.12581V2.12581M194.27519-2.12581V2.12581"/>
<path transform="matrix(.5,0,0,-.500015,4.6105005,83.56204)" stroke-width=".19925" stroke-linecap="butt" stroke-miterlimit="10" stroke-linejoin="miter" fill="none" stroke="#929292" d="M95.01173 31.93346H99.26344M95.01173 64.2711H99.26344M95.01173 96.60875H99.26344M95.01173 128.9464H99.26344M95.01173 161.28404H99.26344"/>
<path transform="matrix(.5,0,0,-.500015,4.6105005,83.56204)" stroke-width=".3985" stroke-linecap="butt" stroke-miterlimit="10" stroke-linejoin="miter" fill="none" stroke="#000000" d="M0 0H192.28438"/>
<path transform="matrix(.5,0,0,-.500015,100.752689,83.56204)" d="M1.99252 0-1.19551 1.59401 0 0-1.19551-1.59401"/>
<path transform="matrix(.5,0,0,-.500015,4.6105005,83.56204)" stroke-width=".3985" stroke-linecap="butt" stroke-miterlimit="10" stroke-linejoin="miter" fill="none" stroke="#000000" d="M97.13759 0V159.4047"/>
<path transform="matrix(0,-.500015,-.5,-0,53.179296,3.8572999)" d="M1.99252 0-1.19551 1.59401 0 0-1.19551-1.59401"/>
<use data-text="&#x2212;" xlink:href="#font_1_1" transform="matrix(5.9776,0,0,-5.97778,.8225002,90.56925)"/>
<use data-text="2" xlink:href="#font_2_3" transform="matrix(5.9776,0,0,-5.97778,5.4715006,90.56925)"/>
<use data-text="&#x2212;" xlink:href="#font_1_1" transform="matrix(5.9776,0,0,-5.97778,25.107,90.56925)"/>
<use data-text="1" xlink:href="#font_2_2" transform="matrix(5.9776,0,0,-5.97778,29.756,90.56925)"/>
<use data-text="1" xlink:href="#font_2_2" transform="matrix(5.9776,0,0,-5.97778,76.0005,90.56925)"/>
<use data-text="2" xlink:href="#font_2_3" transform="matrix(5.9776,0,0,-5.97778,100.285,90.56925)"/>
<use data-text="2" xlink:href="#font_2_3" transform="matrix(5.9776,0,0,-5.97778,44.1715,69.52112)"/>
<use data-text="0" xlink:href="#font_2_1" transform="matrix(5.9776,0,0,-5.97778,47.100526,69.52112)"/>
<use data-text="4" xlink:href="#font_2_4" transform="matrix(5.9776,0,0,-5.97778,44.1715,53.351636)"/>
<use data-text="0" xlink:href="#font_2_1" transform="matrix(5.9776,0,0,-5.97778,47.100526,53.351636)"/>
<use data-text="6" xlink:href="#font_2_5" transform="matrix(5.9776,0,0,-5.97778,44.1715,37.18265)"/>
<use data-text="0" xlink:href="#font_2_1" transform="matrix(5.9776,0,0,-5.97778,47.100526,37.18265)"/>
<use data-text="8" xlink:href="#font_2_6" transform="matrix(5.9776,0,0,-5.97778,44.1715,21.01316)"/>
<use data-text="0" xlink:href="#font_2_1" transform="matrix(5.9776,0,0,-5.97778,47.100526,21.01316)"/>
<use data-text="1" xlink:href="#font_2_2" transform="matrix(5.9776,0,0,-5.97778,41.245,4.8436739)"/>
<use data-text="0" xlink:href="#font_2_1" transform="matrix(5.9776,0,0,-5.97778,44.174024,4.8436739)"/>
<use data-text="0" xlink:href="#font_2_1" transform="matrix(5.9776,0,0,-5.97778,47.103048,4.8436739)"/>
<g clip-path="url(#clip_3)">
<path transform="matrix(.5,0,0,-.500015,4.6105005,83.56204)" stroke-width=".79701" stroke-linecap="butt" stroke-miterlimit="10" stroke-linejoin="miter" fill="none" stroke="#0000ff" d="M0 .00002 .18492 .00157 .36986 .00313 .5548 .00467 .73972 .00624 .92465 .00781 1.10959 .00941 1.29453 .01102 1.47946 .01262 1.6644 .01425 1.84933 .01588 2.03426 .01747 2.2192 .01917 2.40413 .02078 2.58907 .02248 2.774 .02415 2.95894 .02582 3.14388 .02751 3.3288 .02919 3.51373 .03093 3.69868 .03265 3.8836 .0344 4.06854 .03615 4.25348 .03789 4.4384 .03966 4.62334 .04144 4.80827 .04323 4.99323 .04501 5.17815 .04683 5.36308 .04866 5.54802 .05046 5.73294 .05232 5.91788 .05418 6.10281 .05603 6.28777 .05789 6.47269 .0598 6.65762 .06169 6.84256 .0636 7.02748 .0655 7.21242 .06747 7.39737 .0694 7.5823 .07137 7.76723 .07335 7.95216 .07532 8.1371 .07732 8.32202 .07932 8.50696 .08136 8.69191 .08337 8.87683 .08542 9.06177 .0875 9.2467 .08955 9.43164 .09163 9.61656 .09372 9.80151 .09586 9.98645 .09798 10.17137 .1001 10.35631 .10225 10.54124 .10443 10.72618 .1066 10.9111 .10881 11.09605 .11098 11.28099 .1132 11.46591 .11546 11.65085 .11769 11.83578 .11996 12.0207 .12225 12.20564 .12453 12.3906 .12686 12.57553 .12918 12.76045 .13152 12.94539 .1339 13.13033 .13626 13.31525 .13866 13.5002 .14104 13.68513 .14345 13.87007 .1459 14.055 .14835 14.23993 .15082 14.42487 .1533 14.60979 .15578 14.79474 .15831 14.97968 .16084 15.16461 .1634 15.34953 .166 15.53447 .16858 15.7194 .17117 15.90433 .1738 16.08928 .17642 16.27422 .1791 16.45914 .18178 16.64407 .18445 16.82901 .18718 17.01395 .18993 17.19888 .19269 17.38382 .19543 17.56876 .19823 17.75368 .20103 17.93861 .20389 18.12355 .20673 18.30849 .20958 18.49342 .21246 18.67836 .2154 18.8633 .2183 19.04822 .22127 19.23315 .22424 19.41809 .22723 19.60303 .23026 19.78796 .23328 19.9729 .23634 20.15784 .23943 20.34276 .24255 20.5277 .24567 20.71263 .24881 20.89757 .252 21.0825 .25516 21.26744 .25839 21.45238 .26163 21.6373 .2649 21.82224 .26819 22.00717 .2715 22.19211 .27484 22.37704 .27821 22.56198 .2816 22.74692 .28503 22.93184 .28845 23.11678 .29192 23.30173 .29543 23.48665 .2989 23.67159 .30246 23.85652 .30605 24.04144 .30965 24.22638 .31328 24.41132 .31693 24.59627 .3206 24.78119 .32433 24.96613 .32805 25.15106 .3318 25.33598 .33563 25.52092 .33943 25.70587 .34328 25.89081 .34715 26.07573 .3511 26.26067 .35504 26.4456 .35902 26.63052 .363 26.81546 .36705 27.00041 .37112 27.18533 .37524 27.37027 .3794 27.5552 .38356 27.74014 .38776 27.92506 .39197 28.11 .39626 28.29495 .40056 28.47987 .40492 28.66481 .40926 28.84975 .41368 29.03468 .41814 29.2196 .42264 29.40456 .42717 29.5895 .4317 29.77441 .43633 29.95935 .44095 30.14429 .4456 30.32922 .45032 30.51414 .45506 30.6991 .45987 30.88403 .4647 31.06895 .46956 31.25389 .47447 31.43883 .47943 31.62375 .48444 31.80869 .48946 31.99364 .49454 32.17857 .4997 32.3635 .50485 32.54843 .51006 32.73337 .51532 32.91829 .52061 33.10324 .52597 33.28818 .53134 33.47311 .5368 33.65804 .54231 33.84297 .54784 34.02791 .55342 34.21283 .55908 34.39778 .56474 34.58272 .57048 34.76764 .57626 34.95258 .58212 35.13751 .58798 35.32245 .59393 35.50739 .59996 35.69232 .606 35.87726 .61212 36.06218 .6183 36.24712 .62451 36.43205 .63077 36.61699 .63712 36.80193 .64354 36.98686 .64996 37.1718 .65648 37.35672 .66304 37.54166 .66968 37.7266 .67636 37.91153 .68314 38.09647 .68994 38.2814 .69684 38.46634 .7038 38.65126 .71078 38.8362 .71791 39.02113 .72505 39.20607 .7323 39.391 .7396 39.57594 .74693 39.76088 .75436 39.9458 .76186 40.13074 .76945 40.31567 .77708 40.50061 .78482 40.68555 .7926 40.87048 .80048 41.05542 .80849 41.24034 .8165 41.42528 .82463 41.61023 .83281 41.79515 .84111 41.98009 .84946 42.16502 .85793 42.34995 .86646 42.53488 .87508 42.71982 .88379 42.90477 .89256 43.08969 .90149 43.27463 .91046 43.45956 .91954 43.64449 .9287 43.82942 .93797 44.01436 .94733 44.19931 .95679 44.38423 .96637 44.56917 .976 44.7541 .98576 44.93903 .9956 45.12396 1.0056 45.30891 1.01569 45.49385 1.02586 45.67877 1.03615 45.86371 1.04659 46.04865 1.05714 46.23357 1.06772 46.4185 1.07848 46.60345 1.08939 46.78838 1.10036 46.97331 1.11145 47.15825 1.12271 47.34319 1.13408 47.5281 1.14558 47.71304 1.15714 47.898 1.1689 48.08292 1.1808 48.26785 1.19281 48.45279 1.20494 48.63773 1.2172 48.82265 1.22981 49.0076 1.24243 49.19254 1.25504 49.37746 1.26782 49.5624 1.28091 49.74734 1.29417 49.93227 1.30759 50.1172 1.32085 50.30214 1.3346 50.48708 1.3485 50.672 1.36224 50.85695 1.37663 51.04189 1.39087 51.2268 1.40524 51.41174 1.41997 51.5967 1.43483 51.78163 1.44987 51.96655 1.46524 52.15149 1.48044 52.33643 1.49596 52.52135 1.5118 52.7063 1.5278 52.89124 1.54413 53.07617 1.5603 53.2611 1.57697 53.44604 1.59378 53.63098 1.61076 53.8159 1.62805 54.00084 1.64551 54.18578 1.6633 54.3707 1.68109 54.55565 1.69936 54.74059 1.71764 54.92552 1.73639 55.11044 1.75531 55.2954 1.77438 55.48033 1.79378 55.66525 1.81334 55.85019 1.83325 56.03513 1.85345 56.22006 1.874 56.405 1.89467 56.58994 1.9157 56.77487 1.93687 56.9598 1.95856 57.14474 1.98053 57.32968 2.00269 57.5146 2.02516 57.69954 2.04813 57.88448 2.07108 58.06941 2.09485 58.25435 2.11847 58.43929 2.14288 58.62422 2.16713 58.80914 2.19203 58.9941 2.2174 59.17903 2.2428 59.36397 2.269 59.54889 2.29533 59.73383 2.32202 59.91876 2.34918 60.1037 2.37683 60.28864 2.40465 60.47357 2.4331 60.65851 2.46188 60.84344 2.4913 61.02838 2.52106 61.21332 2.5513 61.39824 2.58185 61.58318 2.61307 61.76811 2.64476 61.95305 2.67677 62.13799 2.70943 62.32292 2.74274 62.50786 2.77621 62.6928 2.81049 62.87773 2.84525 63.06267 2.88066 63.24759 2.91655 63.43253 2.9531 63.61746 2.99043 63.80241 3.02812 63.98734 3.06659 64.17227 3.10556 64.35721 3.14534 64.54214 3.18576 64.72708 3.22667 64.91202 3.2687 65.09694 3.31108 65.28188 3.35423 65.46681 3.39838 65.65176 3.44316 65.83669 3.48877 66.02162 3.53517 66.20656 3.58253 66.3915 3.63055 66.57643 3.67938 66.76137 3.72935 66.9463 3.78014 67.13123 3.83203 67.31616 3.88441 67.50111 3.93826 67.68604 3.99307 67.87097 4.04869 68.05591 4.1056 68.24086 4.1635 68.42578 4.2225 68.61072 4.28265 68.79565 4.3441 68.98058 4.40651 69.16551 4.47038 69.35046 4.53554 69.53539 4.60199 69.72032 4.66974 69.90526 4.73877 70.09021 4.80943 70.27513 4.88138 70.46007 4.95496 70.645 5.02998 70.82993 5.10678 71.01486 5.1852 71.19981 5.26508 71.38475 5.34673 71.56967 5.43016 71.75461 5.51553 71.93956 5.60283 72.12448 5.69193 72.30942 5.78328 72.49435 5.87625 72.67928 5.97165 72.86421 6.06914 73.04916 6.16908 73.2341 6.27094 73.41902 6.37555 73.60396 6.48242 73.78891 6.59204 73.97383 6.70427 74.15877 6.81921 74.3437 6.93694 74.52864 7.05754 74.71356 7.18092 74.89851 7.30768 75.08345 7.43752 75.26837 7.57074 75.45331 7.70705 75.63826 7.84756 75.8232 7.99129 76.00812 8.13892 76.19305 8.29025 76.37799 8.44597 76.56291 8.60571 76.74786 8.76999 76.9328 8.93878 77.11772 9.11212 77.30266 9.2903 77.48761 9.47365 77.67255 9.66234 77.85747 9.85669 78.0424 10.05606 78.22734 10.26155 78.41226 10.47353 78.59721 10.69133 78.78215 10.91608 78.96709 11.14777 79.15201 11.38643 79.33696 11.63283 79.5219 11.88701 79.70682 12.14943 79.89175 12.41994 80.07669 12.69917 80.26161 12.98811 80.44656 13.28658 80.6315 13.59492 80.81644 13.91394 81.00136 14.24443 81.18631 14.5859 81.37125 14.93936 81.55617 15.30576 81.7411 15.6854 81.92604 16.0783 82.11098 16.48898 82.29591 16.911 82.48085 17.34915 82.66579 17.80836 82.85071 18.2821 83.03566 18.77525 83.2206 19.28941 83.40552 19.82138 83.59045 20.3792 83.77539 20.95644 83.96033 21.56114 84.14526 22.19011 84.3302 22.84819 84.51514 23.53535 84.70006 24.25327 84.88501 25.0035 85.06995 25.78767 85.25488 26.60905 85.4398 27.47086 85.62474 28.37308 85.80968 29.31732 85.99461 30.31494 86.17955 31.36107 86.36449 32.45894 86.54942 33.61824 86.73436 34.83736 86.9193 36.1244 87.10423 37.4842 87.28915 38.92 87.47409 40.43987 87.65903 42.04866 87.84396 43.75609 88.0289 45.56862 88.21384 47.49109 88.39877 49.54129 88.58371 51.72409 88.76865 54.05078 88.95358 56.54077 89.1385 59.2054 89.32344 62.05919 89.50838 65.12318 89.69333 68.42001 89.87825 71.9723 90.06319 75.80594 90.24812 79.95161 90.43306 84.44656 90.618 89.32954 90.80293 94.64261 90.98785 100.4456 91.17279 106.79672 91.35773 113.7671 91.54268 121.43759 91.7276 129.91329 91.91254 139.29929 92.09747 149.7395 92.28241 161.39722"/>
<path transform="matrix(.5,0,0,-.500015,4.6105005,83.56204)" stroke-width=".79701" stroke-linecap="butt" stroke-miterlimit="10" stroke-linejoin="miter" fill="none" stroke="#0000ff" d="M101.99448 161.28404 102.17941 149.63925 102.36433 139.20713 102.54927 129.83083 102.7342 121.36484 102.91914 113.69919 103.10408 106.73528 103.28902 100.389 103.47395 94.5941 103.65887 89.28264 103.84381 84.40129 104.02876 79.9112 104.21368 75.77036 104.39862 71.93835 104.58356 68.39091 104.76848 65.0957 104.95343 62.03171 105.13837 59.18114 105.3233 56.51814 105.50822 54.02814 105.69316 51.70306 105.87811 49.5219 106.06303 47.47331 106.24797 45.54921 106.4329 43.7383 106.61786 42.03412 106.80278 40.42531 106.98772 38.90544 107.17265 37.47127 107.35757 36.11308 107.54251 34.82767 107.72746 33.6053 107.91238 32.44922 108.09732 31.34813 108.28226 30.30524 108.4672 29.31087 108.65213 28.36337 108.83707 27.45953 109.022 26.60097 109.20692 25.77959 109.39186 24.9954 109.57681 24.24518 109.76175 23.52727 109.94667 22.8417 110.1316 22.18526 110.31654 21.55629 110.50148 20.95158 110.68642 20.37436 110.87135 19.81653 111.05627 19.28456 111.24121 18.7704 111.42616 18.27725 111.6111 17.80351 111.79602 17.34755 111.98096 16.90776 112.1659 16.48413 112.35083 16.07668 112.53577 15.68167 112.7207 15.30252 112.90564 14.93613 113.09056 14.58267 113.27551 14.2412 113.46045 13.91135 113.64537 13.59203 113.8303 13.28368 114.01526 12.98535 114.2002 12.69675 114.38512 12.41734 114.57005 12.14685 114.75499 11.8846 114.93991 11.63057 115.12486 11.38448 115.3098 11.14551 115.49472 10.91412 115.67966 10.68939 115.8646 10.47127 116.04955 10.25963 116.23447 10.05444 116.4194 9.8546 116.60434 9.66089 116.78926 9.47205 116.97421 9.28885 117.15915 9.1105 117.34409 8.93718 117.529 8.76837 117.71396 8.6041 117.8989 8.4445 118.08382 8.2888 118.26875 8.13731 118.45369 7.98984 118.63861 7.84593 118.82356 7.70592 119.0085 7.56946 119.19344 7.43622 119.37836 7.30638 119.5633 7.17995 119.74825 7.05624 119.93317 6.93564 120.1181 6.81793 120.30304 6.7033 120.48798 6.59091 120.67291 6.48161 120.85785 6.37457 121.04279 6.26996 121.2277 6.1681 121.41266 6.06818 121.5976 5.97067 121.78253 5.87546 121.96745 5.78215 122.15239 5.69113 122.33733 5.60219 122.52226 5.51472 122.7072 5.42952 122.89214 5.34607 123.07706 5.26442 123.262 5.18439 123.44695 5.10614 123.63188 5.0295 123.8168 4.95415 124.00174 4.88074 124.18668 4.80862 124.37161 4.73813 124.55655 4.66908 124.74149 4.60152 124.92642 4.53505 125.11136 4.4699 125.2963 4.40602 125.48123 4.34361 125.66615 4.28217 125.85109 4.22218 126.03603 4.16301 126.22096 4.10495 126.4059 4.04837 126.59084 3.99258 126.77577 3.93777 126.96071 3.88425 127.14565 3.83138 127.33058 3.77965 127.5155 3.72887 127.70044 3.67891 127.88538 3.63007 128.07033 3.58206 128.25525 3.53453 128.44019 3.48828 128.62512 3.44284 128.81005 3.39789 128.995 3.35408 129.17993 3.3106 129.36487 3.26822 129.54979 3.2265 129.73473 3.18527 129.91968 3.14485 130.1046 3.10541 130.28954 3.06612 130.47447 3.02763 130.65941 2.99011 130.84435 2.95293 131.02928 2.91638 131.21422 2.88033 131.39914 2.8451 131.58408 2.81015 131.76903 2.77605 131.95395 2.74225 132.13889 2.7091 132.32382 2.6766 132.50876 2.64427 132.6937 2.61258 132.87863 2.58153 133.06357 2.55098 133.24849 2.52074 133.43343 2.49098 133.61838 2.46173 133.8033 2.43279 133.98824 2.40433 134.17317 2.37651 134.35813 2.34886 134.54305 2.32187 134.72798 2.29518 134.91292 2.26866 135.09784 2.24263 135.28278 2.2171 135.46773 2.19171 135.65267 2.16713 135.83759 2.1424 136.02252 2.11813 136.20748 2.09453 136.3924 2.0709 136.57733 2.04796 136.76227 2.02501 136.9472 2.00252 137.13213 1.98036 137.31708 1.95839 137.50202 1.93672 137.68694 1.91537 137.87187 1.89453 138.05683 1.87367 138.24175 1.8533 138.42668 1.83308 138.61162 1.81302 138.79656 1.79362 138.98148 1.77406 139.16643 1.75499 139.35137 1.73605 139.53629 1.71764 139.72122 1.69904 139.90616 1.68109 140.09111 1.66298 140.27603 1.6452 140.46097 1.62805 140.6459 1.61076 140.83083 1.59378 141.01578 1.57697 141.20072 1.56013 141.38564 1.54381 141.57057 1.52765 141.75553 1.5118 141.94046 1.49596 142.12538 1.48027 142.31032 1.46492 142.49526 1.44954 142.68018 1.43451 142.86513 1.4198 143.05007 1.40524 143.235 1.3907 143.41992 1.3763 143.60486 1.36224 143.78981 1.34818 143.97473 1.33444 144.15967 1.32085 144.3446 1.30727 144.52954 1.29402 144.71448 1.28091 144.89942 1.26782 145.08435 1.25504 145.26927 1.2421 145.45423 1.22949 145.63916 1.2172 145.82408 1.20485 146.00902 1.19269 146.19396 1.1807 146.37889 1.16884 146.56383 1.15706 146.74877 1.14545 146.9337 1.13396 147.11862 1.12257 147.30356 1.11137 147.4885 1.10025 147.67345 1.08928 147.85837 1.07838 148.0433 1.06766 148.22824 1.057 148.41316 1.0465 148.5981 1.03609 148.78304 1.02576 148.96797 1.01558 149.15291 1.00551 149.33785 .99551 149.52278 .98567 149.7077 .97589 149.89264 .96626 150.07759 .95668 150.26251 .94725 150.44745 .9379 150.63239 .9286 150.81732 .91942 151.00225 .91037 151.18718 .90137 151.37213 .89249 151.55706 .88367 151.74199 .87498 151.92693 .86635 152.11186 .85782 152.29679 .84938 152.48172 .84102 152.66667 .83273 152.8516 .82455 153.03653 .8164 153.22147 .80838 153.40639 .80042 153.59133 .79254 153.77628 .78474 153.96121 .77702 154.14614 .76938 154.33107 .76181 154.516 .75429 154.70093 .74686 154.88587 .73949 155.07082 .73221 155.25576 .72499 155.44068 .71783 155.62561 .71075 155.81055 .70374 155.99547 .6968 156.1804 .6899 156.36536 .68304 156.55028 .67632 156.73522 .6696 156.92015 .66298 157.10509 .65642 157.29001 .64992 157.47496 .64348 157.6599 .63705 157.84482 .63074 158.02976 .62447 158.21469 .61823 158.39963 .61208 158.58455 .60596 158.7695 .59991 158.95444 .5939 159.13936 .58795 159.3243 .58208 159.50923 .57619 159.69417 .57042 159.8791 .5647 160.06404 .559 160.24898 .55338 160.4339 .54778 160.61884 .54227 160.80377 .53674 160.9887 .53128 161.17365 .52592 161.35858 .52057 161.54352 .51527 161.72844 .51001 161.91338 .5048 162.09832 .49963 162.28324 .4945 162.46819 .48941 162.65312 .4844 162.83806 .47939 163.02298 .47443 163.20792 .46951 163.39286 .46463 163.57779 .45982 163.76273 .45503 163.94766 .45027 164.13259 .44557 164.31752 .4409 164.50246 .43626 164.6874 .43164 164.87233 .42711 165.05727 .42259 165.2422 .4181 165.42713 .41364 165.61206 .40924 165.797 .40488 165.98194 .40053 166.16687 .39624 166.3518 .39197 166.53675 .38774 166.72167 .38351 166.9066 .37935 167.09154 .37524 167.27649 .3711 167.46141 .36703 167.64635 .36299 167.83129 .35901 168.0162 .355 168.20114 .35109 168.38608 .34714 168.57102 .34325 168.75595 .3394 168.94089 .33557 169.12583 .33177 169.31075 .328 169.49568 .32428 169.68064 .32059 169.86556 .31688 170.05049 .31323 170.23543 .3096 170.42037 .306 170.60529 .30243 170.79022 .29887 170.97518 .29535 171.1601 .29189 171.34503 .28844 171.52997 .28499 171.71489 .28157 171.89983 .27817 172.08477 .2748 172.26972 .27148 172.45464 .26814 172.63957 .26486 172.82451 .26161 173.00943 .25835 173.19437 .25514 173.37932 .25197 173.56426 .24878 173.74918 .24562 173.93412 .24248 174.11905 .23941 174.30397 .23633 174.4889 .23326 174.67386 .23022 174.8588 .22722 175.04372 .22421 175.22866 .22125 175.41359 .21829 175.59851 .21536 175.78347 .21243 175.9684 .20956 176.15332 .2067 176.33826 .20383 176.5232 .201 176.70813 .1982 176.89305 .19542 177.078 .19264 177.26294 .18988 177.44786 .18716 177.6328 .18443 177.81774 .18175 178.00267 .17906 178.18759 .17642 178.37255 .17378 178.55748 .17114 178.7424 .16853 178.92734 .16595 179.11228 .16338 179.2972 .16083 179.48215 .1583 179.66709 .15576 179.85202 .15329 180.03694 .1508 180.22188 .14832 180.40682 .14587 180.59174 .14343 180.77669 .141 180.96163 .13863 181.14656 .13622 181.33148 .13387 181.51642 .13148 181.70136 .12915 181.88628 .12686 182.07123 .12453 182.25617 .12224 182.4411 .11993 182.62602 .11769 182.81096 .11543 182.9959 .1132 183.18083 .11096 183.36577 .10876 183.5507 .10657 183.73563 .1044 183.92057 .10223 184.1055 .10008 184.29044 .09795 184.47537 .09581 184.66031 .09372 184.84525 .0916 185.03017 .08954 185.2151 .08746 185.40004 .08542 185.58499 .08334 185.76992 .08131 185.95485 .07928 186.13979 .0773 186.3247 .07529 186.50965 .07332 186.69458 .07133 186.87952 .06938 187.06446 .06747 187.24939 .06549 187.43433 .0636 187.61925 .06166 187.80419 .05978 187.98912 .05789 188.17406 .05603 188.359 .05414 188.54393 .05229 188.72887 .05046 188.91379 .04863 189.09873 .04683 189.28368 .04501 189.4686 .04318 189.65354 .0414 189.83847 .03963 190.0234 .03789 190.20833 .03612 190.39327 .03436 190.57822 .03264 190.76314 .03093 190.94808 .02919 191.13301 .02751 191.31793 .0258 191.50287 .02412 191.68782 .02245 191.87276 .02078 192.05768 .01915 192.24262 .01747 192.42755 .01588 192.61248 .01424 192.79741 .01259 192.98236 .011 193.1673 .00938 193.35222 .00781 193.53716 .00624 193.72209 .00465 193.90702 .0031 194.09195 .00156 194.2769 0"/>
</g>
</svg>
