<?xml version="1.0" encoding="UTF-8" standalone="no"?>
<svg
   width="80"
   height="80"
   viewBox="0 0 80 80"
   stroke-width="1.5"
   fill="none"
   color="#000000"
   version="1.1"
   id="svg8"
   sodipodi:docname="learning.svg"
   xml:space="preserve"
   inkscape:version="1.2.2 (732a01da63, 2022-12-09)"
   inkscape:export-filename="learning.png"
   inkscape:export-xdpi="192"
   inkscape:export-ydpi="192"
   xmlns:inkscape="http://www.inkscape.org/namespaces/inkscape"
   xmlns:sodipodi="http://sodipodi.sourceforge.net/DTD/sodipodi-0.dtd"
   xmlns="http://www.w3.org/2000/svg"
   xmlns:svg="http://www.w3.org/2000/svg"><defs
     id="defs12" /><sodipodi:namedview
     id="namedview10"
     pagecolor="#ffffff"
     bordercolor="#000000"
     borderopacity="0.25"
     inkscape:showpageshadow="2"
     inkscape:pageopacity="0.0"
     inkscape:pagecheckerboard="0"
     inkscape:deskcolor="#d1d1d1"
     showgrid="false"
     showguides="false"
     inkscape:zoom="8.4791667"
     inkscape:cx="43.164619"
     inkscape:cy="41.336609"
     inkscape:window-width="1920"
     inkscape:window-height="1001"
     inkscape:window-x="-9"
     inkscape:window-y="-9"
     inkscape:window-maximized="1"
     inkscape:current-layer="svg8" /><g
     id="g2554"
     transform="translate(0.10071585,1.4344798)"><g
       id="g1640"
       style="stroke:#ffffff;stroke-width:2;stroke-dasharray:none;stroke-opacity:1"
       transform="translate(-0.111857,-1.5181607)"><path
         style="color:#000000;fill:#1e3a8a;stroke:#ffffff;stroke-width:2;stroke-linecap:round;stroke-linejoin:round;stroke-dasharray:none;stroke-opacity:1"
         d="M 28.052734,2.5195313 C 23.93805,2.5624853 19.905946,3.7500378 16.855469,6.1972656 13.882912,8.5819822 11.927786,12.219463 11.828125,16.882812 l -4.2441406,6.669922 a 1.0001,1.0001 0 0 0 -0.15625,0.53711 c 0,2.603879 1.3831611,4.186193 2.7167966,4.884765 0.598894,0.313707 1.165323,0.450635 1.638672,0.542969 -0.03781,0.996591 -0.03666,2.848586 0.740235,5.173828 0.518105,1.550693 1.388126,3.155733 2.847656,4.378906 1.25219,1.049411 3.022051,1.675628 5.146484,1.863282 v 2.583984 a 1,1 0 0 0 1,1 1,1 0 0 0 1,-1 v -3.427734 a 1.0001,1.0001 0 0 0 -1,-1 c -2.260551,0 -3.76597,-0.633123 -4.863281,-1.552735 -1.097311,-0.919612 -1.795953,-2.172161 -2.232422,-3.478515 -0.872938,-2.612709 -0.634766,-5.302735 -0.634766,-5.302735 a 1.0001,1.0001 0 0 0 -0.996093,-1.095703 c 0,0 -0.870588,-0.01276 -1.71875,-0.457031 -0.805737,-0.422054 -1.5197205,-1.149134 -1.5937504,-2.900391 l 4.1562504,-6.533203 a 1.0001,1.0001 0 0 0 0.15625,-0.537109 c 0,-4.300834 1.694339,-7.3710718 4.316406,-9.4746095 2.622067,-2.1035377 6.226489,-3.1992354 9.966797,-3.2382813 6.150453,-0.064216 10.286747,2.1541164 12.738281,5.6953128 a 1,1 0 0 0 1.390625,0.253906 1,1 0 0 0 0.253906,-1.3925781 C 39.61867,4.9762105 34.70722,2.4500531 28.052734,2.5195313 Z"
         id="path1612" /><g
         style="color:#000000;fill:none;stroke:#ffffff;stroke-width:2.68907;stroke-dasharray:none;stroke-opacity:1"
         id="g1620"
         transform="matrix(0.74375076,0,0,0.74375076,31.096866,19.540456)"><path
           style="fill:#ca8a04;stroke:#ffffff;stroke-width:2.68907;stroke-linecap:round;stroke-linejoin:round;stroke-dasharray:none;stroke-opacity:1"
           d="M 9,16.992187 A 1.0084,1.0084 0 0 0 7.9921875,18 1.0084,1.0084 0 0 0 9,19.007812 h 6 A 1.0084,1.0084 0 0 0 16.007812,18 1.0084,1.0084 0 0 0 15,16.992187 Z"
           id="path1614" /><path
           style="fill:#ca8a04;stroke:#ffffff;stroke-width:2.68907;stroke-linecap:round;stroke-linejoin:round;stroke-dasharray:none;stroke-opacity:1"
           d="M 10,19.992187 A 1.0084,1.0084 0 0 0 8.9921875,21 1.0084,1.0084 0 0 0 10,22.007812 h 4 A 1.0084,1.0084 0 0 0 15.007813,21 1.0084,1.0084 0 0 0 14,19.992187 Z"
           id="path1616" /><path
           style="fill:#ca8a04;stroke:#ffffff;stroke-width:2.68907;stroke-linecap:round;stroke-linejoin:round;stroke-dasharray:none;stroke-opacity:1"
           d="m 12,1.9921875 c -2.1639469,0 -3.9327703,0.5280672 -5.1757813,1.6015625 -1.2430109,1.0734953 -1.859624,2.668017 -1.8320312,4.421875 0.026675,1.6950193 0.667192,3.069705 1.7949219,4.197266 0.50007,0.49999 0.7777134,0.793708 0.9375,1.113281 C 7.8843959,13.645745 7.9922608,14.084041 7.9921875,15 A 1.0084,1.0084 0 0 0 9,16.007812 1.0084,1.0084 0 0 0 10.009766,15 C 10.009852,13.915961 9.8675567,13.104254 9.5273438,12.423828 9.1871308,11.743402 8.7129796,11.287118 8.2128906,10.787109 7.3403225,9.9146722 7.0298901,9.2631327 7.0097656,7.984375 6.9893785,6.6885261 7.3736386,5.7832161 8.1425781,5.1191406 8.9115177,4.4550652 10.163821,4.0078125 12,4.0078125 c 1.836217,0 3.09044,0.4472554 3.859375,1.1113281 0.768935,0.6640727 1.153208,1.5693835 1.132812,2.8652344 -0.02012,1.2786447 -0.332656,1.9302254 -1.205078,2.802734 -0.499887,0.499988 -0.97233,0.95638 -1.3125,1.636719 C 14.13444,13.104167 13.992296,13.915976 13.992188,15 A 1.0084,1.0084 0 0 0 15,16.007812 1.0084,1.0084 0 0 0 16.009766,15 c 9.1e-5,-0.915974 0.107748,-1.354168 0.267578,-1.673828 0.15983,-0.31966 0.437588,-0.61327 0.9375,-1.113281 C 18.34222,11.085402 18.983088,9.7107573 19.009766,8.015625 19.03737,6.2617689 18.420747,4.6672481 17.177734,3.59375 15.934722,2.5202519 14.163979,1.9921875 12,1.9921875 Z"
           id="path1618" /></g><path
         style="color:#000000;fill:#14532d;stroke:#ffffff;stroke-width:2;stroke-linecap:round;stroke-linejoin:round;stroke-dasharray:none;stroke-opacity:1"
         d="M 52.447266,6.1054687 C 45.79278,6.0359895 40.88133,8.5621487 38.042969,12.662109 a 1,1 0 0 0 0.253906,1.392579 1,1 0 0 0 1.390625,-0.253907 c 2.451534,-3.541195 6.587828,-5.7595289 12.738281,-5.6953122 3.740308,0.039046 7.34473,1.1347436 9.966797,3.2382812 2.622067,2.103538 4.316406,5.173776 4.316406,9.474609 a 1.0001,1.0001 0 0 0 0.15625,0.53711 l 4.158203,6.53125 c -0.0733,1.753487 -0.78951,2.480051 -1.595703,2.902343 -0.848162,0.444277 -1.71875,0.457032 -1.71875,0.457032 a 1.0001,1.0001 0 0 0 -0.99414,1.095703 c 0,0 0.238172,2.690025 -0.634766,5.302734 -0.436469,1.306355 -1.137064,2.558904 -2.234375,3.478516 -1.097311,0.919612 -2.60273,1.552734 -4.863281,1.552734 a 1.0001,1.0001 0 0 0 -1,1 v 3.427735 a 1,1 0 0 0 1,1 1,1 0 0 0 1,-1 v -2.583985 c 2.124433,-0.187653 3.896247,-0.813871 5.148437,-1.863281 1.45953,-1.223173 2.327598,-2.828214 2.845703,-4.378906 0.77636,-2.323649 0.777935,-4.174207 0.740235,-5.171875 0.473654,-0.09225 1.038986,-0.230801 1.638672,-0.544922 1.333635,-0.698573 2.716797,-2.280887 2.716797,-4.884766 a 1.0001,1.0001 0 0 0 -0.15625,-0.537109 L 68.671875,20.46875 C 68.572214,15.8054 66.617088,12.16792 63.644531,9.7832031 60.594054,7.3359753 56.56195,6.1484228 52.447266,6.1054687 Z"
         id="path1622" /><g
         aria-label="Team-Based
Inquiry Learning"
         id="text1628"
         style="font-weight:bold;font-size:10.6667px;font-family:junglelaw;-inkscape-font-specification:'junglelaw Bold';text-align:center;text-anchor:middle;stroke:#ffffff;stroke-width:2;stroke-linecap:round;stroke-linejoin:round;stroke-dasharray:none;stroke-opacity:1"><path
           d="m 11.963454,56.528144 h 0.322917 q 0.03646,0.05729 0.05208,0.08333 0.145834,0.250001 0.223959,0.328126 0.06771,0.02083 0.713544,0.02083 0.401043,0 0.713544,-0.0052 l 0.104167,-0.01563 0.63021,-0.0052 1.177087,0.01042 h 1.60938 l 0.307293,-0.04687 q 0.06771,-0.04687 0.145834,-0.250001 0.02083,-0.04687 0.05729,-0.130209 l 0.229167,-0.0052 q 0.05208,0 0.15625,0.0052 0.0052,0.359377 0.0052,1.083337 l 0.0052,0.463543 -0.0052,0.265626 q 0,0.135417 -0.02083,0.234376 -0.213542,0.06771 -0.375001,0.08333 -0.135417,-0.203125 -0.296876,-0.588543 -0.15625,-0.385418 -0.197917,-0.427085 -0.0625,-0.06771 -0.145834,-0.08854 -0.125,-0.02604 -1.10417,-0.02604 -0.145834,0 -0.364584,0.02083 -0.03125,0.203126 -0.03125,0.333334 l 0.0052,0.697919 v 1.531255 l 0.02083,1.651047 -0.0052,0.677085 q 0,0.359377 0.0625,0.541669 0.08333,0.03646 0.307293,0.06771 0.04167,0.0052 0.385418,0.08333 0.15625,0.03646 0.276042,0.08333 0.02604,0.1875 0.02604,0.229167 0,0.04687 -0.01563,0.135417 -0.114584,0.0052 -0.187501,0.0052 -0.53646,0 -0.911461,-0.03646 -0.375001,-0.04167 -1.359379,-0.04167 -0.156251,0 -0.91667,0.0625 -0.296876,0.02083 -0.385418,0.02083 -0.0052,-0.07813 -0.01042,-0.119792 l -0.0052,-0.119792 v -0.04167 q 0.114584,-0.151042 0.432293,-0.223959 0.541669,-0.130209 0.750003,-0.234376 0.05208,-0.09896 0.0625,-0.260417 0.03646,-0.625002 0.03646,-1.98959 l -0.02604,-1.968756 q 0,-0.812503 -0.03125,-0.984378 -0.01042,-0.04688 -0.03646,-0.06771 -0.02604,-0.02604 -0.07292,-0.03125 -0.161459,-0.02083 -1.052087,-0.02083 -0.489584,0 -0.656252,0.09375 -0.223959,0.130209 -0.671877,0.708335 -0.130209,0.166668 -0.192709,0.166668 -0.239584,-0.125001 -0.307292,-0.203126 0.161458,-0.338543 0.447918,-1.354171 0.08333,-0.296876 0.119792,-0.401043 z"
           style="-inkscape-font-specification:'Garamond Bold';fill:#000000;stroke:#ffffff;stroke-width:2;stroke-dasharray:none;stroke-opacity:1"
           id="path1662" /><path
           d="m 18.302015,60.804199 q 0.135418,-0.442709 0.239584,-0.588543 0.291668,-0.427085 0.619794,-0.666669 0.333335,-0.239584 0.59896,-0.317709 0.343751,-0.09896 0.557294,-0.09896 0.489585,0 0.791669,0.07813 0.302084,0.07292 0.50521,0.213543 0.291667,0.203125 0.468751,0.411459 0.177084,0.208334 0.28646,0.489585 0.114583,0.281251 0.125,0.682294 l -0.578127,-0.01042 q -0.239584,0 -1.052086,-0.04687 -0.302085,-0.02083 -0.416668,-0.02083 -0.03646,0 -0.562502,0.0052 h -0.447918 q -0.01042,0.07292 -0.01042,0.125 0,0.276043 0.06771,0.583336 0.06771,0.302084 0.203125,0.53646 0.135417,0.229167 0.333335,0.395834 0.203125,0.166667 0.416668,0.239584 l 0.302084,0.09896 q 0.401043,0 0.53646,-0.02604 0.250001,-0.05208 0.437501,-0.130209 0.192709,-0.08333 0.463543,-0.276042 0.187501,0.135417 0.312501,0.244792 -0.458334,0.50521 -0.953128,0.734378 -0.489585,0.223959 -1.098961,0.223959 -0.41146,0 -0.671878,-0.07292 -0.348959,-0.09375 -0.63021,-0.286459 -0.281251,-0.192709 -0.484376,-0.479169 -0.203126,-0.286459 -0.302085,-0.588543 -0.130208,-0.395835 -0.130208,-0.635419 0,-0.453126 0.07292,-0.817711 z m 3.026052,-0.223959 q -0.0052,-0.291667 -0.114584,-0.557293 -0.109375,-0.265626 -0.338543,-0.41146 -0.229167,-0.151042 -0.463543,-0.151042 -0.348959,0 -0.63021,0.307293 -0.281251,0.307292 -0.31771,0.833336 l 1.187504,0.0052 q 0.114584,0 0.322918,-0.01563 0.151042,-0.01563 0.213542,-0.01563 0.04687,0 0.140626,0.0052 z"
           style="-inkscape-font-specification:'Garamond Bold';fill:#000000;stroke:#ffffff;stroke-width:2;stroke-dasharray:none;stroke-opacity:1"
           id="path1664" /><path
           d="m 27.671837,62.585455 0.119792,0.07813 q 0.04687,0.03646 0.05729,0.08854 l 0.0052,0.02604 q -0.125,0.463543 -0.328126,0.640627 -0.203125,0.171875 -0.50521,0.171875 -0.307292,0 -0.531251,-0.166667 -0.218751,-0.171875 -0.401043,-0.59896 -0.223959,0.395835 -0.630211,0.59896 -0.406251,0.197918 -0.994794,0.197918 -0.541669,0 -0.796878,-0.22396 -0.255209,-0.229167 -0.255209,-0.59896 0,-0.171875 0.07292,-0.348959 0.07813,-0.177084 0.244792,-0.34896 0.171876,-0.177083 0.546877,-0.385417 0.05729,-0.03125 0.395835,-0.177084 L 25.9687,61.017743 q 0.01563,-0.197918 0.01563,-0.401043 0,-0.703128 -0.171876,-0.958337 -0.104167,-0.15625 -0.364584,-0.15625 -0.260418,0 -0.479168,0.09896 -0.218751,0.09896 -0.31771,0.25521 -0.07292,0.114583 -0.125,0.432293 -0.03646,0.229167 -0.06771,0.265626 -0.07813,0.09896 -0.286459,0.182292 -0.203126,0.07813 -0.276043,0.114583 -0.28125,0.135418 -0.447918,0.135418 -0.07292,-0.0625 -0.07292,-0.177084 0,-0.296876 0.125,-0.510419 0.187501,-0.302084 0.562502,-0.583335 0.380209,-0.286459 0.708335,-0.401043 0.447918,-0.145834 1.093754,-0.145834 0.416668,0 0.713544,0.156251 0.302084,0.151042 0.416668,0.453126 0.119792,0.302085 0.119792,1.088545 l -0.01563,0.859378 0.01042,0.630211 v 0.161458 q 0,0.218751 0.05729,0.302085 0.0625,0.07813 0.156251,0.07813 0.05729,0 0.09896,-0.03125 l 0.156251,-0.244793 z m -1.708339,-1.208337 q -0.296876,0.09896 -0.671877,0.333334 -0.369793,0.229168 -0.515626,0.463543 -0.104167,0.171876 -0.104167,0.421877 0,0.223959 0.135417,0.369792 0.135417,0.145834 0.312501,0.145834 0.291667,0 0.494793,-0.166667 0.276042,-0.223959 0.322918,-0.354168 0.04687,-0.135417 0.04687,-0.75521 0,-0.229168 -0.02083,-0.458335 z"
           style="-inkscape-font-specification:'Garamond Bold';fill:#000000;stroke:#ffffff;stroke-width:2;stroke-dasharray:none;stroke-opacity:1"
           id="path1666" /><path
           d="m 28.208297,63.220874 q 0.04167,-0.02083 0.114584,-0.02604 0.307293,-0.02083 0.489585,-0.109375 0.03646,-0.01563 0.04167,-0.06771 0.01042,-0.05208 0.03125,-0.94792 v -0.302084 l 0.0052,-0.53646 -0.0052,-0.557293 V 60.54899 q 0,-0.244792 -0.114584,-0.359376 -0.109375,-0.119792 -0.583335,-0.255209 v -0.213542 q 0.09896,-0.02604 0.234376,-0.05729 0.479168,-0.09896 0.791669,-0.281251 0.239584,-0.140626 0.47396,-0.421877 h 0.286459 v 0.08333 l 0.01563,0.416668 -0.0052,0.192709 0.01042,0.09375 q 0.494793,-0.390626 0.822919,-0.515626 0.333335,-0.125001 0.76042,-0.125001 0.411459,0 0.791669,0.177084 0.385418,0.177084 0.640627,0.593752 0.369793,-0.359376 0.619793,-0.50521 0.171876,-0.09896 0.468752,-0.171875 0.302084,-0.07813 0.56771,-0.07813 0.723961,0 1.145837,0.437502 0.421876,0.442709 0.421876,1.19792 v 0.828128 q 0,0.255209 -0.01563,0.880211 V 62.8667 q 0,0.104167 0.0625,0.203125 0.203126,0.08854 0.34896,0.114584 0.104167,0.01563 0.197917,0.07292 0.01042,0.09375 0.02604,0.156251 l -0.0052,0.104167 q -0.145833,0.02604 -0.208334,0.02604 -0.04167,0 -0.255209,-0.02083 -0.208334,-0.02604 -0.531251,-0.02604 -0.786461,0 -1.250004,0.05208 -0.03646,-0.130209 -0.03646,-0.208334 l 0.0052,-0.07292 q 0.06771,-0.03646 0.447918,-0.182292 0.06771,-0.06771 0.07813,-0.119793 0.02604,-0.130208 0.02604,-0.557293 l -0.02604,-1.468755 q -0.0052,-0.369792 -0.05729,-0.609377 -0.05208,-0.244792 -0.15625,-0.380209 -0.09896,-0.140626 -0.270835,-0.229167 -0.171875,-0.08854 -0.359376,-0.08854 -0.291667,0 -0.593752,0.166667 -0.302084,0.161459 -0.53646,0.494793 l -0.0052,0.151042 0.01042,0.666669 -0.01042,0.546877 V 62.1792 l -0.0052,0.463543 q 0,0.343751 0.06771,0.406251 0.104167,0.09896 0.510419,0.140626 l 0.161458,0.05729 q 0.04167,0.119792 0.04167,0.187501 0,0.03646 -0.02083,0.125 l -0.151042,-0.0052 H 33.515606 L 33.40623,63.549 q -0.369793,-0.03646 -0.765627,-0.04167 l -0.557294,-0.01042 q -0.203125,0 -0.703127,0.04687 l -0.09375,-0.01563 -0.0052,-0.307292 q 0.15625,-0.04688 0.562501,-0.07813 0.02604,-0.0052 0.06771,-0.02083 0.05729,-0.06771 0.06771,-0.114584 0.02604,-0.104167 0.02604,-0.421876 l -0.0052,-1.057295 0.01042,-0.281251 q 0,-0.812503 -0.05729,-1.005211 -0.07292,-0.250001 -0.307293,-0.406252 -0.229167,-0.161459 -0.552085,-0.161459 -0.421876,0 -0.734377,0.203126 -0.312501,0.197917 -0.359376,0.354168 -0.0052,0.0625 -0.0052,0.09375 l 0.0052,0.05208 v 0.05208 q 0,0.04687 -0.02604,0.145834 l 0.01563,1.494796 0.0052,0.781253 q 0,0.04167 0.01042,0.135417 l 0.02604,0.07813 q 0.145833,0.04687 0.25,0.06771 0.192709,0.04167 0.291668,0.09375 0.01563,0.08854 0.01563,0.125 0,0.06771 -0.04167,0.192709 -0.08333,0.0052 -0.119792,0.0052 -0.05729,0 -0.520835,-0.04688 l -0.56771,-0.0052 q -0.406251,0 -0.984378,0.05729 L 28.203089,63.549 q -0.01042,-0.08333 -0.02083,-0.192709 0,-0.04687 0.02604,-0.135417 z"
           style="-inkscape-font-specification:'Garamond Bold';fill:#000000;stroke:#ffffff;stroke-width:2;stroke-dasharray:none;stroke-opacity:1"
           id="path1668" /><path
           d="m 37.359368,60.918783 h 1.64063 l 0.833336,-0.01042 q 0.171876,0 0.317709,0.02083 0.01563,0.244792 0.03125,0.364584 l 0.0052,0.08854 -0.02083,0.270834 q -0.0052,0.0625 -0.0052,0.156251 v 0.09375 l -2.822925,0.0052 q -0.0052,-0.151042 -0.0052,-0.229167 0,-0.130209 0.01042,-0.291668 0.0052,-0.08333 0.0052,-0.119792 l -0.0052,-0.260417 z"
           style="-inkscape-font-specification:'Garamond Bold';fill:#000000;stroke:#ffffff;stroke-width:2;stroke-dasharray:none;stroke-opacity:1"
           id="path1670" /><path
           d="m 40.901045,63.606291 0.01042,-0.416667 q 0.125,-0.03125 0.302084,-0.05729 0.338543,-0.04687 0.552085,-0.135417 0.07292,-0.119792 0.09375,-0.229168 0.04167,-0.291667 0.04167,-0.859378 l -0.01042,-2.213548 q 0,-0.343751 -0.03646,-1.796881 -0.01042,-0.390626 -0.05208,-0.484376 -0.01563,-0.03125 -0.05208,-0.05208 -0.08333,-0.05729 -0.312501,-0.06771 -0.09896,-0.0052 -0.510418,-0.05729 l -0.01563,-0.369793 1.16667,-0.02604 1.703131,-0.05729 0.203125,-0.0052 q 0.0625,-0.0052 0.125001,-0.0052 0.05208,0 0.276042,0.0052 h 0.333335 q 0.395834,-0.0052 0.859377,0.119792 0.161459,0.04167 0.427085,0.177084 0.265626,0.130209 0.458335,0.338543 0.197917,0.203125 0.291668,0.458334 0.09375,0.25521 0.09375,0.541669 0,0.317709 -0.140626,0.572918 -0.140625,0.250001 -0.427084,0.463543 -0.145834,0.104167 -0.671877,0.343751 0.78646,0.177084 1.19792,0.651044 0.41146,0.468752 0.41146,1.046878 0,0.343752 -0.130209,0.718753 -0.09375,0.281251 -0.317709,0.520835 -0.296876,0.317709 -0.630211,0.479168 -0.328126,0.161459 -0.911461,0.265626 -0.291668,0.05208 -0.885419,0.05208 l -0.88542,-0.02083 q -0.562502,0 -1.338546,0.05208 -0.21875,0.01042 -1.218754,0.04687 z m 2.427091,-3.953137 q 0.208334,0.03125 0.489585,0.03125 0.781253,0 1.182296,-0.286459 0.401043,-0.291668 0.401043,-1.000003 0,-0.500002 -0.38021,-0.833336 -0.380209,-0.333335 -1.145837,-0.333335 -0.218751,0 -0.583335,0.05729 0,0.119792 0.01042,0.343751 0.02604,0.44271 0.02604,1.239588 l -0.0052,0.437501 q 0,0.114584 0.0052,0.343751 z m 0.0625,3.317719 q 0.338542,0.140625 0.63021,0.140625 0.593752,0 0.968753,-0.177084 0.375001,-0.182292 0.546877,-0.50521 0.171875,-0.322917 0.171875,-0.807294 0,-0.500001 -0.1875,-0.802086 -0.260418,-0.416668 -0.630211,-0.557293 -0.369793,-0.145834 -1.109378,-0.145834 -0.328126,0 -0.453127,0.04687 v 0.640627 l -0.0052,0.770836 0.01563,1.197921 q 0.0052,0.08333 0.05208,0.197917 z"
           style="-inkscape-font-specification:'Garamond Bold';fill:#000000;stroke:#ffffff;stroke-width:2;stroke-dasharray:none;stroke-opacity:1"
           id="path1672" /><path
           d="m 52.562541,62.585455 0.119792,0.07813 q 0.04687,0.03646 0.05729,0.08854 l 0.0052,0.02604 q -0.125,0.463543 -0.328126,0.640627 -0.203125,0.171875 -0.505209,0.171875 -0.307293,0 -0.531252,-0.166667 -0.218751,-0.171875 -0.401043,-0.59896 -0.223959,0.395835 -0.63021,0.59896 -0.406252,0.197918 -0.994795,0.197918 -0.541669,0 -0.796878,-0.22396 -0.255209,-0.229167 -0.255209,-0.59896 0,-0.171875 0.07292,-0.348959 0.07813,-0.177084 0.244792,-0.34896 0.171876,-0.177083 0.546877,-0.385417 0.05729,-0.03125 0.395835,-0.177084 l 1.296879,-0.520835 q 0.01563,-0.197918 0.01563,-0.401043 0,-0.703128 -0.171876,-0.958337 -0.104167,-0.15625 -0.364584,-0.15625 -0.260418,0 -0.479168,0.09896 -0.218751,0.09896 -0.31771,0.25521 -0.07292,0.114583 -0.125,0.432293 -0.03646,0.229167 -0.06771,0.265626 -0.07813,0.09896 -0.286459,0.182292 -0.203125,0.07813 -0.276042,0.114583 -0.281251,0.135418 -0.447918,0.135418 -0.07292,-0.0625 -0.07292,-0.177084 0,-0.296876 0.125,-0.510419 0.187501,-0.302084 0.562502,-0.583335 0.380209,-0.286459 0.708335,-0.401043 0.447918,-0.145834 1.093754,-0.145834 0.416668,0 0.713544,0.156251 0.302084,0.151042 0.416668,0.453126 0.119792,0.302085 0.119792,1.088545 l -0.01563,0.859378 0.01042,0.630211 v 0.161458 q 0,0.218751 0.05729,0.302085 0.0625,0.07813 0.156251,0.07813 0.05729,0 0.09896,-0.03125 l 0.156251,-0.244793 z m -1.708338,-1.208337 q -0.296876,0.09896 -0.671878,0.333334 -0.369792,0.229168 -0.515626,0.463543 -0.104167,0.171876 -0.104167,0.421877 0,0.223959 0.135417,0.369792 0.135417,0.145834 0.312501,0.145834 0.291667,0 0.494793,-0.166667 0.276043,-0.223959 0.322918,-0.354168 0.04687,-0.135417 0.04687,-0.75521 0,-0.229168 -0.02083,-0.458335 z"
           style="-inkscape-font-specification:'Garamond Bold';fill:#000000;stroke:#ffffff;stroke-width:2;stroke-dasharray:none;stroke-opacity:1"
           id="path1674" /><path
           d="m 53.322959,62.106287 q 0.156251,-0.03125 0.229168,-0.03125 0.03646,0 0.109375,0.0052 l 0.04687,0.05208 q 0.281251,0.494794 0.369793,0.598961 0.182292,0.213542 0.359376,0.343751 0.119792,0.08333 0.375001,0.171875 0.171876,0.0625 0.364585,0.0625 0.328126,0 0.562502,-0.208334 0.234375,-0.213543 0.234375,-0.458335 0,-0.166667 -0.08854,-0.281251 -0.08854,-0.119792 -0.354168,-0.234376 -0.130209,-0.05729 -0.656252,-0.1875 -0.520835,-0.130209 -0.630211,-0.171876 -0.244792,-0.09375 -0.437501,-0.260417 -0.187501,-0.166668 -0.286459,-0.375002 -0.135417,-0.296876 -0.135417,-0.510418 0,-0.395835 0.114583,-0.645835 0.114584,-0.255209 0.322918,-0.447918 0.151042,-0.145834 0.453126,-0.265626 0.307293,-0.119792 0.656253,-0.119792 0.494793,0 0.869794,0.06771 0.375001,0.06771 0.635419,0.203126 0.03125,0.119792 0.08854,0.552085 0.05729,0.432293 0.05729,0.510418 0,0.03646 -0.01563,0.07813 -0.135417,0.04167 -0.223959,0.04167 -0.05208,0 -0.151042,-0.01042 -0.04687,-0.07292 -0.125,-0.218751 -0.250001,-0.463543 -0.515627,-0.651044 -0.260417,-0.192709 -0.604168,-0.192709 -0.359377,0 -0.604169,0.208334 -0.177084,0.151042 -0.177084,0.41146 0,0.171875 0.187501,0.348959 0.182292,0.182293 0.635418,0.276043 0.682294,0.151042 1.005212,0.302084 0.468751,0.218751 0.656252,0.515627 0.192709,0.296876 0.192709,0.687502 0,0.604169 -0.458335,1.01042 -0.453126,0.401043 -1.328129,0.401043 -0.114584,0 -0.59896,-0.05208 -0.218751,-0.02604 -0.515627,-0.104167 -0.07292,-0.02083 -0.380209,-0.151042 -0.05729,-0.03125 -0.08333,-0.07292 -0.02083,-0.04687 -0.06771,-0.437501 -0.08333,-0.635419 -0.08854,-0.760419 z"
           style="-inkscape-font-specification:'Garamond Bold';fill:#000000;stroke:#ffffff;stroke-width:2;stroke-dasharray:none;stroke-opacity:1"
           id="path1676" /><path
           d="m 57.744848,60.804199 q 0.135417,-0.442709 0.239584,-0.588543 0.291668,-0.427085 0.619794,-0.666669 0.333334,-0.239584 0.59896,-0.317709 0.343751,-0.09896 0.557294,-0.09896 0.489585,0 0.791669,0.07813 0.302084,0.07292 0.50521,0.213543 0.291667,0.203125 0.468751,0.411459 0.177084,0.208334 0.28646,0.489585 0.114583,0.281251 0.125,0.682294 l -0.578127,-0.01042 q -0.239584,0 -1.052087,-0.04687 -0.302084,-0.02083 -0.416668,-0.02083 -0.03646,0 -0.562501,0.0052 h -0.447918 q -0.01042,0.07292 -0.01042,0.125 0,0.276043 0.06771,0.583336 0.06771,0.302084 0.203126,0.53646 0.135417,0.229167 0.333334,0.395834 0.203126,0.166667 0.416668,0.239584 l 0.302085,0.09896 q 0.401043,0 0.53646,-0.02604 0.250001,-0.05208 0.437501,-0.130209 0.192709,-0.08333 0.463543,-0.276042 0.187501,0.135417 0.312501,0.244792 -0.458335,0.50521 -0.953128,0.734378 -0.489585,0.223959 -1.098962,0.223959 -0.411459,0 -0.671877,-0.07292 -0.348959,-0.09375 -0.63021,-0.286459 -0.281251,-0.192709 -0.484377,-0.479169 -0.203125,-0.286459 -0.302084,-0.588543 -0.130209,-0.395835 -0.130209,-0.635419 0,-0.453126 0.07292,-0.817711 z M 60.7709,60.58024 q -0.0052,-0.291667 -0.114584,-0.557293 -0.109375,-0.265626 -0.338543,-0.41146 -0.229167,-0.151042 -0.463543,-0.151042 -0.348959,0 -0.63021,0.307293 -0.281251,0.307292 -0.31771,0.833336 l 1.187504,0.0052 q 0.114584,0 0.322918,-0.01563 0.151042,-0.01563 0.213542,-0.01563 0.04687,0 0.140626,0.0052 z"
           style="-inkscape-font-specification:'Garamond Bold';fill:#000000;stroke:#ffffff;stroke-width:2;stroke-dasharray:none;stroke-opacity:1"
           id="path1678" /><path
           d="m 63.67195,59.56982 q 0.255209,-0.177083 0.489585,-0.255209 0.239584,-0.07813 0.671877,-0.119792 h 0.291667 q 0.567711,0 1.088546,0.390626 l 0.01042,-0.125 -0.0052,-0.348959 0.02083,-0.557294 q 0,-0.880211 -0.135417,-1.114587 -0.07813,-0.140625 -0.276042,-0.151042 -0.192709,-0.01042 -0.312501,-0.06771 v -0.250001 q 0.09896,-0.03125 0.255209,-0.03125 0.15625,-0.0052 0.609377,-0.109376 l 0.177084,-0.03646 0.515626,-0.119792 q 0.156251,-0.03646 0.192709,-0.03646 0.02604,0 0.08333,0.01042 0.03125,0.109376 0.03125,0.161459 l -0.0052,0.07813 v 0.09375 q 0,0.145833 0.01563,0.776044 v 0.281251 l 0.0052,0.151042 -0.0052,0.260417 0.01563,0.541669 -0.01042,0.317709 q -0.01042,0.208334 -0.01042,0.656252 0,0.07292 0.0052,0.130209 v 0.192709 q -0.0052,0.08333 -0.0052,0.125 0,0.07813 0.01563,0.223959 v 0.286459 l -0.0052,0.109376 q -0.01042,0.151042 -0.01042,0.416668 0,0.270834 0.01042,0.489585 0.0052,0.08854 0.0052,0.161458 v 0.390627 q 0,0.1875 0.01042,0.447918 0.09375,0.05729 0.458335,0.08333 0.114583,0.0052 0.203125,0.02604 0.02604,0.07813 0.02604,0.114584 0,0.04687 -0.03646,0.140625 -0.213543,0.05208 -0.447918,0.07813 -0.713544,0.08854 -1.015629,0.250001 -0.145833,0.08333 -0.203125,0.08333 -0.05729,0 -0.130209,-0.01042 0.0052,-0.09375 0.0052,-0.119792 0,-0.354168 -0.01563,-0.453126 -0.07813,0.04167 -0.192709,0.109375 -0.348959,0.208334 -0.635418,0.291668 -0.286459,0.07813 -0.656252,0.07813 -0.656252,0 -1.046879,-0.250001 -0.578126,-0.364584 -0.802085,-0.875003 -0.218751,-0.510418 -0.218751,-1.119795 0,-1.052087 0.968753,-1.796881 z m 1.604172,3.447928 q 0.109375,0.01042 0.1875,0.01042 0.171876,0 0.364585,-0.07292 0.197917,-0.07292 0.416668,-0.213543 0.0052,-0.171875 0.0052,-0.213542 0,-1.651047 -0.04687,-1.98959 -0.0625,-0.453126 -0.343751,-0.697918 -0.281251,-0.244793 -0.682294,-0.244793 -0.229167,0 -0.437501,0.08333 -0.203126,0.08333 -0.333335,0.239584 -0.192709,0.229167 -0.291667,0.520835 -0.135417,0.406251 -0.135417,0.760419 0,0.848961 0.359376,1.302087 0.359376,0.447918 0.937503,0.515627 z"
           style="-inkscape-font-specification:'Garamond Bold';fill:#000000;stroke:#ffffff;stroke-width:2;stroke-dasharray:none;stroke-opacity:1"
           id="path1680" /><path
           d="m 1.111857,74.946073 v -0.375001 q 0.104167,-0.03125 0.343751,-0.08854 0.3385428,-0.08333 0.50521,-0.171875 0.09375,-0.161459 0.09375,-0.447918 L 2.049358,73.248153 2.059775,72.06065 2.054565,71.779399 Q 2.091023,70.748146 2.091023,70.716895 L 2.08061,70.024183 2.0962351,69.742932 2.0701933,69.14918 2.064985,68.925221 q -0.00521,-0.05208 -0.036459,-0.166667 -0.2135423,-0.09896 -0.6927105,-0.125 -0.1145837,-0.0052 -0.1822922,-0.01563 l -0.015625,-0.458335 1.489588,0.0625 q 0.2760426,0.01042 0.3437511,0.01042 0.3072927,0 0.9843781,-0.04167 0.3802096,-0.02604 0.4791682,-0.03125 0.00521,0.09896 0.00521,0.166667 0,0.08854 -0.010417,0.229167 -0.208334,0.07292 -0.4791682,0.140626 -0.2656258,0.0625 -0.4375014,0.130208 -0.03125,0.135418 -0.03125,0.390627 0,0.223959 0.015625,0.364584 -0.015625,0.880211 -0.015625,1.354171 l 0.00521,1.375005 -0.015625,0.697918 0.010417,1.04167 -0.00521,0.197918 q 0,0.04167 0.020833,0.119792 0.3177093,0.06771 0.5781268,0.09375 0.046875,0.0052 0.3177093,0.04167 0.020833,0.15625 0.020833,0.260417 0,0.05729 -0.00521,0.177084 -0.067709,0 -0.104167,0.0052 -0.1666672,0.01042 -0.192709,0.01042 -0.036458,0 -0.1354171,-0.01563 -0.072917,-0.01042 -0.6927105,-0.07292 l -0.9218779,-0.01042 q -0.2760425,0 -0.8020859,0.05208 -0.343751,0.03125 -0.447918,0.03646 z"
           style="-inkscape-font-specification:'Garamond Bold';fill:#000000;stroke:#ffffff;stroke-width:2;stroke-dasharray:none;stroke-opacity:1"
           id="path1682" /><path
           d="m 5.1222865,74.680448 q 0.1354171,-0.0625 0.2500008,-0.08333 0.2864592,-0.04687 0.3333343,-0.07813 0.078125,-0.04687 0.104167,-0.114584 0.03125,-0.104167 0.03125,-0.458335 v -0.453126 l 0.00521,-0.369793 -0.015625,-0.546877 v -0.328126 q 0,-0.328126 -0.052084,-0.53646 -0.020833,-0.07813 -0.1302087,-0.15625 Q 5.502496,71.451271 5.1535366,71.352312 l -0.00521,-0.250001 q 0.067709,-0.02083 0.1197921,-0.02604 0.057292,-0.01042 0.4218763,-0.104167 0.2864592,-0.104167 0.3697928,-0.145834 0.026042,-0.01563 0.083334,-0.04687 0.0625,-0.05208 0.1406255,-0.104167 0.1562505,-0.109376 0.3750011,-0.38021 l 0.2760426,-0.02083 -0.010417,0.588543 q -0.00521,0.08854 -0.00521,0.140626 0,0.04167 0.00521,0.239584 0.432293,-0.375001 0.7864608,-0.520835 0.4635431,-0.192709 0.8802111,-0.192709 0.4895849,0 0.8593777,0.244792 0.3697929,0.239584 0.4843766,0.557294 0.1145828,0.317709 0.1145828,1.281254 l -0.02083,1.697922 q 0,0.119792 0.04167,0.197917 0.05208,0.04167 0.286459,0.07813 l 0.255209,0.04688 q 0.04687,0.06771 0.04687,0.166667 0,0.0625 -0.0052,0.171875 l -1.0208361,-0.07292 -0.3020843,0.01042 H 9.091049 l -0.6875022,0.05208 H 8.2264629 q -0.00521,-0.06771 -0.00521,-0.104167 0,-0.09375 0.010417,-0.203126 0.072917,-0.01563 0.3645845,-0.05208 0.078125,-0.01042 0.1718755,-0.03646 0.104167,-0.04167 0.1197921,-0.08333 0.041667,-0.08854 0.041667,-0.338542 0,-0.437502 -0.010417,-0.671877 l 0.00521,-0.604169 Q 8.9295902,71.76898 8.7889647,71.498146 8.5910474,71.10752 8.1952128,71.10752 q -0.2916676,0 -0.6041685,0.151042 -0.312501,0.145834 -0.6458354,0.447918 l -0.010417,0.08854 0.010417,0.328126 -0.00521,0.348959 0.020833,0.833336 -0.010417,0.130209 q 0,0.848961 0.067709,0.958336 0.067709,0.109376 0.5156266,0.239585 0.015625,0.08854 0.015625,0.130208 0,0.0625 -0.036459,0.192709 -0.1614588,0.0052 -0.2708342,0.0052 -0.1093753,0 -0.3437511,-0.03125 l -0.5572934,-0.01042 q -0.416668,0 -1.2031288,0.03646 -0.020833,-0.05208 -0.020833,-0.109375 0,-0.04167 0.00521,-0.166667 z"
           style="-inkscape-font-specification:'Garamond Bold';fill:#000000;stroke:#ffffff;stroke-width:2;stroke-dasharray:none;stroke-opacity:1"
           id="path1684" /><path
           d="m 15.377527,71.123145 q 0.03646,-0.145834 0.07292,-0.875003 l 0.44271,-0.0052 -0.0052,0.09896 0.01042,0.447918 -0.0052,0.307293 0.01042,0.609377 v 0.583335 l -0.01042,0.359376 v 0.510419 q -0.01042,0.270834 -0.01042,0.427084 0,0.166667 0.0052,0.333335 0.0052,0.229167 0.0052,0.447918 v 0.171875 l -0.01563,1.333338 -0.01563,0.984378 q 0,0.125 0.109375,0.218751 0.07813,0.0625 0.375001,0.145833 0.192709,0.05729 0.260418,0.09896 0.01042,0.06771 0.01042,0.125 0,0.05208 -0.01042,0.182293 -0.302085,-0.0052 -0.625002,-0.03125 -0.546877,-0.04167 -0.921878,-0.04167 -0.489585,0 -0.958337,0.05729 -0.09896,0.01563 -0.145833,0.01563 -0.03646,0 -0.109376,-0.0052 l 0.02083,-0.312501 q 0.08333,-0.01042 0.213542,-0.04167 0.130209,-0.02604 0.234376,-0.04167 0.302084,-0.05208 0.375001,-0.161459 0.07292,-0.104167 0.07292,-0.651044 l -0.0052,-0.63021 0.01563,-0.729169 q 0,-0.171876 -0.01042,-0.53646 -0.07292,0.04167 -0.161459,0.104167 -0.604169,0.421876 -1.307296,0.421876 -0.369793,0 -0.604168,-0.07813 -0.385418,-0.130209 -0.734378,-0.416668 -0.348959,-0.291668 -0.546876,-0.739586 -0.197918,-0.453126 -0.197918,-0.958336 0,-0.390626 0.151042,-0.765628 0.156251,-0.375001 0.421877,-0.671877 0.265626,-0.296876 0.635419,-0.494793 0.265625,-0.145834 0.776044,-0.281251 0.223959,-0.0625 0.588543,-0.0625 0.328126,0 0.796878,0.156251 0.307292,0.09896 0.796877,0.390626 z m -1.536463,3.276052 q 0.114584,-0.0052 0.182292,-0.0052 0.05729,0 0.140626,0.0052 0.291667,-0.01563 0.604168,-0.218751 v -0.104167 q -0.0052,-0.192709 -0.0052,-0.338543 v -0.375001 q 0,-1.26042 -0.07292,-1.614588 -0.07292,-0.359376 -0.328126,-0.546877 -0.250001,-0.187501 -0.651044,-0.187501 -0.161459,0 -0.463543,0.09896 -0.203126,0.06771 -0.421876,0.286459 -0.156251,0.156251 -0.265626,0.489585 -0.109375,0.328126 -0.109375,0.791669 0,0.708336 0.380209,1.166671 0.385418,0.453126 1.01042,0.552085 z"
           style="-inkscape-font-specification:'Garamond Bold';fill:#000000;stroke:#ffffff;stroke-width:2;stroke-dasharray:none;stroke-opacity:1"
           id="path1686" /><path
           d="m 16.934823,70.72731 q 0.05729,-0.02083 0.09375,-0.03125 h 1.552088 l 0.114584,0.01042 0.0052,0.348959 -0.01042,0.510418 0.0052,0.265626 -0.0052,0.786461 v 0.53646 q 0,0.526043 0.05729,0.828128 0.07813,0.229167 0.250001,0.348959 0.177084,0.114584 0.427084,0.114584 0.234376,0 0.38021,-0.04687 0.145834,-0.04687 0.333334,-0.177084 0.192709,-0.130209 0.244793,-0.187501 0.151042,-0.166667 0.208334,-0.307292 l 0.03646,-1.296879 q 0.01042,-0.203126 0.01042,-0.333335 0,-0.135417 -0.01042,-0.338543 -0.0052,-0.208334 -0.0052,-0.234375 l 0.0052,-0.192709 -0.01042,-0.114584 q -0.125001,-0.07813 -0.34896,-0.09896 l -0.348959,-0.02604 q -0.03125,-0.01563 -0.05729,-0.03646 -0.02083,-0.104167 -0.02083,-0.15625 0,-0.0625 0.01563,-0.177084 0.171875,-0.02604 0.296875,-0.02604 l 0.802086,0.01042 q 0.322918,0 0.791669,-0.01042 l 0.01042,0.390626 -0.01563,0.500002 0.01042,0.625002 -0.0052,0.895836 -0.01042,0.401043 0.0052,0.270834 q -0.02083,0.270834 -0.02083,0.307293 0,0.130209 0.04687,0.192709 0.04687,0.0625 0.08854,0.0625 l 0.479168,-0.01563 0.0625,0.01042 q 0.01563,0.182292 0.01563,0.208334 0,0.03646 -0.01563,0.114583 -0.276042,0.01042 -0.395834,0.03646 -0.557294,0.125 -1.218754,0.369793 l -0.208334,-0.01042 -0.0052,-0.848961 q -0.0625,0.05208 -0.182292,0.161459 -0.458335,0.406251 -0.786461,0.552085 -0.328126,0.140625 -0.687502,0.140625 -0.427084,0 -0.739585,-0.177084 -0.312501,-0.177084 -0.458335,-0.437501 -0.109376,-0.203126 -0.145834,-0.583335 -0.01042,-0.09896 -0.01042,-1.020837 l 0.0052,-0.166667 q 0.02604,-0.510418 0.02604,-0.755211 0,-0.416668 -0.01563,-0.557293 -0.0052,-0.06771 -0.05208,-0.156251 -0.07292,-0.03125 -0.171876,-0.04687 -0.333334,-0.05729 -0.416668,-0.109375 -0.02604,-0.01563 -0.02604,-0.06771 0,-0.03125 0.0052,-0.08333 0.01042,-0.05208 0.02083,-0.171876 z"
           style="-inkscape-font-specification:'Garamond Bold';fill:#000000;stroke:#ffffff;stroke-width:2;stroke-dasharray:none;stroke-opacity:1"
           id="path1688" /><path
           d="m 23.476511,68.732512 q 0,-0.281251 0.182292,-0.458335 0.182293,-0.182292 0.468752,-0.182292 0.307292,0 0.510418,0.192709 0.203126,0.187501 0.203126,0.427085 0,0.177084 -0.08333,0.354168 -0.07813,0.177083 -0.255209,0.286459 -0.171876,0.104167 -0.354168,0.104167 -0.250001,0 -0.463543,-0.213543 -0.208334,-0.213542 -0.208334,-0.510418 z m -0.729169,6.213561 -0.01042,-0.338542 0.588544,-0.07813 q 0.130209,-0.03646 0.177084,-0.104167 0.05208,-0.07292 0.05208,-0.31771 v -0.05729 q 0,-0.0625 0.0052,-0.223959 0.01042,-0.166667 0.01042,-0.291667 0,-0.09896 -0.01563,-0.38021 l 0.0052,-0.260417 -0.0052,-0.244793 0.01042,-0.848961 q 0,-0.161459 -0.03125,-0.333334 -0.05729,-0.07813 -0.208334,-0.135417 -0.151042,-0.05729 -0.526043,-0.08333 v -0.291667 q 0.53646,-0.03125 0.942711,-0.223959 0.276042,-0.125001 0.59896,-0.44271 h 0.34896 q 0.02083,0.645835 0.02083,1.677088 l -0.03646,2.125007 q 0,0.218751 0.02083,0.395835 0.161459,0.05729 0.526043,0.114583 0.140626,0.02083 0.223959,0.05208 l -0.0052,0.286459 q -0.140626,0.0052 -0.208334,0.0052 -0.07813,0 -0.239584,-0.01042 -0.531252,-0.02604 -1.42188,-0.02604 -0.255209,0 -0.494793,0.02083 -0.239584,0.01563 -0.328126,0.01563 z"
           style="-inkscape-font-specification:'Garamond Bold';fill:#000000;stroke:#ffffff;stroke-width:2;stroke-dasharray:none;stroke-opacity:1"
           id="path1690" /><path
           d="m 25.78381,74.690864 q 0.06771,-0.05729 0.177084,-0.08333 0.265626,-0.05729 0.50521,-0.208334 0.04687,-0.125001 0.04687,-0.843753 0,-1.317712 -0.05729,-1.781256 -0.01042,-0.08333 -0.08333,-0.145833 -0.130209,-0.06771 -0.354168,-0.119792 -0.104167,-0.02604 -0.125001,-0.114584 L 25.87756,71.20127 q 0.385418,-0.05208 0.697919,-0.260417 0.312501,-0.213543 0.468752,-0.432294 0.08333,-0.119792 0.145834,-0.182292 l 0.364584,-0.01563 q 0.02604,0.119792 0.02604,0.197917 0,0.05729 -0.0052,0.140626 -0.0052,0.182292 -0.0052,0.302084 0,0.05729 0.0052,0.432293 0.213543,-0.364584 0.312501,-0.489585 0.04688,-0.05729 0.276043,-0.255209 0.177084,-0.130209 0.401043,-0.130209 0.276042,0 0.479168,0.187501 0.203126,0.187501 0.203126,0.432293 0,0.244793 -0.156251,0.44271 -0.151042,0.192709 -0.406251,0.192709 -0.223959,0 -0.468752,-0.187501 -0.145833,-0.114584 -0.234375,-0.114584 l -0.03646,0.0052 q -0.109375,0.03646 -0.197917,0.197917 -0.145834,0.260418 -0.145834,0.541669 l 0.01042,0.140625 q 0.02083,0.385418 0.03125,1.807297 0.01563,0.130209 0.09896,0.260418 0.09375,0.07292 0.1875,0.104167 0.09896,0.03125 0.338543,0.05208 0.239584,0.02083 0.291668,0.06771 0.05208,0.04167 0.05208,0.140625 0,0.05729 -0.03125,0.151042 h -0.489585 l -0.994795,-0.05208 q -0.375001,0 -0.682294,0.03125 h -0.08854 q -0.03646,0 -0.541668,0.02604 -0.01563,-0.08333 -0.01563,-0.125001 0,-0.04167 0.01563,-0.119792 z"
           style="-inkscape-font-specification:'Garamond Bold';fill:#000000;stroke:#ffffff;stroke-width:2;stroke-dasharray:none;stroke-opacity:1"
           id="path1692" /><path
           d="m 29.617155,70.748144 q 0.182292,-0.03125 0.302084,-0.03125 0.0625,0 0.140625,0.0052 0.47396,0.03125 0.770836,0.03125 h 0.270834 l 0.739586,-0.04167 q 0.04167,0.03125 0.07292,0.06771 -0.01563,0.229167 -0.02604,0.291667 -0.07813,0.01563 -0.119792,0.02083 -0.119792,0.01563 -0.177084,0.03125 -0.05729,0.01042 -0.125,0.02083 -0.07813,0.02083 -0.08854,0.07292 0.03125,0.125 0.0625,0.208334 l 0.250001,0.510418 q 0.296876,0.729169 0.609377,1.343755 l 0.291667,0.59896 q 0.03125,-0.0625 0.401043,-1.026045 0.44271,-1.140629 0.479168,-1.286463 0.02083,-0.07813 0.02083,-0.135417 0,-0.05208 -0.03125,-0.171875 -0.114584,-0.08333 -0.187501,-0.104167 -0.07292,-0.02604 -0.338543,-0.05729 l -0.166667,-0.04167 -0.01563,-0.07292 q -0.0052,-0.05208 -0.0052,-0.07813 0,-0.04167 0.01563,-0.135417 0.15625,-0.01042 0.223959,-0.01042 l 0.421876,0.02604 0.281251,0.01042 q 0.177084,0 0.614585,-0.05208 0.270835,-0.03125 0.406252,-0.03646 0.01042,0.130209 0.01042,0.197917 0,0.03125 -0.0052,0.09375 -0.09375,0.04688 -0.208334,0.07292 -0.187501,0.04687 -0.328126,0.08854 -0.07813,0.0625 -0.104167,0.104167 -0.08854,0.197917 -0.359376,0.864586 l -0.375001,1.005212 -0.869795,2.072923 -0.59896,1.375004 q -0.197917,0.395835 -0.463543,0.682294 -0.09896,0.109375 -0.229167,0.166667 -0.213543,0.08333 -0.484377,0.08333 -0.02604,0 -0.286459,-0.03646 -0.213543,-0.05208 -0.369793,-0.223959 -0.109375,-0.125 -0.109375,-0.265625 0,-0.28646 0.244792,-0.531252 0.218751,-0.135417 0.322918,-0.135417 0.234375,0 0.546876,0.244792 0.145834,0.119792 0.234376,0.119792 0.08854,0 0.140626,-0.09896 0.453126,-0.880211 0.583335,-1.250004 l -0.963545,-2.119799 q -0.541668,-1.276045 -0.828128,-1.786464 -0.145833,-0.260417 -0.208334,-0.307292 -0.05729,-0.04687 -0.182292,-0.08333 -0.06771,-0.01563 -0.15625,-0.0625 -0.02604,-0.119792 -0.04687,-0.229167 z"
           style="-inkscape-font-specification:'Garamond Bold';fill:#000000;stroke:#ffffff;stroke-width:2;stroke-dasharray:none;stroke-opacity:1"
           id="path1694" /><path
           d="m 37.601557,74.51378 q 0.161459,-0.04687 0.453126,-0.08854 0.296876,-0.04688 0.34896,-0.04688 0.203125,-0.0052 0.270834,-0.06771 0.03125,-0.125001 0.03125,-0.208334 l -0.01042,-0.666669 0.03125,-0.677085 v -0.432293 l 0.0052,-0.510419 -0.01042,-0.541668 0.02083,-1.161462 0.0052,-0.526043 v -0.07292 q -0.03646,-0.546877 -0.07292,-0.598961 -0.03125,-0.05729 -0.296876,-0.140625 -0.02604,-0.01042 -0.197917,-0.07813 -0.130209,-0.05208 -0.234376,-0.07292 -0.182292,-0.04687 -0.255209,-0.109375 -0.01042,-0.135418 -0.01042,-0.208334 0,-0.04167 0.0052,-0.125001 0.04687,-0.02604 0.09896,-0.02604 0.125,0 0.906253,0.04167 l 0.744794,-0.0052 0.552085,0.01042 q 0.359376,0 0.921878,-0.04688 0.166667,-0.01563 0.192709,-0.01563 0.07813,0 0.109375,0.04167 0.04167,0.05729 0.04167,0.208334 0,0.119792 -0.05729,0.182292 -0.03125,0.03646 -0.229167,0.0625 l -0.645836,0.151042 q -0.02604,0.01042 -0.08854,0.04167 -0.02083,0.03646 -0.03125,0.0625 l -0.0052,0.145833 -0.01563,0.328127 v 0.09375 l 0.0052,0.05729 q 0,0.02604 -0.01563,0.286459 -0.0052,0.06771 -0.0052,0.135417 0,0.08333 0.01042,0.281251 0.01563,0.312501 0.01563,0.546877 0,0.270834 -0.01563,0.619793 -0.0052,0.130209 -0.0052,0.338543 l -0.02083,2.468758 q 0,0.15625 0.05208,0.203125 l 0.494793,0.02083 0.307293,-0.0052 0.328126,0.01042 q 0.838544,0 1.317713,-0.192709 0.359376,-0.145834 0.468751,-0.291667 0.177084,-0.156251 0.286459,-0.338543 0.114584,-0.182292 0.255209,-0.604169 h 0.166668 q 0.125,0 0.281251,0.02083 v 0.145834 q 0,0.375001 -0.09375,1.312504 -0.03646,0.375001 -0.07292,0.458334 -0.119792,0.02083 -0.151042,0.02083 h -0.192709 l -0.270834,0.0052 q -0.04687,0 -0.619794,-0.04167 -0.104167,-0.0052 -0.994794,-0.03646 -0.890628,-0.03125 -1.744798,-0.03125 l -1.062503,0.03125 q -0.614585,0.01563 -1.151045,0.05729 h -0.07813 q -0.03125,0 -0.09896,-0.0052 -0.01042,-0.05729 -0.01042,-0.09896 0,-0.218751 0.03646,-0.31771 z"
           style="-inkscape-font-specification:'Garamond Bold';fill:#000000;stroke:#ffffff;stroke-width:2;stroke-dasharray:none;stroke-opacity:1"
           id="path1696" /><path
           d="m 44.585953,72.185648 q 0.135417,-0.44271 0.239584,-0.588543 0.291667,-0.427085 0.619793,-0.666669 0.333335,-0.239584 0.598961,-0.31771 0.343751,-0.09896 0.557293,-0.09896 0.489585,0 0.791669,0.07813 0.302085,0.07292 0.50521,0.213542 0.291668,0.203126 0.468752,0.41146 0.177084,0.208334 0.286459,0.489585 0.114584,0.281251 0.125,0.682294 l -0.578127,-0.01042 q -0.239584,0 -1.052086,-0.04687 -0.302085,-0.02083 -0.416668,-0.02083 -0.03646,0 -0.562502,0.0052 h -0.447918 q -0.01042,0.07292 -0.01042,0.125 0,0.276043 0.06771,0.583335 0.06771,0.302085 0.203125,0.53646 0.135418,0.229168 0.333335,0.395835 0.203125,0.166667 0.416668,0.239584 l 0.302084,0.09896 q 0.401043,0 0.53646,-0.02604 0.250001,-0.05208 0.437501,-0.130209 0.192709,-0.08333 0.463544,-0.276042 0.1875,0.135417 0.312501,0.244792 -0.458335,0.50521 -0.953128,0.734377 -0.489585,0.22396 -1.098962,0.22396 -0.41146,0 -0.671877,-0.07292 -0.34896,-0.09375 -0.630211,-0.28646 -0.281251,-0.192709 -0.484376,-0.479168 -0.203126,-0.286459 -0.302084,-0.588543 -0.130209,-0.395835 -0.130209,-0.635419 0,-0.453126 0.07292,-0.817711 z m 3.026051,-0.223959 q -0.0052,-0.291668 -0.114584,-0.557293 -0.109375,-0.265626 -0.338543,-0.41146 -0.229167,-0.151042 -0.463543,-0.151042 -0.348959,0 -0.63021,0.307292 -0.281251,0.307293 -0.317709,0.833336 l 1.187503,0.0052 q 0.114584,0 0.322918,-0.01563 0.151042,-0.01563 0.213542,-0.01563 0.04688,0 0.140626,0.0052 z"
           style="-inkscape-font-specification:'Garamond Bold';fill:#000000;stroke:#ffffff;stroke-width:2;stroke-dasharray:none;stroke-opacity:1"
           id="path1698" /><path
           d="m 53.955773,73.966904 0.119792,0.07813 q 0.04688,0.03646 0.05729,0.08854 l 0.0052,0.02604 q -0.125001,0.463543 -0.328126,0.640627 -0.203126,0.171875 -0.50521,0.171875 -0.307293,0 -0.531252,-0.166667 -0.218751,-0.171875 -0.401043,-0.59896 -0.223959,0.395834 -0.63021,0.59896 -0.406252,0.197917 -0.994795,0.197917 -0.541668,0 -0.796878,-0.223959 -0.255209,-0.229167 -0.255209,-0.59896 0,-0.171875 0.07292,-0.348959 0.07813,-0.177084 0.244793,-0.34896 0.171875,-0.177084 0.546876,-0.385418 0.05729,-0.03125 0.395835,-0.177084 l 1.296879,-0.520835 q 0.01563,-0.197917 0.01563,-0.401042 0,-0.703128 -0.171875,-0.958337 -0.104167,-0.15625 -0.364585,-0.15625 -0.260417,0 -0.479168,0.09896 -0.218751,0.09896 -0.317709,0.255209 -0.07292,0.114584 -0.125001,0.432293 -0.03646,0.229168 -0.06771,0.265626 -0.07813,0.09896 -0.28646,0.182293 -0.203125,0.07813 -0.276042,0.114583 -0.281251,0.135417 -0.447918,0.135417 -0.07292,-0.0625 -0.07292,-0.177084 0,-0.296875 0.125,-0.510418 0.187501,-0.302084 0.562502,-0.583335 0.38021,-0.286459 0.708336,-0.401043 0.447918,-0.145834 1.093753,-0.145834 0.416668,0 0.713544,0.156251 0.302084,0.151042 0.416668,0.453126 0.119792,0.302084 0.119792,1.088545 l -0.01563,0.859378 0.01042,0.63021 v 0.161459 q 0,0.218751 0.05729,0.302084 0.0625,0.07813 0.156251,0.07813 0.05729,0 0.09896,-0.03125 l 0.15625,-0.244793 z m -1.708338,-1.208337 q -0.296876,0.09896 -0.671877,0.333334 -0.369793,0.229167 -0.515627,0.463543 -0.104167,0.171876 -0.104167,0.421876 0,0.223959 0.135417,0.369793 0.135417,0.145834 0.312501,0.145834 0.291668,0 0.494793,-0.166667 0.276043,-0.223959 0.322918,-0.354168 0.04687,-0.135417 0.04687,-0.755211 0,-0.229167 -0.02083,-0.458334 z"
           style="-inkscape-font-specification:'Garamond Bold';fill:#000000;stroke:#ffffff;stroke-width:2;stroke-dasharray:none;stroke-opacity:1"
           id="path1700" /><path
           d="m 54.450566,74.690864 q 0.06771,-0.05729 0.177084,-0.08333 0.265625,-0.05729 0.50521,-0.208334 0.04687,-0.125001 0.04687,-0.843753 0,-1.317712 -0.05729,-1.781256 -0.01042,-0.08333 -0.08333,-0.145833 -0.130208,-0.06771 -0.354167,-0.119792 -0.104167,-0.02604 -0.125001,-0.114584 l -0.01563,-0.192709 q 0.385418,-0.05208 0.697919,-0.260417 0.312501,-0.213543 0.468751,-0.432294 0.08333,-0.119792 0.145834,-0.182292 l 0.364585,-0.01563 q 0.02604,0.119792 0.02604,0.197917 0,0.05729 -0.0052,0.140626 -0.0052,0.182292 -0.0052,0.302084 0,0.05729 0.0052,0.432293 0.213542,-0.364584 0.312501,-0.489585 0.04687,-0.05729 0.276043,-0.255209 0.177084,-0.130209 0.401043,-0.130209 0.276042,0 0.479168,0.187501 0.203125,0.187501 0.203125,0.432293 0,0.244793 -0.15625,0.44271 -0.151042,0.192709 -0.406251,0.192709 -0.223959,0 -0.468752,-0.187501 -0.145834,-0.114584 -0.234376,-0.114584 l -0.03646,0.0052 q -0.109375,0.03646 -0.197917,0.197917 -0.145834,0.260418 -0.145834,0.541669 l 0.01042,0.140625 q 0.02083,0.385418 0.03125,1.807297 0.01563,0.130209 0.09896,0.260418 0.09375,0.07292 0.187501,0.104167 0.09896,0.03125 0.338543,0.05208 0.239584,0.02083 0.291667,0.06771 0.05208,0.04167 0.05208,0.140625 0,0.05729 -0.03125,0.151042 h -0.489585 l -0.994795,-0.05208 q -0.375001,0 -0.682294,0.03125 h -0.08854 q -0.03646,0 -0.541668,0.02604 -0.01563,-0.08333 -0.01563,-0.125001 0,-0.04167 0.01563,-0.119792 z"
           style="-inkscape-font-specification:'Garamond Bold';fill:#000000;stroke:#ffffff;stroke-width:2;stroke-dasharray:none;stroke-opacity:1"
           id="path1702" /><path
           d="m 58.565162,74.680448 q 0.135417,-0.0625 0.250001,-0.08333 0.286459,-0.04687 0.333334,-0.07813 0.07813,-0.04687 0.104167,-0.114584 0.03125,-0.104167 0.03125,-0.458335 v -0.453126 l 0.0052,-0.369793 -0.01563,-0.546877 v -0.328126 q 0,-0.328126 -0.05208,-0.53646 -0.02083,-0.07813 -0.130209,-0.15625 -0.145834,-0.104167 -0.494793,-0.203126 l -0.0052,-0.250001 q 0.06771,-0.02083 0.119792,-0.02604 0.05729,-0.01042 0.421876,-0.104167 0.286459,-0.104167 0.369793,-0.145834 0.02604,-0.01563 0.08333,-0.04687 0.0625,-0.05208 0.140626,-0.104167 0.15625,-0.109376 0.375001,-0.38021 l 0.276043,-0.02083 -0.01042,0.588543 q -0.0052,0.08854 -0.0052,0.140626 0,0.04167 0.0052,0.239584 0.432293,-0.375001 0.786461,-0.520835 0.463543,-0.192709 0.880211,-0.192709 0.489585,0 0.859378,0.244792 0.369792,0.239584 0.484376,0.557294 0.114584,0.317709 0.114584,1.281254 l -0.02083,1.697922 q 0,0.119792 0.04167,0.197917 0.05208,0.04167 0.286459,0.07813 l 0.25521,0.04688 q 0.04687,0.06771 0.04687,0.166667 0,0.0625 -0.0052,0.171875 l -1.020836,-0.07292 -0.302085,0.01042 h -0.239584 l -0.687502,0.05208 h -0.177084 q -0.0052,-0.06771 -0.0052,-0.104167 0,-0.09375 0.01042,-0.203126 0.07292,-0.01563 0.364584,-0.05208 0.07813,-0.01042 0.171876,-0.03646 0.104167,-0.04167 0.119792,-0.08333 0.04167,-0.08854 0.04167,-0.338542 0,-0.437502 -0.01042,-0.671877 l 0.0052,-0.604169 q 0.0052,-1.098962 -0.135417,-1.369796 -0.197917,-0.390626 -0.593752,-0.390626 -0.291667,0 -0.604168,0.151042 -0.312501,0.145834 -0.645836,0.447918 l -0.01042,0.08854 0.01042,0.328126 -0.0052,0.348959 0.02083,0.833336 -0.01042,0.130209 q 0,0.848961 0.06771,0.958336 0.06771,0.109376 0.515627,0.239585 0.01563,0.08854 0.01563,0.130208 0,0.0625 -0.03646,0.192709 -0.161458,0.0052 -0.270834,0.0052 -0.109375,0 -0.343751,-0.03125 l -0.557293,-0.01042 q -0.416668,0 -1.203129,0.03646 -0.02083,-0.05208 -0.02083,-0.109375 0,-0.04167 0.0052,-0.166667 z"
           style="-inkscape-font-specification:'Garamond Bold';fill:#000000;stroke:#ffffff;stroke-width:2;stroke-dasharray:none;stroke-opacity:1"
           id="path1704" /><path
           d="m 65.1381,68.732512 q 0,-0.281251 0.182292,-0.458335 0.182292,-0.182292 0.468751,-0.182292 0.307293,0 0.510419,0.192709 0.203125,0.187501 0.203125,0.427085 0,0.177084 -0.08333,0.354168 -0.07813,0.177083 -0.255209,0.286459 -0.171876,0.104167 -0.354168,0.104167 -0.250001,0 -0.463543,-0.213543 Q 65.1381,69.029388 65.1381,68.732512 Z m -0.729169,6.213561 -0.01042,-0.338542 0.588544,-0.07813 q 0.130208,-0.03646 0.177083,-0.104167 0.05208,-0.07292 0.05208,-0.31771 v -0.05729 q 0,-0.0625 0.0052,-0.223959 0.01042,-0.166667 0.01042,-0.291667 0,-0.09896 -0.01563,-0.38021 l 0.0052,-0.260417 -0.0052,-0.244793 0.01042,-0.848961 q 0,-0.161459 -0.03125,-0.333334 -0.05729,-0.07813 -0.208334,-0.135417 -0.151043,-0.05729 -0.526044,-0.08333 v -0.291667 q 0.53646,-0.03125 0.942712,-0.223959 0.276042,-0.125001 0.59896,-0.44271 h 0.348959 q 0.02083,0.645835 0.02083,1.677088 l -0.03646,2.125007 q 0,0.218751 0.02083,0.395835 0.161458,0.05729 0.526043,0.114583 0.140625,0.02083 0.223959,0.05208 l -0.0052,0.286459 q -0.140626,0.0052 -0.208334,0.0052 -0.07813,0 -0.239584,-0.01042 -0.531252,-0.02604 -1.42188,-0.02604 -0.255209,0 -0.494793,0.02083 -0.239584,0.01563 -0.328126,0.01563 z"
           style="-inkscape-font-specification:'Garamond Bold';fill:#000000;stroke:#ffffff;stroke-width:2;stroke-dasharray:none;stroke-opacity:1"
           id="path1706" /><path
           d="m 67.455817,74.680448 q 0.135417,-0.0625 0.250001,-0.08333 0.286459,-0.04687 0.333335,-0.07813 0.07813,-0.04687 0.104167,-0.114584 0.03125,-0.104167 0.03125,-0.458335 v -0.453126 l 0.0052,-0.369793 -0.01563,-0.546877 v -0.328126 q 0,-0.328126 -0.05208,-0.53646 -0.02083,-0.07813 -0.130208,-0.15625 -0.145834,-0.104167 -0.494794,-0.203126 l -0.0052,-0.250001 q 0.06771,-0.02083 0.119792,-0.02604 0.05729,-0.01042 0.421876,-0.104167 0.28646,-0.104167 0.369793,-0.145834 0.02604,-0.01563 0.08333,-0.04687 0.0625,-0.05208 0.140625,-0.104167 0.156251,-0.109376 0.375002,-0.38021 l 0.276042,-0.02083 -0.01042,0.588543 q -0.0052,0.08854 -0.0052,0.140626 0,0.04167 0.0052,0.239584 0.432293,-0.375001 0.786461,-0.520835 0.463543,-0.192709 0.880211,-0.192709 0.489585,0 0.859378,0.244792 0.369793,0.239584 0.484377,0.557294 0.114583,0.317709 0.114583,1.281254 l -0.02083,1.697922 q 0,0.119792 0.04167,0.197917 0.05208,0.04167 0.286459,0.07813 l 0.255209,0.04688 q 0.04687,0.06771 0.04687,0.166667 0,0.0625 -0.0052,0.171875 l -1.020837,-0.07292 -0.302084,0.01042 H 71.42458 l -0.687502,0.05208 h -0.177084 q -0.0052,-0.06771 -0.0052,-0.104167 0,-0.09375 0.01042,-0.203126 0.07292,-0.01563 0.364585,-0.05208 0.07813,-0.01042 0.171875,-0.03646 0.104167,-0.04167 0.119792,-0.08333 0.04167,-0.08854 0.04167,-0.338542 0,-0.437502 -0.01042,-0.671877 l 0.0052,-0.604169 q 0.0052,-1.098962 -0.135417,-1.369796 -0.197918,-0.390626 -0.593752,-0.390626 -0.291668,0 -0.604169,0.151042 -0.312501,0.145834 -0.645835,0.447918 l -0.01042,0.08854 0.01042,0.328126 -0.0052,0.348959 0.02083,0.833336 -0.01042,0.130209 q 0,0.848961 0.06771,0.958336 0.06771,0.109376 0.515626,0.239585 0.01563,0.08854 0.01563,0.130208 0,0.0625 -0.03646,0.192709 -0.161459,0.0052 -0.270834,0.0052 -0.109376,0 -0.343751,-0.03125 l -0.557294,-0.01042 q -0.416668,0 -1.203129,0.03646 -0.02083,-0.05208 -0.02083,-0.109375 0,-0.04167 0.0052,-0.166667 z"
           style="-inkscape-font-specification:'Garamond Bold';fill:#000000;stroke:#ffffff;stroke-width:2;stroke-dasharray:none;stroke-opacity:1"
           id="path1708" /><path
           d="m 74.638128,75.643992 q -0.703127,-0.177084 -0.937503,-0.416668 -0.234375,-0.234375 -0.234375,-0.526043 0,-0.234376 0.125,-0.359376 0.125,-0.125 1.140629,-0.703127 -0.515627,-0.307293 -0.708336,-0.593752 -0.250001,-0.375001 -0.250001,-0.739586 0,-0.328126 0.135417,-0.697919 0.291668,-0.531251 0.796878,-0.791669 0.510418,-0.265626 1.312504,-0.265626 0.322918,0 0.557293,0.04167 0.109376,0.02083 0.364585,0.114584 l 0.197917,0.07292 q 0.265626,0.166667 0.463543,0.343751 0.447918,-0.08854 0.723961,-0.182292 0.192709,-0.05729 0.333334,-0.05729 0.104167,0 0.166668,0.08854 0.0625,0.08854 0.0625,0.416668 0,0.286459 -0.07813,0.401043 -0.07813,0.109375 -0.161459,0.109375 -0.03125,0 -0.182293,-0.07292 -0.354167,-0.161459 -0.56771,-0.171876 0.125001,0.359377 0.125001,0.682294 0,0.38021 -0.223959,0.729169 -0.218751,0.343751 -0.604169,0.546877 -0.53646,0.286459 -1.07292,0.286459 -0.343751,0 -0.468751,-0.01563 -0.182293,-0.02083 -0.510419,-0.09375 -0.442709,0.244792 -0.619793,0.416668 -0.08854,0.08333 -0.08854,0.197917 0,0.104167 0.08854,0.187501 0.09375,0.08333 0.307292,0.114583 0.04167,0.0052 0.114584,0.02083 0.276043,0.02083 0.734377,0.02083 0.05729,0 0.369793,-0.01563 0.08854,-0.0052 0.151042,-0.0052 1.244796,0 1.744797,0.395834 0.494794,0.395835 0.494794,0.968753 0,0.307293 -0.177084,0.598961 -0.171876,0.296876 -0.468752,0.479168 -0.296876,0.1875 -0.859377,0.333334 -0.557294,0.145834 -1.197921,0.145834 -0.69271,0 -1.244795,-0.135417 -0.546877,-0.135417 -0.859378,-0.44271 -0.239584,-0.229167 -0.239584,-0.489585 0,-0.255209 0.197917,-0.458334 0.203126,-0.197918 1.046878,-0.479169 z m 1.302088,-2.093756 q 0.348959,0 0.593752,-0.296876 0.25,-0.302084 0.25,-0.932295 0,-0.833336 -0.223959,-1.119795 -0.21875,-0.286459 -0.619793,-0.286459 -0.05208,0 -0.276043,0.02604 -0.250001,0.04687 -0.458335,0.354167 -0.203125,0.307293 -0.203125,0.82292 0,0.140625 0.03646,0.557293 0.01563,0.177084 0.07813,0.307293 0.08854,0.203125 0.192708,0.317709 0.104167,0.109375 0.276043,0.182292 0.177084,0.06771 0.354168,0.06771 z m 0.296876,3.744803 q 0.770836,-0.08854 1.19792,-0.416668 0.270834,-0.213542 0.270834,-0.421876 0,-0.114584 -0.05729,-0.223959 -0.05729,-0.109375 -0.208334,-0.218751 -0.145834,-0.104167 -0.333335,-0.145834 -0.265626,-0.05208 -0.703127,-0.05208 l -0.640627,-0.01042 q -0.843753,0 -1.13542,0.208334 -0.28646,0.208334 -0.28646,0.552085 0,0.182293 0.161459,0.359376 0.161459,0.182293 0.541669,0.28646 0.380209,0.104167 0.817711,0.104167 0.125,0 0.375001,-0.02083 z"
           style="-inkscape-font-specification:'Garamond Bold';fill:#000000;stroke:#ffffff;stroke-width:2;stroke-dasharray:none;stroke-opacity:1"
           id="path1710" /></g><g
         style="color:#000000;fill:none;stroke:#ffffff;stroke-width:2.68907;stroke-dasharray:none;stroke-opacity:1"
         id="g1632"
         transform="matrix(0.74375076,0,0,0.74375076,19.199627,8.3651409)"><path
           style="fill:#ca8a04;stroke:#ffffff;stroke-width:2.68907;stroke-linecap:round;stroke-linejoin:round;stroke-dasharray:none;stroke-opacity:1"
           d="m 12,1.9921875 c -2.1639469,0 -3.9327703,0.5280672 -5.1757813,1.6015625 -1.2430109,1.0734953 -1.859624,2.668017 -1.8320312,4.421875 0.026675,1.6950193 0.667192,3.069705 1.7949219,4.197266 0.50007,0.49999 0.7777134,0.793708 0.9375,1.113281 C 7.8843959,13.645745 7.9922608,14.084041 7.9921875,15 A 1.0084,1.0084 0 0 0 9,16.007812 1.0084,1.0084 0 0 0 10.009766,15 C 10.009852,13.915961 9.8675567,13.104254 9.5273438,12.423828 9.1871308,11.743402 8.7129796,11.287118 8.2128906,10.787109 7.3403225,9.9146722 7.0298901,9.2631327 7.0097656,7.984375 6.9893785,6.6885261 7.3736386,5.7832161 8.1425781,5.1191406 8.9115177,4.4550652 10.163821,4.0078125 12,4.0078125 c 1.836217,0 3.09044,0.4472554 3.859375,1.1113281 0.768935,0.6640727 1.153208,1.5693835 1.132812,2.8652344 A 1.0084,1.0084 0 0 0 17.984375,9.0078125 1.0084,1.0084 0 0 0 19.009766,8.015625 C 19.03737,6.2617689 18.420747,4.6672481 17.177734,3.59375 15.934722,2.5202519 14.163979,1.9921875 12,1.9921875 Z"
           id="path1630" /></g><g
         style="color:#000000;fill:none;stroke:#ffffff;stroke-width:2.68907;stroke-dasharray:none;stroke-opacity:1"
         id="g1636"
         transform="matrix(0.74375076,0,0,0.74375076,43.581332,11.144302)"><path
           style="fill:#ca8a04;stroke:#ffffff;stroke-width:2.68907;stroke-linecap:round;stroke-linejoin:round;stroke-dasharray:none;stroke-opacity:1"
           d="m 12,1.9921875 c -3.4150792,0 -5.9115806,1.4650411 -6.7109375,3.9199219 A 1.0084,1.0084 0 0 0 5.9375,7.1835937 1.0084,1.0084 0 0 0 7.2070312,6.5371094 C 7.7170952,4.9706673 9.1021945,4.0078125 12,4.0078125 c 1.836217,0 3.09044,0.4472554 3.859375,1.1113281 0.768935,0.6640727 1.153208,1.5693835 1.132812,2.8652344 -0.02012,1.2786447 -0.332656,1.9302254 -1.205078,2.802734 -0.499887,0.499988 -0.97233,0.95638 -1.3125,1.636719 C 14.13444,13.104167 13.992296,13.915976 13.992188,15 A 1.0084,1.0084 0 0 0 15,16.007812 1.0084,1.0084 0 0 0 16.009766,15 c 9.1e-5,-0.915974 0.107748,-1.354168 0.267578,-1.673828 0.15983,-0.31966 0.437588,-0.61327 0.9375,-1.113281 C 18.34222,11.085402 18.983088,9.7107573 19.009766,8.015625 19.03737,6.2617689 18.420747,4.6672481 17.177734,3.59375 15.934722,2.5202519 14.163979,1.9921875 12,1.9921875 Z"
           id="path1634" /></g><path
         style="color:#000000;fill:#450a0a;stroke:#ffffff;stroke-width:2;stroke-linecap:round;stroke-linejoin:round;stroke-dasharray:none;stroke-opacity:1"
         d="m 39.855469,12.859375 c -5.669217,-0.05919 -10.073482,1.750626 -13.007813,4.839844 -2.93433,3.089217 -4.367198,7.390021 -4.367187,12.160156 0,4.827898 1.900112,8.169702 3.767578,10.902344 1.863499,2.726837 3.601462,4.867314 3.86914,7.466797 v 5.628906 a 1,1 0 0 0 1,1 1,1 0 0 0 1,-1 v -5.712891 a 1.0001,1.0001 0 0 0 -0.0059,-0.09961 c -0.3364,-3.347813 -2.409787,-5.776507 -4.210937,-8.41211 -1.801151,-2.635602 -3.419922,-5.458744 -3.419922,-9.773437 -10e-6,-4.372377 1.296107,-8.129871 3.816406,-10.783203 2.520299,-2.653332 6.297297,-4.271505 11.537109,-4.216797 3.740308,0.03905 7.344731,1.136697 9.966797,3.240234 2.622067,2.103538 4.316406,5.173776 4.316406,9.47461 a 1.0001,1.0001 0 0 0 0.15625,0.537109 l 4.15625,6.53125 c -0.07403,1.751257 -0.788013,2.48029 -1.59375,2.902344 -0.848162,0.444276 -1.71875,0.457031 -1.71875,0.457031 a 1.0001,1.0001 0 0 0 -0.996093,1.095703 c 0,0 0.238172,2.688073 -0.634766,5.300781 -0.436469,1.306355 -1.135111,2.558904 -2.232422,3.478516 -1.097311,0.919612 -2.60273,1.552734 -4.863281,1.552734 a 1.0001,1.0001 0 0 0 -1,1 v 3.427735 a 1,1 0 0 0 1,1 1,1 0 0 0 1,-1 v -2.583985 c 2.124433,-0.187653 3.894294,-0.81387 5.146484,-1.863281 1.45953,-1.223173 2.327598,-2.82626 2.845703,-4.376953 0.77636,-2.323649 0.779889,-4.17616 0.742188,-5.173828 0.473423,-0.09231 1.039587,-0.229162 1.638672,-0.542969 1.333635,-0.698572 2.716797,-2.28284 2.716797,-4.886719 a 1.0001,1.0001 0 0 0 -0.15625,-0.537109 l -4.244141,-6.667969 c -0.0996,-4.66346 -2.054738,-8.300791 -5.027344,-10.685547 -3.050477,-2.447227 -7.082581,-3.636733 -11.197265,-3.679687 z"
         id="path1638" /></g><g
       id="g504"
       transform="translate(-0.111857,-1.5181607)"><path
         d="M 41.634577,9.6461158 C 38.989627,5.8255332 34.465861,3.4520739 28.063385,3.5189209 c -7.855,0.082 -15.2726,4.5712603 -15.2726,13.7138201 l -4.3636004,6.8568 c 0,4.571401 4.3636004,4.571401 4.3636004,4.571401 0,0 -1.0908,11.4282 8.7274,11.4282 v 3.4284"
         stroke="#000000"
         stroke-width="3"
         stroke-linecap="round"
         stroke-linejoin="round"
         id="path966"
         sodipodi:nodetypes="ccccccc"
         style="stroke:#1e3a8a;stroke-width:2;stroke-dasharray:none;stroke-opacity:1" /><g
         style="color:#000000;fill:none;stroke:#ca8a04;stroke-width:2.0168;stroke-dasharray:none;stroke-opacity:1"
         id="g256"
         transform="matrix(0.74375076,0,0,0.74375076,31.096866,19.540456)"><path
           d="m 9,18 h 6"
           stroke="#000000"
           stroke-width="1.5"
           stroke-linecap="round"
           stroke-linejoin="round"
           id="path241"
           style="stroke:#ca8a04;stroke-width:2.0168;stroke-dasharray:none;stroke-opacity:1" /><path
           d="m 10,21 h 4"
           stroke="#000000"
           stroke-width="1.5"
           stroke-linecap="round"
           stroke-linejoin="round"
           id="path243"
           style="stroke:#ca8a04;stroke-width:2.0168;stroke-dasharray:none;stroke-opacity:1" /><path
           d="m 9.00082,15 c 1.6e-4,-2 -0.49984,-2.5 -1.5,-3.5 -1.00015,-1 -1.4766,-2.01311 -1.5,-3.5 -0.04798,-3.04971 1.99985,-5 5.99998,-5 4.0002,0 6.048,1.95029 6,5 -0.0234,1.48689 -0.5001,2.5 -1.5,3.5 -0.9998,1 -1.4998,1.5 -1.5,3.5"
           stroke="#000000"
           stroke-width="1.5"
           stroke-linecap="round"
           stroke-linejoin="round"
           id="path245"
           style="stroke:#ca8a04;stroke-width:2.0168;stroke-dasharray:none;stroke-opacity:1" /></g><path
         d="m 38.865787,13.232033 c 2.64495,-3.8205819 7.168716,-6.1940419 13.571192,-6.1271939 7.855,0.082 15.2726,4.5712599 15.2726,13.7138199 l 4.3636,6.856801 c 0,4.5714 -4.3636,4.5714 -4.3636,4.5714 0,0 1.0908,11.4282 -8.7274,11.4282 v 3.4284"
         stroke="#000000"
         stroke-width="3"
         stroke-linecap="round"
         stroke-linejoin="round"
         id="path866"
         sodipodi:nodetypes="ccccccc"
         style="stroke:#14532d;stroke-width:2;stroke-dasharray:none;stroke-opacity:1" /><text
         xml:space="preserve"
         style="font-weight:bold;font-size:10.6667px;line-height:1;font-family:junglelaw;-inkscape-font-specification:'junglelaw Bold';text-align:center;text-anchor:middle;fill:none;stroke:#ffffff;stroke-width:1;stroke-linecap:round;stroke-linejoin:round;stroke-dasharray:none"
         x="39.796875"
         y="63.595875"
         id="text1022"><tspan
           sodipodi:role="line"
           id="tspan1020"
           x="39.796875"
           y="63.595875"
           style="font-style:normal;font-variant:normal;font-weight:bold;font-stretch:normal;font-size:10.6667px;font-family:Garamond;-inkscape-font-specification:'Garamond Bold';fill:#000000;fill-opacity:1;stroke:none">Team-Based</tspan><tspan
           sodipodi:role="line"
           x="39.796875"
           y="74.977325"
           style="font-style:normal;font-variant:normal;font-weight:bold;font-stretch:normal;font-size:10.6667px;font-family:Garamond;-inkscape-font-specification:'Garamond Bold';fill:#000000;fill-opacity:1;stroke:none"
           id="tspan1176">Inquiry Learning</tspan></text><g
         style="color:#000000;fill:none;stroke:#ca8a04;stroke-width:2.0168;stroke-dasharray:none;stroke-opacity:1"
         id="g5580"
         transform="matrix(0.74375076,0,0,0.74375076,19.199627,8.3651409)"><path
           d="m 9.00082,15 c 1.6e-4,-2 -0.49984,-2.5 -1.5,-3.5 -1.00015,-1 -1.4766,-2.01311 -1.5,-3.5 -0.04798,-3.04971 1.99985,-5 5.99998,-5 4.0002,0 6.048,1.95029 6,5"
           stroke="#000000"
           stroke-width="1.5"
           stroke-linecap="round"
           stroke-linejoin="round"
           id="path5578"
           style="stroke:#ca8a04;stroke-width:2.0168;stroke-dasharray:none;stroke-opacity:1"
           sodipodi:nodetypes="cscsc" /></g><g
         style="color:#000000;fill:none;stroke:#ca8a04;stroke-width:2.0168;stroke-dasharray:none;stroke-opacity:1"
         id="g5588"
         transform="matrix(0.74375076,0,0,0.74375076,43.581332,11.144302)"><path
           d="M 6.2488098,6.2250237 C 6.9035209,4.2143603 8.8443545,3 12.0008,3 c 4.0002,0 6.048,1.95029 6,5 -0.0234,1.48689 -0.5001,2.5 -1.5,3.5 -0.9998,1 -1.4998,1.5 -1.5,3.5"
           stroke="#000000"
           stroke-width="1.5"
           stroke-linecap="round"
           stroke-linejoin="round"
           id="path5586"
           style="stroke:#ca8a04;stroke-width:2.0168;stroke-dasharray:none;stroke-opacity:1"
           sodipodi:nodetypes="csscc" /></g><path
         d="m 31.11713,53.858327 8e-5,-5.714 c -0.59836,-5.9548 -7.63642,-9.1426 -7.63642,-18.2852 -2e-5,-9.142521 5.45474,-16.113321 16.36378,-15.999421 7.855,0.082 15.2726,4.57126 15.2726,13.713821 l 4.3636,6.8568 c 0,4.5714 -4.3636,4.5714 -4.3636,4.5714 0,0 1.0908,11.4282 -8.7274,11.4282 v 3.4284"
         stroke="#000000"
         stroke-width="3"
         stroke-linecap="round"
         stroke-linejoin="round"
         id="path2"
         style="stroke:#450a0a;stroke-width:2;stroke-dasharray:none;stroke-opacity:1" /></g></g></svg>
