<svg xmlns="http://www.w3.org/2000/svg" xmlns:xlink="http://www.w3.org/1999/xlink" version="1.1" width="333" height="162" viewBox="0 0 333 162">
<defs>
<path id="font_1_1" d="M.47399903 .40820313C.44198609 .40219117 .42999269 .3781891 .42999269 .3591919 .42999269 .33518983 .44898988 .3271942 .46299745 .3271942 .49299623 .3271942 .5139923 .3531952 .5139923 .380188 .5139923 .4223938 .46598817 .44140626 .42399598 .44140626 .36299134 .44140626 .32899476 .38119508 .31999208 .36219789 .29699708 .4373932 .23498535 .44140626 .21699524 .44140626 .114990238 .44140626 .06098938 .31021119 .06098938 .28822328 .06098938 .28422547 .06498718 .27923585 .07199097 .27923585 .07998657 .27923585 .08198547 .28523255 .083999637 .2892151 .117996219 .40019227 .18499756 .42140199 .21398926 .42140199 .25898744 .42140199 .2679901 .37919618 .2679901 .3551941 .2679901 .33319093 .2619934 .31021119 .25 .26223756L.21598816 .12535095C.20098877 .06535339 .17199707 .010223389 .11898804 .010223389 .11399841 .010223389 .08898926 .010223389 .067993167 .023330689 .10398865 .03036499 .11199951 .06036377 .11199951 .07235718 .11199951 .09236145 .09700012 .10435486 .07798767 .10435486 .053985597 .10435486 .027999878 .083358768 .027999878 .051361085 .027999878 .009231567 .07499695-.009765625 .117996219-.009765625 .1659851-.009765625 .19999695 .028366089 .22099304 .069366458 .23699951 .010223389 .2869873-.009765625 .32398988-.009765625 .42599488-.009765625 .47999574 .12135315 .47999574 .1433258 .47999574 .14833069 .47599793 .15232849 .46998597 .15232849 .46099855 .15232849 .45999146 .14732361 .45700074 .139328 .42999269 .051361085 .37199403 .010223389 .32699586 .010223389 .2919922 .010223389 .272995 .036361696 .272995 .07736206 .272995 .099365238 .2769928 .115356449 .29299928 .18130493L.32798768 .3171997C.34298707 .37719728 .3769989 .42140199 .4229889 .42140199 .4249878 .42140199 .45298768 .42140199 .47399903 .40820313Z"/>
<path id="font_1_2" d="M.2630005-.11172485C.23599243-.14982605 .19699097-.18411255 .147995-.18411255 .13598633-.18411255 .08799744-.18209839 .07299805-.13572693 .07598877-.13671875 .08099365-.13671875 .08299255-.13671875 .11299133-.13671875 .1329956-.11073303 .1329956-.08772278 .1329956-.06472778 .11399841-.056732179 .09899902-.056732179 .08299255-.056732179 .04798889-.068725589 .04798889-.11772156 .04798889-.16899109 .09098816-.20410156 .147995-.20410156 .24798584-.20410156 .34899903-.11172485 .3769989-.00077819827L.47499085 .38868714C.47599793 .39367677 .47799684 .39967347 .47799684 .4056549 .47799684 .4206543 .46598817 .43066407 .45098878 .43066407 .44198609 .43066407 .42099 .426651 .41299439 .39666749L.33898927 .10308838C.33399964 .085113529 .33399964 .08312988 .32598878 .072143558 .30599977 .04423523 .272995 .010223389 .22499085 .010223389 .16899109 .010223389 .1639862 .06524658 .1639862 .09225464 .1639862 .14929199 .19099427 .22631836 .21798706 .2983551 .22898865 .32736207 .23498535 .34136964 .23498535 .3613739 .23498535 .4033966 .20498657 .44140626 .1559906 .44140626 .06399536 .44140626 .026992798 .29634095 .026992798 .28834535 .026992798 .28434754 .0309906 .27934266 .037994386 .27934266 .04699707 .27934266 .04798889 .28334046 .051986696 .29734803 .07598877 .38137818 .11399841 .42140199 .15299988 .42140199 .1619873 .42140199 .1789856 .42140199 .1789856 .38838197 .1789856 .36238099 .16799927 .33335877 .15299988 .29534913 .10398865 .16429138 .10398865 .13127136 .10398865 .10726929 .10398865 .01222229 .17199707-.009765625 .22200012-.009765625 .25099183-.009765625 .2869873-.00077819827 .32199098 .036239625L.32299806 .035232545C.30799867-.023757935 .2979889-.06272888 .2630005-.11172485Z"/>
<path id="font_2_1" d="M.19198609 .2502594C.19198609 .2792511 .16799927 .30325318 .13899231 .30325318 .10998535 .30325318 .085998538 .2792511 .085998538 .2502594 .085998538 .22125244 .10998535 .19726563 .13899231 .19726563 .16799927 .19726563 .19198609 .22125244 .19198609 .2502594Z"/>
<path id="font_3_2" d="M.28799439 .64105227C.28799439 .664032 .28799439 .66503909 .2679901 .66503909 .24398804 .6380615 .19400025 .6012573 .09098816 .6012573V.5722656C.11399841 .5722656 .1639862 .5722656 .21899414 .59825137V.07701111C.21899414 .041000368 .21598816 .0289917 .12799073 .0289917H.09700012V0C.12399292 .0019989014 .22099304 .0019989014 .2539978 .0019989014 .2869873 .0019989014 .3829956 .0019989014 .4099884 0V.0289917H.3789978C.29100038 .0289917 .28799439 .041000368 .28799439 .07701111V.64105227Z"/>
<path id="font_3_1" d="M.44799806 .31976319C.44799806 .40283204 .44299317 .48390199 .40699769 .55996707 .3659973 .64302065 .2939911 .66503909 .24499512 .66503909 .18699646 .66503909 .115997318 .63601687 .07899475 .552948 .050994874 .48989869 .040985109 .42785646 .040985109 .31976319 .040985109 .22268677 .04798889 .14962769 .083999637 .078567508 .12298584 .0025177003 .19198609-.021484375 .24398804-.021484375 .33099366-.021484375 .3809967 .030532837 .4099884 .08857727 .44599916 .16363526 .44799806 .26171876 .44799806 .31976319M.24398804-.0014953613C.21199036-.0014953613 .14698792 .016525269 .12799073 .12561035 .116989139 .18565369 .116989139 .26171876 .116989139 .33177186 .116989139 .41384889 .116989139 .48789979 .1329956 .5469513 .1499939 .6139984 .20098877 .6450348 .24398804 .6450348 .28199769 .6450348 .33999635 .6220093 .35899354 .53593447 .37199403 .4788971 .37199403 .39982606 .37199403 .33177186 .37199403 .26472474 .37199403 .18865967 .36099244 .12760926 .34199525 .01751709 .2789917-.0014953613 .24398804-.0014953613Z"/>
</defs>
<path transform="matrix(1.00003,0,0,-1.00005,29.376515,132.70174)" stroke-width=".3985" stroke-linecap="butt" stroke-miterlimit="10" stroke-linejoin="miter" fill="none" stroke="#000000" d="M-28.3468 0H288.6791"/>
<path transform="matrix(1.00003,0,0,-1.00005,318.0643,132.70174)" stroke-width=".31879" stroke-linecap="round" stroke-linejoin="round" fill="none" stroke="#000000" d="M-1.19551 1.59401C-1.09587 .99626 0 .09961 .29886 0 0-.09961-1.09587-.99626-1.19551-1.59401"/>
<use data-text="x" xlink:href="#font_1_1" transform="matrix(11.95556,0,0,-11.955797,322.70634,142.0332)"/>
<path transform="matrix(1.00003,0,0,-1.00005,29.376515,132.70174)" stroke-width=".3985" stroke-linecap="butt" stroke-miterlimit="10" stroke-linejoin="miter" fill="none" stroke="#000000" d="M0-28.3468V118.59822"/>
<path transform="matrix(0,-1.00005,-1.00003,-0,29.376515,14.097595)" stroke-width=".31879" stroke-linecap="round" stroke-linejoin="round" fill="none" stroke="#000000" d="M-1.19551 1.59401C-1.09587 .99626 0 .09961 .29886 0 0-.09961-1.09587-.99626-1.19551-1.59401"/>
<use data-text="y" xlink:href="#font_1_2" transform="matrix(11.95556,0,0,-11.955797,26.308423,7.1304628)"/>
<path transform="matrix(1.00003,0,0,-1.00005,29.376515,132.70174)" stroke-width=".3985" stroke-linecap="butt" stroke-miterlimit="10" stroke-linejoin="miter" fill="none" stroke="#0000ff" d="M0 113.38724H28.3468V90.71013H56.69362V72.56775H85.04042V58.05351H113.38724V46.44244H141.73404V37.15326"/>
<path transform="matrix(1.00003,0,0,-1.00005,29.376515,132.70174)" stroke-width=".3985" stroke-linecap="butt" stroke-miterlimit="10" stroke-linejoin="miter" fill="none" stroke="#000000" d="M0 0V113.38724"/>
<path transform="matrix(1.00003,0,0,-1.00005,29.376515,132.70174)" stroke-width=".3985" stroke-linecap="butt" stroke-miterlimit="10" stroke-linejoin="miter" fill="none" stroke="#0000ff" d="M28.3468 90.71013V0"/>
<path transform="matrix(1.00003,0,0,-1.00005,29.376515,132.70174)" stroke-width=".3985" stroke-linecap="butt" stroke-miterlimit="10" stroke-linejoin="miter" fill="none" stroke="#0000ff" d="M56.69362 72.56775V0"/>
<path transform="matrix(1.00003,0,0,-1.00005,29.376515,132.70174)" stroke-width=".3985" stroke-linecap="butt" stroke-miterlimit="10" stroke-linejoin="miter" fill="none" stroke="#0000ff" d="M85.04042 58.05351V0"/>
<path transform="matrix(1.00003,0,0,-1.00005,29.376515,132.70174)" stroke-width=".3985" stroke-linecap="butt" stroke-miterlimit="10" stroke-linejoin="miter" fill="none" stroke="#0000ff" d="M113.38724 46.44244V0"/>
<path transform="matrix(1.00003,0,0,-1.00005,29.376515,132.70174)" stroke-width=".3985" stroke-linecap="butt" stroke-miterlimit="10" stroke-linejoin="miter" fill="none" stroke="#0000ff" d="M141.73404 37.15326V0"/>
<g>
<path transform="matrix(1.00003,0,0,-1.00005,29.376515,132.70174)" d="M0 0V113.38724H28.3468V90.71013H56.69362V72.56775H85.04042V58.05351H113.38724V46.44244H141.73404V37.15326 0Z" fill="#0000ff" fill-opacity=".2"/>
<path transform="matrix(1.00003,0,0,-1.00005,29.376515,132.70174)" stroke-width=".3985" stroke-linecap="butt" stroke-miterlimit="10" stroke-linejoin="miter" fill="none" stroke="#0000ff" stroke-opacity=".2" d="M0 0V113.38724H28.3468V90.71013H56.69362V72.56775H85.04042V58.05351H113.38724V46.44244H141.73404V37.15326 0Z"/>
</g>
<path transform="matrix(1.00003,0,0,-1.00005,29.376515,132.70174)" stroke-width=".3985" stroke-linecap="butt" stroke-miterlimit="10" stroke-linejoin="miter" fill="none" stroke="#ff0000" d="M0 113.38724H28.3468V79.37071H56.69362V55.55864H85.04042V38.89035H113.38724V27.22218H141.73404V19.05415"/>
<path transform="matrix(1.00003,0,0,-1.00005,29.376515,132.70174)" stroke-width=".3985" stroke-linecap="butt" stroke-miterlimit="10" stroke-linejoin="miter" fill="none" stroke="#000000" d="M0 0V113.38724"/>
<path transform="matrix(1.00003,0,0,-1.00005,29.376515,132.70174)" stroke-width=".3985" stroke-linecap="butt" stroke-miterlimit="10" stroke-linejoin="miter" fill="none" stroke="#ff0000" d="M28.3468 79.37071V0"/>
<path transform="matrix(1.00003,0,0,-1.00005,29.376515,132.70174)" stroke-width=".3985" stroke-linecap="butt" stroke-miterlimit="10" stroke-linejoin="miter" fill="none" stroke="#ff0000" d="M56.69362 55.55864V0"/>
<path transform="matrix(1.00003,0,0,-1.00005,29.376515,132.70174)" stroke-width=".3985" stroke-linecap="butt" stroke-miterlimit="10" stroke-linejoin="miter" fill="none" stroke="#ff0000" d="M85.04042 38.89035V0"/>
<path transform="matrix(1.00003,0,0,-1.00005,29.376515,132.70174)" stroke-width=".3985" stroke-linecap="butt" stroke-miterlimit="10" stroke-linejoin="miter" fill="none" stroke="#ff0000" d="M113.38724 27.22218V0"/>
<path transform="matrix(1.00003,0,0,-1.00005,29.376515,132.70174)" stroke-width=".3985" stroke-linecap="butt" stroke-miterlimit="10" stroke-linejoin="miter" fill="none" stroke="#ff0000" d="M141.73404 19.05415V0"/>
<g>
<path transform="matrix(1.00003,0,0,-1.00005,29.376515,132.70174)" d="M0 0V113.38724H28.3468V79.37071H56.69362V55.55864H85.04042V38.89035H113.38724V27.22218H141.73404V19.05415 0Z" fill="#ff0000" fill-opacity=".2"/>
<path transform="matrix(1.00003,0,0,-1.00005,29.376515,132.70174)" stroke-width=".3985" stroke-linecap="butt" stroke-miterlimit="10" stroke-linejoin="miter" fill="none" stroke="#ff0000" stroke-opacity=".2" d="M0 0V113.38724H28.3468V79.37071H56.69362V55.55864H85.04042V38.89035H113.38724V27.22218H141.73404V19.05415 0Z"/>
</g>
<path transform="matrix(1.00003,0,0,-1.00005,29.376515,132.70174)" stroke-width=".3985" stroke-linecap="butt" stroke-miterlimit="10" stroke-linejoin="miter" fill="none" stroke="#000000" d="M155.90744 0V0"/>
<use data-text="&#x00b7;" xlink:href="#font_2_1" transform="matrix(11.95556,0,0,-11.955797,177.31795,128.51753)"/>
<use data-text="&#x00b7;" xlink:href="#font_2_1" transform="matrix(11.95556,0,0,-11.955797,182.62622,128.51753)"/>
<use data-text="&#x00b7;" xlink:href="#font_2_1" transform="matrix(11.95556,0,0,-11.955797,187.94644,128.51753)"/>
<path transform="matrix(1.00003,0,0,-1.00005,29.376515,132.70174)" stroke-width=".3985" stroke-linecap="butt" stroke-miterlimit="10" stroke-linejoin="miter" fill="none" stroke="#0000ff" d="M170.08086 8.51233H198.42766V6.38425H226.77448V4.78731H255.12128V3.59004H283.4681V2.6921"/>
<path transform="matrix(1.00003,0,0,-1.00005,29.376515,132.70174)" stroke-width=".3985" stroke-linecap="butt" stroke-miterlimit="10" stroke-linejoin="miter" fill="none" stroke="#0000ff" d="M170.08086 0V8.51233"/>
<path transform="matrix(1.00003,0,0,-1.00005,29.376515,132.70174)" stroke-width=".3985" stroke-linecap="butt" stroke-miterlimit="10" stroke-linejoin="miter" fill="none" stroke="#0000ff" d="M198.42766 6.38425V0"/>
<path transform="matrix(1.00003,0,0,-1.00005,29.376515,132.70174)" stroke-width=".3985" stroke-linecap="butt" stroke-miterlimit="10" stroke-linejoin="miter" fill="none" stroke="#0000ff" d="M226.77448 4.78731V0"/>
<path transform="matrix(1.00003,0,0,-1.00005,29.376515,132.70174)" stroke-width=".3985" stroke-linecap="butt" stroke-miterlimit="10" stroke-linejoin="miter" fill="none" stroke="#0000ff" d="M255.12128 3.59004V0"/>
<path transform="matrix(1.00003,0,0,-1.00005,29.376515,132.70174)" stroke-width=".3985" stroke-linecap="butt" stroke-miterlimit="10" stroke-linejoin="miter" fill="none" stroke="#0000ff" d="M283.4681 2.6921V0"/>
<g>
<path transform="matrix(1.00003,0,0,-1.00005,29.376515,132.70174)" d="M170.08086 0V8.51233H198.42766V6.38425H226.77448V4.78731H255.12128V3.59004H283.4681V2.6921 0Z" fill="#0000ff" fill-opacity=".2"/>
<path transform="matrix(1.00003,0,0,-1.00005,29.376515,132.70174)" stroke-width=".3985" stroke-linecap="butt" stroke-miterlimit="10" stroke-linejoin="miter" fill="none" stroke="#0000ff" stroke-opacity=".2" d="M170.08086 0V8.51233H198.42766V6.38425H226.77448V4.78731H255.12128V3.59004H283.4681V2.6921 0Z"/>
</g>
<path transform="matrix(1.00003,0,0,-1.00005,29.376515,132.70174)" stroke-width=".3985" stroke-linecap="butt" stroke-miterlimit="10" stroke-linejoin="miter" fill="none" stroke="#ff0000" d="M170.08086 15.21667H198.42766V12.17334H226.77448V9.73729H255.12128V7.79085H283.4681V6.232"/>
<path transform="matrix(1.00003,0,0,-1.00005,29.376515,132.70174)" stroke-width=".3985" stroke-linecap="butt" stroke-miterlimit="10" stroke-linejoin="miter" fill="none" stroke="#0000ff" d="M170.08086 0V15.21667"/>
<path transform="matrix(1.00003,0,0,-1.00005,29.376515,132.70174)" stroke-width=".3985" stroke-linecap="butt" stroke-miterlimit="10" stroke-linejoin="miter" fill="none" stroke="#ff0000" d="M198.42766 12.17334V0"/>
<path transform="matrix(1.00003,0,0,-1.00005,29.376515,132.70174)" stroke-width=".3985" stroke-linecap="butt" stroke-miterlimit="10" stroke-linejoin="miter" fill="none" stroke="#ff0000" d="M226.77448 9.73729V0"/>
<path transform="matrix(1.00003,0,0,-1.00005,29.376515,132.70174)" stroke-width=".3985" stroke-linecap="butt" stroke-miterlimit="10" stroke-linejoin="miter" fill="none" stroke="#ff0000" d="M255.12128 7.79085V0"/>
<path transform="matrix(1.00003,0,0,-1.00005,29.376515,132.70174)" stroke-width=".3985" stroke-linecap="butt" stroke-miterlimit="10" stroke-linejoin="miter" fill="none" stroke="#ff0000" d="M283.4681 6.232V0"/>
<g>
<path transform="matrix(1.00003,0,0,-1.00005,29.376515,132.70174)" d="M170.08086 0V15.21667H198.42766V12.17334H226.77448V9.73729H255.12128V7.79085H283.4681V6.232 0Z" fill="#ff0000" fill-opacity=".2"/>
<path transform="matrix(1.00003,0,0,-1.00005,29.376515,132.70174)" stroke-width=".3985" stroke-linecap="butt" stroke-miterlimit="10" stroke-linejoin="miter" fill="none" stroke="#ff0000" stroke-opacity=".2" d="M170.08086 0V15.21667H198.42766V12.17334H226.77448V9.73729H255.12128V7.79085H283.4681V6.232 0Z"/>
</g>
<path transform="matrix(1.00003,0,0,-1.00005,29.376515,132.70174)" stroke-width=".3985" stroke-linecap="butt" stroke-miterlimit="10" stroke-linejoin="miter" fill="none" stroke="#000000" d="M170.08086-2.83484V2.83484"/>
<path transform="matrix(1.00003,0,0,-1.00005,29.376515,132.70174)" stroke-width=".3985" stroke-linecap="butt" stroke-miterlimit="10" stroke-linejoin="miter" fill="none" stroke="#000000" d="M170.08086-2.83484V-2.83484"/>
<use data-text="1" xlink:href="#font_3_2" transform="matrix(11.95556,0,0,-11.955797,190.68236,147.42548)"/>
<use data-text="0" xlink:href="#font_3_1" transform="matrix(11.95556,0,0,-11.955797,196.54058,147.42548)"/>
<use data-text="0" xlink:href="#font_3_1" transform="matrix(11.95556,0,0,-11.955797,202.3988,147.42548)"/>
<path transform="matrix(1.00003,0,0,-1.00005,29.376515,132.70174)" stroke-width=".3985" stroke-linecap="butt" stroke-miterlimit="10" stroke-linejoin="miter" fill="none" stroke="#000000" d="M297.6415 0V0"/>
<use data-text="&#x00b7;" xlink:href="#font_2_1" transform="matrix(11.95556,0,0,-11.955797,319.05619,128.51753)"/>
<use data-text="&#x00b7;" xlink:href="#font_2_1" transform="matrix(11.95556,0,0,-11.955797,324.36448,128.51753)"/>
<use data-text="&#x00b7;" xlink:href="#font_2_1" transform="matrix(11.95556,0,0,-11.955797,329.6847,128.51753)"/>
</svg>
