<svg xmlns="http://www.w3.org/2000/svg" xmlns:xlink="http://www.w3.org/1999/xlink" version="1.1" width="331" height="162" viewBox="0 0 331 162">
<defs>
<path id="font_1_3" d="M.47399903 .40820313C.44198609 .40219117 .42999269 .3781891 .42999269 .3591919 .42999269 .33518983 .44898988 .3271942 .46299745 .3271942 .49299623 .3271942 .5139923 .3531952 .5139923 .380188 .5139923 .4223938 .46598817 .44140626 .42399598 .44140626 .36299134 .44140626 .32899476 .38119508 .31999208 .36219789 .29699708 .4373932 .23498535 .44140626 .21699524 .44140626 .114990238 .44140626 .06098938 .31021119 .06098938 .28822328 .06098938 .28422547 .06498718 .27923585 .07199097 .27923585 .07998657 .27923585 .08198547 .28523255 .083999637 .2892151 .117996219 .40019227 .18499756 .42140199 .21398926 .42140199 .25898744 .42140199 .2679901 .37919618 .2679901 .3551941 .2679901 .33319093 .2619934 .31021119 .25 .26223756L.21598816 .12535095C.20098877 .06535339 .17199707 .010223389 .11898804 .010223389 .11399841 .010223389 .08898926 .010223389 .067993167 .023330689 .10398865 .03036499 .11199951 .06036377 .11199951 .07235718 .11199951 .09236145 .09700012 .10435486 .07798767 .10435486 .053985597 .10435486 .027999878 .083358768 .027999878 .051361085 .027999878 .009231567 .07499695-.009765625 .117996219-.009765625 .1659851-.009765625 .19999695 .028366089 .22099304 .069366458 .23699951 .010223389 .2869873-.009765625 .32398988-.009765625 .42599488-.009765625 .47999574 .12135315 .47999574 .1433258 .47999574 .14833069 .47599793 .15232849 .46998597 .15232849 .46099855 .15232849 .45999146 .14732361 .45700074 .139328 .42999269 .051361085 .37199403 .010223389 .32699586 .010223389 .2919922 .010223389 .272995 .036361696 .272995 .07736206 .272995 .099365238 .2769928 .115356449 .29299928 .18130493L.32798768 .3171997C.34298707 .37719728 .3769989 .42140199 .4229889 .42140199 .4249878 .42140199 .45298768 .42140199 .47399903 .40820313Z"/>
<path id="font_1_4" d="M.2630005-.11172485C.23599243-.14982605 .19699097-.18411255 .147995-.18411255 .13598633-.18411255 .08799744-.18209839 .07299805-.13572693 .07598877-.13671875 .08099365-.13671875 .08299255-.13671875 .11299133-.13671875 .1329956-.11073303 .1329956-.08772278 .1329956-.06472778 .11399841-.056732179 .09899902-.056732179 .08299255-.056732179 .04798889-.068725589 .04798889-.11772156 .04798889-.16899109 .09098816-.20410156 .147995-.20410156 .24798584-.20410156 .34899903-.11172485 .3769989-.00077819827L.47499085 .38868714C.47599793 .39367677 .47799684 .39967347 .47799684 .4056549 .47799684 .4206543 .46598817 .43066407 .45098878 .43066407 .44198609 .43066407 .42099 .426651 .41299439 .39666749L.33898927 .10308838C.33399964 .085113529 .33399964 .08312988 .32598878 .072143558 .30599977 .04423523 .272995 .010223389 .22499085 .010223389 .16899109 .010223389 .1639862 .06524658 .1639862 .09225464 .1639862 .14929199 .19099427 .22631836 .21798706 .2983551 .22898865 .32736207 .23498535 .34136964 .23498535 .3613739 .23498535 .4033966 .20498657 .44140626 .1559906 .44140626 .06399536 .44140626 .026992798 .29634095 .026992798 .28834535 .026992798 .28434754 .0309906 .27934266 .037994386 .27934266 .04699707 .27934266 .04798889 .28334046 .051986696 .29734803 .07598877 .38137818 .11399841 .42140199 .15299988 .42140199 .1619873 .42140199 .1789856 .42140199 .1789856 .38838197 .1789856 .36238099 .16799927 .33335877 .15299988 .29534913 .10398865 .16429138 .10398865 .13127136 .10398865 .10726929 .10398865 .01222229 .17199707-.009765625 .22200012-.009765625 .25099183-.009765625 .2869873-.00077819827 .32199098 .036239625L.32299806 .035232545C.30799867-.023757935 .2979889-.06272888 .2630005-.11172485Z"/>
<path id="font_1_1" d="M.30099488 .119277957C.29599 .102264408 .29599 .1002655 .28199769 .08125305 .2599945 .053237916 .21598816 .010223389 .16899109 .010223389 .12799073 .010223389 .10499573 .04724121 .10499573 .10626221 .10499573 .1612854 .13598633 .2733307 .15499878 .3153534 .18899536 .38539125 .23599243 .42140199 .2749939 .42140199 .34098817 .42140199 .35398866 .33937074 .35398866 .33135987 .35398866 .33036805 .35099793 .3173523 .34999085 .3153534L.30099488 .119277957M.36499024 .37538148C.35398866 .4013977 .32699586 .44140626 .2749939 .44140626 .1619873 .44140626 .039993287 .29534913 .039993287 .14727783 .039993287 .04824829 .09799194-.009765625 .1659851-.009765625 .22099304-.009765625 .2679901 .033233644 .29599 .06625366 .30599977 .007232666 .35299684-.009765625 .3829956-.009765625 .41299439-.009765625 .43699647 .008224487 .45498658 .04423523 .47099305 .07824707 .4850006 .13926697 .4850006 .14326477 .4850006 .14826966 .48098756 .15226746 .47499085 .15226746 .46598817 .15226746 .46499635 .14726258 .46099855 .13226319 .44599916 .07324219 .4269867 .010223389 .38598634 .010223389 .35699464 .010223389 .35499574 .036239625 .35499574 .056243898 .35499574 .07923889 .35798646 .09025574 .36698915 .1292572 .37399293 .15426636 .3789978 .17626953 .3869934 .20527649 .42399598 .35533143 .43299867 .39134217 .43299867 .39733888 .43299867 .41133119 .42199708 .42233277 .40699769 .42233277 .375 .42233277 .36698915 .3873291 .36499024 .3753357V.37538148Z"/>
<path id="font_2_1" d="M.4889984 .31877137C.4889984 .42585755 .47799684 .49090577 .44499208 .55496218 .40098573 .6430359 .31999208 .66503909 .2649994 .66503909 .13899231 .66503909 .09298706 .5709839 .07899475 .5429535 .042999269 .4698944 .040985109 .3708191 .040985109 .31877137 .040985109 .25271607 .04399109 .15162659 .09199524 .07156372 .13798523-.0024871827 .21199036-.021484375 .2649994-.021484375 .31298829-.021484375 .39898683-.0064849855 .44898988 .09257507 .48599244 .16464234 .4889984 .2537079 .4889984 .31877137M.2649994 .006515503C.23098755 .006515503 .1619873 .022521973 .14099121 .12760926 .12998963 .18466187 .12998963 .2787323 .12998963 .33078004 .12998963 .3998413 .12998963 .4698944 .14099121 .5249481 .1619873 .6270294 .23999024 .6370239 .2649994 .6370239 .29899598 .6370239 .36799623 .62002566 .3880005 .5289459 .3999939 .4738922 .3999939 .39883424 .3999939 .33078004 .3999939 .27172853 .3999939 .18165589 .3880005 .12561035 .36698915 .020523072 .2979889 .006515503 .2649994 .006515503Z"/>
<path id="font_1_2" d="M.23098755 .6693268C.23199463 .6733246 .23399353 .6793213 .23399353 .6843262 .23399353 .69433596 .22399903 .69433596 .22200012 .69433596 .22099304 .69433596 .18499756 .69132998 .16699219 .68933108 .1499939 .688324 .1349945 .6863251 .116989139 .68533328 .09298706 .68333438 .085998538 .6823273 .085998538 .6643219 .085998538 .6543274 .09599304 .6543274 .10598755 .6543274 .15699768 .6543274 .15699768 .6453247 .15699768 .6353302 .15699768 .6283417 .14898682 .59935 .14498902 .58135989L.12098694 .48538209C.11099243 .44540406 .053985597 .2183075 .049987794 .20030213 .04499817 .17529297 .04499817 .15829468 .04499817 .14527893 .04499817 .04324341 .101989749-.009765625 .16699219-.009765625 .2829895-.009765625 .40299989 .13928223 .40299989 .28434754 .40299989 .3763733 .35099793 .44140626 .27598573 .44140626 .22399903 .44140626 .1769867 .39839173 .1579895 .37838746L.23098755 .6693268M.16799927 .010223389C.13598633 .010223389 .100997928 .034240724 .100997928 .11227417 .100997928 .14527893 .10398865 .16429138 .12199402 .23431397 .125 .24732971 .14099121 .3113556 .14498902 .32435609 .14698792 .33236695 .20599365 .42140199 .27398683 .42140199 .31799317 .42140199 .33799745 .37738038 .33799745 .32536317 .33799745 .27734376 .30999757 .16429138 .2849884 .11227417 .2599945 .058242799 .21398926 .010223389 .16799927 .010223389Z"/>
<path id="font_2_2" d="M.31399537 .63708499C.31399537 .664032 .31199647 .66503909 .2849884 .66503909 .24398804 .6251831 .19099427 .6013489 .09599304 .6013489V.5683594C.12298584 .5683594 .1769867 .5683594 .23498535 .5953522V.08203125C.23498535 .04499817 .23199463 .032989503 .13699341 .032989503H.101989749V0C.14299011 .0029907227 .22898865 .0029907227 .27398683 .0029907227 .31900025 .0029907227 .4059906 .0029907227 .44699098 0V.032989503H.4119873C.31698609 .032989503 .31399537 .04499817 .31399537 .08203125V.63708499Z"/>
<path id="font_2_3" d="M.28199769 .20405579C.2979889 .21907044 .33999635 .2520752 .35598756 .26608277 .41799928 .32312013 .47698976 .3781433 .47698976 .46917726 .47698976 .588089 .3769989 .66503909 .2519989 .66503909 .13198853 .66503909 .052993776 .57411196 .052993776 .48516847 .052993776 .4361725 .09199524 .4291687 .10598755 .4291687 .1269989 .4291687 .1579895 .4441681 .1579895 .48217774 .1579895 .5341797 .10798645 .5341797 .09599304 .5341797 .125 .6070709 .19198609 .6320343 .24099732 .6320343 .33399964 .6320343 .38198854 .55314639 .38198854 .46917726 .38198854 .36514283 .30899049 .28910829 .19099427 .16804505L.06498718 .037994386C.052993776 .026992798 .052993776 .024993897 .052993776 0H.44799806L.47698976 .17904663H.44599916C.44299317 .1590271 .43499757 .10900879 .4229889 .08999634 .4169922 .08198547 .34098817 .08198547 .32499696 .08198547H.14698792L.28199769 .20405579Z"/>
<path id="font_3_1" d="M.19198609 .2502594C.19198609 .2792511 .16799927 .30325318 .13899231 .30325318 .10998535 .30325318 .085998538 .2792511 .085998538 .2502594 .085998538 .22125244 .10998535 .19726563 .13899231 .19726563 .16799927 .19726563 .19198609 .22125244 .19198609 .2502594Z"/>
</defs>
<path transform="matrix(1.00003,0,0,-1.00005,29.376515,132.70174)" stroke-width=".3985" stroke-linecap="butt" stroke-miterlimit="10" stroke-linejoin="miter" fill="none" stroke="#000000" d="M-28.3468 0H288.6791"/>
<path transform="matrix(1.00003,0,0,-1.00005,318.0643,132.70174)" stroke-width=".31879" stroke-linecap="round" stroke-linejoin="round" fill="none" stroke="#000000" d="M-1.19551 1.59401C-1.09587 .99626 0 .09961 .29886 0 0-.09961-1.09587-.99626-1.19551-1.59401"/>
<use data-text="x" xlink:href="#font_1_3" transform="matrix(11.95556,0,0,-11.955797,322.70634,142.0332)"/>
<path transform="matrix(1.00003,0,0,-1.00005,29.376515,132.70174)" stroke-width=".3985" stroke-linecap="butt" stroke-miterlimit="10" stroke-linejoin="miter" fill="none" stroke="#000000" d="M0-28.3468V118.59822"/>
<path transform="matrix(0,-1.00005,-1.00003,-0,29.376515,14.097595)" stroke-width=".31879" stroke-linecap="round" stroke-linejoin="round" fill="none" stroke="#000000" d="M-1.19551 1.59401C-1.09587 .99626 0 .09961 .29886 0 0-.09961-1.09587-.99626-1.19551-1.59401"/>
<use data-text="y" xlink:href="#font_1_4" transform="matrix(11.95556,0,0,-11.955797,26.308423,7.1304628)"/>
<path transform="matrix(1.00003,0,0,-1.00005,29.376515,132.70174)" stroke-width=".3985" stroke-linecap="butt" stroke-miterlimit="10" stroke-linejoin="miter" fill="none" stroke="#0000ff" d="M0 113.38724H28.3468V56.69362H56.69362V37.7956H85.04042V28.3468H113.38724V22.6771H141.73404V18.89757H170.08086V16.19809H198.42766V14.17339H226.77448V12.59853H255.12128V11.33855H283.4681V10.3078"/>
<path transform="matrix(1.00003,0,0,-1.00005,29.376515,132.70174)" stroke-width=".3985" stroke-linecap="butt" stroke-miterlimit="10" stroke-linejoin="miter" fill="none" stroke="#000000" d="M0 0V113.38724"/>
<path transform="matrix(1.00003,0,0,-1.00005,29.376515,132.70174)" stroke-width=".3985" stroke-linecap="butt" stroke-miterlimit="10" stroke-linejoin="miter" fill="none" stroke="#0000ff" d="M28.3468 56.69362V0"/>
<path transform="matrix(1.00003,0,0,-1.00005,29.376515,132.70174)" stroke-width=".3985" stroke-linecap="butt" stroke-miterlimit="10" stroke-linejoin="miter" fill="none" stroke="#0000ff" d="M56.69362 37.7956V0"/>
<path transform="matrix(1.00003,0,0,-1.00005,29.376515,132.70174)" stroke-width=".3985" stroke-linecap="butt" stroke-miterlimit="10" stroke-linejoin="miter" fill="none" stroke="#0000ff" d="M85.04042 28.3468V0"/>
<path transform="matrix(1.00003,0,0,-1.00005,29.376515,132.70174)" stroke-width=".3985" stroke-linecap="butt" stroke-miterlimit="10" stroke-linejoin="miter" fill="none" stroke="#0000ff" d="M113.38724 22.6771V0"/>
<path transform="matrix(1.00003,0,0,-1.00005,29.376515,132.70174)" stroke-width=".3985" stroke-linecap="butt" stroke-miterlimit="10" stroke-linejoin="miter" fill="none" stroke="#0000ff" d="M141.73404 18.89757V0"/>
<path transform="matrix(1.00003,0,0,-1.00005,29.376515,132.70174)" stroke-width=".3985" stroke-linecap="butt" stroke-miterlimit="10" stroke-linejoin="miter" fill="none" stroke="#0000ff" d="M170.08086 16.19809V0"/>
<path transform="matrix(1.00003,0,0,-1.00005,29.376515,132.70174)" stroke-width=".3985" stroke-linecap="butt" stroke-miterlimit="10" stroke-linejoin="miter" fill="none" stroke="#0000ff" d="M198.42766 14.17339V0"/>
<path transform="matrix(1.00003,0,0,-1.00005,29.376515,132.70174)" stroke-width=".3985" stroke-linecap="butt" stroke-miterlimit="10" stroke-linejoin="miter" fill="none" stroke="#0000ff" d="M226.77448 12.59853V0"/>
<path transform="matrix(1.00003,0,0,-1.00005,29.376515,132.70174)" stroke-width=".3985" stroke-linecap="butt" stroke-miterlimit="10" stroke-linejoin="miter" fill="none" stroke="#0000ff" d="M255.12128 11.33855V0"/>
<path transform="matrix(1.00003,0,0,-1.00005,29.376515,132.70174)" stroke-width=".3985" stroke-linecap="butt" stroke-miterlimit="10" stroke-linejoin="miter" fill="none" stroke="#0000ff" d="M283.4681 10.3078V0"/>
<g>
<path transform="matrix(1.00003,0,0,-1.00005,29.376515,132.70174)" d="M0 0V113.38724H28.3468V56.69362H56.69362V37.7956H85.04042V28.3468H113.38724V22.6771H141.73404V18.89757H170.08086V16.19809H198.42766V14.17339H226.77448V12.59853H255.12128V11.33855H283.4681V10.3078 0Z" fill="#0000ff" fill-opacity=".2"/>
<path transform="matrix(1.00003,0,0,-1.00005,29.376515,132.70174)" stroke-width=".3985" stroke-linecap="butt" stroke-miterlimit="10" stroke-linejoin="miter" fill="none" stroke="#0000ff" stroke-opacity=".2" d="M0 0V113.38724H28.3468V56.69362H56.69362V37.7956H85.04042V28.3468H113.38724V22.6771H141.73404V18.89757H170.08086V16.19809H198.42766V14.17339H226.77448V12.59853H255.12128V11.33855H283.4681V10.3078 0Z"/>
</g>
<path transform="matrix(1.00003,0,0,-1.00005,29.376515,132.70174)" stroke-width=".3985" stroke-linecap="butt" stroke-miterlimit="10" stroke-linejoin="miter" fill="none" stroke="#ff0000" d="M0 113.38724H28.3468V28.3468H56.69362V12.59853H85.04042V7.08669H113.38724V4.53516H141.73404V3.14929H170.08086V2.31363H198.42766V1.77167H226.77448V1.39969H255.12128V1.13367H283.4681V.93686"/>
<path transform="matrix(1.00003,0,0,-1.00005,29.376515,132.70174)" stroke-width=".3985" stroke-linecap="butt" stroke-miterlimit="10" stroke-linejoin="miter" fill="none" stroke="#000000" d="M0 0V113.38724"/>
<path transform="matrix(1.00003,0,0,-1.00005,29.376515,132.70174)" stroke-width=".3985" stroke-linecap="butt" stroke-miterlimit="10" stroke-linejoin="miter" fill="none" stroke="#ff0000" d="M28.3468 28.3468V0"/>
<path transform="matrix(1.00003,0,0,-1.00005,29.376515,132.70174)" stroke-width=".3985" stroke-linecap="butt" stroke-miterlimit="10" stroke-linejoin="miter" fill="none" stroke="#ff0000" d="M56.69362 12.59853V0"/>
<path transform="matrix(1.00003,0,0,-1.00005,29.376515,132.70174)" stroke-width=".3985" stroke-linecap="butt" stroke-miterlimit="10" stroke-linejoin="miter" fill="none" stroke="#ff0000" d="M85.04042 7.08669V0"/>
<path transform="matrix(1.00003,0,0,-1.00005,29.376515,132.70174)" stroke-width=".3985" stroke-linecap="butt" stroke-miterlimit="10" stroke-linejoin="miter" fill="none" stroke="#ff0000" d="M113.38724 4.53516V0"/>
<path transform="matrix(1.00003,0,0,-1.00005,29.376515,132.70174)" stroke-width=".3985" stroke-linecap="butt" stroke-miterlimit="10" stroke-linejoin="miter" fill="none" stroke="#ff0000" d="M141.73404 3.14929V0"/>
<path transform="matrix(1.00003,0,0,-1.00005,29.376515,132.70174)" stroke-width=".3985" stroke-linecap="butt" stroke-miterlimit="10" stroke-linejoin="miter" fill="none" stroke="#ff0000" d="M170.08086 2.31363V0"/>
<path transform="matrix(1.00003,0,0,-1.00005,29.376515,132.70174)" stroke-width=".3985" stroke-linecap="butt" stroke-miterlimit="10" stroke-linejoin="miter" fill="none" stroke="#ff0000" d="M198.42766 1.77167V0"/>
<path transform="matrix(1.00003,0,0,-1.00005,29.376515,132.70174)" stroke-width=".3985" stroke-linecap="butt" stroke-miterlimit="10" stroke-linejoin="miter" fill="none" stroke="#ff0000" d="M226.77448 1.39969V0"/>
<path transform="matrix(1.00003,0,0,-1.00005,29.376515,132.70174)" stroke-width=".3985" stroke-linecap="butt" stroke-miterlimit="10" stroke-linejoin="miter" fill="none" stroke="#ff0000" d="M255.12128 1.13367V0"/>
<path transform="matrix(1.00003,0,0,-1.00005,29.376515,132.70174)" stroke-width=".3985" stroke-linecap="butt" stroke-miterlimit="10" stroke-linejoin="miter" fill="none" stroke="#ff0000" d="M283.4681 .93686V0"/>
<g>
<path transform="matrix(1.00003,0,0,-1.00005,29.376515,132.70174)" d="M0 0V113.38724H28.3468V28.3468H56.69362V12.59853H85.04042V7.08669H113.38724V4.53516H141.73404V3.14929H170.08086V2.31363H198.42766V1.77167H226.77448V1.39969H255.12128V1.13367H283.4681V.93686 0Z" fill="#ff0000" fill-opacity=".2"/>
<path transform="matrix(1.00003,0,0,-1.00005,29.376515,132.70174)" stroke-width=".3985" stroke-linecap="butt" stroke-miterlimit="10" stroke-linejoin="miter" fill="none" stroke="#ff0000" stroke-opacity=".2" d="M0 0V113.38724H28.3468V28.3468H56.69362V12.59853H85.04042V7.08669H113.38724V4.53516H141.73404V3.14929H170.08086V2.31363H198.42766V1.77167H226.77448V1.39969H255.12128V1.13367H283.4681V.93686 0Z"/>
</g>
<path transform="matrix(1.00003,0,0,-1.00005,29.376515,132.70174)" stroke-width=".3985" stroke-linecap="butt" stroke-miterlimit="10" stroke-linejoin="miter" fill="none" stroke="#0000ff" d="M0 113.38724V113.38724"/>
<use data-text="a" xlink:href="#font_1_1" transform="matrix(11.95556,0,0,-11.955797,14.315063,20.98616)" fill="#0000ff"/>
<use data-text="0" xlink:href="#font_2_1" transform="matrix(7.9703395,0,0,-7.970498,20.460247,22.779252)" fill="#0000ff"/>
<path transform="matrix(1.00003,0,0,-1.00005,29.376515,132.70174)" stroke-width=".3985" stroke-linecap="butt" stroke-miterlimit="10" stroke-linejoin="miter" fill="none" stroke="#ff0000" d="M28.3468 113.38724V113.38724"/>
<use data-text="b" xlink:href="#font_1_2" transform="matrix(11.95556,0,0,-11.955797,61.90849,22.563233)" fill="#ff0000"/>
<use data-text="0" xlink:href="#font_2_1" transform="matrix(7.9703395,0,0,-7.970498,66.885639,24.356324)" fill="#ff0000"/>
<path transform="matrix(1.00003,0,0,-1.00005,29.376515,132.70174)" stroke-width=".3985" stroke-linecap="butt" stroke-miterlimit="10" stroke-linejoin="miter" fill="none" stroke="#0000ff" d="M56.69362 56.69362V56.69362"/>
<use data-text="a" xlink:href="#font_1_1" transform="matrix(11.95556,0,0,-11.955797,90.25634,77.68199)" fill="#0000ff"/>
<use data-text="1" xlink:href="#font_2_2" transform="matrix(7.9703395,0,0,-7.970498,96.40152,79.47508)" fill="#0000ff"/>
<path transform="matrix(1.00003,0,0,-1.00005,29.376515,132.70174)" stroke-width=".3985" stroke-linecap="butt" stroke-miterlimit="10" stroke-linejoin="miter" fill="none" stroke="#ff0000" d="M56.69362 28.3468V28.3468"/>
<use data-text="b" xlink:href="#font_1_2" transform="matrix(11.95556,0,0,-11.955797,90.25634,107.60848)" fill="#ff0000"/>
<use data-text="1" xlink:href="#font_2_2" transform="matrix(7.9703395,0,0,-7.970498,95.23349,109.40157)" fill="#ff0000"/>
<path transform="matrix(1.00003,0,0,-1.00005,29.376515,132.70174)" stroke-width=".3985" stroke-linecap="butt" stroke-miterlimit="10" stroke-linejoin="miter" fill="none" stroke="#0000ff" d="M85.04042 37.7956V37.7956"/>
<use data-text="a" xlink:href="#font_1_1" transform="matrix(11.95556,0,0,-11.955797,118.603199,96.58093)" fill="#0000ff"/>
<use data-text="2" xlink:href="#font_2_3" transform="matrix(7.9703395,0,0,-7.970498,124.748378,98.37402)" fill="#0000ff"/>
<path transform="matrix(1.00003,0,0,-1.00005,29.376515,132.70174)" stroke-width=".3985" stroke-linecap="butt" stroke-miterlimit="10" stroke-linejoin="miter" fill="none" stroke="#ff0000" d="M85.04042 12.59853V12.59853"/>
<use data-text="b" xlink:href="#font_1_2" transform="matrix(11.95556,0,0,-11.955797,118.603199,123.35727)" fill="#ff0000"/>
<use data-text="2" xlink:href="#font_2_3" transform="matrix(7.9703395,0,0,-7.970498,123.58034,125.15036)" fill="#ff0000"/>
<path transform="matrix(1.00003,0,0,-1.00005,29.376515,132.70174)" stroke-width=".3985" stroke-linecap="butt" stroke-miterlimit="10" stroke-linejoin="miter" fill="none" stroke="#000000" d="M283.4681 0V0"/>
<use data-text="&#x00b7;" xlink:href="#font_3_1" transform="matrix(11.95556,0,0,-11.955797,317.03715,128.51753)"/>
<use data-text="&#x00b7;" xlink:href="#font_3_1" transform="matrix(11.95556,0,0,-11.955797,322.34544,128.51753)"/>
<use data-text="&#x00b7;" xlink:href="#font_3_1" transform="matrix(11.95556,0,0,-11.955797,327.66566,128.51753)"/>
</svg>
