<svg xmlns="http://www.w3.org/2000/svg" xmlns:xlink="http://www.w3.org/1999/xlink" version="1.1" width="209" height="231" viewBox="0 0 209 231">
<defs>
<path id="font_1_1" d="M.44198609 .69781497C.43499757 .7108154 .43299867 .7158203 .41600038 .7158203 .39898683 .7158203 .39698792 .7108154 .3899994 .69781497L.051986696 .019989014C.04699707 .010986328 .04699707 .008987427 .04699707 .0079956059 .04699707 0 .052993776 0 .068984989 0H.7630005C.7789917 0 .7849884 0 .7849884 .0079956059 .7849884 .008987427 .7849884 .010986328 .7799988 .019989014L.44198609 .69781497M.38398744 .61582949 .6529999 .07598877H.11399841L.38398744 .61582949Z"/>
<path id="font_2_1" d="M.2869873 .68333438C.2869873 .6843262 .2869873 .69433596 .27398683 .69433596 .25099183 .69433596 .17799378 .6863251 .1519928 .6843262 .14399719 .68333438 .1329956 .6823273 .1329956 .6643219 .1329956 .6523285 .14199829 .6523285 .15699768 .6523285 .20498657 .6523285 .20698548 .6453247 .20698548 .6353302L.20399475 .6153412 .05899048 .039260866C.054992677 .025253296 .054992677 .023254395 .054992677 .01725769 .054992677-.0057525637 .07499695-.0107421879 .083999637-.0107421879 .099990848-.0107421879 .115997318 .0012512207 .12098694 .015258789L.13999939 .091278079 .1619873 .18130493C.16799927 .2033081 .17399597 .22531128 .1789856 .24832154 .18099976 .25431825 .18899536 .28733827 .18998719 .29333497 .19299317 .30233766 .22399903 .35835267 .2579956 .38536073 .27999879 .4013672 .31098939 .42037965 .35398866 .42037965 .39698792 .42037965 .4079895 .3863678 .4079895 .35035707 .4079895 .29634095 .36999513 .18730164 .34599305 .12628174 .33799745 .103271488 .33299256 .091278079 .33299256 .0712738 .33299256 .024261475 .36799623-.0107421879 .4149933-.0107421879 .5089874-.0107421879 .54599 .13528443 .54599 .14329529 .54599 .1532898 .5369873 .1532898 .5339966 .1532898 .5239868 .1532898 .5239868 .15029907 .5189972 .13528443 .5039978 .08227539 .47200013 .011245728 .4169922 .011245728 .3999939 .011245728 .3929901 .021255494 .3929901 .044265748 .3929901 .0692749 .4019928 .09327698 .41099549 .11528015 .4269867 .15829468 .47200013 .2773285 .47200013 .3353424 .47200013 .4003601 .43199159 .4423828 .35699464 .4423828 .2939911 .4423828 .24598694 .41137696 .20899964 .36535646L.2869873 .68333438Z"/>
<path id="font_3_66" d="M.24699402 0V.0309906C.18099976 .0309906 .1769867 .035995485 .1769867 .075042728V.4423828L.036987306 .43066407V.3996582C.101989749 .3996582 .11099243 .3936615 .11099243 .3447113V.07595825C.11099243 .0309906 .099990848 .0309906 .032989503 .0309906V0L.14299011 .0029907227C.17799378 .0029907227 .21299744 .0009918213 .24699402 0M.19198609 .603775C.19198609 .6307678 .16899109 .6567688 .13899231 .6567688 .10499573 .6567688 .084991458 .6287689 .084991458 .603775 .084991458 .57676699 .10798645 .55078127 .13798523 .55078127 .17199707 .55078127 .19198609 .5787811 .19198609 .603775Z"/>
<path id="font_3_77" d="M.5349884 0V.0309906C.48298646 .0309906 .45799256 .0309906 .45700074 .061019899V.25221253C.45700074 .3383026 .45700074 .36932374 .42599488 .405365 .4119873 .42237855 .3789978 .4423828 .32099916 .4423828 .24798584 .4423828 .20098877 .39935304 .17298889 .33729554V.4423828L.03199768 .43066407V.3996582C.101989749 .3996582 .10998535 .39266969 .10998535 .34370423V.07595825C.10998535 .0309906 .09899902 .0309906 .03199768 .0309906V0L.14498902 .0029907227 .25698854 0V.0309906C.18998719 .0309906 .1789856 .0309906 .1789856 .07595825V.25978089C.1789856 .36431886 .25 .42037965 .31399537 .42037965 .3769989 .42037965 .3880005 .36631776 .3880005 .30926515V.076034549C.3880005 .0309906 .3769989 .0309906 .30999757 .0309906V0L.4229889 .0029907227 .5349884 0Z"/>
<path id="font_4_88" d="M.18399048 .04899597C.18399048 .07598877 .16099549 .09700012 .13598633 .09700012 .10699463 .09700012 .08699036 .07398987 .08699036 .04899597 .08699036 .018997193 .11199951 0 .1349945 0 .1619873 0 .18399048 .020996094 .18399048 .04899597Z"/>
<path id="font_5_2" d="M.28399659 .29953004C.2869873 .30451966 .30999757 .34951783 .34899903 .38052369 .36099244 .3885193 .3899994 .4084015 .43598939 .4084015 .44499208 .4084015 .47698976 .4084015 .5029907 .39352418 .47698976 .38452149 .46199037 .3615265 .46199037 .33952333 .46199037 .30752564 .48799134 .30052186 .5019989 .30052186 .5309906 .30052186 .55999758 .32452394 .55999758 .3635254 .55999758 .4163971 .5019989 .44140626 .43798829 .44140626 .4119873 .44140626 .35099793 .4393921 .2899933 .36853028 .2749939 .42140199 .22099304 .44140626 .17999268 .44140626 .13699341 .44140626 .11299133 .4123993 .09799194 .3885193 .07598877 .35151673 .06098938 .29452516 .06098938 .28851319 .06098938 .27749635 .069992069 .27349855 .07899475 .27349855 .09498596 .27349855 .09599304 .28050233 .100997928 .29652406 .11999512 .3735199 .14399719 .4084015 .1769867 .4084015 .20799256 .4084015 .21299744 .3795166 .21299744 .3585205 .21299744 .34152223 .20298767 .30152894 .19599915 .27349855 .18899536 .24647522 .1789856 .20542908 .17399597 .18341065 .16699219 .15837097 .16099549 .13235474 .1539917 .10733032 .14698792 .07929993 .1349945 .029251099 .1349945 .023239136 .1349945 .0012207031 .1519928-.009765625 .16999817-.009765625 .18998719-.009765625 .20899964 .0042266848 .21499634 .024246216 .21798706 .03224182 .25498963 .18341065 .26098634 .2064209L.28399659 .29953004Z"/>
<path id="font_6_1" d="M.3959961 .6244507C.3959961 .64845278 .37799073 .66744998 .35198976 .66744998 .32398988 .66744998 .29100038 .6404419 .29100038 .6074524 .29100038 .5794525 .31298829 .5644531 .33399964 .5644531 .36698915 .5644531 .3959961 .5944519 .3959961 .6244507M.44299317 .14428711C.44299317 .15829468 .42599488 .15829468 .42199708 .15829468 .40499879 .15829468 .4039917 .15429688 .397995 .13528443 .3809967 .08027649 .33599855 .023254395 .28599549 .023254395 .2630005 .023254395 .2559967 .039260866 .2559967 .061264039 .2559967 .08227539 .26098634 .09327698 .2689972 .11227417 .2769928 .1322937 .2849884 .15229798 .2899933 .16629029 .2939911 .17530823 .33299256 .2683258 .34700013 .30433656 .35499574 .32435609 .36099244 .33735658 .36099244 .35435487 .36099244 .40237428 .31498719 .4423828 .2519989 .4423828 .14698792 .4423828 .09098816 .3143463 .09098816 .28733827 .09098816 .2733307 .10699463 .2733307 .11199951 .2733307 .1289978 .2733307 .12998963 .27833558 .1349945 .29333497 .15699768 .36436463 .20498657 .40837098 .24798584 .40837098 .2669983 .40837098 .27799989 .39736939 .27799989 .37036134 .27799989 .36636354 .27799989 .35336305 .27198792 .3343506 .2649994 .3163452 .21998596 .20930481 .20599365 .17530823 .19898987 .15829468 .19898987 .15629578 .18399048 .122283939 .1789856 .10827637 .17298889 .0942688 .17298889 .07727051 .17298889 .025253296 .22200012-.0107421879 .28199769-.0107421879 .3869934-.0107421879 .44299317 .119277957 .44299317 .14428711Z"/>
<path id="font_1_3" d="M.13198853 .327713V.35173036C.13198853 .6047821 .2559967 .64100649 .30699159 .64100649 .33099366 .64100649 .37298585 .634964 .394989 .6007538 .37998963 .6007538 .33999635 .6007538 .33999635 .5557556 .33999635 .524765 .3639984 .5097656 .38598634 .5097656 .4019928 .5097656 .43199159 .51875308 .43199159 .5577545 .43199159 .6178589 .3880005 .6660156 .30499269 .6660156 .1769867 .6660156 .041992189 .5367584 .041992189 .31570436 .041992189 .048553468 .1579895-.022460938 .25099183-.022460938 .3619995-.022460938 .45700074 .07156372 .45700074 .2036438 .45700074 .33070375 .36799623 .4267578 .25698854 .4267578 .18899536 .4267578 .1519928 .37573243 .13198853 .327713M.25099183 .0055389406C.18798828 .0055389406 .1579895 .06556702 .1519928 .080566409 .13398743 .127594 .13398743 .2076416 .13398743 .22564698 .13398743 .30369569 .1659851 .40374757 .2559967 .40374757 .27198792 .40374757 .31799317 .40374757 .34899903 .34172059 .36698915 .30470277 .36698915 .2536621 .36698915 .20463562 .36698915 .15661621 .36698915 .10658264 .34999085 .0705719 .31999208 .010528564 .27398683 .0055389406 .25099183 .0055389406Z"/>
<path id="font_1_2" d="M.45999146 .31976319C.45999146 .39982606 .45498658 .47988893 .41999818 .5539398 .37399293 .65000918 .2919922 .6660156 .25 .6660156 .18998719 .6660156 .116989139 .64001467 .07598877 .54693606 .04399109 .47789 .038986207 .39982606 .038986207 .31976319 .038986207 .24472046 .042999269 .15464783 .083999637 .07859802 .1269989-.0024719239 .19999695-.022460938 .24899292-.022460938 .30299378-.022460938 .3789978-.0014648438 .4229889 .09359741 .45498658 .16265869 .45999146 .2407074 .45999146 .31976319M.24899292-.00047302247C.20999146-.00047302247 .15098572 .024551392 .1329956 .12062073 .12199402 .18066406 .12199402 .2727356 .12199402 .3317871 .12199402 .39582826 .12199402 .46188355 .12998963 .5159149 .14898682 .63500979 .22399903 .64401248 .24899292 .64401248 .28199769 .64401248 .34799195 .6259918 .36698915 .52693179 .3769989 .47088624 .3769989 .39482118 .3769989 .3317871 .3769989 .25672914 .3769989 .18867493 .3659973 .12461853 .35099793 .029556275 .2939911-.00047302247 .24899292-.00047302247Z"/>
<path id="font_5_1" d="M.33299256 .66430667C.33399964 .66830447 .33599855 .67430117 .33599855 .67930606 .33599855 .6953125 .31599427 .6943054 .3039856 .69329836L.19198609 .6843109C.1749878 .68330386 .1619873 .682312 .1619873 .65930178 .1619873 .64331057 .1749878 .64331057 .18998719 .64331057 .21998596 .64331057 .22698975 .64131167 .23999024 .63630679 .23999024 .62431338 .23999024 .62231448 .23599243 .60632327L.09599304 .04724121C.09199524 .031234742 .09199524 .026229859 .09199524 .024230957 .09199524-.00077819827 .11199951-.009765625 .1269989-.009765625 .13699341-.009765625 .15499878-.0057678224 .16799927 .01322937 .17098999 .020233155 .17999268 .053237916 .18499756 .07424927 .18998719 .09326172 .20098877 .13928223 .20698548 .16429138 .21398926 .19030762 .21899414 .20831299 .22399903 .23132324 .22799683 .24632263 .23298645 .264328 .26098634 .3053589 .2939911 .3533783 .34599305 .4084015 .4229889 .4084015 .48599244 .4084015 .48599244 .35638429 .48599244 .33836366 .48599244 .27934266 .44400025 .17329407 .4249878 .12727356 .4189911 .11026001 .4119873 .09425354 .4119873 .07725525 .4119873 .026229859 .45799256-.009765625 .5130005-.009765625 .6139984-.009765625 .6639862 .12226868 .6639862 .14428711 .6639862 .14628601 .6629944 .15829468 .644989 .15829468 .6309967 .15829468 .6299896 .1532898 .6239929 .13427735 .60798647 .08226013 .5669861 .023223877 .5159912 .023223877 .49699403 .023223877 .4889984 .038238527 .4889984 .059249879 .4889984 .07925415 .49598695 .09625244 .5049896 .117263797 .519989 .15628052 .5649872 .2693329 .5649872 .32536317 .5649872 .4044037 .5079956 .44140626 .4269867 .44140626 .34799195 .44140626 .29499818 .39839173 .25498963 .3533783L.33299256 .66430667Z"/>
</defs>
<g>
<path transform="matrix(1.00002,0,0,-1.00002,132.08515,228.97354)" d="M-29.0553 110.55237V116.22208H29.0553V110.55237ZM29.0553 116.22208" fill="#0000ff" fill-opacity=".2"/>
<path transform="matrix(1.00002,0,0,-1.00002,132.08515,228.97354)" stroke-width=".3985" stroke-linecap="butt" stroke-miterlimit="10" stroke-linejoin="miter" fill="none" stroke="#000000" stroke-opacity=".2" d="M-29.0553 110.55237V116.22208H29.0553V110.55237ZM29.0553 116.22208"/>
</g>
<path transform="matrix(1.00002,0,0,-1.00002,132.08515,228.97354)" stroke-width=".3985" stroke-linecap="butt" stroke-miterlimit="10" stroke-linejoin="miter" fill="none" stroke="#0000ff" d="M-29.0553 110.55237H29.0553V116.22208H-29.0553V110.55237"/>
<path transform="matrix(1.00002,0,0,-1.00002,132.08515,228.97354)" stroke-width=".3985" stroke-linecap="butt" stroke-miterlimit="10" stroke-linejoin="miter" fill="none" stroke="#000000" d="M-56.69362 0H56.69362L0 226.77448-56.69362 0"/>
<path transform="matrix(1.00002,0,0,-1.00002,132.08515,228.97354)" stroke-width=".3985" stroke-linecap="butt" stroke-miterlimit="10" stroke-linejoin="miter" fill="none" stroke="#000000" d="M33.0404 110.55237C36.02927 110.76497 38.02179 111.26106 38.02179 111.96979V111.9698C38.02179 112.67851 40.01431 113.17462 43.00317 113.38722 40.01431 113.59982 38.02179 114.09593 38.02179 114.80464 38.02179 115.51337 36.02927 116.00948 33.0404 116.22208"/>
<use data-text="&#x2206;" xlink:href="#font_1_1" transform="matrix(9.962799,0,0,-9.962799,182.32315,119.043338)"/>
<use data-text="h" xlink:href="#font_2_1" transform="matrix(9.962799,0,0,-9.962799,190.62532,119.043338)"/>
<use data-text="i" xlink:href="#font_3_66" transform="matrix(9.962799,0,0,-9.962799,199.6835,119.043338)"/>
<use data-text="n" xlink:href="#font_3_77" transform="matrix(9.962799,0,0,-9.962799,202.45317,119.043338)"/>
<use data-text="." xlink:href="#font_4_88" transform="matrix(11.95544,0,0,-11.95544,130.4591,171.8624)"/>
<use data-text="." xlink:href="#font_4_88" transform="matrix(11.95544,0,0,-11.95544,130.4591,175.84748)"/>
<use data-text="." xlink:href="#font_4_88" transform="matrix(11.95544,0,0,-11.95544,130.4591,179.83255)"/>
<use data-text="." xlink:href="#font_4_88" transform="matrix(11.95544,0,0,-11.95544,130.4591,58.47313)"/>
<use data-text="." xlink:href="#font_4_88" transform="matrix(11.95544,0,0,-11.95544,130.4591,62.45822)"/>
<use data-text="." xlink:href="#font_4_88" transform="matrix(11.95544,0,0,-11.95544,130.4591,66.4433)"/>
<path transform="matrix(1.00002,0,0,-1.00002,132.08515,228.97354)" stroke-width=".3985" stroke-linecap="butt" stroke-dasharray="2.98883,2.98883" stroke-miterlimit="10" stroke-linejoin="miter" fill="none" stroke="#000000" d="M0 110.55237H29.0553"/>
<use data-text="r" xlink:href="#font_5_2" transform="matrix(5.97772,0,0,-5.97772,143.30136,125.17647)"/>
<use data-text="i" xlink:href="#font_6_1" transform="matrix(4.9813997,0,0,-4.9813997,146.76746,126.4375)"/>
<path transform="matrix(1.00002,0,0,-1.00002,132.08515,228.97354)" stroke-width=".3985" stroke-linecap="butt" stroke-miterlimit="10" stroke-linejoin="miter" fill="none" stroke="#000000" d="M-96.11221 0C-99.10107 1.49435-101.0936 4.98138-101.0936 9.96277V103.42447C-101.0936 108.40585-103.08612 111.89288-106.07498 113.38724-103.08612 114.88159-101.0936 118.36862-101.0936 123.35V216.8117C-101.0936 221.79309-99.10107 225.28012-96.11221 226.77448"/>
<use data-text="6" xlink:href="#font_1_3" transform="matrix(9.962799,0,0,-9.962799,.81352236,118.85734)"/>
<use data-text="0" xlink:href="#font_1_2" transform="matrix(9.962799,0,0,-9.962799,5.794922,118.85734)"/>
<use data-text="i" xlink:href="#font_3_66" transform="matrix(9.962799,0,0,-9.962799,14.093796,118.85734)"/>
<use data-text="n" xlink:href="#font_3_77" transform="matrix(9.962799,0,0,-9.962799,16.86345,118.85734)"/>
<path transform="matrix(1.00002,0,0,-1.00002,132.08515,228.97354)" stroke-width=".3985" stroke-linecap="butt" stroke-miterlimit="10" stroke-linejoin="miter" fill="none" stroke="#000000" d="M-29.0553 110.55237V110.55237"/>
<use data-text="h" xlink:href="#font_5_1" transform="matrix(5.97772,0,0,-5.97772,91.351329,119.86436)"/>
<use data-text="i" xlink:href="#font_6_1" transform="matrix(4.9813997,0,0,-4.9813997,95.689418,121.12539)"/>
</svg>
