<svg xmlns="http://www.w3.org/2000/svg" xmlns:xlink="http://www.w3.org/1999/xlink" version="1.1" width="117" height="186" viewBox="0 0 117 186">
<defs>
<path id="font_1_2" d="M.08799744 .059265138C.084991458 .044265748 .07899475 .021255494 .07899475 .01625061 .07899475-.0017547608 .09298706-.0107421879 .10798645-.0107421879 .11999512-.0107421879 .13798523-.002746582 .14498902 .01725769 .14698792 .021255494 .18099976 .15730286 .18499756 .17530823 .19299317 .20831299 .21099854 .27833558 .21699524 .30534364 .22099304 .31835938 .24899292 .36535646 .272995 .38734437 .2809906 .39434815 .30999757 .42037965 .35299684 .42037965 .3789978 .42037965 .3939972 .4083557 .394989 .4083557 .36499024 .40335084 .34298707 .37934876 .34298707 .35334779 .34298707 .33735658 .35398866 .31835938 .3809967 .31835938 .4079895 .31835938 .43598939 .34135438 .43598939 .37734986 .43598939 .41235353 .4039917 .4423828 .35299684 .4423828 .28799439 .4423828 .24398804 .39335633 .22499085 .36535646 .21699524 .4103546 .18099976 .4423828 .13398743 .4423828 .08799744 .4423828 .068984989 .40335084 .05999756 .38534547 .041992189 .35134889 .0289917 .29133607 .0289917 .28834535 .0289917 .27833558 .038986207 .27833558 .040985109 .27833558 .050994874 .27833558 .051986696 .27934266 .057998659 .30134584 .07499695 .37234498 .09498596 .42037965 .1309967 .42037965 .147995 .42037965 .1619873 .41235353 .1619873 .37435914 .1619873 .35334779 .15899658 .3423462 .1459961 .29034425L.08799744 .059265138Z"/>
<path id="font_2_1" d="M.32398988 .6253052C.32398988 .64131167 .31199647 .66329959 .28399659 .66329959 .25698854 .66329959 .22799683 .6372986 .22799683 .6083069 .22799683 .5913086 .24099732 .5703125 .2679901 .5703125 .29699708 .5703125 .32398988 .5983124 .32398988 .6253052M.11999512 .117263797C.115997318 .104263309 .11099243 .09225464 .11099243 .07525635 .11099243 .02822876 .15098572-.009765625 .20599365-.009765625 .30599977-.009765625 .34999085 .12828064 .34999085 .14328003 .34999085 .15628052 .33699037 .15628052 .33399964 .15628052 .31999208 .15628052 .31900025 .15028382 .31498719 .13928223 .2919922 .059249879 .24798584 .018234253 .20899964 .018234253 .18899536 .018234253 .18399048 .031234742 .18399048 .053237916 .18399048 .07624817 .19099427 .09526062 .19999695 .117263797 .20999146 .14428711 .22099304 .17129517 .23199463 .1973114 .24099732 .22131348 .2769928 .3123474 .2809906 .32435609 .28399659 .33436585 .2869873 .3463745 .2869873 .35636903 .2869873 .4033966 .24699402 .44140626 .19198609 .44140626 .09298706 .44140626 .04699707 .3053589 .04699707 .28834535 .04699707 .27534486 .06098938 .27534486 .06399536 .27534486 .07798767 .27534486 .07899475 .28033448 .08198547 .29135133 .10798645 .37738038 .1519928 .4133911 .18899536 .4133911 .20498657 .4133911 .21398926 .4053955 .21398926 .37838746 .21398926 .3553772 .20799256 .34036256 .18299866 .27833558L.11999512 .117263797Z"/>
<path id="font_3_1" d="M.44198609 .69781497C.43499757 .7108154 .43299867 .7158203 .41600038 .7158203 .39898683 .7158203 .39698792 .7108154 .3899994 .69781497L.051986696 .019989014C.04699707 .010986328 .04699707 .008987427 .04699707 .0079956059 .04699707 0 .052993776 0 .068984989 0H.7630005C.7789917 0 .7849884 0 .7849884 .0079956059 .7849884 .008987427 .7849884 .010986328 .7799988 .019989014L.44198609 .69781497M.38398744 .61582949 .6529999 .07598877H.11399841L.38398744 .61582949Z"/>
<path id="font_1_1" d="M.2869873 .68333438C.2869873 .6843262 .2869873 .69433596 .27398683 .69433596 .25099183 .69433596 .17799378 .6863251 .1519928 .6843262 .14399719 .68333438 .1329956 .6823273 .1329956 .6643219 .1329956 .6523285 .14199829 .6523285 .15699768 .6523285 .20498657 .6523285 .20698548 .6453247 .20698548 .6353302L.20399475 .6153412 .05899048 .039260866C.054992677 .025253296 .054992677 .023254395 .054992677 .01725769 .054992677-.0057525637 .07499695-.0107421879 .083999637-.0107421879 .099990848-.0107421879 .115997318 .0012512207 .12098694 .015258789L.13999939 .091278079 .1619873 .18130493C.16799927 .2033081 .17399597 .22531128 .1789856 .24832154 .18099976 .25431825 .18899536 .28733827 .18998719 .29333497 .19299317 .30233766 .22399903 .35835267 .2579956 .38536073 .27999879 .4013672 .31098939 .42037965 .35398866 .42037965 .39698792 .42037965 .4079895 .3863678 .4079895 .35035707 .4079895 .29634095 .36999513 .18730164 .34599305 .12628174 .33799745 .103271488 .33299256 .091278079 .33299256 .0712738 .33299256 .024261475 .36799623-.0107421879 .4149933-.0107421879 .5089874-.0107421879 .54599 .13528443 .54599 .14329529 .54599 .1532898 .5369873 .1532898 .5339966 .1532898 .5239868 .1532898 .5239868 .15029907 .5189972 .13528443 .5039978 .08227539 .47200013 .011245728 .4169922 .011245728 .3999939 .011245728 .3929901 .021255494 .3929901 .044265748 .3929901 .0692749 .4019928 .09327698 .41099549 .11528015 .4269867 .15829468 .47200013 .2773285 .47200013 .3353424 .47200013 .4003601 .43199159 .4423828 .35699464 .4423828 .2939911 .4423828 .24598694 .41137696 .20899964 .36535646L.2869873 .68333438Z"/>
<path id="font_3_3" d="M.2939911 .64004519C.2939911 .66400149 .2939911 .6660156 .2709961 .6660156 .20899964 .60227969 .12098694 .60227969 .08898926 .60227969V.57128909C.10899353 .57128909 .16799927 .57128909 .21998596 .5972748V.07902527C.21998596 .042999269 .21699524 .0309906 .1269989 .0309906H.09498596V0C.12998963 .0029907227 .21699524 .0029907227 .25698854 .0029907227 .29699708 .0029907227 .38398744 .0029907227 .4189911 0V.0309906H.3869934C.29699708 .0309906 .2939911 .041992189 .2939911 .07902527V.64004519Z"/>
<path id="font_3_2" d="M.45999146 .31976319C.45999146 .39982606 .45498658 .47988893 .41999818 .5539398 .37399293 .65000918 .2919922 .6660156 .25 .6660156 .18998719 .6660156 .116989139 .64001467 .07598877 .54693606 .04399109 .47789 .038986207 .39982606 .038986207 .31976319 .038986207 .24472046 .042999269 .15464783 .083999637 .07859802 .1269989-.0024719239 .19999695-.022460938 .24899292-.022460938 .30299378-.022460938 .3789978-.0014648438 .4229889 .09359741 .45498658 .16265869 .45999146 .2407074 .45999146 .31976319M.24899292-.00047302247C.20999146-.00047302247 .15098572 .024551392 .1329956 .12062073 .12199402 .18066406 .12199402 .2727356 .12199402 .3317871 .12199402 .39582826 .12199402 .46188355 .12998963 .5159149 .14898682 .63500979 .22399903 .64401248 .24899292 .64401248 .28199769 .64401248 .34799195 .6259918 .36698915 .52693179 .3769989 .47088624 .3769989 .39482118 .3769989 .3317871 .3769989 .25672914 .3769989 .18867493 .3659973 .12461853 .35099793 .029556275 .2939911-.00047302247 .24899292-.00047302247Z"/>
<path id="font_4_75" d="M.8129883 0V.0309906C.7609863 .0309906 .73599246 .0309906 .7350006 .061019899V.25221253C.7350006 .3383026 .7350006 .36932374 .70399478 .405365 .6899872 .42237855 .6569977 .4423828 .598999 .4423828 .5149994 .4423828 .47099305 .38233949 .45399476 .34429933 .43998719 .43138124 .3659973 .4423828 .32099916 .4423828 .24798584 .4423828 .20098877 .39935304 .17298889 .33729554V.4423828L.03199768 .43066407V.3996582C.101989749 .3996582 .10998535 .39266969 .10998535 .34370423V.07595825C.10998535 .0309906 .09899902 .0309906 .03199768 .0309906V0L.14498902 .0029907227 .25698854 0V.0309906C.18998719 .0309906 .1789856 .0309906 .1789856 .07595825V.25978089C.1789856 .36431886 .25 .42037965 .31399537 .42037965 .3769989 .42037965 .3880005 .36631776 .3880005 .30926515V.076034549C.3880005 .0309906 .3769989 .0309906 .30999757 .0309906V0L.4229889 .0029907227 .5349884 0V.0309906C.46798707 .0309906 .45700074 .0309906 .45700074 .076034549V.2602234C.45700074 .36431886 .5279999 .42037965 .59199526 .42037965 .6549988 .42037965 .66600039 .36631776 .66600039 .30926515V.076034549C.66600039 .0309906 .6549988 .0309906 .58799746 .0309906V0L.70098879 .0029907227 .8129883 0Z"/>
<path id="font_5_1" d="M.33299256 .66430667C.33399964 .66830447 .33599855 .67430117 .33599855 .67930606 .33599855 .6953125 .31599427 .6943054 .3039856 .69329836L.19198609 .6843109C.1749878 .68330386 .1619873 .682312 .1619873 .65930178 .1619873 .64331057 .1749878 .64331057 .18998719 .64331057 .21998596 .64331057 .22698975 .64131167 .23999024 .63630679 .23999024 .62431338 .23999024 .62231448 .23599243 .60632327L.09599304 .04724121C.09199524 .031234742 .09199524 .026229859 .09199524 .024230957 .09199524-.00077819827 .11199951-.009765625 .1269989-.009765625 .13699341-.009765625 .15499878-.0057678224 .16799927 .01322937 .17098999 .020233155 .17999268 .053237916 .18499756 .07424927 .18998719 .09326172 .20098877 .13928223 .20698548 .16429138 .21398926 .19030762 .21899414 .20831299 .22399903 .23132324 .22799683 .24632263 .23298645 .264328 .26098634 .3053589 .2939911 .3533783 .34599305 .4084015 .4229889 .4084015 .48599244 .4084015 .48599244 .35638429 .48599244 .33836366 .48599244 .27934266 .44400025 .17329407 .4249878 .12727356 .4189911 .11026001 .4119873 .09425354 .4119873 .07725525 .4119873 .026229859 .45799256-.009765625 .5130005-.009765625 .6139984-.009765625 .6639862 .12226868 .6639862 .14428711 .6639862 .14628601 .6629944 .15829468 .644989 .15829468 .6309967 .15829468 .6299896 .1532898 .6239929 .13427735 .60798647 .08226013 .5669861 .023223877 .5159912 .023223877 .49699403 .023223877 .4889984 .038238527 .4889984 .059249879 .4889984 .07925415 .49598695 .09625244 .5049896 .117263797 .519989 .15628052 .5649872 .2693329 .5649872 .32536317 .5649872 .4044037 .5079956 .44140626 .4269867 .44140626 .34799195 .44140626 .29499818 .39839173 .25498963 .3533783L.33299256 .66430667Z"/>
<path id="font_6_1" d="M.3959961 .6244507C.3959961 .64845278 .37799073 .66744998 .35198976 .66744998 .32398988 .66744998 .29100038 .6404419 .29100038 .6074524 .29100038 .5794525 .31298829 .5644531 .33399964 .5644531 .36698915 .5644531 .3959961 .5944519 .3959961 .6244507M.44299317 .14428711C.44299317 .15829468 .42599488 .15829468 .42199708 .15829468 .40499879 .15829468 .4039917 .15429688 .397995 .13528443 .3809967 .08027649 .33599855 .023254395 .28599549 .023254395 .2630005 .023254395 .2559967 .039260866 .2559967 .061264039 .2559967 .08227539 .26098634 .09327698 .2689972 .11227417 .2769928 .1322937 .2849884 .15229798 .2899933 .16629029 .2939911 .17530823 .33299256 .2683258 .34700013 .30433656 .35499574 .32435609 .36099244 .33735658 .36099244 .35435487 .36099244 .40237428 .31498719 .4423828 .2519989 .4423828 .14698792 .4423828 .09098816 .3143463 .09098816 .28733827 .09098816 .2733307 .10699463 .2733307 .11199951 .2733307 .1289978 .2733307 .12998963 .27833558 .1349945 .29333497 .15699768 .36436463 .20498657 .40837098 .24798584 .40837098 .2669983 .40837098 .27799989 .39736939 .27799989 .37036134 .27799989 .36636354 .27799989 .35336305 .27198792 .3343506 .2649994 .3163452 .21998596 .20930481 .20599365 .17530823 .19898987 .15829468 .19898987 .15629578 .18399048 .122283939 .1789856 .10827637 .17298889 .0942688 .17298889 .07727051 .17298889 .025253296 .22200012-.0107421879 .28199769-.0107421879 .3869934-.0107421879 .44299317 .119277957 .44299317 .14428711Z"/>
<path id="font_3_4" d="M.1269989 .07699585 .23298645 .18003845C.3889923 .31811524 .44898988 .3721466 .44898988 .47216798 .44898988 .5860901 .35899354 .6660156 .23699951 .6660156 .12399292 .6660156 .049987794 .57411196 .049987794 .48516847 .049987794 .4291687 .099990848 .4291687 .102996829 .4291687 .11999512 .4291687 .15499878 .44117738 .15499878 .48217774 .15499878 .5081787 .13699341 .5341797 .101989749 .5341797 .09399414 .5341797 .09199524 .5341797 .08898926 .5331726 .11199951 .59806826 .1659851 .63500979 .22399903 .63500979 .31498719 .63500979 .35798646 .5541382 .35798646 .47216798 .35798646 .39215089 .30799867 .31311036 .25299073 .25108338L.06098938 .036987306C.049987794 .025985718 .049987794 .023986817 .049987794 0H.42099L.44898988 .17404175H.42399598C.4189911 .14402771 .4119873 .1000061 .4019928 .084991458 .394989 .07699585 .32899476 .07699585 .30699159 .07699585H.1269989Z"/>
</defs>
<path transform="matrix(1,0,0,-1.00003,84.961,163.93999)" stroke-width=".3985" stroke-linecap="butt" stroke-miterlimit="10" stroke-linejoin="miter" fill="none" stroke="#000000" d="M-14.17339 0H14.17339L28.3468 141.73404H-28.3468L-14.17339 0"/>
<path transform="matrix(1,0,0,-1.00003,84.961,163.93999)" stroke-width=".3985" stroke-linecap="butt" stroke-dasharray="2.98883,2.98883" stroke-miterlimit="10" stroke-linejoin="miter" fill="none" stroke="#000000" d="M-19.84267 56.69362H19.84267V62.36288H-19.84267V56.69362"/>
<g>
<path transform="matrix(1,0,0,-1.00003,84.961,163.93999)" d="M-19.84267 56.69362V62.36288H19.84267V56.69362ZM19.84267 62.36288" fill="#0000ff" fill-opacity=".2"/>
<path transform="matrix(1,0,0,-1.00003,84.961,163.93999)" stroke-width=".3985" stroke-linecap="butt" stroke-miterlimit="10" stroke-linejoin="miter" fill="none" stroke="#0000ff" stroke-opacity=".2" d="M-19.84267 56.69362V62.36288H19.84267V56.69362ZM19.84267 62.36288"/>
</g>
<path transform="matrix(1,0,0,-1.00003,84.961,163.93999)" stroke-width=".3985" stroke-linecap="butt" stroke-miterlimit="10" stroke-linejoin="miter" fill="none" stroke="#000000" d="M0 54.70107C.74405 51.7122 2.48032 49.71968 4.96066 49.71968 7.441 49.71968 9.17726 47.72716 9.92133 44.7383 10.66537 47.72716 12.40164 49.71968 14.88199 49.71968H14.882C17.36234 49.71968 19.0986 51.7122 19.84267 54.70107"/>
<use data-text="r" xlink:href="#font_1_2" transform="matrix(9.9626,0,0,-9.962899,90.976,125.65083)"/>
<use data-text="i" xlink:href="#font_2_1" transform="matrix(6.9738,0,0,-6.9740097,95.471,127.14488)"/>
<path transform="matrix(1,0,0,-1.00003,84.961,163.93999)" stroke-width=".3985" stroke-linecap="butt" stroke-miterlimit="10" stroke-linejoin="miter" fill="none" stroke="#000000" d="M-23.82777 56.69362C-26.81664 56.90619-28.80916 57.40227-28.80916 58.11092V58.11093C-28.80916 58.8196-30.80168 59.31566-33.79054 59.52824-30.80168 59.74083-28.80916 60.23691-28.80916 60.94556V60.94557C-28.80916 61.65424-26.81664 62.1503-23.82777 62.36288"/>
<use data-text="&#x2206;" xlink:href="#font_3_1" transform="matrix(9.9626,0,0,-9.962899,35.42,107.8693)"/>
<use data-text="h" xlink:href="#font_1_1" transform="matrix(9.9626,0,0,-9.962899,43.722,107.8693)"/>
<path transform="matrix(1,0,0,-1.00003,84.961,163.93999)" stroke-width=".3985" stroke-linecap="butt" stroke-miterlimit="10" stroke-linejoin="miter" fill="none" stroke="#000000" d="M-46.50531 0C-49.49417 1.49435-51.4867 4.98138-51.4867 9.96277V60.90424C-51.4867 65.88562-53.47922 69.37265-56.46808 70.867-53.47922 72.36136-51.4867 75.84839-51.4867 80.82977V131.77127C-51.4867 136.75266-49.49417 140.23969-46.50531 141.73404"/>
<use data-text="1" xlink:href="#font_3_3" transform="matrix(9.9626,0,0,-9.962899,.81399539,96.28096)"/>
<use data-text="0" xlink:href="#font_3_2" transform="matrix(9.9626,0,0,-9.962899,5.7952959,96.28096)"/>
<use data-text="0" xlink:href="#font_3_2" transform="matrix(9.9626,0,0,-9.962899,10.776596,96.28096)"/>
<use data-text="m" xlink:href="#font_4_75" transform="matrix(9.9626,0,0,-9.962899,19.075989,96.28096)"/>
<path transform="matrix(1,0,0,-1.00003,84.961,163.93999)" stroke-width=".3985" stroke-linecap="butt" stroke-miterlimit="10" stroke-linejoin="miter" fill="none" stroke="#000000" d="M19.84267 56.69362V56.69362"/>
<use data-text="h" xlink:href="#font_5_1" transform="matrix(5.9776,0,0,-5.97778,108.988,108.68933)"/>
<use data-text="i" xlink:href="#font_6_1" transform="matrix(4.9813,0,0,-4.9814498,113.326,109.95036)"/>
<path transform="matrix(1,0,0,-1.00003,84.961,163.93999)" stroke-width=".3985" stroke-linecap="butt" stroke-miterlimit="10" stroke-linejoin="miter" fill="none" stroke="#000000" d="M0-1.99255C.53146-4.9814 1.77167-6.97394 3.54333-6.97394H3.54335C5.31502-6.97394 6.5552-8.96646 7.08669-11.95532 7.61816-8.96646 8.85835-6.97394 10.63004-6.97394 12.40172-6.97394 13.6419-4.9814 14.17339-1.99255"/>
<use data-text="1" xlink:href="#font_3_3" transform="matrix(9.9626,0,0,-9.962899,81.257999,184.1586)"/>
<use data-text="0" xlink:href="#font_3_2" transform="matrix(9.9626,0,0,-9.962899,86.2393,184.1586)"/>
<use data-text="m" xlink:href="#font_4_75" transform="matrix(9.9626,0,0,-9.962899,94.537998,184.1586)"/>
<path transform="matrix(1,0,0,-1.00003,84.961,163.93999)" stroke-width=".3985" stroke-linecap="butt" stroke-miterlimit="10" stroke-linejoin="miter" fill="none" stroke="#000000" d="M0 143.7266C1.06294 146.71546 3.54333 148.70798 7.08669 148.70798H7.0867C10.63005 148.70798 13.11044 150.7005 14.17339 153.68936 15.23634 150.7005 17.71674 148.70798 21.2601 148.70798 24.80345 148.70798 27.28384 146.71546 28.3468 143.7266"/>
<use data-text="2" xlink:href="#font_3_4" transform="matrix(9.9626,0,0,-9.962899,88.345,8.40332)"/>
<use data-text="0" xlink:href="#font_3_2" transform="matrix(9.9626,0,0,-9.962899,93.3263,8.40332)"/>
<use data-text="m" xlink:href="#font_4_75" transform="matrix(9.9626,0,0,-9.962899,101.625,8.40332)"/>
</svg>
