<svg xmlns="http://www.w3.org/2000/svg" xmlns:xlink="http://www.w3.org/1999/xlink" version="1.1" width="200" height="106" viewBox="0 0 200 106">
<defs>
<path id="font_1_1" d="M.397995-.22601319C.28799439-.14201355 .19799805 .015991211 .19799805 .25 .19799805 .48098756 .28599549 .6409912 .397995 .7259979 .397995 .72698977 .40098573 .73098757 .40098573 .73599246 .40098573 .74198916 .39698792 .75 .3849945 .75 .36698915 .75 .12599182 .59298709 .12599182 .25 .12599182-.0920105 .3659973-.25 .3849945-.25 .39698792-.25 .40098573-.2420044 .40098573-.23600769 .40098573-.23100281 .397995-.227005 .397995-.22601319Z"/>
<path id="font_2_3" d="M.45700074 .37594605C.42799378 .36894227 .4169922 .34394837 .4169922 .32894898 .4169922 .3129425 .42900086 .2959442 .45199586 .2959442 .47200013 .2959442 .5009918 .30995179 .5009918 .35295106 .5009918 .4203949 .4249878 .44140626 .3600006 .44140626 .20698548 .44140626 .16999817 .33995057 .16999817 .2969513 .16999817 .21612549 .2619934 .2001648 .28799439 .19616699 .36299134 .18319702 .42099 .17222595 .42099 .1232605 .42099 .102264408 .4039917 .06626892 .36799623 .04624939 .32899476 .025222779 .28599549 .023223877 .25698854 .023223877 .22200012 .023223877 .1599884 .027236939 .1309967 .060272218 .1659851 .06626892 .18299866 .09326172 .18299866 .117263797 .18299866 .13825989 .16899109 .15527344 .14199829 .15527344 .115997318 .15527344 .083999637 .13426209 .083999637 .087265018 .083999637 .03224182 .13899231-.009765625 .2559967-.009765625 .44299317-.009765625 .48298646 .10626221 .48298646 .15226746 .48298646 .18519593 .46899415 .20814514 .44599916 .22810364 .4139862 .25604249 .3769989 .26202394 .32899476 .27000428 .27999879 .27897645 .23199463 .28697206 .23199463 .325943 .23199463 .32695008 .23199463 .40838624 .35899354 .40838624 .38398744 .40838624 .43399049 .4043274 .45700074 .37594605Z"/>
<path id="font_3_2" d="M.397995 .63591006C.397995 .6660156 .394989 .6660156 .3619995 .6660156 .29100038 .6016083 .17999268 .6016083 .1599884 .6016083H.14299011V.5576172H.1599884C.18299866 .5576172 .24798584 .5606079 .30599977 .58561709V.08596802C.30599977 .054977418 .30599977 .04399109 .19999695 .04399109H.1499939V0C.20498657 .0039978029 .2939911 .0039978029 .35198976 .0039978029 .4099884 .0039978029 .49899293 .0039978029 .55400088 0V.04399109H.5039978C.397995 .04399109 .397995 .054977418 .397995 .08596802V.63591006Z"/>
<path id="font_2_1" d="M.22999573 .01399231C.22999573-.0811615 .17999268-.13627625 .15499878-.15830994 .14498902-.16833496 .14199829-.17033386 .14199829-.17634583 .14199829-.18534851 .15098572-.19433594 .15899658-.19433594 .17298889-.19433594 .2630005-.114227298 .2630005 .008987427 .2630005 .07199097 .23699951 .12098694 .18899536 .12098694 .1499939 .12098694 .1289978 .08999634 .1289978 .06098938 .1289978 .0309906 .1499939 0 .18998719 0 .20498657 0 .21899414 .0039978029 .22999573 .01399231Z"/>
<path id="font_2_2" d="M.43099977 .39065553H.5329895C.5529938 .39065553 .5669861 .39065553 .5669861 .4156494 .5669861 .43066407 .55400088 .43066407 .5359955 .43066407H.43798829C.46798707 .5951538 .46798707 .5971527 .47200013 .6151428 .47698976 .637146 .47898866 .6461487 .49398805 .6581421 .5059967 .66711428 .5149994 .6710968 .5299988 .6710968 .54599 .6710968 .56199648 .66911318 .57598879 .6621399 .55599978 .6541443 .5379944 .6321411 .5379944 .6081543 .5379944 .58714297 .5549927 .57014468 .57899478 .57014468 .6049957 .57014468 .6359863 .5921478 .6359863 .6311493 .6359863 .6860962 .57398989 .70410159 .5299988 .70410159 .4850006 .70410159 .4169922 .6830902 .3869934 .58314517 .3789978 .55810549 .37599183 .53804019 .36898805 .50190737 .3639984 .47280885 .3619995 .45976258 .35598756 .43066407H.27398683C.2539978 .43066407 .23999024 .43066407 .23999024 .4056549 .23999024 .39065553 .25299073 .39065553 .2709961 .39065553H.34899903C.30999757 .16674805 .29599 .089767459 .2919922 .071777347 .26098634-.10015869 .2559967-.11016846 .24699402-.12716675 .23298645-.15116883 .21598816-.17111206 .19099427-.17111206 .18499756-.17111206 .16299439-.16912842 .14698792-.16215515 .16699219-.15415955 .18499756-.13215637 .18499756-.108169559 .18499756-.0871582 .16799927-.07015991 .14399719-.07015991 .117996219-.07015991 .08699036-.092163089 .08699036-.13116455 .08699036-.18710327 .1499939-.20410156 .18998719-.20410156 .24499512-.20410156 .28399659-.15916443 .3019867-.13716126 .34599305-.07817078 .36698915 .040786745 .36898805 .04978943L.43099977 .39065553Z"/>
<path id="font_1_2" d="M.35398866 .25C.35398866 .59199526 .11399841 .75 .09498596 .75 .08299255 .75 .07998657 .7409973 .07998657 .73599246 .07998657 .7299957 .08099365 .72898867 .09899902 .71299746 .18899536 .6360016 .28199769 .48799134 .28199769 .25 .28199769 .037994386 .20799256-.1210022 .09498596-.21600342 .08099365-.2290039 .07998657-.23001099 .07998657-.23600769 .07998657-.24101258 .08299255-.25 .09498596-.25 .11299133-.25 .35398866-.09300232 .35398866 .25Z"/>
<path id="font_3_3" d="M.58898928 .19296265H.5469971C.5439911 .17396546 .5339966 .11198425 .5179901 .101989749 .5099945 .09599304 .42599488 .09599304 .41099549 .09599304H.21499634C.2809906 .14497376 .35499574 .20095825 .4149933 .24093628 .5049896 .30291749 .58898928 .36090089 .58898928 .46687318 .58898928 .59495547 .46798707 .6660156 .32499696 .6660156 .18998719 .6660156 .09098816 .58795168 .09098816 .48986817 .09098816 .4378662 .1349945 .42886354 .14898682 .42886354 .17599488 .42886354 .20799256 .4468689 .20799256 .48786927 .20799256 .52386477 .18199158 .543869 .15098572 .546875 .1789856 .59194949 .23699951 .6220093 .3039856 .6220093 .40098573 .6220093 .48199464 .5639038 .48199464 .4658661 .48199464 .3818817 .42399598 .31791688 .34700013 .2529297L.102996829 .04598999C.09298706 .036987306 .09199524 .036987306 .09098816 .02999878V0H.55599978L.58898928 .19296265Z"/>
<path id="font_3_4" d="M.32998658 .3310547C.42199708 .3310547 .48298646 .2737732 .48298646 .17437744 .48298646 .07237244 .41999818 .01852417 .33099366 .01852417 .31999208 .01852417 .20098877 .01852417 .1499939 .070373538 .19099427 .07637024 .20298767 .1073761 .20298767 .13137818 .20298767 .16838074 .1749878 .19238281 .14199829 .19238281 .10998535 .19238281 .07998657 .17137146 .07998657 .12937927 .07998657 .025512696 .19799805-.022460938 .33399964-.022460938 .49798585-.022460938 .59999087 .07637024 .59999087 .17337036 .59999087 .25567628 .5269928 .3260193 .41299439 .35205079 .5329895 .3909912 .5649872 .46684266 .5649872 .5228424 .5649872 .60491946 .46299745 .6660156 .33699037 .6660156 .21398926 .6660156 .114990238 .61395266 .114990238 .5238342 .114990238 .47683717 .15299988 .46484376 .17199707 .46484376 .20098877 .46484376 .22898865 .48583985 .22898865 .5218353 .22898865 .5448303 .21699524 .5728302 .18099976 .57884219 .22399903 .625 .31298829 .628006 .33399964 .628006 .40699769 .628006 .45899964 .5908661 .45899964 .5228424 .45899964 .46484376 .42099 .37402345 .31599427 .368042 .28799439 .3670349 .28399659 .3660431 .2579956 .365036 .24699402 .3640442 .23599243 .36305238 .23599243 .34805299 .23599243 .3310547 .24598694 .3310547 .2639923 .3310547H.32998658Z"/>
<path id="font_3_5" d="M.61698916 .1630249V.20703125H.49198915V.64675906C.49198915 .67074587 .4909973 .6767578 .46499635 .6767578 .44499208 .6767578 .44400025 .67575076 .43299867 .66174319L.06298828 .20703125V.1630249H.3959961V.085006717C.3959961 .054000856 .3959961 .04399109 .30899049 .04399109H.27398683V0C.32099916 .0019989014 .38598634 .0039978029 .44400025 .0039978029 .5019989 .0039978029 .56599429 .0019989014 .6139984 0V.04399109H.57899478C.49198915 .04399109 .49198915 .054000856 .49198915 .085006717V.1630249H.61698916M.4039917 .5688019V.20703125H.10998535L.4039917 .5688019Z"/>
<path id="font_3_6" d="M.19599915 .55078127C.24899292 .53778079 .2939911 .53778079 .30499269 .53778079 .37298585 .53778079 .4229889 .55778506 .44898988 .57177737 .47299195 .583786 .54100039 .6267853 .54100039 .64878848 .54100039 .66378787 .5299988 .66578677 .5269928 .66578677 .5249939 .66578677 .522995 .66578677 .5119934 .66078189 .47399903 .6477814 .4119873 .63378909 .34599305 .63378909 .2889862 .63378909 .23399353 .64378359 .18099976 .66178897 .16999817 .66578677 .16799927 .66578677 .1659851 .66578677 .1519928 .66578677 .1519928 .6537781 .1519928 .63778689V.33763124C.1519928 .32061769 .1519928 .30760194 .17098999 .30760194 .18199158 .30760194 .18299866 .30960084 .19198609 .32061769 .22999573 .36468507 .2829895 .38671876 .35099793 .38671876 .40899659 .38671876 .44099427 .35266114 .45498658 .33163453 .47799684 .2975769 .48298646 .2525177 .48298646 .20446778 .48298646 .16246033 .47898866 .10646057 .43998719 .067489627 .394989 .021530152 .33799745 .01852417 .31599427 .01852417 .25099183 .01852417 .17799378 .04650879 .14698792 .10546875 .18899536 .10845947 .20298767 .13845825 .20298767 .1614685 .20298767 .19346619 .1789856 .21746826 .14698792 .21746826 .125 .21746826 .09098816 .20446778 .09098816 .15846253 .09098816 .0605011 .18699646-.022460938 .31799317-.022460938 .46699525-.022460938 .58898928 .07748413 .58898928 .20146179 .58898928 .3146057 .49198915 .41970826 .35299684 .41970826 .2899933 .41970826 .23899842 .40371705 .19599915 .37068177V.55078127Z"/>
<path id="font_3_7" d="M.18598938 .32769776C.18699646 .37371827 .18798828 .4528656 .22399903 .51808169 .25299073 .5720825 .31799317 .628006 .41099549 .628006 .42999269 .628006 .47499085 .6260071 .5049896 .6020813 .4889984 .5980835 .46299745 .5830841 .46299745 .5490875 .46299745 .51708987 .4869995 .49609376 .5159912 .49609376 .5329895 .49609376 .56900027 .5050812 .56900027 .5520935 .56900027 .6060791 .5309906 .6660156 .4099884 .6660156 .23799134 .6660156 .07998657 .52508547 .07998657 .317688 .07998657 .078567508 .19699097-.022460938 .34298707-.022460938 .44198609-.022460938 .4889984 .014526367 .522995 .042541505 .58699038 .095565799 .59999087 .15460205 .59999087 .20463562 .59999087 .26565553 .5799866 .314682 .5279999 .36071778 .48399354 .40072633 .43798829 .42773438 .35099793 .42773438 .29299928 .42773438 .22799683 .39971925 .18598938 .32769776M.34298707 .01852417C.18899536 .01852417 .18899536 .18461609 .18899536 .2266388 .18899536 .30368043 .24398804 .39372254 .34899903 .39372254 .3999939 .39372254 .43199159 .38072206 .46299745 .34069825 .49299623 .30368043 .49398805 .2616577 .49398805 .20562744 .49398805 .14759827 .49398805 .109573367 .46199037 .06956482 .43399049 .0365448 .39898683 .01852417 .34298707 .01852417Z"/>
<path id="font_2_4" d="M.5629883 .39352418C.5279999 .38352967 .519989 .3545227 .519989 .33952333 .519989 .30752564 .54599 .30052186 .55999758 .30052186 .58898928 .30052186 .6179962 .32452394 .6179962 .3635254 .6179962 .41740418 .5589905 .44140626 .5079956 .44140626 .44198609 .44140626 .4019928 .3905182 .3909912 .371521 .37799073 .39649964 .33999635 .44140626 .2649994 .44140626 .1499939 .44140626 .08198547 .32252503 .08198547 .28749085 .08198547 .2824707 .085998538 .27345277 .099990848 .27345277 .11399841 .27345277 .116989139 .27946473 .11999512 .28848268 .14498902 .3695221 .21299744 .4084015 .2619934 .4084015 .31098939 .4084015 .32598878 .37652589 .32598878 .34352113 .32598878 .3315277 .32598878 .32252503 .31799317 .29148866 .29499818 .19825745 .272995 .10707092 .2679901 .095077518 .25299073 .05708313 .21699524 .023223877 .1749878 .023223877 .16899109 .023223877 .14099121 .023223877 .117996219 .038085939 .15699768 .051071168 .16099549 .08407593 .16099549 .09207153 .16099549 .11807251 .14099121 .13108826 .12098694 .13108826 .09298706 .13108826 .06298828 .10908508 .06298828 .06808472 .06298828 .011230469 .12599182-.009765625 .17298889-.009765625 .22999573-.009765625 .2709961 .029159546 .2899933 .060073854 .30999757 .018234253 .35798646-.009765625 .4149933-.009765625 .5329895-.009765625 .598999 .111083988 .598999 .14411927 .598999 .14611817 .59799197 .15815735 .5799866 .15815735 .56599429 .15815735 .56399539 .1511383 .5609894 .1421051 .5319977 .05508423 .46099855 .023223877 .4189911 .023223877 .3809967 .023223877 .35398866 .045074464 .35398866 .08708191 .35398866 .1060791 .35899354 .12808228 .36799623 .16316223L.3999939 .2935028C.4099884 .33251954 .4149933 .3505249 .43598939 .37452699 .44999696 .38952638 .47399903 .4084015 .5059967 .4084015 .5109863 .4084015 .54100039 .4084015 .5629883 .39352418Z"/>
<path id="font_3_1" d="M.6009979 .31976319C.6009979 .3918152 .6009979 .6660156 .33999635 .6660156 .07899475 .6660156 .07899475 .3918152 .07899475 .31976319 .07899475 .2467041 .07899475-.022460938 .33999635-.022460938 .6009979-.022460938 .6009979 .2467041 .6009979 .31976319M.33999635 .010528564C.30299378 .010528564 .21899414 .023544312 .19400025 .12461853 .17999268 .17866516 .1789856 .24971009 .1789856 .33177186 .1789856 .405838 .1789856 .47488404 .19499207 .5319214 .21998596 .6159973 .29699708 .63301089 .33999635 .63301089 .4139862 .63301089 .46699525 .5949707 .4869995 .5249176 .5009918 .47387696 .5009918 .39082337 .5009918 .33177186 .5009918 .26371766 .5009918 .18266297 .48599244 .12261963 .45999146 .025543213 .37998963 .010528564 .33999635 .010528564Z"/>
</defs>
<path transform="matrix(1.00003,0,0,-1.00005,12.193119,60.754186)" stroke-width=".79701" stroke-linecap="butt" stroke-miterlimit="10" stroke-linejoin="miter" fill="none" stroke="#000000" d="M0 0H141.73404"/>
<path transform="matrix(1.00003,0,0,-1.00005,12.193119,60.754186)" d="M0 0V28.3468H22.67752V0ZM22.67752 28.3468" fill="#cbcbcb"/>
<path transform="matrix(1.00003,0,0,-1.00005,12.193119,60.754186)" stroke-width=".3985" stroke-linecap="butt" stroke-miterlimit="10" stroke-linejoin="miter" fill="none" stroke="#000000" d="M0 0V28.3468H22.67752V0ZM22.67752 28.3468"/>
<path transform="matrix(1.00003,0,0,-1.00005,12.193119,60.754186)" d="M22.67752 0V49.6069H53.85875V0ZM53.85875 49.6069" fill="#cbcbcb"/>
<path transform="matrix(1.00003,0,0,-1.00005,12.193119,60.754186)" stroke-width=".3985" stroke-linecap="butt" stroke-miterlimit="10" stroke-linejoin="miter" fill="none" stroke="#000000" d="M22.67752 0V49.6069H53.85875V0ZM53.85875 49.6069"/>
<path transform="matrix(1.00003,0,0,-1.00005,12.193119,60.754186)" d="M53.85875 0V-34.01608H96.37897V0ZM96.37897-34.01608" fill="#cbcbcb"/>
<path transform="matrix(1.00003,0,0,-1.00005,12.193119,60.754186)" stroke-width=".3985" stroke-linecap="butt" stroke-miterlimit="10" stroke-linejoin="miter" fill="none" stroke="#000000" d="M53.85875 0V-34.01608H96.37897V0ZM96.37897-34.01608"/>
<path transform="matrix(1.00003,0,0,-1.00005,12.193119,60.754186)" d="M96.37897 0V24.09494H119.0565V0ZM119.0565 24.09494" fill="#cbcbcb"/>
<path transform="matrix(1.00003,0,0,-1.00005,12.193119,60.754186)" stroke-width=".3985" stroke-linecap="butt" stroke-miterlimit="10" stroke-linejoin="miter" fill="none" stroke="#000000" d="M96.37897 0V24.09494H119.0565V0ZM119.0565 24.09494"/>
<path transform="matrix(1.00003,0,0,-1.00005,12.193119,60.754186)" d="M119.0565 0V9.92155H161.5767V0ZM161.5767 9.92155" fill="#cbcbcb"/>
<path transform="matrix(1.00003,0,0,-1.00005,12.193119,60.754186)" stroke-width=".3985" stroke-linecap="butt" stroke-miterlimit="10" stroke-linejoin="miter" fill="none" stroke="#000000" d="M119.0565 0V9.92155H161.5767V0ZM161.5767 9.92155"/>
<path transform="matrix(1.00003,0,0,-1.00005,12.193119,60.754186)" d="M161.5767 0V-14.17339H170.08086V0ZM170.08086-14.17339" fill="#cbcbcb"/>
<path transform="matrix(1.00003,0,0,-1.00005,12.193119,60.754186)" stroke-width=".3985" stroke-linecap="butt" stroke-miterlimit="10" stroke-linejoin="miter" fill="none" stroke="#000000" d="M161.5767 0V-14.17339H170.08086V0ZM170.08086-14.17339"/>
<path transform="matrix(1.00003,0,0,-1.00005,12.193119,60.754186)" d="M7.08669 28.3468C7.08669 29.12962 6.45209 29.76422 5.66927 29.76422 4.88644 29.76422 4.25185 29.12962 4.25185 28.3468 4.25185 27.56398 4.88644 26.92938 5.66927 26.92938 6.45209 26.92938 7.08669 27.56398 7.08669 28.3468ZM5.66927 28.3468"/>
<path transform="matrix(1.00003,0,0,-1.00005,12.193119,60.754186)" stroke-width=".3985" stroke-linecap="butt" stroke-miterlimit="10" stroke-linejoin="miter" fill="none" stroke="#000000" d="M7.08669 28.3468C7.08669 29.12962 6.45209 29.76422 5.66927 29.76422 4.88644 29.76422 4.25185 29.12962 4.25185 28.3468 4.25185 27.56398 4.88644 26.92938 5.66927 26.92938 6.45209 26.92938 7.08669 27.56398 7.08669 28.3468ZM5.66927 28.3468"/>
<path transform="matrix(1.00003,0,0,-1.00005,12.193119,60.754186)" d="M45.35506 49.6069C45.35506 50.38972 44.72046 51.02432 43.93764 51.02432 43.1548 51.02432 42.52022 50.38972 42.52022 49.6069 42.52022 48.82408 43.1548 48.18948 43.93764 48.18948 44.72046 48.18948 45.35506 48.82408 45.35506 49.6069ZM43.93764 49.6069"/>
<path transform="matrix(1.00003,0,0,-1.00005,12.193119,60.754186)" stroke-width=".3985" stroke-linecap="butt" stroke-miterlimit="10" stroke-linejoin="miter" fill="none" stroke="#000000" d="M45.35506 49.6069C45.35506 50.38972 44.72046 51.02432 43.93764 51.02432 43.1548 51.02432 42.52022 50.38972 42.52022 49.6069 42.52022 48.82408 43.1548 48.18948 43.93764 48.18948 44.72046 48.18948 45.35506 48.82408 45.35506 49.6069ZM43.93764 49.6069"/>
<path transform="matrix(1.00003,0,0,-1.00005,12.193119,60.754186)" d="M62.36287-34.01608C62.36287-33.23325 61.72829-32.59866 60.94545-32.59866 60.16263-32.59866 59.52803-33.23325 59.52803-34.01608 59.52803-34.7989 60.16263-35.43349 60.94545-35.43349 61.72829-35.43349 62.36287-34.7989 62.36287-34.01608ZM60.94545-34.01608"/>
<path transform="matrix(1.00003,0,0,-1.00005,12.193119,60.754186)" stroke-width=".3985" stroke-linecap="butt" stroke-miterlimit="10" stroke-linejoin="miter" fill="none" stroke="#000000" d="M62.36287-34.01608C62.36287-33.23325 61.72829-32.59866 60.94545-32.59866 60.16263-32.59866 59.52803-33.23325 59.52803-34.01608 59.52803-34.7989 60.16263-35.43349 60.94545-35.43349 61.72829-35.43349 62.36287-34.7989 62.36287-34.01608ZM60.94545-34.01608"/>
<path transform="matrix(1.00003,0,0,-1.00005,12.193119,60.754186)" d="M109.13536 24.09494C109.13536 24.87778 108.50076 25.51236 107.71794 25.51236 106.93512 25.51236 106.30052 24.87778 106.30052 24.09494 106.30052 23.31212 106.93512 22.67754 107.71794 22.67754 108.50076 22.67754 109.13536 23.31212 109.13536 24.09494ZM107.71794 24.09494"/>
<path transform="matrix(1.00003,0,0,-1.00005,12.193119,60.754186)" stroke-width=".3985" stroke-linecap="butt" stroke-miterlimit="10" stroke-linejoin="miter" fill="none" stroke="#000000" d="M109.13536 24.09494C109.13536 24.87778 108.50076 25.51236 107.71794 25.51236 106.93512 25.51236 106.30052 24.87778 106.30052 24.09494 106.30052 23.31212 106.93512 22.67754 107.71794 22.67754 108.50076 22.67754 109.13536 23.31212 109.13536 24.09494ZM107.71794 24.09494"/>
<path transform="matrix(1.00003,0,0,-1.00005,12.193119,60.754186)" d="M128.97805 9.92155C128.97805 10.70438 128.34346 11.33896 127.56062 11.33896 126.7778 11.33896 126.14322 10.70438 126.14322 9.92155 126.14322 9.13872 126.7778 8.50414 127.56062 8.50414 128.34346 8.50414 128.97805 9.13872 128.97805 9.92155ZM127.56062 9.92155"/>
<path transform="matrix(1.00003,0,0,-1.00005,12.193119,60.754186)" stroke-width=".3985" stroke-linecap="butt" stroke-miterlimit="10" stroke-linejoin="miter" fill="none" stroke="#000000" d="M128.97805 9.92155C128.97805 10.70438 128.34346 11.33896 127.56062 11.33896 126.7778 11.33896 126.14322 10.70438 126.14322 9.92155 126.14322 9.13872 126.7778 8.50414 127.56062 8.50414 128.34346 8.50414 128.97805 9.13872 128.97805 9.92155ZM127.56062 9.92155"/>
<path transform="matrix(1.00003,0,0,-1.00005,12.193119,60.754186)" d="M171.49828-14.17339C171.49828-13.39056 170.86368-12.75597 170.08086-12.75597 169.29802-12.75597 168.66344-13.39056 168.66344-14.17339 168.66344-14.95622 169.29802-15.5908 170.08086-15.5908 170.86368-15.5908 171.49828-14.95622 171.49828-14.17339ZM170.08086-14.17339"/>
<path transform="matrix(1.00003,0,0,-1.00005,12.193119,60.754186)" stroke-width=".3985" stroke-linecap="butt" stroke-miterlimit="10" stroke-linejoin="miter" fill="none" stroke="#000000" d="M171.49828-14.17339C171.49828-13.39056 170.86368-12.75597 170.08086-12.75597 169.29802-12.75597 168.66344-13.39056 168.66344-14.17339 168.66344-14.95622 169.29802-15.5908 170.08086-15.5908 170.86368-15.5908 171.49828-14.95622 171.49828-14.17339ZM170.08086-14.17339"/>
<use data-text="(" xlink:href="#font_1_1" transform="matrix(5.97778,0,0,-5.9778988,.8147774,26.727482)"/>
<use data-text="s" xlink:href="#font_2_3" transform="matrix(5.97778,0,0,-5.9778988,3.6928635,26.727482)"/>
<use data-text="1" xlink:href="#font_3_2" transform="matrix(4.9814498,0,0,-4.981549,7.186966,27.879536)"/>
<use data-text="," xlink:href="#font_2_1" transform="matrix(5.97778,0,0,-5.9778988,11.075085,26.727478)"/>
<use data-text="f" xlink:href="#font_2_2" transform="matrix(5.97778,0,0,-5.9778988,14.61393,26.727478)"/>
<use data-text="(" xlink:href="#font_1_1" transform="matrix(5.97778,0,0,-5.9778988,18.893319,26.727478)"/>
<use data-text="s" xlink:href="#font_2_3" transform="matrix(5.97778,0,0,-5.9778988,21.771405,26.727478)"/>
<use data-text="1" xlink:href="#font_3_2" transform="matrix(4.9814498,0,0,-4.981549,25.265507,27.879536)"/>
<use data-text=")" xlink:href="#font_1_2" transform="matrix(5.97778,0,0,-5.9778988,29.153626,26.727478)"/>
<use data-text=")" xlink:href="#font_1_2" transform="matrix(5.97778,0,0,-5.9778988,32.034914,26.727478)"/>
<use data-text="(" xlink:href="#font_1_1" transform="matrix(5.97778,0,0,-5.9778988,39.083929,5.466423)"/>
<use data-text="s" xlink:href="#font_2_3" transform="matrix(5.97778,0,0,-5.9778988,41.962015,5.466423)"/>
<use data-text="2" xlink:href="#font_3_3" transform="matrix(4.9814498,0,0,-4.981549,45.456117,6.618477)"/>
<use data-text="," xlink:href="#font_2_1" transform="matrix(5.97778,0,0,-5.9778988,49.344236,5.466419)"/>
<use data-text="f" xlink:href="#font_2_2" transform="matrix(5.97778,0,0,-5.9778988,52.88308,5.466419)"/>
<use data-text="(" xlink:href="#font_1_1" transform="matrix(5.97778,0,0,-5.9778988,57.162469,5.466419)"/>
<use data-text="s" xlink:href="#font_2_3" transform="matrix(5.97778,0,0,-5.9778988,60.040555,5.466419)"/>
<use data-text="2" xlink:href="#font_3_3" transform="matrix(4.9814498,0,0,-4.981549,63.534658,6.618477)"/>
<use data-text=")" xlink:href="#font_1_2" transform="matrix(5.97778,0,0,-5.9778988,67.422779,5.466419)"/>
<use data-text=")" xlink:href="#font_1_2" transform="matrix(5.97778,0,0,-5.9778988,70.30406,5.466419)"/>
<use data-text="(" xlink:href="#font_1_1" transform="matrix(5.97778,0,0,-5.9778988,56.092439,103.439319)"/>
<use data-text="s" xlink:href="#font_2_3" transform="matrix(5.97778,0,0,-5.9778988,58.970525,103.439319)"/>
<use data-text="3" xlink:href="#font_3_4" transform="matrix(4.9814498,0,0,-4.981549,62.464628,104.59137)"/>
<use data-text="," xlink:href="#font_2_1" transform="matrix(5.97778,0,0,-5.9778988,66.352748,103.439319)"/>
<use data-text="f" xlink:href="#font_2_2" transform="matrix(5.97778,0,0,-5.9778988,69.89159,103.439319)"/>
<use data-text="(" xlink:href="#font_1_1" transform="matrix(5.97778,0,0,-5.9778988,74.170978,103.439319)"/>
<use data-text="s" xlink:href="#font_2_3" transform="matrix(5.97778,0,0,-5.9778988,77.049068,103.439319)"/>
<use data-text="3" xlink:href="#font_3_4" transform="matrix(4.9814498,0,0,-4.981549,80.54317,104.59137)"/>
<use data-text=")" xlink:href="#font_1_2" transform="matrix(5.97778,0,0,-5.9778988,84.43129,103.439319)"/>
<use data-text=")" xlink:href="#font_1_2" transform="matrix(5.97778,0,0,-5.9778988,87.31258,103.439319)"/>
<use data-text="(" xlink:href="#font_1_1" transform="matrix(5.97778,0,0,-5.9778988,102.86684,30.979699)"/>
<use data-text="s" xlink:href="#font_2_3" transform="matrix(5.97778,0,0,-5.9778988,105.74493,30.979699)"/>
<use data-text="4" xlink:href="#font_3_5" transform="matrix(4.9814498,0,0,-4.981549,109.23903,32.131753)"/>
<use data-text="," xlink:href="#font_2_1" transform="matrix(5.97778,0,0,-5.9778988,113.12715,30.979695)"/>
<use data-text="f" xlink:href="#font_2_2" transform="matrix(5.97778,0,0,-5.9778988,116.66599,30.979695)"/>
<use data-text="(" xlink:href="#font_1_1" transform="matrix(5.97778,0,0,-5.9778988,120.94538,30.979695)"/>
<use data-text="s" xlink:href="#font_2_3" transform="matrix(5.97778,0,0,-5.9778988,123.82347,30.979695)"/>
<use data-text="4" xlink:href="#font_3_5" transform="matrix(4.9814498,0,0,-4.981549,127.317569,32.131753)"/>
<use data-text=")" xlink:href="#font_1_2" transform="matrix(5.97778,0,0,-5.9778988,131.20569,30.979695)"/>
<use data-text=")" xlink:href="#font_1_2" transform="matrix(5.97778,0,0,-5.9778988,134.08698,30.979695)"/>
<use data-text="(" xlink:href="#font_1_1" transform="matrix(5.97778,0,0,-5.9778988,122.70944,45.153406)"/>
<use data-text="s" xlink:href="#font_2_3" transform="matrix(5.97778,0,0,-5.9778988,125.587528,45.153406)"/>
<use data-text="5" xlink:href="#font_3_6" transform="matrix(4.9814498,0,0,-4.981549,129.08164,46.305459)"/>
<use data-text="," xlink:href="#font_2_1" transform="matrix(5.97778,0,0,-5.9778988,132.96974,45.1534)"/>
<use data-text="f" xlink:href="#font_2_2" transform="matrix(5.97778,0,0,-5.9778988,136.50859,45.1534)"/>
<use data-text="(" xlink:href="#font_1_1" transform="matrix(5.97778,0,0,-5.9778988,140.78798,45.1534)"/>
<use data-text="s" xlink:href="#font_2_3" transform="matrix(5.97778,0,0,-5.9778988,143.66606,45.1534)"/>
<use data-text="5" xlink:href="#font_3_6" transform="matrix(4.9814498,0,0,-4.981549,147.16017,46.305459)"/>
<use data-text=")" xlink:href="#font_1_2" transform="matrix(5.97778,0,0,-5.9778988,151.04828,45.1534)"/>
<use data-text=")" xlink:href="#font_1_2" transform="matrix(5.97778,0,0,-5.9778988,153.92957,45.1534)"/>
<use data-text="(" xlink:href="#font_1_1" transform="matrix(5.97778,0,0,-5.9778988,165.23172,83.59633)"/>
<use data-text="s" xlink:href="#font_2_3" transform="matrix(5.97778,0,0,-5.9778988,168.1098,83.59633)"/>
<use data-text="6" xlink:href="#font_3_7" transform="matrix(4.9814498,0,0,-4.981549,171.60391,84.74838)"/>
<use data-text="," xlink:href="#font_2_1" transform="matrix(5.97778,0,0,-5.9778988,175.49202,83.59632)"/>
<use data-text="f" xlink:href="#font_2_2" transform="matrix(5.97778,0,0,-5.9778988,179.03087,83.59632)"/>
<use data-text="(" xlink:href="#font_1_1" transform="matrix(5.97778,0,0,-5.9778988,183.31026,83.59632)"/>
<use data-text="s" xlink:href="#font_2_3" transform="matrix(5.97778,0,0,-5.9778988,186.18834,83.59632)"/>
<use data-text="6" xlink:href="#font_3_7" transform="matrix(4.9814498,0,0,-4.981549,189.68245,84.74838)"/>
<use data-text=")" xlink:href="#font_1_2" transform="matrix(5.97778,0,0,-5.9778988,193.57056,83.59632)"/>
<use data-text=")" xlink:href="#font_1_2" transform="matrix(5.97778,0,0,-5.9778988,196.45185,83.59632)"/>
<path transform="matrix(1.00003,0,0,-1.00005,12.193119,60.754186)" stroke-width=".79701" stroke-linecap="butt" stroke-dasharray="2.98883,2.98883" stroke-miterlimit="10" stroke-linejoin="miter" fill="none" stroke="#0000ff" d="M0 22.67752C2.83484 25.51193 2.83484 31.18166 5.66927 28.3468 28.3468 56.69362 28.3468-28.3468 43.93764 49.6069 51.02432-11.9056 59.52846 53.85875 60.94545-34.01608 73.70186-36.85092 90.7097-31.18166 107.71794 24.09494 110.55237 25.51193 110.55237 22.67752 127.56062 9.92155 130.39548 11.33855 130.39548 8.50412 170.08086-14.17339"/>
<use data-text="x" xlink:href="#font_2_4" transform="matrix(5.97778,0,0,-5.9778988,8.162998,65.71743)"/>
<use data-text="0" xlink:href="#font_3_1" transform="matrix(4.9814498,0,0,-4.981549,12.335125,66.869487)"/>
<use data-text="x" xlink:href="#font_2_4" transform="matrix(5.97778,0,0,-5.9778988,30.84068,65.71743)"/>
<use data-text="1" xlink:href="#font_3_2" transform="matrix(4.9814498,0,0,-4.981549,35.012807,66.869487)"/>
<use data-text="x" xlink:href="#font_2_4" transform="matrix(5.97778,0,0,-5.9778988,62.023614,65.71743)"/>
<use data-text="2" xlink:href="#font_3_3" transform="matrix(4.9814498,0,0,-4.981549,66.19574,66.869487)"/>
<use data-text="x" xlink:href="#font_2_4" transform="matrix(5.97778,0,0,-5.9778988,104.54489,65.71743)"/>
<use data-text="3" xlink:href="#font_3_4" transform="matrix(4.9814498,0,0,-4.981549,108.717029,66.869487)"/>
<use data-text="x" xlink:href="#font_2_4" transform="matrix(5.97778,0,0,-5.9778988,127.22258,65.71743)"/>
<use data-text="4" xlink:href="#font_3_5" transform="matrix(4.9814498,0,0,-4.981549,131.3947,66.869487)"/>
<use data-text="x" xlink:href="#font_2_4" transform="matrix(5.97778,0,0,-5.9778988,169.74485,65.71743)"/>
<use data-text="5" xlink:href="#font_3_6" transform="matrix(4.9814498,0,0,-4.981549,173.91696,66.869487)"/>
<use data-text="x" xlink:href="#font_2_4" transform="matrix(5.97778,0,0,-5.9778988,178.24912,65.71743)"/>
<use data-text="6" xlink:href="#font_3_7" transform="matrix(4.9814498,0,0,-4.981549,182.42124,66.869487)"/>
</svg>
