<svg xmlns="http://www.w3.org/2000/svg" xmlns:xlink="http://www.w3.org/1999/xlink" version="1.1" width="145" height="144" viewBox="0 0 145 144">
<defs>
<path id="font_1_1" d="M.5629883 .39352418C.5279999 .38352967 .519989 .3545227 .519989 .33952333 .519989 .30752564 .54599 .30052186 .55999758 .30052186 .58898928 .30052186 .6179962 .32452394 .6179962 .3635254 .6179962 .41740418 .5589905 .44140626 .5079956 .44140626 .44198609 .44140626 .4019928 .3905182 .3909912 .371521 .37799073 .39649964 .33999635 .44140626 .2649994 .44140626 .1499939 .44140626 .08198547 .32252503 .08198547 .28749085 .08198547 .2824707 .085998538 .27345277 .099990848 .27345277 .11399841 .27345277 .116989139 .27946473 .11999512 .28848268 .14498902 .3695221 .21299744 .4084015 .2619934 .4084015 .31098939 .4084015 .32598878 .37652589 .32598878 .34352113 .32598878 .3315277 .32598878 .32252503 .31799317 .29148866 .29499818 .19825745 .272995 .10707092 .2679901 .095077518 .25299073 .05708313 .21699524 .023223877 .1749878 .023223877 .16899109 .023223877 .14099121 .023223877 .117996219 .038085939 .15699768 .051071168 .16099549 .08407593 .16099549 .09207153 .16099549 .11807251 .14099121 .13108826 .12098694 .13108826 .09298706 .13108826 .06298828 .10908508 .06298828 .06808472 .06298828 .011230469 .12599182-.009765625 .17298889-.009765625 .22999573-.009765625 .2709961 .029159546 .2899933 .060073854 .30999757 .018234253 .35798646-.009765625 .4149933-.009765625 .5329895-.009765625 .598999 .111083988 .598999 .14411927 .598999 .14611817 .59799197 .15815735 .5799866 .15815735 .56599429 .15815735 .56399539 .1511383 .5609894 .1421051 .5319977 .05508423 .46099855 .023223877 .4189911 .023223877 .3809967 .023223877 .35398866 .045074464 .35398866 .08708191 .35398866 .1060791 .35899354 .12808228 .36799623 .16316223L.3999939 .2935028C.4099884 .33251954 .4149933 .3505249 .43598939 .37452699 .44999696 .38952638 .47399903 .4084015 .5059967 .4084015 .5109863 .4084015 .54100039 .4084015 .5629883 .39352418Z"/>
<path id="font_1_2" d="M.59599307 .38438417C.59799197 .39138795 .598999 .395401 .598999 .39839173 .598999 .4104004 .58999636 .43139649 .5629883 .43139649 .54599 .43139649 .5289917 .4203949 .5219879 .4064026 .5179901 .3993988 .5109863 .3683777 .5059967 .3493805L.4850006 .26634217 .45399476 .14128113C.44699098 .11326599 .44299317 .09725952 .40299989 .059249879 .3919983 .049240114 .3600006 .023223877 .31698609 .023223877 .24299622 .023223877 .24299622 .088256839 .24299622 .10626221 .24299622 .15028382 .25498963 .19529724 .29899598 .3053589 .30899049 .32936097 .31199647 .33636476 .31199647 .35437013 .31199647 .4104004 .2619934 .44140626 .21199036 .44140626 .10998535 .44140626 .06098938 .3093567 .06098938 .28733827 .06098938 .28234864 .06498718 .27334596 .07899475 .27334596 .09298706 .27334596 .09599304 .27934266 .09899902 .28834535 .1269989 .38539125 .17999268 .4084015 .20799256 .4084015 .22799683 .4084015 .23498535 .395401 .23498535 .37239076 .23498535 .3513794 .22200012 .3173523 .21099854 .29034425 .17599488 .20230103 .1639862 .15628052 .1639862 .120269779 .1639862 .025222779 .23498535-.009765625 .31298829-.009765625 .32699586-.009765625 .37399293-.009765625 .4269867 .036239625 .4139862-.01878357 .40499879-.05781555 .35699464-.109817508 .33898927-.12980652 .2939911-.1710968 .23399353-.1710968 .22499085-.1710968 .18199158-.17008972 .15899658-.14382935 .20298767-.13581848 .20899964-.09681702 .20899964-.08781433 .20899964-.060806276 .18699646-.049804689 .16799927-.049804689 .14299011-.049804689 .10998535-.06980896 .10998535-.11581421 .10998535-.16403198 .15699768-.20410156 .23498535-.20410156 .34098817-.20410156 .46899415-.12580872 .5-.00077819827L.59599307 .38438417Z"/>
<path id="font_2_1" d="M.6309967 .31825257C.6309967 .46221925 .60598757 .6582031 .34599305 .6582031 .084991458 .6582031 .06098938 .46022035 .06098938 .31825257 .06098938 .17428589 .08699036-.013671875 .34599305-.013671875 .60598757-.013671875 .6309967 .17628479 .6309967 .31825257M.34599305 .037322999C.31199647 .037322999 .23098755 .047317506 .21499634 .13929749 .20498657 .19328308 .20498657 .26327516 .20498657 .33125306 .20498657 .39424134 .20498657 .47322084 .21598816 .5202179 .23498535 .5941925 .30499269 .607193 .34599305 .607193 .38198854 .607193 .46099855 .5971985 .47698976 .5132141 .4869995 .46122743 .4869995 .3972473 .4869995 .33125306 .4869995 .27026368 .4869995 .19328308 .47698976 .13929749 .45999146 .048324586 .38398744 .037322999 .34599305 .037322999Z"/>
<path id="font_2_2" d="M.42399598 .6221924C.42399598 .65219119 .4189911 .6582031 .3880005 .6582031H.37098695C.2889862 .59417727 .16299439 .59417727 .14099121 .59417727H.115997318V.5341797H.14099121C.16299439 .5341797 .22399903 .5361786 .2919922 .5561676V.05999756H.12298584V0C.17399597 .0039978029 .2999878 .0039978029 .35699464 .0039978029 .4119873 .0039978029 .5399933 .0039978029 .58898928 0V.05999756H.42399598V.6221924Z"/>
<path id="font_2_3" d="M.6159973 .2220459H.54499819C.54299929 .21003723 .5339966 .1459961 .5119934 .14299011 .49198915 .13899231 .44499208 .13899231 .41099549 .13899231H.272995C.2829895 .1459961 .30699159 .16200257 .31599427 .16900635 .48298646 .28208924 .46499635 .2600708 .5209961 .30110169 .57598879 .34213258 .6159973 .38916017 .6159973 .45819093 .6159973 .581192 .5009918 .6582031 .32699586 .6582031 .17098999 .6582031 .07598877 .6031952 .07598877 .5101929 .07598877 .45018006 .12399292 .42918397 .15499878 .42918397 .19299317 .42918397 .23498535 .45518495 .23498535 .5091858 .23498535 .53318789 .22599793 .55918887 .20199585 .57418826 .24198914 .5981903 .2889862 .5981903 .2999878 .5981903 .3999939 .5981903 .46299745 .53718569 .46299745 .45718385 .46299745 .37815858 .3999939 .31210328 .33699037 .26107789L.08999634 .06098938C.07598877 .049987794 .07598877 .04499817 .07598877 .024993897V0H.5799866L.6159973 .2220459Z"/>
<path id="font_2_4" d="M.2639923 .37425233C.24398804 .3732605 .23399353 .3672638 .23399353 .34825135 .23399353 .32226563 .24899292 .32226563 .2679901 .32226563H.32699586C.45599366 .32226563 .45999146 .22918701 .45999146 .18118286 .45999146 .1381836 .45700074 .0413208 .32998658 .0413208 .31399537 .0413208 .24499512 .0413208 .19198609 .076187137 .21199036 .08718872 .23199463 .111190799 .23199463 .14819336 .23199463 .19718933 .19599915 .23118592 .14898682 .23118592 .102996829 .23118592 .06498718 .20019531 .06498718 .14619446 .06498718 .04928589 .16499329-.013671875 .33399964-.013671875 .5499878-.013671875 .6269989 .093185428 .6269989 .18118286 .6269989 .24620056 .58099368 .32025147 .45498658 .3522644 .5219879 .3772583 .58898928 .4302063 .58898928 .51420596 .58898928 .59220889 .5049896 .6582031 .33699037 .6582031 .19198609 .6582031 .102996829 .59220889 .102996829 .50320437 .102996829 .45021058 .14299011 .4242096 .18099976 .4242096 .22099304 .4242096 .25898744 .45321656 .25898744 .5022125 .25898744 .5512085 .22099304 .57121279 .21299744 .57421877 .22898865 .58621218 .2709961 .6082001 .33198548 .6082001 .42099 .6082001 .43899537 .5622101 .43899537 .51620486 .43899537 .43721009 .38198854 .38024903 .32499696 .3772583L.2639923 .37425233Z"/>
<path id="font_2_5" d="M.6459961 .15483094V.21484375H.5279999V.6290283C.5279999 .6590271 .522995 .66503909 .49198915 .66503909H.45498658C.42799378 .66503909 .4269867 .6630249 .4139862 .6480255L.04598999 .21484375V.15483094H.3889923V.05999756H.2579956V0C.30699159 .0039978029 .4039917 .0039978029 .45700074 .0039978029 .5139923 .0039978029 .58999636 .0039978029 .6459961 0V.05999756H.5279999V.15483094H.6459961M.4039917 .54599V.21484375H.12298584L.4039917 .54599Z"/>
<path id="font_3_1" d="M.79599 .22436524C.81199648 .22436524 .83699038 .22436524 .83699038 .2503662 .83699038 .2763672 .81199648 .2763672 .79599 .2763672H.1659851C.1499939 .2763672 .125 .2763672 .125 .2503662 .125 .22436524 .1499939 .22436524 .1659851 .22436524H.79599Z"/>
<path id="font_4_2" d="M.2579956 .68333438C.2579956 .6843262 .2579956 .69433596 .24499512 .69433596 .22200012 .69433596 .14898682 .6863251 .12298584 .6843262 .114990238 .68333438 .10398865 .6823273 .10398865 .6633301 .10398865 .6523285 .11399841 .6523285 .1289978 .6523285 .1769867 .6523285 .17799378 .6433258 .17799378 .6353302L.1749878 .6153259 .04899597 .11526489C.04598999 .104263309 .04399109 .09725952 .04399109 .08125305 .04399109 .024246216 .08799744-.0107421879 .1349945-.0107421879 .16799927-.0107421879 .19299317 .009246826 .20999146 .04525757 .22799683 .08325195 .23999024 .14126587 .23999024 .14326477 .23999024 .15327454 .23098755 .15327454 .22799683 .15327454 .21798706 .15327454 .21699524 .14926148 .21398926 .13526917 .19699097 .070251468 .17799378 .011245728 .13798523 .011245728 .10798645 .011245728 .10798645 .043258668 .10798645 .057250978 .10798645 .08125305 .10899353 .086257938 .11399841 .10525513L.2579956 .68333438Z"/>
<path id="font_4_3" d="M.08799744 .059265138C.084991458 .044265748 .07899475 .021255494 .07899475 .01625061 .07899475-.0017547608 .09298706-.0107421879 .10798645-.0107421879 .11999512-.0107421879 .13798523-.002746582 .14498902 .01725769 .14698792 .021255494 .18099976 .15730286 .18499756 .17530823 .19299317 .20831299 .21099854 .27833558 .21699524 .30534364 .22099304 .31835938 .24899292 .36535646 .272995 .38734437 .2809906 .39434815 .30999757 .42037965 .35299684 .42037965 .3789978 .42037965 .3939972 .4083557 .394989 .4083557 .36499024 .40335084 .34298707 .37934876 .34298707 .35334779 .34298707 .33735658 .35398866 .31835938 .3809967 .31835938 .4079895 .31835938 .43598939 .34135438 .43598939 .37734986 .43598939 .41235353 .4039917 .4423828 .35299684 .4423828 .28799439 .4423828 .24398804 .39335633 .22499085 .36535646 .21699524 .4103546 .18099976 .4423828 .13398743 .4423828 .08799744 .4423828 .068984989 .40335084 .05999756 .38534547 .041992189 .35134889 .0289917 .29133607 .0289917 .28834535 .0289917 .27833558 .038986207 .27833558 .040985109 .27833558 .050994874 .27833558 .051986696 .27934266 .057998659 .30134584 .07499695 .37234498 .09498596 .42037965 .1309967 .42037965 .147995 .42037965 .1619873 .41235353 .1619873 .37435914 .1619873 .35334779 .15899658 .3423462 .1459961 .29034425L.08799744 .059265138Z"/>
<path id="font_4_1" d="M.375 .6136017C.3809967 .63760378 .38398744 .6476135 .40299989 .65060427 .4119873 .6516113 .44400025 .6516113 .46398927 .6516113 .5349884 .6516113 .6459961 .6516113 .6459961 .5525818 .6459961 .51856997 .6299896 .44955445 .59098818 .41055299 .5649872 .38453675 .5119934 .35253907 .42199708 .35253907H.30999757L.375 .6136017M.5189972 .33953858C.6199951 .3615265 .7389984 .43154908 .7389984 .5325775 .7389984 .61860659 .6489868 .6826172 .5179901 .6826172H.23298645C.21299744 .6826172 .20399475 .6826172 .20399475 .6626129 .20399475 .6516113 .21299744 .6516113 .23199463 .6516113 .23399353 .6516113 .25299073 .6516113 .269989 .6496124 .28799439 .6476135 .29699708 .64660647 .29699708 .63360598 .29699708 .62960818 .29599 .6266022 .29299928 .6145935L.15899658 .07752991C.14898682 .038528444 .14698792 .030532837 .067993167 .030532837 .049987794 .030532837 .040985109 .030532837 .040985109 .010528564 .040985109-.00047302247 .052993776-.00047302247 .054992677-.00047302247 .08299255-.00047302247 .15299988 .002532959 .18099976 .002532959 .20899964 .002532959 .27999879-.00047302247 .30799867-.00047302247 .31599427-.00047302247 .32798768-.00047302247 .32798768 .01953125 .32798768 .030532837 .31900025 .030532837 .2999878 .030532837 .2630005 .030532837 .23498535 .030532837 .23498535 .048538209 .23498535 .054534913 .23699951 .059524537 .23799134 .0655365L.3039856 .3305359H.4229889C.5139923 .3305359 .5319977 .27453614 .5319977 .23953247 .5319977 .22453308 .5239868 .19352722 .5179901 .17053223 .5109863 .14253235 .5019989 .105529788 .5019989 .08552551 .5019989-.022460938 .621994-.022460938 .6349945-.022460938 .7200012-.022460938 .7549896 .07853699 .7549896 .0925293 .7549896 .104537967 .74398806 .104537967 .7429962 .104537967 .73399356 .104537967 .7319946 .09753418 .7299957 .090530399 .7049866 .016525269 .6619873-.00047302247 .6389923-.00047302247 .60598757-.00047302247 .598999 .021530152 .598999 .060531618 .598999 .091537479 .6049957 .14253235 .60899356 .17453003 .61099246 .1885376 .61299136 .20753479 .61299136 .2215271 .61299136 .2985382 .54599 .3295288 .5189972 .33953858Z"/>
</defs>
<path transform="matrix(1.00003,0,0,-1.00006,15.897228,71.96925)" stroke-width=".19925" stroke-linecap="butt" stroke-miterlimit="10" stroke-linejoin="miter" fill="none" stroke="#cbcbcb" d="M-14.17339-56.69362H127.56062M-14.17339-28.3468H127.56062M-14.17339 0H127.56062M-14.17339 28.3468H127.56062M-14.17339 56.69362H127.56062M0-70.867V70.867M28.3468-70.867V70.867M56.69362-70.867V70.867M85.04042-70.867V70.867M113.38724-70.867V70.867M127.56062 70.867"/>
<path transform="matrix(1.00003,0,0,-1.00006,15.897228,71.96925)" stroke-width="1.19553" stroke-linecap="butt" stroke-miterlimit="10" stroke-linejoin="miter" fill="none" stroke="#000000" d="M0 0H112.43082"/>
<path transform="matrix(1.00003,0,0,-1.00006,128.33142,71.96925)" stroke-width=".9564" stroke-linecap="round" stroke-linejoin="round" fill="none" stroke="#000000" d="M-1.91284 2.55046C-1.75343 1.59402 0 .15938 .4782 0 0-.15938-1.75343-1.59402-1.91284-2.55046"/>
<use data-text="x" xlink:href="#font_1_1" transform="matrix(5.97778,0,0,-5.9779589,133.87078,79.12569)"/>
<path transform="matrix(1.00003,0,0,-1.00006,15.897228,71.96925)" stroke-width="1.19553" stroke-linecap="butt" stroke-miterlimit="10" stroke-linejoin="miter" fill="none" stroke="#000000" d="M0-56.69362V55.7372"/>
<path transform="matrix(0,-1.00006,-1.00003,-0,15.897228,16.22871)" stroke-width=".9564" stroke-linecap="round" stroke-linejoin="round" fill="none" stroke="#000000" d="M-1.91284 2.55046C-1.75343 1.59402 0 .15938 .4782 0 0-.15938-1.75343-1.59402-1.91284-2.55046"/>
<use data-text="y" xlink:href="#font_1_2" transform="matrix(5.97778,0,0,-5.9779589,7.3159716,9.527512)"/>
<path transform="matrix(1.00003,0,0,-1.00006,15.897228,71.96925)" stroke-width=".3985" stroke-linecap="butt" stroke-miterlimit="10" stroke-linejoin="miter" fill="none" stroke="#000000" d="M0 .99628V-.99628"/>
<use data-text="0" xlink:href="#font_2_1" transform="matrix(5.97778,0,0,-5.9779589,13.824165,81.00179)"/>
<path transform="matrix(1.00003,0,0,-1.00006,15.897228,71.96925)" stroke-width=".3985" stroke-linecap="butt" stroke-miterlimit="10" stroke-linejoin="miter" fill="none" stroke="#000000" d="M28.3468 .99628V-.99628"/>
<use data-text="1" xlink:href="#font_2_2" transform="matrix(5.97778,0,0,-5.9779589,42.17202,81.00179)"/>
<path transform="matrix(1.00003,0,0,-1.00006,15.897228,71.96925)" stroke-width=".3985" stroke-linecap="butt" stroke-miterlimit="10" stroke-linejoin="miter" fill="none" stroke="#000000" d="M56.69363 .99628V-.99628"/>
<use data-text="2" xlink:href="#font_2_3" transform="matrix(5.97778,0,0,-5.9779589,70.51987,81.00179)"/>
<path transform="matrix(1.00003,0,0,-1.00006,15.897228,71.96925)" stroke-width=".3985" stroke-linecap="butt" stroke-miterlimit="10" stroke-linejoin="miter" fill="none" stroke="#000000" d="M85.04045 .99628V-.99628"/>
<use data-text="3" xlink:href="#font_2_4" transform="matrix(5.97778,0,0,-5.9779589,98.86772,81.00179)"/>
<path transform="matrix(1.00003,0,0,-1.00006,15.897228,71.96925)" stroke-width=".3985" stroke-linecap="butt" stroke-miterlimit="10" stroke-linejoin="miter" fill="none" stroke="#000000" d="M113.38728 .99628V-.99628"/>
<use data-text="4" xlink:href="#font_2_5" transform="matrix(5.97778,0,0,-5.9779589,127.21457,81.00179)"/>
<path transform="matrix(1.00003,0,0,-1.00006,15.897228,71.96925)" stroke-width=".3985" stroke-linecap="butt" stroke-miterlimit="10" stroke-linejoin="miter" fill="none" stroke="#000000" d="M.99628-56.69363H-.99628"/>
<use data-text="&#x2212;" xlink:href="#font_3_1" transform="matrix(5.97778,0,0,-5.9779589,.8147774,130.17775)"/>
<use data-text="2" xlink:href="#font_2_3" transform="matrix(5.97778,0,0,-5.9779589,6.5709497,130.17775)"/>
<path transform="matrix(1.00003,0,0,-1.00006,15.897228,71.96925)" stroke-width=".3985" stroke-linecap="butt" stroke-miterlimit="10" stroke-linejoin="miter" fill="none" stroke="#000000" d="M.99628-28.3468H-.99628"/>
<use data-text="&#x2212;" xlink:href="#font_3_1" transform="matrix(5.97778,0,0,-5.9779589,.8147774,101.82904)"/>
<use data-text="1" xlink:href="#font_2_2" transform="matrix(5.97778,0,0,-5.9779589,6.5709497,101.82904)"/>
<path transform="matrix(1.00003,0,0,-1.00006,15.897228,71.96925)" stroke-width=".3985" stroke-linecap="butt" stroke-miterlimit="10" stroke-linejoin="miter" fill="none" stroke="#000000" d="M.99628 0H-.99628"/>
<use data-text="0" xlink:href="#font_2_1" transform="matrix(5.97778,0,0,-5.9779589,6.5709497,73.89537)"/>
<path transform="matrix(1.00003,0,0,-1.00006,15.897228,71.96925)" stroke-width=".3985" stroke-linecap="butt" stroke-miterlimit="10" stroke-linejoin="miter" fill="none" stroke="#000000" d="M.99628 28.3468H-.99628"/>
<use data-text="1" xlink:href="#font_2_2" transform="matrix(5.97778,0,0,-5.9779589,6.5709497,45.54667)"/>
<path transform="matrix(1.00003,0,0,-1.00006,15.897228,71.96925)" stroke-width=".3985" stroke-linecap="butt" stroke-miterlimit="10" stroke-linejoin="miter" fill="none" stroke="#000000" d="M.99628 56.69363H-.99628"/>
<use data-text="2" xlink:href="#font_2_3" transform="matrix(5.97778,0,0,-5.9779589,6.5709497,17.19897)"/>
<path transform="matrix(1.00003,0,0,-1.00006,15.897228,71.96925)" stroke-width=".3985" stroke-linecap="butt" stroke-miterlimit="10" stroke-linejoin="miter" fill="none" stroke="#000000" d="M0 0 113.38724 56.69362V-56.69362L0 0"/>
<path transform="matrix(1.00003,0,0,-1.00006,15.897228,71.96925)" d="M56.69362 28.3468 85.04042 42.5202V-42.5202L56.69362-28.3468Z" fill="#0000ff" fill-opacity=".2"/>
<path transform="matrix(1.00003,0,0,-1.00006,15.897228,71.96925)" stroke-width=".3985" stroke-linecap="butt" stroke-miterlimit="10" stroke-linejoin="miter" fill="none" stroke="#ff0000" d="M56.69362 28.54605C56.41966 31.75047 58.00818 34.77228 61.5503 36.54329L61.55031 36.5433C65.09244 38.3143 66.68097 41.33609 66.407 44.54053 68.8061 42.39862 72.17665 41.85626 75.71877 43.62729H75.71878C79.26091 45.3983 82.63145 44.85594 85.03056 42.71404"/>
<use data-text="l" xlink:href="#font_4_2" transform="matrix(9.962899,0,0,-9.963197,77.42908,25.619473)" fill="#ff0000"/>
<path transform="matrix(1.00003,0,0,-1.00006,15.897228,71.96925)" stroke-width=".3985" stroke-linecap="butt" stroke-miterlimit="10" stroke-linejoin="miter" fill="none" stroke="#000000" d="M56.69362 0C53.70476 1.06294 51.71223 3.54333 51.71223 7.08669V7.0867C51.71223 10.63005 49.71971 13.11044 46.73085 14.17339 49.71971 15.23634 51.71223 17.71674 51.71223 21.2601 51.71223 24.80345 53.70476 27.28384 56.69362 28.3468"/>
<use data-text="r" xlink:href="#font_4_3" transform="matrix(9.962899,0,0,-9.963197,51.781309,59.939535)"/>
<path transform="matrix(1.00003,0,0,-1.00006,15.897228,71.96925)" stroke-width=".3985" stroke-linecap="butt" stroke-miterlimit="10" stroke-linejoin="miter" fill="none" stroke="#000000" d="M85.04042 0C88.02928 1.49435 90.0218 4.98138 90.0218 9.96277V11.29733C90.0218 16.27872 92.01433 19.76575 95.00319 21.2601 92.01433 22.75446 90.0218 26.24149 90.0218 31.22287V32.55743C90.0218 37.53882 88.02928 41.02585 85.04042 42.5202"/>
<use data-text="R" xlink:href="#font_4_1" transform="matrix(9.962899,0,0,-9.963197,115.54521,54.112184)"/>
</svg>
