<svg xmlns="http://www.w3.org/2000/svg" xmlns:xlink="http://www.w3.org/1999/xlink" version="1.1" width="181" height="286" viewBox="0 0 181 286">
<defs>
<path id="font_1_1" d="M.5629883 .39352418C.5279999 .38352967 .519989 .3545227 .519989 .33952333 .519989 .30752564 .54599 .30052186 .55999758 .30052186 .58898928 .30052186 .6179962 .32452394 .6179962 .3635254 .6179962 .41740418 .5589905 .44140626 .5079956 .44140626 .44198609 .44140626 .4019928 .3905182 .3909912 .371521 .37799073 .39649964 .33999635 .44140626 .2649994 .44140626 .1499939 .44140626 .08198547 .32252503 .08198547 .28749085 .08198547 .2824707 .085998538 .27345277 .099990848 .27345277 .11399841 .27345277 .116989139 .27946473 .11999512 .28848268 .14498902 .3695221 .21299744 .4084015 .2619934 .4084015 .31098939 .4084015 .32598878 .37652589 .32598878 .34352113 .32598878 .3315277 .32598878 .32252503 .31799317 .29148866 .29499818 .19825745 .272995 .10707092 .2679901 .095077518 .25299073 .05708313 .21699524 .023223877 .1749878 .023223877 .16899109 .023223877 .14099121 .023223877 .117996219 .038085939 .15699768 .051071168 .16099549 .08407593 .16099549 .09207153 .16099549 .11807251 .14099121 .13108826 .12098694 .13108826 .09298706 .13108826 .06298828 .10908508 .06298828 .06808472 .06298828 .011230469 .12599182-.009765625 .17298889-.009765625 .22999573-.009765625 .2709961 .029159546 .2899933 .060073854 .30999757 .018234253 .35798646-.009765625 .4149933-.009765625 .5329895-.009765625 .598999 .111083988 .598999 .14411927 .598999 .14611817 .59799197 .15815735 .5799866 .15815735 .56599429 .15815735 .56399539 .1511383 .5609894 .1421051 .5319977 .05508423 .46099855 .023223877 .4189911 .023223877 .3809967 .023223877 .35398866 .045074464 .35398866 .08708191 .35398866 .1060791 .35899354 .12808228 .36799623 .16316223L.3999939 .2935028C.4099884 .33251954 .4149933 .3505249 .43598939 .37452699 .44999696 .38952638 .47399903 .4084015 .5059967 .4084015 .5109863 .4084015 .54100039 .4084015 .5629883 .39352418Z"/>
<path id="font_2_1" d="M.3959961 .6244507C.3959961 .64845278 .37799073 .66744998 .35198976 .66744998 .32398988 .66744998 .29100038 .6404419 .29100038 .6074524 .29100038 .5794525 .31298829 .5644531 .33399964 .5644531 .36698915 .5644531 .3959961 .5944519 .3959961 .6244507M.44299317 .14428711C.44299317 .15829468 .42599488 .15829468 .42199708 .15829468 .40499879 .15829468 .4039917 .15429688 .397995 .13528443 .3809967 .08027649 .33599855 .023254395 .28599549 .023254395 .2630005 .023254395 .2559967 .039260866 .2559967 .061264039 .2559967 .08227539 .26098634 .09327698 .2689972 .11227417 .2769928 .1322937 .2849884 .15229798 .2899933 .16629029 .2939911 .17530823 .33299256 .2683258 .34700013 .30433656 .35499574 .32435609 .36099244 .33735658 .36099244 .35435487 .36099244 .40237428 .31498719 .4423828 .2519989 .4423828 .14698792 .4423828 .09098816 .3143463 .09098816 .28733827 .09098816 .2733307 .10699463 .2733307 .11199951 .2733307 .1289978 .2733307 .12998963 .27833558 .1349945 .29333497 .15699768 .36436463 .20498657 .40837098 .24798584 .40837098 .2669983 .40837098 .27799989 .39736939 .27799989 .37036134 .27799989 .36636354 .27799989 .35336305 .27198792 .3343506 .2649994 .3163452 .21998596 .20930481 .20599365 .17530823 .19898987 .15829468 .19898987 .15629578 .18399048 .122283939 .1789856 .10827637 .17298889 .0942688 .17298889 .07727051 .17298889 .025253296 .22200012-.0107421879 .28199769-.0107421879 .3869934-.0107421879 .44299317 .119277957 .44299317 .14428711Z"/>
<path id="font_3_1" d="M.44198609 .69781497C.43499757 .7108154 .43299867 .7158203 .41600038 .7158203 .39898683 .7158203 .39698792 .7108154 .3899994 .69781497L.051986696 .019989014C.04699707 .010986328 .04699707 .008987427 .04699707 .0079956059 .04699707 0 .052993776 0 .068984989 0H.7630005C.7789917 0 .7849884 0 .7849884 .0079956059 .7849884 .008987427 .7849884 .010986328 .7799988 .019989014L.44198609 .69781497M.38398744 .61582949 .6529999 .07598877H.11399841L.38398744 .61582949Z"/>
<path id="font_4_1" d="M.33399964 .30233766C.33999635 .32835389 .36299134 .42037965 .43299867 .42037965 .43798829 .42037965 .46199037 .42037965 .48298646 .40734864 .45498658 .402359 .43499757 .37734986 .43499757 .35334779 .43499757 .33735658 .44599916 .31835938 .47299195 .31835938 .49499513 .31835938 .5269928 .3363495 .5269928 .37635804 .5269928 .42837525 .46798707 .4423828 .43399049 .4423828 .37599183 .4423828 .34098817 .38935853 .32899476 .36634828 .3039856 .43237306 .25 .4423828 .22099304 .4423828 .116989139 .4423828 .05999756 .3133545 .05999756 .28834535 .05999756 .27833558 .069992069 .27833558 .07199097 .27833558 .07998657 .27833558 .08299255 .28033448 .084991458 .28933717 .11898804 .39535523 .18499756 .42037965 .21899414 .42037965 .23799134 .42037965 .272995 .4113617 .272995 .35334779 .272995 .32235719 .2559967 .25532533 .21899414 .11528015 .20298767 .053268434 .16799927 .011245728 .12399292 .011245728 .117996219 .011245728 .09498596 .011245728 .07398987 .024276734 .09899902 .029266358 .12098694 .05027771 .12098694 .07827759 .12098694 .105270389 .09899902 .11328125 .083999637 .11328125 .053985597 .11328125 .0289917 .08728027 .0289917 .055267335 .0289917 .009246826 .07899475-.0107421879 .12298584-.0107421879 .18899536-.0107421879 .22499085 .059280397 .22799683 .0652771 .23999024 .028274537 .27598573-.0107421879 .33599855-.0107421879 .43899537-.0107421879 .49598695 .118270877 .49598695 .14328003 .49598695 .1532898 .4869995 .1532898 .48399354 .1532898 .47499085 .1532898 .47299195 .14929199 .47099305 .14228821 .43798829 .03527832 .36999513 .011245728 .33799745 .011245728 .29899598 .011245728 .2829895 .043273927 .2829895 .07727051 .2829895 .09927368 .2889862 .121276859 .2999878 .16529846L.33399964 .30233766Z"/>
</defs>
<path transform="matrix(1.00005,0,0,-1.00006,29.576527,142.94052)" stroke-width=".79701" stroke-linecap="butt" stroke-miterlimit="10" stroke-linejoin="miter" fill="none" stroke="#000000" d="M-28.3468 0H141.02667"/>
<path transform="matrix(1.00005,0,0,-1.00006,170.61025,142.94052)" stroke-width=".6376" stroke-linecap="round" stroke-linejoin="round" fill="none" stroke="#000000" d="M-1.55415 2.0722C-1.42464 1.29512 0 .1295 .38852 0 0-.1295-1.42464-1.29512-1.55415-2.0722"/>
<use data-text="x" xlink:href="#font_1_1" transform="matrix(5.9778988,0,0,-5.9779589,175.70082,149.89794)"/>
<path transform="matrix(1.00005,0,0,-1.00006,29.576527,142.94052)" stroke-width=".3985" stroke-linecap="butt" stroke-miterlimit="10" stroke-linejoin="miter" fill="none" stroke="#000000" d="M0 28.3468 1.14491 38.37735 2.28984 47.86205 3.43477 56.81384 4.5797 65.24574 5.72462 73.16681 6.86955 80.58916 8.01448 87.52362 9.15941 93.9814 10.30434 99.97466 11.44926 105.51244 12.5942 110.6086 13.73912 115.27266 14.88405 119.5163 16.02898 123.35204 17.1739 126.78769 18.31883 129.83751 19.46378 132.5119 20.60869 134.82164 21.75362 136.77759 22.89854 138.39267 24.04347 139.67559 25.18842 140.64015 26.33333 141.29587 27.47826 141.65445 28.62318 141.72624 29.76811 141.52468 30.91306 141.05799 32.05797 140.3404 33.2029 139.38103 34.34782 138.19156 35.49275 136.7845 36.63768 135.16854 37.78261 133.35707 38.92755 131.36048 40.07246 129.18999 41.21739 126.85646 42.36232 124.3711 43.50725 121.74644 44.65219 118.9925 45.7971 116.12042 46.94203 113.14154 48.08696 110.06706 49.23189 106.9091 50.37683 103.67719 51.52174 100.38426 52.66667 97.04031 53.8116 93.65701 54.95653 90.24513 56.10147 86.81685 57.24638 83.38293 58.39133 79.95334 59.53624 76.54105 60.68117 73.15688 61.82611 69.81119 62.97102 66.51654 64.11597 63.28203 65.26088 60.12103 66.4058 57.04396 67.55075 54.06204 68.69566 51.1861 69.8406 48.42781 70.98552 45.79753 72.13045 43.30785 73.27538 40.96869 74.4203 38.79303 75.56525 36.7895 76.71016 34.97156 77.8551 33.34953 79.00002 31.93427 80.14494 30.737 81.28989 29.76985 82.4348 29.04361 83.57974 28.5687 84.72466 28.35716 85.86958 28.41989 87.01453 28.76895 88.15944 29.41386 89.30438 30.36761 90.4493 31.63971 91.59422 33.24269 92.73917 35.1874 93.88408 37.48459 95.02902 40.146 96.17393 43.18286 97.31888 46.60596 98.4638 50.42656 99.60872 54.65593 100.75366 59.30527 101.89857 64.3863 103.04352 69.9098 104.18845 75.88661 105.33336 82.3284 106.4783 89.24641 107.62321 96.65189 108.76816 104.55566 109.91307 112.96896 111.058 121.90347 112.20294 131.36998 113.34785 141.37979"/>
<path transform="matrix(1.00005,0,0,-1.00006,29.576527,142.94052)" stroke-width=".3985" stroke-linecap="butt" stroke-miterlimit="10" stroke-linejoin="miter" fill="none" stroke="#000000" d="M0-141.73404 1.14491-140.58911 2.28984-139.44419 3.43477-138.29924 4.5797-137.15433 5.72462-136.00939 6.86955-134.86447 8.01448-133.71955 9.15941-132.5746 10.30434-131.42969 11.44926-130.28475 12.5942-129.13983 13.73912-127.9949 14.88405-126.84996 16.02898-125.70505 17.1739-124.5601 18.31883-123.41519 19.46378-122.27025 20.60869-121.12532 21.75362-119.98041 22.89854-118.83546 24.04347-117.69055 25.18842-116.54561 26.33333-115.4007 27.47826-114.25577 28.62318-113.11082 29.76811-111.96591 30.91306-110.82097 32.05797-109.67606 33.2029-108.53113 34.34782-107.38618 35.49275-106.24127 36.63768-105.09633 37.78261-103.95142 38.92755-102.80647 40.07246-101.66154 41.21739-100.51663 42.36232-99.37169 43.50725-98.22678 44.65219-97.08183 45.7971-95.9369 46.94203-94.79199 48.08696-93.64705 49.23189-92.50214 50.37683-91.3572 51.52174-90.21227 52.66667-89.06735 53.8116-87.92241 54.95653-86.7775 56.10147-85.63255 57.24638-84.48763 58.39133-83.3427 59.53624-82.19777 60.68117-81.05286 61.82611-79.90791 62.97102-78.763 64.11597-77.61806 65.26088-76.47313 66.4058-75.32822 67.55075-74.18327 68.69566-73.03836 69.8406-71.89342 70.98552-70.74849 72.13045-69.60358 73.27538-68.45863 74.4203-67.31372 75.56525-66.16878 76.71016-65.02385 77.8551-63.87892 79.00002-62.734 80.14494-61.58908 81.28989-60.44414 82.4348-59.29921 83.57974-58.15428 84.72466-57.00935 85.86958-55.86444 87.01453-54.7195 88.15944-53.57457 89.30438-52.42964 90.4493-51.28471 91.59422-50.1398 92.73917-48.99486 93.88408-47.84993 95.02902-46.705 96.17393-45.56007 97.31888-44.41515 98.4638-43.27022 99.60872-42.1253 100.75366-40.98036 101.89857-39.83543 103.04352-38.6905 104.18845-37.54558 105.33336-36.40067 106.4783-35.25572 107.62321-34.1108 108.76816-32.96587 109.91307-31.82094 111.058-30.67603 112.20294-29.53108 113.34785-28.38615"/>
<path transform="matrix(1.00005,0,0,-1.00006,29.576527,142.94052)" stroke-width=".3985" stroke-linecap="butt" stroke-miterlimit="10" stroke-linejoin="miter" fill="none" stroke="#000000" d="M0-141.73404V28.3468"/>
<path transform="matrix(1.00005,0,0,-1.00006,29.576527,142.94052)" stroke-width=".3985" stroke-linecap="butt" stroke-miterlimit="10" stroke-linejoin="miter" fill="none" stroke="#000000" d="M113.38724-28.3468V141.73404"/>
<path transform="matrix(1.00005,0,0,-1.00006,29.576527,142.94052)" stroke-width=".3985" stroke-linecap="butt" stroke-miterlimit="10" stroke-linejoin="miter" fill="none" stroke="#0000ff" d="M56.69362-85.04042V85.04042H62.36288V-85.04042H56.69362"/>
<g>
<path transform="matrix(1.00005,0,0,-1.00006,29.576527,142.94052)" d="M56.69362-85.04042V85.04042H62.36288V-85.04042ZM62.36288 85.04042" fill="#0000ff" fill-opacity=".2"/>
<path transform="matrix(1.00005,0,0,-1.00006,29.576527,142.94052)" stroke-width=".3985" stroke-linecap="butt" stroke-miterlimit="10" stroke-linejoin="miter" fill="none" stroke="#000000" stroke-opacity=".2" d="M56.69362-85.04042V85.04042H62.36288V-85.04042ZM62.36288 85.04042"/>
</g>
<path transform="matrix(1.00005,0,0,-1.00006,29.576527,142.94052)" stroke-width=".3985" stroke-linecap="butt" stroke-miterlimit="10" stroke-linejoin="miter" fill="none" stroke="#000000" d="M56.69362-2.83484V2.83484"/>
<use data-text="x" xlink:href="#font_1_1" transform="matrix(5.9778988,0,0,-5.9779589,74.76079,137.4952)"/>
<use data-text="i" xlink:href="#font_2_1" transform="matrix(4.981549,0,0,-4.9815986,78.933,138.75627)"/>
<path transform="matrix(1.00005,0,0,-1.00006,29.576527,142.94052)" stroke-width=".3985" stroke-linecap="butt" stroke-miterlimit="10" stroke-linejoin="miter" fill="none" stroke="#000000" d="M56.69362-85.43892C56.90619-88.42778 57.40227-90.4203 58.11092-90.4203H58.11093C58.8196-90.4203 59.31566-92.41284 59.52824-95.40169 59.74083-92.41284 60.23691-90.4203 60.94556-90.4203H60.94557C61.65424-90.4203 62.1503-88.42778 62.36288-85.43892"/>
<use data-text="&#x2206;" xlink:href="#font_3_1" transform="matrix(9.963098,0,0,-9.963197,82.109149,245.9627)"/>
<use data-text="x" xlink:href="#font_4_1" transform="matrix(9.963098,0,0,-9.963197,90.41156,245.9627)"/>
</svg>
