<svg xmlns="http://www.w3.org/2000/svg" xmlns:xlink="http://www.w3.org/1999/xlink" version="1.1" width="207" height="182" viewBox="0 0 207 182">
<defs>
<path id="font_1_1" d="M.6589966 .23046875C.6759949 .23046875 .69400027 .23046875 .69400027 .25045777 .69400027 .27046205 .6759949 .27046205 .6589966 .27046205H.117996219C.100997928 .27046205 .08299255 .27046205 .08299255 .25045777 .08299255 .23046875 .100997928 .23046875 .117996219 .23046875H.6589966Z"/>
<path id="font_2_4" d="M.36099244 .6508026C.36099244 .6697998 .36099244 .6748047 .34700013 .6748047 .33898927 .6748047 .33599855 .6748047 .32798768 .662796L.026992798 .19598389V.16699219H.2899933V.07598877C.2899933 .038986207 .28799439 .0289917 .21499634 .0289917H.19499207V0C.21798706 .0019989014 .29699708 .0019989014 .32499696 .0019989014 .35299684 .0019989014 .43299867 .0019989014 .45599366 0V.0289917H.43598939C.3639984 .0289917 .36099244 .038986207 .36099244 .07598877V.16699219H.46199037V.19598389H.36099244V.6508026M.29499818 .5728302V.19598389H.051986696L.29499818 .5728302Z"/>
<path id="font_2_3" d="M.18399048 .35888673C.16699219 .35787965 .16299439 .35688783 .16299439 .34788514 .16299439 .33789063 .16799927 .33789063 .18598938 .33789063H.23199463C.31698609 .33789063 .35499574 .267807 .35499574 .17172241 .35499574 .04058838 .2869873 .005508423 .23799134 .005508423 .18998719 .005508423 .10798645 .028564454 .07899475 .09472656 .11099243 .08970642 .13999939 .10771179 .13999939 .14372254 .13999939 .17271424 .11898804 .1927185 .09098816 .1927185 .066986087 .1927185 .040985109 .1787262 .040985109 .14071656 .040985109 .051620485 .12998963-.021484375 .24099732-.021484375 .3600006-.021484375 .44799806 .06965637 .44799806 .17071533 .44799806 .26280213 .37399293 .33488465 .27799989 .35188294 .36499024 .3769226 .42099 .45011903 .42099 .5282135 .42099 .6071167 .33898927 .66503909 .24198914 .66503909 .14199829 .66503909 .067993167 .604126 .067993167 .5312042 .067993167 .49121095 .09899902 .48321534 .11399841 .48321534 .1349945 .48321534 .15899658 .49821473 .15899658 .5282135 .15899658 .5602112 .1349945 .57421877 .11299133 .57421877 .10699463 .57421877 .10499573 .57421877 .101989749 .57321169 .13999939 .641037 .23399353 .641037 .23899842 .641037 .27198792 .641037 .33699037 .6260681 .33699037 .5282135 .33699037 .5092163 .33399964 .453125 .30499269 .41001893 .2749939 .3658905 .24099732 .36288453 .21398926 .36187745L.18399048 .35888673Z"/>
<path id="font_2_2" d="M.43998719 .16790772H.41799928C.4149933 .15092469 .40699769 .09597778 .39698792 .07998657 .3899994 .070999149 .33299256 .070999149 .30299378 .070999149H.117996219C.14498902 .09397888 .20599365 .15792847 .23199463 .18190003 .38398744 .3217926 .43998719 .37374879 .43998719 .47270204 .43998719 .5878906 .34899903 .66503909 .23298645 .66503909 .116989139 .66503909 .04899597 .5658264 .04899597 .4797058 .04899597 .42871095 .09298706 .42871095 .09599304 .42871095 .116989139 .42871095 .14299011 .44371034 .14299011 .475708 .14299011 .5037079 .12399292 .5227051 .09599304 .5227051 .08699036 .5227051 .084991458 .5227051 .08198547 .521698 .100997928 .5899048 .15499878 .6360321 .21998596 .6360321 .30499269 .6360321 .35699464 .56481936 .35699464 .47270204 .35699464 .3877411 .30799867 .313797 .25099183 .24984741L.04899597 .023986817V0H.4139862L.43998719 .16790772Z"/>
<path id="font_2_1" d="M.28799439 .64105227C.28799439 .664032 .28799439 .66503909 .2679901 .66503909 .24398804 .6380615 .19400025 .6012573 .09098816 .6012573V.5722656C.11399841 .5722656 .1639862 .5722656 .21899414 .59825137V.07701111C.21899414 .041000368 .21598816 .0289917 .12799073 .0289917H.09700012V0C.12399292 .0019989014 .22099304 .0019989014 .2539978 .0019989014 .2869873 .0019989014 .3829956 .0019989014 .4099884 0V.0289917H.3789978C.29100038 .0289917 .28799439 .041000368 .28799439 .07701111V.64105227Z"/>
<clipPath id="clip_3">
<path transform="matrix(1,0,0,-1.00005,8.390999,166.23847)" d="M0 0H194.2689V161.39618H0Z"/>
</clipPath>
<path id="font_4_1" d="M.47399903 .40820313C.44198609 .40219117 .42999269 .3781891 .42999269 .3591919 .42999269 .33518983 .44898988 .3271942 .46299745 .3271942 .49299623 .3271942 .5139923 .3531952 .5139923 .380188 .5139923 .4223938 .46598817 .44140626 .42399598 .44140626 .36299134 .44140626 .32899476 .38119508 .31999208 .36219789 .29699708 .4373932 .23498535 .44140626 .21699524 .44140626 .114990238 .44140626 .06098938 .31021119 .06098938 .28822328 .06098938 .28422547 .06498718 .27923585 .07199097 .27923585 .07998657 .27923585 .08198547 .28523255 .083999637 .2892151 .117996219 .40019227 .18499756 .42140199 .21398926 .42140199 .25898744 .42140199 .2679901 .37919618 .2679901 .3551941 .2679901 .33319093 .2619934 .31021119 .25 .26223756L.21598816 .12535095C.20098877 .06535339 .17199707 .010223389 .11898804 .010223389 .11399841 .010223389 .08898926 .010223389 .067993167 .023330689 .10398865 .03036499 .11199951 .06036377 .11199951 .07235718 .11199951 .09236145 .09700012 .10435486 .07798767 .10435486 .053985597 .10435486 .027999878 .083358768 .027999878 .051361085 .027999878 .009231567 .07499695-.009765625 .117996219-.009765625 .1659851-.009765625 .19999695 .028366089 .22099304 .069366458 .23699951 .010223389 .2869873-.009765625 .32398988-.009765625 .42599488-.009765625 .47999574 .12135315 .47999574 .1433258 .47999574 .14833069 .47599793 .15232849 .46998597 .15232849 .46099855 .15232849 .45999146 .14732361 .45700074 .139328 .42999269 .051361085 .37199403 .010223389 .32699586 .010223389 .2919922 .010223389 .272995 .036361696 .272995 .07736206 .272995 .099365238 .2769928 .115356449 .29299928 .18130493L.32798768 .3171997C.34298707 .37719728 .3769989 .42140199 .4229889 .42140199 .4249878 .42140199 .45298768 .42140199 .47399903 .40820313Z"/>
<path id="font_4_2" d="M.2630005-.11172485C.23599243-.14982605 .19699097-.18411255 .147995-.18411255 .13598633-.18411255 .08799744-.18209839 .07299805-.13572693 .07598877-.13671875 .08099365-.13671875 .08299255-.13671875 .11299133-.13671875 .1329956-.11073303 .1329956-.08772278 .1329956-.06472778 .11399841-.056732179 .09899902-.056732179 .08299255-.056732179 .04798889-.068725589 .04798889-.11772156 .04798889-.16899109 .09098816-.20410156 .147995-.20410156 .24798584-.20410156 .34899903-.11172485 .3769989-.00077819827L.47499085 .38868714C.47599793 .39367677 .47799684 .39967347 .47799684 .4056549 .47799684 .4206543 .46598817 .43066407 .45098878 .43066407 .44198609 .43066407 .42099 .426651 .41299439 .39666749L.33898927 .10308838C.33399964 .085113529 .33399964 .08312988 .32598878 .072143558 .30599977 .04423523 .272995 .010223389 .22499085 .010223389 .16899109 .010223389 .1639862 .06524658 .1639862 .09225464 .1639862 .14929199 .19099427 .22631836 .21798706 .2983551 .22898865 .32736207 .23498535 .34136964 .23498535 .3613739 .23498535 .4033966 .20498657 .44140626 .1559906 .44140626 .06399536 .44140626 .026992798 .29634095 .026992798 .28834535 .026992798 .28434754 .0309906 .27934266 .037994386 .27934266 .04699707 .27934266 .04798889 .28334046 .051986696 .29734803 .07598877 .38137818 .11399841 .42140199 .15299988 .42140199 .1619873 .42140199 .1789856 .42140199 .1789856 .38838197 .1789856 .36238099 .16799927 .33335877 .15299988 .29534913 .10398865 .16429138 .10398865 .13127136 .10398865 .10726929 .10398865 .01222229 .17199707-.009765625 .22200012-.009765625 .25099183-.009765625 .2869873-.00077819827 .32199098 .036239625L.32299806 .035232545C.30799867-.023757935 .2979889-.06272888 .2630005-.11172485Z"/>
</defs>
<path transform="matrix(1,0,0,-1.00005,8.390999,166.23847)" stroke-width=".3985" stroke-linecap="butt" stroke-miterlimit="10" stroke-linejoin="miter" fill="none" stroke="#cbcbcb" d="M0 0V161.39618M24.28363 0V161.39618M48.56728 0V161.39618M72.8509 0V161.39618M121.4182 0V161.39618M145.70183 0V161.39618M169.98548 0V161.39618M194.26912 0V161.39618"/>
<path transform="matrix(1,0,0,-1.00005,8.390999,166.23847)" stroke-width=".3985" stroke-linecap="butt" stroke-miterlimit="10" stroke-linejoin="miter" fill="none" stroke="#cbcbcb" d="M0 40.3489H194.2689M0 80.698H194.2689M0 121.04709H194.2689M0 161.39618H194.2689"/>
<path transform="matrix(1,0,0,-1.00005,8.390999,166.23847)" stroke-width=".79701" stroke-linecap="butt" stroke-miterlimit="10" stroke-linejoin="miter" fill="none" stroke="#929292" d="M0-2.12596V2.12596M24.28363-2.12596V2.12596M48.56728-2.12596V2.12596M72.8509-2.12596V2.12596M121.4182-2.12596V2.12596M145.70183-2.12596V2.12596M169.98548-2.12596V2.12596M194.26912-2.12596V2.12596"/>
<path transform="matrix(1,0,0,-1.00005,8.390999,166.23847)" stroke-width=".79701" stroke-linecap="butt" stroke-miterlimit="10" stroke-linejoin="miter" fill="none" stroke="#929292" d="M95.0086 40.3489H99.26048M95.0086 80.698H99.26048M95.0086 121.04709H99.26048M95.0086 161.39618H99.26048"/>
<path transform="matrix(1,0,0,-1.00005,8.390999,166.23847)" stroke-width=".3985" stroke-linecap="butt" stroke-miterlimit="10" stroke-linejoin="miter" fill="none" stroke="#000000" d="M0 0H192.27639"/>
<path transform="matrix(1,0,0,-1.00005,200.66739,166.23847)" d="M1.99252 0-1.19551 1.59401 0 0-1.19551-1.59401"/>
<path transform="matrix(1,0,0,-1.00005,8.390999,166.23847)" stroke-width=".3985" stroke-linecap="butt" stroke-miterlimit="10" stroke-linejoin="miter" fill="none" stroke="#000000" d="M97.13455 0V159.40366"/>
<path transform="matrix(0,-1.00005,-1,-0,105.52555,6.8268435)" d="M1.99252 0-1.19551 1.59401 0 0-1.19551-1.59401"/>
<use data-text="&#x2212;" xlink:href="#font_1_1" transform="matrix(11.9552,0,0,-11.955797,.8149986,180.25316)"/>
<use data-text="4" xlink:href="#font_2_4" transform="matrix(11.9552,0,0,-11.955797,10.112999,180.25316)"/>
<use data-text="&#x2212;" xlink:href="#font_1_1" transform="matrix(11.9552,0,0,-11.955797,25.098999,180.25316)"/>
<use data-text="3" xlink:href="#font_2_3" transform="matrix(11.9552,0,0,-11.955797,34.397,180.25316)"/>
<use data-text="&#x2212;" xlink:href="#font_1_1" transform="matrix(11.9552,0,0,-11.955797,49.382,180.25316)"/>
<use data-text="2" xlink:href="#font_2_2" transform="matrix(11.9552,0,0,-11.955797,58.68,180.25316)"/>
<use data-text="&#x2212;" xlink:href="#font_1_1" transform="matrix(11.9552,0,0,-11.955797,73.666,180.25316)"/>
<use data-text="1" xlink:href="#font_2_1" transform="matrix(11.9552,0,0,-11.955797,82.964008,180.25316)"/>
<use data-text="1" xlink:href="#font_2_1" transform="matrix(11.9552,0,0,-11.955797,126.882999,180.25316)"/>
<use data-text="2" xlink:href="#font_2_2" transform="matrix(11.9552,0,0,-11.955797,151.166,180.25316)"/>
<use data-text="3" xlink:href="#font_2_3" transform="matrix(11.9552,0,0,-11.955797,175.45001,180.25316)"/>
<use data-text="4" xlink:href="#font_2_4" transform="matrix(11.9552,0,0,-11.955797,199.73401,180.25316)"/>
<use data-text="1" xlink:href="#font_2_1" transform="matrix(11.9552,0,0,-11.955797,93.363,129.73964)"/>
<use data-text="2" xlink:href="#font_2_2" transform="matrix(11.9552,0,0,-11.955797,93.363,89.388629)"/>
<use data-text="3" xlink:href="#font_2_3" transform="matrix(11.9552,0,0,-11.955797,93.363,49.037614)"/>
<use data-text="4" xlink:href="#font_2_4" transform="matrix(11.9552,0,0,-11.955797,93.363,8.686584)"/>
<g clip-path="url(#clip_3)">
<path transform="matrix(1,0,0,-1.00005,8.390999,166.23847)" stroke-width=".79701" stroke-linecap="butt" stroke-miterlimit="10" stroke-linejoin="miter" fill="none" stroke="#0000ff" d="M0 161.39618 8.09453 147.9465 16.18907 134.49681 24.2836 121.04713 32.37814 107.59746 40.47267 94.14777 48.56721 80.69809 56.66174 67.2484 64.75629 53.79872 72.85081 40.34904 80.94536 26.89935 89.03992 13.44968 97.13445 0 105.22899 13.44934 113.32352 26.89902 121.41806 40.3487 129.51259 53.79839 137.60713 67.24806 145.70168 80.69775 153.79622 94.14743 161.89076 107.5971 169.98529 121.0468 178.07984 134.49648 186.17436 147.94615 194.2689 161.39585"/>
</g>
<use data-text="x" xlink:href="#font_4_1" transform="matrix(11.9552,0,0,-11.955797,191.85501,162.05426)"/>
<use data-text="y" xlink:href="#font_4_2" transform="matrix(11.9552,0,0,-11.955797,109.728,14.142868)"/>
</svg>
