<svg xmlns="http://www.w3.org/2000/svg" xmlns:xlink="http://www.w3.org/1999/xlink" version="1.1" width="212" height="168" viewBox="0 0 212 168">
<defs>
<path id="font_1_1" d="M.6589966 .23046875C.6759949 .23046875 .69400027 .23046875 .69400027 .25045777 .69400027 .27046205 .6759949 .27046205 .6589966 .27046205H.117996219C.100997928 .27046205 .08299255 .27046205 .08299255 .25045777 .08299255 .23046875 .100997928 .23046875 .117996219 .23046875H.6589966Z"/>
<path id="font_2_4" d="M.28799439 .64105227C.28799439 .664032 .28799439 .66503909 .2679901 .66503909 .24398804 .6380615 .19400025 .6012573 .09098816 .6012573V.5722656C.11399841 .5722656 .1639862 .5722656 .21899414 .59825137V.07701111C.21899414 .041000368 .21598816 .0289917 .12799073 .0289917H.09700012V0C.12399292 .0019989014 .22099304 .0019989014 .2539978 .0019989014 .2869873 .0019989014 .3829956 .0019989014 .4099884 0V.0289917H.3789978C.29100038 .0289917 .28799439 .041000368 .28799439 .07701111V.64105227Z"/>
<path id="font_2_3" d="M.44799806 .31976319C.44799806 .40283204 .44299317 .48390199 .40699769 .55996707 .3659973 .64302065 .2939911 .66503909 .24499512 .66503909 .18699646 .66503909 .115997318 .63601687 .07899475 .552948 .050994874 .48989869 .040985109 .42785646 .040985109 .31976319 .040985109 .22268677 .04798889 .14962769 .083999637 .078567508 .12298584 .0025177003 .19198609-.021484375 .24398804-.021484375 .33099366-.021484375 .3809967 .030532837 .4099884 .08857727 .44599916 .16363526 .44799806 .26171876 .44799806 .31976319M.24398804-.0014953613C.21199036-.0014953613 .14698792 .016525269 .12799073 .12561035 .116989139 .18565369 .116989139 .26171876 .116989139 .33177186 .116989139 .41384889 .116989139 .48789979 .1329956 .5469513 .1499939 .6139984 .20098877 .6450348 .24398804 .6450348 .28199769 .6450348 .33999635 .6220093 .35899354 .53593447 .37199403 .4788971 .37199403 .39982606 .37199403 .33177186 .37199403 .26472474 .37199403 .18865967 .36099244 .12760926 .34199525 .01751709 .2789917-.0014953613 .24398804-.0014953613Z"/>
<path id="font_2_8" d="M.2979889 .36079408C.34799195 .38781739 .42099 .43385316 .42099 .5179291 .42099 .6049957 .33699037 .66503909 .24499512 .66503909 .1459961 .66503909 .067993167 .59199526 .067993167 .5009155 .067993167 .46688844 .07798767 .43286134 .10598755 .39883424 .116989139 .38581849 .117996219 .38482667 .18798828 .3357849 .09098816 .29074098 .040985109 .22369385 .040985109 .15063477 .040985109 .044540407 .14199829-.021484375 .24398804-.021484375 .35499574-.021484375 .44799806 .060546876 .44799806 .16563416 .44799806 .2677307 .37599183 .3127594 .2979889 .36079408M.1619873 .4508667C.14898682 .45988465 .10899353 .48590089 .10899353 .5349426 .10899353 .59999087 .1769867 .641037 .24398804 .641037 .31599427 .641037 .37998963 .58898928 .37998963 .516922 .37998963 .45587159 .33599855 .4068451 .27799989 .3748169L.1619873 .4508667M.20899964 .32176209 .32998658 .2427063C.35598756 .22569275 .4019928 .19465637 .4019928 .13360596 .4019928 .057556154 .32499696 .005508423 .24499512 .005508423 .1599884 .005508423 .08699036 .06756592 .08699036 .15063477 .08699036 .22869873 .14399719 .29174806 .20899964 .32176209Z"/>
<path id="font_2_7" d="M.12298584 .34773255C.12298584 .60061648 .24598694 .641037 .2999878 .641037 .33599855 .641037 .37199403 .62991335 .3909912 .5996094 .3789978 .5996094 .34098817 .5996094 .34098817 .558609 .34098817 .53660586 .35598756 .51760867 .38198854 .51760867 .40699769 .51760867 .42399598 .53260806 .42399598 .56159976 .42399598 .6137543 .38598634 .66503909 .29899598 .66503909 .17298889 .66503909 .040985109 .53559878 .040985109 .31570436 .040985109 .040527345 .16099549-.021484375 .24598694-.021484375 .35499574-.021484375 .44799806 .07354736 .44799806 .2036438 .44799806 .33673097 .35499574 .42578126 .25498963 .42578126 .1659851 .42578126 .1329956 .34873963 .12298584 .32070924V.34773255M.24598694 .005508423C.18299866 .005508423 .15299988 .061538698 .14399719 .08256531 .1349945 .10858154 .125 .15760803 .125 .22766114 .125 .30670167 .16099549 .40577699 .25099183 .40577699 .30599977 .40577699 .33499146 .3687439 .34999085 .33473207 .3659973 .29769898 .3659973 .2476654 .3659973 .20463562 .3659973 .15361023 .3659973 .10858154 .34700013 .07055664 .32199098 .022521973 .28599549 .005508423 .24598694 .005508423Z"/>
<path id="font_2_6" d="M.36099244 .6508026C.36099244 .6697998 .36099244 .6748047 .34700013 .6748047 .33898927 .6748047 .33599855 .6748047 .32798768 .662796L.026992798 .19598389V.16699219H.2899933V.07598877C.2899933 .038986207 .28799439 .0289917 .21499634 .0289917H.19499207V0C.21798706 .0019989014 .29699708 .0019989014 .32499696 .0019989014 .35299684 .0019989014 .43299867 .0019989014 .45599366 0V.0289917H.43598939C.3639984 .0289917 .36099244 .038986207 .36099244 .07598877V.16699219H.46199037V.19598389H.36099244V.6508026M.29499818 .5728302V.19598389H.051986696L.29499818 .5728302Z"/>
<path id="font_2_5" d="M.43998719 .16790772H.41799928C.4149933 .15092469 .40699769 .09597778 .39698792 .07998657 .3899994 .070999149 .33299256 .070999149 .30299378 .070999149H.117996219C.14498902 .09397888 .20599365 .15792847 .23199463 .18190003 .38398744 .3217926 .43998719 .37374879 .43998719 .47270204 .43998719 .5878906 .34899903 .66503909 .23298645 .66503909 .116989139 .66503909 .04899597 .5658264 .04899597 .4797058 .04899597 .42871095 .09298706 .42871095 .09599304 .42871095 .116989139 .42871095 .14299011 .44371034 .14299011 .475708 .14299011 .5037079 .12399292 .5227051 .09599304 .5227051 .08699036 .5227051 .084991458 .5227051 .08198547 .521698 .100997928 .5899048 .15499878 .6360321 .21998596 .6360321 .30499269 .6360321 .35699464 .56481936 .35699464 .47270204 .35699464 .3877411 .30799867 .313797 .25099183 .24984741L.04899597 .023986817V0H.4139862L.43998719 .16790772Z"/>
<clipPath id="clip_3">
<path transform="matrix(1.00002,0,0,-1.00002,11.31773,1569.0186)" d="M0 1402.7738H194.27216V1564.1707H0Z"/>
</clipPath>
<path id="font_4_1" d="M.44599916 .4016571C.46598817 .4016571 .47399903 .4016571 .47399903 .4206543 .47399903 .43066407 .46598817 .43066407 .44799806 .43066407H.36698915C.38598634 .5338745 .3999939 .60498049 .4079895 .63697817 .4139862 .6609802 .43499757 .6840973 .46099855 .6840973 .48199464 .6840973 .5029907 .67503359 .5130005 .6659851 .47399903 .66197207 .46199037 .63298037 .46199037 .61598208 .46199037 .5959778 .47698976 .5839844 .49598695 .5839844 .5159912 .5839844 .54599 .60098269 .54599 .63897708 .54599 .68107607 .5039978 .70410159 .45999146 .70410159 .4169922 .70410159 .375 .6720276 .35499574 .63298037 .33699037 .5979767 .32699586 .5619354 .3039856 .43066407H.23699951C.21798706 .43066407 .20799256 .43066407 .20799256 .4126587 .20799256 .4016571 .21398926 .4016571 .23399353 .4016571H.2979889C.27999879 .30871583 .23899842 .082839969 .21598816-.024108887 .19898987-.111068729 .18399048-.18411255 .13398743-.18411255 .1309967-.18411255 .101989749-.18411255 .083999637-.16506958 .1349945-.16107178 .1349945-.11706543 .1349945-.11607361 .1349945-.096069339 .11999512-.08407593 .100997928-.08407593 .08099365-.08407593 .050994874-.10107422 .050994874-.1390686 .050994874-.18209839 .09498596-.20410156 .13398743-.20410156 .23599243-.20410156 .27799989-.021102906 .2889862 .028869629 .30699159 .1058197 .35598756 .37167359 .36099244 .4016571H.44599916Z"/>
<path id="font_2_1" d="M.32499696-.24298096C.32499696-.23999024 .32499696-.23799134 .30799867-.22097779 .20799256-.11997986 .1519928 .045013429 .1519928 .24900818 .1519928 .44299317 .19898987 .60998538 .31498719 .7279968 .32499696 .7369995 .32499696 .7389984 .32499696 .74198916 .32499696 .74798586 .31999208 .75 .31599427 .75 .30299378 .75 .22099304 .6779938 .17199707 .5799866 .12098694 .47898866 .09799194 .37199403 .09799194 .24900818 .09799194 .16000366 .11199951 .041015626 .1639862-.06599426 .22299195-.18598938 .30499269-.25097657 .31599427-.25097657 .31999208-.25097657 .32499696-.24897766 .32499696-.24298096Z"/>
<path id="font_4_2" d="M.47399903 .40820313C.44198609 .40219117 .42999269 .3781891 .42999269 .3591919 .42999269 .33518983 .44898988 .3271942 .46299745 .3271942 .49299623 .3271942 .5139923 .3531952 .5139923 .380188 .5139923 .4223938 .46598817 .44140626 .42399598 .44140626 .36299134 .44140626 .32899476 .38119508 .31999208 .36219789 .29699708 .4373932 .23498535 .44140626 .21699524 .44140626 .114990238 .44140626 .06098938 .31021119 .06098938 .28822328 .06098938 .28422547 .06498718 .27923585 .07199097 .27923585 .07998657 .27923585 .08198547 .28523255 .083999637 .2892151 .117996219 .40019227 .18499756 .42140199 .21398926 .42140199 .25898744 .42140199 .2679901 .37919618 .2679901 .3551941 .2679901 .33319093 .2619934 .31021119 .25 .26223756L.21598816 .12535095C.20098877 .06535339 .17199707 .010223389 .11898804 .010223389 .11399841 .010223389 .08898926 .010223389 .067993167 .023330689 .10398865 .03036499 .11199951 .06036377 .11199951 .07235718 .11199951 .09236145 .09700012 .10435486 .07798767 .10435486 .053985597 .10435486 .027999878 .083358768 .027999878 .051361085 .027999878 .009231567 .07499695-.009765625 .117996219-.009765625 .1659851-.009765625 .19999695 .028366089 .22099304 .069366458 .23699951 .010223389 .2869873-.009765625 .32398988-.009765625 .42599488-.009765625 .47999574 .12135315 .47999574 .1433258 .47999574 .14833069 .47599793 .15232849 .46998597 .15232849 .46099855 .15232849 .45999146 .14732361 .45700074 .139328 .42999269 .051361085 .37199403 .010223389 .32699586 .010223389 .2919922 .010223389 .272995 .036361696 .272995 .07736206 .272995 .099365238 .2769928 .115356449 .29299928 .18130493L.32798768 .3171997C.34298707 .37719728 .3769989 .42140199 .4229889 .42140199 .4249878 .42140199 .45298768 .42140199 .47399903 .40820313Z"/>
<path id="font_2_2" d="M.28199769 .24900818C.28199769 .32499696 .27198792 .44898988 .21598816 .5649872 .15699768 .68499758 .07499695 .75 .06399536 .75 .05999756 .75 .054992677 .74798586 .054992677 .74198916 .054992677 .7389984 .054992677 .7369995 .07199097 .71998599 .17199707 .61898806 .22799683 .45399476 .22799683 .25 .22799683 .056015016 .18099976-.11099243 .06498718-.22898865 .054992677-.23799134 .054992677-.23999024 .054992677-.24298096 .054992677-.24897766 .05999756-.25097657 .06399536-.25097657 .07699585-.25097657 .15899658-.1789856 .20799256-.08099365 .25898744 .021011353 .28199769 .12901306 .28199769 .24900818Z"/>
<path id="font_4_3" d="M.2630005-.11172485C.23599243-.14982605 .19699097-.18411255 .147995-.18411255 .13598633-.18411255 .08799744-.18209839 .07299805-.13572693 .07598877-.13671875 .08099365-.13671875 .08299255-.13671875 .11299133-.13671875 .1329956-.11073303 .1329956-.08772278 .1329956-.06472778 .11399841-.056732179 .09899902-.056732179 .08299255-.056732179 .04798889-.068725589 .04798889-.11772156 .04798889-.16899109 .09098816-.20410156 .147995-.20410156 .24798584-.20410156 .34899903-.11172485 .3769989-.00077819827L.47499085 .38868714C.47599793 .39367677 .47799684 .39967347 .47799684 .4056549 .47799684 .4206543 .46598817 .43066407 .45098878 .43066407 .44198609 .43066407 .42099 .426651 .41299439 .39666749L.33898927 .10308838C.33399964 .085113529 .33399964 .08312988 .32598878 .072143558 .30599977 .04423523 .272995 .010223389 .22499085 .010223389 .16899109 .010223389 .1639862 .06524658 .1639862 .09225464 .1639862 .14929199 .19099427 .22631836 .21798706 .2983551 .22898865 .32736207 .23498535 .34136964 .23498535 .3613739 .23498535 .4033966 .20498657 .44140626 .1559906 .44140626 .06399536 .44140626 .026992798 .29634095 .026992798 .28834535 .026992798 .28434754 .0309906 .27934266 .037994386 .27934266 .04699707 .27934266 .04798889 .28334046 .051986696 .29734803 .07598877 .38137818 .11399841 .42140199 .15299988 .42140199 .1619873 .42140199 .1789856 .42140199 .1789856 .38838197 .1789856 .36238099 .16799927 .33335877 .15299988 .29534913 .10398865 .16429138 .10398865 .13127136 .10398865 .10726929 .10398865 .01222229 .17199707-.009765625 .22200012-.009765625 .25099183-.009765625 .2869873-.00077819827 .32199098 .036239625L.32299806 .035232545C.30799867-.023757935 .2979889-.06272888 .2630005-.11172485Z"/>
</defs>
<path transform="matrix(1.00002,0,0,-1.00002,11.31773,1569.0186)" stroke-width=".3985" stroke-linecap="butt" stroke-miterlimit="10" stroke-linejoin="miter" fill="none" stroke="#cbcbcb" d="M0 1402.7738V1564.1707M19.42722 1402.7738V1564.1707M38.85443 1402.7738V1564.1707M58.28165 1402.7738V1564.1707M77.70886 1402.7738V1564.1707M116.5633 1402.7738V1564.1707M135.99051 1402.7738V1564.1707M155.41773 1402.7738V1564.1707M174.84494 1402.7738V1564.1707M194.27216 1402.7738V1564.1707"/>
<path transform="matrix(1.00002,0,0,-1.00002,11.31773,1569.0186)" stroke-width=".3985" stroke-linecap="butt" stroke-miterlimit="10" stroke-linejoin="miter" fill="none" stroke="#cbcbcb" d="M0 1415.189H194.27216M0 1440.0193H194.27216M0 1489.6798H194.27216M0 1514.51H194.27216M0 1539.3403H194.27216M0 1564.1707H194.27216"/>
<path transform="matrix(1.00002,0,0,-1.00002,11.31773,1569.0186)" stroke-width=".79701" stroke-linecap="butt" stroke-miterlimit="10" stroke-linejoin="miter" fill="none" stroke="#929292" d="M0 1462.7246V1466.9745M19.42722 1462.7246V1466.9745M38.85443 1462.7246V1466.9745M58.28165 1462.7246V1466.9745M77.70886 1462.7246V1466.9745M116.5633 1462.7246V1466.9745M135.99051 1462.7246V1466.9745M155.41773 1462.7246V1466.9745M174.84494 1462.7246V1466.9745M194.27216 1462.7246V1466.9745"/>
<path transform="matrix(1.00002,0,0,-1.00002,11.31773,1569.0186)" stroke-width=".79701" stroke-linecap="butt" stroke-miterlimit="10" stroke-linejoin="miter" fill="none" stroke="#929292" d="M95.01024 1415.189H99.26189M95.01024 1440.0193H99.26189M95.01024 1489.6798H99.26189M95.01024 1514.51H99.26189M95.01024 1539.3403H99.26189M95.01024 1564.1707H99.26189"/>
<path transform="matrix(1.00002,0,0,-1.00002,11.31773,1569.0186)" stroke-width=".3985" stroke-linecap="butt" stroke-miterlimit="10" stroke-linejoin="miter" fill="none" stroke="#000000" d="M0 1464.8495H192.27964"/>
<path transform="matrix(1.00002,0,0,-1.00002,203.60121,104.13977)" d="M1.99252 0-1.19551 1.59401 0 0-1.19551-1.59401"/>
<path transform="matrix(1.00002,0,0,-1.00002,11.31773,1569.0186)" stroke-width=".3985" stroke-linecap="butt" stroke-miterlimit="10" stroke-linejoin="miter" fill="none" stroke="#000000" d="M97.13608 1402.7738V1562.1781"/>
<path transform="matrix(0,-1.00002,-1.00002,-0,108.45575,6.809204)" d="M1.99252 0-1.19551 1.59401 0 0-1.19551-1.59401"/>
<use data-text="&#x2212;" xlink:href="#font_1_1" transform="matrix(11.95544,0,0,-11.95544,.8155174,118.15344)"/>
<use data-text="1" xlink:href="#font_2_4" transform="matrix(11.95544,0,0,-11.95544,10.113705,118.15344)"/>
<use data-text="0" xlink:href="#font_2_3" transform="matrix(11.95544,0,0,-11.95544,15.97187,118.15344)"/>
<use data-text="&#x2212;" xlink:href="#font_1_1" transform="matrix(11.95544,0,0,-11.95544,23.168969,118.15344)"/>
<use data-text="8" xlink:href="#font_2_8" transform="matrix(11.95544,0,0,-11.95544,32.467157,118.15344)"/>
<use data-text="&#x2212;" xlink:href="#font_1_1" transform="matrix(11.95544,0,0,-11.95544,42.597356,118.15344)"/>
<use data-text="6" xlink:href="#font_2_7" transform="matrix(11.95544,0,0,-11.95544,51.895544,118.15344)"/>
<use data-text="&#x2212;" xlink:href="#font_1_1" transform="matrix(11.95544,0,0,-11.95544,62.024747,118.15344)"/>
<use data-text="4" xlink:href="#font_2_6" transform="matrix(11.95544,0,0,-11.95544,71.32294,118.15344)"/>
<use data-text="&#x2212;" xlink:href="#font_1_1" transform="matrix(11.95544,0,0,-11.95544,81.45213,118.15344)"/>
<use data-text="2" xlink:href="#font_2_5" transform="matrix(11.95544,0,0,-11.95544,90.75032,118.15344)"/>
<use data-text="2" xlink:href="#font_2_5" transform="matrix(11.95544,0,0,-11.95544,124.957,118.15344)"/>
<use data-text="4" xlink:href="#font_2_6" transform="matrix(11.95544,0,0,-11.95544,144.3844,118.15344)"/>
<use data-text="6" xlink:href="#font_2_7" transform="matrix(11.95544,0,0,-11.95544,163.81179,118.15344)"/>
<use data-text="8" xlink:href="#font_2_8" transform="matrix(11.95544,0,0,-11.95544,183.23918,118.15344)"/>
<use data-text="1" xlink:href="#font_2_4" transform="matrix(11.95544,0,0,-11.95544,199.74051,118.15344)"/>
<use data-text="0" xlink:href="#font_2_3" transform="matrix(11.95544,0,0,-11.95544,205.59867,118.15344)"/>
<use data-text="&#x2212;" xlink:href="#font_1_1" transform="matrix(11.95544,0,0,-11.95544,86.99425,157.15528)"/>
<use data-text="4" xlink:href="#font_2_6" transform="matrix(11.95544,0,0,-11.95544,96.292438,157.15528)"/>
<use data-text="&#x2212;" xlink:href="#font_1_1" transform="matrix(11.95544,0,0,-11.95544,86.99425,132.3247)"/>
<use data-text="2" xlink:href="#font_2_5" transform="matrix(11.95544,0,0,-11.95544,96.292438,132.3247)"/>
<use data-text="2" xlink:href="#font_2_5" transform="matrix(11.95544,0,0,-11.95544,96.292438,83.16077)"/>
<use data-text="4" xlink:href="#font_2_6" transform="matrix(11.95544,0,0,-11.95544,96.292438,58.330324)"/>
<use data-text="6" xlink:href="#font_2_7" transform="matrix(11.95544,0,0,-11.95544,96.292438,33.499757)"/>
<use data-text="8" xlink:href="#font_2_8" transform="matrix(11.95544,0,0,-11.95544,96.292438,8.669312)"/>
<g clip-path="url(#clip_3)">
<path transform="matrix(1.00002,0,0,-1.00002,11.31773,1569.0186)" stroke-width="1.59404" stroke-linecap="butt" stroke-miterlimit="10" stroke-linejoin="miter" fill="none" stroke="#0000ff" d="M0 1478.2194 3.60211 1477.8832 7.20425 1477.5263 10.8064 1477.1472 14.40852 1476.7437 18.01065 1476.3132 21.6128 1475.8532 25.21492 1475.3604 28.81706 1474.831 32.4192 1474.2612 36.02132 1473.646 39.62346 1472.9794 43.2256 1472.2551 46.82774 1471.465 50.42987 1470.6 54.032 1469.6486 57.63414 1468.5974 61.23627 1467.4298 64.83841 1466.1254 68.44055 1464.6583 72.04266 1462.9965 75.6448 1461.098 79.24695 1458.909 82.84908 1456.3567 86.45122 1453.3428"/>
<path transform="matrix(1.00002,0,0,-1.00002,11.31773,1569.0186)" stroke-width="1.59404" stroke-linecap="butt" stroke-miterlimit="10" stroke-linejoin="miter" fill="none" stroke="#0000ff" d="M88.39383 1451.4794 89.9318 1449.8632 91.46977 1448.1036 93.00777 1446.1815 94.54575 1444.0733 96.08374 1441.7501 97.62173 1439.1775 99.15971 1436.3132 100.6977 1433.1047 102.23569 1429.4851 103.77367 1425.372 105.31165 1420.6528 106.84964 1415.189 108.38762 1408.7853 109.92558 1401.1773 111.4636 1391.9876 113.00157 1380.6699 114.53955 1366.385 116.07755 1347.7921 117.61552 1322.5995 119.1535 1286.5259 120.6915 1230.5858 122.22948 1132.13 123.76746 912.9967 125.30545 0"/>
<path transform="matrix(1.00002,0,0,-1.00002,11.31773,1569.0186)" stroke-width="1.59404" stroke-linecap="butt" stroke-miterlimit="10" stroke-linejoin="miter" fill="none" stroke="#0000ff" d="M127.24826 2979.496 130.04091 1874.148 132.83358 1710.3923 135.62624 1644.4668 138.4189 1608.8651 141.21157 1586.5774 144.00423 1571.3135 146.79689 1560.2035 149.58956 1551.7555 152.3822 1545.1133 155.17487 1539.7575 157.96753 1535.3439 160.7602 1531.6455 163.55286 1528.5032 166.34554 1525.7954 169.1382 1523.4428 171.93087 1521.3782 174.72351 1519.5507 177.51618 1517.923 180.30884 1516.4641 183.1015 1515.1456 185.89417 1513.9539 188.68683 1512.8663 191.47949 1511.8744 194.27216 1510.9605"/>
<path transform="matrix(1.00002,0,0,-1.00002,11.31773,1569.0186)" stroke-width=".3985" stroke-linecap="butt" stroke-miterlimit="10" stroke-linejoin="miter" fill="none" stroke="#0000ff" d="M116.5633 1477.2647"/>
<path transform="matrix(1.00002,0,0,-1.00002,11.31773,1569.0186)" d="M90.25713 1452.4343C90.25713 1454 88.98802 1455.269 87.42247 1455.269 85.8569 1455.269 84.5878 1454 84.5878 1452.4343 84.5878 1450.8688 85.8569 1449.5997 87.42247 1449.5997 88.98802 1449.5997 90.25713 1450.8688 90.25713 1452.4343ZM87.42247 1452.4343" fill="#ffffff"/>
<path transform="matrix(1.00002,0,0,-1.00002,11.31773,1569.0186)" stroke-width=".3985" stroke-linecap="butt" stroke-miterlimit="10" stroke-linejoin="miter" fill="none" stroke="#0000ff" d="M90.25713 1452.4343C90.25713 1454 88.98802 1455.269 87.42247 1455.269 85.8569 1455.269 84.5878 1454 84.5878 1452.4343 84.5878 1450.8688 85.8569 1449.5997 87.42247 1449.5997 88.98802 1449.5997 90.25713 1450.8688 90.25713 1452.4343ZM87.42247 1452.4343"/>
</g>
<path transform="matrix(1.00002,0,0,-1.00002,11.31773,1569.0186)" stroke-width=".3985" stroke-linecap="butt" stroke-miterlimit="10" stroke-linejoin="miter" fill="none" stroke="#0000ff" d=""/>
<use data-text="f" xlink:href="#font_4_1" transform="matrix(11.95544,0,0,-11.95544,116.48184,84.55176)" fill="#0000ff"/>
<use data-text="(" xlink:href="#font_2_1" transform="matrix(11.95544,0,0,-11.95544,123.527988,84.55176)" fill="#0000ff"/>
<use data-text="x" xlink:href="#font_4_2" transform="matrix(11.95544,0,0,-11.95544,128.08107,84.55176)" fill="#0000ff"/>
<use data-text=")" xlink:href="#font_2_2" transform="matrix(11.95544,0,0,-11.95544,134.7332,84.55176)" fill="#0000ff"/>
<path transform="matrix(1.00002,0,0,-1.00002,11.31773,1569.0186)" stroke-width=".3985" stroke-linecap="butt" stroke-miterlimit="10" stroke-linejoin="miter" fill="none" stroke="#0000ff" d=""/>
<use data-text="x" xlink:href="#font_4_2" transform="matrix(11.95544,0,0,-11.95544,194.79442,99.680179)"/>
<use data-text="y" xlink:href="#font_4_3" transform="matrix(11.95544,0,0,-11.95544,112.65976,13.901367)"/>
</svg>
