<svg xmlns="http://www.w3.org/2000/svg" xmlns:xlink="http://www.w3.org/1999/xlink" version="1.1" width="395" height="164" viewBox="0 0 395 164">
<defs>
<path id="font_1_1" d="M.6589966 .23046875C.6759949 .23046875 .69400027 .23046875 .69400027 .25045777 .69400027 .27046205 .6759949 .27046205 .6589966 .27046205H.117996219C.100997928 .27046205 .08299255 .27046205 .08299255 .25045777 .08299255 .23046875 .100997928 .23046875 .117996219 .23046875H.6589966Z"/>
<path id="font_2_4" d="M.36099244 .6508026C.36099244 .6697998 .36099244 .6748047 .34700013 .6748047 .33898927 .6748047 .33599855 .6748047 .32798768 .662796L.026992798 .19598389V.16699219H.2899933V.07598877C.2899933 .038986207 .28799439 .0289917 .21499634 .0289917H.19499207V0C.21798706 .0019989014 .29699708 .0019989014 .32499696 .0019989014 .35299684 .0019989014 .43299867 .0019989014 .45599366 0V.0289917H.43598939C.3639984 .0289917 .36099244 .038986207 .36099244 .07598877V.16699219H.46199037V.19598389H.36099244V.6508026M.29499818 .5728302V.19598389H.051986696L.29499818 .5728302Z"/>
<path id="font_2_3" d="M.43998719 .16790772H.41799928C.4149933 .15092469 .40699769 .09597778 .39698792 .07998657 .3899994 .070999149 .33299256 .070999149 .30299378 .070999149H.117996219C.14498902 .09397888 .20599365 .15792847 .23199463 .18190003 .38398744 .3217926 .43998719 .37374879 .43998719 .47270204 .43998719 .5878906 .34899903 .66503909 .23298645 .66503909 .116989139 .66503909 .04899597 .5658264 .04899597 .4797058 .04899597 .42871095 .09298706 .42871095 .09599304 .42871095 .116989139 .42871095 .14299011 .44371034 .14299011 .475708 .14299011 .5037079 .12399292 .5227051 .09599304 .5227051 .08699036 .5227051 .084991458 .5227051 .08198547 .521698 .100997928 .5899048 .15499878 .6360321 .21998596 .6360321 .30499269 .6360321 .35699464 .56481936 .35699464 .47270204 .35699464 .3877411 .30799867 .313797 .25099183 .24984741L.04899597 .023986817V0H.4139862L.43998719 .16790772Z"/>
<clipPath id="clip_3">
<path transform="matrix(1.00005,0,0,-1.00002,1.0300999,162.59024)" d="M0 0H194.26607V161.39028H0Z"/>
</clipPath>
<path id="font_4_1" d="M.30099488 .119277957C.29599 .102264408 .29599 .1002655 .28199769 .08125305 .2599945 .053237916 .21598816 .010223389 .16899109 .010223389 .12799073 .010223389 .10499573 .04724121 .10499573 .10626221 .10499573 .1612854 .13598633 .2733307 .15499878 .3153534 .18899536 .38539125 .23599243 .42140199 .2749939 .42140199 .34098817 .42140199 .35398866 .33937074 .35398866 .33135987 .35398866 .33036805 .35099793 .3173523 .34999085 .3153534L.30099488 .119277957M.36499024 .37538148C.35398866 .4013977 .32699586 .44140626 .2749939 .44140626 .1619873 .44140626 .039993287 .29534913 .039993287 .14727783 .039993287 .04824829 .09799194-.009765625 .1659851-.009765625 .22099304-.009765625 .2679901 .033233644 .29599 .06625366 .30599977 .007232666 .35299684-.009765625 .3829956-.009765625 .41299439-.009765625 .43699647 .008224487 .45498658 .04423523 .47099305 .07824707 .4850006 .13926697 .4850006 .14326477 .4850006 .14826966 .48098756 .15226746 .47499085 .15226746 .46598817 .15226746 .46499635 .14726258 .46099855 .13226319 .44599916 .07324219 .4269867 .010223389 .38598634 .010223389 .35699464 .010223389 .35499574 .036239625 .35499574 .056243898 .35499574 .07923889 .35798646 .09025574 .36698915 .1292572 .37399293 .15426636 .3789978 .17626953 .3869934 .20527649 .42399598 .35533143 .43299867 .39134217 .43299867 .39733888 .43299867 .41133119 .42199708 .42233277 .40699769 .42233277 .375 .42233277 .36698915 .3873291 .36499024 .3753357V.37538148Z"/>
<path id="font_2_1" d="M.32499696-.24298096C.32499696-.23999024 .32499696-.23799134 .30799867-.22097779 .20799256-.11997986 .1519928 .045013429 .1519928 .24900818 .1519928 .44299317 .19898987 .60998538 .31498719 .7279968 .32499696 .7369995 .32499696 .7389984 .32499696 .74198916 .32499696 .74798586 .31999208 .75 .31599427 .75 .30299378 .75 .22099304 .6779938 .17199707 .5799866 .12098694 .47898866 .09799194 .37199403 .09799194 .24900818 .09799194 .16000366 .11199951 .041015626 .1639862-.06599426 .22299195-.18598938 .30499269-.25097657 .31599427-.25097657 .31999208-.25097657 .32499696-.24897766 .32499696-.24298096Z"/>
<path id="font_4_3" d="M.47399903 .40820313C.44198609 .40219117 .42999269 .3781891 .42999269 .3591919 .42999269 .33518983 .44898988 .3271942 .46299745 .3271942 .49299623 .3271942 .5139923 .3531952 .5139923 .380188 .5139923 .4223938 .46598817 .44140626 .42399598 .44140626 .36299134 .44140626 .32899476 .38119508 .31999208 .36219789 .29699708 .4373932 .23498535 .44140626 .21699524 .44140626 .114990238 .44140626 .06098938 .31021119 .06098938 .28822328 .06098938 .28422547 .06498718 .27923585 .07199097 .27923585 .07998657 .27923585 .08198547 .28523255 .083999637 .2892151 .117996219 .40019227 .18499756 .42140199 .21398926 .42140199 .25898744 .42140199 .2679901 .37919618 .2679901 .3551941 .2679901 .33319093 .2619934 .31021119 .25 .26223756L.21598816 .12535095C.20098877 .06535339 .17199707 .010223389 .11898804 .010223389 .11399841 .010223389 .08898926 .010223389 .067993167 .023330689 .10398865 .03036499 .11199951 .06036377 .11199951 .07235718 .11199951 .09236145 .09700012 .10435486 .07798767 .10435486 .053985597 .10435486 .027999878 .083358768 .027999878 .051361085 .027999878 .009231567 .07499695-.009765625 .117996219-.009765625 .1659851-.009765625 .19999695 .028366089 .22099304 .069366458 .23699951 .010223389 .2869873-.009765625 .32398988-.009765625 .42599488-.009765625 .47999574 .12135315 .47999574 .1433258 .47999574 .14833069 .47599793 .15232849 .46998597 .15232849 .46099855 .15232849 .45999146 .14732361 .45700074 .139328 .42999269 .051361085 .37199403 .010223389 .32699586 .010223389 .2919922 .010223389 .272995 .036361696 .272995 .07736206 .272995 .099365238 .2769928 .115356449 .29299928 .18130493L.32798768 .3171997C.34298707 .37719728 .3769989 .42140199 .4229889 .42140199 .4249878 .42140199 .45298768 .42140199 .47399903 .40820313Z"/>
<path id="font_2_2" d="M.28199769 .24900818C.28199769 .32499696 .27198792 .44898988 .21598816 .5649872 .15699768 .68499758 .07499695 .75 .06399536 .75 .05999756 .75 .054992677 .74798586 .054992677 .74198916 .054992677 .7389984 .054992677 .7369995 .07199097 .71998599 .17199707 .61898806 .22799683 .45399476 .22799683 .25 .22799683 .056015016 .18099976-.11099243 .06498718-.22898865 .054992677-.23799134 .054992677-.23999024 .054992677-.24298096 .054992677-.24897766 .05999756-.25097657 .06399536-.25097657 .07699585-.25097657 .15899658-.1789856 .20799256-.08099365 .25898744 .021011353 .28199769 .12901306 .28199769 .24900818Z"/>
<path id="font_4_4" d="M.2630005-.11172485C.23599243-.14982605 .19699097-.18411255 .147995-.18411255 .13598633-.18411255 .08799744-.18209839 .07299805-.13572693 .07598877-.13671875 .08099365-.13671875 .08299255-.13671875 .11299133-.13671875 .1329956-.11073303 .1329956-.08772278 .1329956-.06472778 .11399841-.056732179 .09899902-.056732179 .08299255-.056732179 .04798889-.068725589 .04798889-.11772156 .04798889-.16899109 .09098816-.20410156 .147995-.20410156 .24798584-.20410156 .34899903-.11172485 .3769989-.00077819827L.47499085 .38868714C.47599793 .39367677 .47799684 .39967347 .47799684 .4056549 .47799684 .4206543 .46598817 .43066407 .45098878 .43066407 .44198609 .43066407 .42099 .426651 .41299439 .39666749L.33898927 .10308838C.33399964 .085113529 .33399964 .08312988 .32598878 .072143558 .30599977 .04423523 .272995 .010223389 .22499085 .010223389 .16899109 .010223389 .1639862 .06524658 .1639862 .09225464 .1639862 .14929199 .19099427 .22631836 .21798706 .2983551 .22898865 .32736207 .23498535 .34136964 .23498535 .3613739 .23498535 .4033966 .20498657 .44140626 .1559906 .44140626 .06399536 .44140626 .026992798 .29634095 .026992798 .28834535 .026992798 .28434754 .0309906 .27934266 .037994386 .27934266 .04699707 .27934266 .04798889 .28334046 .051986696 .29734803 .07598877 .38137818 .11399841 .42140199 .15299988 .42140199 .1619873 .42140199 .1789856 .42140199 .1789856 .38838197 .1789856 .36238099 .16799927 .33335877 .15299988 .29534913 .10398865 .16429138 .10398865 .13127136 .10398865 .10726929 .10398865 .01222229 .17199707-.009765625 .22200012-.009765625 .25099183-.009765625 .2869873-.00077819827 .32199098 .036239625L.32299806 .035232545C.30799867-.023757935 .2979889-.06272888 .2630005-.11172485Z"/>
<clipPath id="clip_5">
<path transform="matrix(1.00005,0,0,-1.00002,199.59903,162.59024)" d="M0 0H194.26607V161.39028H0Z"/>
</clipPath>
<path id="font_4_2" d="M.23098755 .6693268C.23199463 .6733246 .23399353 .6793213 .23399353 .6843262 .23399353 .69433596 .22399903 .69433596 .22200012 .69433596 .22099304 .69433596 .18499756 .69132998 .16699219 .68933108 .1499939 .688324 .1349945 .6863251 .116989139 .68533328 .09298706 .68333438 .085998538 .6823273 .085998538 .6643219 .085998538 .6543274 .09599304 .6543274 .10598755 .6543274 .15699768 .6543274 .15699768 .6453247 .15699768 .6353302 .15699768 .6283417 .14898682 .59935 .14498902 .58135989L.12098694 .48538209C.11099243 .44540406 .053985597 .2183075 .049987794 .20030213 .04499817 .17529297 .04499817 .15829468 .04499817 .14527893 .04499817 .04324341 .101989749-.009765625 .16699219-.009765625 .2829895-.009765625 .40299989 .13928223 .40299989 .28434754 .40299989 .3763733 .35099793 .44140626 .27598573 .44140626 .22399903 .44140626 .1769867 .39839173 .1579895 .37838746L.23098755 .6693268M.16799927 .010223389C.13598633 .010223389 .100997928 .034240724 .100997928 .11227417 .100997928 .14527893 .10398865 .16429138 .12199402 .23431397 .125 .24732971 .14099121 .3113556 .14498902 .32435609 .14698792 .33236695 .20599365 .42140199 .27398683 .42140199 .31799317 .42140199 .33799745 .37738038 .33799745 .32536317 .33799745 .27734376 .30999757 .16429138 .2849884 .11227417 .2599945 .058242799 .21398926 .010223389 .16799927 .010223389Z"/>
</defs>
<path transform="matrix(1.00005,0,0,-1.00002,1.0300999,162.59024)" stroke-width=".19925" stroke-linecap="butt" stroke-miterlimit="10" stroke-linejoin="miter" fill="none" stroke="#929292" d="M19.4266 78.56915V82.8211M58.27982 78.56915V82.8211M135.98625 78.56915V82.8211M174.83946 78.56915V82.8211"/>
<path transform="matrix(1.00005,0,0,-1.00002,1.0300999,162.59024)" stroke-width=".19925" stroke-linecap="butt" stroke-miterlimit="10" stroke-linejoin="miter" fill="none" stroke="#929292" d="M95.00711 26.89838H99.25894M95.00711 134.4919H99.25894"/>
<path transform="matrix(1.00005,0,0,-1.00002,1.0300999,162.59024)" stroke-width=".3985" stroke-linecap="butt" stroke-miterlimit="10" stroke-linejoin="miter" fill="none" stroke="#000000" d="M0 80.69513H192.27355"/>
<path transform="matrix(1.00005,0,0,-1.00002,193.31325,81.89349)" d="M1.99252 0-1.19551 1.59401 0 0-1.19551-1.59401"/>
<path transform="matrix(1.00005,0,0,-1.00002,1.0300999,162.59024)" stroke-width=".3985" stroke-linecap="butt" stroke-miterlimit="10" stroke-linejoin="miter" fill="none" stroke="#000000" d="M97.13303 0V159.39775"/>
<path transform="matrix(0,-1.00002,-1.00005,-0,98.167987,3.1893006)" d="M1.99252 0-1.19551 1.59401 0 0-1.19551-1.59401"/>
<use data-text="&#x2212;" xlink:href="#font_1_1" transform="matrix(11.955797,0,0,-11.95544,12.881692,95.907909)"/>
<use data-text="4" xlink:href="#font_2_4" transform="matrix(11.955797,0,0,-11.95544,22.180157,95.907909)"/>
<use data-text="&#x2212;" xlink:href="#font_1_1" transform="matrix(11.955797,0,0,-11.95544,51.736635,95.907909)"/>
<use data-text="2" xlink:href="#font_2_3" transform="matrix(11.955797,0,0,-11.95544,61.035097,95.907909)"/>
<use data-text="2" xlink:href="#font_2_3" transform="matrix(11.955797,0,0,-11.95544,134.09674,95.907909)"/>
<use data-text="4" xlink:href="#font_2_4" transform="matrix(11.955797,0,0,-11.95544,172.95169,95.907909)"/>
<use data-text="&#x2212;" xlink:href="#font_1_1" transform="matrix(11.955797,0,0,-11.95544,76.70587,139.04578)"/>
<use data-text="2" xlink:href="#font_2_3" transform="matrix(11.955797,0,0,-11.95544,86.00433,139.04578)"/>
<use data-text="2" xlink:href="#font_2_3" transform="matrix(11.955797,0,0,-11.95544,86.00434,31.947632)"/>
<g clip-path="url(#clip_3)">
<path transform="matrix(1.00005,0,0,-1.00002,1.0300999,162.59024)" stroke-width="1.59404" stroke-linecap="butt" stroke-miterlimit="10" stroke-linejoin="miter" fill="none" stroke="#0000ff" d="M19.4266 26.89838H19.57843 19.73024 19.88208 20.0339 20.18575 20.33757 20.4894 20.64122 20.79306 20.94489 21.09673 21.24854 21.40038 21.5522 21.70404 21.85587 22.0077 22.15952 22.31136 22.46318 22.61502 22.76685 22.91867 23.0705 23.22234 23.37416 23.526 23.67783 23.82965 23.98148 24.13332 24.28514 24.43698 24.58879 24.74063 24.89246 25.0443 25.19612 25.34795 25.49977 25.65161 25.80344 25.95528 26.1071 26.25893 26.41075 26.56259 26.71442 26.86626 27.01807 27.1699 27.32173 27.47357 27.6254 27.77724 27.92905 28.08089 28.23271 28.38455 28.53638 28.6882 28.84003 28.99187 29.14369 29.29553 29.44734 29.59918 29.751 29.90285 30.05467 30.20651 30.35832 30.51016 30.66199 30.81383 30.96565 31.11748 31.2693 31.42113 31.57297 31.7248 31.87663 32.02844 32.18028 32.3321 32.48395 32.63577 32.7876 32.93942 33.09126 33.24309 33.39493 33.54675 33.69858 33.8504 34.00224 34.15407 34.30591 34.45772 34.60956 34.76138 34.91322 35.06505 35.21687 35.3687 35.52054 35.67236 35.8242 35.97603 36.12785 36.27968 36.43152 36.58334 36.73518 36.887 37.03883 37.19066 37.3425 37.49432 37.64616 37.79797 37.94981 38.10164 38.25348 38.4053 38.55713 38.70895 38.8608 39.01262 39.16446 39.31627 39.46811 39.61993 39.77177 39.9236 40.07544 40.22725 40.37909 40.53091 40.68275 40.83458 40.9864 41.13823 41.29007 41.4419 41.59373 41.74556 41.89738 42.04921 42.20105 42.35287 42.50471 42.65652 42.80836 42.96019 43.11203 43.26385 43.41566 43.5675 43.71933 43.87117 44.023 44.17484 44.32664 44.47849 44.63031 44.78215 44.93398 45.0858 45.23763 45.38947 45.54129 45.69313 45.84496 45.99678 46.1486 46.30045 46.45227 46.60411 46.75592 46.90776 47.05959 47.21143 47.36325 47.51508 47.6669 47.81874 47.97057 48.1224 48.27423 48.42606 48.57788 48.72972 48.88155 49.03339 49.1852 49.33704 49.48886 49.6407 49.79253 49.94437 50.09618 50.24802 50.39984 50.55168 50.7035 50.85533 51.00716 51.159 51.31082 51.46266 51.61449 51.76631 51.91814 52.06998 52.2218 52.37364 52.52545 52.67729 52.82912 52.98096 53.13278 53.2846 53.43643 53.58827 53.7401 53.89194 54.04376 54.19559 54.34741 54.49925 54.65108 54.80292 54.95473 55.10655 55.25839 55.41022 55.56206 55.71388 55.8657 56.01753 56.16937 56.3212 56.47304 56.62485 56.77669 56.92851 57.08035 57.23218 57.384 57.53583 57.68767 57.8395 57.99133 58.14316 58.29498 58.44681 58.59865 58.75047 58.90231 59.05412 59.20596 59.35779 59.50963 59.66145 59.8133 59.9651 60.11694 60.26877 60.42061 60.57243 60.72426 60.87608 61.02792 61.17975 61.33159 61.4834 61.63524 61.78706 61.9389 62.09073 62.24257 62.39438 62.54622 62.69804 62.84988 63.00171 63.15353 63.30536 63.4572 63.60902 63.76086 63.91269 64.06451 64.21634 64.36818 64.52 64.67184 64.82365 64.9755 65.12732 65.27916 65.43098 65.58281 65.73463 65.88647 66.0383 66.19014 66.34196 66.49379 66.64561 66.79745 66.94928 67.1011 67.25293 67.40475 67.5566 67.70842 67.86026 68.01208 68.16391 68.31573 68.46758 68.6194 68.77124 68.92305 69.07489 69.22672 69.37856 69.53038 69.6822 69.83403 69.98587 70.1377 70.28954 70.44136 70.59319 70.74501 70.89685 71.04868 71.20052 71.35233 71.50417 71.65599 71.80783 71.95966 72.1115 72.2633 72.41515 72.56697 72.71881 72.87064 73.02246 73.17429 73.32613 73.47795 73.62979 73.78162 73.93344 74.08527 74.2371 74.38893 74.54077 74.69258 74.84442 74.99625 75.14809 75.29991 75.45174 75.60356 75.7554 75.90723 76.05907 76.21089 76.36272 76.51454 76.66638 76.8182 76.97005 77.12186 77.2737 77.42552 77.57736 77.72919 77.88103 78.03284 78.18468 78.3365 78.48834 78.64017 78.79199 78.94383 79.09566 79.2475 79.39932 79.55115 79.70297 79.85481 80.00664 80.15848 80.3103 80.46213 80.61397 80.7658 80.91763 81.06946 81.22128 81.37311 81.52495 81.67677 81.82861 81.98045 82.13226 82.2841 82.43593 82.58777 82.7396 82.89142 83.04324 83.19508 83.34691 83.49875 83.65057 83.8024 83.95424 84.10606 84.2579 84.40973 84.56155 84.71338 84.86522 85.01706 85.16888 85.32071 85.47253 85.62437 85.7762 85.92804 86.07988 86.23169 86.38351 86.53535 86.6872 86.83902 86.99084 87.14267 87.29451 87.44633 87.59818 87.75 87.90182 88.05367 88.20549 88.35733 88.50916 88.66098 88.8128 88.96465 89.11649 89.26831 89.42014 89.57196 89.7238 89.87563 90.02747 90.17929 90.33112 90.48294 90.63478 90.78662 90.93845 91.09027 91.2421 91.39394 91.54576 91.6976 91.84941 92.00125 92.15309 92.30492 92.45676 92.60858 92.7604 92.91223 93.06407 93.2159 93.36774 93.51955 93.67139 93.82323 93.97505 94.12689 94.27872 94.43054 94.58237 94.7342 94.88603 95.03787 95.1897"/>
<path transform="matrix(1.00005,0,0,-1.00002,1.0300999,162.59024)" stroke-width="1.59404" stroke-linecap="butt" stroke-miterlimit="10" stroke-linejoin="miter" fill="none" stroke="#0000ff" d="M97.13303 134.4919H97.28874 97.44447 97.60019 97.75592 97.91165 98.06737 98.22308 98.37881 98.53453 98.69026 98.846 99.00171 99.15744 99.31317 99.46887 99.6246 99.78032 99.93605 100.09178 100.2475 100.40323 100.55894 100.71466 100.87039 101.02612 101.18184 101.33757 101.49329 101.649 101.80473 101.96045 102.11618 102.27191 102.42763 102.58336 102.73906 102.89479 103.05052 103.20624 103.36197 103.5177 103.67342 103.82915 103.98486 104.14058 104.29631 104.45204 104.60776 104.76349 104.9192 105.07492 105.23065 105.38637 105.5421 105.69783 105.85355 106.00928 106.165 106.32071 106.47644 106.63216 106.78789 106.94362 107.09933 107.25505 107.41077 107.5665 107.72223 107.87794 108.03368 108.1894 108.34511 108.50084 108.65657 108.81229 108.96802 109.12375 109.27946 109.4352 109.59091 109.74663 109.90236 110.05807 110.2138 110.36954 110.52525 110.68097 110.83669 110.99242 111.14815 111.30386 111.4596 111.61533 111.77103 111.92676 112.08249 112.2382 112.39394 112.54965 112.70538 112.8611 113.01682 113.17255 113.32828 113.484 113.63972 113.79546 113.95117 114.10689 114.26262 114.41833 114.57407 114.72978 114.88551 115.04124 115.19695 115.35268 115.5084 115.66412 115.81985 115.97557 116.1313 116.28702 116.44273 116.59846 116.7542 116.90991 117.06564 117.22136 117.37708 117.53279 117.68852 117.84424 117.99997 118.15569 118.31142 118.46712 118.62285 118.77856 118.9343 119.09001 119.24574 119.40146 119.55719 119.71289 119.86862 120.02434 120.18007 120.3358 120.49152 120.64725 120.80295 120.95868 121.1144 121.27013 121.42584 121.58157 121.73729 121.893 122.04872 122.20445 122.36017 122.5159 122.67162 122.82735 122.98305 123.13878 123.2945 123.45023 123.60594 123.76167 123.91739 124.07312 124.22882 124.38455 124.54028 124.696 124.85173 125.00745 125.16318 125.31888 125.47461 125.63033 125.78606 125.94177 126.0975 126.25322 126.40894 126.56465 126.72038 126.8761 127.03183 127.18755 127.34328 127.49898 127.65471 127.81042 127.96616 128.12187 128.2776 128.43332 128.58905 128.74477 128.90048 129.05622 129.21193 129.36766 129.52338 129.67911 129.83481 129.99054 130.14626 130.30199 130.4577 130.61344 130.76915 130.92487 131.08058 131.23632 131.39203 131.54776 131.70348 131.8592 132.01491 132.17064 132.32636 132.48209 132.6378 132.79354 132.94925 133.10498 133.2607 133.41641 133.57215 133.72786 133.88359 134.0393 134.19504 134.35074 134.50647 134.66219 134.81792 134.97364 135.12937 135.28508 135.4408 135.59651 135.75225 135.90796 136.06369 136.2194 136.37514 136.53084 136.68657 136.84229 136.99802 137.15373 137.30947 137.4652 137.62091 137.77663 137.93235 138.08808 138.24379 138.39952 138.55524 138.71097 138.86667 139.0224 139.17812 139.33385 139.48957 139.6453 139.80101 139.95673 140.11244 140.26818 140.42389 140.57962 140.73534 140.89107 141.04677 141.2025 141.35822 141.51395 141.66968 141.8254 141.98113 142.13684 142.29256 142.44828 142.604 142.75972 142.91545 143.07117 143.2269 143.3826 143.53833 143.69405 143.84978 144.0055 144.16123 144.31694 144.47266 144.62837 144.7841 144.93982 145.09555 145.25127 145.407 145.5627 145.71843 145.87416 146.02988 146.18561 146.34133 146.49706 146.65276 146.80849 146.9642 147.11994 147.27565 147.43138 147.5871 147.74283 147.89853 148.05426 148.20998 148.3657 148.52143 148.67716 148.83287 148.98859 149.1443 149.30004 149.45575 149.61148 149.7672 149.92293 150.07863 150.23436 150.39009 150.5458 150.70154 150.85726 151.01299 151.16869 151.32442 151.48014 151.63587 151.79158 151.94731 152.10303 152.25876 152.41446 152.57019 152.7259 152.88164 153.03736 153.19309 153.3488 153.50452 153.66024 153.81597 153.97168 154.12741 154.28313 154.43886 154.59458 154.75029 154.90602 155.06174 155.21747 155.37319 155.52892 155.68462 155.84035 155.99607 156.1518 156.30751 156.46324 156.61896 156.77469 156.93039 157.08612 157.24184 157.39757 157.55329 157.70902 157.86473 158.02045 158.17617 158.3319 158.48761 158.64334 158.79907 158.95479 159.1105 159.26622 159.42195 159.57767 159.7334 159.88912 160.04485 160.20055 160.35628 160.512 160.66773 160.82344 160.97917 161.13489 161.29062 161.44632 161.60205 161.75777 161.9135 162.06922 162.22495 162.38066 162.53638 162.6921 162.84783 163.00356 163.15927 163.315 163.47072 163.62644 163.78215 163.93788 164.0936 164.24933 164.40505 164.56078 164.71648 164.87221 165.02793 165.18366 165.33937 165.4951 165.65082 165.80655 165.96225 166.11798 166.2737 166.42943 166.58515 166.74088 166.89659 167.0523 167.20803 167.36376 167.51949 167.6752 167.83094 167.98665 168.14237 168.29808 168.45381 168.60953 168.76526 168.92098 169.0767 169.2324 169.38814 169.54386 169.69959 169.8553 170.01103 170.16675 170.32248 170.47818 170.63391 170.78963 170.94536 171.10108 171.2568 171.41252 171.56824 171.72397 171.87969 172.03542 172.19113 172.34687 172.50258 172.6583 172.81401 172.96974 173.12546 173.28119 173.4369 173.59264 173.74834 173.90407 174.05979 174.21552 174.37123 174.52696 174.68268 174.83841"/>
<path transform="matrix(1.00005,0,0,-1.00002,1.0300999,162.59024)" stroke-width=".3985" stroke-linecap="butt" stroke-miterlimit="10" stroke-linejoin="miter" fill="none" stroke="#0000ff" d="M19.4266 134.4919"/>
</g>
<path transform="matrix(1.00005,0,0,-1.00002,1.0300999,162.59024)" d="M99.12558 134.4919C99.12558 135.59236 98.2335 136.48445 97.13303 136.48445 96.03256 136.48445 95.14047 135.59236 95.14047 134.4919 95.14047 133.39142 96.03256 132.49935 97.13303 132.49935 98.2335 132.49935 99.12558 133.39142 99.12558 134.4919ZM97.13303 134.4919" fill="#0000ff"/>
<path transform="matrix(1.00005,0,0,-1.00002,1.0300999,162.59024)" stroke-width=".3985" stroke-linecap="butt" stroke-miterlimit="10" stroke-linejoin="miter" fill="none" stroke="#0000ff" d="M99.12558 134.4919C99.12558 135.59236 98.2335 136.48445 97.13303 136.48445 96.03256 136.48445 95.14047 135.59236 95.14047 134.4919 95.14047 133.39142 96.03256 132.49935 97.13303 132.49935 98.2335 132.49935 99.12558 133.39142 99.12558 134.4919ZM97.13303 134.4919"/>
<path transform="matrix(1.00005,0,0,-1.00002,1.0300999,162.59024)" stroke-width=".3985" stroke-linecap="butt" stroke-miterlimit="10" stroke-linejoin="miter" fill="none" stroke="#0000ff" d=""/>
<path transform="matrix(1.00005,0,0,-1.00002,1.0300999,162.59024)" stroke-width=".3985" stroke-linecap="butt" stroke-miterlimit="10" stroke-linejoin="miter" fill="none" stroke="#0000ff" d="M99.12558 26.89838C99.12558 27.99884 98.2335 28.89093 97.13303 28.89093 96.03256 28.89093 95.14047 27.99884 95.14047 26.89838 95.14047 25.7979 96.03256 24.90582 97.13303 24.90582 98.2335 24.90582 99.12558 25.7979 99.12558 26.89838ZM97.13303 26.89838"/>
<path transform="matrix(1.00005,0,0,-1.00002,1.0300999,162.59024)" stroke-width=".3985" stroke-linecap="butt" stroke-miterlimit="10" stroke-linejoin="miter" fill="none" stroke="#0000ff" d=""/>
<path transform="matrix(1.00005,0,0,-1.00002,1.0300999,162.59024)" stroke-width=".3985" stroke-linecap="butt" stroke-miterlimit="10" stroke-linejoin="miter" fill="none" stroke="#0000ff" d=""/>
<use data-text="a" xlink:href="#font_4_1" transform="matrix(11.955797,0,0,-11.95544,9.506523,20.92241)" fill="#0000ff"/>
<use data-text="(" xlink:href="#font_2_1" transform="matrix(11.955797,0,0,-11.95544,15.651831,20.92241)" fill="#0000ff"/>
<use data-text="x" xlink:href="#font_4_3" transform="matrix(11.955797,0,0,-11.95544,20.20406,20.92241)" fill="#0000ff"/>
<use data-text=")" xlink:href="#font_2_2" transform="matrix(11.955797,0,0,-11.95544,26.856392,20.92241)" fill="#0000ff"/>
<path transform="matrix(1.00005,0,0,-1.00002,1.0300999,162.59024)" stroke-width=".3985" stroke-linecap="butt" stroke-miterlimit="10" stroke-linejoin="miter" fill="none" stroke="#0000ff" d=""/>
<use data-text="x" xlink:href="#font_4_3" transform="matrix(11.955797,0,0,-11.95544,184.50928,77.692539)"/>
<use data-text="y" xlink:href="#font_4_4" transform="matrix(11.955797,0,0,-11.95544,102.36816,10.493195)"/>
<path transform="matrix(1.00005,0,0,-1.00002,199.59903,162.59024)" stroke-width=".19925" stroke-linecap="butt" stroke-miterlimit="10" stroke-linejoin="miter" fill="none" stroke="#929292" d="M19.4266 78.56915V82.8211M58.27982 78.56915V82.8211M135.98625 78.56915V82.8211M174.83946 78.56915V82.8211"/>
<path transform="matrix(1.00005,0,0,-1.00002,199.59903,162.59024)" stroke-width=".19925" stroke-linecap="butt" stroke-miterlimit="10" stroke-linejoin="miter" fill="none" stroke="#929292" d="M95.00711 26.89838H99.25894M95.00711 134.4919H99.25894"/>
<path transform="matrix(1.00005,0,0,-1.00002,199.59903,162.59024)" stroke-width=".3985" stroke-linecap="butt" stroke-miterlimit="10" stroke-linejoin="miter" fill="none" stroke="#000000" d="M0 80.69513H192.27355"/>
<path transform="matrix(1.00005,0,0,-1.00002,391.88218,81.89349)" d="M1.99252 0-1.19551 1.59401 0 0-1.19551-1.59401"/>
<path transform="matrix(1.00005,0,0,-1.00002,199.59903,162.59024)" stroke-width=".3985" stroke-linecap="butt" stroke-miterlimit="10" stroke-linejoin="miter" fill="none" stroke="#000000" d="M97.13303 0V159.39775"/>
<path transform="matrix(0,-1.00002,-1.00005,-0,296.7369,3.1893006)" d="M1.99252 0-1.19551 1.59401 0 0-1.19551-1.59401"/>
<use data-text="&#x2212;" xlink:href="#font_1_1" transform="matrix(11.955797,0,0,-11.95544,211.45063,95.907909)"/>
<use data-text="4" xlink:href="#font_2_4" transform="matrix(11.955797,0,0,-11.95544,220.75008,95.907909)"/>
<use data-text="&#x2212;" xlink:href="#font_1_1" transform="matrix(11.955797,0,0,-11.95544,250.30556,95.907909)"/>
<use data-text="2" xlink:href="#font_2_3" transform="matrix(11.955797,0,0,-11.95544,259.605,95.907909)"/>
<use data-text="2" xlink:href="#font_2_3" transform="matrix(11.955797,0,0,-11.95544,332.66569,95.907909)"/>
<use data-text="4" xlink:href="#font_2_4" transform="matrix(11.955797,0,0,-11.95544,371.52064,95.907909)"/>
<use data-text="&#x2212;" xlink:href="#font_1_1" transform="matrix(11.955797,0,0,-11.95544,275.2748,139.04578)"/>
<use data-text="2" xlink:href="#font_2_3" transform="matrix(11.955797,0,0,-11.95544,284.57426,139.04578)"/>
<use data-text="2" xlink:href="#font_2_3" transform="matrix(11.955797,0,0,-11.95544,284.57328,31.947632)"/>
<g clip-path="url(#clip_5)">
<path transform="matrix(1.00005,0,0,-1.00002,199.59903,162.59024)" stroke-width="1.59404" stroke-linecap="butt" stroke-miterlimit="10" stroke-linejoin="miter" fill="none" stroke="#0000ff" d="M19.4266 26.89838 19.58232 27.11398 19.73804 27.32959 19.89375 27.5452 20.04948 27.76083 20.2052 27.97644 20.36093 28.19205 20.51665 28.40767 20.67238 28.62328 20.82808 28.8389 20.98381 29.05452 21.13953 29.27013 21.29526 29.48573 21.45097 29.70135 21.6067 29.91696 21.76242 30.13258 21.91814 30.3482 22.07385 30.56381 22.22958 30.77942 22.3853 30.99504 22.54103 31.21066 22.69675 31.42627 22.85248 31.64189 23.0082 31.8575 23.16391 32.0731 23.31963 32.28874 23.47536 32.50435 23.63107 32.71996 23.7868 32.93558 23.94254 33.15118 24.09825 33.3668 24.25397 33.58243 24.40968 33.79803 24.56541 34.01364 24.72113 34.22926 24.87686 34.44489 25.03258 34.66049 25.18831 34.87611 25.34401 35.09172 25.49974 35.30733 25.65546 35.52296 25.81119 35.73857 25.9669 35.95418 26.12263 36.1698 26.27835 36.3854 26.43407 36.60101 26.58978 36.81665 26.74551 37.03226 26.90123 37.24786 27.05696 37.46349 27.21268 37.6791 27.36841 37.89471 27.52412 38.11034 27.67984 38.32594 27.83556 38.54155 27.99129 38.75717 28.14702 38.9728 28.30273 39.1884 28.45847 39.40402 28.61418 39.61963 28.7699 39.83524 28.92561 40.05087 29.08134 40.26648 29.23706 40.48209 29.39279 40.69771 29.54851 40.91331 29.70424 41.12894 29.85994 41.34456 30.01567 41.56017 30.17139 41.77577 30.32712 41.9914 30.48283 42.20702 30.63857 42.42262 30.79428 42.63824 30.95 42.85385 31.10571 43.06946 31.26144 43.28508 31.41716 43.5007 31.57289 43.71631 31.7286 43.93193 31.88434 44.14754 32.04005 44.36314 32.19577 44.57878 32.3515 44.79439 32.50722 45.01 32.66295 45.22562 32.81866 45.44122 32.9744 45.65685 33.13011 45.87247 33.28583 46.08807 33.44154 46.30368 33.59727 46.5193 33.75299 46.73492 33.90872 46.95053 34.06444 47.16615 34.22017 47.38176 34.37587 47.59737 34.5316 47.813 34.68732 48.02861 34.84305 48.24422 34.99876 48.45984 35.1545 48.67545 35.31021 48.89105 35.46593 49.10669 35.62164 49.3223 35.77737 49.5379 35.93309 49.75352 36.08882 49.96913 36.24454 50.18475 36.40027 50.40038 36.55598 50.61598 36.7117 50.83159 36.86743 51.04721 37.02315 51.26283 37.17888 51.47844 37.3346 51.69406 37.49033 51.90967 37.64604 52.12527 37.80176 52.34091 37.95747 52.55652 38.1132 52.77213 38.26892 52.98775 38.42465 53.20335 38.58037 53.41898 38.7361 53.6346 38.8918 53.8502 39.04753 54.06581 39.20325 54.28143 39.35898 54.49706 39.5147 54.71266 39.67043 54.92828 39.82614 55.14389 39.98186 55.3595 40.13757 55.57512 40.2933 55.79074 40.44902 56.00635 40.60475 56.22197 40.76047 56.43758 40.9162 56.65318 41.07191 56.86882 41.22763 57.08443 41.38336 57.30003 41.53908 57.51566 41.69481 57.73126 41.85052 57.94688 42.00626 58.1625 42.16197 58.37811 42.31769 58.59372 42.4734 58.80934 42.62914 59.02496 42.78485 59.24057 42.94058 59.45619 43.0963 59.6718 43.25203 59.8874 43.40773 60.10304 43.56346 60.31865 43.71918 60.53426 43.87491 60.74988 44.03062 60.96548 44.18636 61.1811 44.34207 61.39673 44.49779 61.61234 44.6535 61.82794 44.80923 62.04356 44.96495 62.25917 45.12068 62.4748 45.27641 62.69041 45.43213 62.90602 45.58784 63.12163 45.74356 63.33725 45.89929 63.55287 46.05501 63.76848 46.21074 63.9841 46.36646 64.1997 46.52219 64.41531 46.6779 64.63095 46.83362 64.84656 46.98933 65.06216 47.14507 65.27779 47.30078 65.4934 47.45651 65.70901 47.61223 65.92464 47.76796 66.14024 47.92366 66.35585 48.07939 66.57147 48.2351 66.7871 48.39084 67.0027 48.54655 67.21832 48.70229 67.43393 48.858 67.64954 49.01372 67.86517 49.16943 68.08078 49.32516 68.29639 49.4809 68.51201 49.63661 68.72762 49.79234 68.94322 49.94806 69.15886 50.10378 69.37447 50.25949 69.59007 50.41522 69.8057 50.57094 70.0213 50.72667 70.23692 50.88239 70.45255 51.03812 70.66815 51.19383 70.88376 51.34955 71.09938 51.50526 71.315 51.661 71.53061 51.81671 71.74623 51.97244 71.96184 52.12816 72.17744 52.28389 72.39308 52.43959 72.60869 52.59532 72.8243 52.75104 73.03992 52.90677 73.25552 53.06248 73.47115 53.21822 73.68677 53.37393 73.90237 53.52965 74.11798 53.68536 74.3336 53.8411 74.54922 53.99683 74.76483 54.15254 74.98045 54.30827 75.19606 54.46399 75.41167 54.6197 75.62729 54.77542 75.84291 54.93115 76.05852 55.08687 76.27414 55.2426 76.48975 55.39832 76.70535 55.55405 76.92099 55.70976 77.1366 55.86548 77.3522 56.0212 77.56783 56.17693 77.78343 56.33264 77.99905 56.48837 78.21468 56.64409 78.43028 56.79982 78.64589 56.95552 78.86151 57.11125 79.07713 57.26697 79.29274 57.4227 79.50836 57.57841 79.72397 57.73415 79.93958 57.88986 80.15521 58.04558 80.37082 58.20131 80.58643 58.35703 80.80205 58.51276 81.01765 58.66847 81.23328 58.8242 81.4489 58.97992 81.6645 59.13564 81.88011 59.29135 82.09573 59.44708 82.31134 59.6028 82.52696 59.75853 82.74258 59.91425 82.95819 60.06998 83.1738 60.2257 83.38942 60.38141 83.60504 60.53712 83.82065 60.69286 84.03627 60.84857 84.25188 61.0043 84.46748 61.16002 84.68312 61.31575 84.89873 61.47145 85.11433 61.62718 85.32996 61.7829 85.54556 61.93863 85.76118 62.09435 85.9768 62.25008 86.19241 62.4058 86.40802 62.56151 86.62364 62.71724 86.83926 62.87296 87.05487 63.02869 87.2705 63.1844 87.4861 63.34013 87.7017 63.49585 87.91734 63.65157 88.13295 63.80728 88.34856 63.96301 88.56418 64.11873 88.77979 64.27446 88.99539 64.43018 89.21103 64.5859 89.42664 64.74162 89.64224 64.89734 89.85786 65.05305 90.07347 65.20879 90.2891 65.3645 90.50471 65.52023 90.72032 65.67595 90.93593 65.83168 91.15155 65.98738 91.36717 66.14311 91.58278 66.29883 91.7984 66.45456 92.014 66.61029 92.22961 66.766 92.44525 66.92174 92.66086 67.07744 92.87646 67.23317 93.09209 67.38889 93.3077 67.54462 93.52332 67.70033 93.73894 67.85606 93.95454 68.01178 94.17015 68.1675 94.38577 68.32321 94.60138 68.47894 94.817 68.63466 95.03262 68.79039 95.24823 68.9461 95.46384 69.10184 95.67946 69.25755 95.89508 69.41327 96.11069 69.56898 96.32631 69.72472 96.54192 69.88043 96.75752 70.03616 96.97316 70.19188 97.18877 70.34761 97.40437 70.50331 97.62 70.65904 97.8356 70.81476 98.05122 70.97049 98.26685 71.12622 98.48245 71.28194 98.69806 71.43767 98.91368 71.59337 99.1293 71.7491 99.34491 71.90482 99.56053 72.06055 99.77614 72.21626 99.99174 72.372 100.20738 72.52771 100.42299 72.68343 100.6386 72.83914 100.85422 72.99487 101.06982 73.15059 101.28543 73.30632 101.50107 73.46204 101.71667 73.61777 101.93228 73.77348 102.1479 73.9292 102.36351 74.08492 102.57913 74.24065 102.79475 74.39636 103.01036 74.5521 103.22597 74.70781 103.44159 74.86354 103.65721 75.01924 103.87282 75.17497 104.08844 75.3307 104.30405 75.48642 104.51965 75.64215 104.73529 75.79787 104.9509 75.9536 105.1665 76.1093 105.38213 76.26503 105.59773 76.42075 105.81335 76.57648 106.02898 76.7322 106.24458 76.88792 106.46019 77.04364 106.67581 77.19936 106.89143 77.35507 107.10704 77.5108 107.32266 77.66652 107.53827 77.82225 107.75389 77.97797 107.9695 78.1337 108.18512 78.2894 108.40074 78.44513 108.61635 78.60085 108.83195 78.75658 109.04758 78.9123 109.2632 79.06802 109.4788 79.22374 109.69443 79.37947 109.91003 79.53519 110.12564 79.6909 110.34128 79.84663 110.55688 80.00235 110.77249 80.15808 110.98811 80.3138 111.20372 80.46953 111.41934 80.62523 111.63496 80.78096 111.85057 80.93668 112.06618 81.0924 112.2818 81.24812 112.49742 81.40385 112.71303 81.55957 112.92865 81.71529 113.14426 81.871 113.35986 82.02673 113.5755 82.18245 113.7911 82.33818 114.00671 82.4939 114.22234 82.64963 114.43794 82.80533 114.65355 82.96106 114.86919 83.11678 115.0848 83.2725 115.3004 83.42822 115.51602 83.58395 115.73163 83.73969 115.94725 83.8954 116.16287 84.05112 116.37848 84.20683 116.59409 84.36256 116.80971 84.51828 117.02533 84.67401 117.24094 84.82973 117.45656 84.98546 117.67216 85.14116 117.88777 85.29689 118.10341 85.4526 118.31902 85.60834 118.53462 85.76405 118.75024 85.91978 118.96585 86.0755 119.18147 86.23122 119.3971 86.38693 119.6127 86.54266 119.82831 86.69838 120.04393 86.85411 120.25955 87.00983 120.47516 87.16556 120.69078 87.32126 120.90639 87.47699 121.122 87.6327 121.33762 87.78844 121.55324 87.94415 121.76884 88.09988 121.98447 88.25562 122.20007 88.41133 122.41568 88.56705 122.63132 88.72276 122.84692 88.8785 123.06253 89.03421 123.27815 89.18994 123.49376 89.34566 123.70938 89.50139 123.925 89.65709 124.14061 89.81282 124.35622 89.96854 124.57184 90.12427 124.78746 90.27998 125.00307 90.43571 125.21869 90.59143 125.4343 90.74715 125.6499 90.90286 125.86554 91.0586 126.08115 91.21431 126.29675 91.37004 126.51237 91.52576 126.72798 91.68149 126.9436 91.83719 127.15923 91.99292 127.37483 92.14864 127.59044 92.30437 127.80606 92.4601 128.02167 92.61581 128.23729 92.77155 128.45291 92.92726 128.66852 93.08298 128.88413 93.2387 129.09975 93.39442 129.31537 93.55014 129.53098 93.70587 129.7466 93.86159 129.9622 94.01732 130.17781 94.17302 130.39345 94.32875 130.60906 94.48447 130.82466 94.6402 131.04029 94.79591 131.25589 94.95164 131.47151 95.10736 131.68714 95.26308 131.90274 95.4188 132.11835 95.57452 132.33397 95.73024 132.54959 95.88597 132.7652 96.04169 132.98082 96.19742 133.19643 96.35312 133.41204 96.50885 133.62767 96.66458 133.84328 96.8203 134.05889 96.97603 134.2745 97.13174 134.49011"/>
<path transform="matrix(1.00005,0,0,-1.00002,199.59903,162.59024)" stroke-width="1.59404" stroke-linecap="butt" stroke-miterlimit="10" stroke-linejoin="miter" fill="none" stroke="#0000ff" d="M97.13303 134.4919 97.28874 134.27628 97.44447 134.06066 97.60019 133.84503 97.75592 133.62943 97.91165 133.4138 98.06737 133.1982 98.22308 132.98256 98.37881 132.76694 98.53453 132.55133 98.69026 132.33573 98.846 132.1201 99.00171 131.9045 99.15744 131.68886 99.31317 131.47324 99.46887 131.25763 99.6246 131.042 99.78032 130.8264 99.93605 130.61078 100.09178 130.39516 100.2475 130.17955 100.40323 129.96393 100.55894 129.74832 100.71466 129.53269 100.87039 129.31707 101.02612 129.10146 101.18184 128.88585 101.33757 128.67023 101.49329 128.4546 101.649 128.23899 101.80473 128.02338 101.96045 127.80775 102.11618 127.59215 102.27191 127.37651 102.42763 127.1609 102.58336 126.94528 102.73906 126.72968 102.89479 126.51405 103.05052 126.29845 103.20624 126.08281 103.36197 125.8672 103.5177 125.65158 103.67342 125.43597 103.82915 125.22035 103.98486 125.00473 104.14058 124.78911 104.29631 124.5735 104.45204 124.35788 104.60776 124.14227 104.76349 123.92664 104.9192 123.71103 105.07492 123.4954 105.23065 123.2798 105.38637 123.06418 105.5421 122.84856 105.69783 122.63293 105.85355 122.41733 106.00928 122.2017 106.165 121.9861 106.32071 121.77046 106.47644 121.55486 106.63216 121.33923 106.78789 121.12363 106.94362 120.908 107.09933 120.6924 107.25505 120.47676 107.41077 120.26115 107.5665 120.04553 107.72223 119.82993 107.87794 119.6143 108.03368 119.39868 108.1894 119.18306 108.34511 118.96745 108.50084 118.75183 108.65657 118.53622 108.81229 118.32059 108.96802 118.10498 109.12375 117.88936 109.27946 117.67375 109.4352 117.45813 109.59091 117.24251 109.74663 117.02689 109.90236 116.81128 110.05807 116.59566 110.2138 116.38005 110.36954 116.16441 110.52525 115.9488 110.68097 115.7332 110.83669 115.51758 110.99242 115.30196 111.14815 115.08633 111.30386 114.87071 111.4596 114.6551 111.61533 114.43948 111.77103 114.22388 111.92676 114.00826 112.08249 113.79263 112.2382 113.57703 112.39394 113.3614 112.54965 113.14578 112.70538 112.93018 112.8611 112.71454 113.01682 112.49893 113.17255 112.28331 113.32828 112.0677 113.484 111.8521 113.63972 111.63646 113.79546 111.42085 113.95117 111.20523 114.10689 110.98961 114.26262 110.774 114.41833 110.55836 114.57407 110.34276 114.72978 110.12715 114.88551 109.91153 115.04124 109.69592 115.19695 109.48029 115.35268 109.26468 115.5084 109.04906 115.66412 108.83344 115.81985 108.61783 115.97557 108.40222 116.1313 108.18658 116.28702 107.97098 116.44273 107.75536 116.59846 107.53973 116.7542 107.32413 116.90991 107.1085 117.06564 106.89288 117.22136 106.67728 117.37708 106.46167 117.53279 106.24605 117.68852 106.03043 117.84424 105.81482 117.99997 105.5992 118.15569 105.38359 118.31142 105.16798 118.46712 104.95235 118.62285 104.73674 118.77856 104.52113 118.9343 104.30551 119.09001 104.0899 119.24574 103.87428 119.40146 103.65866 119.55719 103.44305 119.71289 103.22745 119.86862 103.01183 120.02434 102.7962 120.18007 102.5806 120.3358 102.36497 120.49152 102.14937 120.64725 101.93376 120.80295 101.71814 120.95868 101.50252 121.1144 101.28691 121.27013 101.07129 121.42584 100.85568 121.58157 100.64008 121.73729 100.42444 121.893 100.20883 122.04872 99.99323 122.20445 99.7776 122.36017 99.562 122.5159 99.34637 122.67162 99.13075 122.82735 98.91515 122.98305 98.69954 123.13878 98.48392 123.2945 98.2683 123.45023 98.05269 123.60594 97.83707 123.76167 97.62146 123.91739 97.40585 124.07312 97.19022 124.22882 96.97461 124.38455 96.759 124.54028 96.54338 124.696 96.32777 124.85173 96.11215 125.00745 95.89653 125.16318 95.68092 125.31888 95.46532 125.47461 95.2497 125.63033 95.03409 125.78606 94.81847 125.94177 94.60284 126.0975 94.38724 126.25322 94.17163 126.40894 93.95601 126.56465 93.74039 126.72038 93.52478 126.8761 93.30916 127.03183 93.09355 127.18755 92.87794 127.34328 92.66231 127.49898 92.4467 127.65471 92.2311 127.81042 92.01547 127.96616 91.79987 128.12187 91.58424 128.2776 91.36862 128.43332 91.15302 128.58905 90.93741 128.74477 90.72179 128.90048 90.50616 129.05622 90.29056 129.21193 90.07494 129.36766 89.85933 129.52338 89.64372 129.67911 89.42809 129.83481 89.21248 129.99054 88.99687 130.14626 88.78125 130.30199 88.56564 130.4577 88.35004 130.61344 88.1344 130.76915 87.9188 130.92487 87.70319 131.08058 87.48756 131.23632 87.27196 131.39203 87.05634 131.54776 86.84071 131.70348 86.6251 131.8592 86.4095 132.01491 86.19388 132.17064 85.97826 132.32636 85.76265 132.48209 85.54703 132.6378 85.33142 132.79354 85.11581 132.94925 84.90018 133.10498 84.68457 133.2607 84.46896 133.41641 84.25334 133.57215 84.03773 133.72786 83.82211 133.88359 83.60649 134.0393 83.39088 134.19504 83.17528 134.35074 82.95966 134.50647 82.74405 134.66219 82.52843 134.81792 82.3128 134.97364 82.0972 135.12937 81.88159 135.28508 81.66597 135.4408 81.45035 135.59651 81.23474 135.75225 81.01912 135.90796 80.80351 136.06369 80.5879 136.2194 80.37227 136.37514 80.15666 136.53084 79.94106 136.68657 79.72543 136.84229 79.50983 136.99802 79.2942 137.15373 79.07858 137.30947 78.86298 137.4652 78.64737 137.62091 78.43175 137.77663 78.21613 137.93235 78.00052 138.08808 77.7849 138.24379 77.56929 138.39952 77.35368 138.55524 77.13805 138.71097 76.92244 138.86667 76.70683 139.0224 76.49121 139.17812 76.2756 139.33385 76.06 139.48957 75.84436 139.6453 75.62875 139.80101 75.41315 139.95673 75.19753 140.11244 74.98192 140.26818 74.7663 140.42389 74.55067 140.57962 74.33507 140.73534 74.11946 140.89107 73.90384 141.04677 73.68822 141.2025 73.47261 141.35822 73.25699 141.51395 73.04138 141.66968 72.82578 141.8254 72.61014 141.98113 72.39453 142.13684 72.17892 142.29256 71.9633 142.44828 71.7477 142.604 71.53207 142.75972 71.31645 142.91545 71.10085 143.07117 70.88524 143.2269 70.66962 143.3826 70.454 143.53833 70.23839 143.69405 70.02277 143.84978 69.80716 144.0055 69.59155 144.16123 69.37593 144.31694 69.16031 144.47266 68.9447 144.62837 68.72908 144.7841 68.51347 144.93982 68.29787 145.09555 68.08223 145.25127 67.86662 145.407 67.65102 145.5627 67.4354 145.71843 67.21979 145.87416 67.00417 146.02988 66.78854 146.18561 66.57294 146.34133 66.35733 146.49706 66.14171 146.65276 65.92609 146.80849 65.71048 146.9642 65.49486 147.11994 65.27925 147.27565 65.06364 147.43138 64.848 147.5871 64.6324 147.74283 64.4168 147.89853 64.20117 148.05426 63.98557 148.20998 63.76994 148.3657 63.55432 148.52143 63.33871 148.67716 63.12311 148.83287 62.90749 148.98859 62.69188 149.1443 62.47626 149.30004 62.26064 149.45575 62.04503 149.61148 61.82942 149.7672 61.6138 149.92293 61.39818 150.07863 61.18257 150.23436 60.96695 150.39009 60.75134 150.5458 60.53574 150.70154 60.3201 150.85726 60.10449 151.01299 59.88889 151.16869 59.67326 151.32442 59.45766 151.48014 59.24203 151.63587 59.02641 151.79158 58.8108 151.94731 58.5952 152.10303 58.37958 152.25876 58.16396 152.41446 57.94835 152.57019 57.73273 152.7259 57.51712 152.88164 57.30151 153.03736 57.08588 153.19309 56.87027 153.3488 56.65466 153.50452 56.43904 153.66024 56.22343 153.81597 56.00783 153.97168 55.79219 154.12741 55.57658 154.28313 55.36098 154.43886 55.14536 154.59458 54.92975 154.75029 54.71413 154.90602 54.4985 155.06174 54.2829 155.21747 54.06729 155.37319 53.85167 155.52892 53.63605 155.68462 53.42044 155.84035 53.20482 155.99607 52.98921 156.1518 52.7736 156.30751 52.55797 156.46324 52.34236 156.61896 52.12675 156.77469 51.91113 156.93039 51.69553 157.08612 51.4799 157.24184 51.26428 157.39757 51.04868 157.55329 50.83307 157.70902 50.61746 157.86473 50.40182 158.02045 50.18622 158.17617 49.97061 158.3319 49.75499 158.48761 49.53938 158.64334 49.32378 158.79907 49.10814 158.95479 48.89253 159.1105 48.67693 159.26622 48.4613 159.42195 48.2457 159.57767 48.03008 159.7334 47.81445 159.88912 47.59885 160.04485 47.38324 160.20055 47.16762 160.35628 46.952 160.512 46.73639 160.66773 46.52077 160.82344 46.30516 160.97917 46.08955 161.13489 45.87392 161.29062 45.65831 161.44632 45.4427 161.60205 45.22708 161.75777 45.01147 161.9135 44.79585 162.06922 44.58023 162.22495 44.36462 162.38066 44.14902 162.53638 43.9334 162.6921 43.71777 162.84783 43.50217 163.00356 43.28654 163.15927 43.07094 163.315 42.85533 163.47072 42.63971 163.62644 42.42409 163.78215 42.20848 163.93788 41.99286 164.0936 41.77725 164.24933 41.56165 164.40505 41.34601 164.56078 41.1304 164.71648 40.9148 164.87221 40.69917 165.02793 40.48357 165.18366 40.26794 165.33937 40.05232 165.4951 39.83672 165.65082 39.62111 165.80655 39.40549 165.96225 39.18987 166.11798 38.97426 166.2737 38.75864 166.42943 38.54303 166.58515 38.32742 166.74088 38.11179 166.89659 37.89618 167.0523 37.68057 167.20803 37.46495 167.36376 37.24934 167.51949 37.03372 167.6752 36.8181 167.83094 36.6025 167.98665 36.38689 168.14237 36.17126 168.29808 35.95566 168.45381 35.74004 168.60953 35.52441 168.76526 35.3088 168.92098 35.0932 169.0767 34.87758 169.2324 34.66196 169.38814 34.44635 169.54386 34.23073 169.69959 34.01512 169.8553 33.79951 170.01103 33.58388 170.16675 33.36827 170.32248 33.15266 170.47818 32.93704 170.63391 32.72144 170.78963 32.50581 170.94536 32.29019 171.10108 32.07458 171.2568 31.85898 171.41252 31.64336 171.56824 31.42773 171.72397 31.21213 171.87969 30.9965 172.03542 30.7809 172.19113 30.56529 172.34687 30.34967 172.50258 30.13405 172.6583 29.91844 172.81401 29.70282 172.96974 29.48721 173.12546 29.2716 173.28119 29.05597 173.4369 28.84036 173.59264 28.62476 173.74834 28.40913 173.90407 28.19353 174.05979 27.9779 174.21552 27.76228 174.37123 27.54668 174.52696 27.33107 174.68268 27.11545 174.83841 26.89983"/>
<path transform="matrix(1.00005,0,0,-1.00002,199.59903,162.59024)" stroke-width=".3985" stroke-linecap="butt" stroke-miterlimit="10" stroke-linejoin="miter" fill="none" stroke="#0000ff" d="M174.83946 134.4919"/>
</g>
<path transform="matrix(1.00005,0,0,-1.00002,199.59903,162.59024)" stroke-width=".3985" stroke-linecap="butt" stroke-miterlimit="10" stroke-linejoin="miter" fill="none" stroke="#0000ff" d=""/>
<use data-text="b" xlink:href="#font_4_2" transform="matrix(11.955797,0,0,-11.95544,364.07923,20.92241)" fill="#0000ff"/>
<use data-text="(" xlink:href="#font_2_1" transform="matrix(11.955797,0,0,-11.95544,369.0565,20.92241)" fill="#0000ff"/>
<use data-text="x" xlink:href="#font_4_3" transform="matrix(11.955797,0,0,-11.95544,373.6097,20.92241)" fill="#0000ff"/>
<use data-text=")" xlink:href="#font_2_2" transform="matrix(11.955797,0,0,-11.95544,380.26203,20.92241)" fill="#0000ff"/>
<path transform="matrix(1.00005,0,0,-1.00002,199.59903,162.59024)" stroke-width=".3985" stroke-linecap="butt" stroke-miterlimit="10" stroke-linejoin="miter" fill="none" stroke="#0000ff" d=""/>
<use data-text="x" xlink:href="#font_4_3" transform="matrix(11.955797,0,0,-11.95544,383.0782,77.692539)"/>
<use data-text="y" xlink:href="#font_4_4" transform="matrix(11.955797,0,0,-11.95544,300.93708,10.493195)"/>
</svg>
