<svg xmlns="http://www.w3.org/2000/svg" xmlns:xlink="http://www.w3.org/1999/xlink" version="1.1" width="134" height="117" viewBox="0 0 134 117">
<defs>
<path id="font_1_1" d="M.28799439 .64105227C.28799439 .664032 .28799439 .66503909 .2679901 .66503909 .24398804 .6380615 .19400025 .6012573 .09098816 .6012573V.5722656C.11399841 .5722656 .1639862 .5722656 .21899414 .59825137V.07701111C.21899414 .041000368 .21598816 .0289917 .12799073 .0289917H.09700012V0C.12399292 .0019989014 .22099304 .0019989014 .2539978 .0019989014 .2869873 .0019989014 .3829956 .0019989014 .4099884 0V.0289917H.3789978C.29100038 .0289917 .28799439 .041000368 .28799439 .07701111V.64105227Z"/>
<path id="font_1_2" d="M.43998719 .16790772H.41799928C.4149933 .15092469 .40699769 .09597778 .39698792 .07998657 .3899994 .070999149 .33299256 .070999149 .30299378 .070999149H.117996219C.14498902 .09397888 .20599365 .15792847 .23199463 .18190003 .38398744 .3217926 .43998719 .37374879 .43998719 .47270204 .43998719 .5878906 .34899903 .66503909 .23298645 .66503909 .116989139 .66503909 .04899597 .5658264 .04899597 .4797058 .04899597 .42871095 .09298706 .42871095 .09599304 .42871095 .116989139 .42871095 .14299011 .44371034 .14299011 .475708 .14299011 .5037079 .12399292 .5227051 .09599304 .5227051 .08699036 .5227051 .084991458 .5227051 .08198547 .521698 .100997928 .5899048 .15499878 .6360321 .21998596 .6360321 .30499269 .6360321 .35699464 .56481936 .35699464 .47270204 .35699464 .3877411 .30799867 .313797 .25099183 .24984741L.04899597 .023986817V0H.4139862L.43998719 .16790772Z"/>
<path id="font_1_3" d="M.18399048 .35888673C.16699219 .35787965 .16299439 .35688783 .16299439 .34788514 .16299439 .33789063 .16799927 .33789063 .18598938 .33789063H.23199463C.31698609 .33789063 .35499574 .267807 .35499574 .17172241 .35499574 .04058838 .2869873 .005508423 .23799134 .005508423 .18998719 .005508423 .10798645 .028564454 .07899475 .09472656 .11099243 .08970642 .13999939 .10771179 .13999939 .14372254 .13999939 .17271424 .11898804 .1927185 .09098816 .1927185 .066986087 .1927185 .040985109 .1787262 .040985109 .14071656 .040985109 .051620485 .12998963-.021484375 .24099732-.021484375 .3600006-.021484375 .44799806 .06965637 .44799806 .17071533 .44799806 .26280213 .37399293 .33488465 .27799989 .35188294 .36499024 .3769226 .42099 .45011903 .42099 .5282135 .42099 .6071167 .33898927 .66503909 .24198914 .66503909 .14199829 .66503909 .067993167 .604126 .067993167 .5312042 .067993167 .49121095 .09899902 .48321534 .11399841 .48321534 .1349945 .48321534 .15899658 .49821473 .15899658 .5282135 .15899658 .5602112 .1349945 .57421877 .11299133 .57421877 .10699463 .57421877 .10499573 .57421877 .101989749 .57321169 .13999939 .641037 .23399353 .641037 .23899842 .641037 .27198792 .641037 .33699037 .6260681 .33699037 .5282135 .33699037 .5092163 .33399964 .453125 .30499269 .41001893 .2749939 .3658905 .24099732 .36288453 .21398926 .36187745L.18399048 .35888673Z"/>
<path id="font_1_4" d="M.36099244 .6508026C.36099244 .6697998 .36099244 .6748047 .34700013 .6748047 .33898927 .6748047 .33599855 .6748047 .32798768 .662796L.026992798 .19598389V.16699219H.2899933V.07598877C.2899933 .038986207 .28799439 .0289917 .21499634 .0289917H.19499207V0C.21798706 .0019989014 .29699708 .0019989014 .32499696 .0019989014 .35299684 .0019989014 .43299867 .0019989014 .45599366 0V.0289917H.43598939C.3639984 .0289917 .36099244 .038986207 .36099244 .07598877V.16699219H.46199037V.19598389H.36099244V.6508026M.29499818 .5728302V.19598389H.051986696L.29499818 .5728302Z"/>
<path id="font_1_5" d="M.12799073 .5727997C.17098999 .5588074 .20599365 .5578003 .21699524 .5578003 .32998658 .5578003 .4019928 .6409912 .4019928 .6550598 .4019928 .6590576 .3999939 .6640625 .3939972 .6640625 .3919983 .6640625 .3899994 .6640625 .3809967 .66004946 .32499696 .6358795 .2769928 .6328125 .25099183 .6328125 .18499756 .6328125 .13798523 .6530609 .11898804 .6610565 .11199951 .6640625 .10998535 .6640625 .10899353 .6640625 .100997928 .6640625 .100997928 .65805056 .100997928 .64201357V.34495545C.100997928 .32695008 .100997928 .32095338 .11299133 .32095338 .117996219 .32095338 .11898804 .32196046 .1289978 .33395387 .15699768 .37493897 .20399475 .39894105 .2539978 .39894105 .30699159 .39894105 .33299256 .34994508 .34098817 .33294679 .35798646 .29396058 .35899354 .2449646 .35899354 .20697022 .35899354 .16897583 .35899354 .11193848 .33099366 .0667572 .30899049 .03060913 .269989 .005508423 .22599793 .005508423 .1599884 .005508423 .09498596 .050689699 .07699585 .12397766 .08198547 .12197876 .08799744 .12097168 .09298706 .12097168 .10998535 .12097168 .13699341 .13098145 .13699341 .16497803 .13699341 .1929779 .117996219 .20898438 .09298706 .20898438 .07499695 .20898438 .04899597 .19998169 .04899597 .16098023 .04899597 .075790408 .116989139-.021484375 .22799683-.021484375 .34098817-.021484375 .43998719 .073791507 .43998719 .20097351 .43998719 .3199463 .3600006 .4189453 .25498963 .4189453 .19799805 .4189453 .1539917 .39393617 .12799073 .36595155V.5727997Z"/>
<path id="font_2_1" d="M.6589966 .23046875C.6759949 .23046875 .69400027 .23046875 .69400027 .25045777 .69400027 .27046205 .6759949 .27046205 .6589966 .27046205H.117996219C.100997928 .27046205 .08299255 .27046205 .08299255 .25045777 .08299255 .23046875 .100997928 .23046875 .117996219 .23046875H.6589966Z"/>
<clipPath id="clip_3">
<path transform="matrix(.600054,0,0,-.60001209,14.098738,97.96055)" d="M0 0H194.272V161.39922H0Z"/>
</clipPath>
<path id="font_4_1" d="M.47399903 .40820313C.44198609 .40219117 .42999269 .3781891 .42999269 .3591919 .42999269 .33518983 .44898988 .3271942 .46299745 .3271942 .49299623 .3271942 .5139923 .3531952 .5139923 .380188 .5139923 .4223938 .46598817 .44140626 .42399598 .44140626 .36299134 .44140626 .32899476 .38119508 .31999208 .36219789 .29699708 .4373932 .23498535 .44140626 .21699524 .44140626 .114990238 .44140626 .06098938 .31021119 .06098938 .28822328 .06098938 .28422547 .06498718 .27923585 .07199097 .27923585 .07998657 .27923585 .08198547 .28523255 .083999637 .2892151 .117996219 .40019227 .18499756 .42140199 .21398926 .42140199 .25898744 .42140199 .2679901 .37919618 .2679901 .3551941 .2679901 .33319093 .2619934 .31021119 .25 .26223756L.21598816 .12535095C.20098877 .06535339 .17199707 .010223389 .11898804 .010223389 .11399841 .010223389 .08898926 .010223389 .067993167 .023330689 .10398865 .03036499 .11199951 .06036377 .11199951 .07235718 .11199951 .09236145 .09700012 .10435486 .07798767 .10435486 .053985597 .10435486 .027999878 .083358768 .027999878 .051361085 .027999878 .009231567 .07499695-.009765625 .117996219-.009765625 .1659851-.009765625 .19999695 .028366089 .22099304 .069366458 .23699951 .010223389 .2869873-.009765625 .32398988-.009765625 .42599488-.009765625 .47999574 .12135315 .47999574 .1433258 .47999574 .14833069 .47599793 .15232849 .46998597 .15232849 .46099855 .15232849 .45999146 .14732361 .45700074 .139328 .42999269 .051361085 .37199403 .010223389 .32699586 .010223389 .2919922 .010223389 .272995 .036361696 .272995 .07736206 .272995 .099365238 .2769928 .115356449 .29299928 .18130493L.32798768 .3171997C.34298707 .37719728 .3769989 .42140199 .4229889 .42140199 .4249878 .42140199 .45298768 .42140199 .47399903 .40820313Z"/>
<path id="font_4_2" d="M.2630005-.11172485C.23599243-.14982605 .19699097-.18411255 .147995-.18411255 .13598633-.18411255 .08799744-.18209839 .07299805-.13572693 .07598877-.13671875 .08099365-.13671875 .08299255-.13671875 .11299133-.13671875 .1329956-.11073303 .1329956-.08772278 .1329956-.06472778 .11399841-.056732179 .09899902-.056732179 .08299255-.056732179 .04798889-.068725589 .04798889-.11772156 .04798889-.16899109 .09098816-.20410156 .147995-.20410156 .24798584-.20410156 .34899903-.11172485 .3769989-.00077819827L.47499085 .38868714C.47599793 .39367677 .47799684 .39967347 .47799684 .4056549 .47799684 .4206543 .46598817 .43066407 .45098878 .43066407 .44198609 .43066407 .42099 .426651 .41299439 .39666749L.33898927 .10308838C.33399964 .085113529 .33399964 .08312988 .32598878 .072143558 .30599977 .04423523 .272995 .010223389 .22499085 .010223389 .16899109 .010223389 .1639862 .06524658 .1639862 .09225464 .1639862 .14929199 .19099427 .22631836 .21798706 .2983551 .22898865 .32736207 .23498535 .34136964 .23498535 .3613739 .23498535 .4033966 .20498657 .44140626 .1559906 .44140626 .06399536 .44140626 .026992798 .29634095 .026992798 .28834535 .026992798 .28434754 .0309906 .27934266 .037994386 .27934266 .04699707 .27934266 .04798889 .28334046 .051986696 .29734803 .07598877 .38137818 .11399841 .42140199 .15299988 .42140199 .1619873 .42140199 .1789856 .42140199 .1789856 .38838197 .1789856 .36238099 .16799927 .33335877 .15299988 .29534913 .10398865 .16429138 .10398865 .13127136 .10398865 .10726929 .10398865 .01222229 .17199707-.009765625 .22200012-.009765625 .25099183-.009765625 .2869873-.00077819827 .32199098 .036239625L.32299806 .035232545C.30799867-.023757935 .2979889-.06272888 .2630005-.11172485Z"/>
</defs>
<path transform="matrix(.600054,0,0,-.60001209,14.098738,97.96055)" stroke-width=".19925" stroke-linecap="butt" stroke-miterlimit="10" stroke-linejoin="miter" fill="none" stroke="#929292" d="M38.54294 117.47485V121.72688M77.4752 117.47485V121.72688M116.40747 117.47485V121.72688M155.33974 117.47485V121.72688M194.272 117.47485V121.72688"/>
<path transform="matrix(.600054,0,0,-.60001209,14.098738,97.96055)" stroke-width=".19925" stroke-linecap="butt" stroke-miterlimit="10" stroke-linejoin="miter" fill="none" stroke="#929292" d="M-2.12593 15.71663H2.12593M-2.12593 67.65875H2.12593"/>
<path transform="matrix(.600054,0,0,-.60001209,14.098738,97.96055)" stroke-width=".3985" stroke-linecap="butt" stroke-miterlimit="10" stroke-linejoin="miter" fill="none" stroke="#000000" d="M0 119.60088H192.27948"/>
<path transform="matrix(.600054,0,0,-.60001209,129.4768,26.198578)" d="M1.99252 0-1.19551 1.59401 0 0-1.19551-1.59401"/>
<path transform="matrix(.600054,0,0,-.60001209,14.098738,97.96055)" stroke-width=".3985" stroke-linecap="butt" stroke-miterlimit="10" stroke-linejoin="miter" fill="none" stroke="#000000" d="M0 0V159.4067"/>
<path transform="matrix(0,-.60001209,-.600054,-0,14.098738,2.3146134)" d="M1.99252 0-1.19551 1.59401 0 0-1.19551-1.59401"/>
<use data-text="1" xlink:href="#font_1_1" transform="matrix(7.173766,0,0,-7.1732647,35.47026,34.607675)"/>
<use data-text="2" xlink:href="#font_1_2" transform="matrix(7.173766,0,0,-7.1732647,58.83217,34.607675)"/>
<use data-text="3" xlink:href="#font_1_3" transform="matrix(7.173766,0,0,-7.1732647,82.193477,34.607675)"/>
<use data-text="4" xlink:href="#font_1_4" transform="matrix(7.173766,0,0,-7.1732647,105.55477,34.607675)"/>
<use data-text="5" xlink:href="#font_1_5" transform="matrix(7.173766,0,0,-7.1732647,128.91608,34.607675)"/>
<use data-text="&#x2212;" xlink:href="#font_2_1" transform="matrix(7.173766,0,0,-7.1732647,1.2203789,90.5426)"/>
<use data-text="4" xlink:href="#font_1_4" transform="matrix(7.173766,0,0,-7.1732647,6.799679,90.5426)"/>
<use data-text="&#x2212;" xlink:href="#font_2_1" transform="matrix(7.173766,0,0,-7.1732647,1.2203789,59.376775)"/>
<use data-text="2" xlink:href="#font_1_2" transform="matrix(7.173766,0,0,-7.1732647,6.799679,59.376775)"/>
<g clip-path="url(#clip_3)">
<path transform="matrix(.600054,0,0,-.60001209,14.098738,97.96055)" stroke-width="1.59404" stroke-linecap="butt" stroke-miterlimit="10" stroke-linejoin="miter" fill="none" stroke="#0000ff" d="M0 0 .38931 17.99922 .77864 28.53128 1.16795 36.00342 1.55728 41.79834 1.94661 46.53311 2.33592 50.53447 2.72525 54.00499 3.11458 57.0636 3.50389 59.80043 3.89322 62.27522 4.28255 64.53468 4.67186 66.6142 5.06119 68.53813 5.45052 70.33014 5.83983 72.00528 6.22916 73.57886 6.61848 75.06465 7.0078 76.46788 7.39713 77.79967 7.78645 79.06862 8.17577 80.27654 8.5651 81.4312 8.9544 82.53653 9.34373 83.5972 9.73306 84.61578 10.12238 85.59514 10.5117 86.53972 10.90103 87.45183 11.29034 88.33171 11.67967 89.182 12.069 90.00659 12.45831 90.80545 12.84764 91.58069 13.23697 92.33308 13.62628 93.06624 14.01561 93.77759 14.40494 94.46947 14.79425 95.1447 15.18358 95.80385 15.5729 96.44455 15.96222 97.06967 16.35155 97.68103 16.74086 98.27838 17.13019 98.86246 17.51952 99.43304 17.90883 99.99168 18.29816 100.53812 18.68748 101.07364 19.0768 101.59879 19.46613 102.11275 19.85545 102.6171 20.24477 103.11185 20.6341 103.59673 21.02342 104.07356 21.41273 104.54155 21.80206 105.00047 22.19139 105.4534 22.5807 105.89645 22.97003 106.33356 23.35936 106.76207 23.74867 107.1836 24.138 107.59964 24.52731 108.00818 24.91664 108.41124 25.30597 108.8073 25.69528 109.19868 26.08461 109.58228 26.47394 109.96275 26.86325 110.33492 27.25258 110.70319 27.6419 111.06653 28.03122 111.42337 28.42055 111.77942 28.80988 112.12485 29.19919 112.4713 29.58852 112.80737 29.97784 113.14655 30.36716 113.47429 30.75648 113.8057 31.14581 114.12773 31.53513 114.4464 31.92445 114.76091 32.31377 115.07126 32.7031 115.37927 33.09242 115.68288 33.48174 115.98311 33.87106 116.27995 34.26039 116.57317 34.6497 116.86404 35.03903 117.1505 35.42836 117.43488 35.81767 117.71538 36.207 117.99352 36.59633 118.26855 36.98564 118.53996 37.37497 118.80902 37.7643 119.07549 38.15361 119.33934 38.54294 119.60088 38.93227 119.85876 39.32158 120.1151 39.7109 120.3678 40.10022 120.61842 40.48955 120.8675 40.87888 121.11342 41.26819 121.35756 41.65752 121.59933 42.04684 121.83829 42.43616 122.07567 42.82549 122.3107 43.21481 122.54366 43.60413 122.77454 43.99345 123.00334 44.38278 123.23007 44.7721 123.45497 45.16142 123.67833 45.55075 123.89934 45.94006 124.11853 46.32939 124.33539 46.71872 124.55173 47.10803 124.76495 47.49736 124.97688 47.88667 125.18726 48.276 125.3958 48.66533 125.60278 49.05464 125.80795 49.44397 126.0121 49.8333 126.21362 50.22261 126.41464 50.61194 126.61305 51.00127 126.81018 51.39058 127.00626 51.7799 127.20209 52.16924 127.39479 52.55855 127.58646 52.94788 127.7763 53.3372 127.96484 53.72652 128.15236 54.11584 128.33858 54.50517 128.52376 54.89449 128.7071 55.28381 128.88813 55.67313 129.07019 56.06245 129.25043 56.45178 129.42807 56.8411 129.6052 57.23042 129.78076 57.61975 129.9558 58.00906 130.13059 58.39839 130.30225 58.78772 130.4734 59.17703 130.64377 59.56636 130.81337 59.95569 130.98062 60.345 131.14865 60.73433 131.3146 61.12366 131.48003 61.51297 131.64237 61.9023 131.80573 62.29163 131.96674 62.68094 132.12906 63.07027 132.28878 63.45958 132.44643 63.8489 132.60433 64.23824 132.76067 64.62755 132.91936 65.01688 133.07309 65.4062 133.22788 65.79552 133.37929 66.18484 133.5315 66.57417 133.68343 66.96349 133.83562 67.35281 133.98416 67.74214 134.13195 68.13145 134.27973 68.52078 134.4275 68.91011 134.57424 69.29942 134.71993 69.68875 134.8651 70.07808 135.0082 70.46739 135.15027 70.85672 135.29103 71.24603 135.43622 71.63536 135.5749 72.02469 135.71514 72.414 135.85382 72.80333 135.99121 73.19266 136.13144 73.58197 136.26833 73.9713 136.4039 74.36063 136.53868 74.74994 136.67322 75.13927 136.80567 75.5286 136.94356 75.91791 137.07524 76.30724 137.2051 76.69656 137.33834 77.08588 137.4674 77.4752 137.60012 77.86453 137.73178 78.25385 137.86061 78.64317 137.98889 79.0325 138.11617 79.42181 138.24343 79.81114 138.36937 80.20045 138.49585 80.58978 138.62027 80.97911 138.74518 81.36842 138.86907 81.75775 138.99192 82.14708 139.11528 82.53639 139.2376 82.92572 139.35887 83.31505 139.4799 83.70436 139.6012 84.09369 139.72039 84.48302 139.84012 84.87233 139.9588 85.26166 140.07698 85.65099 140.19463 86.0403 140.31253 86.42963 140.42942 86.81895 140.54549 87.20827 140.66107 87.5976 140.7756 87.98691 140.89092 88.37624 141.00519 88.76556 141.11843 89.15488 141.2319 89.5442 141.34438 89.93353 141.45682 90.32285 141.56824 90.71217 141.6799 91.1015 141.79106 91.49081 141.90119 91.88014 142.01078 92.26947 142.12039 92.65878 142.22843 93.04811 142.33698 93.43744 142.44554 93.82675 142.55254 94.21608 142.65953 94.60541 142.76654 94.99472 142.8725 95.38405 142.97872 95.77336 143.08391 96.16269 143.18909 96.55202 143.29323 96.94133 143.39765 97.33066 143.50099 97.71999 143.60437 98.1093 143.70722 98.49863 143.80928 98.88795 143.9116 99.27727 144.01367 99.6666 144.11496 100.05592 144.21546 100.44524 144.31598 100.83456 144.41622 101.22389 144.5162 101.6132 144.6149 102.00253 144.71384 102.39186 144.81175 102.78117 144.91045 103.1705 145.0081 103.55981 145.106 103.94914 145.20366 104.33847 145.30002 104.72778 145.39559 105.11711 145.49143 105.50644 145.58829 105.89575 145.68257 106.28508 145.7779 106.67441 145.87242 107.06372 145.96591 107.45305 146.0602 107.84238 146.1542 108.23169 146.24771 108.62102 146.34043 109.01035 146.43312 109.39966 146.52533 109.78899 146.617 110.17831 146.70896 110.56763 146.8001 110.95695 146.88996 111.34627 146.9806 111.7356 147.07176 112.12492 147.16136 112.51424 147.25226 112.90356 147.34134 113.2929 147.42964 113.6822 147.51898 114.07153 147.60677 114.46086 147.69533 114.85017 147.78234 115.2395 147.87036 115.62883 147.95764 116.01814 148.04439 116.40747 148.13242 116.7968 148.21865 117.18611 148.3041 117.57544 148.39084 117.96477 148.47602 118.35408 148.56069 118.74341 148.6456 119.13272 148.73107 119.52205 148.8152 119.91138 148.89832 120.30069 148.98246 120.69002 149.06607 121.07935 149.1505 121.46866 149.23332 121.85799 149.31566 122.24731 149.39852 122.63663 149.48163 123.02596 149.56369 123.41528 149.6442 123.8046 149.72548 124.19392 149.80704 124.58325 149.88755 124.97256 149.9683 125.3619 150.0496 125.75122 150.1309 126.14053 150.2101 126.52986 150.29062 126.91917 150.36931 127.3085 150.44826 127.69783 150.52748 128.08715 150.6059 128.47647 150.68486 128.8658 150.76251 129.25511 150.84069 129.64444 150.92093 130.03377 150.9978 130.42308 151.07469 130.81241 151.15157 131.20174 151.22974 131.59105 151.30583 131.98038 151.38114 132.3697 151.45803 132.75902 151.5328 133.14835 151.60813 133.53768 151.685 133.92699 151.76161 134.31632 151.83719 134.70563 151.91147 135.09496 151.98548 135.48429 152.0595 135.8736 152.13378 136.26293 152.20859 136.65225 152.28156 137.04157 152.35558 137.4309 152.42882 137.82022 152.50179 138.20954 152.5758 138.59886 152.64879 138.98819 152.72176 139.3775 152.79346 139.76683 152.86669 140.15616 152.93811 140.54547 153.0098 140.9348 153.08016 141.32413 153.15158 141.71344 153.22223 142.10277 153.29286 142.49208 153.36688 142.88141 153.43779 143.27074 153.50687 143.66005 153.57802 144.04938 153.64737 144.4387 153.7167 144.82802 153.78582 145.21735 153.8554 145.60668 153.9237 145.99599 153.99434 146.38532 154.06084 146.77465 154.13329 147.16396 154.20212 147.55329 154.27016 147.94261 154.33846 148.33193 154.40547 148.72126 154.47248 149.11058 154.54027 149.4999 154.607 149.88922 154.67505 150.27855 154.74129 150.66786 154.80724 151.05719 154.874 151.4465 154.94542 151.83583 155.01137 152.22516 155.07656 152.61447 155.14226 153.0038 155.20693 153.39313 155.27317 153.78244 155.3399 154.17177 155.40354 154.5611 155.46796 154.95041 155.53263 155.33974 155.6043 155.72907 155.66896 156.11838 155.73363 156.5077 155.79778 156.89704 155.86219 157.28635 155.92659 157.67568 155.99076 158.065 156.05464 158.45432 156.118 158.84365 156.18137 159.23296 156.245 159.62229 156.30837 160.01161 156.37122 160.40093 156.43485 160.79026 156.49718 161.17958 156.55977 161.5689 156.6221 161.95822 156.6847 162.34755 156.74675 162.73686 156.8091 163.12619 156.87012 163.51552 156.93219 163.90483 156.99375 164.29416 157.05582 164.68349 157.11685 165.0728 157.17789 165.46213 157.23865 165.85146 157.29969 166.24077 157.36072 166.6301 157.42122 167.01941 157.48148 167.40874 157.54199 167.79807 157.60277 168.18738 157.66223 168.5767 157.72199 168.96604 157.78197 169.35535 157.8417 169.74468 157.90119 170.134 157.96065 170.52332 158.01935 170.91265 158.07881 171.30197 158.13751 171.69129 158.19646 172.08061 158.25516 172.46994 158.3141 172.85926 158.37203 173.24858 158.43099 173.63791 158.4889 174.02722 158.54708 174.41655 158.6055 174.80587 158.6629 175.19519 158.72083 175.58452 158.77744 175.97383 158.83536 176.36316 158.89275 176.75249 158.94937 177.1418 159.00676 177.53113 159.06365 177.92046 159.12026 178.30977 159.17687 178.6991 159.23349 179.08843 159.28986 179.47774 159.34595 179.86707 159.4023 180.2564 159.45787 180.6457 159.51398 181.03504 159.57009 181.42436 159.62618 181.81368 159.68177 182.203 159.73734 182.59232 159.79238 182.98165 159.84745 183.37097 159.90276 183.76029 159.95757 184.14962 160.01264 184.53894 160.06742 184.92826 160.1217 185.31758 160.17624 185.70691 160.23 186.09622 160.2848 186.48555 160.33882 186.87488 160.3931 187.26419 160.44738 187.65352 160.50089 188.04285 160.55438 188.43216 160.60788 188.82149 160.66138 189.21082 160.71436 189.60013 160.76837 189.98946 160.8211 190.37877 160.87409 190.7681 160.92758 191.15743 160.98032 191.54674 161.03354 191.93607 161.08576 192.3254 161.13822 192.7147 161.19094 193.10404 161.24314 193.49337 161.29506 193.88268 161.34728 194.272 161.39922"/>
</g>
<use data-text="x" xlink:href="#font_4_1" transform="matrix(7.173766,0,0,-7.1732647,124.17025,114.81789)"/>
<use data-text="y" xlink:href="#font_4_2" transform="matrix(7.173766,0,0,-7.1732647,51.58171,6.7179186)"/>
</svg>
