<svg xmlns="http://www.w3.org/2000/svg" xmlns:xlink="http://www.w3.org/1999/xlink" version="1.1" width="125" height="119" viewBox="0 0 125 119">
<defs>
<path id="font_1_1" d="M.6589966 .23046875C.6759949 .23046875 .69400027 .23046875 .69400027 .25045777 .69400027 .27046205 .6759949 .27046205 .6589966 .27046205H.117996219C.100997928 .27046205 .08299255 .27046205 .08299255 .25045777 .08299255 .23046875 .100997928 .23046875 .117996219 .23046875H.6589966Z"/>
<path id="font_2_3" d="M.43998719 .16790772H.41799928C.4149933 .15092469 .40699769 .09597778 .39698792 .07998657 .3899994 .070999149 .33299256 .070999149 .30299378 .070999149H.117996219C.14498902 .09397888 .20599365 .15792847 .23199463 .18190003 .38398744 .3217926 .43998719 .37374879 .43998719 .47270204 .43998719 .5878906 .34899903 .66503909 .23298645 .66503909 .116989139 .66503909 .04899597 .5658264 .04899597 .4797058 .04899597 .42871095 .09298706 .42871095 .09599304 .42871095 .116989139 .42871095 .14299011 .44371034 .14299011 .475708 .14299011 .5037079 .12399292 .5227051 .09599304 .5227051 .08699036 .5227051 .084991458 .5227051 .08198547 .521698 .100997928 .5899048 .15499878 .6360321 .21998596 .6360321 .30499269 .6360321 .35699464 .56481936 .35699464 .47270204 .35699464 .3877411 .30799867 .313797 .25099183 .24984741L.04899597 .023986817V0H.4139862L.43998719 .16790772Z"/>
<path id="font_2_2" d="M.28799439 .64105227C.28799439 .664032 .28799439 .66503909 .2679901 .66503909 .24398804 .6380615 .19400025 .6012573 .09098816 .6012573V.5722656C.11399841 .5722656 .1639862 .5722656 .21899414 .59825137V.07701111C.21899414 .041000368 .21598816 .0289917 .12799073 .0289917H.09700012V0C.12399292 .0019989014 .22099304 .0019989014 .2539978 .0019989014 .2869873 .0019989014 .3829956 .0019989014 .4099884 0V.0289917H.3789978C.29100038 .0289917 .28799439 .041000368 .28799439 .07701111V.64105227Z"/>
<path id="font_2_1" d="M.44799806 .31976319C.44799806 .40283204 .44299317 .48390199 .40699769 .55996707 .3659973 .64302065 .2939911 .66503909 .24499512 .66503909 .18699646 .66503909 .115997318 .63601687 .07899475 .552948 .050994874 .48989869 .040985109 .42785646 .040985109 .31976319 .040985109 .22268677 .04798889 .14962769 .083999637 .078567508 .12298584 .0025177003 .19198609-.021484375 .24398804-.021484375 .33099366-.021484375 .3809967 .030532837 .4099884 .08857727 .44599916 .16363526 .44799806 .26171876 .44799806 .31976319M.24398804-.0014953613C.21199036-.0014953613 .14698792 .016525269 .12799073 .12561035 .116989139 .18565369 .116989139 .26171876 .116989139 .33177186 .116989139 .41384889 .116989139 .48789979 .1329956 .5469513 .1499939 .6139984 .20098877 .6450348 .24398804 .6450348 .28199769 .6450348 .33999635 .6220093 .35899354 .53593447 .37199403 .4788971 .37199403 .39982606 .37199403 .33177186 .37199403 .26472474 .37199403 .18865967 .36099244 .12760926 .34199525 .01751709 .2789917-.0014953613 .24398804-.0014953613Z"/>
<clipPath id="clip_3">
<path transform="matrix(.600054,0,0,-.600018,5.7667887,100.48625)" d="M0 0H194.27439V161.39829H0Z"/>
</clipPath>
<path id="font_4_1" d="M.47399903 .40820313C.44198609 .40219117 .42999269 .3781891 .42999269 .3591919 .42999269 .33518983 .44898988 .3271942 .46299745 .3271942 .49299623 .3271942 .5139923 .3531952 .5139923 .380188 .5139923 .4223938 .46598817 .44140626 .42399598 .44140626 .36299134 .44140626 .32899476 .38119508 .31999208 .36219789 .29699708 .4373932 .23498535 .44140626 .21699524 .44140626 .114990238 .44140626 .06098938 .31021119 .06098938 .28822328 .06098938 .28422547 .06498718 .27923585 .07199097 .27923585 .07998657 .27923585 .08198547 .28523255 .083999637 .2892151 .117996219 .40019227 .18499756 .42140199 .21398926 .42140199 .25898744 .42140199 .2679901 .37919618 .2679901 .3551941 .2679901 .33319093 .2619934 .31021119 .25 .26223756L.21598816 .12535095C.20098877 .06535339 .17199707 .010223389 .11898804 .010223389 .11399841 .010223389 .08898926 .010223389 .067993167 .023330689 .10398865 .03036499 .11199951 .06036377 .11199951 .07235718 .11199951 .09236145 .09700012 .10435486 .07798767 .10435486 .053985597 .10435486 .027999878 .083358768 .027999878 .051361085 .027999878 .009231567 .07499695-.009765625 .117996219-.009765625 .1659851-.009765625 .19999695 .028366089 .22099304 .069366458 .23699951 .010223389 .2869873-.009765625 .32398988-.009765625 .42599488-.009765625 .47999574 .12135315 .47999574 .1433258 .47999574 .14833069 .47599793 .15232849 .46998597 .15232849 .46099855 .15232849 .45999146 .14732361 .45700074 .139328 .42999269 .051361085 .37199403 .010223389 .32699586 .010223389 .2919922 .010223389 .272995 .036361696 .272995 .07736206 .272995 .099365238 .2769928 .115356449 .29299928 .18130493L.32798768 .3171997C.34298707 .37719728 .3769989 .42140199 .4229889 .42140199 .4249878 .42140199 .45298768 .42140199 .47399903 .40820313Z"/>
<path id="font_4_2" d="M.2630005-.11172485C.23599243-.14982605 .19699097-.18411255 .147995-.18411255 .13598633-.18411255 .08799744-.18209839 .07299805-.13572693 .07598877-.13671875 .08099365-.13671875 .08299255-.13671875 .11299133-.13671875 .1329956-.11073303 .1329956-.08772278 .1329956-.06472778 .11399841-.056732179 .09899902-.056732179 .08299255-.056732179 .04798889-.068725589 .04798889-.11772156 .04798889-.16899109 .09098816-.20410156 .147995-.20410156 .24798584-.20410156 .34899903-.11172485 .3769989-.00077819827L.47499085 .38868714C.47599793 .39367677 .47799684 .39967347 .47799684 .4056549 .47799684 .4206543 .46598817 .43066407 .45098878 .43066407 .44198609 .43066407 .42099 .426651 .41299439 .39666749L.33898927 .10308838C.33399964 .085113529 .33399964 .08312988 .32598878 .072143558 .30599977 .04423523 .272995 .010223389 .22499085 .010223389 .16899109 .010223389 .1639862 .06524658 .1639862 .09225464 .1639862 .14929199 .19099427 .22631836 .21798706 .2983551 .22898865 .32736207 .23498535 .34136964 .23498535 .3613739 .23498535 .4033966 .20498657 .44140626 .1559906 .44140626 .06399536 .44140626 .026992798 .29634095 .026992798 .28834535 .026992798 .28434754 .0309906 .27934266 .037994386 .27934266 .04699707 .27934266 .04798889 .28334046 .051986696 .29734803 .07598877 .38137818 .11399841 .42140199 .15299988 .42140199 .1619873 .42140199 .1789856 .42140199 .1789856 .38838197 .1789856 .36238099 .16799927 .33335877 .15299988 .29534913 .10398865 .16429138 .10398865 .13127136 .10398865 .10726929 .10398865 .01222229 .17199707-.009765625 .22200012-.009765625 .25099183-.009765625 .2869873-.00077819827 .32199098 .036239625L.32299806 .035232545C.30799867-.023757935 .2979889-.06272888 .2630005-.11172485Z"/>
</defs>
<path transform="matrix(.600054,0,0,-.600018,5.7667887,100.48625)" stroke-width=".19925" stroke-linecap="butt" stroke-miterlimit="10" stroke-linejoin="miter" fill="none" stroke="#929292" d="M0 78.63554V82.88756M48.56879 78.63554V82.88756M145.70639 78.63554V82.88756M194.27519 78.63554V82.88756"/>
<path transform="matrix(.600054,0,0,-.600018,5.7667887,100.48625)" stroke-width=".19925" stroke-linecap="butt" stroke-miterlimit="10" stroke-linejoin="miter" fill="none" stroke="#929292" d="M95.01173 .22147H99.26344M95.01173 40.49152H99.26344M95.01173 121.03159H99.26344M95.01173 161.30164H99.26344"/>
<path transform="matrix(.600054,0,0,-.600018,5.7667887,100.48625)" stroke-width=".3985" stroke-linecap="butt" stroke-miterlimit="10" stroke-linejoin="miter" fill="none" stroke="#000000" d="M0 80.76155H192.28186"/>
<path transform="matrix(.600054,0,0,-.600018,121.146289,52.027868)" d="M1.99252 0-1.19551 1.59401 0 0-1.19551-1.59401"/>
<path transform="matrix(.600054,0,0,-.600018,5.7667887,100.48625)" stroke-width=".3985" stroke-linecap="butt" stroke-miterlimit="10" stroke-linejoin="miter" fill="none" stroke="#000000" d="M97.13759 0V159.40576"/>
<path transform="matrix(0,-.600018,-.600054,-0,64.05459,4.83992)" d="M1.99252 0-1.19551 1.59401 0 0-1.19551-1.59401"/>
<use data-text="&#x2212;" xlink:href="#font_1_1" transform="matrix(7.173766,0,0,-7.1733357,1.2207794,60.436849)"/>
<use data-text="2" xlink:href="#font_2_3" transform="matrix(7.173766,0,0,-7.1733357,6.800083,60.436849)"/>
<use data-text="&#x2212;" xlink:href="#font_1_1" transform="matrix(7.173766,0,0,-7.1733357,30.364804,60.436849)"/>
<use data-text="1" xlink:href="#font_2_2" transform="matrix(7.173766,0,0,-7.1733357,35.944108,60.436849)"/>
<use data-text="1" xlink:href="#font_2_2" transform="matrix(7.173766,0,0,-7.1733357,91.442508,60.436849)"/>
<use data-text="2" xlink:href="#font_2_3" transform="matrix(7.173766,0,0,-7.1733357,120.58653,60.436849)"/>
<use data-text="&#x2212;" xlink:href="#font_1_1" transform="matrix(7.173766,0,0,-7.1733357,47.66436,102.366107)"/>
<use data-text="2" xlink:href="#font_2_3" transform="matrix(7.173766,0,0,-7.1733357,53.243665,102.366107)"/>
<use data-text="0" xlink:href="#font_2_1" transform="matrix(7.173766,0,0,-7.1733357,56.758813,102.366107)"/>
<use data-text="&#x2212;" xlink:href="#font_1_1" transform="matrix(7.173766,0,0,-7.1733357,47.66436,78.203388)"/>
<use data-text="1" xlink:href="#font_2_2" transform="matrix(7.173766,0,0,-7.1733357,53.243665,78.203388)"/>
<use data-text="0" xlink:href="#font_2_1" transform="matrix(7.173766,0,0,-7.1733357,56.758813,78.203388)"/>
<use data-text="1" xlink:href="#font_2_2" transform="matrix(7.173766,0,0,-7.1733357,53.244264,30.176743)"/>
<use data-text="0" xlink:href="#font_2_1" transform="matrix(7.173766,0,0,-7.1733357,56.759408,30.176743)"/>
<use data-text="2" xlink:href="#font_2_3" transform="matrix(7.173766,0,0,-7.1733357,53.244264,6.0140078)"/>
<use data-text="0" xlink:href="#font_2_1" transform="matrix(7.173766,0,0,-7.1733357,56.759408,6.0140078)"/>
<g clip-path="url(#clip_3)">
<path transform="matrix(.600054,0,0,-.600018,5.7667887,100.48625)" stroke-width="1.59404" stroke-linecap="butt" stroke-miterlimit="10" stroke-linejoin="miter" fill="none" stroke="#0000ff" d="M0 75.47409 3.84499 75.35167 7.68997 75.21718 11.53496 75.06616 15.37997 74.89783 19.22496 74.70776 23.06995 74.49393 26.91496 74.25311 30.75995 73.97847 34.60493 73.66516 38.44995 73.30315 42.29494 72.88513 46.13992 72.39786 49.98494 71.82361 53.82993 71.13821 57.67493 70.30826 61.51993 69.28822 65.36491 68.00883 69.20992 66.36502 73.0549 64.18237 76.89992 61.1452 80.7449 56.65993 84.5899 49.38957 88.4349 35.65186 92.27989 0"/>
<path transform="matrix(.600054,0,0,-.600018,5.7667887,100.48625)" stroke-width="1.59404" stroke-linecap="butt" stroke-miterlimit="10" stroke-linejoin="miter" fill="none" stroke="#0000ff" d="M101.99448 161.39829 105.83946 125.84387 109.68446 112.11621 113.52946 104.85512 117.37445 100.37306 121.21945 97.33952 125.06445 95.15407 128.90946 93.51106 132.75444 92.23332 136.59946 91.21465 140.44445 90.3856 144.28943 89.69977 148.13445 89.12476 151.97943 88.63712 155.82444 88.2194 159.66944 87.8587 163.51442 87.54512 167.35942 87.27065 171.20442 87.02917 175.04941 86.8157 178.89441 86.62625 182.7394 86.45738 186.5844 86.30649 190.4294 86.17102 194.27439 86.04941"/>
</g>
<use data-text="x" xlink:href="#font_4_1" transform="matrix(7.173766,0,0,-7.1733357,115.83951,117.34375)"/>
<use data-text="y" xlink:href="#font_4_2" transform="matrix(7.173766,0,0,-7.1733357,43.250364,9.243309)"/>
</svg>
