<svg xmlns="http://www.w3.org/2000/svg" xmlns:xlink="http://www.w3.org/1999/xlink" version="1.1" width="409" height="176" viewBox="0 0 409 176">
<defs>
<path id="font_1_1" d="M.6589966 .23046875C.6759949 .23046875 .69400027 .23046875 .69400027 .25045777 .69400027 .27046205 .6759949 .27046205 .6589966 .27046205H.117996219C.100997928 .27046205 .08299255 .27046205 .08299255 .25045777 .08299255 .23046875 .100997928 .23046875 .117996219 .23046875H.6589966Z"/>
<path id="font_2_1" d="M.25898744 .3766632H.37199403C.34498597 .26483155 .32798768 .19194031 .32798768 .112075809 .32798768 .098083499 .32798768-.009765625 .36898805-.009765625 .3899994-.009765625 .4079895 .009231567 .4079895 .02619934 .4079895 .031188965 .4079895 .033187868 .40098573 .048171998 .37399293 .11706543 .37399293 .20292664 .37399293 .20991516 .37399293 .21591187 .37399293 .28678895 .394989 .3766632H.5069885C.519989 .3766632 .5529938 .3766632 .5529938 .4086609 .5529938 .43066407 .5339966 .43066407 .5159912 .43066407H.18699646C.1639862 .43066407 .12998963 .43066407 .083999637 .38165284 .057998659 .35269166 .025985718 .29977418 .025985718 .29377748 .025985718 .28779603 .0309906 .28579713 .036987306 .28579713 .04399109 .28579713 .04499817 .28878785 .049987794 .29478456 .101989749 .3766632 .1539917 .3766632 .1789856 .3766632H.23599243C.21398926 .30177308 .18899536 .21490479 .10699463 .04017639 .09899902 .02420044 .09899902 .022216797 .09899902 .016220093 .09899902-.004776001 .116989139-.009765625 .12599182-.009765625 .15499878-.009765625 .16299439 .016220093 .1749878 .058151246 .19099427 .109069827 .19099427 .111068729 .20098877 .15100098L.25898744 .3766632Z"/>
<path id="font_2_3" d="M.42900086 .71299746C.42900086 .71398928 .43499757 .72898867 .43499757 .73098757 .43499757 .7429962 .4249878 .75 .4169922 .75 .4119873 .75 .40299989 .75 .394989 .7279968L.05999756-.2130127C.05999756-.21400452 .053985597-.2290039 .053985597-.23100281 .053985597-.24301148 .06399536-.25 .07199097-.25 .07798767-.25 .08699036-.24900818 .09399414-.22801209L.42900086 .71299746Z"/>
<path id="font_3_5" d="M.43998719 .16790772H.41799928C.4149933 .15092469 .40699769 .09597778 .39698792 .07998657 .3899994 .070999149 .33299256 .070999149 .30299378 .070999149H.117996219C.14498902 .09397888 .20599365 .15792847 .23199463 .18190003 .38398744 .3217926 .43998719 .37374879 .43998719 .47270204 .43998719 .5878906 .34899903 .66503909 .23298645 .66503909 .116989139 .66503909 .04899597 .5658264 .04899597 .4797058 .04899597 .42871095 .09298706 .42871095 .09599304 .42871095 .116989139 .42871095 .14299011 .44371034 .14299011 .475708 .14299011 .5037079 .12399292 .5227051 .09599304 .5227051 .08699036 .5227051 .084991458 .5227051 .08198547 .521698 .100997928 .5899048 .15499878 .6360321 .21998596 .6360321 .30499269 .6360321 .35699464 .56481936 .35699464 .47270204 .35699464 .3877411 .30799867 .313797 .25099183 .24984741L.04899597 .023986817V0H.4139862L.43998719 .16790772Z"/>
<path id="font_3_6" d="M.18399048 .35888673C.16699219 .35787965 .16299439 .35688783 .16299439 .34788514 .16299439 .33789063 .16799927 .33789063 .18598938 .33789063H.23199463C.31698609 .33789063 .35499574 .267807 .35499574 .17172241 .35499574 .04058838 .2869873 .005508423 .23799134 .005508423 .18998719 .005508423 .10798645 .028564454 .07899475 .09472656 .11099243 .08970642 .13999939 .10771179 .13999939 .14372254 .13999939 .17271424 .11898804 .1927185 .09098816 .1927185 .066986087 .1927185 .040985109 .1787262 .040985109 .14071656 .040985109 .051620485 .12998963-.021484375 .24099732-.021484375 .3600006-.021484375 .44799806 .06965637 .44799806 .17071533 .44799806 .26280213 .37399293 .33488465 .27799989 .35188294 .36499024 .3769226 .42099 .45011903 .42099 .5282135 .42099 .6071167 .33898927 .66503909 .24198914 .66503909 .14199829 .66503909 .067993167 .604126 .067993167 .5312042 .067993167 .49121095 .09899902 .48321534 .11399841 .48321534 .1349945 .48321534 .15899658 .49821473 .15899658 .5282135 .15899658 .5602112 .1349945 .57421877 .11299133 .57421877 .10699463 .57421877 .10499573 .57421877 .101989749 .57321169 .13999939 .641037 .23399353 .641037 .23899842 .641037 .27198792 .641037 .33699037 .6260681 .33699037 .5282135 .33699037 .5092163 .33399964 .453125 .30499269 .41001893 .2749939 .3658905 .24099732 .36288453 .21398926 .36187745L.18399048 .35888673Z"/>
<path id="font_3_8" d="M.12298584 .34773255C.12298584 .60061648 .24598694 .641037 .2999878 .641037 .33599855 .641037 .37199403 .62991335 .3909912 .5996094 .3789978 .5996094 .34098817 .5996094 .34098817 .558609 .34098817 .53660586 .35598756 .51760867 .38198854 .51760867 .40699769 .51760867 .42399598 .53260806 .42399598 .56159976 .42399598 .6137543 .38598634 .66503909 .29899598 .66503909 .17298889 .66503909 .040985109 .53559878 .040985109 .31570436 .040985109 .040527345 .16099549-.021484375 .24598694-.021484375 .35499574-.021484375 .44799806 .07354736 .44799806 .2036438 .44799806 .33673097 .35499574 .42578126 .25498963 .42578126 .1659851 .42578126 .1329956 .34873963 .12298584 .32070924V.34773255M.24598694 .005508423C.18299866 .005508423 .15299988 .061538698 .14399719 .08256531 .1349945 .10858154 .125 .15760803 .125 .22766114 .125 .30670167 .16099549 .40577699 .25099183 .40577699 .30599977 .40577699 .33499146 .3687439 .34999085 .33473207 .3659973 .29769898 .3659973 .2476654 .3659973 .20463562 .3659973 .15361023 .3659973 .10858154 .34700013 .07055664 .32199098 .022521973 .28599549 .005508423 .24598694 .005508423Z"/>
<path id="font_4_121" d="M.44799806 .31976319C.44799806 .40283204 .44299317 .48388673 .40699769 .5599518 .3659973 .64302065 .2939911 .66503909 .24499512 .66503909 .18699646 .66503909 .115997318 .6360016 .07899475 .552948 .050994874 .48989869 .040985109 .42785646 .040985109 .31976319 .040985109 .22268677 .04798889 .14964295 .083999637 .07858276 .12298584 .002532959 .19198609-.021484375 .24398804-.021484375 .33099366-.021484375 .3809967 .030548096 .4099884 .08859253 .44599916 .16365052 .44799806 .26171876 .44799806 .31976319M.37199403 .33177186C.37199403 .26472474 .37199403 .18867493 .36099244 .12762451 .34199525 .017532349 .2789917-.0014801025 .24398804-.0014801025 .21199036-.0014801025 .14698792 .016540528 .12799073 .12562561 .116989139 .18566895 .116989139 .26171876 .116989139 .33177186 .116989139 .41383363 .116989139 .48789979 .1329956 .54693606 .1499939 .6139984 .20098877 .64501956 .24398804 .64501956 .28199769 .64501956 .33999635 .621994 .35899354 .53593447 .37199403 .47888185 .37199403 .39982606 .37199403 .33177186Z"/>
<path id="font_3_4" d="M.28799439 .64105227C.28799439 .664032 .28799439 .66503909 .2679901 .66503909 .24398804 .6380615 .19400025 .6012573 .09098816 .6012573V.5722656C.11399841 .5722656 .1639862 .5722656 .21899414 .59825137V.07701111C.21899414 .041000368 .21598816 .0289917 .12799073 .0289917H.09700012V0C.12399292 .0019989014 .22099304 .0019989014 .2539978 .0019989014 .2869873 .0019989014 .3829956 .0019989014 .4099884 0V.0289917H.3789978C.29100038 .0289917 .28799439 .041000368 .28799439 .07701111V.64105227Z"/>
<path id="font_3_3" d="M.44799806 .31976319C.44799806 .40283204 .44299317 .48390199 .40699769 .55996707 .3659973 .64302065 .2939911 .66503909 .24499512 .66503909 .18699646 .66503909 .115997318 .63601687 .07899475 .552948 .050994874 .48989869 .040985109 .42785646 .040985109 .31976319 .040985109 .22268677 .04798889 .14962769 .083999637 .078567508 .12298584 .0025177003 .19198609-.021484375 .24398804-.021484375 .33099366-.021484375 .3809967 .030532837 .4099884 .08857727 .44599916 .16363526 .44799806 .26171876 .44799806 .31976319M.24398804-.0014953613C.21199036-.0014953613 .14698792 .016525269 .12799073 .12561035 .116989139 .18565369 .116989139 .26171876 .116989139 .33177186 .116989139 .41384889 .116989139 .48789979 .1329956 .5469513 .1499939 .6139984 .20098877 .6450348 .24398804 .6450348 .28199769 .6450348 .33999635 .6220093 .35899354 .53593447 .37199403 .4788971 .37199403 .39982606 .37199403 .33177186 .37199403 .26472474 .37199403 .18865967 .36099244 .12760926 .34199525 .01751709 .2789917-.0014953613 .24398804-.0014953613Z"/>
<path id="font_2_2" d="M.18399048 .04798889C.18399048 .07699585 .1599884 .09700012 .13598633 .09700012 .10699463 .09700012 .08699036 .07299805 .08699036 .04899597 .08699036 .019989014 .11099243 0 .1349945 0 .1639862 0 .18399048 .023986817 .18399048 .04798889Z"/>
<path id="font_3_9" d="M.47499085 .62054446V.6435547H.23399353C.11299133 .6435547 .11099243 .6567688 .10699463 .67578127H.084991458L.053985597 .47554017H.07598877C.07899475 .49354554 .08799744 .555542 .100997928 .5665436 .10899353 .5725403 .18399048 .5725403 .19799805 .5725403H.4099884L.3039856 .42053224C.2769928 .38153077 .17599488 .21751404 .17599488 .029510498 .17599488 .018508912 .17599488-.021484375 .21699524-.021484375 .25898744-.021484375 .25898744 .017501831 .25898744 .030517579V.08052063C.25898744 .2295227 .2829895 .34553529 .32998658 .41253663L.47499085 .62054446Z"/>
<path id="font_3_7" d="M.12799073 .5727997C.17098999 .5588074 .20599365 .5578003 .21699524 .5578003 .32998658 .5578003 .4019928 .6409912 .4019928 .6550598 .4019928 .6590576 .3999939 .6640625 .3939972 .6640625 .3919983 .6640625 .3899994 .6640625 .3809967 .66004946 .32499696 .6358795 .2769928 .6328125 .25099183 .6328125 .18499756 .6328125 .13798523 .6530609 .11898804 .6610565 .11199951 .6640625 .10998535 .6640625 .10899353 .6640625 .100997928 .6640625 .100997928 .65805056 .100997928 .64201357V.34495545C.100997928 .32695008 .100997928 .32095338 .11299133 .32095338 .117996219 .32095338 .11898804 .32196046 .1289978 .33395387 .15699768 .37493897 .20399475 .39894105 .2539978 .39894105 .30699159 .39894105 .33299256 .34994508 .34098817 .33294679 .35798646 .29396058 .35899354 .2449646 .35899354 .20697022 .35899354 .16897583 .35899354 .11193848 .33099366 .0667572 .30899049 .03060913 .269989 .005508423 .22599793 .005508423 .1599884 .005508423 .09498596 .050689699 .07699585 .12397766 .08198547 .12197876 .08799744 .12097168 .09298706 .12097168 .10998535 .12097168 .13699341 .13098145 .13699341 .16497803 .13699341 .1929779 .117996219 .20898438 .09298706 .20898438 .07499695 .20898438 .04899597 .19998169 .04899597 .16098023 .04899597 .075790408 .116989139-.021484375 .22799683-.021484375 .34098817-.021484375 .43998719 .073791507 .43998719 .20097351 .43998719 .3199463 .3600006 .4189453 .25498963 .4189453 .19799805 .4189453 .1539917 .39393617 .12799073 .36595155V.5727997Z"/>
<clipPath id="clip_5">
<path transform="matrix(1.00003,0,0,-1.00006,1.0296631,166.24114)" d="M0 0H194.26912V161.39636H0Z"/>
</clipPath>
<path id="font_2_4" d="M.44599916 .4016571C.46598817 .4016571 .47399903 .4016571 .47399903 .4206543 .47399903 .43066407 .46598817 .43066407 .44799806 .43066407H.36698915C.38598634 .5338745 .3999939 .60498049 .4079895 .63697817 .4139862 .6609802 .43499757 .6840973 .46099855 .6840973 .48199464 .6840973 .5029907 .67503359 .5130005 .6659851 .47399903 .66197207 .46199037 .63298037 .46199037 .61598208 .46199037 .5959778 .47698976 .5839844 .49598695 .5839844 .5159912 .5839844 .54599 .60098269 .54599 .63897708 .54599 .68107607 .5039978 .70410159 .45999146 .70410159 .4169922 .70410159 .375 .6720276 .35499574 .63298037 .33699037 .5979767 .32699586 .5619354 .3039856 .43066407H.23699951C.21798706 .43066407 .20799256 .43066407 .20799256 .4126587 .20799256 .4016571 .21398926 .4016571 .23399353 .4016571H.2979889C.27999879 .30871583 .23899842 .082839969 .21598816-.024108887 .19898987-.111068729 .18399048-.18411255 .13398743-.18411255 .1309967-.18411255 .101989749-.18411255 .083999637-.16506958 .1349945-.16107178 .1349945-.11706543 .1349945-.11607361 .1349945-.096069339 .11999512-.08407593 .100997928-.08407593 .08099365-.08407593 .050994874-.10107422 .050994874-.1390686 .050994874-.18209839 .09498596-.20410156 .13398743-.20410156 .23599243-.20410156 .27799989-.021102906 .2889862 .028869629 .30699159 .1058197 .35598756 .37167359 .36099244 .4016571H.44599916Z"/>
<path id="font_3_1" d="M.32499696-.24298096C.32499696-.23999024 .32499696-.23799134 .30799867-.22097779 .20799256-.11997986 .1519928 .045013429 .1519928 .24900818 .1519928 .44299317 .19898987 .60998538 .31498719 .7279968 .32499696 .7369995 .32499696 .7389984 .32499696 .74198916 .32499696 .74798586 .31999208 .75 .31599427 .75 .30299378 .75 .22099304 .6779938 .17199707 .5799866 .12098694 .47898866 .09799194 .37199403 .09799194 .24900818 .09799194 .16000366 .11199951 .041015626 .1639862-.06599426 .22299195-.18598938 .30499269-.25097657 .31599427-.25097657 .31999208-.25097657 .32499696-.24897766 .32499696-.24298096Z"/>
<path id="font_2_5" d="M.47399903 .40820313C.44198609 .40219117 .42999269 .3781891 .42999269 .3591919 .42999269 .33518983 .44898988 .3271942 .46299745 .3271942 .49299623 .3271942 .5139923 .3531952 .5139923 .380188 .5139923 .4223938 .46598817 .44140626 .42399598 .44140626 .36299134 .44140626 .32899476 .38119508 .31999208 .36219789 .29699708 .4373932 .23498535 .44140626 .21699524 .44140626 .114990238 .44140626 .06098938 .31021119 .06098938 .28822328 .06098938 .28422547 .06498718 .27923585 .07199097 .27923585 .07998657 .27923585 .08198547 .28523255 .083999637 .2892151 .117996219 .40019227 .18499756 .42140199 .21398926 .42140199 .25898744 .42140199 .2679901 .37919618 .2679901 .3551941 .2679901 .33319093 .2619934 .31021119 .25 .26223756L.21598816 .12535095C.20098877 .06535339 .17199707 .010223389 .11898804 .010223389 .11399841 .010223389 .08898926 .010223389 .067993167 .023330689 .10398865 .03036499 .11199951 .06036377 .11199951 .07235718 .11199951 .09236145 .09700012 .10435486 .07798767 .10435486 .053985597 .10435486 .027999878 .083358768 .027999878 .051361085 .027999878 .009231567 .07499695-.009765625 .117996219-.009765625 .1659851-.009765625 .19999695 .028366089 .22099304 .069366458 .23699951 .010223389 .2869873-.009765625 .32398988-.009765625 .42599488-.009765625 .47999574 .12135315 .47999574 .1433258 .47999574 .14833069 .47599793 .15232849 .46998597 .15232849 .46099855 .15232849 .45999146 .14732361 .45700074 .139328 .42999269 .051361085 .37199403 .010223389 .32699586 .010223389 .2919922 .010223389 .272995 .036361696 .272995 .07736206 .272995 .099365238 .2769928 .115356449 .29299928 .18130493L.32798768 .3171997C.34298707 .37719728 .3769989 .42140199 .4229889 .42140199 .4249878 .42140199 .45298768 .42140199 .47399903 .40820313Z"/>
<path id="font_3_2" d="M.28199769 .24900818C.28199769 .32499696 .27198792 .44898988 .21598816 .5649872 .15699768 .68499758 .07499695 .75 .06399536 .75 .05999756 .75 .054992677 .74798586 .054992677 .74198916 .054992677 .7389984 .054992677 .7369995 .07199097 .71998599 .17199707 .61898806 .22799683 .45399476 .22799683 .25 .22799683 .056015016 .18099976-.11099243 .06498718-.22898865 .054992677-.23799134 .054992677-.23999024 .054992677-.24298096 .054992677-.24897766 .05999756-.25097657 .06399536-.25097657 .07699585-.25097657 .15899658-.1789856 .20799256-.08099365 .25898744 .021011353 .28199769 .12901306 .28199769 .24900818Z"/>
<path id="font_3_10" d="M.6749878 .32421876C.68899539 .32421876 .70700076 .32421876 .70700076 .34220887 .70700076 .36120606 .6899872 .36120606 .6749878 .36120606H.085998538C.07199097 .36120606 .053985597 .36120606 .053985597 .34321595 .053985597 .32421876 .070999149 .32421876 .085998538 .32421876H.6749878M.6749878 .13780213C.68899539 .13780213 .70700076 .13780213 .70700076 .15579224 .70700076 .17480469 .6899872 .17480469 .6749878 .17480469H.085998538C.07199097 .17480469 .053985597 .17480469 .053985597 .15679932 .053985597 .13780213 .070999149 .13780213 .085998538 .13780213H.6749878Z"/>
<path id="font_3_13" d="M.32798768 .4232788C.32798768 .44128419 .32798768 .44628907 .31799317 .44628907 .30999757 .44628907 .29100038 .4242859 .28399659 .4152832 .25299073 .4402771 .22200012 .44628907 .18998719 .44628907 .068984989 .44628907 .032989503 .38027955 .032989503 .3252716 .032989503 .31427003 .032989503 .27926637 .070999149 .2442627 .102996829 .21624756 .13699341 .20925904 .18299866 .20025635 .23799134 .18925476 .25099183 .18624878 .27598573 .1662445 .2939911 .15124512 .30699159 .12924195 .30699159 .101242069 .30699159 .05822754 .28199769 .010223389 .19400025 .010223389 .12799073 .010223389 .07998657 .048233034 .057998659 .14823914 .053985597 .1662445 .053985597 .16725159 .052993776 .16824341 .050994874 .17225647 .04699707 .17225647 .04399109 .17225647 .032989503 .17225647 .032989503 .16725159 .032989503 .14924622V.01322937C.032989503-.004776001 .032989503-.009765625 .042999269-.009765625 .04798889-.009765625 .04899597-.008773804 .06599426 .01222229 .070999149 .019226075 .070999149 .021224976 .085998538 .037231447 .12399292-.009765625 .17799378-.009765625 .19499207-.009765625 .2999878-.009765625 .35198976 .048233034 .35198976 .12724304 .35198976 .1812439 .31900025 .21325684 .30999757 .22225952 .27398683 .25326539 .24699402 .25926209 .18099976 .2712555 .15098572 .27726747 .07798767 .29125978 .07798767 .35127259 .07798767 .38227845 .09899902 .4282837 .18899536 .4282837 .2979889 .4282837 .3039856 .3352661 .30599977 .30426026 .30699159 .29626466 .31399537 .29626466 .31698609 .29626466 .32798768 .29626466 .32798768 .30126954 .32798768 .3192749V.4232788Z"/>
<path id="font_3_11" d="M.17399597 .61602786C.17399597 .6420288 .15299988 .66503909 .125 .66503909 .09899902 .66503909 .07699585 .6440277 .07699585 .6170349 .07699585 .58703616 .100997928 .5680237 .125 .5680237 .1559906 .5680237 .17399597 .59402468 .17399597 .61602786M.035995485 .43040467V.4013977C.099990848 .4013977 .10899353 .39538575 .10899353 .346344V.074035648C.10899353 .0289917 .09799194 .0289917 .032989503 .0289917V0C.06098938 .0019989014 .10899353 .0019989014 .13798523 .0019989014 .14898682 .0019989014 .20698548 .0019989014 .24099732 0V.0289917C.17599488 .0289917 .17199707 .033996583 .17199707 .07304382V.44140626L.035995485 .43040467Z"/>
<path id="font_3_12" d="M.44499208 .24320984C.44499208 .3363037 .44499208 .3643341 .42199708 .39637757 .3929901 .4353943 .34599305 .44140626 .31199647 .44140626 .21499634 .44140626 .1769867 .3583374 .16899109 .33831788H.16799927V.44140626L.03199768 .43040467V.40138246C.099990848 .40138246 .10798645 .3943634 .10798645 .34532167V.074035648C.10798645 .0289917 .09700012 .0289917 .03199768 .0289917V0C.057998659 .0019989014 .11199951 .0019989014 .13999939 .0019989014 .16899109 .0019989014 .22299195 .0019989014 .24899292 0V.0289917C.18499756 .0289917 .17298889 .0289917 .17298889 .074035648V.2602234C.17298889 .3653412 .24198914 .42140199 .3039856 .42140199 .3659973 .42140199 .37998963 .37034608 .37998963 .3092804V.074035648C.37998963 .0289917 .36898805 .0289917 .3039856 .0289917V0C.32998658 .0019989014 .38398744 .0019989014 .4119873 .0019989014 .44099427 .0019989014 .49499513 .0019989014 .5209961 0V.0289917C.47099305 .0289917 .44599916 .0289917 .44499208 .059020997V.24320984Z"/>
<path id="font_2_6" d="M.2630005-.11172485C.23599243-.14982605 .19699097-.18411255 .147995-.18411255 .13598633-.18411255 .08799744-.18209839 .07299805-.13572693 .07598877-.13671875 .08099365-.13671875 .08299255-.13671875 .11299133-.13671875 .1329956-.11073303 .1329956-.08772278 .1329956-.06472778 .11399841-.056732179 .09899902-.056732179 .08299255-.056732179 .04798889-.068725589 .04798889-.11772156 .04798889-.16899109 .09098816-.20410156 .147995-.20410156 .24798584-.20410156 .34899903-.11172485 .3769989-.00077819827L.47499085 .38868714C.47599793 .39367677 .47799684 .39967347 .47799684 .4056549 .47799684 .4206543 .46598817 .43066407 .45098878 .43066407 .44198609 .43066407 .42099 .426651 .41299439 .39666749L.33898927 .10308838C.33399964 .085113529 .33399964 .08312988 .32598878 .072143558 .30599977 .04423523 .272995 .010223389 .22499085 .010223389 .16899109 .010223389 .1639862 .06524658 .1639862 .09225464 .1639862 .14929199 .19099427 .22631836 .21798706 .2983551 .22898865 .32736207 .23498535 .34136964 .23498535 .3613739 .23498535 .4033966 .20498657 .44140626 .1559906 .44140626 .06399536 .44140626 .026992798 .29634095 .026992798 .28834535 .026992798 .28434754 .0309906 .27934266 .037994386 .27934266 .04699707 .27934266 .04798889 .28334046 .051986696 .29734803 .07598877 .38137818 .11399841 .42140199 .15299988 .42140199 .1619873 .42140199 .1789856 .42140199 .1789856 .38838197 .1789856 .36238099 .16799927 .33335877 .15299988 .29534913 .10398865 .16429138 .10398865 .13127136 .10398865 .10726929 .10398865 .01222229 .17199707-.009765625 .22200012-.009765625 .25099183-.009765625 .2869873-.00077819827 .32199098 .036239625L.32299806 .035232545C.30799867-.023757935 .2979889-.06272888 .2630005-.11172485Z"/>
<clipPath id="clip_6">
<path transform="matrix(1.00003,0,0,-1.00006,210.95897,174.37662)" d="M0 0H194.27216V161.39636H0Z"/>
</clipPath>
</defs>
<path transform="matrix(1.00003,0,0,-1.00006,1.0296631,166.24114)" stroke-width=".19925" stroke-linecap="butt" stroke-miterlimit="10" stroke-linejoin="miter" fill="none" stroke="#929292" d="M20.88393 78.5723V82.82404M46.62459 78.5723V82.82404M72.36523 78.5723V82.82404M98.1059 78.5723V82.82404M123.84656 78.5723V82.82404M149.58722 78.5723V82.82404M175.32788 78.5723V82.82404"/>
<path transform="matrix(1.00003,0,0,-1.00006,1.0296631,166.24114)" stroke-width=".19925" stroke-linecap="butt" stroke-miterlimit="10" stroke-linejoin="miter" fill="none" stroke="#929292" d="M95.00867 0H99.26042M95.00867 20.17455H99.26042M95.00867 40.34909H99.26042M95.00867 60.52364H99.26042M95.00867 100.87273H99.26042M95.00867 121.04727H99.26042M95.00867 141.22182H99.26042M95.00867 161.39636H99.26042"/>
<path transform="matrix(1.00003,0,0,-1.00006,1.0296631,166.24114)" stroke-width=".3985" stroke-linecap="butt" stroke-miterlimit="10" stroke-linejoin="miter" fill="none" stroke="#000000" d="M0 80.69818H192.2766"/>
<path transform="matrix(1.00003,0,0,-1.00006,193.31204,85.53812)" d="M1.99252 0-1.19551 1.59401 0 0-1.19551-1.59401"/>
<path transform="matrix(1.00003,0,0,-1.00006,1.0296631,166.24114)" stroke-width=".3985" stroke-linecap="butt" stroke-miterlimit="10" stroke-linejoin="miter" fill="none" stroke="#000000" d="M97.13455 0V159.40384"/>
<path transform="matrix(0,-1.00006,-1.00003,-0,98.16713,6.8277437)" d="M1.99252 0-1.19551 1.59401 0 0-1.19551-1.59401"/>
<use data-text="&#x2212;" xlink:href="#font_1_1" transform="matrix(11.95556,0,0,-11.955917,7.876869,100.815219)"/>
<use data-text="&#x03c0;" xlink:href="#font_2_1" transform="matrix(11.95556,0,0,-11.955917,17.17515,100.815219)"/>
<use data-text="/" xlink:href="#font_2_3" transform="matrix(11.95556,0,0,-11.955917,24.228928,100.815219)"/>
<use data-text="2" xlink:href="#font_3_5" transform="matrix(11.95556,0,0,-11.955917,30.097538,100.815219)"/>
<use data-text="&#x2212;" xlink:href="#font_1_1" transform="matrix(11.95556,0,0,-11.955917,33.618646,100.815219)"/>
<use data-text="&#x03c0;" xlink:href="#font_2_1" transform="matrix(11.95556,0,0,-11.955917,42.916925,100.815219)"/>
<use data-text="/" xlink:href="#font_2_3" transform="matrix(11.95556,0,0,-11.955917,49.970705,100.815219)"/>
<use data-text="3" xlink:href="#font_3_6" transform="matrix(11.95556,0,0,-11.955917,55.839315,100.815219)"/>
<use data-text="&#x2212;" xlink:href="#font_1_1" transform="matrix(11.95556,0,0,-11.955917,59.359415,100.815219)"/>
<use data-text="&#x03c0;" xlink:href="#font_2_1" transform="matrix(11.95556,0,0,-11.955917,68.65769,100.815219)"/>
<use data-text="/" xlink:href="#font_2_3" transform="matrix(11.95556,0,0,-11.955917,75.71147,100.815219)"/>
<use data-text="6" xlink:href="#font_3_8" transform="matrix(11.95556,0,0,-11.955917,81.58008,100.815219)"/>
<use data-text="0" xlink:href="#font_4_121" transform="matrix(11.95556,0,0,-11.955917,96.209529,99.79915)"/>
<use data-text="&#x03c0;" xlink:href="#font_2_1" transform="matrix(11.95556,0,0,-11.955917,115.4921,100.815219)"/>
<use data-text="/" xlink:href="#font_2_3" transform="matrix(11.95556,0,0,-11.955917,122.54588,100.815219)"/>
<use data-text="6" xlink:href="#font_3_8" transform="matrix(11.95556,0,0,-11.955917,128.41449,100.815219)"/>
<use data-text="&#x03c0;" xlink:href="#font_2_1" transform="matrix(11.95556,0,0,-11.955917,141.23288,100.815219)"/>
<use data-text="/" xlink:href="#font_2_3" transform="matrix(11.95556,0,0,-11.955917,148.28665,100.815219)"/>
<use data-text="3" xlink:href="#font_3_6" transform="matrix(11.95556,0,0,-11.955917,154.15528,100.815219)"/>
<use data-text="&#x03c0;" xlink:href="#font_2_1" transform="matrix(11.95556,0,0,-11.955917,166.97467,100.815219)"/>
<use data-text="/" xlink:href="#font_2_3" transform="matrix(11.95556,0,0,-11.955917,174.02845,100.815219)"/>
<use data-text="2" xlink:href="#font_3_5" transform="matrix(11.95556,0,0,-11.955917,179.89705,100.815219)"/>
<use data-text="&#x2212;" xlink:href="#font_1_1" transform="matrix(11.95556,0,0,-11.955917,76.70493,169.59534)"/>
<use data-text="1" xlink:href="#font_3_4" transform="matrix(11.95556,0,0,-11.955917,86.00321,169.59534)"/>
<use data-text="&#x2212;" xlink:href="#font_1_1" transform="matrix(11.95556,0,0,-11.955917,61.746488,149.42012)"/>
<use data-text="0" xlink:href="#font_3_3" transform="matrix(11.95556,0,0,-11.955917,71.04477,149.42012)"/>
<use data-text="." xlink:href="#font_2_2" transform="matrix(11.95556,0,0,-11.955917,76.89794,149.42012)"/>
<use data-text="7" xlink:href="#font_3_9" transform="matrix(11.95556,0,0,-11.955917,80.15004,149.42012)"/>
<use data-text="5" xlink:href="#font_3_7" transform="matrix(11.95556,0,0,-11.955917,86.00826,149.42012)"/>
<use data-text="&#x2212;" xlink:href="#font_1_1" transform="matrix(11.95556,0,0,-11.955917,67.59966,129.24391)"/>
<use data-text="0" xlink:href="#font_3_3" transform="matrix(11.95556,0,0,-11.955917,76.89794,129.24391)"/>
<use data-text="." xlink:href="#font_2_2" transform="matrix(11.95556,0,0,-11.955917,82.751117,129.24391)"/>
<use data-text="5" xlink:href="#font_3_7" transform="matrix(11.95556,0,0,-11.955917,86.00322,129.24391)"/>
<use data-text="&#x2212;" xlink:href="#font_1_1" transform="matrix(11.95556,0,0,-11.955917,61.746488,109.0677)"/>
<use data-text="0" xlink:href="#font_3_3" transform="matrix(11.95556,0,0,-11.955917,71.04477,109.0677)"/>
<use data-text="." xlink:href="#font_2_2" transform="matrix(11.95556,0,0,-11.955917,76.89794,109.0677)"/>
<use data-text="2" xlink:href="#font_3_5" transform="matrix(11.95556,0,0,-11.955917,80.15004,109.0677)"/>
<use data-text="5" xlink:href="#font_3_7" transform="matrix(11.95556,0,0,-11.955917,86.00826,109.0677)"/>
<use data-text="0" xlink:href="#font_3_3" transform="matrix(11.95556,0,0,-11.955917,71.04577,69.21532)"/>
<use data-text="." xlink:href="#font_2_2" transform="matrix(11.95556,0,0,-11.955917,76.89894,69.21532)"/>
<use data-text="2" xlink:href="#font_3_5" transform="matrix(11.95556,0,0,-11.955917,80.15004,69.21532)"/>
<use data-text="5" xlink:href="#font_3_7" transform="matrix(11.95556,0,0,-11.955917,86.00827,69.21532)"/>
<use data-text="0" xlink:href="#font_3_3" transform="matrix(11.95556,0,0,-11.955917,76.89894,49.03911)"/>
<use data-text="." xlink:href="#font_2_2" transform="matrix(11.95556,0,0,-11.955917,82.75212,49.03911)"/>
<use data-text="5" xlink:href="#font_3_7" transform="matrix(11.95556,0,0,-11.955917,86.00321,49.03911)"/>
<use data-text="0" xlink:href="#font_3_3" transform="matrix(11.95556,0,0,-11.955917,71.04577,28.8629)"/>
<use data-text="." xlink:href="#font_2_2" transform="matrix(11.95556,0,0,-11.955917,76.89894,28.8629)"/>
<use data-text="7" xlink:href="#font_3_9" transform="matrix(11.95556,0,0,-11.955917,80.15004,28.8629)"/>
<use data-text="5" xlink:href="#font_3_7" transform="matrix(11.95556,0,0,-11.955917,86.00827,28.8629)"/>
<use data-text="1" xlink:href="#font_3_4" transform="matrix(11.95556,0,0,-11.955917,86.00422,8.687683)"/>
<g clip-path="url(#clip_5)">
<path transform="matrix(1.00003,0,0,-1.00006,1.0296631,166.24114)" stroke-width=".79701" stroke-linecap="butt" stroke-miterlimit="10" stroke-linejoin="miter" fill="none" stroke="#0000ff" d="M20.84555 .0016 21.15132 .00482 21.45708 .00966 21.76286 .01692 22.06863 .02985 22.3744 .04276 22.68016 .06052 22.98593 .08229 23.2917 .1049 23.59746 .13313 23.90323 .1646 24.209 .19447 24.51479 .23482 24.82054 .27435 25.12631 .31631 25.43208 .36473 25.73785 .41397 26.04361 .464 26.34938 .5205 26.65515 .57858 26.96092 .64314 27.2667 .70932 27.57246 .7755 27.87823 .84813 28.184 .92316 28.48976 .99983 28.79553 1.08376 29.1013 1.16608 29.40707 1.25243 29.71283 1.34604 30.01862 1.43802 30.32439 1.53566 30.63016 1.63655 30.93591 1.73741 31.24168 1.84555 31.54745 1.95691 31.85323 2.06586 32.15898 2.18288 32.46475 2.3015 32.77054 2.42094 33.07631 2.54924 33.38206 2.67593 33.68784 2.80748 33.9936 2.94386 34.29938 3.07942 34.60513 3.21985 34.9109 3.3643 35.21669 3.51036 35.52246 3.66045 35.82822 3.81216 36.13399 3.9671 36.43976 4.1277 36.74553 4.2891 37.05128 4.45291 37.35706 4.62236 37.66283 4.79265 37.96861 4.96616 38.27437 5.1461 38.58014 5.32283 38.88591 5.50764 39.19168 5.69405 39.49744 5.87965 39.8032 6.07413 40.10898 6.26862 40.41475 6.46552 40.72052 6.66808 41.02629 6.86983 41.33206 7.0764 41.63783 7.28703 41.94359 7.49765 42.24936 7.7131 42.55513 7.93262 42.8609 8.15292 43.16666 8.37808 43.47244 8.60483 43.77821 8.8316 44.08397 9.06642 44.38974 9.30127 44.69551 9.53851 45.00128 9.7806 45.30704 10.0227 45.61281 10.27206 45.91858 10.52222 46.22437 10.77078 46.53012 11.0282 46.83589 11.28642 47.14166 11.54549 47.44743 11.81017 47.75319 12.07484 48.05896 12.34198 48.36473 12.61552 48.67052 12.88829 48.97627 13.1659 49.28204 13.44511 49.58781 13.72594 49.89359 14.01321 50.19934 14.2997 50.50513 14.5878 50.81088 14.88313 51.11665 15.17609 51.42244 15.47467 51.72821 15.77649 52.03397 16.07748 52.33974 16.38171 52.64551 16.6924 52.95128 17.0031 53.25705 17.31621 53.56282 17.63173 53.86858 17.94807 54.17436 18.27087 54.48013 18.59445 54.7859 18.91887 55.09166 19.24892 55.39743 19.57736 55.7032 19.90984 56.00897 20.24716 56.31474 20.58447 56.62051 20.92502 56.92628 21.26799 57.23206 21.61015 57.53783 21.95796 57.8436 22.30739 58.14935 22.65842 58.45512 23.0143 58.7609 23.37018 59.06667 23.72849 59.37244 24.09001 59.67822 24.45316 59.98398 24.81952 60.28975 25.18588 60.59552 25.55469 60.90128 25.9275 61.20705 26.30275 61.51282 26.67719 61.81859 27.05809 62.12436 27.43738 62.43015 27.81908 62.7359 28.20561 63.04167 28.59216 63.34744 28.98032 63.65321 29.37251 63.95897 29.76471 64.26474 30.16093 64.57051 30.55876 64.8763 30.95499 65.18205 31.3577 65.48782 31.76036 65.7936 32.16385 66.09937 32.57219 66.40514 32.98053 66.7109 33.39047 67.01666 33.80444 67.32243 34.21843 67.62822 34.63403 67.93399 35.05286 68.23975 35.47166 68.54553 35.89455 68.85129 36.3174 69.15706 36.74106 69.46283 37.16956 69.7686 37.59807 70.07436 38.0282 70.38014 38.46155 70.68591 38.89328 70.99168 39.32985 71.29744 39.76643 71.60321 40.20383 71.90898 40.64604 72.21475 41.08826 72.52052 41.52968 72.8263 41.97595 73.13206 42.42303 73.43784 42.86928 73.7436 43.32039 74.04938 43.77069 74.35513 44.2226 74.6609 44.67693 74.96667 45.13286 75.27245 45.58961 75.57822 46.04799 75.884 46.50636 76.18976 46.96793 76.49553 47.42953 76.8013 47.89275 77.10706 48.35756 77.41283 48.8232 77.7186 49.29123 78.02437 49.7617 78.33015 50.23056 78.63593 50.70103 78.94168 51.17392 79.24745 51.6452 79.55322 52.12213 79.859 52.59744 80.16475 53.07275 80.47052 53.5513 80.77629 54.03064 81.08208 54.51 81.38785 54.99257 81.69362 55.47273 81.99937 55.9561 82.30515 56.4403 82.61092 56.9253 82.91669 57.4119 83.22244 57.8993 83.52821 58.38754 83.834 58.87576 84.13977 59.36479 84.44554 59.85384 84.75131 60.3477 85.05707 60.83833 85.36284 61.33142 85.66861 61.8261 85.97438 62.31996 86.28014 62.81384 86.58592 63.31013 86.8917 63.80643 87.19746 64.30272 87.50323 64.80144 87.809 65.30016 88.11476 65.79887 88.42053 66.29839 88.7263 66.79872 89.03207 67.29985 89.33784 67.80098 89.64362 68.30212 89.94939 68.80568 90.25516 69.30681 90.56093 69.81036 90.8667 70.31393 91.17245 70.81747 91.47823 71.32266 91.78401 71.82782 92.08977 72.33217 92.39554 72.83817 92.70131 73.34334 93.00708 73.84932 93.31285 74.35529 93.61862 74.86127 93.92438 75.36887 94.23015 75.87643 94.53593 76.38322 94.8417 76.89244 95.14748 77.39923 95.45325 77.90681 95.759 78.41441 96.06477 78.9212 96.37054 79.42877 96.67632 79.9372 96.98209 80.44557 97.28787 80.95157 97.59363 81.46077 97.8994 81.96916 98.20517 82.47595 98.51094 82.98354 98.8167 83.49033 99.12248 83.99953 99.42824 84.50713 99.73401 85.01392 100.0398 85.5215 100.34557 86.0291 100.65132 86.53587 100.95709 87.04184 101.26286 87.54784 101.56863 88.05461 101.8744 88.5606 102.18018 89.06494 102.48593 89.57013 102.79172 90.07529 103.09749 90.57965 103.40326 91.08401 103.70903 91.58678 104.0148 92.09195 104.32056 92.59308 104.62633 93.09583 104.9321 93.59695 105.23787 94.0981 105.54364 94.59923 105.84941 95.10037 106.15518 95.59908 106.46095 96.09862 106.76672 96.5957 107.07248 97.09523 107.37825 97.59152 107.68402 98.08702 107.9898 98.5833 108.29556 99.07878 108.60133 99.57268 108.9071 100.06573 109.21288 100.55878 109.51865 101.05025 109.82442 101.54251 110.13017 102.03235 110.43594 102.52138 110.74173 103.0104 111.0475 103.49783 111.35326 103.98523 111.65903 104.47185 111.9648 104.95604 112.27057 105.44264 112.57634 105.92441 112.88211 106.40617 113.18787 106.88794 113.49365 107.3681 113.79942 107.84746 114.1052 108.32518 114.41095 108.8005 114.71672 109.27661 115.02249 109.75113 115.32826 110.22401 115.63402 110.6961 115.9398 111.16656 116.24557 111.63704 116.55135 112.1059 116.85712 112.57314 117.16289 113.03958 117.46864 113.50522 117.77441 113.9684 118.08018 114.43001 118.38596 114.89159 118.69173 115.34998 118.99751 115.80753 119.30327 116.26428 119.60904 116.72021 119.91481 117.17456 120.22058 117.62646 120.52634 118.07758 120.8321 118.52788 121.13788 118.97493 121.44366 119.422 121.74942 119.86745 122.05519 120.3113 122.36096 120.75272 122.66673 121.19414 122.9725 121.63072 123.27826 122.0681 123.58403 122.50386 123.8898 122.9356 124.19559 123.37137 124.50134 123.79907 124.80711 124.22757 125.11288 124.65768 125.41866 125.07974 125.72443 125.50342 126.0302 125.92628 126.33595 126.34428 126.64172 126.7631 126.94751 127.17952 127.25328 127.59349 127.55904 128.00667 127.86482 128.41663 128.17058 128.82578 128.47635 129.2349 128.78212 129.63759 129.08789 130.03946 129.39365 130.44214 129.69944 130.83998 130.0052 131.23784 130.31098 131.63324 130.61673 132.02463 130.92252 132.41602 131.22827 132.805 131.53404 133.19234 131.83982 133.57888 132.14559 133.96059 132.45136 134.34069 132.75713 134.71994 133.0629 135.09439 133.36867 135.47045 133.67443 135.84165 133.98021 136.21045 134.28597 136.57924 134.59174 136.94399 134.8975 137.30713 135.2033 137.66948 135.50905 138.02616 135.81482 138.38204 136.12059 138.73954 136.42636 139.08895 136.73212 139.43837 137.03789 139.78699 137.34366 140.13077 137.64945 140.47293 137.95522 140.81267 138.26097 141.14998 138.56674 141.4881 138.87252 141.81897 139.17829 142.14904 139.48404 142.47908 139.78981 142.80268 140.09558 143.12546 140.40137 143.44826 140.70714 143.7646 141.01291 144.08094 141.31867 144.39485 141.62444 144.70554 141.9302 145.01462 142.23598 145.31966 142.54174 145.62146 142.8475 145.92409 143.15329 146.22025 143.45906 146.51398 143.76483 146.80934 144.0706 147.09745 144.37636 147.38472 144.68213 147.6704 144.9879 147.95122 145.29367 148.23206 145.59943 148.50885 145.90522 148.7808 146.21099 149.05435 146.51676 149.3231 146.82251 149.5878 147.12828 149.85248 147.43405 150.11072 147.73983 150.36975 148.04558 150.62557 148.35135 150.87572 148.65714 151.12589 148.9629 151.37363 149.26866 151.61574 149.57444 151.85782 149.8802 152.09589 150.18598 152.32991 150.49173 152.56475 150.7975 152.79312 151.10329 153.01987 151.40906 153.24584 151.71482 153.46372 152.02059 153.68323 152.32636 153.89949 152.63213 154.1101 152.93788 154.32074 153.24365 154.5265 153.54943 154.72986 153.85521 154.93161 154.16097 155.12853 154.46674 155.3222 154.7725 155.51747 155.07828 155.7039 155.38404 155.8895 155.6898 156.0735 155.99558 156.25264 156.30133 156.43018 156.60712 156.60369 156.91289 156.77397 157.21866 156.94342 157.52442 157.10724 157.83019 157.26865 158.13596 157.43004 158.44173 157.58417 158.74748 157.73589 159.05326 157.88678 159.35904 158.03124 159.66481 158.17488 159.97057 158.31772 160.27634 158.45328 160.5821 158.58885 160.88788 158.7204 161.19364 158.84709 161.4994 158.97542 161.80518 159.09484 162.11096 159.21346 162.41672 159.33127 162.72249 159.44104 163.02826 159.55078 163.33403 159.65892 163.63979 159.7614 163.94556 159.86067 164.25133 159.95832 164.55712 160.05193 164.86287 160.14553 165.16864 160.23026 165.47441 160.3142 165.78018 160.39812 166.08594 160.47318 166.39171 160.5482 166.69748 160.62165 167.00325 160.68863 167.30902 160.7548 167.61479 160.81775 167.92057 160.87422 168.22634 160.93233 168.53209 160.98398 168.83786 161.0316 169.14363 161.08164 169.4494 161.12198 169.75516 161.16152 170.06095 161.20186 170.36672 161.23174 170.67249 161.2632 170.97824 161.29143 171.28401 161.31243 171.58979 161.33582 171.89556 161.35358 172.20131 161.36649 172.50708 161.37941 172.81287 161.38668 173.11864 161.39151 173.4244 161.39473"/>
<use data-text="f" xlink:href="#font_2_4" transform="matrix(11.95556,0,0,-11.955917,122.50531,66.65816)" fill="#0000ff"/>
<use data-text="(" xlink:href="#font_3_1" transform="matrix(11.95556,0,0,-11.955917,129.55152,66.65816)" fill="#0000ff"/>
<use data-text="x" xlink:href="#font_2_5" transform="matrix(11.95556,0,0,-11.955917,134.10366,66.65816)" fill="#0000ff"/>
<use data-text=")" xlink:href="#font_3_2" transform="matrix(11.95556,0,0,-11.955917,140.75586,66.65816)" fill="#0000ff"/>
<use data-text="=" xlink:href="#font_3_10" transform="matrix(11.95556,0,0,-11.955917,148.62262,66.65816)" fill="#0000ff"/>
<use data-text="s" xlink:href="#font_3_13" transform="matrix(11.95556,0,0,-11.955917,161.0564,66.65816)" fill="#0000ff"/>
<use data-text="i" xlink:href="#font_3_11" transform="matrix(11.95556,0,0,-11.955917,165.67124,66.65816)" fill="#0000ff"/>
<use data-text="n" xlink:href="#font_3_12" transform="matrix(11.95556,0,0,-11.955917,168.92316,66.65816)" fill="#0000ff"/>
<use data-text="(" xlink:href="#font_3_1" transform="matrix(11.95556,0,0,-11.955917,175.42699,66.65816)" fill="#0000ff"/>
<use data-text="x" xlink:href="#font_2_5" transform="matrix(11.95556,0,0,-11.955917,179.98105,66.65816)" fill="#0000ff"/>
<use data-text=")" xlink:href="#font_3_2" transform="matrix(11.95556,0,0,-11.955917,186.63324,66.65816)" fill="#0000ff"/>
</g>
<use data-text="x" xlink:href="#font_2_5" transform="matrix(11.95556,0,0,-11.955917,184.49918,81.34105)"/>
<use data-text="y" xlink:href="#font_2_6" transform="matrix(11.95556,0,0,-11.955917,102.369709,14.144012)"/>
<path transform="matrix(1.00003,0,0,-1.00006,210.95897,174.37662)" stroke-width=".19925" stroke-linecap="butt" stroke-miterlimit="10" stroke-linejoin="miter" fill="none" stroke="#929292" d="M0 78.57219V82.82414M24.28401 78.57219V82.82414M48.56804 78.57219V82.82414M72.85205 78.57219V82.82414M121.42009 78.57219V82.82414M145.70412 78.57219V82.82414M169.98813 78.57219V82.82414M194.27216 78.57219V82.82414"/>
<path transform="matrix(1.00003,0,0,-1.00006,210.95897,174.37662)" stroke-width=".19925" stroke-linecap="butt" stroke-miterlimit="10" stroke-linejoin="miter" fill="none" stroke="#929292" d="M95.01024 17.3501H99.26189M95.01024 38.73512H99.26189M95.01024 60.12013H99.26189M95.01024 81.50516H99.26189M95.01024 102.89017H99.26189M95.01024 124.27519H99.26189M95.01024 145.66022H99.26189"/>
<path transform="matrix(1.00003,0,0,-1.00006,210.95897,174.37662)" stroke-width=".3985" stroke-linecap="butt" stroke-miterlimit="10" stroke-linejoin="miter" fill="none" stroke="#000000" d="M0 80.69818H192.27964"/>
<path transform="matrix(1.00003,0,0,-1.00006,403.2444,93.6736)" d="M1.99252 0-1.19551 1.59401 0 0-1.19551-1.59401"/>
<path transform="matrix(1.00003,0,0,-1.00006,210.95897,174.37662)" stroke-width=".3985" stroke-linecap="butt" stroke-miterlimit="10" stroke-linejoin="miter" fill="none" stroke="#000000" d="M97.13608 0V159.40384"/>
<path transform="matrix(0,-1.00006,-1.00003,-0,308.09797,14.963226)" d="M1.99252 0-1.19551 1.59401 0 0-1.19551-1.59401"/>
<use data-text="&#x2212;" xlink:href="#font_1_1" transform="matrix(11.95556,0,0,-11.955917,203.38274,107.68862)"/>
<use data-text="1" xlink:href="#font_3_4" transform="matrix(11.95556,0,0,-11.955917,212.68202,107.68862)"/>
<use data-text="&#x2212;" xlink:href="#font_1_1" transform="matrix(11.95556,0,0,-11.955917,220.18825,107.68862)"/>
<use data-text="0" xlink:href="#font_3_3" transform="matrix(11.95556,0,0,-11.955917,229.48754,107.68862)"/>
<use data-text="." xlink:href="#font_2_2" transform="matrix(11.95556,0,0,-11.955917,235.34073,107.68862)"/>
<use data-text="7" xlink:href="#font_3_9" transform="matrix(11.95556,0,0,-11.955917,238.59284,107.68862)"/>
<use data-text="5" xlink:href="#font_3_7" transform="matrix(11.95556,0,0,-11.955917,244.45108,107.68862)"/>
<use data-text="&#x2212;" xlink:href="#font_1_1" transform="matrix(11.95556,0,0,-11.955917,247.40006,107.68862)"/>
<use data-text="0" xlink:href="#font_3_3" transform="matrix(11.95556,0,0,-11.955917,256.69935,107.68862)"/>
<use data-text="." xlink:href="#font_2_2" transform="matrix(11.95556,0,0,-11.955917,262.55256,107.68862)"/>
<use data-text="5" xlink:href="#font_3_7" transform="matrix(11.95556,0,0,-11.955917,265.80467,107.68862)"/>
<use data-text="&#x2212;" xlink:href="#font_1_1" transform="matrix(11.95556,0,0,-11.955917,268.7577,107.68862)"/>
<use data-text="0" xlink:href="#font_3_3" transform="matrix(11.95556,0,0,-11.955917,278.057,107.68862)"/>
<use data-text="." xlink:href="#font_2_2" transform="matrix(11.95556,0,0,-11.955917,283.9102,107.68862)"/>
<use data-text="2" xlink:href="#font_3_5" transform="matrix(11.95556,0,0,-11.955917,287.1623,107.68862)"/>
<use data-text="5" xlink:href="#font_3_7" transform="matrix(11.95556,0,0,-11.955917,293.02055,107.68862)"/>
<use data-text="0" xlink:href="#font_3_3" transform="matrix(11.95556,0,0,-11.955917,321.9773,107.68862)"/>
<use data-text="." xlink:href="#font_2_2" transform="matrix(11.95556,0,0,-11.955917,327.83049,107.68862)"/>
<use data-text="2" xlink:href="#font_3_5" transform="matrix(11.95556,0,0,-11.955917,331.08259,107.68862)"/>
<use data-text="5" xlink:href="#font_3_7" transform="matrix(11.95556,0,0,-11.955917,336.9408,107.68862)"/>
<use data-text="0" xlink:href="#font_3_3" transform="matrix(11.95556,0,0,-11.955917,349.1881,107.68862)"/>
<use data-text="." xlink:href="#font_2_2" transform="matrix(11.95556,0,0,-11.955917,355.04133,107.68862)"/>
<use data-text="5" xlink:href="#font_3_7" transform="matrix(11.95556,0,0,-11.955917,358.2934,107.68862)"/>
<use data-text="0" xlink:href="#font_3_3" transform="matrix(11.95556,0,0,-11.955917,370.54676,107.68862)"/>
<use data-text="." xlink:href="#font_2_2" transform="matrix(11.95556,0,0,-11.955917,376.39994,107.68862)"/>
<use data-text="7" xlink:href="#font_3_9" transform="matrix(11.95556,0,0,-11.955917,379.65205,107.68862)"/>
<use data-text="5" xlink:href="#font_3_7" transform="matrix(11.95556,0,0,-11.955917,385.51026,107.68862)"/>
<use data-text="1" xlink:href="#font_3_4" transform="matrix(11.95556,0,0,-11.955917,402.31074,107.68862)"/>
<use data-text="&#x2212;" xlink:href="#font_1_1" transform="matrix(11.95556,0,0,-11.955917,273.71287,160.01476)"/>
<use data-text="&#x03c0;" xlink:href="#font_2_1" transform="matrix(11.95556,0,0,-11.955917,283.01216,160.01476)"/>
<use data-text="/" xlink:href="#font_2_3" transform="matrix(11.95556,0,0,-11.955917,290.06593,160.01476)"/>
<use data-text="2" xlink:href="#font_3_5" transform="matrix(11.95556,0,0,-11.955917,295.93455,160.01476)"/>
<use data-text="&#x2212;" xlink:href="#font_1_1" transform="matrix(11.95556,0,0,-11.955917,273.71287,138.62848)"/>
<use data-text="&#x03c0;" xlink:href="#font_2_1" transform="matrix(11.95556,0,0,-11.955917,283.01216,138.62848)"/>
<use data-text="/" xlink:href="#font_2_3" transform="matrix(11.95556,0,0,-11.955917,290.06593,138.62848)"/>
<use data-text="3" xlink:href="#font_3_6" transform="matrix(11.95556,0,0,-11.955917,295.93455,138.62848)"/>
<use data-text="&#x2212;" xlink:href="#font_1_1" transform="matrix(11.95556,0,0,-11.955917,273.71287,117.24219)"/>
<use data-text="&#x03c0;" xlink:href="#font_2_1" transform="matrix(11.95556,0,0,-11.955917,283.01216,117.24219)"/>
<use data-text="/" xlink:href="#font_2_3" transform="matrix(11.95556,0,0,-11.955917,290.06593,117.24219)"/>
<use data-text="6" xlink:href="#font_3_8" transform="matrix(11.95556,0,0,-11.955917,295.93455,117.24219)"/>
<use data-text="0" xlink:href="#font_4_121" transform="matrix(11.95556,0,0,-11.955917,295.92955,96.715969)"/>
<use data-text="&#x03c0;" xlink:href="#font_2_1" transform="matrix(11.95556,0,0,-11.955917,283.01216,74.46963)"/>
<use data-text="/" xlink:href="#font_2_3" transform="matrix(11.95556,0,0,-11.955917,290.06593,74.46963)"/>
<use data-text="6" xlink:href="#font_3_8" transform="matrix(11.95556,0,0,-11.955917,295.93553,74.46963)"/>
<use data-text="&#x03c0;" xlink:href="#font_2_1" transform="matrix(11.95556,0,0,-11.955917,283.01216,53.083345)"/>
<use data-text="/" xlink:href="#font_2_3" transform="matrix(11.95556,0,0,-11.955917,290.06593,53.083345)"/>
<use data-text="3" xlink:href="#font_3_6" transform="matrix(11.95556,0,0,-11.955917,295.93553,53.083345)"/>
<use data-text="&#x03c0;" xlink:href="#font_2_1" transform="matrix(11.95556,0,0,-11.955917,283.01216,31.697052)"/>
<use data-text="/" xlink:href="#font_2_3" transform="matrix(11.95556,0,0,-11.955917,290.06593,31.697052)"/>
<use data-text="2" xlink:href="#font_3_5" transform="matrix(11.95556,0,0,-11.955917,295.93553,31.697052)"/>
<g clip-path="url(#clip_6)">
</g>
<path transform="matrix(1.00003,0,0,-1.00006,210.95897,174.37662)" d="M1.99255 17.3501C1.99255 18.45058 1.10046 19.34265 0 19.34265-1.10046 19.34265-1.99255 18.45058-1.99255 17.3501-1.99255 16.24963-1.10046 15.35754 0 15.35754 1.10046 15.35754 1.99255 16.24963 1.99255 17.3501ZM0 17.3501" fill="#0000ff"/>
<path transform="matrix(1.00003,0,0,-1.00006,210.95897,174.37662)" stroke-width=".3985" stroke-linecap="butt" stroke-miterlimit="10" stroke-linejoin="miter" fill="none" stroke="#0000ff" d="M1.99255 17.3501C1.99255 18.45058 1.10046 19.34265 0 19.34265-1.10046 19.34265-1.99255 18.45058-1.99255 17.3501-1.99255 16.24963-1.10046 15.35754 0 15.35754 1.10046 15.35754 1.99255 16.24963 1.99255 17.3501ZM0 17.3501"/>
<path transform="matrix(1.00003,0,0,-1.00006,210.95897,174.37662)" stroke-width=".3985" stroke-linecap="butt" stroke-miterlimit="10" stroke-linejoin="miter" fill="none" stroke="#0000ff" d=""/>
<use data-text="x" xlink:href="#font_2_5" transform="matrix(11.95556,0,0,-11.955917,394.43449,89.475528)"/>
<use data-text="y" xlink:href="#font_2_6" transform="matrix(11.95556,0,0,-11.955917,312.30104,22.277497)"/>
</svg>
