<svg xmlns="http://www.w3.org/2000/svg" xmlns:xlink="http://www.w3.org/1999/xlink" version="1.1" width="207" height="168" viewBox="0 0 207 168">
<defs>
<path id="font_1_1" d="M.6589966 .23046875C.6759949 .23046875 .69400027 .23046875 .69400027 .25045777 .69400027 .27046205 .6759949 .27046205 .6589966 .27046205H.117996219C.100997928 .27046205 .08299255 .27046205 .08299255 .25045777 .08299255 .23046875 .100997928 .23046875 .117996219 .23046875H.6589966Z"/>
<path id="font_2_2" d="M.28799439 .64105227C.28799439 .664032 .28799439 .66503909 .2679901 .66503909 .24398804 .6380615 .19400025 .6012573 .09098816 .6012573V.5722656C.11399841 .5722656 .1639862 .5722656 .21899414 .59825137V.07701111C.21899414 .041000368 .21598816 .0289917 .12799073 .0289917H.09700012V0C.12399292 .0019989014 .22099304 .0019989014 .2539978 .0019989014 .2869873 .0019989014 .3829956 .0019989014 .4099884 0V.0289917H.3789978C.29100038 .0289917 .28799439 .041000368 .28799439 .07701111V.64105227Z"/>
<path id="font_2_1" d="M.44799806 .31976319C.44799806 .40283204 .44299317 .48390199 .40699769 .55996707 .3659973 .64302065 .2939911 .66503909 .24499512 .66503909 .18699646 .66503909 .115997318 .63601687 .07899475 .552948 .050994874 .48989869 .040985109 .42785646 .040985109 .31976319 .040985109 .22268677 .04798889 .14962769 .083999637 .078567508 .12298584 .0025177003 .19198609-.021484375 .24398804-.021484375 .33099366-.021484375 .3809967 .030532837 .4099884 .08857727 .44599916 .16363526 .44799806 .26171876 .44799806 .31976319M.24398804-.0014953613C.21199036-.0014953613 .14698792 .016525269 .12799073 .12561035 .116989139 .18565369 .116989139 .26171876 .116989139 .33177186 .116989139 .41384889 .116989139 .48789979 .1329956 .5469513 .1499939 .6139984 .20098877 .6450348 .24398804 .6450348 .28199769 .6450348 .33999635 .6220093 .35899354 .53593447 .37199403 .4788971 .37199403 .39982606 .37199403 .33177186 .37199403 .26472474 .37199403 .18865967 .36099244 .12760926 .34199525 .01751709 .2789917-.0014953613 .24398804-.0014953613Z"/>
<path id="font_3_1" d="M.18399048 .04798889C.18399048 .07699585 .1599884 .09700012 .13598633 .09700012 .10699463 .09700012 .08699036 .07299805 .08699036 .04899597 .08699036 .019989014 .11099243 0 .1349945 0 .1639862 0 .18399048 .023986817 .18399048 .04798889Z"/>
<path id="font_2_6" d="M.12799073 .5727997C.17098999 .5588074 .20599365 .5578003 .21699524 .5578003 .32998658 .5578003 .4019928 .6409912 .4019928 .6550598 .4019928 .6590576 .3999939 .6640625 .3939972 .6640625 .3919983 .6640625 .3899994 .6640625 .3809967 .66004946 .32499696 .6358795 .2769928 .6328125 .25099183 .6328125 .18499756 .6328125 .13798523 .6530609 .11898804 .6610565 .11199951 .6640625 .10998535 .6640625 .10899353 .6640625 .100997928 .6640625 .100997928 .65805056 .100997928 .64201357V.34495545C.100997928 .32695008 .100997928 .32095338 .11299133 .32095338 .117996219 .32095338 .11898804 .32196046 .1289978 .33395387 .15699768 .37493897 .20399475 .39894105 .2539978 .39894105 .30699159 .39894105 .33299256 .34994508 .34098817 .33294679 .35798646 .29396058 .35899354 .2449646 .35899354 .20697022 .35899354 .16897583 .35899354 .11193848 .33099366 .0667572 .30899049 .03060913 .269989 .005508423 .22599793 .005508423 .1599884 .005508423 .09498596 .050689699 .07699585 .12397766 .08198547 .12197876 .08799744 .12097168 .09298706 .12097168 .10998535 .12097168 .13699341 .13098145 .13699341 .16497803 .13699341 .1929779 .117996219 .20898438 .09298706 .20898438 .07499695 .20898438 .04899597 .19998169 .04899597 .16098023 .04899597 .075790408 .116989139-.021484375 .22799683-.021484375 .34098817-.021484375 .43998719 .073791507 .43998719 .20097351 .43998719 .3199463 .3600006 .4189453 .25498963 .4189453 .19799805 .4189453 .1539917 .39393617 .12799073 .36595155V.5727997Z"/>
<path id="font_2_3" d="M.43998719 .16790772H.41799928C.4149933 .15092469 .40699769 .09597778 .39698792 .07998657 .3899994 .070999149 .33299256 .070999149 .30299378 .070999149H.117996219C.14498902 .09397888 .20599365 .15792847 .23199463 .18190003 .38398744 .3217926 .43998719 .37374879 .43998719 .47270204 .43998719 .5878906 .34899903 .66503909 .23298645 .66503909 .116989139 .66503909 .04899597 .5658264 .04899597 .4797058 .04899597 .42871095 .09298706 .42871095 .09599304 .42871095 .116989139 .42871095 .14299011 .44371034 .14299011 .475708 .14299011 .5037079 .12399292 .5227051 .09599304 .5227051 .08699036 .5227051 .084991458 .5227051 .08198547 .521698 .100997928 .5899048 .15499878 .6360321 .21998596 .6360321 .30499269 .6360321 .35699464 .56481936 .35699464 .47270204 .35699464 .3877411 .30799867 .313797 .25099183 .24984741L.04899597 .023986817V0H.4139862L.43998719 .16790772Z"/>
<path id="font_2_4" d="M.18399048 .35888673C.16699219 .35787965 .16299439 .35688783 .16299439 .34788514 .16299439 .33789063 .16799927 .33789063 .18598938 .33789063H.23199463C.31698609 .33789063 .35499574 .267807 .35499574 .17172241 .35499574 .04058838 .2869873 .005508423 .23799134 .005508423 .18998719 .005508423 .10798645 .028564454 .07899475 .09472656 .11099243 .08970642 .13999939 .10771179 .13999939 .14372254 .13999939 .17271424 .11898804 .1927185 .09098816 .1927185 .066986087 .1927185 .040985109 .1787262 .040985109 .14071656 .040985109 .051620485 .12998963-.021484375 .24099732-.021484375 .3600006-.021484375 .44799806 .06965637 .44799806 .17071533 .44799806 .26280213 .37399293 .33488465 .27799989 .35188294 .36499024 .3769226 .42099 .45011903 .42099 .5282135 .42099 .6071167 .33898927 .66503909 .24198914 .66503909 .14199829 .66503909 .067993167 .604126 .067993167 .5312042 .067993167 .49121095 .09899902 .48321534 .11399841 .48321534 .1349945 .48321534 .15899658 .49821473 .15899658 .5282135 .15899658 .5602112 .1349945 .57421877 .11299133 .57421877 .10699463 .57421877 .10499573 .57421877 .101989749 .57321169 .13999939 .641037 .23399353 .641037 .23899842 .641037 .27198792 .641037 .33699037 .6260681 .33699037 .5282135 .33699037 .5092163 .33399964 .453125 .30499269 .41001893 .2749939 .3658905 .24099732 .36288453 .21398926 .36187745L.18399048 .35888673Z"/>
<path id="font_2_8" d="M.47499085 .62054446V.6435547H.23399353C.11299133 .6435547 .11099243 .6567688 .10699463 .67578127H.084991458L.053985597 .47554017H.07598877C.07899475 .49354554 .08799744 .555542 .100997928 .5665436 .10899353 .5725403 .18399048 .5725403 .19799805 .5725403H.4099884L.3039856 .42053224C.2769928 .38153077 .17599488 .21751404 .17599488 .029510498 .17599488 .018508912 .17599488-.021484375 .21699524-.021484375 .25898744-.021484375 .25898744 .017501831 .25898744 .030517579V.08052063C.25898744 .2295227 .2829895 .34553529 .32998658 .41253663L.47499085 .62054446Z"/>
<path id="font_2_7" d="M.12298584 .34773255C.12298584 .60061648 .24598694 .641037 .2999878 .641037 .33599855 .641037 .37199403 .62991335 .3909912 .5996094 .3789978 .5996094 .34098817 .5996094 .34098817 .558609 .34098817 .53660586 .35598756 .51760867 .38198854 .51760867 .40699769 .51760867 .42399598 .53260806 .42399598 .56159976 .42399598 .6137543 .38598634 .66503909 .29899598 .66503909 .17298889 .66503909 .040985109 .53559878 .040985109 .31570436 .040985109 .040527345 .16099549-.021484375 .24598694-.021484375 .35499574-.021484375 .44799806 .07354736 .44799806 .2036438 .44799806 .33673097 .35499574 .42578126 .25498963 .42578126 .1659851 .42578126 .1329956 .34873963 .12298584 .32070924V.34773255M.24598694 .005508423C.18299866 .005508423 .15299988 .061538698 .14399719 .08256531 .1349945 .10858154 .125 .15760803 .125 .22766114 .125 .30670167 .16099549 .40577699 .25099183 .40577699 .30599977 .40577699 .33499146 .3687439 .34999085 .33473207 .3659973 .29769898 .3659973 .2476654 .3659973 .20463562 .3659973 .15361023 .3659973 .10858154 .34700013 .07055664 .32199098 .022521973 .28599549 .005508423 .24598694 .005508423Z"/>
<path id="font_2_5" d="M.36099244 .6508026C.36099244 .6697998 .36099244 .6748047 .34700013 .6748047 .33898927 .6748047 .33599855 .6748047 .32798768 .662796L.026992798 .19598389V.16699219H.2899933V.07598877C.2899933 .038986207 .28799439 .0289917 .21499634 .0289917H.19499207V0C.21798706 .0019989014 .29699708 .0019989014 .32499696 .0019989014 .35299684 .0019989014 .43299867 .0019989014 .45599366 0V.0289917H.43598939C.3639984 .0289917 .36099244 .038986207 .36099244 .07598877V.16699219H.46199037V.19598389H.36099244V.6508026M.29499818 .5728302V.19598389H.051986696L.29499818 .5728302Z"/>
<clipPath id="clip_4">
<path transform="matrix(1.00002,0,0,-1.00006,8.391666,162.61069)" d="M0 0H194.27454V161.40247H0Z"/>
</clipPath>
<path id="font_3_2" d="M.47399903 .40820313C.44198609 .40219117 .42999269 .3781891 .42999269 .3591919 .42999269 .33518983 .44898988 .3271942 .46299745 .3271942 .49299623 .3271942 .5139923 .3531952 .5139923 .380188 .5139923 .4223938 .46598817 .44140626 .42399598 .44140626 .36299134 .44140626 .32899476 .38119508 .31999208 .36219789 .29699708 .4373932 .23498535 .44140626 .21699524 .44140626 .114990238 .44140626 .06098938 .31021119 .06098938 .28822328 .06098938 .28422547 .06498718 .27923585 .07199097 .27923585 .07998657 .27923585 .08198547 .28523255 .083999637 .2892151 .117996219 .40019227 .18499756 .42140199 .21398926 .42140199 .25898744 .42140199 .2679901 .37919618 .2679901 .3551941 .2679901 .33319093 .2619934 .31021119 .25 .26223756L.21598816 .12535095C.20098877 .06535339 .17199707 .010223389 .11898804 .010223389 .11399841 .010223389 .08898926 .010223389 .067993167 .023330689 .10398865 .03036499 .11199951 .06036377 .11199951 .07235718 .11199951 .09236145 .09700012 .10435486 .07798767 .10435486 .053985597 .10435486 .027999878 .083358768 .027999878 .051361085 .027999878 .009231567 .07499695-.009765625 .117996219-.009765625 .1659851-.009765625 .19999695 .028366089 .22099304 .069366458 .23699951 .010223389 .2869873-.009765625 .32398988-.009765625 .42599488-.009765625 .47999574 .12135315 .47999574 .1433258 .47999574 .14833069 .47599793 .15232849 .46998597 .15232849 .46099855 .15232849 .45999146 .14732361 .45700074 .139328 .42999269 .051361085 .37199403 .010223389 .32699586 .010223389 .2919922 .010223389 .272995 .036361696 .272995 .07736206 .272995 .099365238 .2769928 .115356449 .29299928 .18130493L.32798768 .3171997C.34298707 .37719728 .3769989 .42140199 .4229889 .42140199 .4249878 .42140199 .45298768 .42140199 .47399903 .40820313Z"/>
<path id="font_3_3" d="M.2630005-.11172485C.23599243-.14982605 .19699097-.18411255 .147995-.18411255 .13598633-.18411255 .08799744-.18209839 .07299805-.13572693 .07598877-.13671875 .08099365-.13671875 .08299255-.13671875 .11299133-.13671875 .1329956-.11073303 .1329956-.08772278 .1329956-.06472778 .11399841-.056732179 .09899902-.056732179 .08299255-.056732179 .04798889-.068725589 .04798889-.11772156 .04798889-.16899109 .09098816-.20410156 .147995-.20410156 .24798584-.20410156 .34899903-.11172485 .3769989-.00077819827L.47499085 .38868714C.47599793 .39367677 .47799684 .39967347 .47799684 .4056549 .47799684 .4206543 .46598817 .43066407 .45098878 .43066407 .44198609 .43066407 .42099 .426651 .41299439 .39666749L.33898927 .10308838C.33399964 .085113529 .33399964 .08312988 .32598878 .072143558 .30599977 .04423523 .272995 .010223389 .22499085 .010223389 .16899109 .010223389 .1639862 .06524658 .1639862 .09225464 .1639862 .14929199 .19099427 .22631836 .21798706 .2983551 .22898865 .32736207 .23498535 .34136964 .23498535 .3613739 .23498535 .4033966 .20498657 .44140626 .1559906 .44140626 .06399536 .44140626 .026992798 .29634095 .026992798 .28834535 .026992798 .28434754 .0309906 .27934266 .037994386 .27934266 .04699707 .27934266 .04798889 .28334046 .051986696 .29734803 .07598877 .38137818 .11399841 .42140199 .15299988 .42140199 .1619873 .42140199 .1789856 .42140199 .1789856 .38838197 .1789856 .36238099 .16799927 .33335877 .15299988 .29534913 .10398865 .16429138 .10398865 .13127136 .10398865 .10726929 .10398865 .01222229 .17199707-.009765625 .22200012-.009765625 .25099183-.009765625 .2869873-.00077819827 .32199098 .036239625L.32299806 .035232545C.30799867-.023757935 .2979889-.06272888 .2630005-.11172485Z"/>
</defs>
<path transform="matrix(1.00002,0,0,-1.00006,8.391666,162.61069)" stroke-width=".3985" stroke-linecap="butt" stroke-miterlimit="10" stroke-linejoin="miter" fill="none" stroke="#cbcbcb" d="M0 0V161.40247M24.2844 0V161.40247M72.8532 0V161.40247M97.13759 0V161.40247M121.422 0V161.40247M145.70639 0V161.40247M169.9908 0V161.40247M194.27519 0V161.40247"/>
<path transform="matrix(1.00002,0,0,-1.00006,8.391666,162.61069)" stroke-width=".3985" stroke-linecap="butt" stroke-miterlimit="10" stroke-linejoin="miter" fill="none" stroke="#cbcbcb" d="M0-.00146H194.27454M0 17.93228H194.27454M0 35.86604H194.27454M0 53.79982H194.27454M0 71.7336H194.27454M0 89.66737H194.27454M0 107.60115H194.27454M0 143.46869H194.27454"/>
<path transform="matrix(1.00002,0,0,-1.00006,8.391666,162.61069)" stroke-width=".79701" stroke-linecap="butt" stroke-miterlimit="10" stroke-linejoin="miter" fill="none" stroke="#929292" d="M0 123.409V127.66086M24.2844 123.409V127.66086M72.8532 123.409V127.66086M97.13759 123.409V127.66086M121.422 123.409V127.66086M145.70639 123.409V127.66086M169.9908 123.409V127.66086M194.27519 123.409V127.66086"/>
<path transform="matrix(1.00002,0,0,-1.00006,8.391666,162.61069)" stroke-width=".79701" stroke-linecap="butt" stroke-miterlimit="10" stroke-linejoin="miter" fill="none" stroke="#929292" d="M46.44293-.00146H50.69464M46.44293 17.93228H50.69464M46.44293 35.86604H50.69464M46.44293 53.79982H50.69464M46.44293 71.7336H50.69464M46.44293 89.66737H50.69464M46.44293 107.60115H50.69464M46.44293 143.46869H50.69464"/>
<path transform="matrix(1.00002,0,0,-1.00006,8.391666,162.61069)" stroke-width=".3985" stroke-linecap="butt" stroke-miterlimit="10" stroke-linejoin="miter" fill="none" stroke="#000000" d="M0 125.53493H192.28202"/>
<path transform="matrix(1.00002,0,0,-1.00006,200.67752,37.06823)" d="M1.99252 0-1.19551 1.59401 0 0-1.19551-1.59401"/>
<path transform="matrix(1.00002,0,0,-1.00006,8.391666,162.61069)" stroke-width=".3985" stroke-linecap="butt" stroke-miterlimit="10" stroke-linejoin="miter" fill="none" stroke="#000000" d="M48.56879 0V159.40995"/>
<path transform="matrix(0,-1.00006,-1.00002,-0,56.96143,3.1911927)" d="M1.99252 0-1.19551 1.59401 0 0-1.19551-1.59401"/>
<use data-text="&#x2212;" xlink:href="#font_1_1" transform="matrix(11.95544,0,0,-11.955917,.8155136,51.083)"/>
<use data-text="1" xlink:href="#font_2_2" transform="matrix(11.95544,0,0,-11.955917,10.113701,51.083)"/>
<use data-text="&#x2212;" xlink:href="#font_1_1" transform="matrix(11.95544,0,0,-11.955917,20.547909,51.083)"/>
<use data-text="0" xlink:href="#font_2_1" transform="matrix(11.95544,0,0,-11.955917,29.846096,51.083)"/>
<use data-text="." xlink:href="#font_3_1" transform="matrix(11.95544,0,0,-11.955917,35.699216,51.083)"/>
<use data-text="5" xlink:href="#font_2_6" transform="matrix(11.95544,0,0,-11.955917,38.95128,51.083)"/>
<use data-text="0" xlink:href="#font_2_1" transform="matrix(11.95544,0,0,-11.955917,73.76698,51.083)"/>
<use data-text="." xlink:href="#font_3_1" transform="matrix(11.95544,0,0,-11.955917,79.6201,51.083)"/>
<use data-text="5" xlink:href="#font_2_6" transform="matrix(11.95544,0,0,-11.955917,82.87216,51.083)"/>
<use data-text="1" xlink:href="#font_2_2" transform="matrix(11.95544,0,0,-11.955917,102.60455,51.083)"/>
<use data-text="1" xlink:href="#font_2_2" transform="matrix(11.95544,0,0,-11.955917,122.336948,51.083)"/>
<use data-text="." xlink:href="#font_3_1" transform="matrix(11.95544,0,0,-11.955917,128.19007,51.083)"/>
<use data-text="5" xlink:href="#font_2_6" transform="matrix(11.95544,0,0,-11.955917,131.44214,51.083)"/>
<use data-text="2" xlink:href="#font_2_3" transform="matrix(11.95544,0,0,-11.955917,151.17452,51.083)"/>
<use data-text="2" xlink:href="#font_2_3" transform="matrix(11.95544,0,0,-11.955917,170.9069,51.083)"/>
<use data-text="." xlink:href="#font_3_1" transform="matrix(11.95544,0,0,-11.955917,176.76003,51.083)"/>
<use data-text="5" xlink:href="#font_2_6" transform="matrix(11.95544,0,0,-11.955917,180.01209,51.083)"/>
<use data-text="3" xlink:href="#font_2_4" transform="matrix(11.95544,0,0,-11.955917,199.7445,51.083)"/>
<use data-text="&#x2212;" xlink:href="#font_1_1" transform="matrix(11.95544,0,0,-11.955917,35.49921,165.96689)"/>
<use data-text="7" xlink:href="#font_2_8" transform="matrix(11.95544,0,0,-11.955917,44.797399,165.96689)"/>
<use data-text="&#x2212;" xlink:href="#font_1_1" transform="matrix(11.95544,0,0,-11.955917,35.49921,148.03182)"/>
<use data-text="6" xlink:href="#font_2_7" transform="matrix(11.95544,0,0,-11.955917,44.797399,148.03182)"/>
<use data-text="&#x2212;" xlink:href="#font_1_1" transform="matrix(11.95544,0,0,-11.955917,35.49921,130.09674)"/>
<use data-text="5" xlink:href="#font_2_6" transform="matrix(11.95544,0,0,-11.955917,44.797399,130.09674)"/>
<use data-text="&#x2212;" xlink:href="#font_1_1" transform="matrix(11.95544,0,0,-11.955917,35.49921,112.16167)"/>
<use data-text="4" xlink:href="#font_2_5" transform="matrix(11.95544,0,0,-11.955917,44.797399,112.16167)"/>
<use data-text="&#x2212;" xlink:href="#font_1_1" transform="matrix(11.95544,0,0,-11.955917,35.49921,94.22759)"/>
<use data-text="3" xlink:href="#font_2_4" transform="matrix(11.95544,0,0,-11.955917,44.797399,94.22759)"/>
<use data-text="&#x2212;" xlink:href="#font_1_1" transform="matrix(11.95544,0,0,-11.955917,35.49921,76.29251)"/>
<use data-text="2" xlink:href="#font_2_3" transform="matrix(11.95544,0,0,-11.955917,44.797399,76.29251)"/>
<use data-text="&#x2212;" xlink:href="#font_1_1" transform="matrix(11.95544,0,0,-11.955917,35.49921,58.357439)"/>
<use data-text="1" xlink:href="#font_2_2" transform="matrix(11.95544,0,0,-11.955917,44.797399,58.357439)"/>
<use data-text="1" xlink:href="#font_2_2" transform="matrix(11.95544,0,0,-11.955917,44.798395,22.986313)"/>
<g clip-path="url(#clip_4)">
<path transform="matrix(1.00002,0,0,-1.00006,8.391666,162.61069)" stroke-width=".79701" stroke-linecap="butt" stroke-miterlimit="10" stroke-linejoin="miter" fill="none" stroke="#0000ff" d="M0 143.46869 8.09476 148.94844 16.18953 153.43187 24.2843 156.91899 32.37907 159.4098 40.47385 160.9043 48.56862 161.40247 56.66339 160.90435 64.75816 159.40988 72.85294 156.91912 80.94771 153.43204 89.0425 148.94864 97.13725 143.46894 105.23204 136.9929 113.3268 129.5206 121.42159 121.05197 129.51634 111.58694 137.61113 101.1257 145.70589 89.66815 153.80068 77.21417 161.89543 63.76398 169.99022 49.31747 178.08499 33.87453 186.17977 17.43541 194.27454 0"/>
</g>
<use data-text="x" xlink:href="#font_3_2" transform="matrix(11.95544,0,0,-11.955917,191.86634,32.8629)"/>
<use data-text="y" xlink:href="#font_3_3" transform="matrix(11.95544,0,0,-11.955917,61.153726,10.530563)"/>
</svg>
