<svg xmlns="http://www.w3.org/2000/svg" xmlns:xlink="http://www.w3.org/1999/xlink" version="1.1" width="215" height="179" viewBox="0 0 215 179">
<defs>
<path id="font_1_3" d="M.44799806 .31976319C.44799806 .40283204 .44299317 .48390199 .40699769 .55996707 .3659973 .64302065 .2939911 .66503909 .24499512 .66503909 .18699646 .66503909 .115997318 .63601687 .07899475 .552948 .050994874 .48989869 .040985109 .42785646 .040985109 .31976319 .040985109 .22268677 .04798889 .14962769 .083999637 .078567508 .12298584 .0025177003 .19198609-.021484375 .24398804-.021484375 .33099366-.021484375 .3809967 .030532837 .4099884 .08857727 .44599916 .16363526 .44799806 .26171876 .44799806 .31976319M.24398804-.0014953613C.21199036-.0014953613 .14698792 .016525269 .12799073 .12561035 .116989139 .18565369 .116989139 .26171876 .116989139 .33177186 .116989139 .41384889 .116989139 .48789979 .1329956 .5469513 .1499939 .6139984 .20098877 .6450348 .24398804 .6450348 .28199769 .6450348 .33999635 .6220093 .35899354 .53593447 .37199403 .4788971 .37199403 .39982606 .37199403 .33177186 .37199403 .26472474 .37199403 .18865967 .36099244 .12760926 .34199525 .01751709 .2789917-.0014953613 .24398804-.0014953613Z"/>
<path id="font_2_1" d="M.18399048 .04798889C.18399048 .07699585 .1599884 .09700012 .13598633 .09700012 .10699463 .09700012 .08699036 .07299805 .08699036 .04899597 .08699036 .019989014 .11099243 0 .1349945 0 .1639862 0 .18399048 .023986817 .18399048 .04798889Z"/>
<path id="font_1_7" d="M.12799073 .5727997C.17098999 .5588074 .20599365 .5578003 .21699524 .5578003 .32998658 .5578003 .4019928 .6409912 .4019928 .6550598 .4019928 .6590576 .3999939 .6640625 .3939972 .6640625 .3919983 .6640625 .3899994 .6640625 .3809967 .66004946 .32499696 .6358795 .2769928 .6328125 .25099183 .6328125 .18499756 .6328125 .13798523 .6530609 .11898804 .6610565 .11199951 .6640625 .10998535 .6640625 .10899353 .6640625 .100997928 .6640625 .100997928 .65805056 .100997928 .64201357V.34495545C.100997928 .32695008 .100997928 .32095338 .11299133 .32095338 .117996219 .32095338 .11898804 .32196046 .1289978 .33395387 .15699768 .37493897 .20399475 .39894105 .2539978 .39894105 .30699159 .39894105 .33299256 .34994508 .34098817 .33294679 .35798646 .29396058 .35899354 .2449646 .35899354 .20697022 .35899354 .16897583 .35899354 .11193848 .33099366 .0667572 .30899049 .03060913 .269989 .005508423 .22599793 .005508423 .1599884 .005508423 .09498596 .050689699 .07699585 .12397766 .08198547 .12197876 .08799744 .12097168 .09298706 .12097168 .10998535 .12097168 .13699341 .13098145 .13699341 .16497803 .13699341 .1929779 .117996219 .20898438 .09298706 .20898438 .07499695 .20898438 .04899597 .19998169 .04899597 .16098023 .04899597 .075790408 .116989139-.021484375 .22799683-.021484375 .34098817-.021484375 .43998719 .073791507 .43998719 .20097351 .43998719 .3199463 .3600006 .4189453 .25498963 .4189453 .19799805 .4189453 .1539917 .39393617 .12799073 .36595155V.5727997Z"/>
<path id="font_1_4" d="M.28799439 .64105227C.28799439 .664032 .28799439 .66503909 .2679901 .66503909 .24398804 .6380615 .19400025 .6012573 .09098816 .6012573V.5722656C.11399841 .5722656 .1639862 .5722656 .21899414 .59825137V.07701111C.21899414 .041000368 .21598816 .0289917 .12799073 .0289917H.09700012V0C.12399292 .0019989014 .22099304 .0019989014 .2539978 .0019989014 .2869873 .0019989014 .3829956 .0019989014 .4099884 0V.0289917H.3789978C.29100038 .0289917 .28799439 .041000368 .28799439 .07701111V.64105227Z"/>
<path id="font_1_5" d="M.43998719 .16790772H.41799928C.4149933 .15092469 .40699769 .09597778 .39698792 .07998657 .3899994 .070999149 .33299256 .070999149 .30299378 .070999149H.117996219C.14498902 .09397888 .20599365 .15792847 .23199463 .18190003 .38398744 .3217926 .43998719 .37374879 .43998719 .47270204 .43998719 .5878906 .34899903 .66503909 .23298645 .66503909 .116989139 .66503909 .04899597 .5658264 .04899597 .4797058 .04899597 .42871095 .09298706 .42871095 .09599304 .42871095 .116989139 .42871095 .14299011 .44371034 .14299011 .475708 .14299011 .5037079 .12399292 .5227051 .09599304 .5227051 .08699036 .5227051 .084991458 .5227051 .08198547 .521698 .100997928 .5899048 .15499878 .6360321 .21998596 .6360321 .30499269 .6360321 .35699464 .56481936 .35699464 .47270204 .35699464 .3877411 .30799867 .313797 .25099183 .24984741L.04899597 .023986817V0H.4139862L.43998719 .16790772Z"/>
<path id="font_1_6" d="M.36099244 .6508026C.36099244 .6697998 .36099244 .6748047 .34700013 .6748047 .33898927 .6748047 .33599855 .6748047 .32798768 .662796L.026992798 .19598389V.16699219H.2899933V.07598877C.2899933 .038986207 .28799439 .0289917 .21499634 .0289917H.19499207V0C.21798706 .0019989014 .29699708 .0019989014 .32499696 .0019989014 .35299684 .0019989014 .43299867 .0019989014 .45599366 0V.0289917H.43598939C.3639984 .0289917 .36099244 .038986207 .36099244 .07598877V.16699219H.46199037V.19598389H.36099244V.6508026M.29499818 .5728302V.19598389H.051986696L.29499818 .5728302Z"/>
<path id="font_1_8" d="M.12298584 .34773255C.12298584 .60061648 .24598694 .641037 .2999878 .641037 .33599855 .641037 .37199403 .62991335 .3909912 .5996094 .3789978 .5996094 .34098817 .5996094 .34098817 .558609 .34098817 .53660586 .35598756 .51760867 .38198854 .51760867 .40699769 .51760867 .42399598 .53260806 .42399598 .56159976 .42399598 .6137543 .38598634 .66503909 .29899598 .66503909 .17298889 .66503909 .040985109 .53559878 .040985109 .31570436 .040985109 .040527345 .16099549-.021484375 .24598694-.021484375 .35499574-.021484375 .44799806 .07354736 .44799806 .2036438 .44799806 .33673097 .35499574 .42578126 .25498963 .42578126 .1659851 .42578126 .1329956 .34873963 .12298584 .32070924V.34773255M.24598694 .005508423C.18299866 .005508423 .15299988 .061538698 .14399719 .08256531 .1349945 .10858154 .125 .15760803 .125 .22766114 .125 .30670167 .16099549 .40577699 .25099183 .40577699 .30599977 .40577699 .33499146 .3687439 .34999085 .33473207 .3659973 .29769898 .3659973 .2476654 .3659973 .20463562 .3659973 .15361023 .3659973 .10858154 .34700013 .07055664 .32199098 .022521973 .28599549 .005508423 .24598694 .005508423Z"/>
<clipPath id="clip_3">
<path transform="matrix(1.00005,0,0,-1.00003,18.831192,162.59687)" d="M0 .00743H194.27342V161.39467H0Z"/>
</clipPath>
<path id="font_2_3" d="M.20098877 .4016571H.29299928C.31199647 .4016571 .32199098 .4016571 .32199098 .41966249 .32199098 .43066407 .31599427 .43066407 .29599 .43066407H.20799256L.24499512 .57650759C.24899292 .5904999 .24899292 .5924988 .24899292 .5994873 .24899292 .6154785 .23599243 .6244812 .22299195 .6244812 .21499634 .6244812 .19198609 .6214905 .18399048 .5894928L.14498902 .43066407H.050994874C.0309906 .43066407 .021987915 .43066407 .021987915 .4116516 .021987915 .4016571 .0289917 .4016571 .04798889 .4016571H.13699341L.070999149 .13804627C.06298828 .10308838 .05999756 .09310913 .05999756 .0801239 .05999756 .033187868 .09298706-.009765625 .14898682-.009765625 .25-.009765625 .3039856 .13604737 .3039856 .14303589 .3039856 .14901734 .2999878 .15202332 .2939911 .15202332 .2919922 .15202332 .28799439 .15202332 .28599549 .14802552 .2849884 .14703369 .28399659 .14602661 .2769928 .13005066 .2559967 .0801239 .20999146 .010223389 .1519928 .010223389 .12199402 .010223389 .11999512 .035186769 .11999512 .057159425 .11999512 .058151246 .11999512 .07713318 .12298584 .08911133L.20098877 .4016571Z"/>
<path id="font_2_2" d="M.22799683 .2002716C.24499512 .19728089 .27198792 .19128418 .27799989 .19029236 .29100038 .18629456 .33599855 .1703186 .33599855 .12234497 .33599855 .09135437 .30799867 .010223389 .19198609 .010223389 .17098999 .010223389 .09599304 .01322937 .07598877 .068359378 .115997318 .06333923 .13598633 .09434509 .13598633 .11634827 .13598633 .13734436 .12199402 .14834595 .101989749 .14834595 .07998657 .14834595 .050994874 .13134766 .050994874 .08634949 .050994874 .027267456 .11099243-.009765625 .19099427-.009765625 .34298707-.009765625 .3880005 .10235596 .3880005 .15434265 .3880005 .16932678 .3880005 .19728089 .35598756 .22923279 .33099366 .25320436 .30699159 .25819398 .25299073 .2691803 .22599793 .275177 .18299866 .28416444 .18299866 .32913209 .18299866 .34913636 .20098877 .42140199 .29599 .42140199 .33799745 .42140199 .3789978 .4053192 .3889923 .36914063 .34498597 .36914063 .34298707 .33113099 .34298707 .33013917 .34298707 .3091278 .3619995 .3031311 .37098695 .3031311 .3849945 .3031311 .41299439 .3141327 .41299439 .35614015 .41299439 .3982849 .375 .44140626 .29699708 .44140626 .1659851 .44140626 .1309967 .33813478 .1309967 .2971344 .1309967 .22125244 .20498657 .20527649 .22799683 .2002716Z"/>
<path id="font_1_1" d="M.32499696-.24298096C.32499696-.23999024 .32499696-.23799134 .30799867-.22097779 .20799256-.11997986 .1519928 .045013429 .1519928 .24900818 .1519928 .44299317 .19898987 .60998538 .31498719 .7279968 .32499696 .7369995 .32499696 .7389984 .32499696 .74198916 .32499696 .74798586 .31999208 .75 .31599427 .75 .30299378 .75 .22099304 .6779938 .17199707 .5799866 .12098694 .47898866 .09799194 .37199403 .09799194 .24900818 .09799194 .16000366 .11199951 .041015626 .1639862-.06599426 .22299195-.18598938 .30499269-.25097657 .31599427-.25097657 .31999208-.25097657 .32499696-.24897766 .32499696-.24298096Z"/>
<path id="font_1_2" d="M.28199769 .24900818C.28199769 .32499696 .27198792 .44898988 .21598816 .5649872 .15699768 .68499758 .07499695 .75 .06399536 .75 .05999756 .75 .054992677 .74798586 .054992677 .74198916 .054992677 .7389984 .054992677 .7369995 .07199097 .71998599 .17199707 .61898806 .22799683 .45399476 .22799683 .25 .22799683 .056015016 .18099976-.11099243 .06498718-.22898865 .054992677-.23799134 .054992677-.23999024 .054992677-.24298096 .054992677-.24897766 .05999756-.25097657 .06399536-.25097657 .07699585-.25097657 .15899658-.1789856 .20799256-.08099365 .25898744 .021011353 .28199769 .12901306 .28199769 .24900818Z"/>
</defs>
<path transform="matrix(1.00005,0,0,-1.00003,18.831192,162.59687)" stroke-width=".3985" stroke-linecap="butt" stroke-miterlimit="10" stroke-linejoin="miter" fill="none" stroke="#cbcbcb" d="M32.41441 .00743V161.39467M64.82883 .00743V161.39467M97.24324 .00743V161.39467M129.65767 .00743V161.39467M162.07209 .00743V161.39467"/>
<path transform="matrix(1.00005,0,0,-1.00003,18.831192,162.59687)" stroke-width=".3985" stroke-linecap="butt" stroke-miterlimit="10" stroke-linejoin="miter" fill="none" stroke="#cbcbcb" d="M0 46.11807H194.27342M0 92.22871H194.27342M0 138.33936H194.27342"/>
<path transform="matrix(1.00005,0,0,-1.00003,18.831192,162.59687)" stroke-width=".19925" stroke-linecap="butt" stroke-miterlimit="10" stroke-linejoin="miter" fill="none" stroke="#929292" d="M32.41441-2.11852V2.1334M64.82883-2.11852V2.1334M97.24324-2.11852V2.1334M129.65767-2.11852V2.1334M162.07209-2.11852V2.1334"/>
<path transform="matrix(1.00005,0,0,-1.00003,18.831192,162.59687)" stroke-width=".19925" stroke-linecap="butt" stroke-miterlimit="10" stroke-linejoin="miter" fill="none" stroke="#929292" d="M-2.12596 46.11807H2.12596M-2.12596 92.22871H2.12596M-2.12596 138.33936H2.12596"/>
<path transform="matrix(1.00005,0,0,-1.00003,18.831192,162.59687)" stroke-width=".3985" stroke-linecap="butt" stroke-miterlimit="10" stroke-linejoin="miter" fill="none" stroke="#000000" d="M0 .00743H192.2809"/>
<path transform="matrix(1.00005,0,0,-1.00003,211.12169,162.58943)" d="M1.99252 0-1.19551 1.59401 0 0-1.19551-1.59401"/>
<path transform="matrix(1.00005,0,0,-1.00003,18.831192,162.59687)" stroke-width=".3985" stroke-linecap="butt" stroke-miterlimit="10" stroke-linejoin="miter" fill="none" stroke="#000000" d="M0 .00743V159.40215"/>
<path transform="matrix(0,-1.00003,-1.00005,-0,18.831192,3.1899262)" d="M1.99252 0-1.19551 1.59401 0 0-1.19551-1.59401"/>
<use data-text="0" xlink:href="#font_1_3" transform="matrix(11.955797,0,0,-11.95556,43.76844,176.60428)"/>
<use data-text="." xlink:href="#font_2_1" transform="matrix(11.955797,0,0,-11.95556,49.621728,176.60428)"/>
<use data-text="5" xlink:href="#font_1_7" transform="matrix(11.955797,0,0,-11.95556,52.873895,176.60428)"/>
<use data-text="1" xlink:href="#font_1_4" transform="matrix(11.955797,0,0,-11.95556,80.73628,176.60428)"/>
<use data-text="1" xlink:href="#font_1_4" transform="matrix(11.955797,0,0,-11.95556,108.59968,176.60428)"/>
<use data-text="." xlink:href="#font_2_1" transform="matrix(11.955797,0,0,-11.95556,114.452968,176.60428)"/>
<use data-text="5" xlink:href="#font_1_7" transform="matrix(11.955797,0,0,-11.95556,117.70513,176.60428)"/>
<use data-text="2" xlink:href="#font_1_5" transform="matrix(11.955797,0,0,-11.95556,145.56853,176.60428)"/>
<use data-text="2" xlink:href="#font_1_5" transform="matrix(11.955797,0,0,-11.95556,173.43192,176.60428)"/>
<use data-text="." xlink:href="#font_2_1" transform="matrix(11.955797,0,0,-11.95556,179.2852,176.60428)"/>
<use data-text="5" xlink:href="#font_1_7" transform="matrix(11.955797,0,0,-11.95556,182.53737,176.60428)"/>
<use data-text="2" xlink:href="#font_1_5" transform="matrix(11.955797,0,0,-11.95556,.8142929,120.32959)"/>
<use data-text="0" xlink:href="#font_1_3" transform="matrix(11.955797,0,0,-11.95556,6.6726305,120.32959)"/>
<use data-text="4" xlink:href="#font_1_6" transform="matrix(11.955797,0,0,-11.95556,.8142929,74.21821)"/>
<use data-text="0" xlink:href="#font_1_3" transform="matrix(11.955797,0,0,-11.95556,6.6726305,74.21821)"/>
<use data-text="6" xlink:href="#font_1_8" transform="matrix(11.955797,0,0,-11.95556,.8142929,28.10582)"/>
<use data-text="0" xlink:href="#font_1_3" transform="matrix(11.955797,0,0,-11.95556,6.6726305,28.10582)"/>
<g clip-path="url(#clip_3)">
<path transform="matrix(1.00005,0,0,-1.00003,18.831192,162.59687)" stroke-width=".79701" stroke-linecap="butt" stroke-miterlimit="10" stroke-linejoin="miter" fill="none" stroke="#0000ff" d="M0 110.67296 .21634 110.91876 .43268 111.16373 .64902 111.40787 .86536 111.6512 1.0817 111.8937 1.29803 112.13539 1.51437 112.37625 1.73071 112.61627 1.94705 112.8555 2.16339 113.0939 2.37973 113.33147 2.59607 113.56822 2.81241 113.80417 3.02875 114.03928 3.24509 114.27356 3.46143 114.50702 3.67776 114.73967 3.8941 114.9715 4.11044 115.2025 4.3268 115.43268 4.54314 115.66202 4.75948 115.89058 4.97581 116.11829 5.19215 116.34517 5.4085 116.57126 5.62483 116.79651 5.84117 117.02094 6.05751 117.24454 6.27385 117.46732 6.49019 117.68929 6.70653 117.91043 6.92287 118.13075 7.1392 118.35025 7.35555 118.56894 7.57188 118.78677 7.78822 119.00381 8.00456 119.22003 8.2209 119.43541 8.43724 119.65 8.6536 119.86372 8.86993 120.07666 9.08627 120.28876 9.30261 120.50006 9.51895 120.71051 9.73529 120.92015 9.95163 121.12898 10.16797 121.33698 10.38431 121.54414 10.60065 121.75049 10.81699 121.95602 11.03333 122.16074 11.24966 122.36462 11.466 122.56769 11.68234 122.76994 11.89868 122.97136 12.11502 123.17197 12.33136 123.37173 12.5477 123.57071 12.76405 123.76884 12.9804 123.96617 13.19673 124.16266 13.41307 124.35834 13.62941 124.55318 13.84576 124.74721 14.0621 124.94041 14.27844 125.1328 14.49478 125.32437 14.71112 125.5151 14.92746 125.70503 15.1438 125.89413 15.36014 126.08241 15.57648 126.26988 15.79282 126.45651 16.00916 126.64232 16.2255 126.82732 16.44183 127.01147 16.65817 127.19482 16.87451 127.37735 17.09087 127.55907 17.3072 127.73994 17.52354 127.92 17.73988 128.09925 17.95622 128.27767 18.17256 128.45526 18.3889 128.63205 18.60524 128.808 18.82158 128.98314 19.03792 129.15744 19.25426 129.33094 19.4706 129.5036 19.68694 129.67545 19.90327 129.84648 20.11961 130.01668 20.33595 130.18605 20.55229 130.35462 20.76863 130.52236 20.98497 130.68927 21.20131 130.85536 21.41766 131.02065 21.634 131.1851 21.85034 131.34874 22.06668 131.51154 22.28302 131.67353 22.49936 131.83469 22.7157 131.99503 22.93204 132.15456 23.14838 132.31325 23.36472 132.47115 23.58105 132.62819 23.7974 132.78443 24.01373 132.93985 24.23007 133.09444 24.44641 133.2482 24.66275 133.40117 24.87909 133.55329 25.09543 133.7046 25.31177 133.85509 25.52812 134.00475 25.74446 134.1536 25.9608 134.3016 26.17714 134.44879 26.39348 134.59519 26.60982 134.74074 26.82616 134.88547 27.0425 135.02938 27.25883 135.17247 27.47519 135.31475 27.69153 135.45619 27.90787 135.59682 28.1242 135.73662 28.34055 135.87561 28.55688 136.01377 28.77322 136.1511 28.98956 136.28763 29.2059 136.42333 29.42224 136.5582 29.63858 136.69225 29.85493 136.82547 30.07127 136.95789 30.28761 137.08948 30.50395 137.22025 30.72029 137.35019 30.93663 137.47931 31.15297 137.60762 31.36931 137.7351 31.58565 137.86176 31.80199 137.9876 32.01833 138.1126 32.23466 138.2368 32.451 138.36017 32.66734 138.48271 32.88368 138.60446 33.10002 138.72536 33.31636 138.84545 33.5327 138.9647 33.74904 139.08315 33.96538 139.20078 34.18173 139.31757 34.39807 139.43357 34.61441 139.5487 34.83075 139.66303 35.04709 139.77657 35.26343 139.88925 35.47977 140.00113 35.6961 140.11215 35.91245 140.22238 36.12878 140.3318 36.34512 140.44039 36.56146 140.54814 36.7778 140.65508 36.99414 140.7612 37.21048 140.8665 37.42682 140.97098 37.64316 141.07463 37.8595 141.17746 38.07584 141.27947 38.29219 141.38066 38.50853 141.48102 38.72487 141.58058 38.94121 141.6793 39.15755 141.7772 39.37389 141.87429 39.59023 141.97054 39.80656 142.06598 40.0229 142.1606 40.23924 142.2544 40.45558 142.34737 40.67192 142.43952 40.88826 142.53086 41.1046 142.62136 41.32095 142.71105 41.5373 142.79991 41.75363 142.88796 41.96997 142.97518 42.18631 143.06157 42.40265 143.14716 42.619 143.2319 42.83534 143.31584 43.05168 143.39896 43.26802 143.48125 43.48436 143.56272 43.7007 143.64339 43.91704 143.7232 44.13338 143.80222 44.34972 143.88039 44.56606 143.95777 44.7824 144.0343 44.99873 144.11002 45.21507 144.18492 45.43141 144.25899 45.64775 144.33225 45.86409 144.40468 46.08043 144.47629 46.29677 144.54708 46.5131 144.61705 46.72945 144.68619 46.9458 144.75452 47.16214 144.82202 47.37848 144.88872 47.59482 144.95456 47.81116 145.01959 48.0275 145.08383 48.24384 145.14722 48.46017 145.2098 48.67651 145.27155 48.89285 145.33248 49.10919 145.39258 49.32553 145.45188 49.54187 145.51033 49.75821 145.56798 49.97455 145.6248 50.19089 145.68082 50.40723 145.736 50.62357 145.79035 50.8399 145.84389 51.05626 145.8966 51.2726 145.94849 51.48894 145.99956 51.70528 146.0498 51.92162 146.09925 52.13795 146.14785 52.3543 146.19564 52.57063 146.2426 52.78697 146.28874 53.00331 146.33408 53.21965 146.37856 53.43599 146.42224 53.65233 146.46509 53.86867 146.50713 54.085 146.54834 54.30135 146.58873 54.51768 146.6283 54.73402 146.66706 54.95038 146.70499 55.16672 146.74208 55.38307 146.77837 55.59941 146.81383 55.81575 146.84847 56.03209 146.88228 56.24843 146.91529 56.46477 146.94745 56.6811 146.9788 56.89745 147.00934 57.11378 147.03905 57.33012 147.06795 57.54646 147.09601 57.7628 147.12325 57.97914 147.14968 58.19548 147.17528 58.41182 147.20005 58.62816 147.22403 58.8445 147.24715 59.06084 147.26947 59.27718 147.29097 59.49352 147.31163 59.70987 147.33148 59.92621 147.35053 60.14255 147.36873 60.35889 147.38611 60.57523 147.40268 60.79156 147.41841 61.0079 147.43334 61.22424 147.44744 61.44058 147.46073 61.65692 147.47318 61.87326 147.48482 62.0896 147.49562 62.30594 147.50563 62.52228 147.51479 62.73862 147.52313 62.95496 147.53066 63.1713 147.53737 63.38763 147.54325 63.60397 147.54831 63.82033 147.55255 64.03667 147.55597 64.253 147.55858 64.46935 147.56035 64.68568 147.56131 64.90202 147.56143 65.11836 147.56075 65.3347 147.55922 65.55104 147.55692 65.76738 147.55377 65.98372 147.54978 66.20006 147.545 66.4164 147.53936 66.63274 147.53295 66.84908 147.5257 67.06541 147.51758 67.28175 147.50868 67.4981 147.49895 67.71443 147.48842 67.93077 147.47705 68.14713 147.46485 68.36346 147.45185 68.5798 147.43799 68.79616 147.42336 69.0125 147.40789 69.22884 147.39156 69.44518 147.37445 69.66151 147.35648 69.87785 147.33774 70.0942 147.31816 70.31053 147.29773 70.52687 147.2765 70.74321 147.25444 70.95955 147.23159 71.17589 147.20789 71.39223 147.18341 71.60857 147.15808 71.8249 147.1319 72.04124 147.10489 72.25758 147.07709 72.47394 147.0485 72.69028 147.01905 72.90662 146.98876 73.12296 146.95769 73.3393 146.92578 73.55563 146.89308 73.77197 146.85947 73.98831 146.82514 74.20465 146.7899 74.42099 146.75388 74.63733 146.71706 74.85367 146.6794 75.07 146.6409 75.28635 146.60161 75.50269 146.56148 75.71902 146.52057 75.93536 146.47879 76.1517 146.43619 76.36804 146.39279 76.5844 146.34854 76.80074 146.30345 77.01707 146.25759 77.23341 146.21092 77.44975 146.1634 77.66609 146.11507 77.88243 146.06587 78.09877 146.01589 78.31511 145.96512 78.53145 145.91345 78.74779 145.86104 78.96413 145.80773 79.18047 145.75365 79.3968 145.6987 79.61314 145.64299 79.82948 145.58647 80.04582 145.52907 80.26216 145.47086 80.4785 145.41187 80.69484 145.35198 80.9112 145.29135 81.12753 145.22983 81.34387 145.16753 81.56021 145.10443 81.77655 145.04042 81.99289 144.9757 82.20923 144.91007 82.42557 144.8437 82.64192 144.77645 82.85826 144.70839 83.0746 144.6395 83.29094 144.56981 83.50728 144.49929 83.72362 144.4279 83.93996 144.35575 84.1563 144.28275 84.37263 144.20896 84.58897 144.13431 84.80531 144.05889 85.02165 143.98256 85.238 143.9055 85.45435 143.82759 85.67068 143.74886 85.88702 143.66927 86.10336 143.58889 86.3197 143.50768 86.53604 143.42566 86.75238 143.34279 86.96872 143.25916 87.18506 143.17467 87.4014 143.08934 87.61774 143.0032 87.83408 142.91626 88.05042 142.82845 88.26675 142.73986 88.4831 142.65047 88.69943 142.56018 88.91577 142.4691 89.13211 142.37725 89.34846 142.28453 89.5648 142.19098 89.78114 142.09665 89.99748 142.00148 90.21382 141.9055 90.43016 141.80869 90.6465 141.71103 90.86284 141.61258 91.07918 141.51329 91.29552 141.41321 91.51186 141.31229 91.7282 141.21051 91.94453 141.10796 92.16087 141.00457 92.37721 140.90038 92.59355 140.79535 92.80989 140.68947 93.02623 140.5828 93.24257 140.47528 93.45891 140.36699 93.67526 140.25786 93.8916 140.14788 94.10794 140.0371 94.32428 139.92548 94.54062 139.81308 94.75696 139.69982 94.9733 139.58579 95.18964 139.47084 95.40598 139.35518 95.62231 139.2386 95.83865 139.12125 96.055 139.0031 96.27135 138.88411 96.48769 138.76427 96.70403 138.64365 96.92036 138.52219 97.1367 138.39987 97.35304 138.27677 97.56938 138.15288 97.78572 138.02809 98.00208 137.90251 98.21841 137.77614 98.43475 137.64894 98.6511 137.52088 98.86743 137.39205 99.08377 137.26235 99.30011 137.13182 99.51645 137.00049 99.73279 136.8684 99.94913 136.73538 100.16547 136.6016 100.3818 136.46701 100.59814 136.33158 100.81448 136.19532 101.03082 136.05825 101.24716 135.92035 101.4635 135.78166 101.67984 135.64212 101.89618 135.50174 102.11253 135.36057 102.32887 135.21855 102.54521 135.07576 102.76155 134.93212 102.97789 134.78762 103.19423 134.64235 103.41057 134.49622 103.6269 134.34932 103.84325 134.20149 104.05959 134.05295 104.27592 133.90357 104.49226 133.75334 104.7086 133.60233 104.92494 133.4504 105.14128 133.29775 105.35762 133.14426 105.57396 132.98992 105.7903 132.8348 106.00664 132.67882 106.22298 132.52199 106.43933 132.3644 106.65567 132.20595 106.87201 132.0467 107.08835 131.88663 107.30469 131.7257 107.52103 131.56398 107.73737 131.40143 107.9537 131.23809 108.17004 131.07389 108.38638 130.9089 108.60272 130.74309 108.81906 130.57642 109.0354 130.40897 109.25174 130.24066 109.46808 130.07152 109.68442 129.9016 109.90076 129.73082 110.11711 129.55925 110.33345 129.38684 110.54979 129.21366 110.76614 129.03955 110.98248 128.86472 111.19882 128.68904 111.41516 128.51253 111.6315 128.33518 111.84784 128.15702 112.06418 127.97803 112.28052 127.79823 112.49686 127.61761 112.7132 127.4362 112.92953 127.25395 113.14587 127.07083 113.36221 126.88695 113.57855 126.70222 113.79489 126.5167 114.01123 126.33028 114.22757 126.14311 114.44391 125.95512 114.66025 125.76627 114.8766 125.57657 115.09294 125.38611 115.30928 125.19484 115.52562 125.00273 115.74196 124.80977 115.9583 124.61598 116.17464 124.42139 116.39098 124.22601 116.60732 124.0298 116.82365 123.83273 117.04 123.63483 117.25633 123.43614 117.47267 123.23665 117.68901 123.03632 117.90535 122.83516 118.12169 122.63313 118.33803 122.43039 118.55437 122.22675 118.7707 122.02231 118.98705 121.81703 119.2034 121.61096 119.41974 121.40404 119.63608 121.19629 119.85242 120.98775 120.06876 120.77835 120.2851 120.56818 120.50143 120.35716 120.71777 120.14534 120.93411 119.93265 121.15045 119.71921 121.36679 119.50485 121.58313 119.28973 121.79947 119.0738 122.01581 118.85704 122.23215 118.63943 122.44849 118.42105 122.66483 118.2018 122.88116 117.98172 123.0975 117.76085 123.31384 117.5392 123.5302 117.31662 123.74655 117.09334 123.96289 116.86914 124.17923 116.64417 124.39557 116.41833 124.61191 116.19173 124.82825 115.96426 125.04459 115.73602 125.26093 115.50693 125.47726 115.277 125.6936 115.04626 125.90994 114.81471 126.12628 114.5823 126.34262 114.34909 126.55896 114.11511 126.7753 113.88028 126.99164 113.6446 127.20798 113.4081 127.42432 113.17078 127.64067 112.93268 127.85701 112.69374 128.07335 112.45395 128.28969 112.21333 128.50603 111.97191 128.72237 111.72972 128.9387 111.4866 129.15505 111.24277 129.37139 110.99803 129.58773 110.7525 129.80406 110.50618 130.0204 110.25899 130.23674 110.01102 130.45308 109.76218 130.66942 109.51256 130.88576 109.26213 131.1021 109.01085 131.31844 108.75874 131.53478 108.50584 131.75112 108.2521 131.96747 107.99753 132.1838 107.74214 132.40015 107.48592 132.61649 107.22891 132.83283 106.97105 133.04917 106.71236 133.2655 106.45288 133.48184 106.19261 133.69818 105.93144 133.91452 105.66948 134.13086 105.40672 134.3472 105.14313 134.56354 104.87868 134.77988 104.61345 134.99622 104.3474 135.21256 104.08047 135.4289 103.81279 135.64524 103.54428 135.86157 103.27489 136.07791 103.00471 136.29427 102.73375 136.5106 102.46193 136.72695 102.18927 136.94329 101.91583 137.15962 101.64154 137.37596 101.36647 137.59232 101.09055 137.80866 100.81378 138.025 100.53622 138.24134 100.25783 138.45767 99.97859 138.67401 99.69856 138.89035 99.41774 139.10669 99.13603 139.32303 98.85358 139.53937 98.57022 139.7557 98.28609 139.97205 98.00116 140.18839 97.71533 140.40474 97.42877 140.62108 97.1413 140.83742 96.85306 141.05376 96.56403 141.2701 96.27415 141.48644 95.98341 141.70278 95.69185 141.91912 95.39949 142.13545 95.10635 142.35179 94.8123 142.56813 94.51753 142.78447 94.22185 143.00081 93.92538 143.21715 93.62813 143.43349 93.33003 143.64983 93.03108 143.86617 92.73135 144.0825 92.43079 144.29885 92.12936 144.51519 91.82716 144.73154 91.52411 144.94788 91.22028 145.16422 90.91559 145.38056 90.6101 145.5969 90.30374 145.81324 89.99663 146.02957 89.68864 146.24591 89.37984 146.46225 89.07027 146.67859 88.75983 146.89493 88.44856 147.11127 88.13652 147.3276 87.8236 147.54395 87.50986 147.76029 87.19533 147.97663 86.88 148.19297 86.56378 148.4093 86.24683 148.62564 85.92897 148.842 85.61034 149.05834 85.29085 149.27468 84.97057 149.49102 84.64944 149.70735 84.32755 149.92369 84.00479 150.14003 83.6812 150.35637 83.3568 150.57271 83.03157 150.78905 82.70557 151.00539 82.37865 151.22174 82.051 151.43808 81.7225 151.65442 81.39316 151.87076 81.06297 152.0871 80.73201 152.30344 80.40027 152.51978 80.0676 152.73612 79.7342 152.95246 79.39992 153.16881 79.06483 153.38515 78.72897 153.60149 78.39226 153.81783 78.0547 154.03417 77.71631 154.2505 77.37712 154.46685 77.03714 154.68318 76.69632 154.89952 76.35464 155.11586 76.01215 155.3322 75.6689 155.54854 75.32477 155.76488 74.97983 155.98122 74.63406 156.19756 74.2875 156.4139 73.9401 156.63024 73.59184 156.84658 73.2428 157.06291 72.89291 157.27925 72.54225 157.4956 72.19073 157.71195 71.83842 157.92829 71.48529 158.14463 71.1313 158.36096 70.77646 158.5773 70.42084 158.79364 70.06442 159.00998 69.70717 159.22632 69.34906 159.44266 68.99017 159.659 68.63045 159.87534 68.26991 160.09168 67.90851 160.30802 67.54636 160.52436 67.18335 160.74069 66.81952 160.95703 66.45482 161.17337 66.08934 161.38971 65.72302 161.60607 65.35593 161.8224 64.98798 162.03874 64.61923 162.25508 64.24965 162.47142 63.87921 162.68776 63.50801 162.9041 63.13594 163.12044 62.76308 163.33678 62.38943 163.55312 62.01488 163.76946 61.63953 163.9858 61.26334 164.20214 60.88641 164.41847 60.5086 164.63481 60.12997 164.85115 59.75052 165.0675 59.37027 165.28385 58.98914 165.50019 58.6073 165.71652 58.22452 165.93288 57.84099 166.14922 57.45662 166.36556 57.07143 166.5819 56.68541 166.79824 56.29851 167.01457 55.91089 167.23091 55.5224 167.44725 55.1331 167.66359 54.743 167.87993 54.352 168.09627 53.96025 168.3126 53.56764 168.52895 53.17422 168.74529 52.78004 168.96163 52.38498 169.17797 51.98907 169.3943 51.59242 169.61064 51.19485 169.82698 50.79651 170.04332 50.39738 170.25968 49.99738 170.47602 49.59657 170.69235 49.19495 170.90869 48.7925 171.12503 48.3892 171.34137 47.98509 171.55771 47.58025 171.77405 47.17444 171.99039 46.7679 172.20673 46.36052 172.42307 45.95235 172.6394 45.5433 172.85575 45.13347 173.07209 44.72281 173.28842 44.31126 173.50476 43.89897 173.7211 43.48589 173.93744 43.07191 174.15378 42.65717 174.37014 42.24155 174.58647 41.8251 174.80281 41.40787 175.01915 40.98984 175.23549 40.57095 175.45183 40.15126 175.66817 39.73071 175.8845 39.30937 176.10085 38.88724 176.31719 38.46422 176.53353 38.0404 176.74987 37.6158 176.9662 37.19034 177.18254 36.76407 177.39888 36.33694 177.61522 35.90906 177.83156 35.48029 178.0479 35.05074 178.26424 34.62036 178.48058 34.18915 178.69695 33.75713 178.91329 33.32426 179.12963 32.89056 179.34597 32.4561 179.5623 32.02078 179.77864 31.58467 179.99498 31.14766 180.21132 30.70998 180.42766 30.2713 180.644 29.83195 180.86034 29.39165 181.07668 28.95055 181.29302 28.50874 181.50936 28.066 181.7257 27.6225 181.94203 27.17813 182.15837 26.73293 182.37471 26.28693 182.59105 25.84012 182.80739 25.3925 183.02375 24.94402 183.24008 24.49474 183.45642 24.04468 183.67276 23.59377 183.8891 23.14201 184.10544 22.6894 184.32178 22.23604 184.53812 21.78183 184.75446 21.32677 184.9708 20.87093 185.18714 20.41426 185.40348 19.95674 185.61981 19.49847 185.83615 19.0393 186.05249 18.57935 186.26883 18.11856 186.48517 17.65695 186.7015 17.1945 186.91785 16.73123 187.1342 16.26724 187.35054 15.80235 187.56688 15.3366 187.78322 14.87006 187.99956 14.4027 188.2159 13.93456 188.43224 13.46552 188.64858 12.99573 188.86492 12.52509 189.08126 12.0536 189.29759 11.58136 189.51393 11.10818 189.73027 10.63428 189.94661 10.15955 190.16295 9.68393 190.37929 9.20761 190.59563 8.73032 190.81197 8.25233 191.0283 7.77344 191.24465 7.29376 191.461 6.81332 191.67734 6.332 191.89368 5.84981 192.11002 5.36682 192.32636 4.88301 192.54271 4.39847 192.75905 3.91304 192.97539 3.42676 193.19173 2.93973 193.40807 2.45183 193.6244 1.96309 193.84075 1.47356 194.05709 .98314 194.27342 .49199 194.48976 0"/>
</g>
<use data-text="t" xlink:href="#font_2_3" transform="matrix(11.955797,0,0,-11.95556,204.74649,158.40573)"/>
<use data-text="s" xlink:href="#font_2_2" transform="matrix(11.955797,0,0,-11.95556,23.0154,14.322403)"/>
<use data-text="(" xlink:href="#font_1_1" transform="matrix(11.955797,0,0,-11.95556,28.529675,14.322403)"/>
<use data-text="t" xlink:href="#font_2_3" transform="matrix(11.955797,0,0,-11.95556,33.081907,14.322403)"/>
<use data-text=")" xlink:href="#font_1_2" transform="matrix(11.955797,0,0,-11.95556,37.309118,14.322403)"/>
</svg>
