<svg xmlns="http://www.w3.org/2000/svg" xmlns:xlink="http://www.w3.org/1999/xlink" version="1.1" width="120" height="117" viewBox="0 0 120 117">
<defs>
<path id="font_1_1" d="M.6589966 .23046875C.6759949 .23046875 .69400027 .23046875 .69400027 .25045777 .69400027 .27046205 .6759949 .27046205 .6589966 .27046205H.117996219C.100997928 .27046205 .08299255 .27046205 .08299255 .25045777 .08299255 .23046875 .100997928 .23046875 .117996219 .23046875H.6589966Z"/>
<path id="font_2_4" d="M.36099244 .6508026C.36099244 .6697998 .36099244 .6748047 .34700013 .6748047 .33898927 .6748047 .33599855 .6748047 .32798768 .662796L.026992798 .19598389V.16699219H.2899933V.07598877C.2899933 .038986207 .28799439 .0289917 .21499634 .0289917H.19499207V0C.21798706 .0019989014 .29699708 .0019989014 .32499696 .0019989014 .35299684 .0019989014 .43299867 .0019989014 .45599366 0V.0289917H.43598939C.3639984 .0289917 .36099244 .038986207 .36099244 .07598877V.16699219H.46199037V.19598389H.36099244V.6508026M.29499818 .5728302V.19598389H.051986696L.29499818 .5728302Z"/>
<path id="font_2_3" d="M.43998719 .16790772H.41799928C.4149933 .15092469 .40699769 .09597778 .39698792 .07998657 .3899994 .070999149 .33299256 .070999149 .30299378 .070999149H.117996219C.14498902 .09397888 .20599365 .15792847 .23199463 .18190003 .38398744 .3217926 .43998719 .37374879 .43998719 .47270204 .43998719 .5878906 .34899903 .66503909 .23298645 .66503909 .116989139 .66503909 .04899597 .5658264 .04899597 .4797058 .04899597 .42871095 .09298706 .42871095 .09599304 .42871095 .116989139 .42871095 .14299011 .44371034 .14299011 .475708 .14299011 .5037079 .12399292 .5227051 .09599304 .5227051 .08699036 .5227051 .084991458 .5227051 .08198547 .521698 .100997928 .5899048 .15499878 .6360321 .21998596 .6360321 .30499269 .6360321 .35699464 .56481936 .35699464 .47270204 .35699464 .3877411 .30799867 .313797 .25099183 .24984741L.04899597 .023986817V0H.4139862L.43998719 .16790772Z"/>
<path id="font_2_5" d="M.12799073 .5727997C.17098999 .5588074 .20599365 .5578003 .21699524 .5578003 .32998658 .5578003 .4019928 .6409912 .4019928 .6550598 .4019928 .6590576 .3999939 .6640625 .3939972 .6640625 .3919983 .6640625 .3899994 .6640625 .3809967 .66004946 .32499696 .6358795 .2769928 .6328125 .25099183 .6328125 .18499756 .6328125 .13798523 .6530609 .11898804 .6610565 .11199951 .6640625 .10998535 .6640625 .10899353 .6640625 .100997928 .6640625 .100997928 .65805056 .100997928 .64201357V.34495545C.100997928 .32695008 .100997928 .32095338 .11299133 .32095338 .117996219 .32095338 .11898804 .32196046 .1289978 .33395387 .15699768 .37493897 .20399475 .39894105 .2539978 .39894105 .30699159 .39894105 .33299256 .34994508 .34098817 .33294679 .35798646 .29396058 .35899354 .2449646 .35899354 .20697022 .35899354 .16897583 .35899354 .11193848 .33099366 .0667572 .30899049 .03060913 .269989 .005508423 .22599793 .005508423 .1599884 .005508423 .09498596 .050689699 .07699585 .12397766 .08198547 .12197876 .08799744 .12097168 .09298706 .12097168 .10998535 .12097168 .13699341 .13098145 .13699341 .16497803 .13699341 .1929779 .117996219 .20898438 .09298706 .20898438 .07499695 .20898438 .04899597 .19998169 .04899597 .16098023 .04899597 .075790408 .116989139-.021484375 .22799683-.021484375 .34098817-.021484375 .43998719 .073791507 .43998719 .20097351 .43998719 .3199463 .3600006 .4189453 .25498963 .4189453 .19799805 .4189453 .1539917 .39393617 .12799073 .36595155V.5727997Z"/>
<path id="font_2_1" d="M.44799806 .31976319C.44799806 .40283204 .44299317 .48390199 .40699769 .55996707 .3659973 .64302065 .2939911 .66503909 .24499512 .66503909 .18699646 .66503909 .115997318 .63601687 .07899475 .552948 .050994874 .48989869 .040985109 .42785646 .040985109 .31976319 .040985109 .22268677 .04798889 .14962769 .083999637 .078567508 .12298584 .0025177003 .19198609-.021484375 .24398804-.021484375 .33099366-.021484375 .3809967 .030532837 .4099884 .08857727 .44599916 .16363526 .44799806 .26171876 .44799806 .31976319M.24398804-.0014953613C.21199036-.0014953613 .14698792 .016525269 .12799073 .12561035 .116989139 .18565369 .116989139 .26171876 .116989139 .33177186 .116989139 .41384889 .116989139 .48789979 .1329956 .5469513 .1499939 .6139984 .20098877 .6450348 .24398804 .6450348 .28199769 .6450348 .33999635 .6220093 .35899354 .53593447 .37199403 .4788971 .37199403 .39982606 .37199403 .33177186 .37199403 .26472474 .37199403 .18865967 .36099244 .12760926 .34199525 .01751709 .2789917-.0014953613 .24398804-.0014953613Z"/>
<path id="font_2_2" d="M.28799439 .64105227C.28799439 .664032 .28799439 .66503909 .2679901 .66503909 .24398804 .6380615 .19400025 .6012573 .09098816 .6012573V.5722656C.11399841 .5722656 .1639862 .5722656 .21899414 .59825137V.07701111C.21899414 .041000368 .21598816 .0289917 .12799073 .0289917H.09700012V0C.12399292 .0019989014 .22099304 .0019989014 .2539978 .0019989014 .2869873 .0019989014 .3829956 .0019989014 .4099884 0V.0289917H.3789978C.29100038 .0289917 .28799439 .041000368 .28799439 .07701111V.64105227Z"/>
<clipPath id="clip_3">
<path transform="matrix(.60003,0,0,-.6,1.9494982,97.9584)" d="M0 0H194.2803V161.39772H0Z"/>
</clipPath>
<path id="font_4_1" d="M.47399903 .40820313C.44198609 .40219117 .42999269 .3781891 .42999269 .3591919 .42999269 .33518983 .44898988 .3271942 .46299745 .3271942 .49299623 .3271942 .5139923 .3531952 .5139923 .380188 .5139923 .4223938 .46598817 .44140626 .42399598 .44140626 .36299134 .44140626 .32899476 .38119508 .31999208 .36219789 .29699708 .4373932 .23498535 .44140626 .21699524 .44140626 .114990238 .44140626 .06098938 .31021119 .06098938 .28822328 .06098938 .28422547 .06498718 .27923585 .07199097 .27923585 .07998657 .27923585 .08198547 .28523255 .083999637 .2892151 .117996219 .40019227 .18499756 .42140199 .21398926 .42140199 .25898744 .42140199 .2679901 .37919618 .2679901 .3551941 .2679901 .33319093 .2619934 .31021119 .25 .26223756L.21598816 .12535095C.20098877 .06535339 .17199707 .010223389 .11898804 .010223389 .11399841 .010223389 .08898926 .010223389 .067993167 .023330689 .10398865 .03036499 .11199951 .06036377 .11199951 .07235718 .11199951 .09236145 .09700012 .10435486 .07798767 .10435486 .053985597 .10435486 .027999878 .083358768 .027999878 .051361085 .027999878 .009231567 .07499695-.009765625 .117996219-.009765625 .1659851-.009765625 .19999695 .028366089 .22099304 .069366458 .23699951 .010223389 .2869873-.009765625 .32398988-.009765625 .42599488-.009765625 .47999574 .12135315 .47999574 .1433258 .47999574 .14833069 .47599793 .15232849 .46998597 .15232849 .46099855 .15232849 .45999146 .14732361 .45700074 .139328 .42999269 .051361085 .37199403 .010223389 .32699586 .010223389 .2919922 .010223389 .272995 .036361696 .272995 .07736206 .272995 .099365238 .2769928 .115356449 .29299928 .18130493L.32798768 .3171997C.34298707 .37719728 .3769989 .42140199 .4229889 .42140199 .4249878 .42140199 .45298768 .42140199 .47399903 .40820313Z"/>
<path id="font_4_2" d="M.2630005-.11172485C.23599243-.14982605 .19699097-.18411255 .147995-.18411255 .13598633-.18411255 .08799744-.18209839 .07299805-.13572693 .07598877-.13671875 .08099365-.13671875 .08299255-.13671875 .11299133-.13671875 .1329956-.11073303 .1329956-.08772278 .1329956-.06472778 .11399841-.056732179 .09899902-.056732179 .08299255-.056732179 .04798889-.068725589 .04798889-.11772156 .04798889-.16899109 .09098816-.20410156 .147995-.20410156 .24798584-.20410156 .34899903-.11172485 .3769989-.00077819827L.47499085 .38868714C.47599793 .39367677 .47799684 .39967347 .47799684 .4056549 .47799684 .4206543 .46598817 .43066407 .45098878 .43066407 .44198609 .43066407 .42099 .426651 .41299439 .39666749L.33898927 .10308838C.33399964 .085113529 .33399964 .08312988 .32598878 .072143558 .30599977 .04423523 .272995 .010223389 .22499085 .010223389 .16899109 .010223389 .1639862 .06524658 .1639862 .09225464 .1639862 .14929199 .19099427 .22631836 .21798706 .2983551 .22898865 .32736207 .23498535 .34136964 .23498535 .3613739 .23498535 .4033966 .20498657 .44140626 .1559906 .44140626 .06399536 .44140626 .026992798 .29634095 .026992798 .28834535 .026992798 .28434754 .0309906 .27934266 .037994386 .27934266 .04699707 .27934266 .04798889 .28334046 .051986696 .29734803 .07598877 .38137818 .11399841 .42140199 .15299988 .42140199 .1619873 .42140199 .1789856 .42140199 .1789856 .38838197 .1789856 .36238099 .16799927 .33335877 .15299988 .29534913 .10398865 .16429138 .10398865 .13127136 .10398865 .10726929 .10398865 .01222229 .17199707-.009765625 .22200012-.009765625 .25099183-.009765625 .2869873-.00077819827 .32199098 .036239625L.32299806 .035232545C.30799867-.023757935 .2979889-.06272888 .2630005-.11172485Z"/>
</defs>
<path transform="matrix(.60003,0,0,-.6,1.9494982,97.9584)" stroke-width=".19925" stroke-linecap="butt" stroke-miterlimit="10" stroke-linejoin="miter" fill="none" stroke="#929292" d="M19.42812-2.1262V2.1262M58.28438-2.1262V2.1262M135.99689-2.1262V2.1262M174.85315-2.1262V2.1262"/>
<path transform="matrix(.60003,0,0,-.6,1.9494982,97.9584)" stroke-width=".19925" stroke-linecap="butt" stroke-miterlimit="10" stroke-linejoin="miter" fill="none" stroke="#929292" d="M95.01462 54.3876H99.26663M95.01462 108.78256H99.26663"/>
<path transform="matrix(.60003,0,0,-.6,1.9494982,97.9584)" stroke-width=".3985" stroke-linecap="butt" stroke-miterlimit="10" stroke-linejoin="miter" fill="none" stroke="#000000" d="M0 0H192.28778"/>
<path transform="matrix(.60003,0,0,-.6,117.32794,97.9584)" d="M1.99252 0-1.19551 1.59401 0 0-1.19551-1.59401"/>
<path transform="matrix(.60003,0,0,-.6,1.9494982,97.9584)" stroke-width=".3985" stroke-linecap="butt" stroke-miterlimit="10" stroke-linejoin="miter" fill="none" stroke="#000000" d="M97.14064 0V159.4052"/>
<path transform="matrix(0,-.6,-.60003,-0,60.236799,2.315277)" d="M1.99252 0-1.19551 1.59401 0 0-1.19551-1.59401"/>
<use data-text="&#x2212;" xlink:href="#font_1_1" transform="matrix(7.1734788,0,0,-7.1731207,9.061054,106.3674)"/>
<use data-text="4" xlink:href="#font_2_4" transform="matrix(7.1734788,0,0,-7.1731207,14.640133,106.3674)"/>
<use data-text="&#x2212;" xlink:href="#font_1_1" transform="matrix(7.1734788,0,0,-7.1731207,32.37642,106.3674)"/>
<use data-text="2" xlink:href="#font_2_3" transform="matrix(7.1734788,0,0,-7.1731207,37.955499,106.3674)"/>
<use data-text="2" xlink:href="#font_2_3" transform="matrix(7.1734788,0,0,-7.1731207,81.795497,106.3674)"/>
<use data-text="4" xlink:href="#font_2_4" transform="matrix(7.1734788,0,0,-7.1731207,105.110858,106.3674)"/>
<use data-text="5" xlink:href="#font_2_5" transform="matrix(7.1734788,0,0,-7.1731207,49.426877,67.6374)"/>
<use data-text="0" xlink:href="#font_2_1" transform="matrix(7.1734788,0,0,-7.1731207,52.94188,67.6374)"/>
<use data-text="1" xlink:href="#font_2_2" transform="matrix(7.1734788,0,0,-7.1731207,45.914304,35.000394)"/>
<use data-text="0" xlink:href="#font_2_1" transform="matrix(7.1734788,0,0,-7.1731207,49.429307,35.000394)"/>
<use data-text="0" xlink:href="#font_2_1" transform="matrix(7.1734788,0,0,-7.1731207,52.944314,35.000394)"/>
<g clip-path="url(#clip_3)">
<path transform="matrix(.60003,0,0,-.6,1.9494982,97.9584)" stroke-width="1.59404" stroke-linecap="butt" stroke-miterlimit="10" stroke-linejoin="miter" fill="none" stroke="#0000ff" d="M0 0 .38933 .00012 .77867 .00027 1.168 .00043 1.55734 .0006 1.94669 .00075 2.33601 .00092 2.72536 .00108 3.1147 .00124 3.50403 .00143 3.89337 .00162 4.28273 .0018 4.67206 .00198 5.0614 .00217 5.45074 .00237 5.84007 .00256 6.22942 .00276 6.61874 .00296 7.00809 .00317 7.39743 .00337 7.78676 .00359 8.1761 .00383 8.56546 .00404 8.95479 .00426 9.34413 .0045 9.73347 .00475 10.1228 .00499 10.51215 .00525 10.90149 .0055 11.29082 .00577 11.68016 .00603 12.0695 .00629 12.45883 .00658 12.84819 .00687 13.23752 .00714 13.62686 .00745 14.0162 .00774 14.40553 .00804 14.79488 .00835 15.18422 .00867 15.57355 .00897 15.96289 .00931 16.35223 .00966 16.74156 .01 17.13092 .01036 17.52026 .01071 17.90959 .01108 18.29893 .01146 18.68828 .01184 19.0776 .01222 19.46695 .0126 19.85628 .01302 20.24562 .01343 20.63496 .01384 21.02429 .01428 21.41365 .01472 21.803 .01518 22.19232 .01563 22.58167 .0161 22.97101 .01656 23.36034 .01704 23.74968 .01755 24.13902 .01805 24.52835 .01855 24.9177 .01909 25.30704 .01962 25.69638 .02017 26.08572 .0207 26.47505 .02127 26.8644 .02187 27.25374 .02246 27.64307 .02306 28.03241 .02368 28.42175 .0243 28.81108 .02495 29.20042 .02559 29.58977 .02626 29.97911 .02695 30.36845 .02765 30.7578 .02837 31.14713 .02907 31.53647 .02982 31.9258 .03056 32.31514 .03133 32.70448 .03214 33.09381 .03291 33.48315 .03372 33.8725 .03456 34.26184 .03542 34.65118 .03629 35.04053 .03714 35.42986 .03806 35.8192 .03899 36.20854 .03992 36.59787 .04086 36.98721 .04184 37.37656 .04285 37.76588 .04387 38.15524 .0449 38.54457 .04594 38.93391 .04703 39.32326 .04814 39.71259 .04924 40.10193 .0504 40.49127 .05157 40.8806 .05278 41.26994 .05399 41.65929 .05524 42.04861 .0565 42.43797 .05779 42.82732 .0591 43.21664 .06044 43.60599 .06181 43.99533 .06322 44.38466 .06465 44.774 .0661 45.16333 .0676 45.55267 .0691 45.94202 .07065 46.33134 .07224 46.7207 .07384 47.11005 .0755 47.49937 .07718 47.88872 .07889 48.27806 .08063 48.66739 .0824 49.05673 .08421 49.44608 .08606 49.8354 .08797 50.22475 .08989 50.61409 .09187 51.00343 .09389 51.39278 .09592 51.7821 .098 52.17145 .10014 52.56079 .10231 52.95012 .1045 53.33946 .10678 53.7288 .10909 54.11813 .11147 54.50748 .11386 54.89682 .11626 55.28616 .11876 55.6755 .12137 56.06485 .12398 56.45418 .12659 56.84352 .12932 57.23285 .13214 57.6222 .13496 58.01154 .1378 58.40086 .14073 58.7902 .14378 59.17955 .14684 59.5689 .14998 59.95824 .15314 60.34758 .1564 60.73691 .15967 61.12625 .16306 61.5156 .16653 61.90492 .17 62.29427 .1736 62.68361 .1773 63.07294 .18098 63.46228 .1848 63.85162 .18872 64.24097 .19273 64.63031 .19678 65.01964 .20091 65.40898 .20515 65.79832 .2094 66.18765 .21376 66.577 .21832 66.96634 .22289 67.35567 .22748 67.74501 .23225 68.13437 .23714 68.5237 .24205 68.91304 .24716 69.30238 .25227 69.69171 .25749 70.08105 .26294 70.47038 .26837 70.85973 .27393 71.24907 .2796 71.6384 .28546 72.02776 .29134 72.4171 .29744 72.80643 .30363 73.19577 .30984 73.58511 .31636 73.97444 .32289 74.36378 .32953 74.75313 .33638 75.14246 .34335 75.5318 .35043 75.92114 .35771 76.31049 .365 76.69983 .37262 77.08916 .38023 77.4785 .38818 77.86784 .39612 78.25717 .40428 78.64651 .41267 79.03586 .42116 79.42519 .42986 79.81453 .43867 80.20389 .44771 80.59322 .45697 80.98256 .46631 81.3719 .47589 81.76123 .48569 82.15057 .4957 82.5399 .50583 82.92924 .51627 83.31859 .52681 83.70792 .53769 84.09727 .54869 84.48662 .55989 84.87595 .57144 85.26529 .58318 85.65463 .59505 86.04396 .60735 86.4333 .61975 86.82265 .63249 87.21198 .64542 87.60133 .65858 87.99068 .67209 88.38 .6858 88.76935 .69984 89.15868 .7142 89.54802 .72878 89.93736 .74368 90.32669 .75893 90.71605 .77438 91.1054 .79027 91.49472 .80637 91.88406 .8228 92.2734 .83966 92.66273 .85675 93.05208 .87427 93.44142 .89212 93.83075 .9103 94.22011 .9289 94.60945 .94783 94.99878 .96721 95.38812 .9869 95.77745 1.00703 96.1668 1.02759 96.55614 1.0485 96.94547 1.06992 97.33481 1.09146 97.72417 1.11371 98.1135 1.1364 98.50284 1.15956 98.89218 1.18315 99.28151 1.20724 99.67085 1.23184 100.0602 1.25691 100.44952 1.2825 100.83887 1.30861 101.22823 1.33525 101.61755 1.36241 102.0069 1.39014 102.39622 1.41844 102.78557 1.44728 103.17491 1.47675 103.56424 1.50674 103.95358 1.53743 104.34293 1.56868 104.73227 1.60057 105.12161 1.63316 105.51096 1.66632 105.90028 1.7002 106.28963 1.73477 106.67897 1.77005 107.0683 1.806 107.45764 1.84268 107.84698 1.88016 108.23633 1.91838 108.62567 1.95734 109.015 1.9971 109.40434 2.0377 109.79369 2.07909 110.18301 2.12129 110.57236 2.16437 110.9617 2.20834 111.35104 2.25319 111.74039 2.29895 112.12973 2.34558 112.51906 2.39325 112.9084 2.44185 113.29774 2.49141 113.68707 2.54199 114.07642 2.59361 114.46574 2.64622 114.8551 2.69994 115.24445 2.75478 115.63377 2.81067 116.02312 2.86768 116.41246 2.92592 116.80179 2.98528 117.19113 3.04587 117.58047 3.10764 117.9698 3.1707 118.35915 3.235 118.74849 3.30063 119.13783 3.3676 119.52718 3.43597 119.91652 3.5056 120.30585 3.57675 120.69519 3.64932 121.08452 3.72327 121.47386 3.79878 121.8632 3.8758 122.25253 3.95442 122.64188 4.03464 123.03122 4.11641 123.42056 4.19987 123.8099 4.28513 124.19925 4.37196 124.58858 4.46062 124.97792 4.55112 125.36726 4.6433 125.75659 4.73744 126.14594 4.8334 126.53528 4.9315 126.9246 5.03143 127.31396 5.1334 127.7033 5.23743 128.09264 5.34369 128.48198 5.45184 128.8713 5.56244 129.26065 5.67525 129.65 5.7902 130.03932 5.90758 130.42867 6.02724 130.81801 6.14941 131.20734 6.27406 131.5967 6.40117 131.98604 6.53096 132.37537 6.66327 132.76471 6.79836 133.15404 6.93607 133.54338 7.07668 133.93273 7.21996 134.32205 7.36626 134.7114 7.51541 135.10074 7.66786 135.49007 7.82317 135.87943 7.9815 136.26877 8.14336 136.6581 8.30827 137.04744 8.47665 137.43679 8.64827 137.82611 8.82362 138.21546 9.0023 138.6048 9.18474 138.99413 9.37059 139.38347 9.56062 139.7728 9.75429 140.16216 9.95178 140.5515 10.1533 140.94083 10.35909 141.33017 10.56888 141.71952 10.78294 142.10884 11.00175 142.49819 11.22455 142.88753 11.45181 143.27686 11.68376 143.6662 11.92038 144.05554 12.16177 144.44489 12.40797 144.83423 12.6595 145.22357 12.9158 145.6129 13.17722 146.00225 13.4442 146.39157 13.71638 146.78092 13.99413 147.17026 14.27742 147.55959 14.5667 147.94893 14.86185 148.33827 15.16275 148.72762 15.46953 149.11696 15.78307 149.5063 16.10248 149.89563 16.42863 150.28498 16.7613 150.67432 17.10085 151.06365 17.44711 151.45299 17.80003 151.84233 18.16035 152.23166 18.52861 152.621 18.9036 153.01035 19.28621 153.39969 19.67699 153.78903 20.0755 154.17836 20.48192 154.5677 20.89641 154.95705 21.31982 155.34638 21.7515 155.73572 22.19165 156.12506 22.64085 156.51439 23.09962 156.90373 23.56721 157.29309 24.04448 157.68242 24.5311 158.07176 25.02826 158.46109 25.53445 158.85044 26.05153 159.23978 26.57928 159.6291 27.11723 160.01845 27.6662 160.40779 28.22667 160.79712 28.79784 161.18648 29.38106 161.57582 29.97557 161.96515 30.58286 162.35449 31.2022 162.74384 31.83328 163.13317 32.4784 163.5225 33.13593 163.91185 33.80618 164.30118 34.4908 164.69052 35.18867 165.07985 35.90149 165.46921 36.62852 165.85855 37.36928 166.24788 38.12634 166.63722 38.89897 167.02657 39.68596 167.4159 40.48991 167.80524 41.30931 168.19458 42.14505 168.58391 42.9984 168.97325 43.86946 169.3626 44.75699 169.75194 45.66364 170.14128 46.58737 170.53063 47.53102 170.91996 48.49315 171.3093 49.47421 171.69863 50.47617 172.08797 51.49869 172.47731 52.54015 172.86664 53.6041 173.25598 54.68993 173.64533 55.79643 174.03467 56.92688 174.42401 58.07884 174.81336 59.25476 175.20269 60.45428 175.59203 61.67719 175.98137 62.92653 176.3707 64.20154 176.76004 65.49995 177.14939 66.82567 177.53871 68.17912 177.92806 69.55869 178.3174 70.96687 178.70674 72.40279 179.09609 73.86926 179.48542 75.3647 179.87476 76.8896 180.2641 78.44574 180.65343 80.03427 181.04277 81.65482 181.43212 83.3082 181.82144 84.99478 182.21079 86.71388 182.60015 88.47061 182.98947 90.25923 183.37882 92.0882 183.76816 93.95232 184.15749 95.85376 184.54683 97.79468 184.93616 99.77388 185.3255 101.79324 185.71485 103.85329 186.10417 105.95763 186.49352 108.10153 186.88288 110.29366 187.2722 112.52495 187.66155 114.803 188.05089 117.12675 188.44022 119.49838 188.82956 121.91678 189.2189 124.38304 189.60823 126.89934 189.99758 129.47006 190.3869 132.0908 190.77625 134.76486 191.1656 137.49222 191.55493 140.27399 191.94428 143.11449 192.33362 146.01157 192.72295 148.9663 193.11229 151.98305 193.50164 155.05854 193.89096 158.19603 194.2803 161.39772"/>
</g>
<use data-text="x" xlink:href="#font_4_1" transform="matrix(7.1734788,0,0,-7.1731207,112.0214,114.8154)"/>
<use data-text="y" xlink:href="#font_4_2" transform="matrix(7.1734788,0,0,-7.1731207,39.432775,6.718796)"/>
</svg>
