<svg xmlns="http://www.w3.org/2000/svg" xmlns:xlink="http://www.w3.org/1999/xlink" version="1.1" width="104" height="84" viewBox="0 0 104 84">
<defs>
<path id="font_1_1" d="M.6589966 .23046875C.6759949 .23046875 .69400027 .23046875 .69400027 .25045777 .69400027 .27046205 .6759949 .27046205 .6589966 .27046205H.117996219C.100997928 .27046205 .08299255 .27046205 .08299255 .25045777 .08299255 .23046875 .100997928 .23046875 .117996219 .23046875H.6589966Z"/>
<path id="font_2_3" d="M.36099244 .6508026C.36099244 .6697998 .36099244 .6748047 .34700013 .6748047 .33898927 .6748047 .33599855 .6748047 .32798768 .662796L.026992798 .19598389V.16699219H.2899933V.07598877C.2899933 .038986207 .28799439 .0289917 .21499634 .0289917H.19499207V0C.21798706 .0019989014 .29699708 .0019989014 .32499696 .0019989014 .35299684 .0019989014 .43299867 .0019989014 .45599366 0V.0289917H.43598939C.3639984 .0289917 .36099244 .038986207 .36099244 .07598877V.16699219H.46199037V.19598389H.36099244V.6508026M.29499818 .5728302V.19598389H.051986696L.29499818 .5728302Z"/>
<path id="font_2_2" d="M.43998719 .16790772H.41799928C.4149933 .15092469 .40699769 .09597778 .39698792 .07998657 .3899994 .070999149 .33299256 .070999149 .30299378 .070999149H.117996219C.14498902 .09397888 .20599365 .15792847 .23199463 .18190003 .38398744 .3217926 .43998719 .37374879 .43998719 .47270204 .43998719 .5878906 .34899903 .66503909 .23298645 .66503909 .116989139 .66503909 .04899597 .5658264 .04899597 .4797058 .04899597 .42871095 .09298706 .42871095 .09599304 .42871095 .116989139 .42871095 .14299011 .44371034 .14299011 .475708 .14299011 .5037079 .12399292 .5227051 .09599304 .5227051 .08699036 .5227051 .084991458 .5227051 .08198547 .521698 .100997928 .5899048 .15499878 .6360321 .21998596 .6360321 .30499269 .6360321 .35699464 .56481936 .35699464 .47270204 .35699464 .3877411 .30799867 .313797 .25099183 .24984741L.04899597 .023986817V0H.4139862L.43998719 .16790772Z"/>
<path id="font_2_4" d="M.12298584 .34773255C.12298584 .60061648 .24598694 .641037 .2999878 .641037 .33599855 .641037 .37199403 .62991335 .3909912 .5996094 .3789978 .5996094 .34098817 .5996094 .34098817 .558609 .34098817 .53660586 .35598756 .51760867 .38198854 .51760867 .40699769 .51760867 .42399598 .53260806 .42399598 .56159976 .42399598 .6137543 .38598634 .66503909 .29899598 .66503909 .17298889 .66503909 .040985109 .53559878 .040985109 .31570436 .040985109 .040527345 .16099549-.021484375 .24598694-.021484375 .35499574-.021484375 .44799806 .07354736 .44799806 .2036438 .44799806 .33673097 .35499574 .42578126 .25498963 .42578126 .1659851 .42578126 .1329956 .34873963 .12298584 .32070924V.34773255M.24598694 .005508423C.18299866 .005508423 .15299988 .061538698 .14399719 .08256531 .1349945 .10858154 .125 .15760803 .125 .22766114 .125 .30670167 .16099549 .40577699 .25099183 .40577699 .30599977 .40577699 .33499146 .3687439 .34999085 .33473207 .3659973 .29769898 .3659973 .2476654 .3659973 .20463562 .3659973 .15361023 .3659973 .10858154 .34700013 .07055664 .32199098 .022521973 .28599549 .005508423 .24598694 .005508423Z"/>
<path id="font_2_1" d="M.44799806 .31976319C.44799806 .40283204 .44299317 .48390199 .40699769 .55996707 .3659973 .64302065 .2939911 .66503909 .24499512 .66503909 .18699646 .66503909 .115997318 .63601687 .07899475 .552948 .050994874 .48989869 .040985109 .42785646 .040985109 .31976319 .040985109 .22268677 .04798889 .14962769 .083999637 .078567508 .12298584 .0025177003 .19198609-.021484375 .24398804-.021484375 .33099366-.021484375 .3809967 .030532837 .4099884 .08857727 .44599916 .16363526 .44799806 .26171876 .44799806 .31976319M.24398804-.0014953613C.21199036-.0014953613 .14698792 .016525269 .12799073 .12561035 .116989139 .18565369 .116989139 .26171876 .116989139 .33177186 .116989139 .41384889 .116989139 .48789979 .1329956 .5469513 .1499939 .6139984 .20098877 .6450348 .24398804 .6450348 .28199769 .6450348 .33999635 .6220093 .35899354 .53593447 .37199403 .4788971 .37199403 .39982606 .37199403 .33177186 .37199403 .26472474 .37199403 .18865967 .36099244 .12760926 .34199525 .01751709 .2789917-.0014953613 .24398804-.0014953613Z"/>
<clipPath id="clip_3">
<path transform="matrix(.500025,0,0,-.500025,4.61088,82.1031)" d="M0 0H194.26789V161.40549H0Z"/>
</clipPath>
</defs>
<path transform="matrix(.500025,0,0,-.500025,4.61088,82.1031)" stroke-width=".19925" stroke-linecap="butt" stroke-miterlimit="10" stroke-linejoin="miter" fill="none" stroke="#929292" d="M0 78.57826V82.83023M48.56728 78.57826V82.83023M145.70183 78.57826V82.83023M194.26912 78.57826V82.83023"/>
<path transform="matrix(.500025,0,0,-.500025,4.61088,82.1031)" stroke-width=".19925" stroke-linecap="butt" stroke-miterlimit="10" stroke-linejoin="miter" fill="none" stroke="#929292" d="M95.0086 5.044H99.26048M95.0086 30.26408H99.26048M95.0086 55.48418H99.26048M95.0086 105.92433H99.26048M95.0086 131.14443H99.26048M95.0086 156.3645H99.26048"/>
<path transform="matrix(.500025,0,0,-.500025,4.61088,82.1031)" stroke-width=".3985" stroke-linecap="butt" stroke-miterlimit="10" stroke-linejoin="miter" fill="none" stroke="#000000" d="M0 80.70425H192.27536"/>
<path transform="matrix(.500025,0,0,-.500025,100.75336,41.748968)" d="M1.99252 0-1.19551 1.59401 0 0-1.19551-1.59401"/>
<path transform="matrix(.500025,0,0,-.500025,4.61088,82.1031)" stroke-width=".3985" stroke-linecap="butt" stroke-miterlimit="10" stroke-linejoin="miter" fill="none" stroke="#000000" d="M97.13455 0V159.41297"/>
<path transform="matrix(0,-.500025,-.500025,-0,53.18058,2.3926392)" d="M1.99252 0-1.19551 1.59401 0 0-1.19551-1.59401"/>
<use data-text="&#x2212;" xlink:href="#font_1_1" transform="matrix(5.9778988,0,0,-5.9778988,.82269099,48.756437)"/>
<use data-text="4" xlink:href="#font_2_3" transform="matrix(5.9778988,0,0,-5.9778988,5.471924,48.756437)"/>
<use data-text="&#x2212;" xlink:href="#font_1_1" transform="matrix(5.9778988,0,0,-5.9778988,25.107405,48.756437)"/>
<use data-text="2" xlink:href="#font_2_2" transform="matrix(5.9778988,0,0,-5.9778988,29.756638,48.756437)"/>
<use data-text="2" xlink:href="#font_2_2" transform="matrix(5.9778988,0,0,-5.9778988,76.00194,48.756437)"/>
<use data-text="4" xlink:href="#font_2_3" transform="matrix(5.9778988,0,0,-5.9778988,100.287158,48.756437)"/>
<use data-text="&#x2212;" xlink:href="#font_1_1" transform="matrix(5.9778988,0,0,-5.9778988,39.52262,81.25806)"/>
<use data-text="6" xlink:href="#font_2_4" transform="matrix(5.9778988,0,0,-5.9778988,44.171857,81.25806)"/>
<use data-text="0" xlink:href="#font_2_1" transform="matrix(5.9778988,0,0,-5.9778988,47.101026,81.25806)"/>
<use data-text="&#x2212;" xlink:href="#font_1_1" transform="matrix(5.9778988,0,0,-5.9778988,39.52262,68.64743)"/>
<use data-text="4" xlink:href="#font_2_3" transform="matrix(5.9778988,0,0,-5.9778988,44.171857,68.64743)"/>
<use data-text="0" xlink:href="#font_2_1" transform="matrix(5.9778988,0,0,-5.9778988,47.101026,68.64743)"/>
<use data-text="&#x2212;" xlink:href="#font_1_1" transform="matrix(5.9778988,0,0,-5.9778988,39.52262,56.0368)"/>
<use data-text="2" xlink:href="#font_2_2" transform="matrix(5.9778988,0,0,-5.9778988,44.171857,56.0368)"/>
<use data-text="0" xlink:href="#font_2_1" transform="matrix(5.9778988,0,0,-5.9778988,47.101026,56.0368)"/>
<use data-text="2" xlink:href="#font_2_2" transform="matrix(5.9778988,0,0,-5.9778988,44.172357,31.064557)"/>
<use data-text="0" xlink:href="#font_2_1" transform="matrix(5.9778988,0,0,-5.9778988,47.10153,31.064557)"/>
<use data-text="4" xlink:href="#font_2_3" transform="matrix(5.9778988,0,0,-5.9778988,44.172357,18.453927)"/>
<use data-text="0" xlink:href="#font_2_1" transform="matrix(5.9778988,0,0,-5.9778988,47.10153,18.453927)"/>
<use data-text="6" xlink:href="#font_2_4" transform="matrix(5.9778988,0,0,-5.9778988,44.172357,5.8433)"/>
<use data-text="0" xlink:href="#font_2_1" transform="matrix(5.9778988,0,0,-5.9778988,47.10153,5.8433)"/>
<g clip-path="url(#clip_3)">
<path transform="matrix(.500025,0,0,-.500025,4.61088,82.1031)" stroke-width=".79701" stroke-linecap="butt" stroke-miterlimit="10" stroke-linejoin="miter" fill="none" stroke="#0000ff" d="M0 0 .3893 .96654 .77861 1.9252 1.16792 2.87624 1.55724 3.81964 1.94656 4.75537 2.33586 5.68343 2.72519 6.60388 3.1145 7.51685 3.5038 8.42221 3.89313 9.3201 4.28244 10.21056 4.67175 11.09348 5.06107 11.96912 5.4504 12.83737 5.83969 13.69827 6.22902 14.55173 6.61833 15.39804 7.00763 16.2371 7.39696 17.0689 7.78627 17.89351 8.17558 18.71101 8.5649 19.52133 8.95422 20.32466 9.34352 21.12082 9.73283 21.91005 10.12215 22.69212 10.51146 23.46735 10.90079 24.23563 11.29008 24.99695 11.67941 25.75148 12.06873 26.49915 12.45804 27.23993 12.84735 27.97395 13.23666 28.70126 13.62598 29.42183 14.01529 30.13577 14.40462 30.84303 14.79391 31.54364 15.18324 32.23763 15.57256 32.92511 15.96187 33.60603 16.35118 34.28043 16.7405 34.94833 17.1298 35.60986 17.51912 36.26495 17.90845 36.91373 18.29774 37.55614 18.68707 38.1922 19.07637 38.82195 19.46568 39.44551 19.85501 40.0629 20.24431 40.67398 20.63364 41.27895 21.02295 41.8778 21.41226 42.47058 21.80157 43.05724 22.1909 43.63791 22.5802 44.21259 22.96951 44.78123 23.35884 45.344 23.74814 45.90085 24.13747 46.45178 24.52678 46.9969 24.91609 47.53622 25.3054 48.06976 25.69473 48.59749 26.08403 49.11957 26.47334 49.63593 26.86267 50.14659 27.25197 50.65167 27.6413 51.15115 28.0306 51.64503 28.41992 52.13342 28.80923 52.6163 29.19853 53.09372 29.58786 53.56566 29.97717 54.03221 30.36649 54.4934 30.7558 54.9492 31.14513 55.39972 31.53442 55.84496 31.92375 56.28491 32.31306 56.71967 32.70236 57.14923 33.09169 57.57361 33.481 57.99289 33.87032 58.40707 34.25963 58.81621 34.64896 59.22025 35.03825 59.61932 35.42758 60.01343 35.8169 60.40256 36.20619 60.78682 36.59552 61.16618 36.98482 61.54068 37.37415 61.9104 37.76346 62.27533 38.15277 62.63548 38.54208 62.9909 38.9314 63.34166 39.32071 63.68776 39.71002 64.02919 40.09935 64.36604 40.48865 64.69835 40.87798 65.02611 41.26729 65.34933 41.6566 65.66812 42.04591 65.98247 42.43523 66.29236 42.82454 66.5979 43.21385 66.8991 43.60318 67.19594 43.99248 67.48854 44.3818 67.77687 44.77112 68.06099 45.16043 68.34088 45.54974 68.61664 45.93904 68.88826 46.32837 69.15576 46.71768 69.41922 47.107 69.67863 47.4963 69.93404 47.88564 70.18547 48.27493 70.43297 48.66425 70.67654 49.05357 70.91621 49.44287 71.15207 49.8322 71.38411 50.22151 71.61232 50.61082 71.8368 51.00014 72.05757 51.38947 72.27461 51.77876 72.488 52.16808 72.69777 52.5574 72.90392 52.9467 73.10652 53.33603 73.30559 53.72534 73.50113 54.11465 73.69319 54.50397 73.88182 54.89328 74.06705 55.2826 74.24886 55.6719 74.42732 56.06122 74.6025 56.45053 74.77435 56.83986 74.94296 57.22916 75.10837 57.61848 75.27055 58.0078 75.42957 58.3971 75.58546 58.78642 75.73824 59.17574 75.88795 59.56505 76.03464 59.95436 76.17831 60.34369 76.31898 60.73299 76.45673 61.12231 76.59155 61.51163 76.72351 61.90092 76.85258 62.29025 76.97887 62.67957 77.10236 63.06888 77.22307 63.45819 77.34106 63.8475 77.45638 64.23682 77.56898 64.62614 77.67899 65.01544 77.78639 65.40475 77.8912 65.79408 77.99348 66.18338 78.09326 66.57271 78.19055 66.96202 78.28539 67.35133 78.37782 67.74065 78.46786 68.12996 78.55556 68.51927 78.64091 68.90858 78.724 69.29791 78.80481 69.68721 78.88339 70.07654 78.95978 70.46585 79.034 70.85516 79.10608 71.24448 79.17606 71.63379 79.24397 72.0231 79.30984 72.41241 79.37369 72.80173 79.43558 73.19104 79.4955 73.58037 79.5535 73.96967 79.60962 74.359 79.6639 74.7483 79.71634 75.13762 79.767 75.52693 79.81587 75.91626 79.86304 76.30556 79.9085 76.69489 79.95229 77.0842 79.99445 77.47351 80.03499 77.86282 80.07396 78.25215 80.11139 78.64145 80.14731 79.03078 80.18175 79.42009 80.21474 79.8094 80.2463 80.19873 80.27649 80.58804 80.30533 80.97734 80.33282 81.36667 80.35904 81.75598 80.38399 82.1453 80.40768 82.53462 80.43019 82.92392 80.45154 83.31325 80.47174 83.70256 80.49084 84.09187 80.50887 84.48119 80.52585 84.87051 80.54181 85.25981 80.5568 85.64914 80.57083 86.03845 80.58395 86.42776 80.59618 86.81708 80.60754 87.2064 80.61807 87.5957 80.62782 87.98503 80.63681 88.37434 80.64505 88.76366 80.6526 89.15297 80.65947 89.5423 80.66571 89.9316 80.67134 90.32092 80.67639 90.71022 80.68091 91.09955 80.68489 91.48886 80.6884 91.87817 80.69145 92.26749 80.6941 92.65681 80.69633 93.04613 80.69824 93.43544 80.69978 93.82475 80.70107 94.21407 80.70206 94.6034 80.70282 94.9927 80.70338 95.382 80.70377 95.77133 80.70403 96.16066 80.70416 96.54996 80.70422 96.93929 80.70425H97.3286L97.71791 80.70427 98.10722 80.70433 98.49655 80.70447 98.88585 80.70473 99.27518 80.70511 99.66447 80.70567 100.0538 80.70645 100.44312 80.70743 100.83243 80.7087 101.22174 80.71027 101.61107 80.71214 102.00037 80.7144 102.3897 80.71703 102.779 80.72008 103.16832 80.72359 103.55763 80.72757 103.94696 80.73209 104.33627 80.73714 104.72559 80.74277 105.1149 80.74901 105.50421 80.75587 105.89354 80.76343 106.28285 80.77168 106.67215 80.78064 107.06148 80.79039 107.4508 80.80092 107.8401 80.8123 108.22943 80.82452 108.61873 80.83762 109.00806 80.85165 109.39737 80.86662 109.78668 80.88258 110.176 80.89957 110.56532 80.91759 110.95462 80.93668 111.34395 80.95688 111.73326 80.97823 112.12257 81.00073 112.51189 81.02444 112.90121 81.0494 113.29051 81.07559 113.67984 81.10309 114.06915 81.1319 114.45847 81.1621 114.84778 81.19365 115.2371 81.22664 115.6264 81.26108 116.01573 81.29698 116.40504 81.33441 116.79436 81.37338 117.18367 81.41393 117.57298 81.45607 117.9623 81.49986 118.35162 81.54532 118.74092 81.59248 119.13025 81.64136 119.51956 81.692 119.90887 81.74443 120.29819 81.79869 120.68752 81.85481 121.07681 81.91281 121.46614 81.97273 121.85545 82.0346 122.24477 82.09846 122.63408 82.1643 123.0234 82.23222 123.4127 82.30219 123.80203 82.37427 124.19135 82.44849 124.58066 82.52486 124.96997 82.60344 125.35928 82.68425 125.7486 82.76732 126.13791 82.85268 126.52722 82.94035 126.91653 83.03038 127.30586 83.12282 127.69516 83.21765 128.08449 83.31494 128.4738 83.41469 128.8631 83.51697 129.25243 83.62178 129.64174 83.72916 130.03105 83.83916 130.42037 83.95178 130.8097 84.06706 131.19899 84.18506 131.5883 84.30576 131.97763 84.42923 132.36693 84.5555 132.75626 84.68459 133.14557 84.81651 133.53488 84.95134 133.9242 85.08907 134.31352 85.22975 134.70282 85.37341 135.09214 85.52008 135.48145 85.66978 135.87076 85.82257 136.26009 85.97844 136.64939 86.13744 137.03871 86.29964 137.42803 86.465 137.81734 86.6336 138.20665 86.80545 138.59597 86.9806 138.98528 87.15907 139.37459 87.34088 139.76392 87.52608 140.15322 87.7147 140.54254 87.90675 140.93186 88.1023 141.32115 88.30133 141.71048 88.50394 142.0998 88.71007 142.4891 88.91983 142.87842 89.13321 143.26775 89.35025 143.65705 89.571 144.04637 89.79547 144.43567 90.0237 144.82498 90.25569 145.21431 90.49153 145.6036 90.73122 145.99294 90.97476 146.38225 91.22224 146.77156 91.47368 147.16088 91.72905 147.5502 91.98845 147.9395 92.25189 148.32881 92.51941 148.71814 92.791 149.10744 93.06674 149.49677 93.34665 149.88608 93.6307 150.27539 93.91905 150.6647 94.21162 151.05402 94.50845 151.44333 94.80963 151.83264 95.11517 152.22197 95.4251 152.61127 95.7394 153.0006 96.05817 153.3899 96.3814 153.77922 96.7091 154.16854 97.0414 154.55783 97.37823 154.94716 97.71967 155.33647 98.06575 155.72579 98.41649 156.1151 98.77188 156.50443 99.13203 156.89373 99.49695 157.28305 99.86664 157.67237 100.24112 158.06166 100.62048 158.45099 101.00471 158.8403 101.39383 159.22962 101.78792 159.61893 102.187 160.00826 102.59102 160.39756 103.00014 160.78687 103.41429 161.1762 103.83356 161.56549 104.25792 161.95482 104.68747 162.34412 105.12222 162.73345 105.56215 163.12276 106.00737 163.51207 106.45789 163.90139 106.9137 164.2907 107.37482 164.68001 107.84137 165.06932 108.31332 165.45865 108.79068 165.84795 109.27354 166.23728 109.76193 166.62659 110.25578 167.0159 110.75525 167.40522 111.26031 167.79453 111.77095 168.18384 112.28731 168.57315 112.80936 168.96248 113.33713 169.35178 113.87057 169.7411 114.40988 170.13042 114.955 170.51972 115.5059 170.90904 116.06274 171.29836 116.62549 171.68767 117.19417 172.07698 117.76878 172.4663 118.34943 172.8556 118.93613 173.24494 119.52881 173.63423 120.12766 174.02355 120.73267 174.41287 121.34367 174.80217 121.96104 175.1915 122.58453 175.58081 123.21428 175.97013 123.85039 176.35944 124.49278 176.74877 125.14148 177.13806 125.79654 177.52738 126.45805 177.9167 127.12602 178.306 127.80034 178.69533 128.48126 179.08464 129.16873 179.47396 129.86269 179.86327 130.5633 180.25258 131.27054 180.64189 131.98439 181.0312 132.70493 181.42052 133.43224 181.80983 134.16626 182.19916 134.90703 182.58846 135.65468 182.97779 136.40912 183.3671 137.17043 183.7564 137.93869 184.14572 138.71392 184.53504 139.49605 184.92435 140.28519 185.31366 141.08133 185.70299 141.88463 186.09229 142.69487 186.48162 143.51236 186.87093 144.33704 187.26023 145.16883 187.64955 146.00777 188.03887 146.85408 188.42818 147.70763 188.81749 148.56839 189.20682 149.43665 189.59612 150.31221 189.98543 151.19518 190.37474 152.08554 190.76406 152.98349 191.15338 153.88887 191.54268 154.80171 191.932 155.72223 192.32132 156.6503 192.71063 157.5859 193.09995 158.5293 193.48926 159.48032 193.87857 160.43897 194.26789 161.40549"/>
</g>
</svg>
