<svg xmlns="http://www.w3.org/2000/svg" xmlns:xlink="http://www.w3.org/1999/xlink" version="1.1" width="258" height="265" viewBox="0 0 258 265">
<defs>
<path id="font_1_1" d="M.4889984 .31877137C.4889984 .42585755 .47799684 .49090577 .44499208 .55496218 .40098573 .6430359 .31999208 .66503909 .2649994 .66503909 .13899231 .66503909 .09298706 .5709839 .07899475 .5429535 .042999269 .4698944 .040985109 .3708191 .040985109 .31877137 .040985109 .25271607 .04399109 .15162659 .09199524 .07156372 .13798523-.0024871827 .21199036-.021484375 .2649994-.021484375 .31298829-.021484375 .39898683-.0064849855 .44898988 .09257507 .48599244 .16464234 .4889984 .2537079 .4889984 .31877137M.2649994 .006515503C.23098755 .006515503 .1619873 .022521973 .14099121 .12760926 .12998963 .18466187 .12998963 .2787323 .12998963 .33078004 .12998963 .3998413 .12998963 .4698944 .14099121 .5249481 .1619873 .6270294 .23999024 .6370239 .2649994 .6370239 .29899598 .6370239 .36799623 .62002566 .3880005 .5289459 .3999939 .4738922 .3999939 .39883424 .3999939 .33078004 .3999939 .27172853 .3999939 .18165589 .3880005 .12561035 .36698915 .020523072 .2979889 .006515503 .2649994 .006515503Z"/>
<path id="font_1_2" d="M.31399537 .63708499C.31399537 .664032 .31199647 .66503909 .2849884 .66503909 .24398804 .6251831 .19099427 .6013489 .09599304 .6013489V.5683594C.12298584 .5683594 .1769867 .5683594 .23498535 .5953522V.08203125C.23498535 .04499817 .23199463 .032989503 .13699341 .032989503H.101989749V0C.14299011 .0029907227 .22898865 .0029907227 .27398683 .0029907227 .31900025 .0029907227 .4059906 .0029907227 .44699098 0V.032989503H.4119873C.31698609 .032989503 .31399537 .04499817 .31399537 .08203125V.63708499Z"/>
<path id="font_1_3" d="M.28199769 .20405579C.2979889 .21907044 .33999635 .2520752 .35598756 .26608277 .41799928 .32312013 .47698976 .3781433 .47698976 .46917726 .47698976 .588089 .3769989 .66503909 .2519989 .66503909 .13198853 .66503909 .052993776 .57411196 .052993776 .48516847 .052993776 .4361725 .09199524 .4291687 .10598755 .4291687 .1269989 .4291687 .1579895 .4441681 .1579895 .48217774 .1579895 .5341797 .10798645 .5341797 .09599304 .5341797 .125 .6070709 .19198609 .6320343 .24099732 .6320343 .33399964 .6320343 .38198854 .55314639 .38198854 .46917726 .38198854 .36514283 .30899049 .28910829 .19099427 .16804505L.06498718 .037994386C.052993776 .026992798 .052993776 .024993897 .052993776 0H.44799806L.47698976 .17904663H.44599916C.44299317 .1590271 .43499757 .10900879 .4229889 .08999634 .4169922 .08198547 .34098817 .08198547 .32499696 .08198547H.14698792L.28199769 .20405579Z"/>
<path id="font_1_4" d="M.25299073 .33370973C.33198548 .33370973 .38198854 .27557374 .38198854 .17037964 .38198854 .045440675 .31098939 .008514404 .2579956 .008514404 .20298767 .008514404 .12799073 .0284729 .09298706 .08137512 .1289978 .08137512 .1539917 .10437012 .1539917 .13737488 .1539917 .16937256 .1309967 .19238281 .09899902 .19238281 .07199097 .19238281 .04399109 .17536927 .04399109 .13537598 .04399109 .04045105 .1459961-.021484375 .2599945-.021484375 .3929901-.021484375 .48599244 .070388797 .48599244 .17037964 .48599244 .25352479 .41999818 .32969667 .31799317 .3517456 .39698792 .37982179 .45599366 .4479828 .45599366 .52804568 .45599366 .6080475 .3659973 .66503909 .2619934 .66503909 .15499878 .66503909 .07398987 .6070404 .07398987 .53105166 .07398987 .49404908 .09899902 .4780426 .125 .4780426 .1559906 .4780426 .17599488 .5000458 .17599488 .52905276 .17599488 .56604006 .14399719 .5800476 .12199402 .5810547 .1639862 .6360321 .24099732 .6390381 .25898744 .6390381 .2849884 .6390381 .36099244 .6310272 .36099244 .52804568 .36099244 .45799256 .33198548 .41589356 .31799317 .39985658 .28799439 .36878968 .2649994 .36679078 .20399475 .3627777 .18499756 .36177064 .1769867 .36076356 .1769867 .3477478 .1769867 .33370973 .18598938 .33370973 .20298767 .33370973H.25299073Z"/>
<path id="font_2_1" d="M.28399659 .36465455H.39898683C.37799073 .2738037 .3600006 .19992066 .3600006 .1260376 .3600006 .11904907 .3600006 .0761261 .37098695 .04017639 .38398744-.0017700195 .3939972-.009765625 .4119873-.009765625 .43399049-.009765625 .45700074 .009231567 .45700074 .033187868 .45700074 .04017639 .45599366 .042175294 .45199586 .05116272 .43099977 .097091678 .41600038 .14500427 .41600038 .22688294 .41600038 .24984741 .41600038 .29177857 .43099977 .36465455H.5519867C.56799319 .36465455 .57899478 .36465455 .58898928 .37265016 .6009979 .38365174 .60398867 .39665223 .60398867 .40264894 .60398867 .43066407 .57899478 .43066407 .56199648 .43066407H.20098877C.17999268 .43066407 .14199829 .43066407 .09298706 .3826599 .056991579 .3466797 .0289917 .300766 .0289917 .29377748 .0289917 .28479005 .035995485 .28178407 .04399109 .28178407 .053985597 .28178407 .055999757 .28479005 .06199646 .2927704 .11099243 .36465455 .16999817 .36465455 .19299317 .36465455H.25099183C.22200012 .25883485 .16899109 .13801575 .13198853 .06513977 .125 .0501709 .114990238 .030197144 .114990238 .021209717 .114990238 .00022888184 .13198853-.009765625 .147995-.009765625 .18598938-.009765625 .19599915 .028198243 .21699524 .110061649L.28399659 .36465455Z"/>
<path id="font_2_2" d="M.46499635 .70799258C.47099305 .7220001 .47099305 .723999 .47099305 .72698977 .47099305 .73999026 .46099855 .75 .44799806 .75 .43199159 .75 .42799378 .73799136 .42399598 .7279968L.06498718-.20800781C.05899048-.22200012 .05899048-.22401428 .05899048-.227005 .05899048-.2400055 .068984989-.25 .08198547-.25 .09799194-.25 .101989749-.23800659 .10598755-.22801209L.46499635 .70799258Z"/>
<path id="font_1_5" d="M.3939972 .6468048C.3939972 .6667938 .3939972 .6748047 .37298585 .6748047 .3600006 .6748047 .35899354 .6737976 .34899903 .65979006L.02999878 .197052V.1640625H.31199647V.08100891C.31199647 .04399109 .30899049 .032989503 .23199463 .032989503H.20899964V0C.2939911 .0029907227 .29599 .0029907227 .35299684 .0029907227 .4099884 .0029907227 .4119873 .0029907227 .49699403 0V.032989503H.47399903C.39698792 .032989503 .3939972 .04399109 .3939972 .08100891V.1640625H.5V.197052H.3939972V.6468048M.31900025 .5658417V.197052H.06498718L.31900025 .5658417Z"/>
<path id="font_1_6" d="M.13999939 .5618439C.15299988 .55784609 .19299317 .54785159 .23498535 .54785159 .3600006 .54785159 .43598939 .6358948 .43598939 .6510315 .43598939 .6620331 .42900086 .66503909 .42399598 .66503909 .42199708 .66503909 .41999818 .66503909 .41099549 .6600342 .37199403 .6450348 .32598878 .632843 .27198792 .632843 .21299744 .632843 .1639862 .6480255 .1329956 .6600342 .12298584 .66503909 .12098694 .66503909 .11999512 .66503909 .10699463 .66503909 .10699463 .6540375 .10699463 .6358948V.34292604C.10699463 .32492066 .10699463 .312912 .12298584 .312912 .1309967 .312912 .13398743 .3169098 .13899231 .32492066 .15098572 .33992005 .18899536 .39093019 .27398683 .39093019 .32998658 .39093019 .35699464 .34492494 .3659973 .32591249 .3829956 .28990174 .3849945 .24389649 .3849945 .20487976 .3849945 .1678772 .38398744 .11387634 .35598756 .069732669 .33699037 .039611818 .29699708 .008514404 .24398804 .008514404 .1789856 .008514404 .114990238 .0496521 .09199524 .11488342 .09498596 .11387634 .100997928 .11387634 .101989749 .11387634 .12998963 .11387634 .1519928 .13188172 .1519928 .16288758 .1519928 .19989014 .12298584 .21289063 .102996829 .21289063 .084991458 .21289063 .052993776 .20288086 .052993776 .15988159 .052993776 .069732669 .1309967-.021484375 .24598694-.021484375 .37098695-.021484375 .47698976 .07574463 .47698976 .19989014 .47698976 .31591798 .3929901 .4189453 .2749939 .4189453 .22499085 .4189453 .17799378 .40293885 .13999939 .368927V.5618439Z"/>
<path id="font_1_7" d="M.5059967 .608551C.5149994 .6195526 .5149994 .6215515 .5149994 .6435547H.26098634C.23599243 .6435547 .20498657 .64456179 .17999268 .64660647 .12799073 .65068057 .1269989 .6597748 .12399292 .67578127H.09298706L.05899048 .46453858H.08999634C.09199524 .47953797 .102996829 .54855349 .116989139 .5565491 .12799073 .56155398 .20298767 .56155398 .21798706 .56155398H.42999269L.32699586 .4235382C.21299744 .27153016 .18899536 .11351013 .18899536 .03451538 .18899536 .024505616 .18899536-.021484375 .23599243-.021484375 .2829895-.021484375 .2829895 .023513794 .2829895 .035507204V.08351135C.2829895 .2275238 .30699159 .34553529 .35598756 .41053773L.5059967 .608551Z"/>
</defs>
<path transform="matrix(1.00006,0,0,-1.00009,129.21024,132.20618)" stroke-width=".3985" stroke-linecap="butt" stroke-miterlimit="10" stroke-linejoin="miter" fill="none" stroke="#cbcbcb" d="M0 0H113.38724"/>
<path transform="matrix(1.00006,0,0,-1.00009,129.21024,132.20618)" stroke-width=".3985" stroke-linecap="butt" stroke-miterlimit="10" stroke-linejoin="miter" fill="none" stroke="#cbcbcb" d="M0 0 111.2055 22.11824"/>
<path transform="matrix(1.00006,0,0,-1.00009,129.21024,132.20618)" stroke-width=".3985" stroke-linecap="butt" stroke-miterlimit="10" stroke-linejoin="miter" fill="none" stroke="#cbcbcb" d="M0 0 104.75203 43.38873"/>
<path transform="matrix(1.00006,0,0,-1.00009,129.21024,132.20618)" stroke-width=".3985" stroke-linecap="butt" stroke-miterlimit="10" stroke-linejoin="miter" fill="none" stroke="#cbcbcb" d="M0 0 94.27425 62.99135"/>
<path transform="matrix(1.00006,0,0,-1.00009,129.21024,132.20618)" stroke-width=".3985" stroke-linecap="butt" stroke-miterlimit="10" stroke-linejoin="miter" fill="none" stroke="#cbcbcb" d="M0 0 80.17696 80.17696"/>
<path transform="matrix(1.00006,0,0,-1.00009,129.21024,132.20618)" stroke-width=".3985" stroke-linecap="butt" stroke-miterlimit="10" stroke-linejoin="miter" fill="none" stroke="#cbcbcb" d="M0 0 62.99135 94.27425"/>
<path transform="matrix(1.00006,0,0,-1.00009,129.21024,132.20618)" stroke-width=".3985" stroke-linecap="butt" stroke-miterlimit="10" stroke-linejoin="miter" fill="none" stroke="#cbcbcb" d="M0 0 43.38873 104.75203"/>
<path transform="matrix(1.00006,0,0,-1.00009,129.21024,132.20618)" stroke-width=".3985" stroke-linecap="butt" stroke-miterlimit="10" stroke-linejoin="miter" fill="none" stroke="#cbcbcb" d="M0 0 22.11824 111.2055"/>
<path transform="matrix(1.00006,0,0,-1.00009,129.21024,132.20618)" stroke-width=".3985" stroke-linecap="butt" stroke-miterlimit="10" stroke-linejoin="miter" fill="none" stroke="#cbcbcb" d="M0 0V113.38724"/>
<path transform="matrix(1.00006,0,0,-1.00009,129.21024,132.20618)" stroke-width=".3985" stroke-linecap="butt" stroke-miterlimit="10" stroke-linejoin="miter" fill="none" stroke="#cbcbcb" d="M0 0-22.11824 111.2055"/>
<path transform="matrix(1.00006,0,0,-1.00009,129.21024,132.20618)" stroke-width=".3985" stroke-linecap="butt" stroke-miterlimit="10" stroke-linejoin="miter" fill="none" stroke="#cbcbcb" d="M0 0-43.38873 104.75203"/>
<path transform="matrix(1.00006,0,0,-1.00009,129.21024,132.20618)" stroke-width=".3985" stroke-linecap="butt" stroke-miterlimit="10" stroke-linejoin="miter" fill="none" stroke="#cbcbcb" d="M0 0-62.99135 94.27425"/>
<path transform="matrix(1.00006,0,0,-1.00009,129.21024,132.20618)" stroke-width=".3985" stroke-linecap="butt" stroke-miterlimit="10" stroke-linejoin="miter" fill="none" stroke="#cbcbcb" d="M0 0-80.17696 80.17696"/>
<path transform="matrix(1.00006,0,0,-1.00009,129.21024,132.20618)" stroke-width=".3985" stroke-linecap="butt" stroke-miterlimit="10" stroke-linejoin="miter" fill="none" stroke="#cbcbcb" d="M0 0-94.27425 62.99135"/>
<path transform="matrix(1.00006,0,0,-1.00009,129.21024,132.20618)" stroke-width=".3985" stroke-linecap="butt" stroke-miterlimit="10" stroke-linejoin="miter" fill="none" stroke="#cbcbcb" d="M0 0-104.75203 43.38873"/>
<path transform="matrix(1.00006,0,0,-1.00009,129.21024,132.20618)" stroke-width=".3985" stroke-linecap="butt" stroke-miterlimit="10" stroke-linejoin="miter" fill="none" stroke="#cbcbcb" d="M0 0-111.2055 22.11824"/>
<path transform="matrix(1.00006,0,0,-1.00009,129.21024,132.20618)" stroke-width=".3985" stroke-linecap="butt" stroke-miterlimit="10" stroke-linejoin="miter" fill="none" stroke="#cbcbcb" d="M0 0H-113.38724"/>
<path transform="matrix(1.00006,0,0,-1.00009,129.21024,132.20618)" stroke-width=".3985" stroke-linecap="butt" stroke-miterlimit="10" stroke-linejoin="miter" fill="none" stroke="#cbcbcb" d="M0 0-111.2055-22.11824"/>
<path transform="matrix(1.00006,0,0,-1.00009,129.21024,132.20618)" stroke-width=".3985" stroke-linecap="butt" stroke-miterlimit="10" stroke-linejoin="miter" fill="none" stroke="#cbcbcb" d="M0 0-104.75203-43.38873"/>
<path transform="matrix(1.00006,0,0,-1.00009,129.21024,132.20618)" stroke-width=".3985" stroke-linecap="butt" stroke-miterlimit="10" stroke-linejoin="miter" fill="none" stroke="#cbcbcb" d="M0 0-94.27425-62.99135"/>
<path transform="matrix(1.00006,0,0,-1.00009,129.21024,132.20618)" stroke-width=".3985" stroke-linecap="butt" stroke-miterlimit="10" stroke-linejoin="miter" fill="none" stroke="#cbcbcb" d="M0 0-80.17696-80.17696"/>
<path transform="matrix(1.00006,0,0,-1.00009,129.21024,132.20618)" stroke-width=".3985" stroke-linecap="butt" stroke-miterlimit="10" stroke-linejoin="miter" fill="none" stroke="#cbcbcb" d="M0 0-62.99135-94.27425"/>
<path transform="matrix(1.00006,0,0,-1.00009,129.21024,132.20618)" stroke-width=".3985" stroke-linecap="butt" stroke-miterlimit="10" stroke-linejoin="miter" fill="none" stroke="#cbcbcb" d="M0 0-43.38873-104.75203"/>
<path transform="matrix(1.00006,0,0,-1.00009,129.21024,132.20618)" stroke-width=".3985" stroke-linecap="butt" stroke-miterlimit="10" stroke-linejoin="miter" fill="none" stroke="#cbcbcb" d="M0 0-22.11824-111.2055"/>
<path transform="matrix(1.00006,0,0,-1.00009,129.21024,132.20618)" stroke-width=".3985" stroke-linecap="butt" stroke-miterlimit="10" stroke-linejoin="miter" fill="none" stroke="#cbcbcb" d="M0 0V-113.38724"/>
<path transform="matrix(1.00006,0,0,-1.00009,129.21024,132.20618)" stroke-width=".3985" stroke-linecap="butt" stroke-miterlimit="10" stroke-linejoin="miter" fill="none" stroke="#cbcbcb" d="M0 0 22.11824-111.2055"/>
<path transform="matrix(1.00006,0,0,-1.00009,129.21024,132.20618)" stroke-width=".3985" stroke-linecap="butt" stroke-miterlimit="10" stroke-linejoin="miter" fill="none" stroke="#cbcbcb" d="M0 0 43.38873-104.75203"/>
<path transform="matrix(1.00006,0,0,-1.00009,129.21024,132.20618)" stroke-width=".3985" stroke-linecap="butt" stroke-miterlimit="10" stroke-linejoin="miter" fill="none" stroke="#cbcbcb" d="M0 0 62.99135-94.27425"/>
<path transform="matrix(1.00006,0,0,-1.00009,129.21024,132.20618)" stroke-width=".3985" stroke-linecap="butt" stroke-miterlimit="10" stroke-linejoin="miter" fill="none" stroke="#cbcbcb" d="M0 0 80.17696-80.17696"/>
<path transform="matrix(1.00006,0,0,-1.00009,129.21024,132.20618)" stroke-width=".3985" stroke-linecap="butt" stroke-miterlimit="10" stroke-linejoin="miter" fill="none" stroke="#cbcbcb" d="M0 0 94.27425-62.99135"/>
<path transform="matrix(1.00006,0,0,-1.00009,129.21024,132.20618)" stroke-width=".3985" stroke-linecap="butt" stroke-miterlimit="10" stroke-linejoin="miter" fill="none" stroke="#cbcbcb" d="M0 0 104.75203-43.38873"/>
<path transform="matrix(1.00006,0,0,-1.00009,129.21024,132.20618)" stroke-width=".3985" stroke-linecap="butt" stroke-miterlimit="10" stroke-linejoin="miter" fill="none" stroke="#cbcbcb" d="M0 0 111.2055-22.11824"/>
<path transform="matrix(1.00006,0,0,-1.00009,129.21024,132.20618)" stroke-width=".3985" stroke-linecap="butt" stroke-miterlimit="10" stroke-linejoin="miter" fill="none" stroke="#cbcbcb" d="M14.17339 0C14.17339 7.82784 7.82784 14.17339 0 14.17339-7.82784 14.17339-14.17339 7.82784-14.17339 0-14.17339-7.82784-7.82784-14.17339 0-14.17339 7.82784-14.17339 14.17339-7.82784 14.17339 0ZM0 0"/>
<path transform="matrix(1.00006,0,0,-1.00009,129.21024,132.20618)" stroke-width=".3985" stroke-linecap="butt" stroke-miterlimit="10" stroke-linejoin="miter" fill="none" stroke="#000000" d="M0 0V0ZM0 0"/>
<path transform="matrix(1.00006,0,0,-1.00009,129.21024,132.20618)" d="M-6.10179-13.30496H6.10181V-.19925022H-6.10179Z" fill="#ffffff"/>
<use data-text="0" xlink:href="#font_1_1" transform="matrix(7.9705779,0,0,-7.970817,127.09311,141.52701)"/>
<path transform="matrix(1.00006,0,0,-1.00009,129.21024,132.20618)" stroke-width=".3985" stroke-linecap="butt" stroke-miterlimit="10" stroke-linejoin="miter" fill="none" stroke="#cbcbcb" d="M42.5202 0C42.5202 23.48355 23.48355 42.5202 0 42.5202-23.48355 42.5202-42.5202 23.48355-42.5202 0-42.5202-23.48355-23.48355-42.5202 0-42.5202 23.48355-42.5202 42.5202-23.48355 42.5202 0ZM0 0"/>
<path transform="matrix(1.00006,0,0,-1.00009,129.21024,132.20618)" stroke-width=".3985" stroke-linecap="butt" stroke-miterlimit="10" stroke-linejoin="miter" fill="none" stroke="#000000" d="M28.3468 0C28.3468 15.6557 15.6557 28.3468 0 28.3468-15.6557 28.3468-28.3468 15.6557-28.3468 0-28.3468-15.6557-15.6557-28.3468 0-28.3468 15.6557-28.3468 28.3468-15.6557 28.3468 0ZM0 0"/>
<path transform="matrix(1.00006,0,0,-1.00009,129.21024,132.20618)" d="M22.245-13.30496H34.4486V-.19925022H22.245Z" fill="#ffffff"/>
<use data-text="1" xlink:href="#font_1_2" transform="matrix(7.9705779,0,0,-7.970817,155.4418,141.52701)"/>
<path transform="matrix(1.00006,0,0,-1.00009,129.21024,132.20618)" stroke-width=".3985" stroke-linecap="butt" stroke-miterlimit="10" stroke-linejoin="miter" fill="none" stroke="#cbcbcb" d="M70.867 0C70.867 39.13927 39.13927 70.867 0 70.867-39.13927 70.867-70.867 39.13927-70.867 0-70.867-39.13927-39.13927-70.867 0-70.867 39.13927-70.867 70.867-39.13927 70.867 0ZM0 0"/>
<path transform="matrix(1.00006,0,0,-1.00009,129.21024,132.20618)" stroke-width=".3985" stroke-linecap="butt" stroke-miterlimit="10" stroke-linejoin="miter" fill="none" stroke="#000000" d="M56.69362 0C56.69362 31.31142 31.31142 56.69362 0 56.69362-31.31142 56.69362-56.69362 31.31142-56.69362 0-56.69362-31.31142-31.31142-56.69362 0-56.69362 31.31142-56.69362 56.69362-31.31142 56.69362 0ZM0 0"/>
<path transform="matrix(1.00006,0,0,-1.00009,129.21024,132.20618)" d="M50.59181-13.30496H62.79541V-.19925022H50.59181Z" fill="#ffffff"/>
<use data-text="2" xlink:href="#font_1_3" transform="matrix(7.9705779,0,0,-7.970817,183.7895,141.52701)"/>
<path transform="matrix(1.00006,0,0,-1.00009,129.21024,132.20618)" stroke-width=".3985" stroke-linecap="butt" stroke-miterlimit="10" stroke-linejoin="miter" fill="none" stroke="#cbcbcb" d="M99.21382 0C99.21382 54.79498 54.79498 99.21382 0 99.21382-54.79498 99.21382-99.21382 54.79498-99.21382 0-99.21382-54.79498-54.79498-99.21382 0-99.21382 54.79498-99.21382 99.21382-54.79498 99.21382 0ZM0 0"/>
<path transform="matrix(1.00006,0,0,-1.00009,129.21024,132.20618)" stroke-width=".3985" stroke-linecap="butt" stroke-miterlimit="10" stroke-linejoin="miter" fill="none" stroke="#000000" d="M85.04042 0C85.04042 46.96713 46.96713 85.04042 0 85.04042-46.96713 85.04042-85.04042 46.96713-85.04042 0-85.04042-46.96713-46.96713-85.04042 0-85.04042 46.96713-85.04042 85.04042-46.96713 85.04042 0ZM0 0"/>
<path transform="matrix(1.00006,0,0,-1.00009,129.21024,132.20618)" d="M78.93861-13.30496H91.142208V-.19925022H78.93861Z" fill="#ffffff"/>
<use data-text="3" xlink:href="#font_1_4" transform="matrix(7.9705779,0,0,-7.970817,212.13822,141.52701)"/>
<path transform="matrix(1.00006,0,0,-1.00009,129.21024,132.20618)" stroke-width=".3985" stroke-linecap="butt" stroke-miterlimit="10" stroke-linejoin="miter" fill="none" stroke="#000000" d="M0 0H116.22208"/>
<path transform="matrix(1.00006,0,0,-1.00009,129.21024,132.20618)" d="M119.25575-6.55286H131.45935V6.5528504H119.25575Z" fill="#ffffff"/>
<use data-text="0" xlink:href="#font_1_1" transform="matrix(7.9705779,0,0,-7.970817,252.45763,134.77442)"/>
<path transform="matrix(1.00006,0,0,-1.00009,129.21024,132.20618)" stroke-width=".3985" stroke-linecap="butt" stroke-miterlimit="10" stroke-linejoin="miter" fill="none" stroke="#000000" d="M0 0 82.18134 82.18134"/>
<path transform="matrix(1.00006,0,0,-1.00009,129.21024,132.20618)" d="M84.38498 84.38498H105.971698V100.32456H84.38498Z" fill="#ffffff"/>
<use data-text="&#x03c0;" xlink:href="#font_2_1" transform="matrix(7.9705779,0,0,-7.970817,217.58554,41.836046)"/>
<use data-text="/" xlink:href="#font_2_2" transform="matrix(7.9705779,0,0,-7.970817,222.72655,41.836046)"/>
<use data-text="4" xlink:href="#font_1_5" transform="matrix(7.9705779,0,0,-7.970817,226.9691,41.836046)"/>
<path transform="matrix(1.00006,0,0,-1.00009,129.21024,132.20618)" stroke-width=".3985" stroke-linecap="butt" stroke-miterlimit="10" stroke-linejoin="miter" fill="none" stroke="#000000" d="M0 0V116.22208"/>
<path transform="matrix(1.00006,0,0,-1.00009,129.21024,132.20618)" d="M-10.79335 119.25575H10.793369V135.19533H-10.79335Z" fill="#ffffff"/>
<use data-text="&#x03c0;" xlink:href="#font_2_1" transform="matrix(7.9705779,0,0,-7.970817,122.400829,6.961899)"/>
<use data-text="/" xlink:href="#font_2_2" transform="matrix(7.9705779,0,0,-7.970817,127.54183,6.961899)"/>
<use data-text="2" xlink:href="#font_1_3" transform="matrix(7.9705779,0,0,-7.970817,131.7844,6.961899)"/>
<path transform="matrix(1.00006,0,0,-1.00009,129.21024,132.20618)" stroke-width=".3985" stroke-linecap="butt" stroke-miterlimit="10" stroke-linejoin="miter" fill="none" stroke="#000000" d="M0 0-82.18134 82.18134"/>
<path transform="matrix(1.00006,0,0,-1.00009,129.21024,132.20618)" d="M-110.20593 84.38498H-84.38498V100.32456H-110.20593Z" fill="#ffffff"/>
<use data-text="3" xlink:href="#font_1_4" transform="matrix(7.9705779,0,0,-7.970817,22.982865,41.836046)"/>
<use data-text="&#x03c0;" xlink:href="#font_2_1" transform="matrix(7.9705779,0,0,-7.970817,27.218125,41.836046)"/>
<use data-text="/" xlink:href="#font_2_2" transform="matrix(7.9705779,0,0,-7.970817,32.35913,41.836046)"/>
<use data-text="4" xlink:href="#font_1_5" transform="matrix(7.9705779,0,0,-7.970817,36.60167,41.836046)"/>
<path transform="matrix(1.00006,0,0,-1.00009,129.21024,132.20618)" stroke-width=".3985" stroke-linecap="butt" stroke-miterlimit="10" stroke-linejoin="miter" fill="none" stroke="#000000" d="M0 0H-116.22208"/>
<path transform="matrix(1.00006,0,0,-1.00009,129.21024,132.20618)" d="M-132.37401-5.70047H-119.25577V5.70049H-132.37401Z" fill="#ffffff"/>
<use data-text="&#x03c0;" xlink:href="#font_2_1" transform="matrix(7.9705779,0,0,-7.970817,.81352236,133.92234)"/>
<path transform="matrix(1.00006,0,0,-1.00009,129.21024,132.20618)" stroke-width=".3985" stroke-linecap="butt" stroke-miterlimit="10" stroke-linejoin="miter" fill="none" stroke="#000000" d="M0 0-82.18134-82.18134"/>
<path transform="matrix(1.00006,0,0,-1.00009,129.21024,132.20618)" d="M-110.20593-100.32455H-84.38498V-84.384967H-110.20593Z" fill="#ffffff"/>
<use data-text="5" xlink:href="#font_1_6" transform="matrix(7.9705779,0,0,-7.970817,22.982865,226.56168)"/>
<use data-text="&#x03c0;" xlink:href="#font_2_1" transform="matrix(7.9705779,0,0,-7.970817,27.218125,226.56168)"/>
<use data-text="/" xlink:href="#font_2_2" transform="matrix(7.9705779,0,0,-7.970817,32.35913,226.56168)"/>
<use data-text="4" xlink:href="#font_1_5" transform="matrix(7.9705779,0,0,-7.970817,36.60167,226.56168)"/>
<path transform="matrix(1.00006,0,0,-1.00009,129.21024,132.20618)" stroke-width=".3985" stroke-linecap="butt" stroke-miterlimit="10" stroke-linejoin="miter" fill="none" stroke="#000000" d="M0 0 82.18134-82.18134"/>
<path transform="matrix(1.00006,0,0,-1.00009,129.21024,132.20618)" d="M84.38498-100.32455H110.20593V-84.384967H84.38498Z" fill="#ffffff"/>
<use data-text="7" xlink:href="#font_1_7" transform="matrix(7.9705779,0,0,-7.970817,217.58554,226.56168)"/>
<use data-text="&#x03c0;" xlink:href="#font_2_1" transform="matrix(7.9705779,0,0,-7.970817,221.8208,226.56168)"/>
<use data-text="/" xlink:href="#font_2_2" transform="matrix(7.9705779,0,0,-7.970817,226.9618,226.56168)"/>
<use data-text="4" xlink:href="#font_1_5" transform="matrix(7.9705779,0,0,-7.970817,231.20435,226.56168)"/>
<path transform="matrix(1.00006,0,0,-1.00009,129.21024,132.20618)" stroke-width=".3985" stroke-linecap="butt" stroke-miterlimit="10" stroke-linejoin="miter" fill="none" stroke="#000000" d="M0 0V-116.22208"/>
<path transform="matrix(1.00006,0,0,-1.00009,129.21024,132.20618)" d="M-12.91048-135.19535H12.91047V-119.25576H-12.91048Z" fill="#ffffff"/>
<use data-text="3" xlink:href="#font_1_4" transform="matrix(7.9705779,0,0,-7.970817,120.2837,261.4358)"/>
<use data-text="&#x03c0;" xlink:href="#font_2_1" transform="matrix(7.9705779,0,0,-7.970817,124.51896,261.4358)"/>
<use data-text="/" xlink:href="#font_2_2" transform="matrix(7.9705779,0,0,-7.970817,129.65998,261.4358)"/>
<use data-text="2" xlink:href="#font_1_3" transform="matrix(7.9705779,0,0,-7.970817,133.9025,261.4358)"/>
<path transform="matrix(1.00006,0,0,-1.00009,129.21024,132.20618)" stroke-width="1.39478" stroke-linecap="butt" stroke-miterlimit="10" stroke-linejoin="miter" fill="none" stroke="#000000" d="M113.38724 0C113.38724 62.62283 62.62283 113.38724 0 113.38724-62.62283 113.38724-113.38724 62.62283-113.38724 0-113.38724-62.62283-62.62283-113.38724 0-113.38724 62.62283-113.38724 113.38724-62.62283 113.38724 0ZM0 0"/>
<path transform="matrix(1.00006,0,0,-1.00009,129.21024,132.20618)" stroke-width=".59776" stroke-linecap="butt" stroke-miterlimit="10" stroke-linejoin="miter" fill="none" stroke="#ffffff" d="M113.38724 0C113.38724 62.62283 62.62283 113.38724 0 113.38724-62.62283 113.38724-113.38724 62.62283-113.38724 0-113.38724-62.62283-62.62283-113.38724 0-113.38724 62.62283-113.38724 113.38724-62.62283 113.38724 0ZM0 0"/>
<g>
<path transform="matrix(1.00006,0,0,-1.00009,129.21024,132.20618)" d="M24.5491 14.17339 91.6163 52.89203 89.90042 54.54865 88.13783 56.14601 86.33067 57.67763 84.48503 59.14781 82.59268 60.54924 80.66096 61.88277 78.69768 63.14925 76.70412 64.35039 74.67636 65.47412 72.62224 66.52908 70.5452 67.5131 68.44783 68.42706 66.32494 69.26315 64.19078 70.02571 62.04366 70.71866 59.88443 71.33717 57.71353 71.87872 55.54045 72.34932 53.36479 72.74638 51.19215 73.07295 49.01822 73.32166 46.85077 73.49814 44.69456 73.60626 42.54788 73.64478 14.17296 24.54868 14.70497 24.23293 15.22922 23.90637 15.74696 23.56897 16.2578 23.22078 16.75954 22.86005 17.25392 22.48894 17.7401 22.10744 18.21849 21.71555 18.68736 21.3133 19.14758 20.90022 19.59872 20.47806 20.0412 20.04683 20.47287 19.60434 20.89503 19.1532 21.30768 18.69298 21.71123 18.22453 22.10268 17.74658 22.48418 17.25998 22.85573 16.76602 23.21603 16.26428 23.56465 15.75345 23.90204 15.23613 24.2286 14.71146 24.54478 14.17989 24.5491 14.17339" fill="#800000" fill-opacity=".4"/>
<path transform="matrix(1.00006,0,0,-1.00009,129.21024,132.20618)" stroke-width=".3985" stroke-linecap="butt" stroke-miterlimit="10" stroke-linejoin="miter" fill="none" stroke="#000000" stroke-opacity=".4" d="M24.5491 14.17339 91.6163 52.89203 89.90042 54.54865 88.13783 56.14601 86.33067 57.67763 84.48503 59.14781 82.59268 60.54924 80.66096 61.88277 78.69768 63.14925 76.70412 64.35039 74.67636 65.47412 72.62224 66.52908 70.5452 67.5131 68.44783 68.42706 66.32494 69.26315 64.19078 70.02571 62.04366 70.71866 59.88443 71.33717 57.71353 71.87872 55.54045 72.34932 53.36479 72.74638 51.19215 73.07295 49.01822 73.32166 46.85077 73.49814 44.69456 73.60626 42.54788 73.64478 14.17296 24.54868 14.70497 24.23293 15.22922 23.90637 15.74696 23.56897 16.2578 23.22078 16.75954 22.86005 17.25392 22.48894 17.7401 22.10744 18.21849 21.71555 18.68736 21.3133 19.14758 20.90022 19.59872 20.47806 20.0412 20.04683 20.47287 19.60434 20.89503 19.1532 21.30768 18.69298 21.71123 18.22453 22.10268 17.74658 22.48418 17.25998 22.85573 16.76602 23.21603 16.26428 23.56465 15.75345 23.90204 15.23613 24.2286 14.71146 24.54478 14.17989 24.5491 14.17339"/>
</g>
<path transform="matrix(1.00006,0,0,-1.00009,129.21024,132.20618)" stroke-width=".79701" stroke-linecap="butt" stroke-miterlimit="10" stroke-linejoin="miter" fill="none" stroke="#ff0000" d="M113.38724 0C113.38724 0 113.34464 2.58331 113.29639 3.5749 113.24814 4.5665 113.13403 6.15886 113.03946 7.1468 112.94489 8.13475 112.755 9.71376 112.61472 10.69534 112.47441 11.67693 112.21399 13.24799 112.02818 14.2214 111.84239 15.19481 111.50758 16.74887 111.27557 17.71112 111.04356 18.67337 110.6338 20.20802 110.356 21.15672 110.0782 22.10542 109.59453 23.61595 109.27335 24.54868 108.95216 25.48141 108.40462 26.96402 108.04106 27.87923 107.6775 28.79442 107.05908 30.24948 106.65305 31.14488 106.247 32.04027 105.56146 33.45992 105.1145 34.33269 104.66753 35.20546 103.91852 36.58736 103.4315 37.43529 102.94449 38.28322 102.1298 39.62244 101.60445 40.44402 101.0791 41.2656 100.20642 42.56282 99.64505 43.35674 99.0837 44.15063 98.15411 45.40208 97.55849 46.16606 96.96286 46.93004 95.98082 48.13101 95.35213 48.86293 94.72343 49.59486 93.6882 50.74304 93.02722 51.4413 92.36624 52.13956 91.27876 53.2322 90.58813 53.89552 89.89752 54.55884 88.76685 55.595 88.04958 56.22214 87.3323 56.84927 86.16112 57.82579 85.41846 58.41554 84.67578 59.00528 83.463 59.92087 82.69693 60.47269 81.93086 61.0245 80.68417 61.881 79.89711 62.39273 79.11005 62.90445 77.83076 63.69026 77.02419 64.16095 76.21762 64.63162 74.90657 65.35513 74.08379 65.78513 73.26102 66.21512 71.9302 66.87157 71.0941 67.26009 70.25798 67.6486 68.90567 68.23898 68.05766 68.58537 67.20967 68.93176 65.84099 69.45346 64.98233 69.75668 64.12366 70.05992 62.73528 70.5109 61.86893 70.77098 61.00258 71.03107 59.60884 71.4137 58.73822 71.6313 57.8676 71.8489 56.46735 72.1645 55.5941 72.33937 54.72086 72.51424 53.3179 72.75928 52.44435 72.89171 51.5708 73.02415 50.16951 73.20366 49.29807 73.29398 48.4266 73.3843 47.031 73.49469 46.16347 73.5427 45.29591 73.5907 43.9068 73.63324 43.0453 73.64001 42.1838 73.6468 40.80698 73.625 39.95438 73.59157 39.10178 73.55814 37.74217 73.47192 36.90024 73.39908 36.0583 73.32623 34.71564 73.17784 33.8863 73.06647 33.05698 72.95508 31.73785 72.74567 30.92299 72.5963 30.10814 72.44691 28.81166 72.17586 28.0133 71.98987 27.21494 71.8039 25.94887 71.47682 25.16893 71.25586 24.38899 71.0349 23.15205 70.65172 22.39204 70.39726 21.63205 70.14282 20.42957 69.70827 19.69128 69.42189 18.953 69.13551 17.78601 68.65073 17.07097 68.3332 16.35591 68.01569 15.22815 67.4804 14.53758 67.13335 13.84702 66.7863 12.75851 66.2062 12.09375 65.83185 11.42897 65.45747 10.38417 64.83493 9.74635 64.43518 9.10855 64.03542 8.10634 63.37402 7.49672 62.9507 6.88712 62.52737 5.93314 61.82983 5.35265 61.38405 4.77214 60.93826 3.86353 60.20387 3.31279 59.73781 2.76205 59.27174 1.90312 58.50865 1.38324 58.02495 .86334 57.54126 .05429 56.75122-.43425 56.25156-.9228 55.75188-1.68083 54.93791-2.13802 54.42366-2.5952 53.9094-3.30402 53.07169-3.72932 52.54514-4.15463 52.01859-4.81044 51.16531-5.20341 50.62856-5.59639 50.0918-6.20091 49.22156-6.56158 48.67651-6.92227 48.13148-7.47458 47.25122-7.80296 46.70024-8.13136 46.14926-8.63208 45.26086-8.92844 44.70538-9.22478 44.1499-9.67438 43.25456-9.93884 42.69669-10.20332 42.1388-10.60165 41.24289-10.83463 40.68451-11.0676 40.12614-11.41583 39.22957-11.61795 38.67233-11.82008 38.11511-12.11966 37.22224-12.29141 36.6684-12.46317 36.11455-12.71384 35.2292-12.85588 34.68045-12.99792 34.13168-13.20187 33.25572-13.31523 32.71327-13.4286 32.1708-13.5875 31.3051-13.67294 30.77074-13.75839 30.23639-13.87259 29.38634-13.93117 28.86195-13.98973 28.33755-14.06221 27.5047-14.0951 26.99123-14.12798 26.47775-14.15988 25.66231-14.16821 25.16115-14.17653 24.65999-14.17023 23.86646-14.15523 23.3791-14.14021 22.89174-14.09702 22.12068-14.06006 21.64851-14.0231 21.17633-13.94626 20.43204-13.88878 19.97589-13.8313 19.51974-13.72234 18.80008-13.6457 18.3608-13.56906 17.9215-13.43076 17.2313-13.33643 16.80971-13.2421 16.3881-13.07616 15.72525-12.96574 15.3222-12.85533 14.91916-12.66545 14.28833-12.54056 13.90479-12.41568 13.52124-12.20349 12.92172-12.06563 12.55786-11.92778 12.194-11.69609 11.62593-11.54701 11.2823-11.39795 10.93867-11.15 10.40425-10.99121 10.08116-10.83243 9.75806-10.56941 9.25604-10.40253 8.95352-10.23564 8.651-9.96164 8.18248-9.78831 7.90073-9.615 7.61897-9.33134 7.18362-9.15335 6.92276-8.97534 6.6619-8.6864 6.26071-8.5054 6.02048-8.32442 5.78024-8.0316 5.4113-7.84882 5.1913-7.66603 4.9713-7.37086 4.6348-7.1879 4.43478-7.00493 4.23477-6.71144 3.93016-6.53001 3.74965-6.3486 3.56914-6.05858 3.29515-5.88034 3.13373-5.70212 2.9723-5.41934 2.72925-5.24538 2.58612-5.0714 2.443-4.79486 2.22778-4.6264 2.10213-4.45796 1.97646-4.1928 1.78943-4.03123 1.68039-3.86969 1.57135-3.6157 1.40956-3.46202 1.3162-3.30832 1.22282-3.06747 1.08586-2.92351 1.00737-2.77956 .92888-2.55753 .81519-2.42436 .75044-2.29118 .6857-2.08577 .59303-1.96371 .54065-1.84164 .48827-1.6547 .414-1.54457 .37283-1.43445 .33167-1.26727 .27513-1.17 .24394-1.07272 .21274-.92667 .17041-.84343 .1479-.7602 .12541-.63884 .09691-.57007 .08173-.5013 .06656-.40175 .04784-.34775 .03848-.29376 .02913-.21986 .01917-.18079 .01425-.14172 .00934-.0901 .00499-.06616 .00302-.04222 .00104-.01634 .0004-.0082 0-.00005-.0004 .00056 .0004-.00734 0-.01526-.0004-.04172-.0011-.0653-.00302-.08888-.00493-.13857-.00897-.17732-.01382-.2161-.01868-.29094-.02881-.34471-.03804-.39848-.04727-.49666-.06543-.56488-.08044-.6331-.09544-.75346-.12387-.83652-.1462-.91956-.1685-1.06653-.21033-1.16351-.24133-1.26048-.27235-1.4258-.32889-1.53549-.36981-1.6452-.41074-1.83232-.48419-1.9542-.53633-2.07607-.58847-2.28087-.68112-2.41397-.74568-2.54709-.81024-2.76971-.92355-2.91356-1.00174-3.0574-1.07993-3.29744-1.21632-3.45076-1.30928-3.6041-1.40224-3.85733-1.56306-4.01869-1.67174-4.18007-1.78041-4.4456-1.9673-4.61388-2.0926-4.78214-2.21791-5.05774-2.43213-5.23152-2.57489-5.40532-2.71765-5.6882-2.96048-5.8665-3.12161-6.04478-3.28275-6.33519-3.55615-6.51662-3.73624-6.69803-3.91634-6.99115-4.22006-7.17406-4.41966-7.35698-4.61926-7.65211-4.95529-7.83498-5.17487-8.01782-5.39444-8.311-5.76262-8.492-6.0023-8.67299-6.242-8.96146-6.64197-9.13951-6.90242-9.31758-7.16287-9.60185-7.59813-9.77534-7.87953-9.94885-8.16093-10.22298-8.62854-10.38998-8.93059-10.55699-9.23264-10.82013-9.73381-10.9791-10.0565-11.13806-10.3792-11.38652-10.91321-11.53577-11.25636-11.68503-11.59952-11.9168-12.16644-12.05481-12.52975-12.19283-12.89307-12.40535-13.4917-12.53061-13.87494-12.65585-14.25818-12.84674-14.88931-12.95752-15.29193-13.0683-15.69456-13.23444-16.35567-13.32907-16.77684-13.4237-17.19801-13.56264-17.88855-13.63963-18.32748-13.71663-18.7664-13.82605-19.4845-13.88402-19.94041-13.94199-20.39633-14.02003-21.14154-14.05748-21.61348-14.09491-22.08543-14.13852-22.85507-14.15393-23.3419-14.16934-23.82874-14.17644-24.6214-14.16862-25.12222-14.16083-25.62303-14.12997-26.43819-14.0977-26.95143-14.06543-27.46466-13.99394-28.29695-13.93591-28.82129-13.8779-29.34561-13.76434-30.19623-13.67943-30.73051-13.59451-31.2648-13.43665-32.12996-13.32388-32.67218-13.21114-33.21439-13.00813-34.08984-12.86668-34.63849-12.72525-35.18713-12.4755-36.07259-12.3044-36.62643-12.1333-37.1803-11.83492-38.07327-11.63351-38.63037-11.43213-39.18748-11.08516-40.08333-10.8528-40.6417-10.62042-41.20006-10.22249-42.09695-9.95872-42.65472-9.69498-43.21248-9.24734-44.10628-8.95178-44.6617-8.65622-45.21712-8.15622-46.10663-7.82849-46.65785-7.50076-47.20908-6.9497-48.08928-6.5897-48.63455-6.22969-49.17984-5.62613-50.05078-5.2337-50.5879-4.84128-51.12502-4.18587-51.97934-3.76134-52.50577-3.3368-53.0322-2.63037-53.86769-2.17392-54.38213-1.71747-54.89656-.95937-55.71329-.47145-56.21349 .01643-56.7137 .82324-57.50296 1.34259-57.98734 1.86192-58.4717 2.72156-59.23808 3.2717-59.7045 3.82184-60.17091 4.72781-60.90318 5.30766-61.349 5.88751-61.79483 6.84186-62.49388 7.45088-62.91782 8.0599-63.34175 9.06003-64.00424 9.69707-64.40446 10.3341-64.80469 11.37799-65.42754 12.04227-65.80243 12.70656-66.17732 13.79478-66.75893 14.48482-67.10652 15.17485-67.45412 16.30101-67.9895 17.0156-68.30768 17.73018-68.62585 18.89719-69.1125 19.63506-69.39984 20.37291-69.68716 21.574-70.12338 22.33365-70.37868 23.09329-70.63396 24.33055-71.01828 25.11012-71.23985 25.8897-71.46143 27.15439-71.78903 27.95233-71.9756 28.75026-72.16217 30.0464-72.43422 30.86113-72.58463 31.67587-72.73502 32.9955-72.94727 33.82445-73.05954 34.65341-73.17183 35.9944-73.32062 36.83578-73.39389 37.67717-73.46718 39.03621-73.55334 39.88864-73.58768 40.74109-73.62201 42.11812-73.6469 42.97955-73.64131 43.84099-73.63573 45.2298-73.59473 46.09729-73.54745 46.96477-73.50017 48.36061-73.39017 49.23189-73.30046 50.10316-73.21075 51.50345-73.03223 52.37688-72.9008 53.2503-72.76938 54.65367-72.52719 55.52704-72.35321 56.4004-72.17924 57.80057-71.86351 58.6716-71.64687 59.54263-71.43022 60.93867-71.05087 61.80492-70.79175 62.67116-70.53261 64.05655-70.0817 64.91486-69.77917 65.77316-69.47665 67.1426-68.95688 67.99107-68.61133 68.83954-68.26576 70.19313-67.67624 71.03008-67.28862 71.86702-66.901 73.2001-66.24623 74.02324-65.81757 74.84639-65.3889 76.15614-64.66908 76.96277-64.199 77.76941-63.72894 79.04955-62.94057 79.83698-62.42949 80.62442-61.91841 81.87196-61.06631 82.63809-60.51552 83.40424-59.9647 84.61568-59.04869 85.35876-58.45966 86.10185-57.87062 87.27544-56.89633 87.99379-56.27014 88.71214-55.64397 89.84482-54.60898 90.53624-53.94655 91.22766-53.28413 92.31552-52.19363 92.97705-51.4958 93.63858-50.79796 94.67488-49.64851 95.30411-48.917 95.93335-48.1855 96.91576-46.98642 97.51222-46.22359 98.10869-45.46075 99.04077-44.21208 99.6031-43.41902 100.16542-42.62595 101.03908-41.3287 101.5651-40.5076 102.09111-39.6865 102.90634-38.34842 103.3943-37.50102 103.88226-36.65364 104.63448-35.27264 105.08206-34.40016 105.52963-33.5277 106.21352-32.10771 106.62016-31.21278 107.02681-30.31786 107.648-28.8648 108.01294-27.95015 108.37787-27.03549 108.92786-25.55296 109.25043-24.62048 109.573-23.68799 110.05939-22.17772 110.33783-21.22939 110.61629-20.28105 111.02467-18.74765 111.2574-17.78552 111.49013-16.82338 111.82797-15.26816 112.01521-14.29494 112.20245-13.3217 112.46555-11.75256 112.60693-10.77106 112.7483-9.78954 112.93896-8.20866 113.03427-7.22078 113.12958-6.2329 113.2452-4.64262 113.29381-3.65103 113.3424-2.65944 113.38463-.07394 113.38463-.07394"/>
<path transform="matrix(1.00006,0,0,-1.00009,129.21024,132.20618)" stroke-width=".79701" stroke-linecap="butt" stroke-miterlimit="10" stroke-linejoin="miter" fill="none" stroke="#0000ff" d="M28.3468 0C28.3468 0 28.3397 .64589 28.33167 .89404 28.32362 1.14218 28.30461 1.54074 28.28883 1.78853 28.27306 2.03633 28.24136 2.43288 28.21791 2.68 28.19444 2.92712 28.15085 3.32338 28.11972 3.56972 28.08858 3.81607 28.03242 4.21034 27.99342 4.45555 27.9544 4.70076 27.88544 5.09325 27.83858 5.33707 27.7917 5.5809 27.71002 5.97081 27.6556 6.21297 27.60118 6.45512 27.50818 6.84196 27.44626 7.08237 27.38432 7.32277 27.27878 7.70728 27.20923 7.94571 27.13968 8.18413 27.02199 8.5648 26.94493 8.80083 26.86787 9.03685 26.73839 9.4135 26.65384 9.64688 26.56927 9.88026 26.42741 10.25235 26.3355 10.48297 26.24356 10.71361 26.09027 11.08139 25.9912 11.30913 25.89212 11.53687 25.72748 11.89995 25.62138 12.12445 25.51529 12.34895 25.33958 12.7063 25.22646 12.92725 25.11334 13.14821 24.92624 13.49982 24.80603 13.71706 24.68584 13.9343 24.48714 14.2797 24.36009 14.49304 24.23306 14.70639 24.02394 15.04555 23.89035 15.25473 23.75677 15.46393 23.5374 15.79599 23.39726 16.00087 23.25714 16.20575 23.02693 16.53087 22.88039 16.73143 22.73384 16.93199 22.4938 17.25072 22.341 17.44641 22.1882 17.6421 21.93817 17.95126 21.77914 18.14192 21.6201 18.3326 21.35968 18.6349 21.19478 18.82057 21.02986 19.00626 20.76102 19.29982 20.59053 19.48021 20.42003 19.66058 20.142 19.94586 19.96594 20.12079 19.78987 20.29572 19.50317 20.57181 19.32146 20.74104 19.13976 20.91026 18.84328 21.1772 18.6562 21.34055 18.46915 21.50389 18.1652 21.761 17.97324 21.91841 17.78127 22.07584 17.46936 22.3238 17.27252 22.4751 17.07568 22.62639 16.75603 22.8638 16.5545 23.00883 16.35298 23.15388 16.02603 23.38191 15.82007 23.52054 15.6141 23.65916 15.28033 23.8761 15.07005 24.00801 14.85976 24.13991 14.51888 24.34601 14.30444 24.47125 14.09003 24.59651 13.7428 24.79227 13.52458 24.91072 13.30638 25.02917 12.95354 25.21353 12.73174 25.32509 12.50995 25.43665 12.15115 25.61028 11.92593 25.71481 11.70071 25.81934 11.3369 25.98128 11.10843 26.07857 10.87996 26.17584 10.51065 26.32599 10.27925 26.41594 10.04785 26.50589 9.67467 26.6443 9.44055 26.72694 9.20645 26.80959 8.82855 26.93623 8.59192 27.01155 8.35529 27.08687 7.97392 27.20184 7.73506 27.26978 7.49622 27.33769 7.11125 27.441 6.87042 27.50117 6.6296 27.56136 6.24191 27.65121 5.99928 27.70361 5.75667 27.756 5.36584 27.83403 5.12166 27.8788 4.87747 27.92357 4.4848 27.98909 4.23929 28.02629 3.99377 28.06348 3.59868 28.11743 3.35216 28.14696 3.10562 28.17648 2.70973 28.21762 2.46242 28.23909 2.21512 28.26057 1.81758 28.28818 1.56967 28.3018 1.32176 28.31543 .92375 28.33136 .67561 28.33728 .42747 28.34322 .02927 28.34648-.21886 28.34464-.467 28.34277-.86482 28.33359-1.1129 28.32388-1.36098 28.31416-1.7593 28.29213-2.00696 28.27457-2.25462 28.25699-2.65103 28.22256-2.898 28.19714-3.14494 28.1717-3.5408 28.1244-3.78685 28.09117-4.0329 28.05792-4.42654 27.99837-4.67139 27.9575-4.91623 27.91664-5.30806 27.84515-5.5516 27.79662-5.79514 27.74808-6.18478 27.66382-6.42664 27.60759-6.66847 27.55136-7.05487 27.45528-7.29474 27.39131-7.5346 27.32735-7.91766 27.21802-8.15549 27.1465-8.39331 27.07498-8.77345 26.95465-9.00888 26.87573-9.24431 26.79683-9.61961 26.66394-9.85234 26.57771-10.08507 26.49149-10.45625 26.34767-10.68626 26.25418-10.91629 26.16068-11.28334 26.0047-11.51025 25.90381-11.73715 25.80293-12.09822 25.63503-12.3217 25.52708-12.54518 25.41913-12.90096 25.2406-13.12102 25.12569-13.34108 25.01077-13.6914 24.82065-13.9078 24.69876-14.1242 24.57689-14.46825 24.37575-14.68076 24.2472-14.89326 24.11865-15.23125 23.90741-15.43942 23.77226-15.6476 23.63712-15.9775 23.41493-16.18124 23.27313-16.38498 23.13132-16.70865 22.89835-16.9079 22.75018-17.10713 22.602-17.4227 22.35947-17.61726 22.20518-17.81181 22.0509-18.12056 21.79842-18.31018 21.63812-18.49982 21.47783-18.79971 21.21611-18.98407 21.04988-19.16843 20.88365-19.45993 20.6121-19.63895 20.44-19.81796 20.26788-20.10092 19.98698-20.27434 19.80936-20.44777 19.63171-20.72119 19.34259-20.88898 19.15968-21.05675 18.97678-21.32169 18.67912-21.48372 18.49098-21.64575 18.30284-21.9008 17.99686-22.05684 17.80368-22.21286 17.6105-22.45859 17.29674-22.6083 17.09865-22.75804 16.90054-22.99269 16.57858-23.136 16.37587-23.27931 16.17316-23.50421 15.84457-23.6412 15.63754-23.77821 15.4305-23.99303 15.09486-24.12349 14.8836-24.25395 14.67236-24.45786 14.33032-24.58154 14.115-24.70523 13.89967-24.8983 13.55078-25.01495 13.33167-25.1316 13.11256-25.31271 12.75845-25.42241 12.5358-25.5321 12.31316-25.70291 11.95302-25.80563 11.72694-25.90837 11.50089-26.06732 11.1356-26.16292 10.90642-26.2585 10.67725-26.40622 10.3071-26.49467 10.07509-26.58311 9.84308-26.71959 9.469-26.80048 9.23424-26.88136 8.99947-27.00452 8.62029-27.07773 8.383-27.15094 8.14572-27.26234 7.76337-27.32817 7.52399-27.39398 7.28459-27.49384 6.89886-27.55223 6.65761-27.61061 6.41635-27.69821 6.02817-27.74902 5.78519-27.79985 5.54219-27.87561 5.15082-27.91858 4.90627-27.96153 4.66171-28.02362 4.26839-28.05873 4.02258-28.09383 3.7768-28.14426 3.38136-28.17162 3.1346-28.19897 2.88782-28.23628 2.49147-28.25595 2.24399-28.27562 1.9965-28.3015 1.59877-28.31349 1.3508-28.32549 1.10281-28.3384 .7049-28.34247 .45676-28.34654 .2086-28.34685-.18958-28.3429-.43771-28.33894-.68587-28.32573-1.08379-28.31392-1.33176-28.30211-1.57974-28.27719-1.9774-28.25769-2.22496-28.23819-2.4725-28.20059-2.86922-28.17336-3.11598-28.1461-3.36276-28.09618-3.7578-28.06133-4.00356-28.02646-4.24931-27.96489-4.64267-27.92204-4.88724-27.87921-5.13179-27.80312-5.52304-27.75249-5.76614-27.70184-6.00926-27.61513-6.39809-27.55698-6.63943-27.49884-6.8808-27.39906-7.26637-27.33336-7.50581-27.26765-7.74527-27.15651-8.12793-27.08334-8.36528-27.0102-8.60263-26.88687-8.98175-26.80609-9.2165-26.72533-9.45128-26.58937-9.82535-26.50116-10.05736-26.41295-10.28938-26.26567-10.65952-26.17026-10.8887-26.07484-11.11789-25.91597-11.4831-25.81342-11.70923-25.71088-11.93535-25.54057-12.29562-25.43106-12.51851-25.32155-12.74138-25.14064-13.09644-25.02405-13.31566-24.90744-13.5349-24.7142-13.88324-24.59064-14.09857-24.46707-14.31389-24.26372-14.65627-24.13344-14.86761-24.00316-15.07896-23.78847-15.4148-23.6516-15.62195-23.51471-15.82912-23.28996-16.15796-23.14684-16.36075-23.00371-16.56352-22.76959-16.88535-22.62-17.08351-22.47038-17.28166-22.22447-17.59573-22.06851-17.78897-21.91254-17.9822-21.65767-18.28802-21.49582-18.47627-21.33397-18.66454-21.06961-18.96275-20.90195-19.14584-20.73428-19.32895-20.46063-19.6182-20.28732-19.79594-20.114-19.97371-19.83162-20.25491-19.65277-20.42703-19.47394-20.59915-19.18263-20.87018-18.99835-21.03647-18.81406-21.20277-18.51396-21.46504-18.32446-21.62558-18.13495-21.78612-17.82683-22.03905-17.6324-22.19351-17.43797-22.34798-17.12215-22.59067-16.92303-22.73894-16.72392-22.88722-16.40091-23.12032-16.19724-23.2623-15.99355-23.4043-15.66316-23.62706-15.45499-23.76233-15.24681-23.8976-14.90909-24.10864-14.69676-24.23726-14.48444-24.36586-14.14096-24.56726-13.92468-24.68925-13.7084-24.81125-13.3579-25.0015-13.1379-25.1166-12.9179-25.23169-12.56242-25.41066-12.339-25.51886-12.11557-25.62704-11.75447-25.79547-11.52756-25.89647-11.30066-25.99747-10.93347-26.15314-10.70357-26.24681-10.47366-26.34048-10.10316-26.48524-9.8705-26.57166-9.63783-26.65807-9.26205-26.79063-9.02663-26.86967-8.79118-26.9487-8.41136-27.06961-8.17366-27.14131-7.93594-27.21303-7.5532-27.32246-7.31332-27.38655-7.07346-27.45065-6.68658-27.5469-6.4448-27.60326-6.203-27.6596-5.81406-27.744-5.57063-27.79272-5.32722-27.84145-4.93527-27.91344-4.69043-27.95448-4.44559-27.99553-4.05193-28.05515-3.80588-28.08856-3.55984-28.12198-3.16403-28.16978-2.91702-28.1954-2.67003-28.22102-2.27318-28.25563-2.02556-28.27327-1.77795-28.29091-1.3804-28.31267-1.13237-28.32257-.88434-28.33247-.48602-28.34253-.23788-28.34464 .01024-28.34673 .40794-28.34341 .65614-28.3377 .90434-28.33202 1.30309-28.31703 1.55107-28.30354 1.79904-28.29004 2.19609-28.26187 2.44339-28.24039 2.6907-28.2189 3.08702-28.17796 3.33356-28.1487 3.5801-28.11942 3.97481-28.06627 4.22026-28.02931 4.46571-27.99236 4.8584-27.9269 5.10265-27.88225 5.3469-27.8376 5.738-27.75977 5.9807-27.7075 6.22337-27.65523 6.61092-27.5655 6.8518-27.50551 7.0927-27.44551 7.47798-27.34267 7.7169-27.27498 7.95581-27.20728 8.33707-27.09273 8.57376-27.01761 8.81046-26.94247 9.18866-26.81595 9.42284-26.73343 9.657-26.65091 10.03004-26.5127 10.2615-26.42287 10.49298-26.33304 10.86253-26.18301 11.09113-26.08592 11.31972-25.98883 11.68378-25.82738 11.90906-25.72302 12.13434-25.61865 12.49307-25.44524 12.71486-25.33374 12.93666-25.22224 13.28944-25.03764 13.5077-24.91936 13.72598-24.80107 14.07347-24.6062 14.28801-24.4812 14.50256-24.35619 14.84364-24.15024 15.05405-24.01839 15.26443-23.88654 15.59846-23.6695 15.80449-23.53091 16.0105-23.39235 16.33736-23.16452 16.53894-23.01967 16.74052-22.8748 17.06042-22.63794 17.25739-22.48677 17.45435-22.3356 17.76637-22.08739 17.95853-21.9301 18.15068-21.7728 18.45526-21.51625 18.64238-21.35309 18.8295-21.18993 19.12547-20.92313 19.30719-20.75403 19.48889-20.58492 19.77585-20.30907 19.9521-20.13419 20.12836-19.95932 20.40681-19.67393 20.57755-19.4936 20.74828-19.31328 21.01764-19.01985 21.18268-18.83443 21.3477-18.64899 21.60793-18.34767 21.76701-18.15707 21.92612-17.96646 22.17642-17.65631 22.32933-17.46068 22.48222-17.26505 22.72252-16.94737 22.86914-16.747 23.01575-16.54662 23.24577-16.22125 23.38602-16.01643 23.52626-15.81161 23.74615-15.47981 23.87997-15.27075 24.0138-15.06168 24.22336-14.7227 24.35059-14.50948 24.47781-14.29625 24.67664-13.95117 24.79695-13.73393 24.91728-13.5167 25.10457-13.16464 25.2178-12.94368 25.33105-12.72273 25.50688-12.36565 25.61316-12.14133 25.71944-11.917 25.88458-11.55447 25.98384-11.32684 26.08308-11.09923 26.23653-10.73128 26.32857-10.50072 26.42062-10.27014 26.56262-9.89838 26.64735-9.66504 26.73209-9.43172 26.86215-9.05502 26.93932-8.819 27.01648-8.58296 27.13393-8.20224 27.2036-7.96387 27.27327-7.7255 27.37933-7.34131 27.4415-7.10095 27.50366-6.86061 27.59705-6.47371 27.6517-6.23155 27.70638-5.98941 27.78854-5.59943 27.83553-5.35567 27.88252-5.11191 27.95125-4.7198 27.99037-4.4746 28.02951-4.22939 28.08618-3.83466 28.11755-3.58832 28.14893-3.34196 28.19296-2.94615 28.2166-2.69902 28.24023-2.4519 28.27206-2.05492 28.28796-1.80713 28.30388-1.55934 28.32314-1.16121 28.33122-.91307 28.33931-.66493 28.34636-.01859 28.34636-.01859"/>
<g>
<path transform="matrix(1.00006,0,0,-1.00009,129.21024,132.20618)" d="M24.5491 14.17339 91.6163 52.89203 91.227 53.55554 90.83643 54.21906 90.43936 54.87608 90.03752 55.53137 89.63527 56.18494 89.2222 56.83246 88.80911 57.48126 88.38782 58.12228 87.96307 58.76286 87.53355 59.39912 87.0993 60.03368 86.66374 60.66776 86.21822 61.29408 85.77097 61.91736 85.31897 62.53893 84.86394 63.15703 84.40372 63.77382 83.93571 64.3837 83.46901 64.99228 82.99104 65.59438 82.51353 66.19646 82.0308 66.79552 81.54161 67.3881 81.05241 67.98198 21.71469 18.22021 21.84575 18.06148 21.9768 17.9023 22.10571 17.74226 22.23416 17.58136 22.36177 17.41959 22.4872 17.25609 22.61263 17.09302 22.73547 16.9278 22.85788 16.76256 22.979 16.59604 23.0988 16.42865 23.21819 16.26082 23.33498 16.09126 23.45132 15.92128 23.56639 15.75043 23.68015 15.5787 23.79303 15.40698 23.90419 15.23355 24.0145 15.06009 24.12305 14.88492 24.23033 14.70886 24.33673 14.53326 24.44098 14.3555 24.54608 14.17815 24.5491 14.17339" fill="#000080" fill-opacity=".4"/>
<path transform="matrix(1.00006,0,0,-1.00009,129.21024,132.20618)" stroke-width=".3985" stroke-linecap="butt" stroke-miterlimit="10" stroke-linejoin="miter" fill="none" stroke="#000000" stroke-opacity=".4" d="M24.5491 14.17339 91.6163 52.89203 91.227 53.55554 90.83643 54.21906 90.43936 54.87608 90.03752 55.53137 89.63527 56.18494 89.2222 56.83246 88.80911 57.48126 88.38782 58.12228 87.96307 58.76286 87.53355 59.39912 87.0993 60.03368 86.66374 60.66776 86.21822 61.29408 85.77097 61.91736 85.31897 62.53893 84.86394 63.15703 84.40372 63.77382 83.93571 64.3837 83.46901 64.99228 82.99104 65.59438 82.51353 66.19646 82.0308 66.79552 81.54161 67.3881 81.05241 67.98198 21.71469 18.22021 21.84575 18.06148 21.9768 17.9023 22.10571 17.74226 22.23416 17.58136 22.36177 17.41959 22.4872 17.25609 22.61263 17.09302 22.73547 16.9278 22.85788 16.76256 22.979 16.59604 23.0988 16.42865 23.21819 16.26082 23.33498 16.09126 23.45132 15.92128 23.56639 15.75043 23.68015 15.5787 23.79303 15.40698 23.90419 15.23355 24.0145 15.06009 24.12305 14.88492 24.23033 14.70886 24.33673 14.53326 24.44098 14.3555 24.54608 14.17815 24.5491 14.17339"/>
</g>
<g>
<path transform="matrix(1.00006,0,0,-1.00009,129.21024,132.20618)" d="M21.71469 18.22108 76.69762 64.35515 76.22572 64.90965 75.7534 65.46245 75.27544 66.00961 74.79272 66.55331 74.31001 67.09744 73.8178 67.63335 73.32599 68.16971 72.8277 68.69826 72.32811 69.22682 71.82422 69.74933 71.31383 70.2675 70.80515 70.7883 70.28569 71.29695 69.76794 71.80734 69.2437 72.31169 68.71686 72.81256 68.1883 73.31085 67.65196 73.80092 67.1143 74.29314 66.5719 74.77716 66.02779 75.2603 65.48103 75.73825 64.92783 76.21016 64.37505 76.68074 18.22108 21.71384 18.37723 21.58017 18.5338 21.44695 18.68909 21.31157 18.84308 21.1749 18.99706 21.03777 19.1493 20.89848 19.3007 20.75964 19.45035 20.61864 19.6 20.47719 19.74794 20.33401 19.895 20.19 20.04163 20.04552 20.18611 19.89847 20.331 19.75226 20.47374 19.6039 20.61519 19.45468 20.75662 19.3046 20.89503 19.15277 21.0343 19.00095 21.17142 18.8474 21.30768 18.69298 21.4435 18.53856 21.57715 18.38156 21.7108 18.22498 21.71469 18.22108" fill="#000080" fill-opacity=".4"/>
<path transform="matrix(1.00006,0,0,-1.00009,129.21024,132.20618)" stroke-width=".3985" stroke-linecap="butt" stroke-miterlimit="10" stroke-linejoin="miter" fill="none" stroke="#000000" stroke-opacity=".4" d="M21.71469 18.22108 76.69762 64.35515 76.22572 64.90965 75.7534 65.46245 75.27544 66.00961 74.79272 66.55331 74.31001 67.09744 73.8178 67.63335 73.32599 68.16971 72.8277 68.69826 72.32811 69.22682 71.82422 69.74933 71.31383 70.2675 70.80515 70.7883 70.28569 71.29695 69.76794 71.80734 69.2437 72.31169 68.71686 72.81256 68.1883 73.31085 67.65196 73.80092 67.1143 74.29314 66.5719 74.77716 66.02779 75.2603 65.48103 75.73825 64.92783 76.21016 64.37505 76.68074 18.22108 21.71384 18.37723 21.58017 18.5338 21.44695 18.68909 21.31157 18.84308 21.1749 18.99706 21.03777 19.1493 20.89848 19.3007 20.75964 19.45035 20.61864 19.6 20.47719 19.74794 20.33401 19.895 20.19 20.04163 20.04552 20.18611 19.89847 20.331 19.75226 20.47374 19.6039 20.61519 19.45468 20.75662 19.3046 20.89503 19.15277 21.0343 19.00095 21.17142 18.8474 21.30768 18.69298 21.4435 18.53856 21.57715 18.38156 21.7108 18.22498 21.71469 18.22108"/>
</g>
<g>
<path transform="matrix(1.00006,0,0,-1.00009,129.21024,132.20618)" d="M18.22108 21.71469 59.8667 71.34238 59.34377 71.77448 58.82211 72.20355 58.29616 72.63004 57.7663 73.05046 57.23471 73.47003 56.69879 73.8805 56.1633 74.294 55.62047 74.69756 55.07591 75.09984 54.53047 75.49776 53.97899 75.89137 53.4288 76.28369 52.8704 76.66734 52.3133 77.04971 51.75186 77.42775 51.18913 77.80145 50.6238 78.17387 50.05371 78.53764 49.48233 78.9001 48.90706 79.25652 48.33005 79.60902 47.75131 79.95723 47.16739 80.30283 46.58606 80.6467 14.17296 24.54868 14.3503 24.444 14.52806 24.33934 14.70412 24.23293 14.87971 24.12566 15.0549 24.01752 15.22835 23.90678 15.40222 23.79607 15.57394 23.6836 15.74567 23.56941 15.91652 23.45479 16.0865 23.33844 16.25606 23.2212 16.42389 23.10226 16.59128 22.98247 16.7578 22.86134 16.92348 22.73936 17.08868 22.6161 17.25175 22.49022 17.41483 22.36523 17.5766 22.23763 17.7375 22.10916 17.89798 21.97983 18.05714 21.84877 18.21588 21.71814 18.22108 21.71469" fill="#000080" fill-opacity=".4"/>
<path transform="matrix(1.00006,0,0,-1.00009,129.21024,132.20618)" stroke-width=".3985" stroke-linecap="butt" stroke-miterlimit="10" stroke-linejoin="miter" fill="none" stroke="#000000" stroke-opacity=".4" d="M18.22108 21.71469 59.8667 71.34238 59.34377 71.77448 58.82211 72.20355 58.29616 72.63004 57.7663 73.05046 57.23471 73.47003 56.69879 73.8805 56.1633 74.294 55.62047 74.69756 55.07591 75.09984 54.53047 75.49776 53.97899 75.89137 53.4288 76.28369 52.8704 76.66734 52.3133 77.04971 51.75186 77.42775 51.18913 77.80145 50.6238 78.17387 50.05371 78.53764 49.48233 78.9001 48.90706 79.25652 48.33005 79.60902 47.75131 79.95723 47.16739 80.30283 46.58606 80.6467 14.17296 24.54868 14.3503 24.444 14.52806 24.33934 14.70412 24.23293 14.87971 24.12566 15.0549 24.01752 15.22835 23.90678 15.40222 23.79607 15.57394 23.6836 15.74567 23.56941 15.91652 23.45479 16.0865 23.33844 16.25606 23.2212 16.42389 23.10226 16.59128 22.98247 16.7578 22.86134 16.92348 22.73936 17.08868 22.6161 17.25175 22.49022 17.41483 22.36523 17.5766 22.23763 17.7375 22.10916 17.89798 21.97983 18.05714 21.84877 18.21588 21.71814 18.22108 21.71469"/>
</g>
<path transform="matrix(1.00006,0,0,-1.00009,129.21024,132.20618)" stroke-width=".3985" stroke-linecap="butt" stroke-dasharray="2.98883,2.98883" stroke-miterlimit="10" stroke-linejoin="miter" fill="none" stroke="#bf0040" d="M0 0 91.61845 52.89592"/>
<path transform="matrix(1.00006,0,0,-1.00009,129.21024,132.20618)" stroke-width=".3985" stroke-linecap="butt" stroke-dasharray="2.98883,2.98883" stroke-miterlimit="10" stroke-linejoin="miter" fill="none" stroke="#bf0040" d="M0 0 81.04031 68.00188"/>
<path transform="matrix(1.00006,0,0,-1.00009,129.21024,132.20618)" stroke-width=".3985" stroke-linecap="butt" stroke-dasharray="2.98883,2.98883" stroke-miterlimit="10" stroke-linejoin="miter" fill="none" stroke="#bf0040" d="M0 0 64.35817 76.69762"/>
<path transform="matrix(1.00006,0,0,-1.00009,129.21024,132.20618)" stroke-width=".3985" stroke-linecap="butt" stroke-dasharray="2.98883,2.98883" stroke-miterlimit="10" stroke-linejoin="miter" fill="none" stroke="#bf0040" d="M0 0 46.56789 80.65793"/>
</svg>
