<svg xmlns="http://www.w3.org/2000/svg" xmlns:xlink="http://www.w3.org/1999/xlink" version="1.1" width="207" height="172" viewBox="0 0 207 172">
<defs>
<path id="font_1_1" d="M.6589966 .23046875C.6759949 .23046875 .69400027 .23046875 .69400027 .25045777 .69400027 .27046205 .6759949 .27046205 .6589966 .27046205H.117996219C.100997928 .27046205 .08299255 .27046205 .08299255 .25045777 .08299255 .23046875 .100997928 .23046875 .117996219 .23046875H.6589966Z"/>
<path id="font_2_8" d="M.12298584 .34773255C.12298584 .60061648 .24598694 .641037 .2999878 .641037 .33599855 .641037 .37199403 .62991335 .3909912 .5996094 .3789978 .5996094 .34098817 .5996094 .34098817 .558609 .34098817 .53660586 .35598756 .51760867 .38198854 .51760867 .40699769 .51760867 .42399598 .53260806 .42399598 .56159976 .42399598 .6137543 .38598634 .66503909 .29899598 .66503909 .17298889 .66503909 .040985109 .53559878 .040985109 .31570436 .040985109 .040527345 .16099549-.021484375 .24598694-.021484375 .35499574-.021484375 .44799806 .07354736 .44799806 .2036438 .44799806 .33673097 .35499574 .42578126 .25498963 .42578126 .1659851 .42578126 .1329956 .34873963 .12298584 .32070924V.34773255M.24598694 .005508423C.18299866 .005508423 .15299988 .061538698 .14399719 .08256531 .1349945 .10858154 .125 .15760803 .125 .22766114 .125 .30670167 .16099549 .40577699 .25099183 .40577699 .30599977 .40577699 .33499146 .3687439 .34999085 .33473207 .3659973 .29769898 .3659973 .2476654 .3659973 .20463562 .3659973 .15361023 .3659973 .10858154 .34700013 .07055664 .32199098 .022521973 .28599549 .005508423 .24598694 .005508423Z"/>
<path id="font_2_7" d="M.12799073 .5727997C.17098999 .5588074 .20599365 .5578003 .21699524 .5578003 .32998658 .5578003 .4019928 .6409912 .4019928 .6550598 .4019928 .6590576 .3999939 .6640625 .3939972 .6640625 .3919983 .6640625 .3899994 .6640625 .3809967 .66004946 .32499696 .6358795 .2769928 .6328125 .25099183 .6328125 .18499756 .6328125 .13798523 .6530609 .11898804 .6610565 .11199951 .6640625 .10998535 .6640625 .10899353 .6640625 .100997928 .6640625 .100997928 .65805056 .100997928 .64201357V.34495545C.100997928 .32695008 .100997928 .32095338 .11299133 .32095338 .117996219 .32095338 .11898804 .32196046 .1289978 .33395387 .15699768 .37493897 .20399475 .39894105 .2539978 .39894105 .30699159 .39894105 .33299256 .34994508 .34098817 .33294679 .35798646 .29396058 .35899354 .2449646 .35899354 .20697022 .35899354 .16897583 .35899354 .11193848 .33099366 .0667572 .30899049 .03060913 .269989 .005508423 .22599793 .005508423 .1599884 .005508423 .09498596 .050689699 .07699585 .12397766 .08198547 .12197876 .08799744 .12097168 .09298706 .12097168 .10998535 .12097168 .13699341 .13098145 .13699341 .16497803 .13699341 .1929779 .117996219 .20898438 .09298706 .20898438 .07499695 .20898438 .04899597 .19998169 .04899597 .16098023 .04899597 .075790408 .116989139-.021484375 .22799683-.021484375 .34098817-.021484375 .43998719 .073791507 .43998719 .20097351 .43998719 .3199463 .3600006 .4189453 .25498963 .4189453 .19799805 .4189453 .1539917 .39393617 .12799073 .36595155V.5727997Z"/>
<path id="font_2_6" d="M.36099244 .6508026C.36099244 .6697998 .36099244 .6748047 .34700013 .6748047 .33898927 .6748047 .33599855 .6748047 .32798768 .662796L.026992798 .19598389V.16699219H.2899933V.07598877C.2899933 .038986207 .28799439 .0289917 .21499634 .0289917H.19499207V0C.21798706 .0019989014 .29699708 .0019989014 .32499696 .0019989014 .35299684 .0019989014 .43299867 .0019989014 .45599366 0V.0289917H.43598939C.3639984 .0289917 .36099244 .038986207 .36099244 .07598877V.16699219H.46199037V.19598389H.36099244V.6508026M.29499818 .5728302V.19598389H.051986696L.29499818 .5728302Z"/>
<path id="font_2_5" d="M.18399048 .35888673C.16699219 .35787965 .16299439 .35688783 .16299439 .34788514 .16299439 .33789063 .16799927 .33789063 .18598938 .33789063H.23199463C.31698609 .33789063 .35499574 .267807 .35499574 .17172241 .35499574 .04058838 .2869873 .005508423 .23799134 .005508423 .18998719 .005508423 .10798645 .028564454 .07899475 .09472656 .11099243 .08970642 .13999939 .10771179 .13999939 .14372254 .13999939 .17271424 .11898804 .1927185 .09098816 .1927185 .066986087 .1927185 .040985109 .1787262 .040985109 .14071656 .040985109 .051620485 .12998963-.021484375 .24099732-.021484375 .3600006-.021484375 .44799806 .06965637 .44799806 .17071533 .44799806 .26280213 .37399293 .33488465 .27799989 .35188294 .36499024 .3769226 .42099 .45011903 .42099 .5282135 .42099 .6071167 .33898927 .66503909 .24198914 .66503909 .14199829 .66503909 .067993167 .604126 .067993167 .5312042 .067993167 .49121095 .09899902 .48321534 .11399841 .48321534 .1349945 .48321534 .15899658 .49821473 .15899658 .5282135 .15899658 .5602112 .1349945 .57421877 .11299133 .57421877 .10699463 .57421877 .10499573 .57421877 .101989749 .57321169 .13999939 .641037 .23399353 .641037 .23899842 .641037 .27198792 .641037 .33699037 .6260681 .33699037 .5282135 .33699037 .5092163 .33399964 .453125 .30499269 .41001893 .2749939 .3658905 .24099732 .36288453 .21398926 .36187745L.18399048 .35888673Z"/>
<path id="font_2_4" d="M.43998719 .16790772H.41799928C.4149933 .15092469 .40699769 .09597778 .39698792 .07998657 .3899994 .070999149 .33299256 .070999149 .30299378 .070999149H.117996219C.14498902 .09397888 .20599365 .15792847 .23199463 .18190003 .38398744 .3217926 .43998719 .37374879 .43998719 .47270204 .43998719 .5878906 .34899903 .66503909 .23298645 .66503909 .116989139 .66503909 .04899597 .5658264 .04899597 .4797058 .04899597 .42871095 .09298706 .42871095 .09599304 .42871095 .116989139 .42871095 .14299011 .44371034 .14299011 .475708 .14299011 .5037079 .12399292 .5227051 .09599304 .5227051 .08699036 .5227051 .084991458 .5227051 .08198547 .521698 .100997928 .5899048 .15499878 .6360321 .21998596 .6360321 .30499269 .6360321 .35699464 .56481936 .35699464 .47270204 .35699464 .3877411 .30799867 .313797 .25099183 .24984741L.04899597 .023986817V0H.4139862L.43998719 .16790772Z"/>
<path id="font_2_3" d="M.28799439 .64105227C.28799439 .664032 .28799439 .66503909 .2679901 .66503909 .24398804 .6380615 .19400025 .6012573 .09098816 .6012573V.5722656C.11399841 .5722656 .1639862 .5722656 .21899414 .59825137V.07701111C.21899414 .041000368 .21598816 .0289917 .12799073 .0289917H.09700012V0C.12399292 .0019989014 .22099304 .0019989014 .2539978 .0019989014 .2869873 .0019989014 .3829956 .0019989014 .4099884 0V.0289917H.3789978C.29100038 .0289917 .28799439 .041000368 .28799439 .07701111V.64105227Z"/>
<path id="font_2_9" d="M.47499085 .62054446V.6435547H.23399353C.11299133 .6435547 .11099243 .6567688 .10699463 .67578127H.084991458L.053985597 .47554017H.07598877C.07899475 .49354554 .08799744 .555542 .100997928 .5665436 .10899353 .5725403 .18399048 .5725403 .19799805 .5725403H.4099884L.3039856 .42053224C.2769928 .38153077 .17599488 .21751404 .17599488 .029510498 .17599488 .018508912 .17599488-.021484375 .21699524-.021484375 .25898744-.021484375 .25898744 .017501831 .25898744 .030517579V.08052063C.25898744 .2295227 .2829895 .34553529 .32998658 .41253663L.47499085 .62054446Z"/>
<path id="font_2_10" d="M.2979889 .36079408C.34799195 .38781739 .42099 .43385316 .42099 .5179291 .42099 .6049957 .33699037 .66503909 .24499512 .66503909 .1459961 .66503909 .067993167 .59199526 .067993167 .5009155 .067993167 .46688844 .07798767 .43286134 .10598755 .39883424 .116989139 .38581849 .117996219 .38482667 .18798828 .3357849 .09098816 .29074098 .040985109 .22369385 .040985109 .15063477 .040985109 .044540407 .14199829-.021484375 .24398804-.021484375 .35499574-.021484375 .44799806 .060546876 .44799806 .16563416 .44799806 .2677307 .37599183 .3127594 .2979889 .36079408M.1619873 .4508667C.14898682 .45988465 .10899353 .48590089 .10899353 .5349426 .10899353 .59999087 .1769867 .641037 .24398804 .641037 .31599427 .641037 .37998963 .58898928 .37998963 .516922 .37998963 .45587159 .33599855 .4068451 .27799989 .3748169L.1619873 .4508667M.20899964 .32176209 .32998658 .2427063C.35598756 .22569275 .4019928 .19465637 .4019928 .13360596 .4019928 .057556154 .32499696 .005508423 .24499512 .005508423 .1599884 .005508423 .08699036 .06756592 .08699036 .15063477 .08699036 .22869873 .14399719 .29174806 .20899964 .32176209Z"/>
<clipPath id="clip_3">
<path transform="matrix(1,0,0,-1.00008,8.390999,3807.228)" d="M0 3640.7388H194.26912V3802.1356H0Z"/>
</clipPath>
<path id="font_4_1" d="M.44599916 .4016571C.46598817 .4016571 .47399903 .4016571 .47399903 .4206543 .47399903 .43066407 .46598817 .43066407 .44799806 .43066407H.36698915C.38598634 .5338745 .3999939 .60498049 .4079895 .63697817 .4139862 .6609802 .43499757 .6840973 .46099855 .6840973 .48199464 .6840973 .5029907 .67503359 .5130005 .6659851 .47399903 .66197207 .46199037 .63298037 .46199037 .61598208 .46199037 .5959778 .47698976 .5839844 .49598695 .5839844 .5159912 .5839844 .54599 .60098269 .54599 .63897708 .54599 .68107607 .5039978 .70410159 .45999146 .70410159 .4169922 .70410159 .375 .6720276 .35499574 .63298037 .33699037 .5979767 .32699586 .5619354 .3039856 .43066407H.23699951C.21798706 .43066407 .20799256 .43066407 .20799256 .4126587 .20799256 .4016571 .21398926 .4016571 .23399353 .4016571H.2979889C.27999879 .30871583 .23899842 .082839969 .21598816-.024108887 .19898987-.111068729 .18399048-.18411255 .13398743-.18411255 .1309967-.18411255 .101989749-.18411255 .083999637-.16506958 .1349945-.16107178 .1349945-.11706543 .1349945-.11607361 .1349945-.096069339 .11999512-.08407593 .100997928-.08407593 .08099365-.08407593 .050994874-.10107422 .050994874-.1390686 .050994874-.18209839 .09498596-.20410156 .13398743-.20410156 .23599243-.20410156 .27799989-.021102906 .2889862 .028869629 .30699159 .1058197 .35598756 .37167359 .36099244 .4016571H.44599916Z"/>
<path id="font_2_1" d="M.32499696-.24298096C.32499696-.23999024 .32499696-.23799134 .30799867-.22097779 .20799256-.11997986 .1519928 .045013429 .1519928 .24900818 .1519928 .44299317 .19898987 .60998538 .31498719 .7279968 .32499696 .7369995 .32499696 .7389984 .32499696 .74198916 .32499696 .74798586 .31999208 .75 .31599427 .75 .30299378 .75 .22099304 .6779938 .17199707 .5799866 .12098694 .47898866 .09799194 .37199403 .09799194 .24900818 .09799194 .16000366 .11199951 .041015626 .1639862-.06599426 .22299195-.18598938 .30499269-.25097657 .31599427-.25097657 .31999208-.25097657 .32499696-.24897766 .32499696-.24298096Z"/>
<path id="font_4_2" d="M.47399903 .40820313C.44198609 .40219117 .42999269 .3781891 .42999269 .3591919 .42999269 .33518983 .44898988 .3271942 .46299745 .3271942 .49299623 .3271942 .5139923 .3531952 .5139923 .380188 .5139923 .4223938 .46598817 .44140626 .42399598 .44140626 .36299134 .44140626 .32899476 .38119508 .31999208 .36219789 .29699708 .4373932 .23498535 .44140626 .21699524 .44140626 .114990238 .44140626 .06098938 .31021119 .06098938 .28822328 .06098938 .28422547 .06498718 .27923585 .07199097 .27923585 .07998657 .27923585 .08198547 .28523255 .083999637 .2892151 .117996219 .40019227 .18499756 .42140199 .21398926 .42140199 .25898744 .42140199 .2679901 .37919618 .2679901 .3551941 .2679901 .33319093 .2619934 .31021119 .25 .26223756L.21598816 .12535095C.20098877 .06535339 .17199707 .010223389 .11898804 .010223389 .11399841 .010223389 .08898926 .010223389 .067993167 .023330689 .10398865 .03036499 .11199951 .06036377 .11199951 .07235718 .11199951 .09236145 .09700012 .10435486 .07798767 .10435486 .053985597 .10435486 .027999878 .083358768 .027999878 .051361085 .027999878 .009231567 .07499695-.009765625 .117996219-.009765625 .1659851-.009765625 .19999695 .028366089 .22099304 .069366458 .23699951 .010223389 .2869873-.009765625 .32398988-.009765625 .42599488-.009765625 .47999574 .12135315 .47999574 .1433258 .47999574 .14833069 .47599793 .15232849 .46998597 .15232849 .46099855 .15232849 .45999146 .14732361 .45700074 .139328 .42999269 .051361085 .37199403 .010223389 .32699586 .010223389 .2919922 .010223389 .272995 .036361696 .272995 .07736206 .272995 .099365238 .2769928 .115356449 .29299928 .18130493L.32798768 .3171997C.34298707 .37719728 .3769989 .42140199 .4229889 .42140199 .4249878 .42140199 .45298768 .42140199 .47399903 .40820313Z"/>
<path id="font_2_2" d="M.28199769 .24900818C.28199769 .32499696 .27198792 .44898988 .21598816 .5649872 .15699768 .68499758 .07499695 .75 .06399536 .75 .05999756 .75 .054992677 .74798586 .054992677 .74198916 .054992677 .7389984 .054992677 .7369995 .07199097 .71998599 .17199707 .61898806 .22799683 .45399476 .22799683 .25 .22799683 .056015016 .18099976-.11099243 .06498718-.22898865 .054992677-.23799134 .054992677-.23999024 .054992677-.24298096 .054992677-.24897766 .05999756-.25097657 .06399536-.25097657 .07699585-.25097657 .15899658-.1789856 .20799256-.08099365 .25898744 .021011353 .28199769 .12901306 .28199769 .24900818Z"/>
<path id="font_4_3" d="M.2630005-.11172485C.23599243-.14982605 .19699097-.18411255 .147995-.18411255 .13598633-.18411255 .08799744-.18209839 .07299805-.13572693 .07598877-.13671875 .08099365-.13671875 .08299255-.13671875 .11299133-.13671875 .1329956-.11073303 .1329956-.08772278 .1329956-.06472778 .11399841-.056732179 .09899902-.056732179 .08299255-.056732179 .04798889-.068725589 .04798889-.11772156 .04798889-.16899109 .09098816-.20410156 .147995-.20410156 .24798584-.20410156 .34899903-.11172485 .3769989-.00077819827L.47499085 .38868714C.47599793 .39367677 .47799684 .39967347 .47799684 .4056549 .47799684 .4206543 .46598817 .43066407 .45098878 .43066407 .44198609 .43066407 .42099 .426651 .41299439 .39666749L.33898927 .10308838C.33399964 .085113529 .33399964 .08312988 .32598878 .072143558 .30599977 .04423523 .272995 .010223389 .22499085 .010223389 .16899109 .010223389 .1639862 .06524658 .1639862 .09225464 .1639862 .14929199 .19099427 .22631836 .21798706 .2983551 .22898865 .32736207 .23498535 .34136964 .23498535 .3613739 .23498535 .4033966 .20498657 .44140626 .1559906 .44140626 .06399536 .44140626 .026992798 .29634095 .026992798 .28834535 .026992798 .28434754 .0309906 .27934266 .037994386 .27934266 .04699707 .27934266 .04798889 .28334046 .051986696 .29734803 .07598877 .38137818 .11399841 .42140199 .15299988 .42140199 .1619873 .42140199 .1789856 .42140199 .1789856 .38838197 .1789856 .36238099 .16799927 .33335877 .15299988 .29534913 .10398865 .16429138 .10398865 .13127136 .10398865 .10726929 .10398865 .01222229 .17199707-.009765625 .22200012-.009765625 .25099183-.009765625 .2869873-.00077819827 .32199098 .036239625L.32299806 .035232545C.30799867-.023757935 .2979889-.06272888 .2630005-.11172485Z"/>
</defs>
<path transform="matrix(1,0,0,-1.00008,8.390999,3807.228)" stroke-width=".3985" stroke-linecap="butt" stroke-miterlimit="10" stroke-linejoin="miter" fill="none" stroke="#cbcbcb" d="M0 3640.7388V3802.1356M13.87636 3640.7388V3802.1356M27.75273 3640.7388V3802.1356M41.62909 3640.7388V3802.1356M55.50546 3640.7388V3802.1356M69.38182 3640.7388V3802.1356M97.13455 3640.7388V3802.1356M111.01093 3640.7388V3802.1356M124.88728 3640.7388V3802.1356M138.76366 3640.7388V3802.1356M152.64002 3640.7388V3802.1356M166.51639 3640.7388V3802.1356M180.39275 3640.7388V3802.1356M194.26912 3640.7388V3802.1356"/>
<path transform="matrix(1,0,0,-1.00008,8.390999,3807.228)" stroke-width=".3985" stroke-linecap="butt" stroke-miterlimit="10" stroke-linejoin="miter" fill="none" stroke="#cbcbcb" d="M0 3640.7388H194.26912M0 3653.1539H194.26912M0 3665.569H194.26912M0 3677.9842H194.26912M0 3690.3995H194.26912M0 3715.2296H194.26912M0 3727.6448H194.26912M0 3740.0599H194.26912M0 3752.475H194.26912M0 3764.8902H194.26912M0 3777.3052H194.26912M0 3789.7205H194.26912M0 3802.1356H194.26912"/>
<path transform="matrix(1,0,0,-1.00008,8.390999,3807.228)" stroke-width=".79701" stroke-linecap="butt" stroke-miterlimit="10" stroke-linejoin="miter" fill="none" stroke="#929292" d="M0 3700.6895V3704.9395M13.87636 3700.6895V3704.9395M27.75273 3700.6895V3704.9395M41.62909 3700.6895V3704.9395M55.50546 3700.6895V3704.9395M69.38182 3700.6895V3704.9395M97.13455 3700.6895V3704.9395M111.01093 3700.6895V3704.9395M124.88728 3700.6895V3704.9395M138.76366 3700.6895V3704.9395M152.64002 3700.6895V3704.9395M166.51639 3700.6895V3704.9395M180.39275 3700.6895V3704.9395M194.26912 3700.6895V3704.9395"/>
<path transform="matrix(1,0,0,-1.00008,8.390999,3807.228)" stroke-width=".79701" stroke-linecap="butt" stroke-miterlimit="10" stroke-linejoin="miter" fill="none" stroke="#929292" d="M81.13223 3640.7388H85.38412M81.13223 3653.1539H85.38412M81.13223 3665.569H85.38412M81.13223 3677.9842H85.38412M81.13223 3690.3995H85.38412M81.13223 3715.2296H85.38412M81.13223 3727.6448H85.38412M81.13223 3740.0599H85.38412M81.13223 3752.475H85.38412M81.13223 3764.8902H85.38412M81.13223 3777.3052H85.38412M81.13223 3789.7205H85.38412M81.13223 3802.1356H85.38412"/>
<path transform="matrix(1,0,0,-1.00008,8.390999,3807.228)" stroke-width=".3985" stroke-linecap="butt" stroke-miterlimit="10" stroke-linejoin="miter" fill="none" stroke="#000000" d="M0 3702.8145H192.2766"/>
<path transform="matrix(1,0,0,-1.00008,200.6676,104.11743)" d="M1.99252 0-1.19551 1.59401 0 0-1.19551-1.59401"/>
<path transform="matrix(1,0,0,-1.00008,8.390999,3807.228)" stroke-width=".3985" stroke-linecap="butt" stroke-miterlimit="10" stroke-linejoin="miter" fill="none" stroke="#000000" d="M83.2582 3640.7388V3800.143"/>
<path transform="matrix(0,-1.00008,-1,-0,91.6492,6.781006)" d="M1.99252 0-1.19551 1.59401 0 0-1.19551-1.59401"/>
<use data-text="&#x2212;" xlink:href="#font_1_1" transform="matrix(11.9552,0,0,-11.956157,.8149986,118.131839)"/>
<use data-text="6" xlink:href="#font_2_8" transform="matrix(11.9552,0,0,-11.956157,10.112999,118.131839)"/>
<use data-text="&#x2212;" xlink:href="#font_1_1" transform="matrix(11.9552,0,0,-11.956157,14.691999,118.131839)"/>
<use data-text="5" xlink:href="#font_2_7" transform="matrix(11.9552,0,0,-11.956157,23.99,118.131839)"/>
<use data-text="&#x2212;" xlink:href="#font_1_1" transform="matrix(11.9552,0,0,-11.956157,28.567999,118.131839)"/>
<use data-text="4" xlink:href="#font_2_6" transform="matrix(11.9552,0,0,-11.956157,37.865999,118.131839)"/>
<use data-text="&#x2212;" xlink:href="#font_1_1" transform="matrix(11.9552,0,0,-11.956157,42.444,118.131839)"/>
<use data-text="3" xlink:href="#font_2_5" transform="matrix(11.9552,0,0,-11.956157,51.742,118.131839)"/>
<use data-text="&#x2212;" xlink:href="#font_1_1" transform="matrix(11.9552,0,0,-11.956157,56.321,118.131839)"/>
<use data-text="2" xlink:href="#font_2_4" transform="matrix(11.9552,0,0,-11.956157,65.619,118.131839)"/>
<use data-text="&#x2212;" xlink:href="#font_1_1" transform="matrix(11.9552,0,0,-11.956157,70.197,118.131839)"/>
<use data-text="1" xlink:href="#font_2_3" transform="matrix(11.9552,0,0,-11.956157,79.494998,118.131839)"/>
<use data-text="1" xlink:href="#font_2_3" transform="matrix(11.9552,0,0,-11.956157,102.599,118.131839)"/>
<use data-text="2" xlink:href="#font_2_4" transform="matrix(11.9552,0,0,-11.956157,116.475009,118.131839)"/>
<use data-text="3" xlink:href="#font_2_5" transform="matrix(11.9552,0,0,-11.956157,130.352,118.131839)"/>
<use data-text="4" xlink:href="#font_2_6" transform="matrix(11.9552,0,0,-11.956157,144.22801,118.131839)"/>
<use data-text="5" xlink:href="#font_2_7" transform="matrix(11.9552,0,0,-11.956157,158.104,118.131839)"/>
<use data-text="6" xlink:href="#font_2_8" transform="matrix(11.9552,0,0,-11.956157,171.981,118.131839)"/>
<use data-text="7" xlink:href="#font_2_9" transform="matrix(11.9552,0,0,-11.956157,185.85701,118.131839)"/>
<use data-text="8" xlink:href="#font_2_10" transform="matrix(11.9552,0,0,-11.956157,199.73401,118.131839)"/>
<use data-text="&#x2212;" xlink:href="#font_1_1" transform="matrix(11.9552,0,0,-11.956157,70.188,169.552)"/>
<use data-text="5" xlink:href="#font_2_7" transform="matrix(11.9552,0,0,-11.956157,79.486,169.552)"/>
<use data-text="&#x2212;" xlink:href="#font_1_1" transform="matrix(11.9552,0,0,-11.956157,70.188,157.13599)"/>
<use data-text="4" xlink:href="#font_2_6" transform="matrix(11.9552,0,0,-11.956157,79.486,157.13599)"/>
<use data-text="&#x2212;" xlink:href="#font_1_1" transform="matrix(11.9552,0,0,-11.956157,70.188,144.71997)"/>
<use data-text="3" xlink:href="#font_2_5" transform="matrix(11.9552,0,0,-11.956157,79.486,144.71997)"/>
<use data-text="&#x2212;" xlink:href="#font_1_1" transform="matrix(11.9552,0,0,-11.956157,70.188,132.3042)"/>
<use data-text="2" xlink:href="#font_2_4" transform="matrix(11.9552,0,0,-11.956157,79.486,132.3042)"/>
<use data-text="&#x2212;" xlink:href="#font_1_1" transform="matrix(11.9552,0,0,-11.956157,70.188,119.88818)"/>
<use data-text="1" xlink:href="#font_2_3" transform="matrix(11.9552,0,0,-11.956157,79.486,119.88818)"/>
<use data-text="1" xlink:href="#font_2_3" transform="matrix(11.9552,0,0,-11.956157,79.486,95.5542)"/>
<use data-text="2" xlink:href="#font_2_4" transform="matrix(11.9552,0,0,-11.956157,79.486,83.13818)"/>
<use data-text="3" xlink:href="#font_2_5" transform="matrix(11.9552,0,0,-11.956157,79.486,70.72119)"/>
<use data-text="4" xlink:href="#font_2_6" transform="matrix(11.9552,0,0,-11.956157,79.486,58.305177)"/>
<use data-text="5" xlink:href="#font_2_7" transform="matrix(11.9552,0,0,-11.956157,79.486,45.88916)"/>
<use data-text="6" xlink:href="#font_2_8" transform="matrix(11.9552,0,0,-11.956157,79.486,33.47339)"/>
<use data-text="7" xlink:href="#font_2_9" transform="matrix(11.9552,0,0,-11.956157,79.486,21.057374)"/>
<use data-text="8" xlink:href="#font_2_10" transform="matrix(11.9552,0,0,-11.956157,79.486,8.641357)"/>
<g clip-path="url(#clip_3)">
<path transform="matrix(1,0,0,-1.00008,8.390999,3807.228)" stroke-width=".79701" stroke-linecap="butt" stroke-miterlimit="10" stroke-linejoin="miter" fill="none" stroke="#0000ff" d="M0 3709.9088 1.09851 3709.848 2.19705 3709.7857 3.2956 3709.722 4.39412 3709.6568 5.49266 3709.5899 6.5912 3709.5216 7.68973 3709.4515 8.78827 3709.3795 9.88681 3709.306 10.98534 3709.2305 12.08388 3709.1529 13.18242 3709.0733 14.28094 3708.9918 15.37949 3708.908 16.47803 3708.8218 17.57655 3708.7335 18.6751 3708.6424 19.77364 3708.5489 20.87216 3708.4527 21.9707 3708.3536 23.06924 3708.2515 24.16779 3708.1466 25.2663 3708.0384 26.36484 3707.9266"/>
<path transform="matrix(1,0,0,-1.00008,8.390999,3807.228)" stroke-width=".79701" stroke-linecap="butt" stroke-miterlimit="10" stroke-linejoin="miter" fill="none" stroke="#0000ff" d="M29.14037 3707.6285 31.96765 3707.2987 34.79495 3706.939 37.62224 3706.5452 40.44954 3706.112 43.27682 3705.6334 46.10413 3705.1019 48.93143 3704.5076 51.75871 3703.8397 54.58601 3703.0828 57.4133 3702.218 60.2406 3701.2213 63.06789 3700.0584 65.89519 3698.6854 68.72249 3697.039 71.54977 3695.0289 74.37708 3692.519 77.20436 3689.2977 80.03166 3685.0108 82.85895 3679.0257 85.68625 3670.0848 88.51353 3655.2806 91.34084 3626.0245 94.16814 3541.003 96.99544 0"/>
<path transform="matrix(1,0,0,-1.00008,8.390999,3807.228)" stroke-width=".79701" stroke-linecap="butt" stroke-miterlimit="10" stroke-linejoin="miter" fill="none" stroke="#0000ff" d="M98.52219 4087.6837 102.51164 3811.3453 106.5011 3770.4088 110.49055 3753.925 114.48001 3745.026 118.46947 3739.454 122.45892 3735.638 126.44838 3732.8604 130.43784 3730.7486 134.42729 3729.0885 138.41675 3727.749 142.4062 3726.6458 146.39565 3725.7215 150.3851 3724.935 154.37456 3724.2589 158.36402 3723.6705 162.35347 3723.154 166.34293 3722.6973 170.33238 3722.2904 174.32184 3721.9254 178.3113 3721.5963 182.30075 3721.298 186.2902 3721.0274 190.27967 3720.7794 194.26912 3720.5496"/>
<path transform="matrix(1,0,0,-1.00008,8.390999,3807.228)" stroke-width=".3985" stroke-linecap="butt" stroke-miterlimit="10" stroke-linejoin="miter" fill="none" stroke="#0000ff" d="M111.01093 3715.2296"/>
<path transform="matrix(1,0,0,-1.00008,8.390999,3807.228)" d="M30.58739 3707.7806C30.58739 3709.346 29.31828 3710.615 27.75273 3710.615 26.18716 3710.615 24.91806 3709.346 24.91806 3707.7806 24.91806 3706.2149 26.18716 3704.9459 27.75273 3704.9459 29.31828 3704.9459 30.58739 3706.2149 30.58739 3707.7806ZM27.75273 3707.7806" fill="#ffffff"/>
<path transform="matrix(1,0,0,-1.00008,8.390999,3807.228)" stroke-width=".3985" stroke-linecap="butt" stroke-miterlimit="10" stroke-linejoin="miter" fill="none" stroke="#0000ff" d="M30.58739 3707.7806C30.58739 3709.346 29.31828 3710.615 27.75273 3710.615 26.18716 3710.615 24.91806 3709.346 24.91806 3707.7806 24.91806 3706.2149 26.18716 3704.9459 27.75273 3704.9459 29.31828 3704.9459 30.58739 3706.2149 30.58739 3707.7806ZM27.75273 3707.7806"/>
</g>
<path transform="matrix(1,0,0,-1.00008,8.390999,3807.228)" stroke-width=".3985" stroke-linecap="butt" stroke-miterlimit="10" stroke-linejoin="miter" fill="none" stroke="#0000ff" d=""/>
<use data-text="f" xlink:href="#font_4_1" transform="matrix(11.9552,0,0,-11.956157,108,84.528079)" fill="#0000ff"/>
<use data-text="(" xlink:href="#font_2_1" transform="matrix(11.9552,0,0,-11.956157,115.046009,84.528079)" fill="#0000ff"/>
<use data-text="x" xlink:href="#font_4_2" transform="matrix(11.9552,0,0,-11.956157,119.599,84.528079)" fill="#0000ff"/>
<use data-text=")" xlink:href="#font_2_2" transform="matrix(11.9552,0,0,-11.956157,126.25101,84.528079)" fill="#0000ff"/>
<path transform="matrix(1,0,0,-1.00008,8.390999,3807.228)" stroke-width=".3985" stroke-linecap="butt" stroke-miterlimit="10" stroke-linejoin="miter" fill="none" stroke="#0000ff" d=""/>
<use data-text="x" xlink:href="#font_4_2" transform="matrix(11.9552,0,0,-11.956157,191.858,99.29248)"/>
<use data-text="y" xlink:href="#font_4_3" transform="matrix(11.9552,0,0,-11.956157,95.85,13.578613)"/>
</svg>
