<svg xmlns="http://www.w3.org/2000/svg" xmlns:xlink="http://www.w3.org/1999/xlink" version="1.1" width="181" height="116" viewBox="0 0 181 116">
<defs>
<path id="font_1_1" d="M.5629883 .39352418C.5279999 .38352967 .519989 .3545227 .519989 .33952333 .519989 .30752564 .54599 .30052186 .55999758 .30052186 .58898928 .30052186 .6179962 .32452394 .6179962 .3635254 .6179962 .41740418 .5589905 .44140626 .5079956 .44140626 .44198609 .44140626 .4019928 .3905182 .3909912 .371521 .37799073 .39649964 .33999635 .44140626 .2649994 .44140626 .1499939 .44140626 .08198547 .32252503 .08198547 .28749085 .08198547 .2824707 .085998538 .27345277 .099990848 .27345277 .11399841 .27345277 .116989139 .27946473 .11999512 .28848268 .14498902 .3695221 .21299744 .4084015 .2619934 .4084015 .31098939 .4084015 .32598878 .37652589 .32598878 .34352113 .32598878 .3315277 .32598878 .32252503 .31799317 .29148866 .29499818 .19825745 .272995 .10707092 .2679901 .095077518 .25299073 .05708313 .21699524 .023223877 .1749878 .023223877 .16899109 .023223877 .14099121 .023223877 .117996219 .038085939 .15699768 .051071168 .16099549 .08407593 .16099549 .09207153 .16099549 .11807251 .14099121 .13108826 .12098694 .13108826 .09298706 .13108826 .06298828 .10908508 .06298828 .06808472 .06298828 .011230469 .12599182-.009765625 .17298889-.009765625 .22999573-.009765625 .2709961 .029159546 .2899933 .060073854 .30999757 .018234253 .35798646-.009765625 .4149933-.009765625 .5329895-.009765625 .598999 .111083988 .598999 .14411927 .598999 .14611817 .59799197 .15815735 .5799866 .15815735 .56599429 .15815735 .56399539 .1511383 .5609894 .1421051 .5319977 .05508423 .46099855 .023223877 .4189911 .023223877 .3809967 .023223877 .35398866 .045074464 .35398866 .08708191 .35398866 .1060791 .35899354 .12808228 .36799623 .16316223L.3999939 .2935028C.4099884 .33251954 .4149933 .3505249 .43598939 .37452699 .44999696 .38952638 .47399903 .4084015 .5059967 .4084015 .5109863 .4084015 .54100039 .4084015 .5629883 .39352418Z"/>
</defs>
<path transform="matrix(1.00005,0,0,-1,29.576527,57.892)" stroke-width=".79701" stroke-linecap="butt" stroke-miterlimit="10" stroke-linejoin="miter" fill="none" stroke="#000000" d="M-28.3468 0H141.02667"/>
<path transform="matrix(1.00005,0,0,-1,170.61025,57.892)" stroke-width=".6376" stroke-linecap="round" stroke-linejoin="round" fill="none" stroke="#000000" d="M-1.55415 2.0722C-1.42464 1.29512 0 .1295 .38852 0 0-.1295-1.42464-1.29512-1.55415-2.0722"/>
<use data-text="x" xlink:href="#font_1_1" transform="matrix(5.9778988,0,0,-5.9776,175.70082,64.849)"/>
<path transform="matrix(1.00005,0,0,-1,29.576527,57.892)" stroke-width=".3985" stroke-linecap="butt" stroke-miterlimit="10" stroke-linejoin="miter" fill="none" stroke="#000000" d="M0 0 1.14491 5.71599 2.28984 8.08629 3.43477 9.86963 4.5797 11.435 5.72462 12.74774 6.86955 13.95842 8.01448 15.07523 9.15941 16.11592 10.30434 17.09431 11.44926 18.01866 12.5942 18.89757 13.73912 19.7367 14.88405 20.54468 16.02898 21.31891 17.1739 22.06764 18.31883 22.79344 19.46378 23.49373 20.60869 24.1741 21.75362 24.8376 22.89854 25.48123 24.04347 26.11058 25.18842 26.72607 26.33333 27.32426 27.47826 27.91382 28.62318 28.4839 29.76811 29.04793 30.91306 29.60115 32.05797 30.144 33.2029 30.67773 34.34782 31.20285 35.49275 31.71799 36.63768 32.22536 37.78261 32.72581 38.92755 33.21674 40.07246 33.70161 41.21739 34.18 42.36232 34.65147 43.50725 35.11688 44.65219 35.57451 45.7971 36.0278 46.94203 36.47504 48.08696 36.91797 49.23189 37.35483 50.37683 37.78737 51.52174 38.21169 52.66667 38.6343 53.8116 39.0534 54.95653 39.46518 56.10147 39.87523 57.24638 40.28139 58.39133 40.68234 59.53624 41.07898 60.68117 41.47215 61.82611 41.86188 62.97102 42.24771 64.11597 42.62964 65.26088 43.00853 66.4058 43.38397 67.55075 43.75682 68.69566 44.1262 69.8406 44.49214 70.98552 44.85547 72.13045 45.21535 73.27538 45.57304 74.4203 45.92729 75.56525 46.28026 76.71016 46.62889 77.8551 46.97534 79.00002 47.31879 80.14494 47.66092 81.28989 48.00131 82.4348 48.3374 83.57974 48.67218 84.72466 49.00395 85.86958 49.33484 87.01453 49.6614 88.15944 49.98798 89.30438 50.30934 90.4493 50.6307 91.59422 50.95036 92.73917 51.26743 93.88408 51.5836 95.02902 51.89848 96.17393 52.20905 97.31888 52.51918 98.4638 52.82758 99.60872 53.1338 100.75366 53.4392 101.89857 53.7385 103.04352 54.03912 104.18845 54.3406 105.33336 54.63644 106.4783 54.93187 107.62321 55.23076 108.76816 55.52057 109.91307 55.81252 111.058 56.1032 112.20294 56.39084 113.34785 56.67802"/>
<path transform="matrix(1.00005,0,0,-1,29.576527,57.892)" stroke-width=".3985" stroke-linecap="butt" stroke-miterlimit="10" stroke-linejoin="miter" fill="none" stroke="#000000" d="M0 0 1.14491-5.71599 2.28984-8.08629 3.43477-9.86963 4.5797-11.435 5.72462-12.74774 6.86955-13.95842 8.01448-15.07523 9.15941-16.11592 10.30434-17.09431 11.44926-18.01866 12.5942-18.89757 13.73912-19.7367 14.88405-20.54468 16.02898-21.31891 17.1739-22.06764 18.31883-22.79344 19.46378-23.49373 20.60869-24.1741 21.75362-24.8376 22.89854-25.48123 24.04347-26.11058 25.18842-26.72607 26.33333-27.32426 27.47826-27.91382 28.62318-28.4839 29.76811-29.04793 30.91306-29.60115 32.05797-30.144 33.2029-30.67773 34.34782-31.20285 35.49275-31.71799 36.63768-32.22536 37.78261-32.72581 38.92755-33.21674 40.07246-33.70161 41.21739-34.18 42.36232-34.65147 43.50725-35.11688 44.65219-35.57451 45.7971-36.0278 46.94203-36.47504 48.08696-36.91797 49.23189-37.35483 50.37683-37.78737 51.52174-38.21169 52.66667-38.6343 53.8116-39.0534 54.95653-39.46518 56.10147-39.87523 57.24638-40.28139 58.39133-40.68234 59.53624-41.07898 60.68117-41.47215 61.82611-41.86188 62.97102-42.24771 64.11597-42.62964 65.26088-43.00853 66.4058-43.38397 67.55075-43.75682 68.69566-44.1262 69.8406-44.49214 70.98552-44.85547 72.13045-45.21535 73.27538-45.57304 74.4203-45.92729 75.56525-46.28026 76.71016-46.62889 77.8551-46.97534 79.00002-47.31879 80.14494-47.66092 81.28989-48.00131 82.4348-48.3374 83.57974-48.67218 84.72466-49.00395 85.86958-49.33484 87.01453-49.6614 88.15944-49.98798 89.30438-50.30934 90.4493-50.6307 91.59422-50.95036 92.73917-51.26743 93.88408-51.5836 95.02902-51.89848 96.17393-52.20905 97.31888-52.51918 98.4638-52.82758 99.60872-53.1338 100.75366-53.4392 101.89857-53.7385 103.04352-54.03912 104.18845-54.3406 105.33336-54.63644 106.4783-54.93187 107.62321-55.23076 108.76816-55.52057 109.91307-55.81252 111.058-56.1032 112.20294-56.39084 113.34785-56.67802"/>
<path transform="matrix(1.00005,0,0,-1,29.576527,57.892)" stroke-width=".3985" stroke-linecap="butt" stroke-miterlimit="10" stroke-linejoin="miter" fill="none" stroke="#000000" d="M113.38724-56.69362V56.69362"/>
<path transform="matrix(1.00005,0,0,-1,29.576527,57.892)" d="M0 0V0L4.72415 11.5721 9.44833 16.3655 14.17252 20.04337 18.8967 23.14423 23.62088 25.87613 28.34506 28.34549 33.06924 30.61719 37.79341 32.731 42.5176 34.71635 47.24178 36.59442 51.96596 38.38039 56.69014 40.08717 61.41432 41.72389 66.1385 43.29877 70.86267 44.81871 75.58685 46.28847 80.31104 47.71326 85.03522 49.09651 89.7594 50.44171 94.48358 51.75229 99.20776 53.03044 103.93195 54.2783 108.65611 55.49806 113.3803 56.69144 113.38724-56.69362 0 0 4.72415-11.5721 9.44833-16.3655 14.17252-20.04337 18.8967-23.14423 23.62088-25.87613 28.34506-28.34549 33.06924-30.61719 37.79341-32.731 42.5176-34.71635 47.24178-36.59442 51.96596-38.38039 56.69014-40.08717 61.41432-41.72389 66.1385-43.29877 70.86267-44.81871 75.58685-46.28847 80.31104-47.71326 85.03522-49.09651 89.7594-50.44171 94.48358-51.75229 99.20776-53.03044 103.93195-54.2783 108.65611-55.49806 113.3803-56.69144Z" fill="#0000ff" fill-opacity=".2"/>
</svg>
