<svg xmlns="http://www.w3.org/2000/svg" xmlns:xlink="http://www.w3.org/1999/xlink" version="1.1" width="177" height="146" viewBox="0 0 177 146">
<defs>
<path id="font_1_1" d="M.44198609 .69781497C.43499757 .7108154 .43299867 .7158203 .41600038 .7158203 .39898683 .7158203 .39698792 .7108154 .3899994 .69781497L.051986696 .019989014C.04699707 .010986328 .04699707 .008987427 .04699707 .0079956059 .04699707 0 .052993776 0 .068984989 0H.7630005C.7789917 0 .7849884 0 .7849884 .0079956059 .7849884 .008987427 .7849884 .010986328 .7799988 .019989014L.44198609 .69781497M.38398744 .61582949 .6529999 .07598877H.11399841L.38398744 .61582949Z"/>
<path id="font_2_1" d="M.2869873 .68333438C.2869873 .6843262 .2869873 .69433596 .27398683 .69433596 .25099183 .69433596 .17799378 .6863251 .1519928 .6843262 .14399719 .68333438 .1329956 .6823273 .1329956 .6643219 .1329956 .6523285 .14199829 .6523285 .15699768 .6523285 .20498657 .6523285 .20698548 .6453247 .20698548 .6353302L.20399475 .6153412 .05899048 .039260866C.054992677 .025253296 .054992677 .023254395 .054992677 .01725769 .054992677-.0057525637 .07499695-.0107421879 .083999637-.0107421879 .099990848-.0107421879 .115997318 .0012512207 .12098694 .015258789L.13999939 .091278079 .1619873 .18130493C.16799927 .2033081 .17399597 .22531128 .1789856 .24832154 .18099976 .25431825 .18899536 .28733827 .18998719 .29333497 .19299317 .30233766 .22399903 .35835267 .2579956 .38536073 .27999879 .4013672 .31098939 .42037965 .35398866 .42037965 .39698792 .42037965 .4079895 .3863678 .4079895 .35035707 .4079895 .29634095 .36999513 .18730164 .34599305 .12628174 .33799745 .103271488 .33299256 .091278079 .33299256 .0712738 .33299256 .024261475 .36799623-.0107421879 .4149933-.0107421879 .5089874-.0107421879 .54599 .13528443 .54599 .14329529 .54599 .1532898 .5369873 .1532898 .5339966 .1532898 .5239868 .1532898 .5239868 .15029907 .5189972 .13528443 .5039978 .08227539 .47200013 .011245728 .4169922 .011245728 .3999939 .011245728 .3929901 .021255494 .3929901 .044265748 .3929901 .0692749 .4019928 .09327698 .41099549 .11528015 .4269867 .15829468 .47200013 .2773285 .47200013 .3353424 .47200013 .4003601 .43199159 .4423828 .35699464 .4423828 .2939911 .4423828 .24598694 .41137696 .20899964 .36535646L.2869873 .68333438Z"/>
<path id="font_1_3" d="M.68699648 .32714845C.70199587 .32714845 .72099307 .32714845 .72099307 .34713746 .72099307 .36714173 .70199587 .36714173 .6879883 .36714173H.08898926C.07499695 .36714173 .055999757 .36714173 .055999757 .34713746 .055999757 .32714845 .07499695 .32714845 .08999634 .32714845H.68699648M.6879883 .13284302C.70199587 .13284302 .72099307 .13284302 .72099307 .15284729 .72099307 .17285156 .70199587 .17285156 .68699648 .17285156H.08999634C.07499695 .17285156 .055999757 .17285156 .055999757 .15284729 .055999757 .13284302 .07499695 .13284302 .08898926 .13284302H.6879883Z"/>
<path id="font_1_2" d="M.1269989 .07699585 .23298645 .18003845C.3889923 .31811524 .44898988 .3721466 .44898988 .47216798 .44898988 .5860901 .35899354 .6660156 .23699951 .6660156 .12399292 .6660156 .049987794 .57411196 .049987794 .48516847 .049987794 .4291687 .099990848 .4291687 .102996829 .4291687 .11999512 .4291687 .15499878 .44117738 .15499878 .48217774 .15499878 .5081787 .13699341 .5341797 .101989749 .5341797 .09399414 .5341797 .09199524 .5341797 .08898926 .5331726 .11199951 .59806826 .1659851 .63500979 .22399903 .63500979 .31498719 .63500979 .35798646 .5541382 .35798646 .47216798 .35798646 .39215089 .30799867 .31311036 .25299073 .25108338L.06098938 .036987306C.049987794 .025985718 .049987794 .023986817 .049987794 0H.42099L.44898988 .17404175H.42399598C.4189911 .14402771 .4119873 .1000061 .4019928 .084991458 .394989 .07699585 .32899476 .07699585 .30699159 .07699585H.1269989Z"/>
<path id="font_3_75" d="M.8129883 0V.0309906C.7609863 .0309906 .73599246 .0309906 .7350006 .061019899V.25221253C.7350006 .3383026 .7350006 .36932374 .70399478 .405365 .6899872 .42237855 .6569977 .4423828 .598999 .4423828 .5149994 .4423828 .47099305 .38233949 .45399476 .34429933 .43998719 .43138124 .3659973 .4423828 .32099916 .4423828 .24798584 .4423828 .20098877 .39935304 .17298889 .33729554V.4423828L.03199768 .43066407V.3996582C.101989749 .3996582 .10998535 .39266969 .10998535 .34370423V.07595825C.10998535 .0309906 .09899902 .0309906 .03199768 .0309906V0L.14498902 .0029907227 .25698854 0V.0309906C.18998719 .0309906 .1789856 .0309906 .1789856 .07595825V.25978089C.1789856 .36431886 .25 .42037965 .31399537 .42037965 .3769989 .42037965 .3880005 .36631776 .3880005 .30926515V.076034549C.3880005 .0309906 .3769989 .0309906 .30999757 .0309906V0L.4229889 .0029907227 .5349884 0V.0309906C.46798707 .0309906 .45700074 .0309906 .45700074 .076034549V.2602234C.45700074 .36431886 .5279999 .42037965 .59199526 .42037965 .6549988 .42037965 .66600039 .36631776 .66600039 .30926515V.076034549C.66600039 .0309906 .6549988 .0309906 .58799746 .0309906V0L.70098879 .0029907227 .8129883 0Z"/>
<path id="font_4_1" d="M.33299256 .66430667C.33399964 .66830447 .33599855 .67430117 .33599855 .67930606 .33599855 .6953125 .31599427 .6943054 .3039856 .69329836L.19198609 .6843109C.1749878 .68330386 .1619873 .682312 .1619873 .65930178 .1619873 .64331057 .1749878 .64331057 .18998719 .64331057 .21998596 .64331057 .22698975 .64131167 .23999024 .63630679 .23999024 .62431338 .23999024 .62231448 .23599243 .60632327L.09599304 .04724121C.09199524 .031234742 .09199524 .026229859 .09199524 .024230957 .09199524-.00077819827 .11199951-.009765625 .1269989-.009765625 .13699341-.009765625 .15499878-.0057678224 .16799927 .01322937 .17098999 .020233155 .17999268 .053237916 .18499756 .07424927 .18998719 .09326172 .20098877 .13928223 .20698548 .16429138 .21398926 .19030762 .21899414 .20831299 .22399903 .23132324 .22799683 .24632263 .23298645 .264328 .26098634 .3053589 .2939911 .3533783 .34599305 .4084015 .4229889 .4084015 .48599244 .4084015 .48599244 .35638429 .48599244 .33836366 .48599244 .27934266 .44400025 .17329407 .4249878 .12727356 .4189911 .11026001 .4119873 .09425354 .4119873 .07725525 .4119873 .026229859 .45799256-.009765625 .5130005-.009765625 .6139984-.009765625 .6639862 .12226868 .6639862 .14428711 .6639862 .14628601 .6629944 .15829468 .644989 .15829468 .6309967 .15829468 .6299896 .1532898 .6239929 .13427735 .60798647 .08226013 .5669861 .023223877 .5159912 .023223877 .49699403 .023223877 .4889984 .038238527 .4889984 .059249879 .4889984 .07925415 .49598695 .09625244 .5049896 .117263797 .519989 .15628052 .5649872 .2693329 .5649872 .32536317 .5649872 .4044037 .5079956 .44140626 .4269867 .44140626 .34799195 .44140626 .29499818 .39839173 .25498963 .3533783L.33299256 .66430667Z"/>
<path id="font_5_1" d="M.3959961 .6244507C.3959961 .64845278 .37799073 .66744998 .35198976 .66744998 .32398988 .66744998 .29100038 .6404419 .29100038 .6074524 .29100038 .5794525 .31298829 .5644531 .33399964 .5644531 .36698915 .5644531 .3959961 .5944519 .3959961 .6244507M.44299317 .14428711C.44299317 .15829468 .42599488 .15829468 .42199708 .15829468 .40499879 .15829468 .4039917 .15429688 .397995 .13528443 .3809967 .08027649 .33599855 .023254395 .28599549 .023254395 .2630005 .023254395 .2559967 .039260866 .2559967 .061264039 .2559967 .08227539 .26098634 .09327698 .2689972 .11227417 .2769928 .1322937 .2849884 .15229798 .2899933 .16629029 .2939911 .17530823 .33299256 .2683258 .34700013 .30433656 .35499574 .32435609 .36099244 .33735658 .36099244 .35435487 .36099244 .40237428 .31498719 .4423828 .2519989 .4423828 .14698792 .4423828 .09098816 .3143463 .09098816 .28733827 .09098816 .2733307 .10699463 .2733307 .11199951 .2733307 .1289978 .2733307 .12998963 .27833558 .1349945 .29333497 .15699768 .36436463 .20498657 .40837098 .24798584 .40837098 .2669983 .40837098 .27799989 .39736939 .27799989 .37036134 .27799989 .36636354 .27799989 .35336305 .27198792 .3343506 .2649994 .3163452 .21998596 .20930481 .20599365 .17530823 .19898987 .15829468 .19898987 .15629578 .18399048 .122283939 .1789856 .10827637 .17298889 .0942688 .17298889 .07727051 .17298889 .025253296 .22200012-.0107421879 .28199769-.0107421879 .3869934-.0107421879 .44299317 .119277957 .44299317 .14428711Z"/>
<path id="font_6_2" d="M.81799319 .3388672C.83200076 .3388672 .8549957 .3388672 .8549957 .3648529 .8549957 .39085389 .8279877 .39085389 .8129883 .39085389H.12098694C.10598755 .39085389 .07899475 .39085389 .07899475 .3648529 .07899475 .3388672 .101989749 .3388672 .115997318 .3388672H.81799319M.8129883 .10913086C.8279877 .10913086 .8549957 .10913086 .8549957 .13513184 .8549957 .16113281 .83200076 .16113281 .81799319 .16113281H.115997318C.101989749 .16113281 .07899475 .16113281 .07899475 .13513184 .07899475 .10913086 .10598755 .10913086 .12098694 .10913086H.8129883Z"/>
<path id="font_6_1" d="M.16299439 .33073426C.1639862 .38076783 .1659851 .46383668 .20098877 .52589419 .24499512 .60191348 .31098939 .6320343 .37098695 .6320343 .3939972 .6320343 .43998719 .62802127 .46398927 .5998993 .4269867 .5939026 .42099 .5679016 .42099 .55189517 .42099 .52589419 .43899537 .50390627 .46899415 .50390627 .49899293 .50390627 .5179901 .52290347 .5179901 .55389407 .5179901 .6149597 .47200013 .66503909 .36999513 .66503909 .21499634 .66503909 .06298828 .52989199 .06298828 .31672669 .06298828 .07354736 .17599488-.021484375 .30799867-.021484375 .34700013-.021484375 .4149933-.015487671 .47599793 .043533327 .5079956 .075546268 .5469971 .11558533 .5469971 .2036438 .5469971 .2376709 .54299929 .30171205 .48199464 .3587494 .44699098 .3907776 .40299989 .42578126 .31799317 .42578126 .24798584 .42578126 .19699097 .3897705 .16299439 .33073426M.30699159 .014511108C.1659851 .014511108 .1659851 .18663025 .1659851 .22566223 .1659851 .3117218 .22299195 .3937683 .31298829 .3937683 .36499024 .3937683 .394989 .37275697 .4189911 .34074403 .44699098 .30171205 .44699098 .25668336 .44699098 .2036438 .44699098 .13459778 .44499208 .10057068 .41099549 .060546876 .3869934 .030517579 .35499574 .014511108 .30699159 .014511108Z"/>
<path id="font_7_75" d="M.94999697 0V.038986207C.8809967 .038986207 .87098696 .038986207 .87098696 .08204651V.3022766C.87098696 .40438844 .8109894 .44140626 .71299746 .44140626 .6199951 .44140626 .5649872 .38838197 .54299929 .3503418 .519989 .44140626 .41799928 .44140626 .3899994 .44140626 .29899598 .44140626 .24299622 .39138795 .21899414 .34933473H.21798706V.44140626L.06298828 .43058778V.39160157C.1329956 .39160157 .14199829 .38458253 .14199829 .335495V.08206177C.14199829 .038986207 .13198853 .038986207 .06298828 .038986207V0C.069992069 .0009918213 .13798523 .0039978029 .18299866 .0039978029 .22799683 .0039978029 .2939911 .0009918213 .3039856 0V.038986207C.23498535 .038986207 .22499085 .038986207 .22499085 .08206177V.25836183C.22499085 .36836244 .31999208 .4093933 .3809967 .4093933 .44999696 .4093933 .46499635 .36634828 .46499635 .30429078V.08204651C.46499635 .038986207 .45498658 .038986207 .38598634 .038986207V0C.3929901 .0009918213 .46099855 .0039978029 .5059967 .0039978029 .5509949 .0039978029 .61698916 .0009918213 .6269989 0V.038986207C.55799868 .038986207 .5479889 .038986207 .5479889 .08204651V.25823976C.5479889 .36836244 .6429901 .4093933 .70399478 .4093933 .772995 .4093933 .7879944 .36634828 .7879944 .30429078V.08204651C.7879944 .038986207 .7779999 .038986207 .70899966 .038986207V0C.71598818 .0009918213 .7839966 .0039978029 .82899478 .0039978029 .8739929 .0039978029 .9399872 .0009918213 .94999697 0Z"/>
</defs>
<path transform="matrix(1.00002,0,0,-1.00005,99.31448,143.9381)" stroke-width=".3985" stroke-linecap="butt" stroke-miterlimit="10" stroke-linejoin="miter" fill="none" stroke="#000000" d="M-42.5202 0H42.5202V141.73404H-42.5202V0"/>
<path transform="matrix(1.00002,0,0,-1.00005,99.31448,143.9381)" stroke-width=".3985" stroke-linecap="butt" stroke-dasharray="2.98883,2.98883" stroke-miterlimit="10" stroke-linejoin="miter" fill="none" stroke="#000000" d="M-42.5202 85.04042H42.5202V113.38724H-42.5202V85.04042"/>
<g>
<path transform="matrix(1.00002,0,0,-1.00005,99.31448,143.9381)" d="M-42.5202 85.04042V113.38724H42.5202V85.04042ZM42.5202 113.38724" fill="#0000ff" fill-opacity=".2"/>
<path transform="matrix(1.00002,0,0,-1.00005,99.31448,143.9381)" stroke-width=".3985" stroke-linecap="butt" stroke-miterlimit="10" stroke-linejoin="miter" fill="none" stroke="#0000ff" stroke-opacity=".2" d="M-42.5202 85.04042V113.38724H42.5202V85.04042ZM42.5202 113.38724"/>
</g>
<path transform="matrix(1.00002,0,0,-1.00005,99.31448,143.9381)" stroke-width=".3985" stroke-linecap="butt" stroke-miterlimit="10" stroke-linejoin="miter" fill="none" stroke="#000000" d="M-46.50531 85.04042C-49.49417 86.10338-51.4867 88.58376-51.4867 92.1271V92.12712C-51.4867 95.67049-53.47922 98.15086-56.46808 99.21382-53.47922 100.27678-51.4867 102.75717-51.4867 106.30052-51.4867 109.84387-49.49417 112.32428-46.50531 113.38724"/>
<use data-text="&#x2206;" xlink:href="#font_1_1" transform="matrix(9.962799,0,0,-9.963098,.81450656,48.178316)"/>
<use data-text="h" xlink:href="#font_2_1" transform="matrix(9.962799,0,0,-9.963098,9.116676,48.178316)"/>
<use data-text="=" xlink:href="#font_1_3" transform="matrix(9.962799,0,0,-9.963098,17.623848,48.178316)"/>
<use data-text="2" xlink:href="#font_1_2" transform="matrix(9.962799,0,0,-9.963098,28.134606,48.178316)"/>
<use data-text="m" xlink:href="#font_3_75" transform="matrix(9.962799,0,0,-9.963098,36.43923,48.178316)"/>
<path transform="matrix(1.00002,0,0,-1.00005,99.31448,143.9381)" stroke-width=".3985" stroke-linecap="butt" stroke-miterlimit="10" stroke-linejoin="miter" fill="none" stroke="#000000" d="M42.5202 85.04042V85.04042"/>
<use data-text="h" xlink:href="#font_4_1" transform="matrix(5.97772,0,0,-5.9778988,146.01941,60.33892)"/>
<use data-text="i" xlink:href="#font_5_1" transform="matrix(4.9813997,0,0,-4.981549,150.35752,61.599985)"/>
<use data-text="=" xlink:href="#font_6_2" transform="matrix(5.97772,0,0,-5.9778988,155.63462,60.33892)"/>
<use data-text="6" xlink:href="#font_6_1" transform="matrix(5.97772,0,0,-5.9778988,163.33988,60.33892)"/>
<use data-text="m" xlink:href="#font_7_75" transform="matrix(5.97772,0,0,-5.9778988,169.49289,60.33892)"/>
</svg>
