<svg xmlns="http://www.w3.org/2000/svg" xmlns:xlink="http://www.w3.org/1999/xlink" version="1.1" width="143" height="146" viewBox="0 0 143 146">
<defs>
<path id="font_1_1" d="M.44198609 .69781497C.43499757 .7108154 .43299867 .7158203 .41600038 .7158203 .39898683 .7158203 .39698792 .7108154 .3899994 .69781497L.051986696 .019989014C.04699707 .010986328 .04699707 .008987427 .04699707 .0079956059 .04699707 0 .052993776 0 .068984989 0H.7630005C.7789917 0 .7849884 0 .7849884 .0079956059 .7849884 .008987427 .7849884 .010986328 .7799988 .019989014L.44198609 .69781497M.38398744 .61582949 .6529999 .07598877H.11399841L.38398744 .61582949Z"/>
<path id="font_2_1" d="M.2869873 .68333438C.2869873 .6843262 .2869873 .69433596 .27398683 .69433596 .25099183 .69433596 .17799378 .6863251 .1519928 .6843262 .14399719 .68333438 .1329956 .6823273 .1329956 .6643219 .1329956 .6523285 .14199829 .6523285 .15699768 .6523285 .20498657 .6523285 .20698548 .6453247 .20698548 .6353302L.20399475 .6153412 .05899048 .039260866C.054992677 .025253296 .054992677 .023254395 .054992677 .01725769 .054992677-.0057525637 .07499695-.0107421879 .083999637-.0107421879 .099990848-.0107421879 .115997318 .0012512207 .12098694 .015258789L.13999939 .091278079 .1619873 .18130493C.16799927 .2033081 .17399597 .22531128 .1789856 .24832154 .18099976 .25431825 .18899536 .28733827 .18998719 .29333497 .19299317 .30233766 .22399903 .35835267 .2579956 .38536073 .27999879 .4013672 .31098939 .42037965 .35398866 .42037965 .39698792 .42037965 .4079895 .3863678 .4079895 .35035707 .4079895 .29634095 .36999513 .18730164 .34599305 .12628174 .33799745 .103271488 .33299256 .091278079 .33299256 .0712738 .33299256 .024261475 .36799623-.0107421879 .4149933-.0107421879 .5089874-.0107421879 .54599 .13528443 .54599 .14329529 .54599 .1532898 .5369873 .1532898 .5339966 .1532898 .5239868 .1532898 .5239868 .15029907 .5189972 .13528443 .5039978 .08227539 .47200013 .011245728 .4169922 .011245728 .3999939 .011245728 .3929901 .021255494 .3929901 .044265748 .3929901 .0692749 .4019928 .09327698 .41099549 .11528015 .4269867 .15829468 .47200013 .2773285 .47200013 .3353424 .47200013 .4003601 .43199159 .4423828 .35699464 .4423828 .2939911 .4423828 .24598694 .41137696 .20899964 .36535646L.2869873 .68333438Z"/>
<path id="font_1_3" d="M.68699648 .32714845C.70199587 .32714845 .72099307 .32714845 .72099307 .34713746 .72099307 .36714173 .70199587 .36714173 .6879883 .36714173H.08898926C.07499695 .36714173 .055999757 .36714173 .055999757 .34713746 .055999757 .32714845 .07499695 .32714845 .08999634 .32714845H.68699648M.6879883 .13284302C.70199587 .13284302 .72099307 .13284302 .72099307 .15284729 .72099307 .17285156 .70199587 .17285156 .68699648 .17285156H.08999634C.07499695 .17285156 .055999757 .17285156 .055999757 .15284729 .055999757 .13284302 .07499695 .13284302 .08898926 .13284302H.6879883Z"/>
<path id="font_1_2" d="M.1269989 .07699585 .23298645 .18003845C.3889923 .31811524 .44898988 .3721466 .44898988 .47216798 .44898988 .5860901 .35899354 .6660156 .23699951 .6660156 .12399292 .6660156 .049987794 .57411196 .049987794 .48516847 .049987794 .4291687 .099990848 .4291687 .102996829 .4291687 .11999512 .4291687 .15499878 .44117738 .15499878 .48217774 .15499878 .5081787 .13699341 .5341797 .101989749 .5341797 .09399414 .5341797 .09199524 .5341797 .08898926 .5331726 .11199951 .59806826 .1659851 .63500979 .22399903 .63500979 .31498719 .63500979 .35798646 .5541382 .35798646 .47216798 .35798646 .39215089 .30799867 .31311036 .25299073 .25108338L.06098938 .036987306C.049987794 .025985718 .049987794 .023986817 .049987794 0H.42099L.44898988 .17404175H.42399598C.4189911 .14402771 .4119873 .1000061 .4019928 .084991458 .394989 .07699585 .32899476 .07699585 .30699159 .07699585H.1269989Z"/>
<path id="font_3_75" d="M.8129883 0V.0309906C.7609863 .0309906 .73599246 .0309906 .7350006 .061019899V.25221253C.7350006 .3383026 .7350006 .36932374 .70399478 .405365 .6899872 .42237855 .6569977 .4423828 .598999 .4423828 .5149994 .4423828 .47099305 .38233949 .45399476 .34429933 .43998719 .43138124 .3659973 .4423828 .32099916 .4423828 .24798584 .4423828 .20098877 .39935304 .17298889 .33729554V.4423828L.03199768 .43066407V.3996582C.101989749 .3996582 .10998535 .39266969 .10998535 .34370423V.07595825C.10998535 .0309906 .09899902 .0309906 .03199768 .0309906V0L.14498902 .0029907227 .25698854 0V.0309906C.18998719 .0309906 .1789856 .0309906 .1789856 .07595825V.25978089C.1789856 .36431886 .25 .42037965 .31399537 .42037965 .3769989 .42037965 .3880005 .36631776 .3880005 .30926515V.076034549C.3880005 .0309906 .3769989 .0309906 .30999757 .0309906V0L.4229889 .0029907227 .5349884 0V.0309906C.46798707 .0309906 .45700074 .0309906 .45700074 .076034549V.2602234C.45700074 .36431886 .5279999 .42037965 .59199526 .42037965 .6549988 .42037965 .66600039 .36631776 .66600039 .30926515V.076034549C.66600039 .0309906 .6549988 .0309906 .58799746 .0309906V0L.70098879 .0029907227 .8129883 0Z"/>
</defs>
<path transform="matrix(1.00003,0,0,-1.00005,99.31473,143.9381)" stroke-width=".3985" stroke-linecap="butt" stroke-miterlimit="10" stroke-linejoin="miter" fill="none" stroke="#000000" d="M-42.5202 0H42.5202V141.73404H-42.5202V0"/>
<path transform="matrix(1.00003,0,0,-1.00005,99.31473,143.9381)" stroke-width=".3985" stroke-linecap="butt" stroke-dasharray="2.98883,2.98883" stroke-miterlimit="10" stroke-linejoin="miter" fill="none" stroke="#000000" d="M-42.5202 0H42.5202V28.3468H-42.5202V0"/>
<g>
<path transform="matrix(1.00003,0,0,-1.00005,99.31473,143.9381)" d="M-42.5202 0V28.3468H42.5202V0ZM42.5202 28.3468" fill="#0000ff" fill-opacity=".2"/>
<path transform="matrix(1.00003,0,0,-1.00005,99.31473,143.9381)" stroke-width=".3985" stroke-linecap="butt" stroke-miterlimit="10" stroke-linejoin="miter" fill="none" stroke="#0000ff" stroke-opacity=".2" d="M-42.5202 0V28.3468H42.5202V0ZM42.5202 28.3468"/>
</g>
<path transform="matrix(1.00003,0,0,-1.00005,99.31473,143.9381)" stroke-width=".3985" stroke-linecap="butt" stroke-miterlimit="10" stroke-linejoin="miter" fill="none" stroke="#000000" d="M-46.50531 0C-49.49417 1.06294-51.4867 3.54333-51.4867 7.08669V7.0867C-51.4867 10.63005-53.47922 13.11044-56.46808 14.17339-53.47922 15.23634-51.4867 17.71674-51.4867 21.2601-51.4867 24.80345-49.49417 27.28384-46.50531 28.3468"/>
<use data-text="&#x2206;" xlink:href="#font_1_1" transform="matrix(9.962899,0,0,-9.963098,.8137665,133.22356)"/>
<use data-text="h" xlink:href="#font_2_1" transform="matrix(9.962899,0,0,-9.963098,9.11602,133.22356)"/>
<use data-text="=" xlink:href="#font_1_3" transform="matrix(9.962899,0,0,-9.963098,17.623284,133.22356)"/>
<use data-text="2" xlink:href="#font_1_2" transform="matrix(9.962899,0,0,-9.963098,28.134148,133.22356)"/>
<use data-text="m" xlink:href="#font_3_75" transform="matrix(9.962899,0,0,-9.963098,36.43885,133.22356)"/>
<path transform="matrix(1.00003,0,0,-1.00005,99.31473,143.9381)" stroke-width=".3985" stroke-linecap="butt" stroke-dasharray="2.98883,2.98883" stroke-miterlimit="10" stroke-linejoin="miter" fill="none" stroke="#000000" d="M-42.5202 28.3468H42.5202V56.69362H-42.5202V28.3468"/>
<g>
<path transform="matrix(1.00003,0,0,-1.00005,99.31473,143.9381)" d="M-42.5202 28.3468V56.69362H42.5202V28.3468ZM42.5202 56.69362" fill="#0000ff" fill-opacity=".2"/>
<path transform="matrix(1.00003,0,0,-1.00005,99.31473,143.9381)" stroke-width=".3985" stroke-linecap="butt" stroke-miterlimit="10" stroke-linejoin="miter" fill="none" stroke="#0000ff" stroke-opacity=".2" d="M-42.5202 28.3468V56.69362H42.5202V28.3468ZM42.5202 56.69362"/>
</g>
<path transform="matrix(1.00003,0,0,-1.00005,99.31473,143.9381)" stroke-width=".3985" stroke-linecap="butt" stroke-miterlimit="10" stroke-linejoin="miter" fill="none" stroke="#000000" d="M-46.50531 28.3468C-49.49417 29.40976-51.4867 31.89014-51.4867 35.43349V35.4335C-51.4867 38.97687-53.47922 41.45724-56.46808 42.5202-53.47922 43.58315-51.4867 46.06355-51.4867 49.6069-51.4867 53.15025-49.49417 55.63066-46.50531 56.69362"/>
<use data-text="&#x2206;" xlink:href="#font_1_1" transform="matrix(9.962899,0,0,-9.963098,.8137665,104.875148)"/>
<use data-text="h" xlink:href="#font_2_1" transform="matrix(9.962899,0,0,-9.963098,9.11602,104.875148)"/>
<use data-text="=" xlink:href="#font_1_3" transform="matrix(9.962899,0,0,-9.963098,17.623284,104.875148)"/>
<use data-text="2" xlink:href="#font_1_2" transform="matrix(9.962899,0,0,-9.963098,28.134148,104.875148)"/>
<use data-text="m" xlink:href="#font_3_75" transform="matrix(9.962899,0,0,-9.963098,36.43885,104.875148)"/>
<path transform="matrix(1.00003,0,0,-1.00005,99.31473,143.9381)" stroke-width=".3985" stroke-linecap="butt" stroke-dasharray="2.98883,2.98883" stroke-miterlimit="10" stroke-linejoin="miter" fill="none" stroke="#000000" d="M-42.5202 56.69362H42.5202V85.04042H-42.5202V56.69362"/>
<g>
<path transform="matrix(1.00003,0,0,-1.00005,99.31473,143.9381)" d="M-42.5202 56.69362V85.04042H42.5202V56.69362ZM42.5202 85.04042" fill="#0000ff" fill-opacity=".2"/>
<path transform="matrix(1.00003,0,0,-1.00005,99.31473,143.9381)" stroke-width=".3985" stroke-linecap="butt" stroke-miterlimit="10" stroke-linejoin="miter" fill="none" stroke="#0000ff" stroke-opacity=".2" d="M-42.5202 56.69362V85.04042H42.5202V56.69362ZM42.5202 85.04042"/>
</g>
<path transform="matrix(1.00003,0,0,-1.00005,99.31473,143.9381)" stroke-width=".3985" stroke-linecap="butt" stroke-miterlimit="10" stroke-linejoin="miter" fill="none" stroke="#000000" d="M-46.50531 56.69362C-49.49417 57.75656-51.4867 60.23695-51.4867 63.7803V63.78032C-51.4867 67.32367-53.47922 69.80406-56.46808 70.867-53.47922 71.92996-51.4867 74.41037-51.4867 77.95372-51.4867 81.49707-49.49417 83.97746-46.50531 85.04042"/>
<use data-text="&#x2206;" xlink:href="#font_1_1" transform="matrix(9.962899,0,0,-9.963098,.8137665,76.52673)"/>
<use data-text="h" xlink:href="#font_2_1" transform="matrix(9.962899,0,0,-9.963098,9.11602,76.52673)"/>
<use data-text="=" xlink:href="#font_1_3" transform="matrix(9.962899,0,0,-9.963098,17.623284,76.52673)"/>
<use data-text="2" xlink:href="#font_1_2" transform="matrix(9.962899,0,0,-9.963098,28.134148,76.52673)"/>
<use data-text="m" xlink:href="#font_3_75" transform="matrix(9.962899,0,0,-9.963098,36.43885,76.52673)"/>
<path transform="matrix(1.00003,0,0,-1.00005,99.31473,143.9381)" stroke-width=".3985" stroke-linecap="butt" stroke-dasharray="2.98883,2.98883" stroke-miterlimit="10" stroke-linejoin="miter" fill="none" stroke="#000000" d="M-42.5202 85.04042H42.5202V113.38724H-42.5202V85.04042"/>
<g>
<path transform="matrix(1.00003,0,0,-1.00005,99.31473,143.9381)" d="M-42.5202 85.04042V113.38724H42.5202V85.04042ZM42.5202 113.38724" fill="#0000ff" fill-opacity=".2"/>
<path transform="matrix(1.00003,0,0,-1.00005,99.31473,143.9381)" stroke-width=".3985" stroke-linecap="butt" stroke-miterlimit="10" stroke-linejoin="miter" fill="none" stroke="#0000ff" stroke-opacity=".2" d="M-42.5202 85.04042V113.38724H42.5202V85.04042ZM42.5202 113.38724"/>
</g>
<path transform="matrix(1.00003,0,0,-1.00005,99.31473,143.9381)" stroke-width=".3985" stroke-linecap="butt" stroke-miterlimit="10" stroke-linejoin="miter" fill="none" stroke="#000000" d="M-46.50531 85.04042C-49.49417 86.10338-51.4867 88.58376-51.4867 92.1271V92.12712C-51.4867 95.67049-53.47922 98.15086-56.46808 99.21382-53.47922 100.27678-51.4867 102.75717-51.4867 106.30052-51.4867 109.84387-49.49417 112.32428-46.50531 113.38724"/>
<use data-text="&#x2206;" xlink:href="#font_1_1" transform="matrix(9.962899,0,0,-9.963098,.8137665,48.178316)"/>
<use data-text="h" xlink:href="#font_2_1" transform="matrix(9.962899,0,0,-9.963098,9.11602,48.178316)"/>
<use data-text="=" xlink:href="#font_1_3" transform="matrix(9.962899,0,0,-9.963098,17.623284,48.178316)"/>
<use data-text="2" xlink:href="#font_1_2" transform="matrix(9.962899,0,0,-9.963098,28.134148,48.178316)"/>
<use data-text="m" xlink:href="#font_3_75" transform="matrix(9.962899,0,0,-9.963098,36.43885,48.178316)"/>
<path transform="matrix(1.00003,0,0,-1.00005,99.31473,143.9381)" stroke-width=".3985" stroke-linecap="butt" stroke-dasharray="2.98883,2.98883" stroke-miterlimit="10" stroke-linejoin="miter" fill="none" stroke="#000000" d="M-42.5202 113.38724H42.5202V141.73404H-42.5202V113.38724"/>
<g>
<path transform="matrix(1.00003,0,0,-1.00005,99.31473,143.9381)" d="M-42.5202 113.38724V141.73404H42.5202V113.38724ZM42.5202 141.73404" fill="#0000ff" fill-opacity=".2"/>
<path transform="matrix(1.00003,0,0,-1.00005,99.31473,143.9381)" stroke-width=".3985" stroke-linecap="butt" stroke-miterlimit="10" stroke-linejoin="miter" fill="none" stroke="#0000ff" stroke-opacity=".2" d="M-42.5202 113.38724V141.73404H42.5202V113.38724ZM42.5202 141.73404"/>
</g>
<path transform="matrix(1.00003,0,0,-1.00005,99.31473,143.9381)" stroke-width=".3985" stroke-linecap="butt" stroke-miterlimit="10" stroke-linejoin="miter" fill="none" stroke="#000000" d="M-46.50531 113.38724C-49.49417 114.45018-51.4867 116.93057-51.4867 120.47392V120.47394C-51.4867 124.01729-53.47922 126.49768-56.46808 127.56062-53.47922 128.62358-51.4867 131.10399-51.4867 134.64734-51.4867 138.19069-49.49417 140.67108-46.50531 141.73404"/>
<use data-text="&#x2206;" xlink:href="#font_1_1" transform="matrix(9.962899,0,0,-9.963098,.8137665,19.830903)"/>
<use data-text="h" xlink:href="#font_2_1" transform="matrix(9.962899,0,0,-9.963098,9.11602,19.830903)"/>
<use data-text="=" xlink:href="#font_1_3" transform="matrix(9.962899,0,0,-9.963098,17.623284,19.830903)"/>
<use data-text="2" xlink:href="#font_1_2" transform="matrix(9.962899,0,0,-9.963098,28.134148,19.830903)"/>
<use data-text="m" xlink:href="#font_3_75" transform="matrix(9.962899,0,0,-9.963098,36.43885,19.830903)"/>
</svg>
