<svg xmlns="http://www.w3.org/2000/svg" xmlns:xlink="http://www.w3.org/1999/xlink" version="1.1" width="204" height="172" viewBox="0 0 204 172">
<defs>
<path id="font_1_1" d="M.6589966 .23046875C.6759949 .23046875 .69400027 .23046875 .69400027 .25045777 .69400027 .27046205 .6759949 .27046205 .6589966 .27046205H.117996219C.100997928 .27046205 .08299255 .27046205 .08299255 .25045777 .08299255 .23046875 .100997928 .23046875 .117996219 .23046875H.6589966Z"/>
<path id="font_2_4" d="M.43998719 .16790772H.41799928C.4149933 .15092469 .40699769 .09597778 .39698792 .07998657 .3899994 .070999149 .33299256 .070999149 .30299378 .070999149H.117996219C.14498902 .09397888 .20599365 .15792847 .23199463 .18190003 .38398744 .3217926 .43998719 .37374879 .43998719 .47270204 .43998719 .5878906 .34899903 .66503909 .23298645 .66503909 .116989139 .66503909 .04899597 .5658264 .04899597 .4797058 .04899597 .42871095 .09298706 .42871095 .09599304 .42871095 .116989139 .42871095 .14299011 .44371034 .14299011 .475708 .14299011 .5037079 .12399292 .5227051 .09599304 .5227051 .08699036 .5227051 .084991458 .5227051 .08198547 .521698 .100997928 .5899048 .15499878 .6360321 .21998596 .6360321 .30499269 .6360321 .35699464 .56481936 .35699464 .47270204 .35699464 .3877411 .30799867 .313797 .25099183 .24984741L.04899597 .023986817V0H.4139862L.43998719 .16790772Z"/>
<path id="font_2_3" d="M.28799439 .64105227C.28799439 .664032 .28799439 .66503909 .2679901 .66503909 .24398804 .6380615 .19400025 .6012573 .09098816 .6012573V.5722656C.11399841 .5722656 .1639862 .5722656 .21899414 .59825137V.07701111C.21899414 .041000368 .21598816 .0289917 .12799073 .0289917H.09700012V0C.12399292 .0019989014 .22099304 .0019989014 .2539978 .0019989014 .2869873 .0019989014 .3829956 .0019989014 .4099884 0V.0289917H.3789978C.29100038 .0289917 .28799439 .041000368 .28799439 .07701111V.64105227Z"/>
<path id="font_2_5" d="M.18399048 .35888673C.16699219 .35787965 .16299439 .35688783 .16299439 .34788514 .16299439 .33789063 .16799927 .33789063 .18598938 .33789063H.23199463C.31698609 .33789063 .35499574 .267807 .35499574 .17172241 .35499574 .04058838 .2869873 .005508423 .23799134 .005508423 .18998719 .005508423 .10798645 .028564454 .07899475 .09472656 .11099243 .08970642 .13999939 .10771179 .13999939 .14372254 .13999939 .17271424 .11898804 .1927185 .09098816 .1927185 .066986087 .1927185 .040985109 .1787262 .040985109 .14071656 .040985109 .051620485 .12998963-.021484375 .24099732-.021484375 .3600006-.021484375 .44799806 .06965637 .44799806 .17071533 .44799806 .26280213 .37399293 .33488465 .27799989 .35188294 .36499024 .3769226 .42099 .45011903 .42099 .5282135 .42099 .6071167 .33898927 .66503909 .24198914 .66503909 .14199829 .66503909 .067993167 .604126 .067993167 .5312042 .067993167 .49121095 .09899902 .48321534 .11399841 .48321534 .1349945 .48321534 .15899658 .49821473 .15899658 .5282135 .15899658 .5602112 .1349945 .57421877 .11299133 .57421877 .10699463 .57421877 .10499573 .57421877 .101989749 .57321169 .13999939 .641037 .23399353 .641037 .23899842 .641037 .27198792 .641037 .33699037 .6260681 .33699037 .5282135 .33699037 .5092163 .33399964 .453125 .30499269 .41001893 .2749939 .3658905 .24099732 .36288453 .21398926 .36187745L.18399048 .35888673Z"/>
<path id="font_2_6" d="M.36099244 .6508026C.36099244 .6697998 .36099244 .6748047 .34700013 .6748047 .33898927 .6748047 .33599855 .6748047 .32798768 .662796L.026992798 .19598389V.16699219H.2899933V.07598877C.2899933 .038986207 .28799439 .0289917 .21499634 .0289917H.19499207V0C.21798706 .0019989014 .29699708 .0019989014 .32499696 .0019989014 .35299684 .0019989014 .43299867 .0019989014 .45599366 0V.0289917H.43598939C.3639984 .0289917 .36099244 .038986207 .36099244 .07598877V.16699219H.46199037V.19598389H.36099244V.6508026M.29499818 .5728302V.19598389H.051986696L.29499818 .5728302Z"/>
<path id="font_2_7" d="M.12799073 .5727997C.17098999 .5588074 .20599365 .5578003 .21699524 .5578003 .32998658 .5578003 .4019928 .6409912 .4019928 .6550598 .4019928 .6590576 .3999939 .6640625 .3939972 .6640625 .3919983 .6640625 .3899994 .6640625 .3809967 .66004946 .32499696 .6358795 .2769928 .6328125 .25099183 .6328125 .18499756 .6328125 .13798523 .6530609 .11898804 .6610565 .11199951 .6640625 .10998535 .6640625 .10899353 .6640625 .100997928 .6640625 .100997928 .65805056 .100997928 .64201357V.34495545C.100997928 .32695008 .100997928 .32095338 .11299133 .32095338 .117996219 .32095338 .11898804 .32196046 .1289978 .33395387 .15699768 .37493897 .20399475 .39894105 .2539978 .39894105 .30699159 .39894105 .33299256 .34994508 .34098817 .33294679 .35798646 .29396058 .35899354 .2449646 .35899354 .20697022 .35899354 .16897583 .35899354 .11193848 .33099366 .0667572 .30899049 .03060913 .269989 .005508423 .22599793 .005508423 .1599884 .005508423 .09498596 .050689699 .07699585 .12397766 .08198547 .12197876 .08799744 .12097168 .09298706 .12097168 .10998535 .12097168 .13699341 .13098145 .13699341 .16497803 .13699341 .1929779 .117996219 .20898438 .09298706 .20898438 .07499695 .20898438 .04899597 .19998169 .04899597 .16098023 .04899597 .075790408 .116989139-.021484375 .22799683-.021484375 .34098817-.021484375 .43998719 .073791507 .43998719 .20097351 .43998719 .3199463 .3600006 .4189453 .25498963 .4189453 .19799805 .4189453 .1539917 .39393617 .12799073 .36595155V.5727997Z"/>
<path id="font_2_8" d="M.12298584 .34773255C.12298584 .60061648 .24598694 .641037 .2999878 .641037 .33599855 .641037 .37199403 .62991335 .3909912 .5996094 .3789978 .5996094 .34098817 .5996094 .34098817 .558609 .34098817 .53660586 .35598756 .51760867 .38198854 .51760867 .40699769 .51760867 .42399598 .53260806 .42399598 .56159976 .42399598 .6137543 .38598634 .66503909 .29899598 .66503909 .17298889 .66503909 .040985109 .53559878 .040985109 .31570436 .040985109 .040527345 .16099549-.021484375 .24598694-.021484375 .35499574-.021484375 .44799806 .07354736 .44799806 .2036438 .44799806 .33673097 .35499574 .42578126 .25498963 .42578126 .1659851 .42578126 .1329956 .34873963 .12298584 .32070924V.34773255M.24598694 .005508423C.18299866 .005508423 .15299988 .061538698 .14399719 .08256531 .1349945 .10858154 .125 .15760803 .125 .22766114 .125 .30670167 .16099549 .40577699 .25099183 .40577699 .30599977 .40577699 .33499146 .3687439 .34999085 .33473207 .3659973 .29769898 .3659973 .2476654 .3659973 .20463562 .3659973 .15361023 .3659973 .10858154 .34700013 .07055664 .32199098 .022521973 .28599549 .005508423 .24598694 .005508423Z"/>
<path id="font_2_9" d="M.47499085 .62054446V.6435547H.23399353C.11299133 .6435547 .11099243 .6567688 .10699463 .67578127H.084991458L.053985597 .47554017H.07598877C.07899475 .49354554 .08799744 .555542 .100997928 .5665436 .10899353 .5725403 .18399048 .5725403 .19799805 .5725403H.4099884L.3039856 .42053224C.2769928 .38153077 .17599488 .21751404 .17599488 .029510498 .17599488 .018508912 .17599488-.021484375 .21699524-.021484375 .25898744-.021484375 .25898744 .017501831 .25898744 .030517579V.08052063C.25898744 .2295227 .2829895 .34553529 .32998658 .41253663L.47499085 .62054446Z"/>
<path id="font_2_10" d="M.2979889 .36079408C.34799195 .38781739 .42099 .43385316 .42099 .5179291 .42099 .6049957 .33699037 .66503909 .24499512 .66503909 .1459961 .66503909 .067993167 .59199526 .067993167 .5009155 .067993167 .46688844 .07798767 .43286134 .10598755 .39883424 .116989139 .38581849 .117996219 .38482667 .18798828 .3357849 .09098816 .29074098 .040985109 .22369385 .040985109 .15063477 .040985109 .044540407 .14199829-.021484375 .24398804-.021484375 .35499574-.021484375 .44799806 .060546876 .44799806 .16563416 .44799806 .2677307 .37599183 .3127594 .2979889 .36079408M.1619873 .4508667C.14898682 .45988465 .10899353 .48590089 .10899353 .5349426 .10899353 .59999087 .1769867 .641037 .24398804 .641037 .31599427 .641037 .37998963 .58898928 .37998963 .516922 .37998963 .45587159 .33599855 .4068451 .27799989 .3748169L.1619873 .4508667M.20899964 .32176209 .32998658 .2427063C.35598756 .22569275 .4019928 .19465637 .4019928 .13360596 .4019928 .057556154 .32499696 .005508423 .24499512 .005508423 .1599884 .005508423 .08699036 .06756592 .08699036 .15063477 .08699036 .22869873 .14399719 .29174806 .20899964 .32176209Z"/>
<clipPath id="clip_3">
<path transform="matrix(1,0,0,-1.00003,8.390999,166.23009)" d="M0 0H194.25847V161.39028H0Z"/>
</clipPath>
<path id="font_4_1" d="M.44599916 .4016571C.46598817 .4016571 .47399903 .4016571 .47399903 .4206543 .47399903 .43066407 .46598817 .43066407 .44799806 .43066407H.36698915C.38598634 .5338745 .3999939 .60498049 .4079895 .63697817 .4139862 .6609802 .43499757 .6840973 .46099855 .6840973 .48199464 .6840973 .5029907 .67503359 .5130005 .6659851 .47399903 .66197207 .46199037 .63298037 .46199037 .61598208 .46199037 .5959778 .47698976 .5839844 .49598695 .5839844 .5159912 .5839844 .54599 .60098269 .54599 .63897708 .54599 .68107607 .5039978 .70410159 .45999146 .70410159 .4169922 .70410159 .375 .6720276 .35499574 .63298037 .33699037 .5979767 .32699586 .5619354 .3039856 .43066407H.23699951C.21798706 .43066407 .20799256 .43066407 .20799256 .4126587 .20799256 .4016571 .21398926 .4016571 .23399353 .4016571H.2979889C.27999879 .30871583 .23899842 .082839969 .21598816-.024108887 .19898987-.111068729 .18399048-.18411255 .13398743-.18411255 .1309967-.18411255 .101989749-.18411255 .083999637-.16506958 .1349945-.16107178 .1349945-.11706543 .1349945-.11607361 .1349945-.096069339 .11999512-.08407593 .100997928-.08407593 .08099365-.08407593 .050994874-.10107422 .050994874-.1390686 .050994874-.18209839 .09498596-.20410156 .13398743-.20410156 .23599243-.20410156 .27799989-.021102906 .2889862 .028869629 .30699159 .1058197 .35598756 .37167359 .36099244 .4016571H.44599916Z"/>
<path id="font_2_1" d="M.32499696-.24298096C.32499696-.23999024 .32499696-.23799134 .30799867-.22097779 .20799256-.11997986 .1519928 .045013429 .1519928 .24900818 .1519928 .44299317 .19898987 .60998538 .31498719 .7279968 .32499696 .7369995 .32499696 .7389984 .32499696 .74198916 .32499696 .74798586 .31999208 .75 .31599427 .75 .30299378 .75 .22099304 .6779938 .17199707 .5799866 .12098694 .47898866 .09799194 .37199403 .09799194 .24900818 .09799194 .16000366 .11199951 .041015626 .1639862-.06599426 .22299195-.18598938 .30499269-.25097657 .31599427-.25097657 .31999208-.25097657 .32499696-.24897766 .32499696-.24298096Z"/>
<path id="font_4_2" d="M.47399903 .40820313C.44198609 .40219117 .42999269 .3781891 .42999269 .3591919 .42999269 .33518983 .44898988 .3271942 .46299745 .3271942 .49299623 .3271942 .5139923 .3531952 .5139923 .380188 .5139923 .4223938 .46598817 .44140626 .42399598 .44140626 .36299134 .44140626 .32899476 .38119508 .31999208 .36219789 .29699708 .4373932 .23498535 .44140626 .21699524 .44140626 .114990238 .44140626 .06098938 .31021119 .06098938 .28822328 .06098938 .28422547 .06498718 .27923585 .07199097 .27923585 .07998657 .27923585 .08198547 .28523255 .083999637 .2892151 .117996219 .40019227 .18499756 .42140199 .21398926 .42140199 .25898744 .42140199 .2679901 .37919618 .2679901 .3551941 .2679901 .33319093 .2619934 .31021119 .25 .26223756L.21598816 .12535095C.20098877 .06535339 .17199707 .010223389 .11898804 .010223389 .11399841 .010223389 .08898926 .010223389 .067993167 .023330689 .10398865 .03036499 .11199951 .06036377 .11199951 .07235718 .11199951 .09236145 .09700012 .10435486 .07798767 .10435486 .053985597 .10435486 .027999878 .083358768 .027999878 .051361085 .027999878 .009231567 .07499695-.009765625 .117996219-.009765625 .1659851-.009765625 .19999695 .028366089 .22099304 .069366458 .23699951 .010223389 .2869873-.009765625 .32398988-.009765625 .42599488-.009765625 .47999574 .12135315 .47999574 .1433258 .47999574 .14833069 .47599793 .15232849 .46998597 .15232849 .46099855 .15232849 .45999146 .14732361 .45700074 .139328 .42999269 .051361085 .37199403 .010223389 .32699586 .010223389 .2919922 .010223389 .272995 .036361696 .272995 .07736206 .272995 .099365238 .2769928 .115356449 .29299928 .18130493L.32798768 .3171997C.34298707 .37719728 .3769989 .42140199 .4229889 .42140199 .4249878 .42140199 .45298768 .42140199 .47399903 .40820313Z"/>
<path id="font_2_2" d="M.28199769 .24900818C.28199769 .32499696 .27198792 .44898988 .21598816 .5649872 .15699768 .68499758 .07499695 .75 .06399536 .75 .05999756 .75 .054992677 .74798586 .054992677 .74198916 .054992677 .7389984 .054992677 .7369995 .07199097 .71998599 .17199707 .61898806 .22799683 .45399476 .22799683 .25 .22799683 .056015016 .18099976-.11099243 .06498718-.22898865 .054992677-.23799134 .054992677-.23999024 .054992677-.24298096 .054992677-.24897766 .05999756-.25097657 .06399536-.25097657 .07699585-.25097657 .15899658-.1789856 .20799256-.08099365 .25898744 .021011353 .28199769 .12901306 .28199769 .24900818Z"/>
<path id="font_4_3" d="M.2630005-.11172485C.23599243-.14982605 .19699097-.18411255 .147995-.18411255 .13598633-.18411255 .08799744-.18209839 .07299805-.13572693 .07598877-.13671875 .08099365-.13671875 .08299255-.13671875 .11299133-.13671875 .1329956-.11073303 .1329956-.08772278 .1329956-.06472778 .11399841-.056732179 .09899902-.056732179 .08299255-.056732179 .04798889-.068725589 .04798889-.11772156 .04798889-.16899109 .09098816-.20410156 .147995-.20410156 .24798584-.20410156 .34899903-.11172485 .3769989-.00077819827L.47499085 .38868714C.47599793 .39367677 .47799684 .39967347 .47799684 .4056549 .47799684 .4206543 .46598817 .43066407 .45098878 .43066407 .44198609 .43066407 .42099 .426651 .41299439 .39666749L.33898927 .10308838C.33399964 .085113529 .33399964 .08312988 .32598878 .072143558 .30599977 .04423523 .272995 .010223389 .22499085 .010223389 .16899109 .010223389 .1639862 .06524658 .1639862 .09225464 .1639862 .14929199 .19099427 .22631836 .21798706 .2983551 .22898865 .32736207 .23498535 .34136964 .23498535 .3613739 .23498535 .4033966 .20498657 .44140626 .1559906 .44140626 .06399536 .44140626 .026992798 .29634095 .026992798 .28834535 .026992798 .28434754 .0309906 .27934266 .037994386 .27934266 .04699707 .27934266 .04798889 .28334046 .051986696 .29734803 .07598877 .38137818 .11399841 .42140199 .15299988 .42140199 .1619873 .42140199 .1789856 .42140199 .1789856 .38838197 .1789856 .36238099 .16799927 .33335877 .15299988 .29534913 .10398865 .16429138 .10398865 .13127136 .10398865 .10726929 .10398865 .01222229 .17199707-.009765625 .22200012-.009765625 .25099183-.009765625 .2869873-.00077819827 .32199098 .036239625L.32299806 .035232545C.30799867-.023757935 .2979889-.06272888 .2630005-.11172485Z"/>
</defs>
<path transform="matrix(1,0,0,-1.00003,8.390999,166.23009)" stroke-width=".3985" stroke-linecap="butt" stroke-miterlimit="10" stroke-linejoin="miter" fill="none" stroke="#cbcbcb" d="M0 0V161.39028M18.5008 0V161.39028M55.50241 0V161.39028M74.00322 0V161.39028M92.50403 0V161.39028M111.00484 0V161.39028M129.50565 0V161.39028M148.00646 0V161.39028M166.50727 0V161.39028M185.00807 0V161.39028"/>
<path transform="matrix(1,0,0,-1.00003,8.390999,166.23009)" stroke-width=".3985" stroke-linecap="butt" stroke-miterlimit="10" stroke-linejoin="miter" fill="none" stroke="#cbcbcb" d="M0 0H194.25847M0 26.89838H194.25847M0 53.79675H194.25847M0 107.59352H194.25847M0 134.4919H194.25847M0 161.39028H194.25847"/>
<path transform="matrix(1,0,0,-1.00003,8.390999,166.23009)" stroke-width=".79701" stroke-linecap="butt" stroke-miterlimit="10" stroke-linejoin="miter" fill="none" stroke="#929292" d="M0 78.56915V82.8211M18.5008 78.56915V82.8211M55.50241 78.56915V82.8211M74.00322 78.56915V82.8211M92.50403 78.56915V82.8211M111.00484 78.56915V82.8211M129.50565 78.56915V82.8211M148.00646 78.56915V82.8211M166.50727 78.56915V82.8211M185.00807 78.56915V82.8211"/>
<path transform="matrix(1,0,0,-1.00003,8.390999,166.23009)" stroke-width=".79701" stroke-linecap="butt" stroke-miterlimit="10" stroke-linejoin="miter" fill="none" stroke="#929292" d="M34.87567 0H39.12753M34.87567 26.89838H39.12753M34.87567 53.79675H39.12753M34.87567 107.59352H39.12753M34.87567 134.4919H39.12753M34.87567 161.39028H39.12753"/>
<path transform="matrix(1,0,0,-1.00003,8.390999,166.23009)" stroke-width=".3985" stroke-linecap="butt" stroke-miterlimit="10" stroke-linejoin="miter" fill="none" stroke="#000000" d="M0 80.69513H192.26595"/>
<path transform="matrix(1,0,0,-1.00003,200.65695,85.53253)" d="M1.99252 0-1.19551 1.59401 0 0-1.19551-1.59401"/>
<path transform="matrix(1,0,0,-1.00003,8.390999,166.23009)" stroke-width=".3985" stroke-linecap="butt" stroke-miterlimit="10" stroke-linejoin="miter" fill="none" stroke="#000000" d="M37.0016 0V159.39775"/>
<path transform="matrix(0,-1.00003,-1,-0,45.392599,6.827545)" d="M1.99252 0-1.19551 1.59401 0 0-1.19551-1.59401"/>
<use data-text="&#x2212;" xlink:href="#font_1_1" transform="matrix(11.9552,0,0,-11.95556,.8149986,99.54708)"/>
<use data-text="2" xlink:href="#font_2_4" transform="matrix(11.9552,0,0,-11.95556,10.112999,99.54708)"/>
<use data-text="&#x2212;" xlink:href="#font_1_1" transform="matrix(11.9552,0,0,-11.95556,19.315999,99.54708)"/>
<use data-text="1" xlink:href="#font_2_3" transform="matrix(11.9552,0,0,-11.95556,28.613999,99.54708)"/>
<use data-text="1" xlink:href="#font_2_3" transform="matrix(11.9552,0,0,-11.95556,60.967,99.54708)"/>
<use data-text="2" xlink:href="#font_2_4" transform="matrix(11.9552,0,0,-11.95556,79.468,99.54708)"/>
<use data-text="3" xlink:href="#font_2_5" transform="matrix(11.9552,0,0,-11.95556,97.969,99.54708)"/>
<use data-text="4" xlink:href="#font_2_6" transform="matrix(11.9552,0,0,-11.95556,116.46901,99.54708)"/>
<use data-text="5" xlink:href="#font_2_7" transform="matrix(11.9552,0,0,-11.95556,134.97,99.54708)"/>
<use data-text="6" xlink:href="#font_2_8" transform="matrix(11.9552,0,0,-11.95556,153.47101,99.54708)"/>
<use data-text="7" xlink:href="#font_2_9" transform="matrix(11.9552,0,0,-11.95556,171.972,99.54708)"/>
<use data-text="8" xlink:href="#font_2_10" transform="matrix(11.9552,0,0,-11.95556,190.473,99.54708)"/>
<use data-text="&#x2212;" xlink:href="#font_1_1" transform="matrix(11.9552,0,0,-11.95556,23.931,169.58419)"/>
<use data-text="3" xlink:href="#font_2_5" transform="matrix(11.9552,0,0,-11.95556,33.229,169.58419)"/>
<use data-text="&#x2212;" xlink:href="#font_1_1" transform="matrix(11.9552,0,0,-11.95556,23.931,142.68538)"/>
<use data-text="2" xlink:href="#font_2_4" transform="matrix(11.9552,0,0,-11.95556,33.229,142.68538)"/>
<use data-text="&#x2212;" xlink:href="#font_1_1" transform="matrix(11.9552,0,0,-11.95556,23.931,115.78557)"/>
<use data-text="1" xlink:href="#font_2_3" transform="matrix(11.9552,0,0,-11.95556,33.229,115.78557)"/>
<use data-text="1" xlink:href="#font_2_3" transform="matrix(11.9552,0,0,-11.95556,33.23,62.485979)"/>
<use data-text="2" xlink:href="#font_2_4" transform="matrix(11.9552,0,0,-11.95556,33.23,35.586168)"/>
<use data-text="3" xlink:href="#font_2_5" transform="matrix(11.9552,0,0,-11.95556,33.23,8.687363)"/>
<g clip-path="url(#clip_3)">
<path transform="matrix(1,0,0,-1.00003,8.390999,166.23009)" stroke-width="1.59404" stroke-linecap="butt" stroke-miterlimit="10" stroke-linejoin="miter" fill="none" stroke="#0000ff" d="M0 53.79703 2.31259 54.91777 4.6252 56.03853 6.93779 57.15929 9.2504 58.28003 11.563 59.4008 13.8756 60.52155 16.1882 61.6423 18.5008 62.76305 20.8134 63.88382 23.126 65.00456 25.4386 66.12532 27.7512 67.24606 30.06381 68.36684 32.3764 69.48758 34.68901 70.60834 37.0016 71.7291 39.31421 72.84985 41.62682 73.9706 43.9394 75.09135 46.25201 76.2121 48.5646 77.33287 50.87721 78.45361 53.18982 79.57437 55.50241 80.69511"/>
<path transform="matrix(1,0,0,-1.00003,8.390999,166.23009)" stroke-width="1.59404" stroke-linecap="butt" stroke-miterlimit="10" stroke-linejoin="miter" fill="none" stroke="#0000ff" d="M55.50241 80.69513 58.58586 78.4536 61.66931 76.21208 64.75278 73.97055 67.83623 71.72903 70.91968 69.48752 74.00313 67.246 77.0866 65.00447 80.17004 62.76294 83.25351 60.52142 86.33696 58.2799 89.42041 56.03839 92.50386 53.79688 95.58733 51.55533 98.67078 49.31381 101.75424 47.0723 104.83769 44.83078 107.92113 42.58926 111.0046 40.34772 114.08804 38.1062 117.17151 35.86469 120.25496 33.62317 123.33841 31.38165 126.42186 29.1401 129.50533 26.89859"/>
<path transform="matrix(1,0,0,-1.00003,8.390999,166.23009)" stroke-width="1.59404" stroke-linecap="butt" stroke-miterlimit="10" stroke-linejoin="miter" fill="none" stroke="#0000ff" d="M129.50565 80.69513 131.04737 82.93665 132.5891 85.17816 134.13082 87.4197 135.67255 89.66121 137.21428 91.90273 138.75601 94.14426 140.29773 96.38577 141.83945 98.6273 143.3812 100.86884 144.92292 103.11035 146.46465 105.35188 148.00637 107.5934 149.5481 109.83492 151.08983 112.07645 152.63155 114.31796 154.17328 116.55948 155.715 118.80101 157.25673 121.04253 158.79846 123.28406 160.34018 125.52557 161.88191 127.76709 163.42365 130.00862 164.96538 132.25014 166.5071 134.49166"/>
<path transform="matrix(1,0,0,-1.00003,8.390999,166.23009)" stroke-width=".3985" stroke-linecap="butt" stroke-miterlimit="10" stroke-linejoin="miter" fill="none" stroke="#0000ff" d="M74.00322 107.59352"/>
</g>
<path transform="matrix(1,0,0,-1.00003,8.390999,166.23009)" stroke-width=".3985" stroke-linecap="butt" stroke-miterlimit="10" stroke-linejoin="miter" fill="none" stroke="#0000ff" d=""/>
<use data-text="f" xlink:href="#font_4_1" transform="matrix(11.9552,0,0,-11.95556,70.993,51.46064)" fill="#0000ff"/>
<use data-text="(" xlink:href="#font_2_1" transform="matrix(11.9552,0,0,-11.95556,78.039,51.46064)" fill="#0000ff"/>
<use data-text="x" xlink:href="#font_4_2" transform="matrix(11.9552,0,0,-11.95556,82.592,51.46064)" fill="#0000ff"/>
<use data-text=")" xlink:href="#font_2_2" transform="matrix(11.9552,0,0,-11.95556,89.244,51.46064)" fill="#0000ff"/>
<path transform="matrix(1,0,0,-1.00003,8.390999,166.23009)" stroke-width=".3985" stroke-linecap="butt" stroke-miterlimit="10" stroke-linejoin="miter" fill="none" stroke="#0000ff" d=""/>
<path transform="matrix(1,0,0,-1.00003,8.390999,166.23009)" d="M131.4982 80.69513C131.4982 81.79561 130.60613 82.68768 129.50565 82.68768 128.40518 82.68768 127.51309 81.79561 127.51309 80.69513 127.51309 79.59467 128.40518 78.70258 129.50565 78.70258 130.60613 78.70258 131.4982 79.59467 131.4982 80.69513ZM129.50565 80.69513" fill="#0000ff"/>
<path transform="matrix(1,0,0,-1.00003,8.390999,166.23009)" stroke-width=".3985" stroke-linecap="butt" stroke-miterlimit="10" stroke-linejoin="miter" fill="none" stroke="#0000ff" d="M131.4982 80.69513C131.4982 81.79561 130.60613 82.68768 129.50565 82.68768 128.40518 82.68768 127.51309 81.79561 127.51309 80.69513 127.51309 79.59467 128.40518 78.70258 129.50565 78.70258 130.60613 78.70258 131.4982 79.59467 131.4982 80.69513ZM129.50565 80.69513"/>
<path transform="matrix(1,0,0,-1.00003,8.390999,166.23009)" d="M57.49496 134.4919C57.49496 135.59236 56.60289 136.48445 55.50241 136.48445 54.40195 136.48445 53.50986 135.59236 53.50986 134.4919 53.50986 133.39142 54.40195 132.49935 55.50241 132.49935 56.60289 132.49935 57.49496 133.39142 57.49496 134.4919ZM55.50241 134.4919" fill="#0000ff"/>
<path transform="matrix(1,0,0,-1.00003,8.390999,166.23009)" stroke-width=".3985" stroke-linecap="butt" stroke-miterlimit="10" stroke-linejoin="miter" fill="none" stroke="#0000ff" d="M57.49496 134.4919C57.49496 135.59236 56.60289 136.48445 55.50241 136.48445 54.40195 136.48445 53.50986 135.59236 53.50986 134.4919 53.50986 133.39142 54.40195 132.49935 55.50241 132.49935 56.60289 132.49935 57.49496 133.39142 57.49496 134.4919ZM55.50241 134.4919"/>
<path transform="matrix(1,0,0,-1.00003,8.390999,166.23009)" d="M187.00063 134.4919C187.00063 135.59236 186.10854 136.48445 185.00807 136.48445 183.9076 136.48445 183.01552 135.59236 183.01552 134.4919 183.01552 133.39142 183.9076 132.49935 185.00807 132.49935 186.10854 132.49935 187.00063 133.39142 187.00063 134.4919ZM185.00807 134.4919" fill="#0000ff"/>
<path transform="matrix(1,0,0,-1.00003,8.390999,166.23009)" stroke-width=".3985" stroke-linecap="butt" stroke-miterlimit="10" stroke-linejoin="miter" fill="none" stroke="#0000ff" d="M187.00063 134.4919C187.00063 135.59236 186.10854 136.48445 185.00807 136.48445 183.9076 136.48445 183.01552 135.59236 183.01552 134.4919 183.01552 133.39142 183.9076 132.49935 185.00807 132.49935 186.10854 132.49935 187.00063 133.39142 187.00063 134.4919ZM185.00807 134.4919"/>
<path transform="matrix(1,0,0,-1.00003,8.390999,166.23009)" stroke-width=".3985" stroke-linecap="butt" stroke-miterlimit="10" stroke-linejoin="miter" fill="none" stroke="#0000ff" d=""/>
<path transform="matrix(1,0,0,-1.00003,8.390999,166.23009)" d="M57.49496 80.69513C57.49496 81.79561 56.60289 82.68768 55.50241 82.68768 54.40195 82.68768 53.50986 81.79561 53.50986 80.69513 53.50986 79.59467 54.40195 78.70258 55.50241 78.70258 56.60289 78.70258 57.49496 79.59467 57.49496 80.69513ZM55.50241 80.69513" fill="#ffffff"/>
<path transform="matrix(1,0,0,-1.00003,8.390999,166.23009)" stroke-width=".3985" stroke-linecap="butt" stroke-miterlimit="10" stroke-linejoin="miter" fill="none" stroke="#0000ff" d="M57.49496 80.69513C57.49496 81.79561 56.60289 82.68768 55.50241 82.68768 54.40195 82.68768 53.50986 81.79561 53.50986 80.69513 53.50986 79.59467 54.40195 78.70258 55.50241 78.70258 56.60289 78.70258 57.49496 79.59467 57.49496 80.69513ZM55.50241 80.69513"/>
<path transform="matrix(1,0,0,-1.00003,8.390999,166.23009)" d="" fill="#ffffff"/>
<path transform="matrix(1,0,0,-1.00003,8.390999,166.23009)" stroke-width=".3985" stroke-linecap="butt" stroke-miterlimit="10" stroke-linejoin="miter" fill="none" stroke="#0000ff" d=""/>
<path transform="matrix(1,0,0,-1.00003,8.390999,166.23009)" d="M131.4982 26.89838C131.4982 27.99884 130.60613 28.89093 129.50565 28.89093 128.40518 28.89093 127.51309 27.99884 127.51309 26.89838 127.51309 25.7979 128.40518 24.90582 129.50565 24.90582 130.60613 24.90582 131.4982 25.7979 131.4982 26.89838ZM129.50565 26.89838" fill="#ffffff"/>
<path transform="matrix(1,0,0,-1.00003,8.390999,166.23009)" stroke-width=".3985" stroke-linecap="butt" stroke-miterlimit="10" stroke-linejoin="miter" fill="none" stroke="#0000ff" d="M131.4982 26.89838C131.4982 27.99884 130.60613 28.89093 129.50565 28.89093 128.40518 28.89093 127.51309 27.99884 127.51309 26.89838 127.51309 25.7979 128.40518 24.90582 129.50565 24.90582 130.60613 24.90582 131.4982 25.7979 131.4982 26.89838ZM129.50565 26.89838"/>
<path transform="matrix(1,0,0,-1.00003,8.390999,166.23009)" d="" fill="#ffffff"/>
<path transform="matrix(1,0,0,-1.00003,8.390999,166.23009)" stroke-width=".3985" stroke-linecap="butt" stroke-miterlimit="10" stroke-linejoin="miter" fill="none" stroke="#0000ff" d=""/>
<path transform="matrix(1,0,0,-1.00003,8.390999,166.23009)" d="M168.49982 134.4919C168.49982 135.59236 167.60773 136.48445 166.50727 136.48445 165.40679 136.48445 164.51471 135.59236 164.51471 134.4919 164.51471 133.39142 165.40679 132.49935 166.50727 132.49935 167.60773 132.49935 168.49982 133.39142 168.49982 134.4919ZM166.50727 134.4919" fill="#ffffff"/>
<path transform="matrix(1,0,0,-1.00003,8.390999,166.23009)" stroke-width=".3985" stroke-linecap="butt" stroke-miterlimit="10" stroke-linejoin="miter" fill="none" stroke="#0000ff" d="M168.49982 134.4919C168.49982 135.59236 167.60773 136.48445 166.50727 136.48445 165.40679 136.48445 164.51471 135.59236 164.51471 134.4919 164.51471 133.39142 165.40679 132.49935 166.50727 132.49935 167.60773 132.49935 168.49982 133.39142 168.49982 134.4919ZM166.50727 134.4919"/>
<path transform="matrix(1,0,0,-1.00003,8.390999,166.23009)" d="" fill="#ffffff"/>
<path transform="matrix(1,0,0,-1.00003,8.390999,166.23009)" stroke-width=".3985" stroke-linecap="butt" stroke-miterlimit="10" stroke-linejoin="miter" fill="none" stroke="#0000ff" d=""/>
<use data-text="x" xlink:href="#font_4_2" transform="matrix(11.9552,0,0,-11.95556,191.845,81.33554)"/>
<use data-text="y" xlink:href="#font_4_3" transform="matrix(11.9552,0,0,-11.95556,49.582,14.138519)"/>
</svg>
