<svg xmlns="http://www.w3.org/2000/svg" xmlns:xlink="http://www.w3.org/1999/xlink" version="1.1" width="235" height="96" viewBox="0 0 235 96">
<defs>
<path id="font_1_3" d="M.5349884 .5967865C.522995 .5857849 .48599244 .55078127 .48599244 .5367737 .48599244 .5267792 .49499513 .5177765 .5049896 .5177765 .5139923 .5177765 .5179901 .52378848 .5249939 .53378298 .548996 .56378176 .57598879 .58277896 .598999 .5957794 .60899356 .6017761 .6159973 .6047821 .6159973 .6157837 .6159973 .6247864 .60798647 .629776 .60198977 .6347809 .57398989 .6537781 .5669861 .68078616 .56399539 .69277957 .5609894 .70077517 .55799868 .7127838 .5439911 .7127838 .5379944 .7127838 .526001 .708786 .526001 .6937866 .526001 .68478396 .5319977 .66078189 .5509949 .63378909H.21499634C.19799805 .63378909 .18099976 .63378909 .18099976 .6147766 .18099976 .5967865 .19898987 .5967865 .21499634 .5967865H.5349884Z"/>
<path id="font_1_2" d="M.45700074 .3743744C.45700074 .4373932 .4249878 .44140626 .4169922 .44140626 .3929901 .44140626 .37098695 .41740418 .37098695 .39738465 .37098695 .38539125 .37799073 .37838746 .38198854 .3743744 .3919983 .3653717 .41799928 .33836366 .41799928 .28634645 .41799928 .24432373 .35798646 .010223389 .23799134 .010223389 .1769867 .010223389 .16499329 .06124878 .16499329 .0982666 .16499329 .14828491 .18798828 .2183075 .21499634 .29034425 .23098755 .33135987 .23498535 .34136964 .23498535 .3613739 .23498535 .4033966 .20498657 .44140626 .1559906 .44140626 .06399536 .44140626 .026992798 .29634095 .026992798 .28834535 .026992798 .28434754 .0309906 .27934266 .037994386 .27934266 .04699707 .27934266 .04798889 .28334046 .051986696 .29734803 .07598877 .38337709 .114990238 .42140199 .15299988 .42140199 .1619873 .42140199 .1789856 .42140199 .1789856 .38838197 .1789856 .36238099 .16799927 .33335877 .15299988 .29534913 .10499573 .16729737 .10499573 .13627625 .10499573 .11227417 .10499573 .09025574 .10798645 .049240114 .13899231 .021224976 .1749878-.009765625 .22499085-.009765625 .23399353-.009765625 .3999939-.009765625 .45700074 .3173523 .45700074 .3743744Z"/>
<path id="font_2_47" d="M.5149994 .00022888184V.029220581C.44699098 .029220581 .43899537 .036224367 .43899537 .085250858V.69433596L.2999878 .68333438V.6543274C.36799623 .6543274 .37599183 .64733889 .37599183 .5983429V.37738038C.35499574 .40638734 .31199647 .44140626 .25099183 .44140626 .1349945 .44140626 .034988405 .34336854 .034988405 .21530152 .034988405 .088256839 .12998963-.009765625 .23999024-.009765625 .31599427-.009765625 .3600006 .040237428 .37399293 .05923462V-.009765625L.5149994 .00022888184M.37399293 .117263797C.37399293 .09925842 .37399293 .09625244 .3600006 .07424927 .33599855 .039245607 .29499818 .010223389 .24499512 .010223389 .21899414 .010223389 .11099243 .020233155 .11099243 .21430969 .11099243 .28634645 .12298584 .32635499 .14498902 .359375 .16499329 .39038087 .20498657 .42140199 .25498963 .42140199 .31698609 .42140199 .35198976 .3763733 .3619995 .36036683 .37399293 .34336854 .37399293 .34136964 .37399293 .32336427V.117263797Z"/>
<path id="font_2_81" d="M.45899964 .21424866C.45899964 .34326173 .36099244 .44628907 .24499512 .44628907 .125 .44628907 .02999878 .340271 .02999878 .21424866 .02999878 .086242679 .12998963-.009765625 .24398804-.009765625 .3619995-.009765625 .45899964 .08824158 .45899964 .21424866M.3829956 .22325135C.3829956 .18824768 .3829956 .12623596 .35699464 .07923889 .32899476 .031234742 .2829895 .01222229 .24499512 .01222229 .20799256 .01222229 .16299439 .02822876 .13398743 .07723999 .10699463 .12223816 .10598755 .1812439 .10598755 .22325135 .10598755 .261261 .10598755 .32226563 .13699341 .3672638 .16499329 .41027833 .20899964 .42626954 .24398804 .42626954 .2829895 .42626954 .32499696 .40827943 .35198976 .3692627 .3829956 .32325746 .3829956 .2602539 .3829956 .22325135Z"/>
<path id="font_2_75" d="M.79299929 0V.0289917C.7429962 .0289917 .71798709 .0289917 .71699526 .059051515V.24342346C.71699526 .3365631 .71699526 .36450196 .69400027 .39640809 .6649933 .4353943 .6179962 .44140626 .58399966 .44140626 .5009918 .44140626 .45899964 .38145448 .44299317 .3425598 .42900086 .41940309 .375 .44140626 .31199647 .44140626 .21499634 .44140626 .1769867 .35850526 .16899109 .338562H.16799927V.44140626L.03199768 .4303589V.4013672C.099990848 .4013672 .10798645 .39437867 .10798645 .34553529V.07408142C.10798645 .0289917 .09700012 .0289917 .03199768 .0289917V0C.057998659 .0019989014 .11199951 .0019989014 .13999939 .0019989014 .16899109 .0019989014 .22299195 .0019989014 .24899292 0V.0289917C.18499756 .0289917 .17298889 .0289917 .17298889 .07408142V.26046754C.17298889 .36547853 .24198914 .4213562 .3039856 .4213562 .3659973 .4213562 .37998963 .37045289 .37998963 .3095703V.07408142C.37998963 .0289917 .36898805 .0289917 .3039856 .0289917V0C.32998658 .0019989014 .38398744 .0019989014 .4119873 .0019989014 .44099427 .0019989014 .49499513 .0019989014 .5209961 0V.0289917C.45700074 .0289917 .44499208 .0289917 .44499208 .07408142V.26046754C.44499208 .36547853 .5139923 .4213562 .57598879 .4213562 .6380005 .4213562 .6519928 .37045289 .6519928 .3095703V.07408142C.6519928 .0289917 .6409912 .0289917 .57598879 .0289917V0C.60198977 .0019989014 .6559906 .0019989014 .6839905 .0019989014 .71299746 .0019989014 .7669983 .0019989014 .79299929 0Z"/>
<path id="font_2_28" d="M.47399903 .08912659V.14515686H.45199586V.08912659C.45199586 .03211975 .42799378 .024108887 .4139862 .024108887 .37599183 .024108887 .37599183 .07713318 .37599183 .09213257V.26719667C.37599183 .3211975 .37599183 .36120606 .33198548 .40023805 .29699708 .43226625 .2519989 .44628907 .20799256 .44628907 .12599182 .44628907 .06298828 .39222718 .06298828 .32720948 .06298828 .2982025 .08198547 .2842102 .10499573 .2842102 .1289978 .2842102 .1459961 .3012085 .1459961 .32521058 .1459961 .36621095 .10998535 .36621095 .09498596 .36621095 .117996219 .4082489 .1659851 .42625428 .20599365 .42625428 .2519989 .42625428 .31098939 .38822938 .31098939 .2982025V.25819398C.10998535 .255188 .033996583 .17115784 .033996583 .09413147 .033996583 .0152282719 .12599182-.009765625 .18699646-.009765625 .25299073-.009765625 .2979889 .030227662 .31698609 .07823181 .32099916 .03111267 .35198976-.0048828127 .394989-.0048828127 .41600038-.0048828127 .47399903 .009109497 .47399903 .089141849V.08912659M.31098939 .14117432C.31098939 .043121339 .23799134 .010116577 .19499207 .010116577 .1459961 .010116577 .10499573 .04612732 .10499573 .09414673 .10499573 .22621155 .2749939 .23822022 .31098939 .24023438V.14117432Z"/>
<path id="font_2_66" d="M.24099732 0V.0289917C.17599488 .0289917 .17199707 .033996583 .17199707 .07304382V.44140626L.035995485 .4303589V.4013672C.099990848 .4013672 .10899353 .39535523 .10899353 .34629823V.074035648C.10899353 .0289917 .09799194 .0289917 .032989503 .0289917V0C.06098938 .0019989014 .10899353 .0019989014 .13798523 .0019989014 .14898682 .0019989014 .20698548 .0019989014 .24099732 0M.18499756 .6043091C.18499756 .63430789 .16099549 .6533203 .13699341 .6533203 .10899353 .6533203 .08799744 .63131716 .08799744 .6043091 .08799744 .5783081 .10998535 .55630496 .13598633 .55630496 .1659851 .55630496 .18499756 .580307 .18499756 .6043091Z"/>
<path id="font_2_77" d="M.5209961 0V.0289917C.47099305 .0289917 .44599916 .0289917 .44499208 .059051515V.24342346C.44499208 .3365631 .44499208 .36450196 .42199708 .39640809 .3929901 .4353943 .34599305 .44140626 .31199647 .44140626 .21499634 .44140626 .1769867 .35850526 .16899109 .338562H.16799927V.44140626L.03199768 .4303589V.4013672C.099990848 .4013672 .10798645 .39437867 .10798645 .34553529V.07408142C.10798645 .0289917 .09700012 .0289917 .03199768 .0289917V0C.057998659 .0019989014 .11199951 .0019989014 .13999939 .0019989014 .16899109 .0019989014 .22299195 .0019989014 .24899292 0V.0289917C.18499756 .0289917 .17298889 .0289917 .17298889 .07408142V.26046754C.17298889 .36547853 .24198914 .4213562 .3039856 .4213562 .3659973 .4213562 .37998963 .37045289 .37998963 .3095703V.07408142C.37998963 .0289917 .36898805 .0289917 .3039856 .0289917V0C.32998658 .0019989014 .38398744 .0019989014 .4119873 .0019989014 .44099427 .0019989014 .49499513 .0019989014 .5209961 0Z"/>
<path id="font_3_1" d="M.2679901 .31362916H.3039856L.45399476 .08192444C.46398927 .06594849 .48799134 .026992798 .49899293 .011993408 .5059967 0 .5089874 0 .5319977 0H.66999819C.6879883 0 .7029877 0 .7029877 .017990113 .7029877 .025985718 .69699099 .032989503 .6879883 .034988405 .651001 .04298401 .60198977 .10890198 .5779877 .14085388 .57099917 .15083313 .5209961 .2167511 .45399476 .32463075 .54299929 .34062196 .6289978 .37861634 .6289978 .4975891 .6289978 .63656619 .48199464 .6845703 .3639984 .6845703H.049987794C.03199768 .6845703 .015991211 .6845703 .015991211 .66656497 .015991211 .64956668 .034988405 .64956668 .042999269 .64956668 .099990848 .64956668 .10499573 .64256289 .10499573 .5925751V.091918949C.10499573 .04197693 .099990848 .034988405 .042999269 .034988405 .034988405 .034988405 .015991211 .034988405 .015991211 .017990113 .015991211 0 .03199768 0 .049987794 0H.32398988C.34199525 0 .35699464 0 .35699464 .017990113 .35699464 .034988405 .33999635 .034988405 .32899476 .034988405 .27198792 .034988405 .2679901 .04298401 .2679901 .091918949V.31362916M.46099855 .36262513C.4889984 .39961244 .49198915 .4526062 .49198915 .4965973 .49198915 .5445862 .48599244 .59757998 .45399476 .63856509 .49499513 .6295624 .59399417 .5985718 .59399417 .4975891 .59399417 .43260194 .56399539 .3816223 .46099855 .36262513M.2679901 .59558108C.2679901 .61657717 .2679901 .64956668 .32998658 .64956668 .4149933 .64956668 .45700074 .614563 .45700074 .4965973 .45700074 .36761476 .42599488 .3486328 .2679901 .3486328V.59558108M.13198853 .034988405C.13999939 .052963258 .13999939 .08093262 .13999939 .089920047V.594574C.13999939 .6045685 .13999939 .6315613 .13198853 .64956668H.24598694C.23298645 .6335602 .23298645 .61357119 .23298645 .5985718V.089920047C.23298645 .079940799 .23298645 .052963258 .24099732 .034988405H.13198853M.34498597 .31362916C.35198976 .31462098 .35598756 .31562806 .3639984 .31562806 .3789978 .31562806 .40098573 .31762696 .41600038 .31962586 .43099977 .2956543 .5389862 .117889408 .621994 .034988405H.5249939L.34498597 .31362916Z"/>
<path id="font_4_2" d="M.25299073 .33370973C.33198548 .33370973 .38198854 .27557374 .38198854 .17037964 .38198854 .045440675 .31098939 .008514404 .2579956 .008514404 .20298767 .008514404 .12799073 .0284729 .09298706 .08137512 .1289978 .08137512 .1539917 .10437012 .1539917 .13737488 .1539917 .16937256 .1309967 .19238281 .09899902 .19238281 .07199097 .19238281 .04399109 .17536927 .04399109 .13537598 .04399109 .04045105 .1459961-.021484375 .2599945-.021484375 .3929901-.021484375 .48599244 .070388797 .48599244 .17037964 .48599244 .25352479 .41999818 .32969667 .31799317 .3517456 .39698792 .37982179 .45599366 .4479828 .45599366 .52804568 .45599366 .6080475 .3659973 .66503909 .2619934 .66503909 .15499878 .66503909 .07398987 .6070404 .07398987 .53105166 .07398987 .49404908 .09899902 .4780426 .125 .4780426 .1559906 .4780426 .17599488 .5000458 .17599488 .52905276 .17599488 .56604006 .14399719 .5800476 .12199402 .5810547 .1639862 .6360321 .24099732 .6390381 .25898744 .6390381 .2849884 .6390381 .36099244 .6310272 .36099244 .52804568 .36099244 .45799256 .33198548 .41589356 .31799317 .39985658 .28799439 .36878968 .2649994 .36679078 .20399475 .3627777 .18499756 .36177064 .1769867 .36076356 .1769867 .3477478 .1769867 .33370973 .18598938 .33370973 .20298767 .33370973H.25299073Z"/>
<path id="font_2_71" d="M.56999209 .25585938H.5479889C.5379944 .1559143 .5249939 .0289917 .34999085 .0289917H.2630005C.21899414 .0289917 .21699524 .035995485 .21699524 .06896973V.6056366C.21699524 .6416168 .21899414 .6536102 .30599977 .6536102H.33599855V.6826172C.30699159 .680603 .21899414 .680603 .18399048 .680603 .1539917 .680603 .06498718 .680603 .040985109 .6826172V.6536102H.06098938C.1329956 .6536102 .13598633 .6436157 .13598633 .6066437V.07595825C.13598633 .038986207 .1329956 .0289917 .06098938 .0289917H.040985109V0H.5439911L.56999209 .25585938Z"/>
<path id="font_2_50" d="M.40699769 .11932373C.40699769 .1253357 .4019928 .1293335 .3959961 .1293335 .3880005 .1293335 .38598634 .12432861 .38398744 .11932373 .35798646 .035247804 .29100038 .01222229 .24899292 .01222229 .20698548 .01222229 .10598755 .040252687 .10598755 .21340943V.23242188H.3829956C.40499879 .23242188 .40699769 .23242188 .40699769 .25141908 .40699769 .3523407 .35299684 .44628907 .23199463 .44628907 .117996219 .44628907 .02999878 .34335328 .02999878 .21940613 .02999878 .08729553 .13198853-.009765625 .24299622-.009765625 .3619995-.009765625 .40699769 .09829712 .40699769 .11932373M.34498597 .25141908H.10699463C.114990238 .40830995 .20298767 .42630006 .23098755 .42630006 .33799745 .42630006 .34399415 .28538514 .34498597 .25141908Z"/>
<path id="font_2_96" d="M.35299684 .38339234C.35299684 .4133911 .32598878 .44140626 .2829895 .44140626 .19799805 .44140626 .16899109 .34939576 .16299439 .33039857H.1619873V.44140626L.027999878 .4303589V.4013672C.09599304 .4013672 .10398865 .39434815 .10398865 .3453064V.074035648C.10398865 .0289917 .09298706 .0289917 .027999878 .0289917V0C.055999757 .0019989014 .11099243 .0019989014 .14099121 .0019989014 .16799927 .0019989014 .23899842 .0019989014 .2619934 0V.0289917H.24198914C.16899109 .02973938 .16699219 .040740968 .16699219 .07673645V.23374939C.16699219 .3307495 .20698548 .42173768 .28399659 .42173768 .2919922 .42173768 .2939911 .42173768 .2979889 .42074586 .2899933 .41674806 .27398683 .41073609 .27398683 .3837433 .27398683 .35473634 .29699708 .34375 .31298829 .34375 .33299256 .34375 .35299684 .35673524 .35299684 .3837433V.38339234Z"/>
<path id="font_2_105" d="M.32598878 .124069217V.1809845H.3039856V.12606812C.3039856 .0541687 .2749939 .01222229 .23599243 .01222229 .16799927 .01222229 .16799927 .10508728 .16799927 .12207031V.4016571H.30899049V.43066407H.16799927V.6142578H.1459961C.14498902 .52046206 .10899353 .4246521 .017990113 .42166139V.4016571H.102996829V.124069217C.102996829 .01322937 .1769867-.009765625 .22999573-.009765625 .29299928-.009765625 .32598878 .0521698 .32598878 .124069217Z"/>
<path id="font_2_98" d="M.35198976 .12739563C.35198976 .181427 .31900025 .21340943 .30999757 .22239685 .27398683 .25338746 .24699402 .25938417 .18099976 .27137757 .15098572 .27737428 .07798767 .29136659 .07798767 .35131837 .07798767 .38230897 .09899902 .4282837 .18899536 .4282837 .2979889 .4282837 .3039856 .33532716 .30599977 .3043518 .30699159 .2963562 .31399537 .2963562 .31698609 .2963562 .32798768 .2963562 .32798768 .30136109 .32798768 .3193512V.4232788C.32798768 .44128419 .32798768 .44628907 .31799317 .44628907 .30999757 .44628907 .29100038 .4242859 .28399659 .4152832 .25299073 .4402771 .22200012 .44628907 .18998719 .44628907 .068984989 .44628907 .032989503 .38031007 .032989503 .32533265 .032989503 .3143463 .032989503 .27937318 .070999149 .24438477 .102996829 .21640015 .13699341 .20941162 .18299866 .20040894 .23799134 .1894226 .25099183 .18641663 .27598573 .16642761 .2939911 .15142823 .30699159 .12940979 .30699159 .101364139 .30699159 .05831909 .28199769 .010253906 .19400025 .010253906 .12799073 .010253906 .07998657 .048294069 .057998659 .1484375 .053985597 .16642761 .052993776 .16842652 .052993776 .16842652 .050994874 .17242432 .04699707 .17242432 .04399109 .17242432 .032989503 .17242432 .032989503 .16743469 .032989503 .14942932V.013259888C.032989503-.004760742 .032989503-.009765625 .042999269-.009765625 .04798889-.009765625 .04899597-.008773804 .06599426 .012252808 .070999149 .019256592 .070999149 .021270752 .085998538 .03729248 .12399292-.009765625 .17799378-.009765625 .19499207-.009765625 .2999878-.009765625 .35198976 .048294069 .35198976 .12739563Z"/>
<path id="font_2_55" d="M.34199525 .6379852C.34199525 .6750488 .30599977 .70410159 .2579956 .70410159 .18798828 .70410159 .10899353 .65000918 .10899353 .5478363V.43066407H.0309906V.4016571H.10899353V.07394409C.10899353 .0289917 .09799194 .0289917 .032989503 .0289917V0C.06098938 .0019989014 .115997318 .0019989014 .1459961 .0019989014 .17298889 .0019989014 .24398804 .0019989014 .2669983 0V.0289917H.24699402C.17399597 .0289917 .17199707 .039978029 .17199707 .07594299V.4016571H.2849884V.43066407H.16999817V.5478363C.16999817 .6379852 .21598816 .6840668 .25698854 .6840668 .2649994 .6840668 .27999879 .6820526 .2919922 .67604067 .28799439 .6750488 .2630005 .6660309 .2630005 .63697817 .2630005 .61395266 .2789917 .59791567 .3019867 .59791567 .32598878 .59791567 .34199525 .61395266 .34199525 .6379852Z"/>
<path id="font_1_1" d="M.4169922 .6096344C.4229889 .6336212 .4249878 .64260867 .43998719 .64660647 .44799806 .64860537 .48098756 .64860537 .5019989 .64860537 .60198977 .64860537 .6489868 .64460757 .6489868 .5666504 .6489868 .55166628 .644989 .51368716 .6389923 .4767151L.6380005 .46472169C.6380005 .46072389 .6419983 .45472718 .647995 .45472718 .6579895 .45472718 .6579895 .4597168 .6609955 .475708L.6899872 .65260317C.69200137 .66160586 .69200137 .66360476 .69200137 .6666107 .69200137 .6776123 .6859894 .6776123 .66600039 .6776123H.11898804C.09599304 .6776123 .09498596 .6766052 .08898926 .6586151L.027999878 .478714C.026992798 .4767151 .023986817 .4657135 .023986817 .46472169 .023986817 .4597168 .027999878 .45472718 .033996583 .45472718 .041992189 .45472718 .04399109 .45872499 .04798889 .4717102 .08999634 .5926361 .11099243 .64860537 .24398804 .64860537H.31098939C.33499146 .64860537 .34498597 .64860537 .34498597 .637619 .34498597 .63461306 .34498597 .63261416 .33999635 .614624L.20599365 .07795715C.19599915 .038986207 .19400025 .0289917 .08799744 .0289917 .06298828 .0289917 .055999757 .0289917 .055999757 .009994507 .055999757 0 .066986087 0 .07199097 0 .09700012 0 .12298584 .0019989014 .147995 .0019989014H.3039856C.32899476 .0019989014 .35598756 0 .3809967 0 .3919983 0 .4019928 0 .4019928 .018997193 .4019928 .0289917 .394989 .0289917 .36898805 .0289917 .2789917 .0289917 .2789917 .037994386 .2789917 .052978517 .2789917 .053970338 .2789917 .06097412 .2829895 .07696533L.4169922 .6096344Z"/>
<path id="font_5_3" d="M.18399048 .3826599C.18399048 .4096527 .16099549 .43066407 .13598633 .43066407 .10699463 .43066407 .08699036 .4076538 .08699036 .3826599 .08699036 .35266114 .11199951 .33364869 .1349945 .33364869 .1619873 .33364869 .18399048 .35466004 .18399048 .3826599M.18399048 .04899597C.18399048 .07598877 .16099549 .09700012 .13598633 .09700012 .10699463 .09700012 .08699036 .07398987 .08699036 .04899597 .08699036 .018997193 .11199951 0 .1349945 0 .1619873 0 .18399048 .020996094 .18399048 .04899597Z"/>
<path id="font_6_1" d="M.83399966 .23046875C.7789917 .1884613 .7519989 .14746094 .74398806 .13446045 .69898989 .065460208 .69099429 .002456665 .69099429 .0014648438 .69099429-.010543823 .7029877-.010543823 .71099856-.010543823 .7279968-.010543823 .72898867-.008544922 .73298647 .009460449 .7559967 .10746765 .8149872 .19146729 .9279938 .23745728 .9399872 .24145508 .94299319 .24345398 .94299319 .25045777 .94299319 .25746156 .93699648 .26046754 .93499758 .26145936 .8909912 .27845765 .769989 .3284607 .7319946 .49645997 .72898867 .5084686 .7279968 .51145938 .71099856 .51145938 .7029877 .51145938 .69099429 .51145938 .69099429 .49946595 .69099429 .49746705 .69999697 .4344635 .74198916 .36746217 .7619934 .33746339 .79100039 .30245973 .83399966 .27046205H.09098816C.07299805 .27046205 .054992677 .27046205 .054992677 .25045777 .054992677 .23046875 .07299805 .23046875 .09098816 .23046875H.83399966Z"/>
<path id="font_4_1" d="M.28199769 .20405579C.2979889 .21907044 .33999635 .2520752 .35598756 .26608277 .41799928 .32312013 .47698976 .3781433 .47698976 .46917726 .47698976 .588089 .3769989 .66503909 .2519989 .66503909 .13198853 .66503909 .052993776 .57411196 .052993776 .48516847 .052993776 .4361725 .09199524 .4291687 .10598755 .4291687 .1269989 .4291687 .1579895 .4441681 .1579895 .48217774 .1579895 .5341797 .10798645 .5341797 .09599304 .5341797 .125 .6070709 .19198609 .6320343 .24099732 .6320343 .33399964 .6320343 .38198854 .55314639 .38198854 .46917726 .38198854 .36514283 .30899049 .28910829 .19099427 .16804505L.06498718 .037994386C.052993776 .026992798 .052993776 .024993897 .052993776 0H.44799806L.47698976 .17904663H.44599916C.44299317 .1590271 .43499757 .10900879 .4229889 .08999634 .4169922 .08198547 .34098817 .08198547 .32499696 .08198547H.14698792L.28199769 .20405579Z"/>
<path id="font_5_1" d="M.32499696-.24298096C.32499696-.23999024 .32499696-.23799134 .30799867-.22097779 .20799256-.11997986 .1519928 .045013429 .1519928 .24900818 .1519928 .44299317 .19898987 .60998538 .31498719 .7279968 .32499696 .7369995 .32499696 .7389984 .32499696 .74198916 .32499696 .74798586 .31999208 .75 .31599427 .75 .30299378 .75 .22099304 .6779938 .17199707 .5799866 .12098694 .47898866 .09799194 .37199403 .09799194 .24900818 .09799194 .16000366 .11199951 .041015626 .1639862-.06599426 .22299195-.18598938 .30499269-.25097657 .31599427-.25097657 .31999208-.25097657 .32499696-.24897766 .32499696-.24298096Z"/>
<path id="font_5_2" d="M.28199769 .24900818C.28199769 .32499696 .27198792 .44898988 .21598816 .5649872 .15699768 .68499758 .07499695 .75 .06399536 .75 .05999756 .75 .054992677 .74798586 .054992677 .74198916 .054992677 .7389984 .054992677 .7369995 .07199097 .71998599 .17199707 .61898806 .22799683 .45399476 .22799683 .25 .22799683 .056015016 .18099976-.11099243 .06498718-.22898865 .054992677-.23799134 .054992677-.23999024 .054992677-.24298096 .054992677-.24897766 .05999756-.25097657 .06399536-.25097657 .07699585-.25097657 .15899658-.1789856 .20799256-.08099365 .25898744 .021011353 .28199769 .12901306 .28199769 .24900818Z"/>
<path id="font_2_43" d="M.4059906 .1191864C.4059906 .12817383 .39898683 .12817383 .3959961 .12817383 .3869934 .12817383 .38598634 .1251831 .3829956 .1131897 .36099244 .04222107 .30699159 .01222229 .25299073 .01222229 .19198609 .01222229 .11099243 .065200809 .11099243 .21713257 .11099243 .3831482 .19599915 .4242859 .24598694 .4242859 .28399659 .4242859 .33898927 .40924073 .3619995 .3701172 .34999085 .3701172 .31298829 .3701172 .31298829 .32911683 .31298829 .30511476 .32998658 .28811646 .35398866 .28811646 .3769989 .28811646 .3959961 .30210877 .3959961 .33111573 .3959961 .39819337 .32598878 .44628907 .24499512 .44628907 .12799073 .44628907 .034988405 .34210206 .034988405 .21614075 .034988405 .0881958 .1309967-.009765625 .24398804-.009765625 .37599183-.009765625 .4059906 .110183719 .4059906 .1191864Z"/>
<path id="font_2_64" d="M.2709961 .18916321V.24316406H.010986328V.18916321H.2709961Z"/>
</defs>
<path transform="matrix(1.00002,0,0,-1.00006,30.830018,73.366519)" stroke-width=".3985" stroke-linecap="butt" stroke-miterlimit="10" stroke-linejoin="miter" fill="none" stroke="#000000" d="M0 0H43.19984"/>
<path transform="matrix(1.00002,0,0,-1.00006,30.830018,73.366519)" stroke-width=".3985" stroke-linecap="butt" stroke-miterlimit="10" stroke-linejoin="miter" fill="none" stroke="#000000" d="M0 0V43.19984"/>
<path transform="matrix(1.00002,0,0,-1.00006,30.830018,73.366519)" stroke-width=".3985" stroke-linecap="butt" stroke-miterlimit="10" stroke-linejoin="miter" fill="none" stroke="#000000" d="M0 0-28.7999-14.39995"/>
<path transform="matrix(1.00002,0,0,-1.00006,30.830018,73.366519)" stroke-width=".79701" stroke-linecap="butt" stroke-miterlimit="10" stroke-linejoin="miter" fill="none" stroke="#0000ff" d="M0 0 24.62994 12.315"/>
<path transform="matrix(.89437797,-.4471968,-.44717894,-.89441367,55.46045,61.050779)" d="M4.66248 0C3.28098 .25902 1.0361 1.0361-.51805 1.94269V-1.94269C1.0361-1.0361 3.28098-.25902 4.66248 0" fill="#0000ff"/>
<use data-text="&#x20d7;" xlink:href="#font_1_3" transform="matrix(11.95544,0,0,-11.955917,63.53667,54.58239)" fill="#0000ff"/>
<use data-text="v" xlink:href="#font_1_2" transform="matrix(11.95544,0,0,-11.955917,64.02684,54.58239)" fill="#0000ff"/>
<use data-text="d" xlink:href="#font_2_47" transform="matrix(11.95544,0,0,-11.955917,20.613812,92.44566)"/>
<use data-text="o" xlink:href="#font_2_81" transform="matrix(11.95544,0,0,-11.955917,27.117569,92.44566)"/>
<use data-text="m" xlink:href="#font_2_75" transform="matrix(11.95544,0,0,-11.955917,32.975736,92.44566)"/>
<use data-text="a" xlink:href="#font_2_28" transform="matrix(11.95544,0,0,-11.955917,42.731374,92.44566)"/>
<use data-text="i" xlink:href="#font_2_66" transform="matrix(11.95544,0,0,-11.955917,48.589544,92.44566)"/>
<use data-text="n" xlink:href="#font_2_77" transform="matrix(11.95544,0,0,-11.955917,51.84142,92.44566)"/>
<use data-text="R" xlink:href="#font_3_1" transform="matrix(11.95544,0,0,-11.955917,62.24265,92.44566)"/>
<use data-text="3" xlink:href="#font_4_2" transform="matrix(7.9702599,0,0,-7.9705779,70.876819,88.1064)"/>
<path transform="matrix(1.00002,0,0,-1.00006,30.830018,73.366519)" stroke-width=".3985" stroke-linecap="butt" stroke-dasharray="2.98883,2.98883" stroke-miterlimit="10" stroke-linejoin="miter" fill="none" stroke="#000000" d="M43.19984 43.19984C62.65279 54.43098 81.34673 54.43098 97.69368 44.99306"/>
<path transform="matrix(.86602738,.50000998,.49999003,-.8660619,128.52564,28.37075)" d="M3.58653 0C2.52383 .19925 .797 .797-.3985 1.49438V-1.49438C.797-.797 2.52383-.19925 3.58653 0"/>
<use data-text="L" xlink:href="#font_2_71" transform="matrix(11.95544,0,0,-11.955917,12.805656,11.459805)"/>
<use data-text="i" xlink:href="#font_2_66" transform="matrix(11.95544,0,0,-11.955917,20.122384,11.459805)"/>
<use data-text="n" xlink:href="#font_2_77" transform="matrix(11.95544,0,0,-11.955917,23.374264,11.459805)"/>
<use data-text="e" xlink:href="#font_2_50" transform="matrix(11.95544,0,0,-11.955917,29.878022,11.459805)"/>
<use data-text="a" xlink:href="#font_2_28" transform="matrix(11.95544,0,0,-11.955917,35.078645,11.459805)"/>
<use data-text="r" xlink:href="#font_2_96" transform="matrix(11.95544,0,0,-11.955917,40.936807,11.459805)"/>
<use data-text="t" xlink:href="#font_2_105" transform="matrix(11.95544,0,0,-11.955917,49.377344,11.459805)"/>
<use data-text="r" xlink:href="#font_2_96" transform="matrix(11.95544,0,0,-11.955917,53.932367,11.459805)"/>
<use data-text="a" xlink:href="#font_2_28" transform="matrix(11.95544,0,0,-11.955917,58.48739,11.459805)"/>
<use data-text="n" xlink:href="#font_2_77" transform="matrix(11.95544,0,0,-11.955917,64.35751,11.459805)"/>
<use data-text="s" xlink:href="#font_2_98" transform="matrix(11.95544,0,0,-11.955917,70.861278,11.459805)"/>
<use data-text="f" xlink:href="#font_2_55" transform="matrix(11.95544,0,0,-11.955917,75.476078,11.459805)"/>
<use data-text="o" xlink:href="#font_2_81" transform="matrix(11.95544,0,0,-11.955917,79.05075,11.459805)"/>
<use data-text="r" xlink:href="#font_2_96" transform="matrix(11.95544,0,0,-11.955917,84.90892,11.459805)"/>
<use data-text="m" xlink:href="#font_2_75" transform="matrix(11.95544,0,0,-11.955917,89.46394,11.459805)"/>
<use data-text="a" xlink:href="#font_2_28" transform="matrix(11.95544,0,0,-11.955917,99.21958,11.459805)"/>
<use data-text="t" xlink:href="#font_2_105" transform="matrix(11.95544,0,0,-11.955917,105.07775,11.459805)"/>
<use data-text="i" xlink:href="#font_2_66" transform="matrix(11.95544,0,0,-11.955917,109.632778,11.459805)"/>
<use data-text="o" xlink:href="#font_2_81" transform="matrix(11.95544,0,0,-11.955917,112.88465,11.459805)"/>
<use data-text="n" xlink:href="#font_2_77" transform="matrix(11.95544,0,0,-11.955917,118.74282,11.459805)"/>
<use data-text="T" xlink:href="#font_1_1" transform="matrix(11.95544,0,0,-11.955917,129.14398,11.459805)"/>
<use data-text=":" xlink:href="#font_5_3" transform="matrix(11.95544,0,0,-11.955917,140.95124,11.459805)"/>
<use data-text="R" xlink:href="#font_3_1" transform="matrix(11.95544,0,0,-11.955917,147.52436,11.459805)"/>
<use data-text="3" xlink:href="#font_4_2" transform="matrix(7.9702599,0,0,-7.9705779,156.15854,7.1205484)"/>
<use data-text="&#x2192;" xlink:href="#font_6_1" transform="matrix(11.95544,0,0,-11.955917,164.21167,11.459805)"/>
<use data-text="R" xlink:href="#font_3_1" transform="matrix(11.95544,0,0,-11.955917,179.48798,11.459805)"/>
<use data-text="2" xlink:href="#font_4_1" transform="matrix(7.9702599,0,0,-7.9705779,188.12317,7.1205484)"/>
<path transform="matrix(1.00002,0,0,-1.00006,30.830018,73.366519)" stroke-width=".3985" stroke-linecap="butt" stroke-miterlimit="10" stroke-linejoin="miter" fill="none" stroke="#000000" d="M100.79965 7.19997H158.39948"/>
<path transform="matrix(1.00002,0,0,-1.00006,30.830018,73.366519)" stroke-width=".3985" stroke-linecap="butt" stroke-miterlimit="10" stroke-linejoin="miter" fill="none" stroke="#000000" d="M129.59957-21.59991V35.99988"/>
<path transform="matrix(1.00002,0,0,-1.00006,30.830018,73.366519)" stroke-width=".79701" stroke-linecap="butt" stroke-miterlimit="10" stroke-linejoin="miter" fill="none" stroke="#ff0000" d="M129.59957 7.19997 111.87888 19.01385"/>
<path transform="matrix(-.8320367,-.5546933,-.5546711,.8320699,142.71115,54.351537)" d="M4.66248 0C3.28098 .25902 1.0361 1.0361-.51805 1.94269V-1.94269C1.0361-1.0361 3.28098-.25902 4.66248 0" fill="#ff0000"/>
<use data-text="T" xlink:href="#font_1_1" transform="matrix(11.95544,0,0,-11.955917,110.76762,44.392778)" fill="#ff0000"/>
<use data-text="(" xlink:href="#font_5_1" transform="matrix(11.95544,0,0,-11.955917,119.25478,44.392778)" fill="#ff0000"/>
<use data-text="&#x20d7;" xlink:href="#font_1_3" transform="matrix(11.95544,0,0,-11.955917,123.329868,44.392778)" fill="#ff0000"/>
<use data-text="v" xlink:href="#font_1_2" transform="matrix(11.95544,0,0,-11.955917,123.82004,44.392778)" fill="#ff0000"/>
<use data-text=")" xlink:href="#font_5_2" transform="matrix(11.95544,0,0,-11.955917,129.895,44.392778)" fill="#ff0000"/>
<use data-text="c" xlink:href="#font_2_43" transform="matrix(11.95544,0,0,-11.955917,164.6167,85.24523)"/>
<use data-text="o" xlink:href="#font_2_81" transform="matrix(11.95544,0,0,-11.955917,169.81732,85.24523)"/>
<use data-text="-" xlink:href="#font_2_64" transform="matrix(11.95544,0,0,-11.955917,175.67548,85.24523)"/>
<use data-text="d" xlink:href="#font_2_47" transform="matrix(11.95544,0,0,-11.955917,179.57295,85.24523)"/>
<use data-text="o" xlink:href="#font_2_81" transform="matrix(11.95544,0,0,-11.955917,186.07672,85.24523)"/>
<use data-text="m" xlink:href="#font_2_75" transform="matrix(11.95544,0,0,-11.955917,191.93488,85.24523)"/>
<use data-text="a" xlink:href="#font_2_28" transform="matrix(11.95544,0,0,-11.955917,201.69052,85.24523)"/>
<use data-text="i" xlink:href="#font_2_66" transform="matrix(11.95544,0,0,-11.955917,207.54868,85.24523)"/>
<use data-text="n" xlink:href="#font_2_77" transform="matrix(11.95544,0,0,-11.955917,210.80057,85.24523)"/>
<use data-text="R" xlink:href="#font_3_1" transform="matrix(11.95544,0,0,-11.955917,221.20183,85.24523)"/>
<use data-text="2" xlink:href="#font_4_1" transform="matrix(7.9702599,0,0,-7.9705779,229.836,80.905979)"/>
</svg>
