<svg xmlns="http://www.w3.org/2000/svg" xmlns:xlink="http://www.w3.org/1999/xlink" version="1.1" width="154" height="74" viewBox="0 0 154 74">
<defs>
<path id="font_1_3" d="M.27999879 .26478578C.27999879 .2657776 .272995 .2737732 .272995 .274765 .272995 .277771 .33599855 .33171083 .34399415 .33970643 .41299439 .3996582 .45700074 .40065003 .47799684 .4016571V.43066407C.45799256 .4286499 .43199159 .4286499 .4019928 .4286499 .37599183 .4286499 .32499696 .4286499 .3019867 .43066407V.4016571C.31900025 .40065003 .33099366 .3916626 .33099366 .3756714 .33099366 .35569764 .31098939 .33770753 .30999757 .33770753L.16699219 .21182251V.69433596L.027999878 .68333438V.6543274C.09599304 .6543274 .10398865 .64730837 .10398865 .5981598V.07394409C.10398865 .0289917 .09298706 .0289917 .027999878 .0289917V0C.055999757 .0019989014 .10398865 .0019989014 .13398743 .0019989014 .1639862 .0019989014 .21199036 .0019989014 .23999024 0V.0289917C.17599488 .0289917 .1639862 .0289917 .1639862 .07394409V.17985535L.22799683 .23580933 .32398988 .09793091C.33898927 .07695007 .34599305 .065963748 .34599305 .051971437 .34599305 .033981325 .33198548 .0289917 .31098939 .0289917V0C.33599855 .0019989014 .3849945 .0019989014 .4119873 .0019989014 .45498658 .0019989014 .45700074 .0019989014 .5 0V.0289917C.47299195 .0289917 .44198609 .0289917 .4139862 .06996155L.27999879 .26478578Z"/>
<path id="font_1_2" d="M.3829956 .23242188C.40499879 .23242188 .40699769 .23242188 .40699769 .25141908 .40699769 .3523407 .35299684 .44628907 .23199463 .44628907 .117996219 .44628907 .02999878 .343338 .02999878 .21940613 .02999878 .08729553 .13198853-.009765625 .24299622-.009765625 .3619995-.009765625 .40699769 .09829712 .40699769 .11932373 .40699769 .12532044 .4019928 .1293335 .3959961 .1293335 .3880005 .1293335 .38598634 .12432861 .38398744 .11932373 .35798646 .035247804 .29100038 .01222229 .24899292 .01222229 .20698548 .01222229 .10598755 .040252687 .10598755 .21339417V.23242188H.3829956M.10699463 .25141908C.114990238 .40829469 .20298767 .4262848 .23098755 .4262848 .33799745 .4262848 .34399415 .28538514 .34498597 .25141908H.10699463Z"/>
<path id="font_1_4" d="M.16699219 .23320008C.16699219 .330307 .20698548 .42140199 .28399659 .42140199 .2919922 .42140199 .2939911 .42140199 .2979889 .4203949 .2899933 .4163971 .27398683 .41038514 .27398683 .38336183 .27398683 .35432435 .29699708 .34332276 .31298829 .34332276 .33299256 .34332276 .35299684 .35632325 .35299684 .38336183 .35299684 .4133911 .32598878 .44140626 .2829895 .44140626 .19799805 .44140626 .16899109 .34931947 .16299439 .330307H.1619873V.44140626L.027999878 .43040467V.40138246C.09599304 .40138246 .10398865 .3943634 .10398865 .34532167V.074035648C.10398865 .0289917 .09298706 .0289917 .027999878 .0289917V0C.055999757 .0019989014 .11099243 .0019989014 .14099121 .0019989014 .16799927 .0019989014 .23899842 .0019989014 .2619934 0V.0289917H.24198914C.16899109 .0289917 .16699219 .040008546 .16699219 .076034549V.23320008Z"/>
<path id="font_2_1" d="M.4169922 .6096344C.4229889 .6336212 .4249878 .64260867 .43998719 .64660647 .44799806 .64860537 .48098756 .64860537 .5019989 .64860537 .60198977 .64860537 .6489868 .64460757 .6489868 .5666504 .6489868 .55166628 .644989 .51368716 .6389923 .4767151L.6380005 .46472169C.6380005 .46072389 .6419983 .45472718 .647995 .45472718 .6579895 .45472718 .6579895 .4597168 .6609955 .475708L.6899872 .65260317C.69200137 .66160586 .69200137 .66360476 .69200137 .6666107 .69200137 .6776123 .6859894 .6776123 .66600039 .6776123H.11898804C.09599304 .6776123 .09498596 .6766052 .08898926 .6586151L.027999878 .478714C.026992798 .4767151 .023986817 .4657135 .023986817 .46472169 .023986817 .4597168 .027999878 .45472718 .033996583 .45472718 .041992189 .45472718 .04399109 .45872499 .04798889 .4717102 .08999634 .5926361 .11099243 .64860537 .24398804 .64860537H.31098939C.33499146 .64860537 .34498597 .64860537 .34498597 .637619 .34498597 .63461306 .34498597 .63261416 .33999635 .614624L.20599365 .07795715C.19599915 .038986207 .19400025 .0289917 .08799744 .0289917 .06298828 .0289917 .055999757 .0289917 .055999757 .009994507 .055999757 0 .066986087 0 .07199097 0 .09700012 0 .12298584 .0019989014 .147995 .0019989014H.3039856C.32899476 .0019989014 .35598756 0 .3809967 0 .3919983 0 .4019928 0 .4019928 .018997193 .4019928 .0289917 .394989 .0289917 .36898805 .0289917 .2789917 .0289917 .2789917 .037994386 .2789917 .052978517 .2789917 .053970338 .2789917 .06097412 .2829895 .07696533L.4169922 .6096344Z"/>
<path id="font_2_2" d="M.5349884 .5967865C.522995 .5857849 .48599244 .55078127 .48599244 .5367737 .48599244 .5267792 .49499513 .5177765 .5049896 .5177765 .5139923 .5177765 .5179901 .52378848 .5249939 .53378298 .548996 .56378176 .57598879 .58277896 .598999 .5957794 .60899356 .6017761 .6159973 .6047821 .6159973 .6157837 .6159973 .6247864 .60798647 .629776 .60198977 .6347809 .57398989 .6537781 .5669861 .68078616 .56399539 .69277957 .5609894 .70077517 .55799868 .7127838 .5439911 .7127838 .5379944 .7127838 .526001 .708786 .526001 .6937866 .526001 .68478396 .5319977 .66078189 .5509949 .63378909H.21499634C.19799805 .63378909 .18099976 .63378909 .18099976 .6147766 .18099976 .5967865 .19898987 .5967865 .21499634 .5967865H.5349884Z"/>
<path id="font_1_1" d="M.44799806 .31976319C.44799806 .40283204 .44299317 .48390199 .40699769 .55996707 .3659973 .64302065 .2939911 .66503909 .24499512 .66503909 .18699646 .66503909 .115997318 .63601687 .07899475 .552948 .050994874 .48989869 .040985109 .42785646 .040985109 .31976319 .040985109 .22268677 .04798889 .14962769 .083999637 .078567508 .12298584 .0025177003 .19198609-.021484375 .24398804-.021484375 .33099366-.021484375 .3809967 .030532837 .4099884 .08857727 .44599916 .16363526 .44799806 .26171876 .44799806 .31976319M.24398804-.0014953613C.21199036-.0014953613 .14698792 .016525269 .12799073 .12561035 .116989139 .18565369 .116989139 .26171876 .116989139 .33177186 .116989139 .41384889 .116989139 .48789979 .1329956 .5469513 .1499939 .6139984 .20098877 .6450348 .24398804 .6450348 .28199769 .6450348 .33999635 .6220093 .35899354 .53593447 .37199403 .4788971 .37199403 .39982606 .37199403 .33177186 .37199403 .26472474 .37199403 .18865967 .36099244 .12760926 .34199525 .01751709 .2789917-.0014953613 .24398804-.0014953613Z"/>
</defs>
<path transform="matrix(1.00008,0,0,-1.00009,33.630369,39.971597)" stroke-width=".3985" stroke-linecap="butt" stroke-miterlimit="10" stroke-linejoin="miter" fill="none" stroke="#000000" d="M0 0H32.3991"/>
<use data-text="k" xlink:href="#font_1_3" transform="matrix(11.956157,0,0,-11.956276,37.8147,52.458719)"/>
<use data-text="e" xlink:href="#font_1_2" transform="matrix(11.956157,0,0,-11.956276,43.673219,52.458719)"/>
<use data-text="r" xlink:href="#font_1_4" transform="matrix(11.956157,0,0,-11.956276,48.874155,52.458719)"/>
<use data-text="T" xlink:href="#font_2_1" transform="matrix(11.956157,0,0,-11.956276,55.417108,52.458719)"/>
<path transform="matrix(1.00008,0,0,-1.00009,33.630369,39.971597)" stroke-width=".3985" stroke-linecap="butt" stroke-miterlimit="10" stroke-linejoin="miter" fill="none" stroke="#000000" d="M0 0V32.3991"/>
<path transform="matrix(1.00008,0,0,-1.00009,33.630369,39.971597)" stroke-width=".3985" stroke-linecap="butt" stroke-miterlimit="10" stroke-linejoin="miter" fill="none" stroke="#000000" d="M0 0-21.5994-10.7997"/>
<path transform="matrix(1.00008,0,0,-1.00009,33.630369,39.971597)" stroke-width=".79701" stroke-linecap="butt" stroke-miterlimit="10" stroke-linejoin="miter" fill="none" stroke="#0000ff" d="M-29.10222-29.10222 29.10222 29.10222"/>
<path transform="matrix(-.70715656,.70716366,.70715656,.70716366,4.5258409,69.076419)" d="M4.66248 0C3.28098 .25902 1.0361 1.0361-.51805 1.94269V-1.94269C1.0361-1.0361 3.28098-.25902 4.66248 0" fill="#0000ff"/>
<path transform="matrix(.70715656,-.70716366,-.70715656,-.70716366,62.734895,10.866777)" d="M4.66248 0C3.28098 .25902 1.0361 1.0361-.51805 1.94269V-1.94269C1.0361-1.0361 3.28098-.25902 4.66248 0" fill="#0000ff"/>
<path transform="matrix(1.00008,0,0,-1.00009,33.630369,39.971597)" stroke-width=".3985" stroke-linecap="butt" stroke-dasharray="2.98883,2.98883" stroke-miterlimit="10" stroke-linejoin="miter" fill="none" stroke="#000000" d="M37.79893 32.3991C50.56459 39.76932 62.83223 39.76932 72.4919 34.19229"/>
<path transform="matrix(.8660793,.500025,.50001999,-.866088,106.12805,5.7762186)" d="M3.58653 0C2.52383 .19925 .797 .797-.3985 1.49438V-1.49438C.797-.797 2.52383-.19925 3.58653 0"/>
<path transform="matrix(1.00008,0,0,-1.00009,33.630369,39.971597)" stroke-width=".3985" stroke-linecap="butt" stroke-miterlimit="10" stroke-linejoin="miter" fill="none" stroke="#000000" d="M75.59789 5.39984H118.79668"/>
<path transform="matrix(1.00008,0,0,-1.00009,33.630369,39.971597)" stroke-width=".3985" stroke-linecap="butt" stroke-miterlimit="10" stroke-linejoin="miter" fill="none" stroke="#000000" d="M97.19728-16.19954V26.99924"/>
<path transform="matrix(1.00008,0,0,-1.00009,33.630369,39.971597)" d="M99.35718 5.39984C99.35718 6.59273 98.39017 7.55974 97.19728 7.55974 96.0044 7.55974 95.03738 6.59273 95.03738 5.39984 95.03738 4.20695 96.0044 3.23994 97.19728 3.23994 98.39017 3.23994 99.35718 4.20695 99.35718 5.39984ZM97.19728 5.39984" fill="#0000ff"/>
<use data-text="&#x20d7;" xlink:href="#font_2_2" transform="matrix(11.956157,0,0,-11.956276,119.87827,27.829506)" fill="#0000ff"/>
<use data-text="0" xlink:href="#font_1_1" transform="matrix(11.956157,0,0,-11.956276,120.79735,30.386734)" fill="#0000ff"/>
</svg>
