<svg xmlns="http://www.w3.org/2000/svg" xmlns:xlink="http://www.w3.org/1999/xlink" version="1.1" width="417" height="77" viewBox="0 0 417 77">
<defs>
<path id="font_1_4" d="M.5349884 .5967865C.522995 .5857849 .48599244 .55078127 .48599244 .5367737 .48599244 .5267792 .49499513 .5177765 .5049896 .5177765 .5139923 .5177765 .5179901 .52378848 .5249939 .53378298 .548996 .56378176 .57598879 .58277896 .598999 .5957794 .60899356 .6017761 .6159973 .6047821 .6159973 .6157837 .6159973 .6247864 .60798647 .629776 .60198977 .6347809 .57398989 .6537781 .5669861 .68078616 .56399539 .69277957 .5609894 .70077517 .55799868 .7127838 .5439911 .7127838 .5379944 .7127838 .526001 .708786 .526001 .6937866 .526001 .68478396 .5319977 .66078189 .5509949 .63378909H.21499634C.19799805 .63378909 .18099976 .63378909 .18099976 .6147766 .18099976 .5967865 .19898987 .5967865 .21499634 .5967865H.5349884Z"/>
<path id="font_1_2" d="M.45700074 .3743744C.45700074 .4373932 .4249878 .44140626 .4169922 .44140626 .3929901 .44140626 .37098695 .41740418 .37098695 .39738465 .37098695 .38539125 .37799073 .37838746 .38198854 .3743744 .3919983 .3653717 .41799928 .33836366 .41799928 .28634645 .41799928 .24432373 .35798646 .010223389 .23799134 .010223389 .1769867 .010223389 .16499329 .06124878 .16499329 .0982666 .16499329 .14828491 .18798828 .2183075 .21499634 .29034425 .23098755 .33135987 .23498535 .34136964 .23498535 .3613739 .23498535 .4033966 .20498657 .44140626 .1559906 .44140626 .06399536 .44140626 .026992798 .29634095 .026992798 .28834535 .026992798 .28434754 .0309906 .27934266 .037994386 .27934266 .04699707 .27934266 .04798889 .28334046 .051986696 .29734803 .07598877 .38337709 .114990238 .42140199 .15299988 .42140199 .1619873 .42140199 .1789856 .42140199 .1789856 .38838197 .1789856 .36238099 .16799927 .33335877 .15299988 .29534913 .10499573 .16729737 .10499573 .13627625 .10499573 .11227417 .10499573 .09025574 .10798645 .049240114 .13899231 .021224976 .1749878-.009765625 .22499085-.009765625 .23399353-.009765625 .3999939-.009765625 .45700074 .3173523 .45700074 .3743744Z"/>
<path id="font_1_3" d="M.34399415 .06124878C.3659973 .0012207031 .42799378-.009765625 .46598817-.009765625 .5419922-.009765625 .58699038 .056243898 .61499026 .12527466 .6380005 .18330384 .6749878 .3153534 .6749878 .3743744 .6749878 .4353943 .6439972 .44140626 .6349945 .44140626 .61099246 .44140626 .58898928 .41740418 .58898928 .39738465 .58898928 .38539125 .59599307 .37838746 .6009979 .3743744 .6100006 .3653717 .6359863 .33836366 .6359863 .28634645 .6359863 .2523346 .60798647 .15829468 .58699038 .11126709 .5589905 .050247194 .5219879 .010223389 .46998597 .010223389 .4139862 .010223389 .3959961 .0521698 .3959961 .098098758 .3959961 .12705994 .40499879 .16200257 .40899659 .1789856L.45098878 .34674073C.45599366 .36671449 .46499635 .40167237 .46499635 .4056549 .46499635 .4206543 .45298768 .43066407 .43798829 .43066407 .40899659 .43066407 .4019928 .4056549 .3959961 .3816986 .38598634 .34275819 .34399415 .17399597 .33999635 .15202332 .33599855 .13505554 .33599855 .124069217 .33599855 .10209656 .33599855 .078125 .3039856 .04017639 .30299378 .03819275 .2919922 .02720642 .27598573 .010223389 .24499512 .010223389 .1659851 .010223389 .1659851 .085250858 .1659851 .102264408 .1659851 .13427735 .17298889 .17829895 .21798706 .29734803 .22999573 .32835389 .23498535 .34136964 .23498535 .3613739 .23498535 .4033966 .20498657 .44140626 .1559906 .44140626 .06399536 .44140626 .026992798 .29634095 .026992798 .28834535 .026992798 .28434754 .0309906 .27934266 .037994386 .27934266 .04699707 .27934266 .04798889 .28334046 .051986696 .29734803 .07699585 .38539125 .115997318 .42140199 .15299988 .42140199 .16299439 .42140199 .1789856 .4203949 .1789856 .38838197 .1789856 .38337709 .1789856 .36238099 .1619873 .31835938 .114990238 .19329834 .10499573 .15228272 .10499573 .11427307 .10499573 .009231567 .19099427-.009765625 .24198914-.009765625 .25898744-.009765625 .3039856-.009765625 .34399415 .06124878Z"/>
<path id="font_1_1" d="M.4169922 .6096344C.4229889 .6336212 .4249878 .64260867 .43998719 .64660647 .44799806 .64860537 .48098756 .64860537 .5019989 .64860537 .60198977 .64860537 .6489868 .64460757 .6489868 .5666504 .6489868 .55166628 .644989 .51368716 .6389923 .4767151L.6380005 .46472169C.6380005 .46072389 .6419983 .45472718 .647995 .45472718 .6579895 .45472718 .6579895 .4597168 .6609955 .475708L.6899872 .65260317C.69200137 .66160586 .69200137 .66360476 .69200137 .6666107 .69200137 .6776123 .6859894 .6776123 .66600039 .6776123H.11898804C.09599304 .6776123 .09498596 .6766052 .08898926 .6586151L.027999878 .478714C.026992798 .4767151 .023986817 .4657135 .023986817 .46472169 .023986817 .4597168 .027999878 .45472718 .033996583 .45472718 .041992189 .45472718 .04399109 .45872499 .04798889 .4717102 .08999634 .5926361 .11099243 .64860537 .24398804 .64860537H.31098939C.33499146 .64860537 .34498597 .64860537 .34498597 .637619 .34498597 .63461306 .34498597 .63261416 .33999635 .614624L.20599365 .07795715C.19599915 .038986207 .19400025 .0289917 .08799744 .0289917 .06298828 .0289917 .055999757 .0289917 .055999757 .009994507 .055999757 0 .066986087 0 .07199097 0 .09700012 0 .12298584 .0019989014 .147995 .0019989014H.3039856C.32899476 .0019989014 .35598756 0 .3809967 0 .3919983 0 .4019928 0 .4019928 .018997193 .4019928 .0289917 .394989 .0289917 .36898805 .0289917 .2789917 .0289917 .2789917 .037994386 .2789917 .052978517 .2789917 .053970338 .2789917 .06097412 .2829895 .07696533L.4169922 .6096344Z"/>
<path id="font_2_1" d="M.32499696-.24298096C.32499696-.23999024 .32499696-.23799134 .30799867-.22097779 .20799256-.11997986 .1519928 .045013429 .1519928 .24900818 .1519928 .44299317 .19898987 .60998538 .31498719 .7279968 .32499696 .7369995 .32499696 .7389984 .32499696 .74198916 .32499696 .74798586 .31999208 .75 .31599427 .75 .30299378 .75 .22099304 .6779938 .17199707 .5799866 .12098694 .47898866 .09799194 .37199403 .09799194 .24900818 .09799194 .16000366 .11199951 .041015626 .1639862-.06599426 .22299195-.18598938 .30499269-.25097657 .31599427-.25097657 .31999208-.25097657 .32499696-.24897766 .32499696-.24298096Z"/>
<path id="font_2_2" d="M.28199769 .24900818C.28199769 .32499696 .27198792 .44898988 .21598816 .5649872 .15699768 .68499758 .07499695 .75 .06399536 .75 .05999756 .75 .054992677 .74798586 .054992677 .74198916 .054992677 .7389984 .054992677 .7369995 .07199097 .71998599 .17199707 .61898806 .22799683 .45399476 .22799683 .25 .22799683 .056015016 .18099976-.11099243 .06498718-.22898865 .054992677-.23799134 .054992677-.23999024 .054992677-.24298096 .054992677-.24897766 .05999756-.25097657 .06399536-.25097657 .07699585-.25097657 .15899658-.1789856 .20799256-.08099365 .25898744 .021011353 .28199769 .12901306 .28199769 .24900818Z"/>
<path id="font_3_66" d="M.24099732 0V.0289917C.17599488 .0289917 .17199707 .033996583 .17199707 .07304382V.44140626L.035995485 .4303589V.4013672C.099990848 .4013672 .10899353 .39535523 .10899353 .34629823V.074035648C.10899353 .0289917 .09799194 .0289917 .032989503 .0289917V0C.06098938 .0019989014 .10899353 .0019989014 .13798523 .0019989014 .14898682 .0019989014 .20698548 .0019989014 .24099732 0M.18499756 .6043091C.18499756 .63430789 .16099549 .6533203 .13699341 .6533203 .10899353 .6533203 .08799744 .63131716 .08799744 .6043091 .08799744 .5783081 .10998535 .55630496 .13598633 .55630496 .1659851 .55630496 .18499756 .580307 .18499756 .6043091Z"/>
<path id="font_3_77" d="M.5209961 0V.0289917C.47099305 .0289917 .44599916 .0289917 .44499208 .059051515V.24342346C.44499208 .3365631 .44499208 .36450196 .42199708 .39640809 .3929901 .4353943 .34599305 .44140626 .31199647 .44140626 .21499634 .44140626 .1769867 .35850526 .16899109 .338562H.16799927V.44140626L.03199768 .4303589V.4013672C.099990848 .4013672 .10798645 .39437867 .10798645 .34553529V.07408142C.10798645 .0289917 .09700012 .0289917 .03199768 .0289917V0C.057998659 .0019989014 .11199951 .0019989014 .13999939 .0019989014 .16899109 .0019989014 .22299195 .0019989014 .24899292 0V.0289917C.18499756 .0289917 .17298889 .0289917 .17298889 .07408142V.26046754C.17298889 .36547853 .24198914 .4213562 .3039856 .4213562 .3659973 .4213562 .37998963 .37045289 .37998963 .3095703V.07408142C.37998963 .0289917 .36898805 .0289917 .3039856 .0289917V0C.32998658 .0019989014 .38398744 .0019989014 .4119873 .0019989014 .44099427 .0019989014 .49499513 .0019989014 .5209961 0Z"/>
<path id="font_3_68" d="M.20298767-.05088806V.44140626L.055999757 .43040467V.4013977C.1309967 .4013977 .13999939 .39439393 .13999939 .34536744V-.054885866C.13999939-.10992432 .1289978-.18392945 .070999149-.18392945 .070999149-.18392945 .037994386-.18392945 .01499939-.16992188 .040985109-.16500855 .04899597-.14601135 .04899597-.12901306 .04899597-.10600281 .03199768-.088012699 .0079956059-.088012699-.01701355-.0879364-.03401184-.10592651-.03401184-.12992859-.03401184-.17797852 .019989014-.20410156 .07199097-.20410156 .14399719-.20410156 .20298767-.141922 .20298767-.050933839V-.05088806M.20399475 .6043091C.20399475 .63430789 .17999268 .6533203 .1559906 .6533203 .12799073 .6533203 .10699463 .63131716 .10699463 .6043091 .10699463 .5783081 .1289978 .55630496 .15499878 .55630496 .18499756 .55630496 .20399475 .580307 .20399475 .6043091Z"/>
<path id="font_3_50" d="M.40699769 .11932373C.40699769 .1253357 .4019928 .1293335 .3959961 .1293335 .3880005 .1293335 .38598634 .12432861 .38398744 .11932373 .35798646 .035247804 .29100038 .01222229 .24899292 .01222229 .20698548 .01222229 .10598755 .040252687 .10598755 .21340943V.23242188H.3829956C.40499879 .23242188 .40699769 .23242188 .40699769 .25141908 .40699769 .3523407 .35299684 .44628907 .23199463 .44628907 .117996219 .44628907 .02999878 .34335328 .02999878 .21940613 .02999878 .08729553 .13198853-.009765625 .24299622-.009765625 .3619995-.009765625 .40699769 .09829712 .40699769 .11932373M.34498597 .25141908H.10699463C.114990238 .40830995 .20298767 .42630006 .23098755 .42630006 .33799745 .42630006 .34399415 .28538514 .34498597 .25141908Z"/>
<path id="font_3_43" d="M.4059906 .1191864C.4059906 .12817383 .39898683 .12817383 .3959961 .12817383 .3869934 .12817383 .38598634 .1251831 .3829956 .1131897 .36099244 .04222107 .30699159 .01222229 .25299073 .01222229 .19198609 .01222229 .11099243 .065200809 .11099243 .21713257 .11099243 .3831482 .19599915 .4242859 .24598694 .4242859 .28399659 .4242859 .33898927 .40924073 .3619995 .3701172 .34999085 .3701172 .31298829 .3701172 .31298829 .32911683 .31298829 .30511476 .32998658 .28811646 .35398866 .28811646 .3769989 .28811646 .3959961 .30210877 .3959961 .33111573 .3959961 .39819337 .32598878 .44628907 .24499512 .44628907 .12799073 .44628907 .034988405 .34210206 .034988405 .21614075 .034988405 .0881958 .1309967-.009765625 .24398804-.009765625 .37599183-.009765625 .4059906 .110183719 .4059906 .1191864Z"/>
<path id="font_3_105" d="M.32598878 .124069217V.1809845H.3039856V.12606812C.3039856 .0541687 .2749939 .01222229 .23599243 .01222229 .16799927 .01222229 .16799927 .10508728 .16799927 .12207031V.4016571H.30899049V.43066407H.16799927V.6142578H.1459961C.14498902 .52046206 .10899353 .4246521 .017990113 .42166139V.4016571H.102996829V.124069217C.102996829 .01322937 .1769867-.009765625 .22999573-.009765625 .29299928-.009765625 .32598878 .0521698 .32598878 .124069217Z"/>
<path id="font_3_112" d="M.49798585 .4016571V.43066407C.46899415 .4286499 .45498658 .4286499 .42399598 .4286499L.34199525 .43066407V.4016571C.38398744 .3996582 .3889923 .3697052 .3889923 .35871888 .3889923 .34973146 .3869934 .34474183 .38198854 .3327484L.27999879 .07510376 .16799927 .35671998C.16299439 .37069703 .1619873 .37069703 .1619873 .37568666 .1619873 .4016571 .19999695 .4016571 .21798706 .4016571V.43066407C.19299317 .4286499 .14099121 .4286499 .11399841 .4286499L.017990113 .43066407V.4016571C.07398987 .4016571 .083999637 .3976593 .09599304 .36669923L.23899842 .00920105C.24398804-.004776001 .24598694-.009765625 .2579956-.009765625 .2649994-.009765625 .2709961-.0077819826 .27799989 .00920105L.4079895 .3357544C.4169922 .3577118 .43399049 .40066529 .49798585 .4016571Z"/>
<path id="font_2_3" d="M.6749878 .32421876C.68899539 .32421876 .70700076 .32421876 .70700076 .34220887 .70700076 .36120606 .6899872 .36120606 .6749878 .36120606H.085998538C.07199097 .36120606 .053985597 .36120606 .053985597 .34321595 .053985597 .32421876 .070999149 .32421876 .085998538 .32421876H.6749878M.6749878 .13780213C.68899539 .13780213 .70700076 .13780213 .70700076 .15579224 .70700076 .17480469 .6899872 .17480469 .6749878 .17480469H.085998538C.07199097 .17480469 .053985597 .17480469 .053985597 .15679932 .053985597 .13780213 .070999149 .13780213 .085998538 .13780213H.6749878Z"/>
<path id="font_3_81" d="M.45899964 .21424866C.45899964 .34326173 .36099244 .44628907 .24499512 .44628907 .125 .44628907 .02999878 .340271 .02999878 .21424866 .02999878 .086242679 .12998963-.009765625 .24398804-.009765625 .3619995-.009765625 .45899964 .08824158 .45899964 .21424866M.3829956 .22325135C.3829956 .18824768 .3829956 .12623596 .35699464 .07923889 .32899476 .031234742 .2829895 .01222229 .24499512 .01222229 .20799256 .01222229 .16299439 .02822876 .13398743 .07723999 .10699463 .12223816 .10598755 .1812439 .10598755 .22325135 .10598755 .261261 .10598755 .32226563 .13699341 .3672638 .16499329 .41027833 .20899964 .42626954 .24398804 .42626954 .2829895 .42626954 .32499696 .40827943 .35198976 .3692627 .3829956 .32325746 .3829956 .2602539 .3829956 .22325135Z"/>
</defs>
<path transform="matrix(1.00002,0,0,-1,27.486054,49.722)" stroke-width=".3985" stroke-linecap="butt" stroke-miterlimit="10" stroke-linejoin="miter" fill="none" stroke="#000000" d="M-21.5994 10.7997H21.5994"/>
<path transform="matrix(1.00002,0,0,-1,27.486054,49.722)" stroke-width=".3985" stroke-linecap="butt" stroke-miterlimit="10" stroke-linejoin="miter" fill="none" stroke="#000000" d="M0-10.7997V32.3991"/>
<path transform="matrix(1.00002,0,0,-1,27.486054,49.722)" stroke-width=".79701" stroke-linecap="butt" stroke-miterlimit="10" stroke-linejoin="miter" fill="none" stroke="#0000ff" d="M0 10.7997-12.3203 19.01332"/>
<path transform="matrix(-.8320367,-.55466,-.5546711,.83202,15.165526,30.7087)" d="M4.66248 0C3.28098 .25902 1.0361 1.0361-.51805 1.94269V-1.94269C1.0361-1.0361 3.28098-.25902 4.66248 0" fill="#0000ff"/>
<use data-text="&#x20d7;" xlink:href="#font_1_4" transform="matrix(11.95544,0,0,-11.9552,.3385086,23.739)" fill="#0000ff"/>
<use data-text="v" xlink:href="#font_1_2" transform="matrix(11.95544,0,0,-11.9552,.82868197,23.739)" fill="#0000ff"/>
<path transform="matrix(1.00002,0,0,-1,27.486054,49.722)" stroke-width=".79701" stroke-linecap="butt" stroke-miterlimit="10" stroke-linejoin="miter" fill="none" stroke="#ff0000" d="M0 10.7997 13.4021-7.06984"/>
<path transform="matrix(.60000208,.79997,.799986,-.59999,40.88842,56.79184)" d="M4.66248 0C3.28098 .25902 1.0361 1.0361-.51805 1.94269V-1.94269C1.0361-1.0361 3.28098-.25902 4.66248 0" fill="#ff0000"/>
<use data-text="&#x20d7;" xlink:href="#font_1_4" transform="matrix(11.95544,0,0,-11.9552,49.54449,56.139)" fill="#ff0000"/>
<use data-text="w" xlink:href="#font_1_3" transform="matrix(11.95544,0,0,-11.9552,48.08593,56.139)" fill="#ff0000"/>
<path transform="matrix(1.00002,0,0,-1,27.486054,49.722)" stroke-width=".3985" stroke-linecap="butt" stroke-dasharray="2.98883,2.98883" stroke-miterlimit="10" stroke-linejoin="miter" fill="none" stroke="#000000" d="M32.3991 32.3991C46.98839 40.8222 61.00858 40.8222 72.4919 34.19229"/>
<path transform="matrix(.86602738,.49998,.49999003,-.86601,99.979389,15.529701)" d="M3.58653 0C2.52383 .19925 .797 .797-.3985 1.49438V-1.49438C.797-.797 2.52383-.19925 3.58653 0"/>
<path transform="matrix(1.00002,0,0,-1,27.486054,49.722)" stroke-width=".3985" stroke-linecap="butt" stroke-miterlimit="10" stroke-linejoin="miter" fill="none" stroke="#000000" d="M97.19728 0H129.59638"/>
<path transform="matrix(1.00002,0,0,-1,27.486054,49.722)" stroke-width=".3985" stroke-linecap="butt" stroke-miterlimit="10" stroke-linejoin="miter" fill="none" stroke="#000000" d="M97.19728 0V32.3991"/>
<path transform="matrix(1.00002,0,0,-1,27.486054,49.722)" stroke-width=".3985" stroke-linecap="butt" stroke-miterlimit="10" stroke-linejoin="miter" fill="none" stroke="#000000" d="M97.19728 0 75.59789-10.7997"/>
<path transform="matrix(1.00002,0,0,-1,27.486054,49.722)" stroke-width=".79701" stroke-linecap="butt" stroke-miterlimit="10" stroke-linejoin="miter" fill="none" stroke="#0000ff" d="M97.19728 0 114.62672 8.71475"/>
<path transform="matrix(.89437797,-.44717,-.44717894,-.89436,142.11507,41.007249)" d="M4.66248 0C3.28098 .25902 1.0361 1.0361-.51805 1.94269V-1.94269C1.0361-1.0361 3.28098-.25902 4.66248 0" fill="#0000ff"/>
<use data-text="T" xlink:href="#font_1_1" transform="matrix(11.95544,0,0,-11.9552,150.66852,31.55)" fill="#0000ff"/>
<use data-text="(" xlink:href="#font_2_1" transform="matrix(11.95544,0,0,-11.9552,159.15569,31.55)" fill="#0000ff"/>
<use data-text="&#x20d7;" xlink:href="#font_1_4" transform="matrix(11.95544,0,0,-11.9552,163.23178,31.55)" fill="#0000ff"/>
<use data-text="v" xlink:href="#font_1_2" transform="matrix(11.95544,0,0,-11.9552,163.72196,31.55)" fill="#0000ff"/>
<use data-text=")" xlink:href="#font_2_2" transform="matrix(11.95544,0,0,-11.9552,169.7969,31.55)" fill="#0000ff"/>
<path transform="matrix(1.00002,0,0,-1,27.486054,49.722)" stroke-width=".79701" stroke-linecap="butt" stroke-miterlimit="10" stroke-linejoin="miter" fill="none" stroke="#ff0000" d="M97.19728 0 105.91203 17.42944"/>
<path transform="matrix(.44717894,-.89436,-.89437797,-.44717,133.4002,32.29256)" d="M4.66248 0C3.28098 .25902 1.0361 1.0361-.51805 1.94269V-1.94269C1.0361-1.0361 3.28098-.25902 4.66248 0" fill="#ff0000"/>
<use data-text="T" xlink:href="#font_1_1" transform="matrix(11.95544,0,0,-11.9552,139.8683,20.751)" fill="#ff0000"/>
<use data-text="(" xlink:href="#font_2_1" transform="matrix(11.95544,0,0,-11.9552,148.35547,20.751)" fill="#ff0000"/>
<use data-text="&#x20d7;" xlink:href="#font_1_4" transform="matrix(11.95544,0,0,-11.9552,154.3826,20.751)" fill="#ff0000"/>
<use data-text="w" xlink:href="#font_1_3" transform="matrix(11.95544,0,0,-11.9552,152.92403,20.751)" fill="#ff0000"/>
<use data-text=")" xlink:href="#font_2_2" transform="matrix(11.95544,0,0,-11.9552,161.59775,20.751)" fill="#ff0000"/>
<use data-text="i" xlink:href="#font_3_66" transform="matrix(11.95544,0,0,-11.9552,60.18671,72.512)"/>
<use data-text="n" xlink:href="#font_3_77" transform="matrix(11.95544,0,0,-11.9552,63.43859,72.512)"/>
<use data-text="j" xlink:href="#font_3_68" transform="matrix(11.95544,0,0,-11.9552,69.94235,72.512)"/>
<use data-text="e" xlink:href="#font_3_50" transform="matrix(11.95544,0,0,-11.9552,73.51703,72.512)"/>
<use data-text="c" xlink:href="#font_3_43" transform="matrix(11.95544,0,0,-11.9552,78.717639,72.512)"/>
<use data-text="t" xlink:href="#font_3_105" transform="matrix(11.95544,0,0,-11.9552,83.91826,72.512)"/>
<use data-text="i" xlink:href="#font_3_66" transform="matrix(11.95544,0,0,-11.9552,88.47328,72.512)"/>
<use data-text="v" xlink:href="#font_3_112" transform="matrix(11.95544,0,0,-11.9552,91.725177,72.512)"/>
<use data-text="e" xlink:href="#font_3_50" transform="matrix(11.95544,0,0,-11.9552,97.59529,72.512)"/>
<path transform="matrix(1.00002,0,0,-1,243.79236,49.722)" stroke-width=".3985" stroke-linecap="butt" stroke-miterlimit="10" stroke-linejoin="miter" fill="none" stroke="#000000" d="M0 0H32.3991"/>
<path transform="matrix(1.00002,0,0,-1,243.79236,49.722)" stroke-width=".3985" stroke-linecap="butt" stroke-miterlimit="10" stroke-linejoin="miter" fill="none" stroke="#000000" d="M0 0V32.3991"/>
<path transform="matrix(1.00002,0,0,-1,243.79236,49.722)" stroke-width=".3985" stroke-linecap="butt" stroke-miterlimit="10" stroke-linejoin="miter" fill="none" stroke="#000000" d="M0 0-21.5994-10.7997"/>
<path transform="matrix(1.00002,0,0,-1,243.79236,49.722)" stroke-width=".79701" stroke-linecap="butt" stroke-miterlimit="10" stroke-linejoin="miter" fill="none" stroke="#0000ff" d="M0 0 17.42944 8.71475"/>
<path transform="matrix(.89437797,-.44717,-.44717894,-.89436,261.22215,41.007249)" d="M4.66248 0C3.28098 .25902 1.0361 1.0361-.51805 1.94269V-1.94269C1.0361-1.0361 3.28098-.25902 4.66248 0" fill="#0000ff"/>
<use data-text="&#x20d7;" xlink:href="#font_1_4" transform="matrix(11.95544,0,0,-11.9552,269.2989,34.539)" fill="#0000ff"/>
<use data-text="v" xlink:href="#font_1_2" transform="matrix(11.95544,0,0,-11.9552,269.78907,34.539)" fill="#0000ff"/>
<path transform="matrix(1.00002,0,0,-1,243.79236,49.722)" stroke-width=".79701" stroke-linecap="butt" stroke-miterlimit="10" stroke-linejoin="miter" fill="none" stroke="#ff0000" d="M0 0 8.71475 17.42944"/>
<path transform="matrix(.44717894,-.89436,-.89437797,-.44717,252.50728,32.29256)" d="M4.66248 0C3.28098 .25902 1.0361 1.0361-.51805 1.94269V-1.94269C1.0361-1.0361 3.28098-.25902 4.66248 0" fill="#ff0000"/>
<use data-text="&#x20d7;" xlink:href="#font_1_4" transform="matrix(11.95544,0,0,-11.9552,260.4497,23.739)" fill="#ff0000"/>
<use data-text="w" xlink:href="#font_1_3" transform="matrix(11.95544,0,0,-11.9552,258.99116,23.739)" fill="#ff0000"/>
<path transform="matrix(1.00002,0,0,-1,243.79236,49.722)" stroke-width=".3985" stroke-linecap="butt" stroke-dasharray="2.98883,2.98883" stroke-miterlimit="10" stroke-linejoin="miter" fill="none" stroke="#000000" d="M32.3991 32.3991C46.98839 40.8222 61.00858 40.8222 72.4919 34.19229"/>
<path transform="matrix(.86602738,.49998,.49999003,-.86601,316.2857,15.529701)" d="M3.58653 0C2.52383 .19925 .797 .797-.3985 1.49438V-1.49438C.797-.797 2.52383-.19925 3.58653 0"/>
<path transform="matrix(1.00002,0,0,-1,243.79236,49.722)" stroke-width=".3985" stroke-linecap="butt" stroke-miterlimit="10" stroke-linejoin="miter" fill="none" stroke="#000000" d="M75.59789 10.7997H118.79668"/>
<path transform="matrix(1.00002,0,0,-1,243.79236,49.722)" stroke-width=".3985" stroke-linecap="butt" stroke-miterlimit="10" stroke-linejoin="miter" fill="none" stroke="#000000" d="M97.19728-10.7997V32.3991"/>
<path transform="matrix(1.00002,0,0,-1,243.79236,49.722)" stroke-width=".79701" stroke-linecap="butt" stroke-miterlimit="10" stroke-linejoin="miter" fill="none" stroke="#bf0040" d="M97.19728 10.7997 101.46645 27.87584"/>
<path transform="matrix(.24251487,-.97014,-.9701594,-.24251,345.26084,21.84616)" d="M4.66248 0C3.28098 .25902 1.0361 1.0361-.51805 1.94269V-1.94269C1.0361-1.0361 3.28098-.25902 4.66248 0" fill="#bf0040"/>
<use data-text="T" xlink:href="#font_1_1" transform="matrix(11.95544,0,0,-11.9552,350.7745,9.951)" fill="#bf0040"/>
<use data-text="(" xlink:href="#font_2_1" transform="matrix(11.95544,0,0,-11.9552,359.2617,9.951)" fill="#bf0040"/>
<use data-text="&#x20d7;" xlink:href="#font_1_4" transform="matrix(11.95544,0,0,-11.9552,363.3368,9.951)" fill="#bf0040"/>
<use data-text="v" xlink:href="#font_1_2" transform="matrix(11.95544,0,0,-11.9552,363.82698,9.951)" fill="#bf0040"/>
<use data-text=")" xlink:href="#font_2_2" transform="matrix(11.95544,0,0,-11.9552,369.90193,9.951)" fill="#bf0040"/>
<use data-text="=" xlink:href="#font_2_3" transform="matrix(11.95544,0,0,-11.9552,377.7686,9.951)" fill="#bf0040"/>
<use data-text="T" xlink:href="#font_1_1" transform="matrix(11.95544,0,0,-11.9552,390.20133,9.951)" fill="#bf0040"/>
<use data-text="(" xlink:href="#font_2_1" transform="matrix(11.95544,0,0,-11.9552,398.6885,9.951)" fill="#bf0040"/>
<use data-text="&#x20d7;" xlink:href="#font_1_4" transform="matrix(11.95544,0,0,-11.9552,404.71464,9.951)" fill="#bf0040"/>
<use data-text="w" xlink:href="#font_1_3" transform="matrix(11.95544,0,0,-11.9552,403.25608,9.951)" fill="#bf0040"/>
<use data-text=")" xlink:href="#font_2_2" transform="matrix(11.95544,0,0,-11.9552,411.92979,9.951)" fill="#bf0040"/>
<use data-text="n" xlink:href="#font_3_77" transform="matrix(11.95544,0,0,-11.9552,266.08583,72.512)"/>
<use data-text="o" xlink:href="#font_3_81" transform="matrix(11.95544,0,0,-11.9552,272.5896,72.512)"/>
<use data-text="t" xlink:href="#font_3_105" transform="matrix(11.95544,0,0,-11.9552,278.44779,72.512)"/>
<use data-text="i" xlink:href="#font_3_66" transform="matrix(11.95544,0,0,-11.9552,286.8883,72.512)"/>
<use data-text="n" xlink:href="#font_3_77" transform="matrix(11.95544,0,0,-11.9552,290.14018,72.512)"/>
<use data-text="j" xlink:href="#font_3_68" transform="matrix(11.95544,0,0,-11.9552,296.64393,72.512)"/>
<use data-text="e" xlink:href="#font_3_50" transform="matrix(11.95544,0,0,-11.9552,300.21864,72.512)"/>
<use data-text="c" xlink:href="#font_3_43" transform="matrix(11.95544,0,0,-11.9552,305.41923,72.512)"/>
<use data-text="t" xlink:href="#font_3_105" transform="matrix(11.95544,0,0,-11.9552,310.61985,72.512)"/>
<use data-text="i" xlink:href="#font_3_66" transform="matrix(11.95544,0,0,-11.9552,315.17488,72.512)"/>
<use data-text="v" xlink:href="#font_3_112" transform="matrix(11.95544,0,0,-11.9552,318.42674,72.512)"/>
<use data-text="e" xlink:href="#font_3_50" transform="matrix(11.95544,0,0,-11.9552,324.29689,72.512)"/>
</svg>
