<svg xmlns="http://www.w3.org/2000/svg" xmlns:xlink="http://www.w3.org/1999/xlink" version="1.1" width="349" height="79" viewBox="0 0 349 79">
<defs>
<path id="font_1_98" d="M.35198976 .12739563C.35198976 .181427 .31900025 .21340943 .30999757 .22239685 .27398683 .25338746 .24699402 .25938417 .18099976 .27137757 .15098572 .27737428 .07798767 .29136659 .07798767 .35131837 .07798767 .38230897 .09899902 .4282837 .18899536 .4282837 .2979889 .4282837 .3039856 .33532716 .30599977 .3043518 .30699159 .2963562 .31399537 .2963562 .31698609 .2963562 .32798768 .2963562 .32798768 .30136109 .32798768 .3193512V.4232788C.32798768 .44128419 .32798768 .44628907 .31799317 .44628907 .30999757 .44628907 .29100038 .4242859 .28399659 .4152832 .25299073 .4402771 .22200012 .44628907 .18998719 .44628907 .068984989 .44628907 .032989503 .38031007 .032989503 .32533265 .032989503 .3143463 .032989503 .27937318 .070999149 .24438477 .102996829 .21640015 .13699341 .20941162 .18299866 .20040894 .23799134 .1894226 .25099183 .18641663 .27598573 .16642761 .2939911 .15142823 .30699159 .12940979 .30699159 .101364139 .30699159 .05831909 .28199769 .010253906 .19400025 .010253906 .12799073 .010253906 .07998657 .048294069 .057998659 .1484375 .053985597 .16642761 .052993776 .16842652 .052993776 .16842652 .050994874 .17242432 .04699707 .17242432 .04399109 .17242432 .032989503 .17242432 .032989503 .16743469 .032989503 .14942932V.013259888C.032989503-.004760742 .032989503-.009765625 .042999269-.009765625 .04798889-.009765625 .04899597-.008773804 .06599426 .012252808 .070999149 .019256592 .070999149 .021270752 .085998538 .03729248 .12399292-.009765625 .17799378-.009765625 .19499207-.009765625 .2999878-.009765625 .35198976 .048294069 .35198976 .12739563Z"/>
<path id="font_1_109" d="M.5209961 .00022888184V.029220581C.45298768 .029220581 .44499208 .036224367 .44499208 .085250858V.44140626L.3039856 .43040467V.4013977C.37199403 .4013977 .37998963 .39439393 .37998963 .34536744V.16629029C.37998963 .08125305 .33499146 .010223389 .2599945 .010223389 .17799378 .010223389 .17298889 .057235719 .17298889 .11026001V.44140626L.03199768 .43040467V.4013977C.10798645 .4013977 .10798645 .39839173 .10798645 .3093567V.1592865C.10798645 .09725952 .10798645 .06124878 .13798523 .02822876 .1619873 .0022277833 .20298767-.009765625 .2539978-.009765625 .2709961-.009765625 .30299378-.009765625 .33699037 .019226075 .3659973 .042236329 .38198854 .08024597 .38198854 .08024597V-.009765625L.5209961 .00022888184Z"/>
<path id="font_1_96" d="M.35299684 .38339234C.35299684 .4133911 .32598878 .44140626 .2829895 .44140626 .19799805 .44140626 .16899109 .34939576 .16299439 .33039857H.1619873V.44140626L.027999878 .4303589V.4013672C.09599304 .4013672 .10398865 .39434815 .10398865 .3453064V.074035648C.10398865 .0289917 .09298706 .0289917 .027999878 .0289917V0C.055999757 .0019989014 .11099243 .0019989014 .14099121 .0019989014 .16799927 .0019989014 .23899842 .0019989014 .2619934 0V.0289917H.24198914C.16899109 .02973938 .16699219 .040740968 .16699219 .07673645V.23374939C.16699219 .3307495 .20698548 .42173768 .28399659 .42173768 .2919922 .42173768 .2939911 .42173768 .2979889 .42074586 .2899933 .41674806 .27398683 .41073609 .27398683 .3837433 .27398683 .35473634 .29699708 .34375 .31298829 .34375 .33299256 .34375 .35299684 .35673524 .35299684 .3837433V.38339234Z"/>
<path id="font_1_68" d="M.20298767-.05088806V.44140626L.055999757 .43040467V.4013977C.1309967 .4013977 .13999939 .39439393 .13999939 .34536744V-.054885866C.13999939-.10992432 .1289978-.18392945 .070999149-.18392945 .070999149-.18392945 .037994386-.18392945 .01499939-.16992188 .040985109-.16500855 .04899597-.14601135 .04899597-.12901306 .04899597-.10600281 .03199768-.088012699 .0079956059-.088012699-.01701355-.0879364-.03401184-.10592651-.03401184-.12992859-.03401184-.17797852 .019989014-.20410156 .07199097-.20410156 .14399719-.20410156 .20298767-.141922 .20298767-.050933839V-.05088806M.20399475 .6043091C.20399475 .63430789 .17999268 .6533203 .1559906 .6533203 .12799073 .6533203 .10699463 .63131716 .10699463 .6043091 .10699463 .5783081 .1289978 .55630496 .15499878 .55630496 .18499756 .55630496 .20399475 .580307 .20399475 .6043091Z"/>
<path id="font_1_50" d="M.40699769 .11932373C.40699769 .1253357 .4019928 .1293335 .3959961 .1293335 .3880005 .1293335 .38598634 .12432861 .38398744 .11932373 .35798646 .035247804 .29100038 .01222229 .24899292 .01222229 .20698548 .01222229 .10598755 .040252687 .10598755 .21340943V.23242188H.3829956C.40499879 .23242188 .40699769 .23242188 .40699769 .25141908 .40699769 .3523407 .35299684 .44628907 .23199463 .44628907 .117996219 .44628907 .02999878 .34335328 .02999878 .21940613 .02999878 .08729553 .13198853-.009765625 .24299622-.009765625 .3619995-.009765625 .40699769 .09829712 .40699769 .11932373M.34498597 .25141908H.10699463C.114990238 .40830995 .20298767 .42630006 .23098755 .42630006 .33799745 .42630006 .34399415 .28538514 .34498597 .25141908Z"/>
<path id="font_1_43" d="M.4059906 .1191864C.4059906 .12817383 .39898683 .12817383 .3959961 .12817383 .3869934 .12817383 .38598634 .1251831 .3829956 .1131897 .36099244 .04222107 .30699159 .01222229 .25299073 .01222229 .19198609 .01222229 .11099243 .065200809 .11099243 .21713257 .11099243 .3831482 .19599915 .4242859 .24598694 .4242859 .28399659 .4242859 .33898927 .40924073 .3619995 .3701172 .34999085 .3701172 .31298829 .3701172 .31298829 .32911683 .31298829 .30511476 .32998658 .28811646 .35398866 .28811646 .3769989 .28811646 .3959961 .30210877 .3959961 .33111573 .3959961 .39819337 .32598878 .44628907 .24499512 .44628907 .12799073 .44628907 .034988405 .34210206 .034988405 .21614075 .034988405 .0881958 .1309967-.009765625 .24398804-.009765625 .37599183-.009765625 .4059906 .110183719 .4059906 .1191864Z"/>
<path id="font_1_105" d="M.32598878 .124069217V.1809845H.3039856V.12606812C.3039856 .0541687 .2749939 .01222229 .23599243 .01222229 .16799927 .01222229 .16799927 .10508728 .16799927 .12207031V.4016571H.30899049V.43066407H.16799927V.6142578H.1459961C.14498902 .52046206 .10899353 .4246521 .017990113 .42166139V.4016571H.102996829V.124069217C.102996829 .01322937 .1769867-.009765625 .22999573-.009765625 .29299928-.009765625 .32598878 .0521698 .32598878 .124069217Z"/>
<path id="font_1_66" d="M.24099732 0V.0289917C.17599488 .0289917 .17199707 .033996583 .17199707 .07304382V.44140626L.035995485 .4303589V.4013672C.099990848 .4013672 .10899353 .39535523 .10899353 .34629823V.074035648C.10899353 .0289917 .09799194 .0289917 .032989503 .0289917V0C.06098938 .0019989014 .10899353 .0019989014 .13798523 .0019989014 .14898682 .0019989014 .20698548 .0019989014 .24099732 0M.18499756 .6043091C.18499756 .63430789 .16099549 .6533203 .13699341 .6533203 .10899353 .6533203 .08799744 .63131716 .08799744 .6043091 .08799744 .5783081 .10998535 .55630496 .13598633 .55630496 .1659851 .55630496 .18499756 .580307 .18499756 .6043091Z"/>
<path id="font_1_112" d="M.49798585 .4016571V.43066407C.46899415 .4286499 .45498658 .4286499 .42399598 .4286499L.34199525 .43066407V.4016571C.38398744 .3996582 .3889923 .3697052 .3889923 .35871888 .3889923 .34973146 .3869934 .34474183 .38198854 .3327484L.27999879 .07510376 .16799927 .35671998C.16299439 .37069703 .1619873 .37069703 .1619873 .37568666 .1619873 .4016571 .19999695 .4016571 .21798706 .4016571V.43066407C.19299317 .4286499 .14099121 .4286499 .11399841 .4286499L.017990113 .43066407V.4016571C.07398987 .4016571 .083999637 .3976593 .09599304 .36669923L.23899842 .00920105C.24398804-.004776001 .24598694-.009765625 .2579956-.009765625 .2649994-.009765625 .2709961-.0077819826 .27799989 .00920105L.4079895 .3357544C.4169922 .3577118 .43399049 .40066529 .49798585 .4016571Z"/>
<path id="font_1_77" d="M.5209961 0V.0289917C.47099305 .0289917 .44599916 .0289917 .44499208 .059051515V.24342346C.44499208 .3365631 .44499208 .36450196 .42199708 .39640809 .3929901 .4353943 .34599305 .44140626 .31199647 .44140626 .21499634 .44140626 .1769867 .35850526 .16899109 .338562H.16799927V.44140626L.03199768 .4303589V.4013672C.099990848 .4013672 .10798645 .39437867 .10798645 .34553529V.07408142C.10798645 .0289917 .09700012 .0289917 .03199768 .0289917V0C.057998659 .0019989014 .11199951 .0019989014 .13999939 .0019989014 .16899109 .0019989014 .22299195 .0019989014 .24899292 0V.0289917C.18499756 .0289917 .17298889 .0289917 .17298889 .07408142V.26046754C.17298889 .36547853 .24198914 .4213562 .3039856 .4213562 .3659973 .4213562 .37998963 .37045289 .37998963 .3095703V.07408142C.37998963 .0289917 .36898805 .0289917 .3039856 .0289917V0C.32998658 .0019989014 .38398744 .0019989014 .4119873 .0019989014 .44099427 .0019989014 .49499513 .0019989014 .5209961 0Z"/>
<path id="font_1_81" d="M.45899964 .21424866C.45899964 .34326173 .36099244 .44628907 .24499512 .44628907 .125 .44628907 .02999878 .340271 .02999878 .21424866 .02999878 .086242679 .12998963-.009765625 .24398804-.009765625 .3619995-.009765625 .45899964 .08824158 .45899964 .21424866M.3829956 .22325135C.3829956 .18824768 .3829956 .12623596 .35699464 .07923889 .32899476 .031234742 .2829895 .01222229 .24499512 .01222229 .20799256 .01222229 .16299439 .02822876 .13398743 .07723999 .10699463 .12223816 .10598755 .1812439 .10598755 .22325135 .10598755 .261261 .10598755 .32226563 .13699341 .3672638 .16499329 .41027833 .20899964 .42626954 .24398804 .42626954 .2829895 .42626954 .32499696 .40827943 .35198976 .3692627 .3829956 .32325746 .3829956 .2602539 .3829956 .22325135Z"/>
</defs>
<path transform="matrix(1.00006,0,0,-1.00002,33.629278,41.02082)" stroke-width=".3985" stroke-linecap="butt" stroke-miterlimit="10" stroke-linejoin="miter" fill="none" stroke="#000000" d="M0 0H32.3991"/>
<path transform="matrix(1.00006,0,0,-1.00002,33.629278,41.02082)" stroke-width=".3985" stroke-linecap="butt" stroke-miterlimit="10" stroke-linejoin="miter" fill="none" stroke="#000000" d="M0 0V32.3991"/>
<path transform="matrix(1.00006,0,0,-1.00002,33.629278,41.02082)" stroke-width=".3985" stroke-linecap="butt" stroke-miterlimit="10" stroke-linejoin="miter" fill="none" stroke="#000000" d="M0 0-21.5994-10.7997"/>
<path transform="matrix(1.00006,0,0,-1.00002,33.629278,41.02082)" stroke-width=".79701" stroke-linecap="butt" stroke-miterlimit="10" stroke-linejoin="miter" fill="none" stroke="#0000ff" d="M0 0 17.42944 8.71475"/>
<path transform="matrix(.89441367,-.44717894,-.4471968,-.89437797,51.05976,32.305898)" d="M4.66248 0C3.28098 .25902 1.0361 1.0361-.51805 1.94269V-1.94269C1.0361-1.0361 3.28098-.25902 4.66248 0" fill="#0000ff"/>
<path transform="matrix(1.00006,0,0,-1.00002,33.629278,41.02082)" stroke-width=".79701" stroke-linecap="butt" stroke-miterlimit="10" stroke-linejoin="miter" fill="none" stroke="#0000ff" d="M0 0 8.71475 17.42944"/>
<path transform="matrix(.4471968,-.89437797,-.89441367,-.44717894,42.34455,23.591032)" d="M4.66248 0C3.28098 .25902 1.0361 1.0361-.51805 1.94269V-1.94269C1.0361-1.0361 3.28098-.25902 4.66248 0" fill="#0000ff"/>
<path transform="matrix(1.00006,0,0,-1.00002,33.629278,41.02082)" stroke-width=".79701" stroke-linecap="butt" stroke-miterlimit="10" stroke-linejoin="miter" fill="none" stroke="#0000ff" d="M0 0V16.9369"/>
<path transform="matrix(0,-1.00002,-1.00006,-0,33.629278,24.083582)" d="M4.66248 0C3.28098 .25902 1.0361 1.0361-.51805 1.94269V-1.94269C1.0361-1.0361 3.28098-.25902 4.66248 0" fill="#0000ff"/>
<path transform="matrix(1.00006,0,0,-1.00002,33.629278,41.02082)" stroke-width=".79701" stroke-linecap="butt" stroke-miterlimit="10" stroke-linejoin="miter" fill="none" stroke="#0000ff" d="M0 0 7.50282-7.50282"/>
<path transform="matrix(.70714238,.70711418,.70714238,-.70711418,41.132528,48.52377)" d="M4.66248 0C3.28098 .25902 1.0361 1.0361-.51805 1.94269V-1.94269C1.0361-1.0361 3.28098-.25902 4.66248 0" fill="#0000ff"/>
<path transform="matrix(1.00006,0,0,-1.00002,33.629278,41.02082)" stroke-width=".79701" stroke-linecap="butt" stroke-miterlimit="10" stroke-linejoin="miter" fill="none" stroke="#0000ff" d="M0 0-19.01324 28.51985"/>
<path transform="matrix(-.55470326,-.8320367,-.8320699,.55468109,14.614895,12.50041)" d="M4.66248 0C3.28098 .25902 1.0361 1.0361-.51805 1.94269V-1.94269C1.0361-1.0361 3.28098-.25902 4.66248 0" fill="#0000ff"/>
<path transform="matrix(1.00006,0,0,-1.00002,33.629278,41.02082)" stroke-width=".79701" stroke-linecap="butt" stroke-miterlimit="10" stroke-linejoin="miter" fill="none" stroke="#0000ff" d="M0 0-28.51985-19.01324"/>
<path transform="matrix(-.8320699,.55468109,.55470326,.8320367,5.107725,60.034444)" d="M4.66248 0C3.28098 .25902 1.0361 1.0361-.51805 1.94269V-1.94269C1.0361-1.0361 3.28098-.25902 4.66248 0" fill="#0000ff"/>
<path transform="matrix(1.00006,0,0,-1.00002,33.629278,41.02082)" stroke-width=".3985" stroke-linecap="butt" stroke-dasharray="2.98883,2.98883" stroke-miterlimit="10" stroke-linejoin="miter" fill="none" stroke="#000000" d="M32.3991 32.3991C46.98839 40.8222 61.00858 40.8222 72.4919 34.19229"/>
<path transform="matrix(.8660619,.49999003,.50000998,-.86602738,106.1255,6.827835)" d="M3.58653 0C2.52383 .19925 .797 .797-.3985 1.49438V-1.49438C.797-.797 2.52383-.19925 3.58653 0"/>
<path transform="matrix(1.00006,0,0,-1.00002,33.629278,41.02082)" stroke-width=".3985" stroke-linecap="butt" stroke-miterlimit="10" stroke-linejoin="miter" fill="none" stroke="#000000" d="M75.59789 10.7997H118.79668"/>
<path transform="matrix(1.00006,0,0,-1.00002,33.629278,41.02082)" stroke-width=".3985" stroke-linecap="butt" stroke-miterlimit="10" stroke-linejoin="miter" fill="none" stroke="#000000" d="M97.19728-10.7997V32.3991"/>
<path transform="matrix(1.00006,0,0,-1.00002,33.629278,41.02082)" stroke-width=".79701" stroke-linecap="butt" stroke-miterlimit="10" stroke-linejoin="miter" fill="none" stroke="#0000ff" d="M97.19728 10.7997 101.46645 27.87584"/>
<path transform="matrix(.24252455,-.9701594,-.97019818,-.24251487,135.1018,13.144423)" d="M4.66248 0C3.28098 .25902 1.0361 1.0361-.51805 1.94269V-1.94269C1.0361-1.0361 3.28098-.25902 4.66248 0" fill="#0000ff"/>
<path transform="matrix(1.00006,0,0,-1.00002,33.629278,41.02082)" stroke-width=".79701" stroke-linecap="butt" stroke-miterlimit="10" stroke-linejoin="miter" fill="none" stroke="#0000ff" d="M97.19728 10.7997 114.62672 19.51445"/>
<path transform="matrix(.89441367,-.44717894,-.4471968,-.89437797,148.26287,21.50598)" d="M4.66248 0C3.28098 .25902 1.0361 1.0361-.51805 1.94269V-1.94269C1.0361-1.0361 3.28098-.25902 4.66248 0" fill="#0000ff"/>
<path transform="matrix(1.00006,0,0,-1.00002,33.629278,41.02082)" stroke-width=".79701" stroke-linecap="butt" stroke-miterlimit="10" stroke-linejoin="miter" fill="none" stroke="#0000ff" d="M97.19728 10.7997 84.87697 19.01332"/>
<path transform="matrix(-.8320699,-.5546711,-.5546933,.8320367,118.51135,22.00714)" d="M4.66248 0C3.28098 .25902 1.0361 1.0361-.51805 1.94269V-1.94269C1.0361-1.0361 3.28098-.25902 4.66248 0" fill="#0000ff"/>
<path transform="matrix(1.00006,0,0,-1.00002,33.629278,41.02082)" stroke-width=".79701" stroke-linecap="butt" stroke-miterlimit="10" stroke-linejoin="miter" fill="none" stroke="#0000ff" d="M97.19728 10.7997V-.73737"/>
<path transform="matrix(0,1.00002,1.00006,0,130.83238,41.758207)" d="M4.66248 0C3.28098 .25902 1.0361 1.0361-.51805 1.94269V-1.94269C1.0361-1.0361 3.28098-.25902 4.66248 0" fill="#0000ff"/>
<path transform="matrix(1.00006,0,0,-1.00002,33.629278,41.02082)" stroke-width=".79701" stroke-linecap="butt" stroke-miterlimit="10" stroke-linejoin="miter" fill="none" stroke="#0000ff" d="M97.19728 10.7997 115.4998-7.50282"/>
<path transform="matrix(.70714238,.70711418,.70714238,-.70711418,149.13599,48.52377)" d="M4.66248 0C3.28098 .25902 1.0361 1.0361-.51805 1.94269V-1.94269C1.0361-1.0361 3.28098-.25902 4.66248 0" fill="#0000ff"/>
<path transform="matrix(1.00006,0,0,-1.00002,33.629278,41.02082)" d="M75.59789-10.7997V32.3991H118.79668V-10.7997ZM118.79668 32.3991" fill="#0000ff" fill-opacity=".5"/>
<use data-text="s" xlink:href="#font_1_98" transform="matrix(11.955917,0,0,-11.95544,63.37206,74.611499)"/>
<use data-text="u" xlink:href="#font_1_109" transform="matrix(11.955917,0,0,-11.95544,67.987049,74.611499)"/>
<use data-text="r" xlink:href="#font_1_96" transform="matrix(11.955917,0,0,-11.95544,74.491069,74.611499)"/>
<use data-text="j" xlink:href="#font_1_68" transform="matrix(11.955917,0,0,-11.95544,79.04627,74.611499)"/>
<use data-text="e" xlink:href="#font_1_50" transform="matrix(11.955917,0,0,-11.95544,82.62109,74.611499)"/>
<use data-text="c" xlink:href="#font_1_43" transform="matrix(11.955917,0,0,-11.95544,87.821918,74.611499)"/>
<use data-text="t" xlink:href="#font_1_105" transform="matrix(11.955917,0,0,-11.95544,93.02274,74.611499)"/>
<use data-text="i" xlink:href="#font_1_66" transform="matrix(11.955917,0,0,-11.95544,97.57795,74.611499)"/>
<use data-text="v" xlink:href="#font_1_112" transform="matrix(11.955917,0,0,-11.95544,100.82996,74.611499)"/>
<use data-text="e" xlink:href="#font_1_50" transform="matrix(11.955917,0,0,-11.95544,106.70032,74.611499)"/>
<path transform="matrix(1.00006,0,0,-1.00002,218.29334,41.02082)" stroke-width=".3985" stroke-linecap="butt" stroke-miterlimit="10" stroke-linejoin="miter" fill="none" stroke="#000000" d="M-21.5994 10.7997H21.5994"/>
<path transform="matrix(1.00006,0,0,-1.00002,218.29334,41.02082)" stroke-width=".3985" stroke-linecap="butt" stroke-miterlimit="10" stroke-linejoin="miter" fill="none" stroke="#000000" d="M0-10.7997V32.3991"/>
<path transform="matrix(1.00006,0,0,-1.00002,218.29334,41.02082)" stroke-width=".79701" stroke-linecap="butt" stroke-miterlimit="10" stroke-linejoin="miter" fill="none" stroke="#0000ff" d="M0 10.7997 4.26917 27.87584"/>
<path transform="matrix(.24252455,-.9701594,-.97019818,-.24251487,222.56276,13.144423)" d="M4.66248 0C3.28098 .25902 1.0361 1.0361-.51805 1.94269V-1.94269C1.0361-1.0361 3.28098-.25902 4.66248 0" fill="#0000ff"/>
<path transform="matrix(1.00006,0,0,-1.00002,218.29334,41.02082)" stroke-width=".79701" stroke-linecap="butt" stroke-miterlimit="10" stroke-linejoin="miter" fill="none" stroke="#0000ff" d="M0 10.7997 17.42944 19.51445"/>
<path transform="matrix(.89441367,-.44717894,-.4471968,-.89437797,235.72382,21.50598)" d="M4.66248 0C3.28098 .25902 1.0361 1.0361-.51805 1.94269V-1.94269C1.0361-1.0361 3.28098-.25902 4.66248 0" fill="#0000ff"/>
<path transform="matrix(1.00006,0,0,-1.00002,218.29334,41.02082)" stroke-width=".79701" stroke-linecap="butt" stroke-miterlimit="10" stroke-linejoin="miter" fill="none" stroke="#0000ff" d="M0 10.7997-12.3203 19.01332"/>
<path transform="matrix(-.8320699,-.5546711,-.5546933,.8320367,205.97232,22.00714)" d="M4.66248 0C3.28098 .25902 1.0361 1.0361-.51805 1.94269V-1.94269C1.0361-1.0361 3.28098-.25902 4.66248 0" fill="#0000ff"/>
<path transform="matrix(1.00006,0,0,-1.00002,218.29334,41.02082)" stroke-width=".79701" stroke-linecap="butt" stroke-miterlimit="10" stroke-linejoin="miter" fill="none" stroke="#0000ff" d="M0 10.7997V-.73737"/>
<path transform="matrix(0,1.00002,1.00006,0,218.29334,41.758207)" d="M4.66248 0C3.28098 .25902 1.0361 1.0361-.51805 1.94269V-1.94269C1.0361-1.0361 3.28098-.25902 4.66248 0" fill="#0000ff"/>
<path transform="matrix(1.00006,0,0,-1.00002,218.29334,41.02082)" stroke-width=".79701" stroke-linecap="butt" stroke-miterlimit="10" stroke-linejoin="miter" fill="none" stroke="#0000ff" d="M0 10.7997 18.30252-7.50282"/>
<path transform="matrix(.70714238,.70711418,.70714238,-.70711418,236.59693,48.52377)" d="M4.66248 0C3.28098 .25902 1.0361 1.0361-.51805 1.94269V-1.94269C1.0361-1.0361 3.28098-.25902 4.66248 0" fill="#0000ff"/>
<path transform="matrix(1.00006,0,0,-1.00002,218.29334,41.02082)" stroke-width=".3985" stroke-linecap="butt" stroke-dasharray="2.98883,2.98883" stroke-miterlimit="10" stroke-linejoin="miter" fill="none" stroke="#000000" d="M32.3991 32.3991C46.98839 40.8222 61.00858 40.8222 72.4919 34.19229"/>
<path transform="matrix(.8660619,.49999003,.50000998,-.86602738,290.78956,6.827835)" d="M3.58653 0C2.52383 .19925 .797 .797-.3985 1.49438V-1.49438C.797-.797 2.52383-.19925 3.58653 0"/>
<path transform="matrix(1.00006,0,0,-1.00002,218.29334,41.02082)" stroke-width=".3985" stroke-linecap="butt" stroke-miterlimit="10" stroke-linejoin="miter" fill="none" stroke="#000000" d="M97.19728 0H129.59638"/>
<path transform="matrix(1.00006,0,0,-1.00002,218.29334,41.02082)" stroke-width=".3985" stroke-linecap="butt" stroke-miterlimit="10" stroke-linejoin="miter" fill="none" stroke="#000000" d="M97.19728 0V32.3991"/>
<path transform="matrix(1.00006,0,0,-1.00002,218.29334,41.02082)" stroke-width=".3985" stroke-linecap="butt" stroke-miterlimit="10" stroke-linejoin="miter" fill="none" stroke="#000000" d="M97.19728 0 75.59789-10.7997"/>
<path transform="matrix(1.00006,0,0,-1.00002,218.29334,41.02082)" stroke-width=".79701" stroke-linecap="butt" stroke-miterlimit="10" stroke-linejoin="miter" fill="none" stroke="#0000ff" d="M97.19728 0 101.12282 11.77654"/>
<path transform="matrix(.31622897,-.948659,-.94869688,-.31621633,319.4222,29.244065)" d="M4.66248 0C3.28098 .25902 1.0361 1.0361-.51805 1.94269V-1.94269C1.0361-1.0361 3.28098-.25902 4.66248 0" fill="#0000ff"/>
<path transform="matrix(1.00006,0,0,-1.00002,218.29334,41.02082)" stroke-width=".79701" stroke-linecap="butt" stroke-miterlimit="10" stroke-linejoin="miter" fill="none" stroke="#0000ff" d="M97.19728 0 114.62672 8.71475"/>
<path transform="matrix(.89441367,-.44717894,-.4471968,-.89437797,332.92695,32.305898)" d="M4.66248 0C3.28098 .25902 1.0361 1.0361-.51805 1.94269V-1.94269C1.0361-1.0361 3.28098-.25902 4.66248 0" fill="#0000ff"/>
<path transform="matrix(1.00006,0,0,-1.00002,218.29334,41.02082)" stroke-width=".79701" stroke-linecap="butt" stroke-miterlimit="10" stroke-linejoin="miter" fill="none" stroke="#0000ff" d="M97.19728 0 74.52684 9.0682"/>
<path transform="matrix(-.92849567,-.37137745,-.37139226,.9284586,292.82466,31.952439)" d="M4.66248 0C3.28098 .25902 1.0361 1.0361-.51805 1.94269V-1.94269C1.0361-1.0361 3.28098-.25902 4.66248 0" fill="#0000ff"/>
<path transform="matrix(1.00006,0,0,-1.00002,218.29334,41.02082)" stroke-width=".79701" stroke-linecap="butt" stroke-miterlimit="10" stroke-linejoin="miter" fill="none" stroke="#0000ff" d="M97.19728 0 93.27173-11.77654"/>
<path transform="matrix(-.31622897,.948659,.94869688,.31621633,311.57069,52.797578)" d="M4.66248 0C3.28098 .25902 1.0361 1.0361-.51805 1.94269V-1.94269C1.0361-1.0361 3.28098-.25902 4.66248 0" fill="#0000ff"/>
<path transform="matrix(1.00006,0,0,-1.00002,218.29334,41.02082)" stroke-width=".79701" stroke-linecap="butt" stroke-miterlimit="10" stroke-linejoin="miter" fill="none" stroke="#0000ff" d="M97.19728 0 119.62476-4.4855"/>
<path transform="matrix(.98060879,.19610393,.19611176,-.9805696,337.92527,45.50641)" d="M4.66248 0C3.28098 .25902 1.0361 1.0361-.51805 1.94269V-1.94269C1.0361-1.0361 3.28098-.25902 4.66248 0" fill="#0000ff"/>
<path transform="matrix(1.00006,0,0,-1.00002,218.29334,41.02082)" d="M75.59789-21.5994 129.59638-10.7997 118.79668 21.5994 64.79819 10.7997 75.59789-21.5994" fill="#0000ff" fill-opacity=".5"/>
<use data-text="n" xlink:href="#font_1_77" transform="matrix(11.955917,0,0,-11.95544,237.6285,74.611499)"/>
<use data-text="o" xlink:href="#font_1_81" transform="matrix(11.955917,0,0,-11.95544,244.13253,74.611499)"/>
<use data-text="t" xlink:href="#font_1_105" transform="matrix(11.955917,0,0,-11.95544,249.99092,74.611499)"/>
<use data-text="s" xlink:href="#font_1_98" transform="matrix(11.955917,0,0,-11.95544,258.43177,74.611499)"/>
<use data-text="u" xlink:href="#font_1_109" transform="matrix(11.955917,0,0,-11.95544,263.04676,74.611499)"/>
<use data-text="r" xlink:href="#font_1_96" transform="matrix(11.955917,0,0,-11.95544,269.55079,74.611499)"/>
<use data-text="j" xlink:href="#font_1_68" transform="matrix(11.955917,0,0,-11.95544,274.10603,74.611499)"/>
<use data-text="e" xlink:href="#font_1_50" transform="matrix(11.955917,0,0,-11.95544,277.68086,74.611499)"/>
<use data-text="c" xlink:href="#font_1_43" transform="matrix(11.955917,0,0,-11.95544,282.88166,74.611499)"/>
<use data-text="t" xlink:href="#font_1_105" transform="matrix(11.955917,0,0,-11.95544,288.08247,74.611499)"/>
<use data-text="i" xlink:href="#font_1_66" transform="matrix(11.955917,0,0,-11.95544,292.63764,74.611499)"/>
<use data-text="v" xlink:href="#font_1_112" transform="matrix(11.955917,0,0,-11.95544,295.88966,74.611499)"/>
<use data-text="e" xlink:href="#font_1_50" transform="matrix(11.955917,0,0,-11.95544,301.76,74.611499)"/>
</svg>
