<svg xmlns="http://www.w3.org/2000/svg" xmlns:xlink="http://www.w3.org/1999/xlink" version="1.1" width="326" height="127" viewBox="0 0 326 127">
<path transform="matrix(1,0,0,-1,97.982,86.239)" stroke-width=".3985" stroke-linecap="butt" stroke-miterlimit="10" stroke-linejoin="miter" fill="none" stroke="#000000" d="M0 0H84.64192"/>
<path transform="matrix(1,0,0,-1,182.82318,86.239)" stroke-width=".3985" stroke-linecap="round" stroke-linejoin="round" fill="none" stroke="#000000" d="M-2.07224 2.39104C-1.69365 .95639-.84999 .27895 0 0-.84999-.27895-1.69365-.95639-2.07224-2.39104"/>
<path transform="matrix(1,0,0,-1,97.982,86.239)" stroke-width=".3985" stroke-linecap="butt" stroke-miterlimit="10" stroke-linejoin="miter" fill="none" stroke="#000000" d="M0 0V84.64192"/>
<path transform="matrix(0,-1,-1,-0,97.982,1.3978272)" stroke-width=".3985" stroke-linecap="round" stroke-linejoin="round" fill="none" stroke="#000000" d="M-2.07224 2.39104C-1.69365 .95639-.84999 .27895 0 0-.84999-.27895-1.69365-.95639-2.07224-2.39104"/>
<path transform="matrix(1,0,0,-1,97.982,86.239)" stroke-width=".3985" stroke-linecap="butt" stroke-miterlimit="10" stroke-linejoin="miter" fill="none" stroke="#000000" d="M0 0-32.4583-32.4583"/>
<path transform="matrix(-.7071,.7071,.7071,.7071,65.3828,118.838199)" stroke-width=".3985" stroke-linecap="round" stroke-linejoin="round" fill="none" stroke="#000000" d="M-2.07224 2.39104C-1.69365 .95639-.84999 .27895 0 0-.84999-.27895-1.69365-.95639-2.07224-2.39104"/>
<path transform="matrix(1,0,0,-1,97.982,86.239)" d="M-39.26016-39.26016 95.95378-17.43344 39.26016 39.26016-95.95378 17.43344-39.26016-39.26016" fill="#f2ccd9" fill-opacity=".5"/>
<path transform="matrix(1,0,0,-1,97.982,86.239)" stroke-width=".3985" stroke-linecap="butt" stroke-miterlimit="10" stroke-linejoin="miter" fill="none" stroke="#000000" d="M-39.26016-39.26016 95.95378-17.43344 39.26016 39.26016-95.95378 17.43344-39.26016-39.26016"/>
<path transform="matrix(1,0,0,-1,97.982,86.239)" stroke-width=".79701" stroke-linecap="butt" stroke-miterlimit="10" stroke-linejoin="miter" fill="none" stroke="#0000ff" d="M0 0 13.60982-13.60982"/>
<path transform="matrix(.7071,.7071,.7071,-.7071,111.8736,100.130588)" stroke-width=".79701" stroke-linecap="round" stroke-linejoin="round" fill="none" stroke="#0000ff" d="M-2.55046 3.11095C-2.0845 1.24435-1.04614 .36295 0 0-1.04614-.36295-2.0845-1.24435-2.55046-3.11095"/>
<path transform="matrix(1,0,0,-1,97.982,86.239)" stroke-width=".79701" stroke-linecap="butt" stroke-miterlimit="10" stroke-linejoin="miter" fill="none" stroke="#ff0000" d="M0 0-33.01668-5.32968"/>
<path transform="matrix(-.98718,.15933,.15933,.98718,64.57192,91.63219)" stroke-width=".79701" stroke-linecap="round" stroke-linejoin="round" fill="none" stroke="#ff0000" d="M-2.55046 3.11095C-2.0845 1.24435-1.04614 .36295 0 0-1.04614-.36295-2.0845-1.24435-2.55046-3.11095"/>
<path transform="matrix(1,0,0,-1,97.982,86.239)" stroke-width=".3985" stroke-linecap="butt" stroke-miterlimit="10" stroke-linejoin="miter" fill="none" stroke="#000000" d="M113.38724 28.3468H226.77448"/>
<path transform="matrix(1,0,0,-1,97.982,86.239)" stroke-width=".3985" stroke-linecap="butt" stroke-miterlimit="10" stroke-linejoin="miter" fill="none" stroke="#000000" d="M170.08086-28.3468V85.04042"/>
<path transform="matrix(1,0,0,-1,97.982,86.239)" d="M116.22188-25.51215V82.20576H223.93982V-25.51215H116.22188" fill="#f2ccd9" fill-opacity=".5"/>
<path transform="matrix(1,0,0,-1,97.982,86.239)" stroke-width=".3985" stroke-linecap="butt" stroke-miterlimit="10" stroke-linejoin="miter" fill="none" stroke="#000000" d="M116.22188-25.51215V82.20576H223.93982V-25.51215H116.22188"/>
<path transform="matrix(1,0,0,-1,97.982,86.239)" stroke-width="1.19553" stroke-linecap="butt" stroke-miterlimit="10" stroke-linejoin="miter" fill="none" stroke="#0000ff" d="M170.08086 28.3468H183.05873"/>
<path transform="matrix(1,0,0,-1,281.6385,57.892198)" stroke-width="1.19553" stroke-linecap="round" stroke-linejoin="round" fill="none" stroke="#0000ff" d="M-3.02867 3.83081C-2.47534 1.53229-1.24231 .44691 0 0-1.24231-.44691-2.47534-1.53229-3.02867-3.83081"/>
<path transform="matrix(1,0,0,-1,97.982,86.239)" stroke-width="1.19553" stroke-linecap="butt" stroke-miterlimit="10" stroke-linejoin="miter" fill="none" stroke="#ff0000" d="M170.08086 28.3468V41.32469"/>
<path transform="matrix(0,-1,-1,-0,268.06288,44.31656)" stroke-width="1.19553" stroke-linecap="round" stroke-linejoin="round" fill="none" stroke="#ff0000" d="M-3.02867 3.83081C-2.47534 1.53229-1.24231 .44691 0 0-1.24231-.44691-2.47534-1.53229-3.02867-3.83081"/>
</svg>
