<svg xmlns="http://www.w3.org/2000/svg" xmlns:xlink="http://www.w3.org/1999/xlink" version="1.1" width="124" height="40" viewBox="0 0 124 40">
<defs>
<path id="font_1_1" d="M.2679901 .31362916H.3039856L.45399476 .08192444C.46398927 .06594849 .48799134 .026992798 .49899293 .011993408 .5059967 0 .5089874 0 .5319977 0H.66999819C.6879883 0 .7029877 0 .7029877 .017990113 .7029877 .025985718 .69699099 .032989503 .6879883 .034988405 .651001 .04298401 .60198977 .10890198 .5779877 .14085388 .57099917 .15083313 .5209961 .2167511 .45399476 .32463075 .54299929 .34062196 .6289978 .37861634 .6289978 .4975891 .6289978 .63656619 .48199464 .6845703 .3639984 .6845703H.049987794C.03199768 .6845703 .015991211 .6845703 .015991211 .66656497 .015991211 .64956668 .034988405 .64956668 .042999269 .64956668 .099990848 .64956668 .10499573 .64256289 .10499573 .5925751V.091918949C.10499573 .04197693 .099990848 .034988405 .042999269 .034988405 .034988405 .034988405 .015991211 .034988405 .015991211 .017990113 .015991211 0 .03199768 0 .049987794 0H.32398988C.34199525 0 .35699464 0 .35699464 .017990113 .35699464 .034988405 .33999635 .034988405 .32899476 .034988405 .27198792 .034988405 .2679901 .04298401 .2679901 .091918949V.31362916M.46099855 .36262513C.4889984 .39961244 .49198915 .4526062 .49198915 .4965973 .49198915 .5445862 .48599244 .59757998 .45399476 .63856509 .49499513 .6295624 .59399417 .5985718 .59399417 .4975891 .59399417 .43260194 .56399539 .3816223 .46099855 .36262513M.2679901 .59558108C.2679901 .61657717 .2679901 .64956668 .32998658 .64956668 .4149933 .64956668 .45700074 .614563 .45700074 .4965973 .45700074 .36761476 .42599488 .3486328 .2679901 .3486328V.59558108M.13198853 .034988405C.13999939 .052963258 .13999939 .08093262 .13999939 .089920047V.594574C.13999939 .6045685 .13999939 .6315613 .13198853 .64956668H.24598694C.23298645 .6335602 .23298645 .61357119 .23298645 .5985718V.089920047C.23298645 .079940799 .23298645 .052963258 .24099732 .034988405H.13198853M.34498597 .31362916C.35198976 .31462098 .35598756 .31562806 .3639984 .31562806 .3789978 .31562806 .40098573 .31762696 .41600038 .31962586 .43099977 .2956543 .5389862 .117889408 .621994 .034988405H.5249939L.34498597 .31362916Z"/>
<path id="font_2_5" d="M.19999695 .16429138C.20298767 .17929077 .21299744 .21731568 .21598816 .23231507 .22999573 .28634645 .22999573 .28733827 .25299073 .32035829 .28599549 .36938478 .33299256 .4133911 .3999939 .4133911 .43598939 .4133911 .45700074 .39239503 .45700074 .34536744 .45700074 .29034425 .4149933 .17630005 .3959961 .12727356 .3829956 .09425354 .3829956 .088256839 .3829956 .07525635 .3829956 .018234253 .42999269-.009765625 .47299195-.009765625 .57099917-.009765625 .6119995 .13027954 .6119995 .14328003 .6119995 .1532898 .60398867 .15628052 .5970001 .15628052 .58499148 .15628052 .58299258 .14927674 .5799866 .13928223 .55599978 .057250978 .5139923 .018234253 .47599793 .018234253 .45999146 .018234253 .45199586 .02822876 .45199586 .051239015 .45199586 .07424927 .45999146 .0962677 .46998597 .121276859 .4850006 .1592865 .5289917 .27433778 .5289917 .33036805 .5289917 .4053955 .47698976 .44140626 .40499879 .44140626 .32398988 .44140626 .27198792 .39239503 .24299622 .35437013 .23599243 .4093933 .19198609 .44140626 .14099121 .44140626 .10499573 .44140626 .07998657 .418396 .06399536 .38739015 .039993287 .34036256 .02999878 .29034425 .02999878 .28834535 .02999878 .27934266 .036987306 .27534486 .04499817 .27534486 .057998659 .27534486 .05899048 .27934266 .06599426 .3053589 .07798767 .35437013 .09599304 .4133911 .13798523 .4133911 .1639862 .4133911 .16999817 .38838197 .16999817 .36637879 .16999817 .3483734 .16499329 .32936097 .15699768 .29634095 .15499878 .28834535 .13999939 .22932434 .13598633 .21531677L.09899902 .06524658C.09498596 .050247194 .08898926 .025222779 .08898926 .021224976 .08898926-.0017700195 .10798645-.009765625 .12098694-.009765625 .13899231-.009765625 .1539917 .0022277833 .16099549 .014221191 .1639862 .020233155 .17199707 .054244996 .1769867 .07525635L.19999695 .16429138Z"/>
<path id="font_2_4" d="M.19999695 .16429138C.20298767 .17929077 .21299744 .21731568 .21598816 .23231507 .21899414 .24232483 .22499085 .2663269 .22698975 .27633668 .22898865 .28134156 .2619934 .3463745 .30599977 .37937928 .33999635 .4053955 .37298585 .4133911 .40098573 .4133911 .43798829 .4133911 .45799256 .39138795 .45799256 .34536744 .45799256 .32136537 .45199586 .2983551 .44099427 .25332643 .43399049 .22731018 .4169922 .16029358 .41099549 .13327027L.3959961 .07325745C.3909912 .056243898 .38398744 .026229859 .38398744 .021224976 .38398744-.0017700195 .40299989-.009765625 .41600038-.009765625 .43399049-.009765625 .44898988 .0022277833 .45599366 .014221191 .45899964 .020233155 .46699525 .054244996 .47200013 .07525635L.49499513 .16429138C.49798585 .17929077 .5079956 .21731568 .5109863 .23231507 .5249939 .28634645 .5249939 .28733827 .5479889 .32035829 .58099368 .36938478 .6279907 .4133911 .69499209 .4133911 .73098757 .4133911 .7519989 .39239503 .7519989 .34536744 .7519989 .29034425 .70999148 .17529297 .69099429 .12727356 .68099978 .101257327 .6779938 .09425354 .6779938 .07525635 .6779938 .018234253 .72499087-.009765625 .7679901-.009765625 .8659973-.009765625 .9069977 .13027954 .9069977 .14328003 .9069977 .1532898 .8989868 .15628052 .8919983 .15628052 .8799896 .15628052 .8779907 .14927674 .875 .13928223 .8509979 .056243898 .8089905 .018234253 .7709961 .018234253 .7549896 .018234253 .746994 .02822876 .746994 .051239015 .746994 .07424927 .7549896 .0962677 .7649994 .121276859 .7799988 .1592865 .82398989 .27433778 .82398989 .33036805 .82398989 .4053955 .7719879 .44140626 .69999697 .44140626 .6309967 .44140626 .57398989 .4053955 .5289917 .34336854 .5209961 .42340089 .45700074 .44140626 .40499879 .44140626 .35899354 .44140626 .2979889 .42539979 .24299622 .3533783 .23599243 .4133911 .18798828 .44140626 .14099121 .44140626 .10598755 .44140626 .08099365 .4203949 .06399536 .38638307 .039993287 .33937074 .02999878 .29034425 .02999878 .28834535 .02999878 .27934266 .036987306 .27534486 .04499817 .27534486 .057998659 .27534486 .05899048 .27934266 .06599426 .3053589 .07798767 .35437013 .09599304 .4133911 .13798523 .4133911 .1639862 .4133911 .16999817 .38838197 .16999817 .36637879 .16999817 .3483734 .16499329 .32936097 .15699768 .29634095 .15499878 .28834535 .13999939 .22932434 .13598633 .21531677L.09899902 .06524658C.09498596 .050247194 .08898926 .025222779 .08898926 .021224976 .08898926-.0017700195 .10798645-.009765625 .12098694-.009765625 .13899231-.009765625 .1539917 .0022277833 .16099549 .014221191 .1639862 .020233155 .17199707 .054244996 .1769867 .07525635L.19999695 .16429138Z"/>
<path id="font_2_3" d="M.2919922 .66430667C.29299928 .66630557 .29599 .67930606 .29599 .68029788 .29599 .68530276 .2919922 .6943054 .27999879 .6943054 .27598573 .6943054 .24499512 .69129946 .22200012 .68930056L.1659851 .68530276C.14399719 .68330386 .13398743 .682312 .13398743 .66430667 .13398743 .6502991 .147995 .6502991 .1599884 .6502991 .20799256 .6502991 .20799256 .64430239 .20799256 .63531497 .20799256 .63230898 .20799256 .63031008 .20298767 .61231997L.06098938 .04324341C.056991579 .02822876 .056991579 .022232056 .056991579 .021224976 .056991579 .0042266848 .070999149-.009765625 .08999634-.009765625 .12399292-.009765625 .13198853 .022232056 .13598633 .036239625 .1459961 .07826233 .17199707 .18434143 .18299866 .2263794 .23799134 .22036743 .30499269 .20135498 .30499269 .14431763 .30499269 .13931275 .30499269 .13430786 .30299378 .124298099 .2999878 .11129761 .2979889 .09727478 .2979889 .092285159 .2979889 .033233644 .34199525-.009765625 .3999939-.009765625 .44198609-.009765625 .46798707 .021224976 .48098756 .040237428 .5049896 .07727051 .5209961 .13731385 .5209961 .14331055 .5209961 .15332031 .5130005 .1563263 .5059967 .1563263 .49398805 .1563263 .49198915 .15031433 .48799134 .13230896 .47499085 .08528137 .44898988 .018234253 .4019928 .018234253 .37599183 .018234253 .36999513 .040237428 .36999513 .06726074 .36999513 .08027649 .37098695 .092285159 .37599183 .11529541 .3769989 .11929321 .3809967 .13531494 .3809967 .14631653 .3809967 .2283783 .27799989 .24638367 .22698975 .25338746 .2639923 .27540589 .2979889 .30943299 .30999757 .32243348 .36499024 .37643434 .4099884 .4133911 .45799256 .4133911 .47099305 .4133911 .48298646 .4104004 .4909973 .40042115 .43699647 .39343263 .43699647 .34643556 .43699647 .34542848 .43699647 .3234253 .45399476 .3084259 .47599793 .3084259 .5029907 .3084259 .5329895 .33042909 .5329895 .37142945 .5329895 .40541078 .5089874 .44140626 .45899964 .44140626 .40098573 .44140626 .34899903 .39743043 .2919922 .34042359 .23399353 .28341676 .20899964 .2723999 .19299317 .26539613L.2919922 .66430667Z"/>
<path id="font_2_1" d="M.67099 .6770935C.6719971 .6810913 .673996 .687088 .673996 .6920929 .673996 .6990967 .66799929 .70410159 .6609955 .70410159 .6539917 .70410159 .6519928 .7020874 .6409912 .690094 .6299896 .6770935 .60398867 .6450653 .59298709 .63305667 .55400088 .690094 .4909973 .70410159 .43998719 .70410159 .30099488 .70410159 .18199158 .5870209 .18199158 .47291566 .18199158 .41485597 .21299744 .38082887 .21798706 .37382508 .25099183 .3387909 .27999879 .3307953 .35198976 .31378175 .3869934 .3047638 .3889923 .3047638 .41799928 .29776 .44699098 .29075624 .5109863 .2747345 .5109863 .19166565 .5109863 .10458374 .4249878 .011505127 .31999208 .011505127 .25498963 .011505127 .13598633 .03152466 .13598633 .15563965 .13598633 .15863037 .13598633 .17965698 .14199829 .20367432L.14299011 .21368408C.14299011 .22569275 .13198853 .22669983 .12799073 .22669983 .114990238 .22669983 .11399841 .22268677 .10899353 .19967652L.067993167 .03652954C.06399536 .021514893 .056991579-.005493164 .056991579-.0084991459 .056991579-.016494751 .06298828-.021484375 .069992069-.021484375 .07699585-.021484375 .07798767-.020492554 .08898926-.0074920656L.13699341 .048538209C.1599884 .018508912 .21699524-.021484375 .31799317-.021484375 .46299745-.021484375 .58200076 .10958862 .58200076 .22970581 .58200076 .27574159 .5669861 .31176759 .5399933 .33979798 .5099945 .37283326 .47698976 .38082887 .42999269 .39283753 .40098573 .39985658 .3619995 .40885926 .33898927 .41485597 .30899049 .421875 .25299073 .44189454 .25299073 .51194766 .25299073 .5900116 .33699037 .6740875 .43899537 .6740875 .5289917 .6740875 .59098818 .6270447 .59098818 .5189514 .59098818 .49493409 .58699038 .47392274 .58699038 .46990968 .58699038 .457901 .59599307 .4559021 .6029968 .4559021 .61499026 .4559021 .6159973 .4598999 .6199951 .47592164L.67099 .6770935Z"/>
<path id="font_3_1" d="M.47099305 .25C.47099305 .36502076 .3789978 .45703126 .2649994 .45703126 .15098572 .45703126 .05899048 .36502076 .05899048 .25 .05899048 .13496399 .15098572 .04296875 .2649994 .04296875 .3789978 .04296875 .47099305 .13496399 .47099305 .25M.2649994 .08895874C.17599488 .08895874 .10499573 .15997315 .10499573 .25 .10499573 .3400116 .17599488 .411026 .2649994 .411026 .35398866 .411026 .4249878 .3400116 .4249878 .25 .4249878 .15997315 .35398866 .08895874 .2649994 .08895874Z"/>
<path id="font_2_2" d="M.45199586 .6046295C.46099855 .64060977 .46199037 .64260867 .5029907 .64260867H.57899478C.68299868 .64260867 .69499209 .6096344 .69499209 .55966189 .69499209 .5346832 .68899539 .49169923 .6879883 .4867096 .6859894 .47572328 .68499758 .46672059 .68499758 .46472169 .68499758 .45173646 .69400027 .44873048 .69999697 .44873048 .71099856 .44873048 .71499636 .45472718 .71798709 .47372438L.7449951 .66160586C.7449951 .6756134 .73298647 .6756134 .71499636 .6756134H.12599182C.100997928 .6756134 .09899902 .6756134 .09199524 .65460208L.0309906 .48171998C.0289917 .4767151 .025985718 .46871949 .025985718 .46272279 .025985718 .45472718 .032989503 .44873048 .040985109 .44873048 .051986696 .44873048 .053985597 .45373536 .05999756 .47071839 .116989139 .63061526 .1459961 .64260867 .2979889 .64260867H.33699037C.36698915 .64260867 .36799623 .6416168 .36799623 .6336212 .36799623 .63061526 .3639984 .6106262 .36299134 .6066284L.23098755 .081954959C.22200012 .04399109 .21899414 .032989503 .114990238 .032989503 .08299255 .032989503 .07299805 .032989503 .07299805 .01399231 .07299805 .0129852299 .07299805 0 .08999634 0 .116989139 0 .18598938 .0029907227 .21299744 .0029907227H.2979889C.32598878 .0029907227 .3959961 0 .42399598 0 .43199159 0 .44699098 0 .44699098 .018997193 .44699098 .032989503 .43598939 .032989503 .40899659 .032989503 .3849945 .032989503 .3769989 .032989503 .35099793 .034988405 .31900025 .037994386 .31498719 .041992189 .31498719 .054977418 .31498719 .05897522 .31599427 .06297302 .31900025 .07296753L.45199586 .6046295Z"/>
</defs>
<use data-text="R" xlink:href="#font_1_1" transform="matrix(11.95556,0,0,-11.955797,.9818115,13.253712)"/>
<use data-text="n" xlink:href="#font_2_5" transform="matrix(7.9703395,0,0,-7.970498,9.617073,8.915495)"/>
<use data-text="R" xlink:href="#font_1_1" transform="matrix(11.95556,0,0,-11.955797,54.25141,13.253712)"/>
<use data-text="m" xlink:href="#font_2_4" transform="matrix(7.9703395,0,0,-7.970498,62.885675,8.915495)"/>
<use data-text="R" xlink:href="#font_1_1" transform="matrix(11.95556,0,0,-11.955797,109.87409,13.253712)"/>
<use data-text="k" xlink:href="#font_2_3" transform="matrix(7.9703395,0,0,-7.970498,118.508358,8.915495)"/>
<path transform="matrix(1.00003,0,0,-1.00005,62.305658,8.316465)" stroke-width=".47818" stroke-linecap="butt" stroke-miterlimit="10" stroke-linejoin="miter" fill="none" stroke="#000000" d="M-41.69948-9.15721C-13.22018-25.53256 13.7949-25.48413 41.8024-9.2479"/>
<path transform="matrix(.86513599,-.50153508,-.5015251,-.8651532,104.31614,17.444912)" stroke-width=".47818" stroke-linecap="round" stroke-linejoin="round" fill="none" stroke="#000000" d="M-2.4866 2.86914C-2.0323 1.14763-1.01996 .33473 0 0-1.01996-.33473-2.0323-1.14763-2.4866-2.86914"/>
<use data-text="S" xlink:href="#font_2_1" transform="matrix(7.9703395,0,0,-7.970498,54.617425,37.98195)"/>
<use data-text="&#x25e6;" xlink:href="#font_3_1" transform="matrix(7.9703395,0,0,-7.970498,60.213594,37.98195)"/>
<use data-text="T" xlink:href="#font_2_2" transform="matrix(7.9703395,0,0,-7.970498,64.447719,37.98195)"/>
<path transform="matrix(1.00003,0,0,-1.00005,62.305658,8.316465)" stroke-width=".47818" stroke-linecap="butt" stroke-miterlimit="10" stroke-linejoin="miter" fill="none" stroke="#000000" d="M-41.69948-1.94783H-13.88347"/>
<path transform="matrix(1.00003,0,0,-1.00005,48.660867,10.264393)" stroke-width=".47818" stroke-linecap="round" stroke-linejoin="round" fill="none" stroke="#000000" d="M-2.4866 2.86914C-2.0323 1.14763-1.01996 .33473 0 0-1.01996-.33473-2.0323-1.14763-2.4866-2.86914"/>
<use data-text="T" xlink:href="#font_2_2" transform="matrix(7.9703395,0,0,-7.970498,31.698739,7.448422)"/>
<path transform="matrix(1.00003,0,0,-1.00005,62.305658,8.316465)" stroke-width=".47818" stroke-linecap="butt" stroke-miterlimit="10" stroke-linejoin="miter" fill="none" stroke="#000000" d="M13.92188-1.94783H41.73787"/>
<path transform="matrix(1.00003,0,0,-1.00005,104.28389,10.264393)" stroke-width=".47818" stroke-linecap="round" stroke-linejoin="round" fill="none" stroke="#000000" d="M-2.4866 2.86914C-2.0323 1.14763-1.01996 .33473 0 0-1.01996-.33473-2.0323-1.14763-2.4866-2.86914"/>
<use data-text="S" xlink:href="#font_2_1" transform="matrix(7.9703395,0,0,-7.970498,87.577419,7.448422)"/>
</svg>
