<svg xmlns="http://www.w3.org/2000/svg" xmlns:xlink="http://www.w3.org/1999/xlink" version="1.1" width="140" height="77" viewBox="0 0 140 77">
<defs>
<path id="font_1_42" d="M.6519928 .23170471C.6519928 .24272156 .6519928 .24871826 .6409912 .24871826 .6309967 .24871826 .6299896 .24371338 .6299896 .2367096 .62098696 .07757568 .5049896 .007507324 .4079895 .007507324 .33799745 .007507324 .14698792 .049545289 .14698792 .34179688 .14698792 .63105776 .33499146 .6750946 .40699769 .6750946 .5119934 .6750946 .60398867 .5860138 .6239929 .43588258 .6259918 .4238739 .6259918 .42086793 .6380005 .42086793 .6519928 .42086793 .6519928 .4238739 .6519928 .44389344V.6810913C.6519928 .6990967 .6519928 .70410159 .6419983 .70410159 .6359863 .70410159 .6349945 .7020874 .6289978 .6920929L.5799866 .6130371C.5349884 .6690979 .46699525 .70410159 .394989 .70410159 .21199036 .70410159 .053985597 .54597476 .053985597 .34179688 .053985597 .13461304 .21398926-.021484375 .394989-.021484375 .5589905-.021484375 .6519928 .12161255 .6519928 .23170471Z"/>
<path id="font_1_27" d="M.70199587 0V.0289917C.6369934 .0289917 .61898806 .0289917 .6049957 .06993103L.3869934 .6958618C.3829956 .7078552 .3809967 .7138672 .36698915 .7138672 .35299684 .7138672 .35099793 .7108612 .34599305 .69485476L.13699341 .09689331C.12298584 .05595398 .09498596 .02998352 .0309906 .0289917V0L.1269989 .0019989014C.15499878 .0019989014 .20298767 .0019989014 .22898865 0V.0289917C.18699646 .02998352 .1619873 .050964357 .1619873 .07891846 .1619873 .08491516 .1619873 .08691406 .16699219 .09989929L.21299744 .23271179H.46499635L.519989 .075927738C.5249939 .063949588 .5249939 .061950685 .5249939 .058944704 .5249939 .0289917 .47399903 .0289917 .44898988 .0289917V0C.47200013 .0019989014 .5509949 .0019989014 .57899478 .0019989014 .6069946 .0019989014 .67900088 .0019989014 .70199587 0M.45498658 .26171876H.22299195L.33898927 .5948181 .45498658 .26171876Z"/>
<path id="font_1_46" d="M.69299319 .33480836C.69299319 .5276947 .55799868 .6826172 .3919983 .6826172H.041992189V.6536102H.06199646C.13398743 .6536102 .13699341 .6436157 .13699341 .6066437V.07595825C.13699341 .038986207 .13398743 .0289917 .06199646 .0289917H.041992189V0H.3919983C.5589905 0 .69299319 .1499176 .69299319 .33480836M.60198977 .33580018C.60198977 .2798462 .6009979 .18589783 .5439911 .11193848 .5109863 .06996155 .45098878 .0289917 .36698915 .0289917H.2619934C.21798706 .0289917 .21598816 .035995485 .21598816 .06896973V.6136322C.21598816 .6466217 .21798706 .6536102 .2619934 .6536102H.36698915C.44999696 .6536102 .5159912 .6136322 .5569916 .5476837 .60198977 .4767151 .60198977 .3757782 .60198977 .33580018Z"/>
<path id="font_1_34" d="M.6380005 .18299866C.6380005 .2639923 .5649872 .34399415 .44599916 .35699464 .54100039 .37478639 .6100006 .43873597 .6100006 .5137024 .6100006 .5996399 .522995 .6826172 .3919983 .6826172H.042999269V.6536102H.06298828C.1349945 .6536102 .13798523 .6436157 .13798523 .6066437V.07595825C.13798523 .038986207 .1349945 .0289917 .06298828 .0289917H.042999269V0H.4189911C.5479889 0 .6380005 .08694458 .6380005 .18286133V.18299866M.5219879 .5136566C.5219879 .44769288 .46998597 .36471559 .35899354 .36471559H.21398926V.61361697C.21398926 .64660647 .21598816 .6536102 .2599945 .6536102H.38598634C.48599244 .6536102 .5219879 .5676422 .5219879 .5136566M.5469971 .18385315C.5469971 .10293579 .48599244 .0289917 .3880005 .0289917H.2599945C.21598816 .0289917 .21398926 .035980226 .21398926 .06895447V.34472657H.40098573C.49699403 .34472657 .5469971 .26078797 .5469971 .18385315Z"/>
<path id="font_1_49" d="M.6380005 .2558899H.6159973C.59199526 .09996033 .56799319 .0289917 .39898683 .0289917H.2630005C.21899414 .0289917 .21699524 .035995485 .21699524 .06896973V.3388672H.30799867C.4039917 .3388672 .4149933 .3078766 .4149933 .22190857H.43699647V.48477174H.4149933C.4149933 .39883424 .4039917 .3678589 .30799867 .3678589H.21699524V.6116791C.21699524 .6446686 .21899414 .6516571 .2630005 .6516571H.3959961C.54299929 .6516571 .57398989 .6016998 .58898928 .4577942H.61099246L.58499148 .68066409H.040985109V.6516571H.06098938C.1329956 .6516571 .13598633 .6416626 .13598633 .60469058V.07597351C.13598633 .038986207 .1329956 .0289917 .06098938 .0289917H.040985109V0H.59799197L.6380005 .2558899Z"/>
</defs>
<path transform="matrix(1.00003,0,0,-1.00006,13.34827,54.7284)" stroke-width=".3985" stroke-linecap="butt" stroke-miterlimit="10" stroke-linejoin="miter" fill="none" stroke="#000000" d="M0 0 28.3468 48.47322 56.69362 0Z"/>
<use data-text="C" xlink:href="#font_1_42" transform="matrix(11.95556,0,0,-11.955917,.7118912,58.811647)" fill="#ec008c"/>
<use data-text="A" xlink:href="#font_1_27" transform="matrix(11.95556,0,0,-11.955917,28.736733,10.520748)" fill="#ec008c"/>
<use data-text="D" xlink:href="#font_1_46" transform="matrix(11.95556,0,0,-11.955917,65.57184,50.54415)" fill="#ec008c"/>
<path transform="matrix(1.00003,0,0,-1.00006,13.34827,54.7284)" stroke-width=".3985" stroke-linecap="butt" stroke-miterlimit="10" stroke-linejoin="miter" fill="none" stroke="#000000" d="M56.69362 0 85.04042 48.47322H28.3468Z"/>
<use data-text="B" xlink:href="#font_1_34" transform="matrix(11.95556,0,0,-11.955917,102.57495,10.335739)" fill="#ec008c"/>
<path transform="matrix(1.00003,0,0,-1.00006,13.34827,54.7284)" stroke-width=".3985" stroke-linecap="butt" stroke-miterlimit="10" stroke-linejoin="miter" fill="none" stroke="#000000" d="M85.04042 48.47322 113.38724 0H56.69362Z"/>
<use data-text="E" xlink:href="#font_1_49" transform="matrix(11.95556,0,0,-11.955917,130.9228,58.799646)" fill="#ec008c"/>
<path transform="matrix(1.00003,0,0,-1.00006,13.34827,54.7284)" stroke-width=".3985" stroke-linecap="butt" stroke-miterlimit="10" stroke-linejoin="miter" fill="none" stroke="#0000ff" d="M0 0 7.08669-12.04747H-7.08669Z"/>
<path transform="matrix(1.00003,0,0,-1.00006,13.34827,54.7284)" stroke-width=".3985" stroke-linecap="butt" stroke-miterlimit="10" stroke-linejoin="miter" fill="none" stroke="#0000ff" d="M113.38724 0 120.47392-12.04747H106.30052Z"/>
<path transform="matrix(1.00003,0,0,-1.00006,13.34827,54.7284)" stroke-width=".79701" stroke-linecap="butt" stroke-miterlimit="10" stroke-linejoin="miter" fill="none" stroke="#ff0000" d="M56.69362 0V-20.46309"/>
<path transform="matrix(0,1.00006,1.00003,0,70.043598,75.59124)" stroke-width=".79701" stroke-linecap="round" stroke-linejoin="round" fill="none" stroke="#ff0000" d="M-2.55046 3.11095C-2.0845 1.24435-1.04614 .36295 0 0-1.04614-.36295-2.0845-1.24435-2.55046-3.11095"/>
</svg>
