<svg xmlns="http://www.w3.org/2000/svg" xmlns:xlink="http://www.w3.org/1999/xlink" version="1.1" width="241" height="26" viewBox="0 0 241 26">
<defs>
<path id="font_1_82" d="M.4099884 0V.0289917H.3789978C.29100038 .0289917 .28799439 .041000368 .28799439 .07701111V.6411133C.28799439 .664032 .28799439 .66503909 .2679901 .66503909 .24398804 .63812258 .19400025 .6012573 .09098816 .6012573V.5722656C.11399841 .5722656 .1639862 .5722656 .21899414 .59825137V.07701111C.21899414 .041000368 .21598816 .0289917 .12799073 .0289917H.09700012V0C.12399292 .0019989014 .22099304 .0019989014 .2539978 .0019989014 .2869873 .0019989014 .3829956 .0019989014 .4099884 0Z"/>
<path id="font_1_106" d="M.44799806 .17103577C.44799806 .263031 .37399293 .33503724 .27799989 .35203553 .36499024 .37702943 .42099 .45002748 .42099 .5280304 .42099 .60702517 .33898927 .66503909 .24198914 .66503909 .14199829 .66503909 .067993167 .6040344 .067993167 .5310364 .067993167 .49121095 .09899902 .48321534 .11399841 .48321534 .1349945 .48321534 .15899658 .49821473 .15899658 .5282135 .15899658 .5602112 .1349945 .57421877 .11299133 .57421877 .10699463 .57421877 .10499573 .57421877 .101989749 .57321169 .13999939 .641037 .23399353 .641037 .23899842 .641037 .27198792 .641037 .33699037 .6260681 .33699037 .5282135 .33699037 .5092163 .33399964 .453125 .30499269 .41001893 .2749939 .3658905 .24099732 .36288453 .21398926 .36187745L.18399048 .35888673C.16699219 .35787965 .16299439 .35688783 .16299439 .34788514 .16299439 .33789063 .16799927 .33789063 .18598938 .33789063H.23199463C.31698609 .33789063 .35499574 .267807 .35499574 .17172241 .35499574 .04058838 .2869873 .005508423 .23799134 .005508423 .18998719 .005508423 .10798645 .028564454 .07899475 .09472656 .11099243 .08955383 .13999939 .107543949 .13999939 .14355469 .13999939 .17271424 .11898804 .1927185 .09098816 .1927185 .066986087 .1927185 .040985109 .1787262 .040985109 .14071656 .040985109 .051620485 .12998963-.021484375 .24099732-.021484375 .3600006-.021453858 .44799806 .06954956 .44799806 .17054749V.17103577Z"/>
<path id="font_1_56" d="M.43998719 .2004242C.43998719 .3194275 .3600006 .4184265 .25498963 .4184265 .19799805 .4184265 .1539917 .39343263 .12799073 .36543275V.5722656C.17098999 .558609 .20599365 .5576172 .21699524 .5576172 .32998658 .5576172 .4019928 .6404724 .4019928 .65423586 .4019928 .65815737 .3999939 .66308596 .3939972 .66308596 .3939972 .6638031 .3899994 .6638031 .3809967 .6598053 .32499696 .6358032 .2769928 .6328125 .25099183 .6328125 .18499756 .6322632 .13798523 .6522522 .11898804 .66026309 .11199951 .66308596 .10899353 .66308596 .10899353 .66308596 .100997928 .66308596 .100997928 .65708926 .100997928 .6411133V.34443666C.100997928 .32644654 .100997928 .32044984 .11299133 .32044984 .117996219 .32044984 .11898804 .32144166 .1289978 .33345033 .15699768 .37443543 .20399475 .3984375 .2539978 .3984375 .30699159 .3984375 .33299256 .34944154 .34098817 .33244325 .35798646 .29345704 .35899354 .24446106 .35899354 .20648194 .35899354 .16848755 .35899354 .11149597 .33099366 .06651306 .30899049 .030426026 .269989 .005508423 .22599793 .005508423 .1599884 .005508423 .09498596 .050354005 .07699585 .12310791 .08198547 .12110901 .08799744 .12011719 .09298706 .12011719 .10998535 .12011719 .13699341 .1301117 .13699341 .16410828 .13699341 .19210816 .117996219 .20811463 .09298706 .20811463 .07499695 .20811463 .04899597 .19911194 .04899597 .16011048 .04899597 .07527161 .116989139-.021484375 .22799683-.021484375 .34098817-.021484375 .43998719 .073272708 .43998719 .20010376V.2004242Z"/>
<path id="font_1_100" d="M.47499085 .6212311V.64424136H.23399353C.11299133 .64424136 .11099243 .65704348 .10699463 .67578127H.084991458L.053985597 .47612H.07598877C.07899475 .49414063 .08799744 .5562134 .100997928 .5672302 .10899353 .5732422 .18399048 .5732422 .19799805 .5732422H.4099884L.3039856 .42105104C.2769928 .38200379 .17599488 .21780396 .17599488 .029571534 .17599488 .018554688 .17599488-.021484375 .21699524-.021484375 .25898744-.021484375 .25898744 .017562867 .25898744 .030578614V.08062744C.25898744 .22981262 .2829895 .34596253 .32998658 .41304017L.47499085 .6212311Z"/>
<path id="font_1_78" d="M.44799806 .32858277C.44799806 .5979767 .33599855 .66503909 .24798584 .66503909 .13798523 .66503909 .040985109 .572937 .040985109 .44075013 .040985109 .30859376 .13398743 .21875 .23399353 .21875 .30799867 .21875 .34599305 .2726593 .3659973 .32359315V.2906189C.3659973 .05493164 .26098634 .005508423 .20098877 .005508423 .1769867 .005508423 .12399292 .008544922 .09899902 .043945314H.10499573C.11199951 .041915895 .147995 .047943117 .147995 .08493042 .147995 .106933597 .1329956 .12593079 .10699463 .12593079 .08099365 .12593079 .06498718 .108932498 .06498718 .08293152 .06498718 .02067566 .114990238-.021484375 .20199585-.021484375 .32699586-.021484375 .44799806 .11193848 .44799806 .32858277M.3639984 .41871644C.3639984 .33459474 .32598878 .23873902 .23799134 .23873902 .1749878 .23873902 .147995 .28962709 .13899231 .30859376 .12298584 .34661866 .12298584 .39468385 .12298584 .43974305 .12298584 .4958191 .12298584 .54389956 .14898682 .5849457 .16699219 .61198428 .19400025 .641037 .24798584 .641037 .30499269 .641037 .33399964 .59095767 .34399415 .5679321 .3639984 .51885989 .3639984 .43373109 .3639984 .41871644Z"/>
</defs>
<path transform="matrix(1.00002,0,0,-1.00003,21.072842,7.7711737)" stroke-width=".79701" stroke-linecap="butt" stroke-miterlimit="10" stroke-linejoin="miter" fill="none" stroke="#000000" d="M-19.84393 0H217.56424"/>
<path transform="matrix(1.00002,0,0,-1.00003,238.64145,7.7711737)" stroke-width=".6376" stroke-linecap="round" stroke-linejoin="round" fill="none" stroke="#000000" d="M-1.55415 2.0722C-1.42464 1.29512 0 .1295 .38852 0 0-.1295-1.42464-1.29512-1.55415-2.0722"/>
<path transform="matrix(1.00002,0,0,-1.00003,21.072842,7.7711737)" stroke-width=".79701" stroke-linecap="butt" stroke-miterlimit="10" stroke-linejoin="miter" fill="none" stroke="#000000" d="M0 3.48697V-3.48697"/>
<use data-text="1" xlink:href="#font_1_82" transform="matrix(11.95544,0,0,-11.95556,18.143784,23.591649)"/>
<path transform="matrix(1.00002,0,0,-1.00003,21.072842,7.7711737)" stroke-width=".79701" stroke-linecap="butt" stroke-miterlimit="10" stroke-linejoin="miter" fill="none" stroke="#000000" d="M39.6849 3.48697V-3.48697"/>
<use data-text="3" xlink:href="#font_1_106" transform="matrix(11.95544,0,0,-11.95556,57.82958,23.591649)"/>
<path transform="matrix(1.00002,0,0,-1.00003,21.072842,7.7711737)" stroke-width=".79701" stroke-linecap="butt" stroke-miterlimit="10" stroke-linejoin="miter" fill="none" stroke="#000000" d="M79.36983 3.48697V-3.48697"/>
<use data-text="5" xlink:href="#font_1_56" transform="matrix(11.95544,0,0,-11.95556,97.51538,23.579648)"/>
<path transform="matrix(1.00002,0,0,-1.00003,21.072842,7.7711737)" stroke-width=".79701" stroke-linecap="butt" stroke-miterlimit="10" stroke-linejoin="miter" fill="none" stroke="#000000" d="M119.05772 3.48697V-3.48697"/>
<use data-text="7" xlink:href="#font_1_100" transform="matrix(11.95544,0,0,-11.95556,137.20417,23.723652)"/>
<path transform="matrix(1.00002,0,0,-1.00003,21.072842,7.7711737)" stroke-width=".79701" stroke-linecap="butt" stroke-miterlimit="10" stroke-linejoin="miter" fill="none" stroke="#000000" d="M158.74265 3.48697V-3.48697"/>
<use data-text="9" xlink:href="#font_1_78" transform="matrix(11.95544,0,0,-11.95556,176.88997,23.591649)"/>
<path transform="matrix(1.00002,0,0,-1.00003,21.072842,7.7711737)" stroke-width=".79701" stroke-linecap="butt" stroke-miterlimit="10" stroke-linejoin="miter" fill="none" stroke="#000000" d="M198.42766 3.48697V-3.48697"/>
<use data-text="1" xlink:href="#font_1_82" transform="matrix(11.95544,0,0,-11.95556,213.64672,23.591649)"/>
<use data-text="1" xlink:href="#font_1_82" transform="matrix(11.95544,0,0,-11.95556,219.50489,23.591649)"/>
<path transform="matrix(1.00002,0,0,-1.00003,21.072842,7.7711737)" stroke-width="1.59404" stroke-linecap="butt" stroke-miterlimit="10" stroke-linejoin="miter" fill="none" stroke="#0000ff" d="M77.3866 0H78.5728"/>
<path transform="matrix(1.00002,0,0,-1.00003,99.64722,7.7711737)" stroke-width="1.59404" stroke-linecap="butt" stroke-miterlimit="10" stroke-linejoin="miter" fill="none" stroke="#0000ff" d="M-2.98883-4.38362H0V4.38362H-2.98883"/>
<path transform="matrix(1.00002,0,0,-1.00003,21.072842,7.7711737)" stroke-width="1.59404" stroke-linecap="butt" stroke-miterlimit="10" stroke-linejoin="miter" fill="none" stroke="#0000ff" d="M117.86853 0H119.05772"/>
<path transform="matrix(-1.00002,-0,0,1.00003,138.94373,7.7711737)" stroke-width="1.59404" stroke-linecap="butt" stroke-miterlimit="10" stroke-linejoin="miter" fill="none" stroke="#0000ff" d="M-2.98883-4.38362H0V4.38362H-2.98883"/>
<path transform="matrix(1.00002,0,0,-1.00003,21.072842,7.7711737)" d="M-14.6912-5.77113H74.21709C77.0629-5.77113 79.36983-3.4642 79.36983-.6184V.6184C79.36983 3.4642 77.0629 5.77113 74.21709 5.77113H-14.6912C-17.537 5.77113-19.84393 3.4642-19.84393 .6184V-.6184C-19.84393-3.4642-17.537-5.77113-14.6912-5.77113Z" fill="#0000ff" fill-opacity=".2"/>
<path transform="matrix(1.00002,0,0,-1.00003,21.072842,7.7711737)" d="M124.21046-5.77113H213.11887C215.96468-5.77113 218.2716-3.4642 218.2716-.6184V.6184C218.2716 3.4642 215.96468 5.77113 213.11887 5.77113H124.21046C121.36465 5.77113 119.05772 3.4642 119.05772 .6184V-.6184C119.05772-3.4642 121.36465-5.77113 124.21046-5.77113Z" fill="#0000ff" fill-opacity=".2"/>
</svg>
